<svg xmlns="http://www.w3.org/2000/svg" xmlns:xlink="http://www.w3.org/1999/xlink" width="1000" zoomAndPan="magnify" viewBox="0 0 750 74.999997" height="100" preserveAspectRatio="xMidYMid meet" version="1.0"><defs><g/></defs><g fill="#ffffff" fill-opacity="1"><g transform="translate(10.054702, 69.749993)"><g><path d="M 24.375 -15.515625 C 24.40625 -15.804688 24.539062 -16.039062 24.78125 -16.21875 C 25.03125 -16.40625 25.320312 -16.53125 25.65625 -16.59375 C 26 -16.65625 26.335938 -16.65625 26.671875 -16.59375 C 27.015625 -16.53125 27.300781 -16.414062 27.53125 -16.25 C 27.769531 -16.082031 27.890625 -15.851562 27.890625 -15.5625 C 27.898438 -14.800781 27.804688 -13.925781 27.609375 -12.9375 C 27.410156 -11.957031 27.109375 -10.945312 26.703125 -9.90625 C 26.304688 -8.863281 25.828125 -7.863281 25.265625 -6.90625 C 24.710938 -5.945312 24.078125 -5.097656 23.359375 -4.359375 C 22.640625 -3.628906 21.859375 -3.078125 21.015625 -2.703125 C 19.960938 -2.234375 18.8125 -1.910156 17.5625 -1.734375 C 16.3125 -1.566406 15.046875 -1.5625 13.765625 -1.71875 C 12.484375 -1.875 11.269531 -2.195312 10.125 -2.6875 C 8.988281 -3.175781 8 -3.84375 7.15625 -4.6875 C 6.039062 -5.8125 5.109375 -7.039062 4.359375 -8.375 C 3.617188 -9.707031 3.023438 -11.101562 2.578125 -12.5625 C 2.140625 -14.03125 1.816406 -15.507812 1.609375 -17 C 1.410156 -18.488281 1.296875 -19.957031 1.265625 -21.40625 C 1.242188 -22.851562 1.28125 -24.226562 1.375 -25.53125 C 1.613281 -29.175781 1.988281 -32.445312 2.5 -35.34375 C 3.019531 -38.238281 3.640625 -40.804688 4.359375 -43.046875 C 5.085938 -45.285156 5.875 -47.234375 6.71875 -48.890625 C 7.5625 -50.546875 8.4375 -51.945312 9.34375 -53.09375 C 10.257812 -54.238281 11.164062 -55.175781 12.0625 -55.90625 C 12.96875 -56.632812 13.828125 -57.191406 14.640625 -57.578125 C 15.460938 -57.972656 16.207031 -58.234375 16.875 -58.359375 C 17.550781 -58.492188 18.113281 -58.539062 18.5625 -58.5 C 19.875 -58.382812 21.007812 -58.082031 21.96875 -57.59375 C 22.9375 -57.101562 23.757812 -56.476562 24.4375 -55.71875 C 25.113281 -54.96875 25.671875 -54.128906 26.109375 -53.203125 C 26.554688 -52.273438 26.898438 -51.3125 27.140625 -50.3125 C 27.390625 -49.3125 27.5625 -48.316406 27.65625 -47.328125 C 27.757812 -46.335938 27.8125 -45.398438 27.8125 -44.515625 C 27.820312 -43.640625 27.804688 -42.859375 27.765625 -42.171875 C 27.734375 -41.492188 27.695312 -40.96875 27.65625 -40.59375 C 27.539062 -39.363281 27.375 -38.148438 27.15625 -36.953125 C 26.945312 -35.753906 26.664062 -34.628906 26.3125 -33.578125 C 25.957031 -32.523438 25.53125 -31.585938 25.03125 -30.765625 C 24.539062 -29.953125 23.960938 -29.300781 23.296875 -28.8125 C 22.640625 -28.332031 21.878906 -28.070312 21.015625 -28.03125 C 20.347656 -28 19.757812 -28.175781 19.25 -28.5625 C 18.75 -28.957031 18.316406 -29.503906 17.953125 -30.203125 C 17.597656 -30.898438 17.316406 -31.703125 17.109375 -32.609375 C 16.898438 -33.515625 16.753906 -34.472656 16.671875 -35.484375 C 16.597656 -36.492188 16.585938 -37.5 16.640625 -38.5 C 16.691406 -39.507812 16.800781 -40.46875 16.96875 -41.375 C 17.144531 -42.28125 17.375 -43.078125 17.65625 -43.765625 C 17.84375 -44.148438 18.0625 -44.378906 18.3125 -44.453125 C 18.5625 -44.535156 18.773438 -44.519531 18.953125 -44.40625 C 19.140625 -44.289062 19.203125 -44.128906 19.140625 -43.921875 C 19.085938 -43.765625 19.023438 -43.425781 18.953125 -42.90625 C 18.878906 -42.382812 18.8125 -41.742188 18.75 -40.984375 C 18.6875 -40.222656 18.632812 -39.394531 18.59375 -38.5 C 18.550781 -37.601562 18.539062 -36.691406 18.5625 -35.765625 C 18.582031 -34.835938 18.644531 -33.957031 18.75 -33.125 C 18.863281 -32.289062 19.03125 -31.554688 19.25 -30.921875 C 19.476562 -30.296875 19.773438 -29.816406 20.140625 -29.484375 C 20.515625 -29.148438 20.96875 -29.035156 21.5 -29.140625 C 21.800781 -29.191406 22.078125 -29.394531 22.328125 -29.75 C 22.585938 -30.101562 22.820312 -30.550781 23.03125 -31.09375 C 23.238281 -31.644531 23.425781 -32.238281 23.59375 -32.875 C 23.757812 -33.519531 23.90625 -34.160156 24.03125 -34.796875 C 24.15625 -35.441406 24.253906 -36.03125 24.328125 -36.5625 C 24.410156 -37.09375 24.46875 -37.515625 24.5 -37.828125 C 24.625 -39.148438 24.726562 -40.515625 24.8125 -41.921875 C 24.894531 -43.335938 24.921875 -44.738281 24.890625 -46.125 C 24.859375 -47.519531 24.738281 -48.847656 24.53125 -50.109375 C 24.320312 -51.378906 23.984375 -52.519531 23.515625 -53.53125 C 23.054688 -54.550781 22.441406 -55.382812 21.671875 -56.03125 C 20.898438 -56.6875 19.925781 -57.09375 18.75 -57.25 C 18.03125 -57.351562 17.253906 -57.234375 16.421875 -56.890625 C 15.585938 -56.546875 14.734375 -55.914062 13.859375 -55 C 12.984375 -54.09375 12.125 -52.847656 11.28125 -51.265625 C 10.4375 -49.679688 9.644531 -47.707031 8.90625 -45.34375 C 8.175781 -42.976562 7.535156 -40.175781 6.984375 -36.9375 C 6.429688 -33.695312 6.003906 -29.953125 5.703125 -25.703125 C 5.585938 -24.117188 5.550781 -22.5 5.59375 -20.84375 C 5.644531 -19.195312 5.804688 -17.5625 6.078125 -15.9375 C 6.359375 -14.320312 6.789062 -12.753906 7.375 -11.234375 C 7.96875 -9.710938 8.753906 -8.285156 9.734375 -6.953125 C 10.273438 -6.210938 10.925781 -5.582031 11.6875 -5.0625 C 12.445312 -4.539062 13.269531 -4.164062 14.15625 -3.9375 C 15.039062 -3.71875 15.929688 -3.675781 16.828125 -3.8125 C 17.734375 -3.957031 18.585938 -4.304688 19.390625 -4.859375 C 20.222656 -5.453125 20.9375 -6.148438 21.53125 -6.953125 C 22.125 -7.765625 22.613281 -8.640625 23 -9.578125 C 23.394531 -10.523438 23.703125 -11.503906 23.921875 -12.515625 C 24.148438 -13.523438 24.300781 -14.523438 24.375 -15.515625 Z M 24.375 -15.515625 "/></g></g></g><g fill="#ffffff" fill-opacity="1"><g transform="translate(40.676709, 69.749993)"><g><path d="M 15.640625 -27.5 C 15.660156 -27.5625 15.738281 -27.597656 15.875 -27.609375 C 16.019531 -27.628906 16.164062 -27.625 16.3125 -27.59375 C 16.457031 -27.570312 16.519531 -27.53125 16.5 -27.46875 C 16.3125 -25.832031 16.050781 -24.195312 15.71875 -22.5625 C 15.382812 -20.9375 14.9375 -19.347656 14.375 -17.796875 C 14.164062 -17.210938 13.929688 -16.613281 13.671875 -16 C 13.410156 -15.394531 13.09375 -14.859375 12.71875 -14.390625 C 12.351562 -13.921875 11.894531 -13.585938 11.34375 -13.390625 C 10.800781 -13.191406 10.140625 -13.195312 9.359375 -13.40625 C 8.722656 -13.582031 8.222656 -13.914062 7.859375 -14.40625 C 7.492188 -14.90625 7.222656 -15.492188 7.046875 -16.171875 C 6.867188 -16.847656 6.75 -17.539062 6.6875 -18.25 C 6.550781 -17.832031 6.40625 -17.414062 6.25 -17 C 6.101562 -16.59375 5.941406 -16.191406 5.765625 -15.796875 C 5.523438 -15.265625 5.238281 -14.757812 4.90625 -14.28125 C 4.582031 -13.8125 4.207031 -13.414062 3.78125 -13.09375 C 3.351562 -12.78125 2.875 -12.578125 2.34375 -12.484375 C 1.820312 -12.398438 1.238281 -12.484375 0.59375 -12.734375 C 0.03125 -12.953125 -0.414062 -13.28125 -0.75 -13.71875 C -1.09375 -14.15625 -1.351562 -14.644531 -1.53125 -15.1875 C -1.707031 -15.738281 -1.832031 -16.304688 -1.90625 -16.890625 C -1.976562 -17.484375 -2.023438 -18.039062 -2.046875 -18.5625 C -2.128906 -19.945312 -2.09375 -21.328125 -1.9375 -22.703125 C -1.78125 -24.078125 -1.519531 -25.4375 -1.15625 -26.78125 C -1 -27.351562 -0.816406 -27.96875 -0.609375 -28.625 C -0.410156 -29.28125 -0.175781 -29.929688 0.09375 -30.578125 C 0.375 -31.222656 0.695312 -31.820312 1.0625 -32.375 C 1.425781 -32.9375 1.851562 -33.414062 2.34375 -33.8125 C 2.71875 -34.113281 3.148438 -34.34375 3.640625 -34.5 C 4.140625 -34.664062 4.648438 -34.75 5.171875 -34.75 C 5.691406 -34.75 6.191406 -34.660156 6.671875 -34.484375 C 7.160156 -34.304688 7.570312 -34.03125 7.90625 -33.65625 C 7.9375 -33.625 7.960938 -33.59375 7.984375 -33.5625 C 8.015625 -33.53125 8.039062 -33.492188 8.0625 -33.453125 C 8.445312 -33.554688 8.835938 -33.59375 9.234375 -33.5625 C 9.640625 -33.539062 9.984375 -33.453125 10.265625 -33.296875 C 10.546875 -33.140625 10.671875 -32.921875 10.640625 -32.640625 C 10.515625 -30.828125 10.394531 -29 10.28125 -27.15625 C 10.175781 -25.3125 10.148438 -23.472656 10.203125 -21.640625 C 10.253906 -19.816406 10.453125 -18.007812 10.796875 -16.21875 C 10.816406 -16.082031 10.84375 -15.945312 10.875 -15.8125 C 10.90625 -15.675781 10.941406 -15.539062 10.984375 -15.40625 C 11.117188 -15.582031 11.25 -15.753906 11.375 -15.921875 C 11.5 -16.085938 11.613281 -16.253906 11.71875 -16.421875 C 12.082031 -16.960938 12.410156 -17.507812 12.703125 -18.0625 C 12.992188 -18.625 13.265625 -19.195312 13.515625 -19.78125 C 14.046875 -21.019531 14.484375 -22.28125 14.828125 -23.5625 C 15.179688 -24.84375 15.453125 -26.15625 15.640625 -27.5 Z M 5 -22.46875 C 5.351562 -23.695312 5.640625 -24.941406 5.859375 -26.203125 C 6.078125 -27.460938 6.289062 -28.722656 6.5 -29.984375 C 6.414062 -30.242188 6.300781 -30.5 6.15625 -30.75 C 6.019531 -30.96875 5.894531 -31.1875 5.78125 -31.40625 C 5.664062 -31.625 5.535156 -31.835938 5.390625 -32.046875 C 5.335938 -32.128906 5.28125 -32.207031 5.21875 -32.28125 C 5.164062 -32.363281 5.109375 -32.441406 5.046875 -32.515625 C 4.953125 -32.378906 4.863281 -32.238281 4.78125 -32.09375 C 4.695312 -31.945312 4.613281 -31.800781 4.53125 -31.65625 C 4.40625 -31.4375 4.28125 -31.207031 4.15625 -30.96875 C 4.039062 -30.726562 3.929688 -30.484375 3.828125 -30.234375 C 3.359375 -29.222656 2.96875 -28.1875 2.65625 -27.125 C 2.300781 -25.976562 2.035156 -24.800781 1.859375 -23.59375 C 1.691406 -22.394531 1.609375 -21.195312 1.609375 -20 C 1.609375 -19.46875 1.617188 -18.929688 1.640625 -18.390625 C 1.671875 -17.847656 1.726562 -17.3125 1.8125 -16.78125 C 1.84375 -16.625 1.890625 -16.375 1.953125 -16.03125 C 2.015625 -15.6875 2.109375 -15.359375 2.234375 -15.046875 C 2.460938 -15.367188 2.671875 -15.738281 2.859375 -16.15625 C 3.046875 -16.582031 3.210938 -16.988281 3.359375 -17.375 C 3.515625 -17.757812 3.625 -18.039062 3.6875 -18.21875 C 3.945312 -18.914062 4.179688 -19.617188 4.390625 -20.328125 C 4.597656 -21.035156 4.800781 -21.75 5 -22.46875 Z M 5 -22.46875 "/></g></g></g><g fill="#ffffff" fill-opacity="1"><g transform="translate(56.436892, 69.749993)"><g><path d="M 14.75 -25.140625 C 14.800781 -25.265625 14.914062 -25.347656 15.09375 -25.390625 C 15.269531 -25.441406 15.453125 -25.453125 15.640625 -25.421875 C 15.835938 -25.390625 16 -25.328125 16.125 -25.234375 C 16.25 -25.140625 16.285156 -25.015625 16.234375 -24.859375 C 15.578125 -23.054688 14.804688 -21.53125 13.921875 -20.28125 C 13.035156 -19.039062 12.050781 -18.03125 10.96875 -17.25 C 9.894531 -16.46875 8.71875 -15.863281 7.4375 -15.4375 C 7.894531 -15.050781 8.296875 -14.59375 8.640625 -14.0625 C 9.023438 -13.425781 9.320312 -12.828125 9.53125 -12.265625 C 9.738281 -11.703125 9.878906 -11.128906 9.953125 -10.546875 C 10.023438 -9.960938 10.035156 -9.304688 9.984375 -8.578125 C 9.785156 -5.609375 9.160156 -3.351562 8.109375 -1.8125 C 7.054688 -0.28125 5.554688 0.476562 3.609375 0.46875 C 3.023438 0.457031 2.519531 0.273438 2.09375 -0.078125 C 1.675781 -0.429688 1.332031 -0.875 1.0625 -1.40625 C 0.800781 -1.9375 0.59375 -2.476562 0.4375 -3.03125 C 0.101562 -4.175781 -0.125 -5.351562 -0.25 -6.5625 C -0.375 -7.769531 -0.492188 -8.96875 -0.609375 -10.15625 C -0.722656 -11.4375 -0.816406 -12.71875 -0.890625 -14 C -0.960938 -15.289062 -1.007812 -16.582031 -1.03125 -17.875 C -1.070312 -20.394531 -1.007812 -22.914062 -0.84375 -25.4375 C -0.6875 -27.957031 -0.429688 -30.46875 -0.078125 -32.96875 C 0.242188 -35.257812 0.632812 -37.5625 1.09375 -39.875 C 1.5625 -42.1875 2.207031 -44.421875 3.03125 -46.578125 C 3.289062 -47.273438 3.601562 -48.039062 3.96875 -48.875 C 4.332031 -49.707031 4.742188 -50.519531 5.203125 -51.3125 C 5.671875 -52.113281 6.191406 -52.820312 6.765625 -53.4375 C 7.335938 -54.050781 7.96875 -54.492188 8.65625 -54.765625 C 9.351562 -55.035156 10.113281 -55.050781 10.9375 -54.8125 C 11.757812 -54.5625 12.394531 -54.007812 12.84375 -53.15625 C 13.300781 -52.300781 13.578125 -51.207031 13.671875 -49.875 C 13.773438 -48.550781 13.707031 -47.050781 13.46875 -45.375 C 13.226562 -43.695312 12.820312 -41.898438 12.25 -39.984375 C 11.675781 -38.066406 10.945312 -36.097656 10.0625 -34.078125 C 9.175781 -32.066406 8.132812 -30.054688 6.9375 -28.046875 C 5.75 -26.046875 4.421875 -24.113281 2.953125 -22.25 C 2.910156 -22.238281 2.847656 -22.179688 2.765625 -22.078125 C 2.679688 -21.984375 2.640625 -21.910156 2.640625 -21.859375 C 2.628906 -20.867188 2.625 -19.878906 2.625 -18.890625 C 2.625 -17.910156 2.640625 -16.925781 2.671875 -15.9375 C 3.179688 -16.25 3.71875 -16.425781 4.28125 -16.46875 C 4.851562 -16.507812 5.410156 -16.4375 5.953125 -16.25 C 7.953125 -17.0625 9.710938 -18.210938 11.234375 -19.703125 C 12.753906 -21.191406 13.925781 -23.003906 14.75 -25.140625 Z M 6.390625 -45.640625 C 5.617188 -43.503906 4.992188 -41.300781 4.515625 -39.03125 C 4.035156 -36.769531 3.660156 -34.484375 3.390625 -32.171875 C 3.117188 -29.867188 2.921875 -27.582031 2.796875 -25.3125 C 3.179688 -25.882812 3.59375 -26.453125 4.03125 -27.015625 C 4.550781 -27.703125 5.039062 -28.40625 5.5 -29.125 C 5.957031 -29.84375 6.394531 -30.570312 6.8125 -31.3125 C 7.695312 -32.875 8.476562 -34.488281 9.15625 -36.15625 C 9.832031 -37.832031 10.394531 -39.535156 10.84375 -41.265625 C 11.050781 -42.078125 11.25 -42.9375 11.4375 -43.84375 C 11.625 -44.75 11.765625 -45.671875 11.859375 -46.609375 C 11.953125 -47.546875 11.960938 -48.460938 11.890625 -49.359375 C 11.828125 -50.265625 11.644531 -51.125 11.34375 -51.9375 C 11.1875 -52.363281 11.039062 -52.617188 10.90625 -52.703125 C 10.769531 -52.785156 10.617188 -52.75 10.453125 -52.59375 C 10.296875 -52.4375 10.082031 -52.210938 9.8125 -51.921875 C 9.53125 -51.609375 9.269531 -51.28125 9.03125 -50.9375 C 8.800781 -50.601562 8.578125 -50.257812 8.359375 -49.90625 C 7.953125 -49.226562 7.585938 -48.535156 7.265625 -47.828125 C 6.941406 -47.117188 6.648438 -46.390625 6.390625 -45.640625 Z M 8.25 -8.5 C 8.28125 -9.375 8.242188 -10.25 8.140625 -11.125 C 8.035156 -12 7.796875 -12.835938 7.421875 -13.640625 C 7.140625 -14.222656 6.742188 -14.695312 6.234375 -15.0625 C 5.679688 -14.925781 5.113281 -14.8125 4.53125 -14.71875 C 3.945312 -14.625 3.347656 -14.550781 2.734375 -14.5 C 2.742188 -14.375 2.75 -14.25 2.75 -14.125 C 2.75 -14.007812 2.757812 -13.890625 2.78125 -13.765625 C 2.894531 -11.804688 3.066406 -9.835938 3.296875 -7.859375 C 3.398438 -7.054688 3.492188 -6.222656 3.578125 -5.359375 C 3.671875 -4.503906 3.859375 -3.695312 4.140625 -2.9375 C 4.203125 -2.78125 4.289062 -2.566406 4.40625 -2.296875 C 4.53125 -2.023438 4.675781 -1.785156 4.84375 -1.578125 C 5.007812 -1.367188 5.195312 -1.273438 5.40625 -1.296875 C 5.59375 -1.304688 5.773438 -1.398438 5.953125 -1.578125 C 6.128906 -1.765625 6.296875 -1.984375 6.453125 -2.234375 C 6.609375 -2.492188 6.742188 -2.738281 6.859375 -2.96875 C 6.972656 -3.207031 7.054688 -3.390625 7.109375 -3.515625 C 7.460938 -4.296875 7.726562 -5.109375 7.90625 -5.953125 C 8.09375 -6.804688 8.207031 -7.65625 8.25 -8.5 Z M 8.25 -8.5 "/></g></g></g><g fill="#ffffff" fill-opacity="1"><g transform="translate(71.826013, 69.749993)"><g><path d="M 7.9375 -24.203125 C 7.570312 -23.585938 7.140625 -23.019531 6.640625 -22.5 C 6.148438 -21.988281 5.59375 -21.585938 4.96875 -21.296875 C 4.351562 -21.015625 3.660156 -20.910156 2.890625 -20.984375 C 2.816406 -20.984375 2.738281 -20.988281 2.65625 -21 C 2.582031 -21.007812 2.503906 -21.019531 2.421875 -21.03125 C 2.472656 -20.320312 2.570312 -19.628906 2.71875 -18.953125 C 2.875 -18.273438 3.097656 -17.664062 3.390625 -17.125 C 3.691406 -16.582031 4.085938 -16.140625 4.578125 -15.796875 C 5.078125 -15.460938 5.6875 -15.28125 6.40625 -15.25 C 7.03125 -15.226562 7.617188 -15.375 8.171875 -15.6875 C 8.722656 -16 9.234375 -16.410156 9.703125 -16.921875 C 10.171875 -17.441406 10.597656 -17.988281 10.984375 -18.5625 C 11.378906 -19.132812 11.734375 -19.671875 12.046875 -20.171875 C 12.148438 -20.347656 12.296875 -20.628906 12.484375 -21.015625 C 12.679688 -21.410156 12.890625 -21.863281 13.109375 -22.375 C 13.328125 -22.882812 13.539062 -23.414062 13.75 -23.96875 C 13.96875 -24.53125 14.160156 -25.078125 14.328125 -25.609375 C 14.492188 -26.140625 14.613281 -26.609375 14.6875 -27.015625 C 14.738281 -27.285156 14.851562 -27.457031 15.03125 -27.53125 C 15.207031 -27.613281 15.367188 -27.609375 15.515625 -27.515625 C 15.671875 -27.429688 15.710938 -27.257812 15.640625 -27 C 15.484375 -26.300781 15.257812 -25.507812 14.96875 -24.625 C 14.675781 -23.738281 14.34375 -22.832031 13.96875 -21.90625 C 13.59375 -20.976562 13.195312 -20.078125 12.78125 -19.203125 C 12.257812 -18.097656 11.648438 -17.09375 10.953125 -16.1875 C 10.253906 -15.28125 9.488281 -14.550781 8.65625 -14 C 7.832031 -13.457031 6.953125 -13.15625 6.015625 -13.09375 C 5.140625 -13.019531 4.296875 -13.097656 3.484375 -13.328125 C 2.671875 -13.566406 1.945312 -13.953125 1.3125 -14.484375 C 0.675781 -15.023438 0.160156 -15.707031 -0.234375 -16.53125 C -0.597656 -17.332031 -0.859375 -18.1875 -1.015625 -19.09375 C -1.171875 -20.007812 -1.25 -20.9375 -1.25 -21.875 C -1.257812 -22.820312 -1.238281 -23.726562 -1.1875 -24.59375 C -1.15625 -25.289062 -1.0625 -26.0625 -0.90625 -26.90625 C -0.757812 -27.75 -0.546875 -28.601562 -0.265625 -29.46875 C 0.00390625 -30.34375 0.34375 -31.179688 0.75 -31.984375 C 1.164062 -32.796875 1.648438 -33.519531 2.203125 -34.15625 C 2.765625 -34.800781 3.40625 -35.3125 4.125 -35.6875 C 4.84375 -36.0625 5.644531 -36.25 6.53125 -36.25 C 7.382812 -36.25 8.070312 -36.082031 8.59375 -35.75 C 9.113281 -35.414062 9.492188 -34.957031 9.734375 -34.375 C 9.972656 -33.800781 10.109375 -33.148438 10.140625 -32.421875 C 10.179688 -31.703125 10.132812 -30.945312 10 -30.15625 C 9.875 -29.375 9.691406 -28.601562 9.453125 -27.84375 C 9.222656 -27.09375 8.972656 -26.398438 8.703125 -25.765625 C 8.429688 -25.140625 8.175781 -24.617188 7.9375 -24.203125 Z M 2.390625 -22.5 C 2.421875 -22.476562 2.457031 -22.453125 2.5 -22.421875 C 2.539062 -22.398438 2.585938 -22.375 2.640625 -22.34375 C 3.023438 -22.144531 3.382812 -22.101562 3.71875 -22.21875 C 4.0625 -22.332031 4.375 -22.53125 4.65625 -22.8125 C 4.945312 -23.101562 5.203125 -23.421875 5.421875 -23.765625 C 5.648438 -24.109375 5.84375 -24.410156 6 -24.671875 C 6.570312 -25.703125 7.03125 -26.789062 7.375 -27.9375 C 7.71875 -29.082031 7.894531 -30.238281 7.90625 -31.40625 C 7.925781 -31.707031 7.914062 -32.078125 7.875 -32.515625 C 7.84375 -32.960938 7.757812 -33.390625 7.625 -33.796875 C 7.5 -34.210938 7.28125 -34.503906 6.96875 -34.671875 C 6.6875 -34.835938 6.328125 -34.757812 5.890625 -34.4375 C 5.453125 -34.125 5.007812 -33.597656 4.5625 -32.859375 C 4.113281 -32.128906 3.710938 -31.210938 3.359375 -30.109375 C 3.003906 -29.003906 2.757812 -27.757812 2.625 -26.375 C 2.582031 -25.957031 2.53125 -25.40625 2.46875 -24.71875 C 2.414062 -24.03125 2.390625 -23.289062 2.390625 -22.5 Z M 8.484375 -43.0625 C 8.484375 -43.0625 8.429688 -42.9375 8.328125 -42.6875 C 8.222656 -42.445312 8.082031 -42.132812 7.90625 -41.75 C 7.738281 -41.363281 7.554688 -40.953125 7.359375 -40.515625 C 7.171875 -40.078125 6.988281 -39.664062 6.8125 -39.28125 C 6.644531 -38.90625 6.507812 -38.59375 6.40625 -38.34375 C 6.300781 -38.09375 6.25 -37.96875 6.25 -37.96875 C 6.25 -37.820312 6.179688 -37.742188 6.046875 -37.734375 C 5.910156 -37.734375 5.769531 -37.785156 5.625 -37.890625 C 5.476562 -37.992188 5.398438 -38.117188 5.390625 -38.265625 C 5.335938 -39.035156 5.367188 -39.796875 5.484375 -40.546875 C 5.609375 -41.304688 5.78125 -41.988281 6 -42.59375 C 6.21875 -43.195312 6.46875 -43.671875 6.75 -44.015625 C 7.039062 -44.359375 7.335938 -44.5 7.640625 -44.4375 C 7.890625 -44.382812 8.109375 -44.28125 8.296875 -44.125 C 8.484375 -43.976562 8.617188 -43.816406 8.703125 -43.640625 C 8.796875 -43.460938 8.828125 -43.316406 8.796875 -43.203125 C 8.773438 -43.085938 8.671875 -43.039062 8.484375 -43.0625 Z M 8.484375 -43.0625 "/></g></g></g><g fill="#ffffff" fill-opacity="1"><g transform="translate(86.668312, 69.749993)"><g/></g></g><g fill="#ffffff" fill-opacity="1"><g transform="translate(96.491576, 69.749993)"><g><path d="M 11.390625 -36.34375 C 10.492188 -35.757812 9.570312 -35.410156 8.625 -35.296875 C 7.675781 -35.191406 6.765625 -35.273438 5.890625 -35.546875 C 5.015625 -35.816406 4.21875 -36.25 3.5 -36.84375 C 2.78125 -37.445312 2.195312 -38.171875 1.75 -39.015625 C 1.300781 -39.867188 1.035156 -40.8125 0.953125 -41.84375 C 0.847656 -43.257812 1.023438 -44.582031 1.484375 -45.8125 C 1.941406 -47.039062 2.601562 -48.148438 3.46875 -49.140625 C 4.34375 -50.140625 5.347656 -50.992188 6.484375 -51.703125 C 7.628906 -52.421875 8.828125 -52.960938 10.078125 -53.328125 C 11.046875 -53.609375 12.113281 -53.789062 13.28125 -53.875 C 14.457031 -53.957031 15.6875 -53.976562 16.96875 -53.9375 C 18.257812 -53.90625 19.570312 -53.84375 20.90625 -53.75 C 22.238281 -53.65625 23.550781 -53.570312 24.84375 -53.5 C 26.144531 -53.4375 27.390625 -53.414062 28.578125 -53.4375 C 29.773438 -53.46875 30.875 -53.570312 31.875 -53.75 C 32.875 -53.9375 33.742188 -54.234375 34.484375 -54.640625 C 35.222656 -55.046875 35.785156 -55.613281 36.171875 -56.34375 C 36.535156 -57.019531 36.742188 -57.753906 36.796875 -58.546875 C 36.847656 -59.347656 36.707031 -60.097656 36.375 -60.796875 C 36.132812 -61.285156 35.820312 -61.660156 35.4375 -61.921875 C 35.050781 -62.191406 34.648438 -62.46875 34.234375 -62.75 C 34.066406 -62.875 34.003906 -63.003906 34.046875 -63.140625 C 34.085938 -63.273438 34.175781 -63.394531 34.3125 -63.5 C 34.445312 -63.613281 34.570312 -63.6875 34.6875 -63.71875 C 35.414062 -63.9375 36.128906 -63.96875 36.828125 -63.8125 C 37.523438 -63.664062 38.148438 -63.363281 38.703125 -62.90625 C 39.265625 -62.457031 39.695312 -61.878906 40 -61.171875 C 40.3125 -60.472656 40.460938 -59.710938 40.453125 -58.890625 C 40.441406 -58.066406 40.285156 -57.273438 39.984375 -56.515625 C 39.691406 -55.753906 39.273438 -55.085938 38.734375 -54.515625 C 38.273438 -54.046875 37.710938 -53.628906 37.046875 -53.265625 C 36.390625 -52.898438 35.703125 -52.59375 34.984375 -52.34375 C 34.265625 -52.09375 33.585938 -51.898438 32.953125 -51.765625 C 31.691406 -51.472656 30.441406 -51.359375 29.203125 -51.421875 C 27.960938 -51.492188 26.707031 -51.582031 25.4375 -51.6875 C 24.875 -51.738281 24.304688 -51.796875 23.734375 -51.859375 C 23.171875 -51.921875 22.609375 -51.976562 22.046875 -52.03125 C 21.835938 -51.757812 21.597656 -51.289062 21.328125 -50.625 C 21.054688 -49.957031 20.816406 -49.039062 20.609375 -47.875 C 20.398438 -46.71875 20.273438 -45.238281 20.234375 -43.4375 C 20.179688 -40.5625 20.085938 -37.679688 19.953125 -34.796875 C 19.828125 -31.921875 19.757812 -29.046875 19.75 -26.171875 C 20.394531 -26.015625 21.046875 -25.878906 21.703125 -25.765625 C 22.367188 -25.660156 23.003906 -25.675781 23.609375 -25.8125 C 24.210938 -25.957031 24.75 -26.316406 25.21875 -26.890625 C 25.695312 -27.460938 25.972656 -28.082031 26.046875 -28.75 C 26.128906 -29.425781 26.015625 -30.050781 25.703125 -30.625 C 25.398438 -31.195312 24.898438 -31.613281 24.203125 -31.875 C 23.898438 -31.988281 23.734375 -32.125 23.703125 -32.28125 C 23.671875 -32.4375 23.722656 -32.585938 23.859375 -32.734375 C 23.992188 -32.890625 24.160156 -33.019531 24.359375 -33.125 C 24.566406 -33.238281 24.753906 -33.3125 24.921875 -33.34375 C 25.679688 -33.457031 26.394531 -33.394531 27.0625 -33.15625 C 27.726562 -32.914062 28.296875 -32.523438 28.765625 -31.984375 C 29.234375 -31.453125 29.539062 -30.796875 29.6875 -30.015625 C 29.832031 -29.304688 29.789062 -28.613281 29.5625 -27.9375 C 29.332031 -27.257812 28.976562 -26.644531 28.5 -26.09375 C 28.019531 -25.550781 27.472656 -25.109375 26.859375 -24.765625 C 26.128906 -24.359375 25.363281 -24.082031 24.5625 -23.9375 C 23.769531 -23.800781 22.96875 -23.757812 22.15625 -23.8125 C 21.34375 -23.863281 20.539062 -23.960938 19.75 -24.109375 C 19.769531 -22.296875 19.785156 -20.453125 19.796875 -18.578125 C 19.804688 -16.703125 19.734375 -14.84375 19.578125 -13 C 19.429688 -11.15625 19.117188 -9.363281 18.640625 -7.625 C 18.390625 -6.71875 18.039062 -5.851562 17.59375 -5.03125 C 17.144531 -4.207031 16.609375 -3.457031 15.984375 -2.78125 C 15.359375 -2.113281 14.65625 -1.566406 13.875 -1.140625 C 13.09375 -0.722656 12.25 -0.460938 11.34375 -0.359375 C 10.4375 -0.253906 9.484375 -0.363281 8.484375 -0.6875 C 7.785156 -0.90625 7.1875 -1.25 6.6875 -1.71875 C 6.195312 -2.1875 5.804688 -2.734375 5.515625 -3.359375 C 5.234375 -3.984375 5.054688 -4.640625 4.984375 -5.328125 C 4.921875 -6.023438 4.96875 -6.695312 5.125 -7.34375 C 5.332031 -8.15625 5.632812 -8.785156 6.03125 -9.234375 C 6.425781 -9.691406 6.847656 -9.992188 7.296875 -10.140625 C 7.742188 -10.285156 8.144531 -10.289062 8.5 -10.15625 C 8.863281 -10.03125 9.109375 -9.769531 9.234375 -9.375 C 9.367188 -8.988281 9.304688 -8.492188 9.046875 -7.890625 C 8.796875 -7.328125 8.664062 -6.742188 8.65625 -6.140625 C 8.644531 -5.535156 8.722656 -4.941406 8.890625 -4.359375 C 8.992188 -4.046875 9.132812 -3.71875 9.3125 -3.375 C 9.5 -3.039062 9.734375 -2.769531 10.015625 -2.5625 C 10.304688 -2.351562 10.640625 -2.28125 11.015625 -2.34375 C 11.378906 -2.425781 11.722656 -2.59375 12.046875 -2.84375 C 12.378906 -3.09375 12.675781 -3.378906 12.9375 -3.703125 C 13.195312 -4.035156 13.414062 -4.34375 13.59375 -4.625 C 14.300781 -5.75 14.828125 -6.960938 15.171875 -8.265625 C 15.515625 -9.578125 15.738281 -10.929688 15.84375 -12.328125 C 15.957031 -13.722656 16.007812 -15.109375 16 -16.484375 C 16 -17.867188 16.003906 -19.191406 16.015625 -20.453125 C 16.023438 -21.191406 16.03125 -21.929688 16.03125 -22.671875 C 16.03125 -23.421875 16.03125 -24.171875 16.03125 -24.921875 C 15.6875 -24.972656 15.34375 -25 15 -25 C 14.664062 -25 14.328125 -24.960938 13.984375 -24.890625 C 13.578125 -24.796875 13.207031 -24.628906 12.875 -24.390625 C 12.550781 -24.148438 12.25 -23.898438 11.96875 -23.640625 C 11.695312 -23.378906 11.441406 -23.144531 11.203125 -22.9375 C 10.972656 -22.738281 10.753906 -22.617188 10.546875 -22.578125 C 10.335938 -22.535156 10.132812 -22.632812 9.9375 -22.875 C 9.707031 -23.144531 9.65625 -23.445312 9.78125 -23.78125 C 9.914062 -24.113281 10.148438 -24.4375 10.484375 -24.75 C 10.816406 -25.070312 11.171875 -25.359375 11.546875 -25.609375 C 11.921875 -25.859375 12.238281 -26.039062 12.5 -26.15625 C 13.050781 -26.414062 13.625 -26.585938 14.21875 -26.671875 C 14.820312 -26.765625 15.421875 -26.800781 16.015625 -26.78125 C 16.003906 -28.5625 16.007812 -30.34375 16.03125 -32.125 C 16.0625 -33.914062 16.148438 -35.703125 16.296875 -37.484375 C 16.484375 -39.890625 16.738281 -41.96875 17.0625 -43.71875 C 17.382812 -45.46875 17.710938 -46.925781 18.046875 -48.09375 C 18.390625 -49.269531 18.695312 -50.195312 18.96875 -50.875 C 19.25 -51.550781 19.457031 -52.019531 19.59375 -52.28125 C 18.4375 -52.382812 17.285156 -52.421875 16.140625 -52.390625 C 15.003906 -52.359375 13.875 -52.207031 12.75 -51.9375 C 11.632812 -51.664062 10.53125 -51.203125 9.4375 -50.546875 C 8.300781 -49.867188 7.34375 -49.082031 6.5625 -48.1875 C 5.789062 -47.289062 5.191406 -46.351562 4.765625 -45.375 C 4.347656 -44.394531 4.097656 -43.4375 4.015625 -42.5 C 3.941406 -41.570312 4.03125 -40.722656 4.28125 -39.953125 C 4.53125 -39.191406 4.941406 -38.566406 5.515625 -38.078125 C 6.085938 -37.597656 6.816406 -37.332031 7.703125 -37.28125 C 8.347656 -37.25 8.96875 -37.351562 9.5625 -37.59375 C 10.15625 -37.84375 10.671875 -38.203125 11.109375 -38.671875 C 11.546875 -39.140625 11.863281 -39.691406 12.0625 -40.328125 C 12.257812 -40.972656 12.296875 -41.675781 12.171875 -42.4375 C 12.054688 -43.195312 11.722656 -43.992188 11.171875 -44.828125 C 11.046875 -45.046875 10.875 -45.226562 10.65625 -45.375 C 10.4375 -45.519531 10.242188 -45.65625 10.078125 -45.78125 C 9.910156 -45.914062 9.828125 -46.066406 9.828125 -46.234375 C 9.828125 -46.460938 9.890625 -46.648438 10.015625 -46.796875 C 10.148438 -46.941406 10.296875 -47.050781 10.453125 -47.125 C 10.609375 -47.207031 10.722656 -47.257812 10.796875 -47.28125 C 11.304688 -47.488281 11.800781 -47.539062 12.28125 -47.4375 C 12.769531 -47.332031 13.210938 -47.117188 13.609375 -46.796875 C 14.003906 -46.472656 14.332031 -46.0625 14.59375 -45.5625 C 14.863281 -45.0625 15.039062 -44.507812 15.125 -43.90625 C 15.226562 -43.207031 15.203125 -42.492188 15.046875 -41.765625 C 14.890625 -41.046875 14.628906 -40.34375 14.265625 -39.65625 C 13.910156 -38.976562 13.484375 -38.351562 12.984375 -37.78125 C 12.492188 -37.207031 11.960938 -36.726562 11.390625 -36.34375 Z M 11.390625 -36.34375 "/></g></g></g><g fill="#ffffff" fill-opacity="1"><g transform="translate(129.066517, 69.749993)"><g><path d="M 9.265625 -25.09375 C 8.660156 -24.5 8.054688 -24.109375 7.453125 -23.921875 C 6.847656 -23.742188 6.210938 -23.875 5.546875 -24.3125 C 5.265625 -24.507812 5.0625 -24.765625 4.9375 -25.078125 C 4.8125 -25.390625 4.757812 -25.703125 4.78125 -26.015625 C 4.8125 -26.328125 4.898438 -26.582031 5.046875 -26.78125 C 5.097656 -26.820312 5.210938 -26.847656 5.390625 -26.859375 C 5.578125 -26.867188 5.765625 -26.859375 5.953125 -26.828125 C 6.148438 -26.804688 6.300781 -26.765625 6.40625 -26.703125 C 6.519531 -26.640625 6.535156 -26.535156 6.453125 -26.390625 C 6.347656 -26.234375 6.296875 -26.054688 6.296875 -25.859375 C 6.304688 -25.660156 6.375 -25.492188 6.5 -25.359375 C 6.625 -25.222656 6.800781 -25.15625 7.03125 -25.15625 C 7.269531 -25.164062 7.484375 -25.320312 7.671875 -25.625 C 7.859375 -25.925781 8.019531 -26.316406 8.15625 -26.796875 C 8.300781 -27.273438 8.414062 -27.785156 8.5 -28.328125 C 8.59375 -28.878906 8.640625 -29.40625 8.640625 -29.90625 C 8.640625 -30.414062 8.59375 -30.84375 8.5 -31.1875 C 8.414062 -31.53125 8.285156 -31.734375 8.109375 -31.796875 C 7.691406 -31.953125 7.257812 -31.882812 6.8125 -31.59375 C 6.363281 -31.300781 5.925781 -30.828125 5.5 -30.171875 C 5.070312 -29.523438 4.671875 -28.726562 4.296875 -27.78125 C 3.929688 -26.84375 3.613281 -25.796875 3.34375 -24.640625 C 3.070312 -23.484375 2.867188 -22.269531 2.734375 -21 C 2.503906 -19.695312 2.390625 -18.320312 2.390625 -16.875 C 2.398438 -15.425781 2.398438 -14.023438 2.390625 -12.671875 C 2.390625 -12.617188 2.390625 -12.5625 2.390625 -12.5 C 2.398438 -12.4375 2.40625 -12.378906 2.40625 -12.328125 L 2.390625 -12.328125 C 2.390625 -12.234375 2.382812 -12.140625 2.375 -12.046875 C 2.363281 -11.960938 2.359375 -11.875 2.359375 -11.78125 C 2.347656 -11.519531 2.222656 -11.320312 1.984375 -11.1875 C 1.753906 -11.0625 1.460938 -10.992188 1.109375 -10.984375 C 0.765625 -10.984375 0.414062 -11.035156 0.0625 -11.140625 C -0.289062 -11.242188 -0.585938 -11.390625 -0.828125 -11.578125 C -1.066406 -11.765625 -1.195312 -11.988281 -1.21875 -12.25 C -1.300781 -14.1875 -1.378906 -16.117188 -1.453125 -18.046875 C -1.535156 -19.972656 -1.585938 -21.898438 -1.609375 -23.828125 C -1.609375 -24.796875 -1.59375 -25.765625 -1.5625 -26.734375 C -1.539062 -27.703125 -1.503906 -28.660156 -1.453125 -29.609375 C -1.410156 -30.191406 -1.351562 -30.804688 -1.28125 -31.453125 C -1.21875 -32.097656 -1.117188 -32.707031 -0.984375 -33.28125 C -0.859375 -33.851562 -0.691406 -34.316406 -0.484375 -34.671875 C -0.378906 -34.847656 -0.195312 -34.992188 0.0625 -35.109375 C 0.320312 -35.222656 0.601562 -35.296875 0.90625 -35.328125 C 1.21875 -35.359375 1.507812 -35.34375 1.78125 -35.28125 C 2.0625 -35.226562 2.285156 -35.125 2.453125 -34.96875 C 2.617188 -34.820312 2.675781 -34.625 2.625 -34.375 C 2.425781 -33.375 2.3125 -32.460938 2.28125 -31.640625 C 2.25 -30.816406 2.207031 -29.957031 2.15625 -29.0625 C 2.132812 -28.550781 2.113281 -28.035156 2.09375 -27.515625 C 2.082031 -26.992188 2.066406 -26.472656 2.046875 -25.953125 C 2.117188 -26.148438 2.1875 -26.34375 2.25 -26.53125 C 2.320312 -26.71875 2.398438 -26.910156 2.484375 -27.109375 C 2.816406 -27.972656 3.175781 -28.847656 3.5625 -29.734375 C 3.957031 -30.617188 4.398438 -31.429688 4.890625 -32.171875 C 5.390625 -32.910156 5.945312 -33.5 6.5625 -33.9375 C 7.1875 -34.375 7.894531 -34.570312 8.6875 -34.53125 C 9.226562 -34.507812 9.664062 -34.3125 10 -33.9375 C 10.34375 -33.5625 10.59375 -33.082031 10.75 -32.5 C 10.914062 -31.914062 11 -31.273438 11 -30.578125 C 11.007812 -29.878906 10.945312 -29.175781 10.8125 -28.46875 C 10.675781 -27.769531 10.476562 -27.125 10.21875 -26.53125 C 9.957031 -25.9375 9.640625 -25.457031 9.265625 -25.09375 Z M 9.265625 -25.09375 "/></g></g></g><g fill="#ffffff" fill-opacity="1"><g transform="translate(141.994941, 69.749993)"><g><path d="M -0.546875 -27.890625 C -0.535156 -28.234375 -0.515625 -28.644531 -0.484375 -29.125 C -0.453125 -29.601562 -0.421875 -30.085938 -0.390625 -30.578125 C -0.367188 -31.066406 -0.359375 -31.472656 -0.359375 -31.796875 C -0.359375 -31.828125 -0.351562 -31.859375 -0.34375 -31.890625 C -0.332031 -31.929688 -0.328125 -31.96875 -0.328125 -32 C -0.671875 -32.007812 -0.976562 -32.066406 -1.25 -32.171875 C -1.519531 -32.285156 -1.65625 -32.46875 -1.65625 -32.71875 C -1.65625 -32.988281 -1.519531 -33.1875 -1.25 -33.3125 C -0.976562 -33.4375 -0.609375 -33.515625 -0.140625 -33.546875 C 0.316406 -33.578125 0.828125 -33.59375 1.390625 -33.59375 C 2.234375 -33.59375 2.941406 -33.519531 3.515625 -33.375 C 4.097656 -33.238281 4.398438 -33.019531 4.421875 -32.71875 C 4.429688 -32.5 4.34375 -32.335938 4.15625 -32.234375 C 3.96875 -32.128906 3.664062 -32.0625 3.25 -32.03125 C 3.25 -32.007812 3.25 -31.976562 3.25 -31.9375 C 3.25 -31.894531 3.25 -31.863281 3.25 -31.84375 C 3.257812 -31.488281 3.253906 -31.015625 3.234375 -30.421875 C 3.222656 -29.828125 3.203125 -29.203125 3.171875 -28.546875 C 3.140625 -27.890625 3.109375 -27.265625 3.078125 -26.671875 C 3.054688 -26.085938 3.039062 -25.625 3.03125 -25.28125 C 2.976562 -23.90625 2.914062 -22.519531 2.84375 -21.125 C 2.78125 -19.726562 2.863281 -18.351562 3.09375 -17 C 3.113281 -16.8125 3.160156 -16.546875 3.234375 -16.203125 C 3.304688 -15.859375 3.40625 -15.5 3.53125 -15.125 C 3.65625 -14.757812 3.8125 -14.441406 4 -14.171875 C 4.1875 -13.898438 4.40625 -13.765625 4.65625 -13.765625 C 5.09375 -13.753906 5.507812 -13.957031 5.90625 -14.375 C 6.300781 -14.800781 6.671875 -15.367188 7.015625 -16.078125 C 7.367188 -16.796875 7.691406 -17.578125 7.984375 -18.421875 C 8.273438 -19.273438 8.535156 -20.132812 8.765625 -21 C 9.003906 -21.875 9.203125 -22.675781 9.359375 -23.40625 C 9.515625 -24.144531 9.628906 -24.75 9.703125 -25.21875 C 9.734375 -25.363281 9.816406 -25.445312 9.953125 -25.46875 C 10.097656 -25.5 10.234375 -25.484375 10.359375 -25.421875 C 10.492188 -25.359375 10.550781 -25.257812 10.53125 -25.125 C 10.414062 -24.414062 10.265625 -23.601562 10.078125 -22.6875 C 9.898438 -21.78125 9.679688 -20.835938 9.421875 -19.859375 C 9.171875 -18.890625 8.863281 -17.9375 8.5 -17 C 8.144531 -16.070312 7.734375 -15.234375 7.265625 -14.484375 C 6.796875 -13.734375 6.257812 -13.132812 5.65625 -12.6875 C 5.0625 -12.25 4.378906 -12.03125 3.609375 -12.03125 C 2.859375 -12.03125 2.148438 -12.269531 1.484375 -12.75 C 0.835938 -13.25 0.347656 -13.867188 0.015625 -14.609375 C -0.304688 -15.347656 -0.519531 -16.144531 -0.625 -17 C -0.738281 -17.851562 -0.789062 -18.707031 -0.78125 -19.5625 C -0.78125 -20.425781 -0.769531 -21.21875 -0.75 -21.9375 C -0.71875 -22.925781 -0.679688 -23.914062 -0.640625 -24.90625 C -0.609375 -25.90625 -0.578125 -26.898438 -0.546875 -27.890625 Z M 3.953125 -42.1875 C 3.953125 -42.1875 3.898438 -42.0625 3.796875 -41.8125 C 3.691406 -41.570312 3.550781 -41.257812 3.375 -40.875 C 3.207031 -40.488281 3.023438 -40.078125 2.828125 -39.640625 C 2.640625 -39.203125 2.457031 -38.789062 2.28125 -38.40625 C 2.113281 -38.019531 1.976562 -37.703125 1.875 -37.453125 C 1.769531 -37.210938 1.71875 -37.09375 1.71875 -37.09375 C 1.71875 -36.945312 1.648438 -36.867188 1.515625 -36.859375 C 1.378906 -36.859375 1.238281 -36.910156 1.09375 -37.015625 C 0.945312 -37.117188 0.867188 -37.242188 0.859375 -37.390625 C 0.804688 -38.148438 0.835938 -38.90625 0.953125 -39.65625 C 1.078125 -40.414062 1.25 -41.097656 1.46875 -41.703125 C 1.6875 -42.316406 1.9375 -42.796875 2.21875 -43.140625 C 2.507812 -43.484375 2.804688 -43.625 3.109375 -43.5625 C 3.359375 -43.507812 3.578125 -43.40625 3.765625 -43.25 C 3.953125 -43.101562 4.085938 -42.941406 4.171875 -42.765625 C 4.265625 -42.585938 4.296875 -42.441406 4.265625 -42.328125 C 4.242188 -42.210938 4.140625 -42.164062 3.953125 -42.1875 Z M 3.953125 -42.1875 "/></g></g></g><g fill="#ffffff" fill-opacity="1"><g transform="translate(151.935382, 69.749993)"><g><path d="M 14.109375 -26.5625 C 14.171875 -26.695312 14.269531 -26.773438 14.40625 -26.796875 C 14.550781 -26.828125 14.671875 -26.800781 14.765625 -26.71875 C 14.867188 -26.644531 14.890625 -26.519531 14.828125 -26.34375 C 14.660156 -25.09375 14.171875 -24.0625 13.359375 -23.25 C 12.554688 -22.4375 11.457031 -21.757812 10.0625 -21.21875 C 9.90625 -20.132812 9.679688 -19.0625 9.390625 -18 C 9.109375 -16.945312 8.757812 -15.984375 8.34375 -15.109375 C 7.925781 -14.234375 7.4375 -13.523438 6.875 -12.984375 C 6.3125 -12.441406 5.675781 -12.148438 4.96875 -12.109375 C 4.15625 -12.054688 3.445312 -12.1875 2.84375 -12.5 C 2.238281 -12.820312 1.71875 -13.269531 1.28125 -13.84375 C 0.851562 -14.414062 0.492188 -15.070312 0.203125 -15.8125 C -0.078125 -16.5625 -0.296875 -17.332031 -0.453125 -18.125 C -0.617188 -18.914062 -0.742188 -19.6875 -0.828125 -20.4375 C -0.910156 -21.1875 -0.960938 -21.867188 -0.984375 -22.484375 C -1.003906 -23.097656 -1.007812 -23.578125 -1 -23.921875 C -1 -24.078125 -0.984375 -24.222656 -0.953125 -24.359375 C -0.929688 -24.503906 -0.898438 -24.628906 -0.859375 -24.734375 C -1.097656 -25.628906 -1.160156 -26.5625 -1.046875 -27.53125 C -0.929688 -28.507812 -0.671875 -29.460938 -0.265625 -30.390625 C 0.128906 -31.316406 0.648438 -32.144531 1.296875 -32.875 C 1.921875 -33.570312 2.585938 -34.035156 3.296875 -34.265625 C 4.015625 -34.503906 4.71875 -34.539062 5.40625 -34.375 C 6.101562 -34.21875 6.71875 -33.90625 7.25 -33.4375 C 8.519531 -32.320312 9.394531 -30.921875 9.875 -29.234375 C 10.363281 -27.546875 10.5 -25.5 10.28125 -23.09375 C 10.28125 -23.007812 10.273438 -22.925781 10.265625 -22.84375 C 10.253906 -22.757812 10.242188 -22.671875 10.234375 -22.578125 C 10.910156 -22.796875 11.546875 -23.082031 12.140625 -23.4375 C 12.734375 -23.789062 13.210938 -24.226562 13.578125 -24.75 C 13.941406 -25.269531 14.117188 -25.875 14.109375 -26.5625 Z M 2.03125 -29.890625 C 1.957031 -29.609375 1.863281 -29.21875 1.75 -28.71875 C 1.632812 -28.226562 1.550781 -27.691406 1.5 -27.109375 C 1.445312 -26.523438 1.457031 -25.953125 1.53125 -25.390625 C 1.738281 -25.265625 1.898438 -25.113281 2.015625 -24.9375 C 2.140625 -24.757812 2.210938 -24.5625 2.234375 -24.34375 C 2.234375 -24.257812 2.234375 -24.148438 2.234375 -24.015625 C 2.234375 -23.890625 2.234375 -23.738281 2.234375 -23.5625 C 2.253906 -23.539062 2.269531 -23.519531 2.28125 -23.5 C 2.300781 -23.488281 2.316406 -23.46875 2.328125 -23.4375 C 2.753906 -22.96875 3.410156 -22.609375 4.296875 -22.359375 C 5.179688 -22.117188 6.160156 -22.015625 7.234375 -22.046875 C 7.304688 -22.773438 7.34375 -23.390625 7.34375 -23.890625 C 7.375 -24.710938 7.378906 -25.578125 7.359375 -26.484375 C 7.347656 -27.398438 7.273438 -28.300781 7.140625 -29.1875 C 7.003906 -30.070312 6.75 -30.882812 6.375 -31.625 C 5.988281 -32.394531 5.59375 -32.878906 5.1875 -33.078125 C 4.78125 -33.273438 4.378906 -33.253906 3.984375 -33.015625 C 3.597656 -32.785156 3.234375 -32.390625 2.890625 -31.828125 C 2.554688 -31.273438 2.269531 -30.628906 2.03125 -29.890625 Z M 4.828125 -14.3125 C 5.128906 -14.34375 5.394531 -14.535156 5.625 -14.890625 C 5.863281 -15.253906 6.070312 -15.726562 6.25 -16.3125 C 6.4375 -16.90625 6.59375 -17.554688 6.71875 -18.265625 C 6.851562 -18.984375 6.960938 -19.691406 7.046875 -20.390625 C 6.203125 -20.265625 5.378906 -20.234375 4.578125 -20.296875 C 3.773438 -20.359375 3.050781 -20.535156 2.40625 -20.828125 C 2.46875 -20.078125 2.554688 -19.316406 2.671875 -18.546875 C 2.796875 -17.785156 2.953125 -17.078125 3.140625 -16.421875 C 3.328125 -15.773438 3.554688 -15.253906 3.828125 -14.859375 C 4.097656 -14.472656 4.429688 -14.289062 4.828125 -14.3125 Z M 4.828125 -14.3125 "/></g></g></g></svg>