<svg xmlns="http://www.w3.org/2000/svg" xmlns:xlink="http://www.w3.org/1999/xlink" width="1000" zoomAndPan="magnify" viewBox="0 0 750 74.999997" height="100" preserveAspectRatio="xMidYMid meet" version="1.0"><defs><g/></defs><g fill="#ffffff" fill-opacity="1"><g transform="translate(8.179702, 63.49996)"><g><path d="M 4.109375 -31.0625 C 3.148438 -31.300781 2.394531 -31.8125 1.84375 -32.59375 C 1.300781 -33.375 0.953125 -34.34375 0.796875 -35.5 C 0.640625 -36.664062 0.660156 -37.953125 0.859375 -39.359375 C 1.066406 -40.773438 1.429688 -42.25 1.953125 -43.78125 C 2.472656 -45.3125 3.140625 -46.832031 3.953125 -48.34375 C 4.765625 -49.851562 5.710938 -51.285156 6.796875 -52.640625 C 7.878906 -53.992188 9.078125 -55.203125 10.390625 -56.265625 C 11.703125 -57.328125 13.113281 -58.171875 14.625 -58.796875 C 15.4375 -59.128906 16.289062 -59.265625 17.1875 -59.203125 C 18.082031 -59.140625 18.941406 -58.90625 19.765625 -58.5 C 20.585938 -58.09375 21.28125 -57.53125 21.84375 -56.8125 C 22.488281 -56.019531 23.015625 -55.125 23.421875 -54.125 C 23.828125 -53.125 24.148438 -52.09375 24.390625 -51.03125 C 24.628906 -49.96875 24.820312 -48.941406 24.96875 -47.953125 C 25.226562 -46.222656 25.410156 -44.476562 25.515625 -42.71875 C 25.628906 -40.957031 25.6875 -39.1875 25.6875 -37.40625 C 26.53125 -37.820312 27.394531 -38.203125 28.28125 -38.546875 C 29.164062 -38.890625 30.078125 -39.210938 31.015625 -39.515625 C 31.097656 -39.535156 31.210938 -39.53125 31.359375 -39.5 C 31.503906 -39.46875 31.613281 -39.421875 31.6875 -39.359375 C 31.769531 -39.304688 31.734375 -39.234375 31.578125 -39.140625 C 30.578125 -38.566406 29.578125 -37.953125 28.578125 -37.296875 C 27.585938 -36.648438 26.609375 -35.976562 25.640625 -35.28125 C 25.609375 -33.789062 25.539062 -32.3125 25.4375 -30.84375 C 25.34375 -29.375 25.222656 -27.914062 25.078125 -26.46875 C 24.859375 -24.34375 24.582031 -22.179688 24.25 -19.984375 C 23.925781 -17.796875 23.488281 -15.632812 22.9375 -13.5 C 22.394531 -11.363281 21.671875 -9.3125 20.765625 -7.34375 C 20.410156 -6.5625 19.984375 -5.757812 19.484375 -4.9375 C 18.992188 -4.125 18.441406 -3.335938 17.828125 -2.578125 C 17.222656 -1.828125 16.554688 -1.148438 15.828125 -0.546875 C 15.109375 0.0546875 14.335938 0.535156 13.515625 0.890625 C 12.691406 1.242188 11.820312 1.425781 10.90625 1.4375 C 9.988281 1.457031 9.035156 1.257812 8.046875 0.84375 C 7.046875 0.414062 6.234375 -0.148438 5.609375 -0.859375 C 4.992188 -1.578125 4.53125 -2.394531 4.21875 -3.3125 C 3.914062 -4.226562 3.734375 -5.191406 3.671875 -6.203125 C 3.617188 -7.222656 3.65625 -8.253906 3.78125 -9.296875 C 3.90625 -10.335938 4.085938 -11.347656 4.328125 -12.328125 C 4.566406 -13.304688 4.832031 -14.195312 5.125 -15 C 5.8125 -16.925781 6.675781 -18.78125 7.71875 -20.5625 C 8.769531 -22.351562 9.945312 -24.054688 11.25 -25.671875 C 12.550781 -27.296875 13.925781 -28.816406 15.375 -30.234375 C 17.40625 -32.203125 19.570312 -33.898438 21.875 -35.328125 C 21.90625 -36.828125 21.894531 -38.316406 21.84375 -39.796875 C 21.800781 -41.285156 21.726562 -42.773438 21.625 -44.265625 C 21.53125 -45.617188 21.378906 -46.960938 21.171875 -48.296875 C 20.972656 -49.628906 20.664062 -50.941406 20.25 -52.234375 C 20.070312 -52.785156 19.859375 -53.367188 19.609375 -53.984375 C 19.359375 -54.609375 19.050781 -55.175781 18.6875 -55.6875 C 18.320312 -56.207031 17.878906 -56.601562 17.359375 -56.875 C 16.835938 -57.144531 16.222656 -57.210938 15.515625 -57.078125 C 14.628906 -56.898438 13.8125 -56.570312 13.0625 -56.09375 C 12.320312 -55.625 11.632812 -55.070312 11 -54.4375 C 10.375 -53.800781 9.78125 -53.144531 9.21875 -52.46875 C 7.632812 -50.539062 6.328125 -48.46875 5.296875 -46.25 C 4.765625 -45.101562 4.304688 -43.921875 3.921875 -42.703125 C 3.535156 -41.484375 3.25 -40.25 3.0625 -39 C 3 -38.53125 2.960938 -38.003906 2.953125 -37.421875 C 2.953125 -36.835938 3.003906 -36.25 3.109375 -35.65625 C 3.222656 -35.0625 3.421875 -34.523438 3.703125 -34.046875 C 3.992188 -33.578125 4.398438 -33.222656 4.921875 -32.984375 C 5.546875 -32.710938 6.160156 -32.664062 6.765625 -32.84375 C 7.367188 -33.03125 7.953125 -33.382812 8.515625 -33.90625 C 9.078125 -34.425781 9.609375 -35.050781 10.109375 -35.78125 C 10.609375 -36.507812 11.078125 -37.285156 11.515625 -38.109375 C 11.953125 -38.929688 12.34375 -39.734375 12.6875 -40.515625 C 13.03125 -41.304688 13.328125 -42.015625 13.578125 -42.640625 C 13.835938 -43.273438 14.03125 -43.769531 14.15625 -44.125 C 14.25 -44.351562 14.445312 -44.53125 14.75 -44.65625 C 15.0625 -44.78125 15.40625 -44.847656 15.78125 -44.859375 C 16.15625 -44.878906 16.507812 -44.84375 16.84375 -44.75 C 17.1875 -44.664062 17.445312 -44.53125 17.625 -44.34375 C 17.800781 -44.164062 17.835938 -43.941406 17.734375 -43.671875 C 17.378906 -42.785156 16.960938 -41.820312 16.484375 -40.78125 C 16.003906 -39.738281 15.453125 -38.691406 14.828125 -37.640625 C 14.210938 -36.597656 13.523438 -35.617188 12.765625 -34.703125 C 12.003906 -33.785156 11.175781 -33 10.28125 -32.34375 C 9.394531 -31.695312 8.4375 -31.242188 7.40625 -30.984375 C 6.375 -30.734375 5.273438 -30.757812 4.109375 -31.0625 Z M 21.390625 -26.703125 C 21.484375 -27.628906 21.5625 -28.550781 21.625 -29.46875 C 21.6875 -30.382812 21.738281 -31.296875 21.78125 -32.203125 C 21.300781 -31.804688 20.828125 -31.390625 20.359375 -30.953125 C 19.890625 -30.523438 19.425781 -30.097656 18.96875 -29.671875 C 16.957031 -27.742188 15.113281 -25.640625 13.4375 -23.359375 C 11.769531 -21.078125 10.394531 -18.65625 9.3125 -16.09375 C 8.78125 -14.832031 8.34375 -13.535156 8 -12.203125 C 7.664062 -10.878906 7.46875 -9.523438 7.40625 -8.140625 C 7.375 -7.347656 7.398438 -6.515625 7.484375 -5.640625 C 7.578125 -4.773438 7.78125 -3.953125 8.09375 -3.171875 C 8.414062 -2.390625 8.914062 -1.726562 9.59375 -1.1875 C 10.019531 -0.851562 10.441406 -0.679688 10.859375 -0.671875 C 11.285156 -0.671875 11.703125 -0.78125 12.109375 -1 C 12.515625 -1.21875 12.894531 -1.503906 13.25 -1.859375 C 13.613281 -2.210938 13.945312 -2.585938 14.25 -2.984375 C 14.550781 -3.378906 14.820312 -3.738281 15.0625 -4.0625 C 15.757812 -5.0625 16.375 -6.117188 16.90625 -7.234375 C 17.445312 -8.347656 17.910156 -9.484375 18.296875 -10.640625 C 19.179688 -13.210938 19.847656 -15.859375 20.296875 -18.578125 C 20.753906 -21.296875 21.117188 -24.003906 21.390625 -26.703125 Z M 21.390625 -26.703125 "/></g></g></g><g fill="#ffffff" fill-opacity="1"><g transform="translate(37.434655, 63.49996)"><g><path d="M 16.9375 -24.921875 C 16.945312 -24.960938 17.003906 -24.988281 17.109375 -25 C 17.210938 -25.007812 17.316406 -25.007812 17.421875 -25 C 17.535156 -25 17.59375 -24.976562 17.59375 -24.9375 C 17.664062 -23.582031 17.597656 -22.25 17.390625 -20.9375 C 17.179688 -19.632812 16.890625 -18.34375 16.515625 -17.0625 C 16.140625 -15.78125 15.738281 -14.488281 15.3125 -13.1875 C 15.113281 -12.582031 14.859375 -12.015625 14.546875 -11.484375 C 14.234375 -10.960938 13.859375 -10.535156 13.421875 -10.203125 C 12.992188 -9.867188 12.507812 -9.6875 11.96875 -9.65625 C 11.425781 -9.625 10.828125 -9.804688 10.171875 -10.203125 C 9.734375 -10.472656 9.394531 -10.828125 9.15625 -11.265625 C 8.925781 -11.703125 8.75 -12.171875 8.625 -12.671875 C 8.507812 -13.171875 8.410156 -13.65625 8.328125 -14.125 C 8.140625 -15.125 8.019531 -16.128906 7.96875 -17.140625 C 7.925781 -18.160156 7.921875 -19.179688 7.953125 -20.203125 C 7.960938 -20.523438 7.976562 -20.84375 8 -21.15625 C 8.019531 -21.476562 8.035156 -21.796875 8.046875 -22.109375 C 7.765625 -21.203125 7.503906 -20.3125 7.265625 -19.4375 C 7.035156 -18.5625 6.789062 -17.757812 6.53125 -17.03125 C 6.28125 -16.300781 5.972656 -15.6875 5.609375 -15.1875 C 5.253906 -14.6875 4.796875 -14.34375 4.234375 -14.15625 C 3.472656 -13.914062 2.804688 -13.878906 2.234375 -14.046875 C 1.660156 -14.222656 1.164062 -14.550781 0.75 -15.03125 C 0.34375 -15.507812 0.00390625 -16.070312 -0.265625 -16.71875 C -0.535156 -17.375 -0.75 -18.050781 -0.90625 -18.75 C -1.0625 -19.457031 -1.171875 -20.113281 -1.234375 -20.71875 C -1.347656 -21.75 -1.414062 -22.785156 -1.4375 -23.828125 C -1.46875 -24.878906 -1.476562 -25.921875 -1.46875 -26.953125 C -1.46875 -27.535156 -1.457031 -28.144531 -1.4375 -28.78125 C -1.425781 -29.414062 -1.398438 -30.023438 -1.359375 -30.609375 C -1.328125 -31.191406 -1.257812 -31.710938 -1.15625 -32.171875 C -1.050781 -32.628906 -0.898438 -32.972656 -0.703125 -33.203125 C -0.554688 -33.367188 -0.335938 -33.519531 -0.046875 -33.65625 C 0.242188 -33.800781 0.554688 -33.882812 0.890625 -33.90625 C 1.222656 -33.9375 1.503906 -33.882812 1.734375 -33.75 C 1.972656 -33.625 2.09375 -33.382812 2.09375 -33.03125 C 2.101562 -32.757812 2.109375 -32.359375 2.109375 -31.828125 C 2.109375 -31.296875 2.109375 -30.695312 2.109375 -30.03125 C 2.109375 -29.363281 2.109375 -28.671875 2.109375 -27.953125 C 2.117188 -27.234375 2.128906 -26.539062 2.140625 -25.875 C 2.148438 -25.21875 2.160156 -24.625 2.171875 -24.09375 C 2.179688 -23.5625 2.191406 -23.160156 2.203125 -22.890625 C 2.242188 -22.148438 2.3125 -21.40625 2.40625 -20.65625 C 2.5 -19.914062 2.628906 -19.179688 2.796875 -18.453125 C 2.796875 -18.453125 2.8125 -18.351562 2.84375 -18.15625 C 2.882812 -17.96875 2.953125 -17.734375 3.046875 -17.453125 C 3.140625 -17.179688 3.253906 -16.914062 3.390625 -16.65625 C 3.535156 -16.394531 3.707031 -16.195312 3.90625 -16.0625 C 4.113281 -15.9375 4.351562 -15.921875 4.625 -16.015625 C 4.8125 -16.078125 5.015625 -16.351562 5.234375 -16.84375 C 5.453125 -17.332031 5.679688 -17.972656 5.921875 -18.765625 C 6.171875 -19.566406 6.414062 -20.445312 6.65625 -21.40625 C 6.894531 -22.375 7.125 -23.375 7.34375 -24.40625 C 7.5625 -25.4375 7.753906 -26.4375 7.921875 -27.40625 C 8.097656 -28.382812 8.238281 -29.273438 8.34375 -30.078125 C 8.445312 -30.890625 8.5 -31.539062 8.5 -32.03125 C 8.5 -32.125 8.5 -32.207031 8.5 -32.28125 C 8.5 -32.363281 8.492188 -32.453125 8.484375 -32.546875 C 8.453125 -32.785156 8.550781 -33.003906 8.78125 -33.203125 C 9.007812 -33.398438 9.296875 -33.550781 9.640625 -33.65625 C 9.992188 -33.769531 10.347656 -33.832031 10.703125 -33.84375 C 11.066406 -33.863281 11.375 -33.816406 11.625 -33.703125 C 11.882812 -33.585938 12.019531 -33.398438 12.03125 -33.140625 C 12.113281 -31.609375 12.101562 -30.046875 12 -28.453125 C 11.90625 -26.867188 11.800781 -25.269531 11.6875 -23.65625 C 11.582031 -22.050781 11.53125 -20.453125 11.53125 -18.859375 C 11.539062 -17.273438 11.675781 -15.722656 11.9375 -14.203125 C 12 -13.859375 12.0625 -13.515625 12.125 -13.171875 C 12.195312 -12.828125 12.296875 -12.5 12.421875 -12.1875 C 12.515625 -11.9375 12.644531 -11.691406 12.8125 -11.453125 C 12.820312 -11.429688 12.828125 -11.414062 12.828125 -11.40625 C 13.242188 -12.03125 13.585938 -12.648438 13.859375 -13.265625 C 14.140625 -13.890625 14.394531 -14.5625 14.625 -15.28125 C 15.132812 -16.84375 15.601562 -18.429688 16.03125 -20.046875 C 16.46875 -21.671875 16.769531 -23.296875 16.9375 -24.921875 Z M 16.9375 -24.921875 "/></g></g></g><g fill="#ffffff" fill-opacity="1"><g transform="translate(54.347064, 63.49996)"><g><path d="M 16.65625 -26.96875 C 16.6875 -27.007812 16.753906 -27.023438 16.859375 -27.015625 C 16.972656 -27.003906 17.082031 -26.976562 17.1875 -26.9375 C 17.289062 -26.894531 17.335938 -26.847656 17.328125 -26.796875 C 17.140625 -26.015625 16.8125 -25.066406 16.34375 -23.953125 C 15.875 -22.835938 15.21875 -21.5625 14.375 -20.125 C 13.53125 -18.695312 12.441406 -17.109375 11.109375 -15.359375 C 11.097656 -14.648438 11.082031 -13.941406 11.0625 -13.234375 C 11.039062 -12.535156 11.019531 -11.835938 11 -11.140625 C 10.9375 -9.597656 10.867188 -8.046875 10.796875 -6.484375 C 10.722656 -4.929688 10.585938 -3.390625 10.390625 -1.859375 C 10.285156 -1.023438 10.140625 -0.164062 9.953125 0.71875 C 9.765625 1.601562 9.5 2.457031 9.15625 3.28125 C 8.820312 4.101562 8.363281 4.835938 7.78125 5.484375 C 7.3125 6.003906 6.71875 6.429688 6 6.765625 C 5.28125 7.109375 4.535156 7.304688 3.765625 7.359375 C 3.003906 7.410156 2.289062 7.269531 1.625 6.9375 C 1.019531 6.613281 0.5 6.191406 0.0625 5.671875 C -0.375 5.148438 -0.710938 4.566406 -0.953125 3.921875 C -1.191406 3.273438 -1.320312 2.617188 -1.34375 1.953125 C -1.375 1.054688 -1.257812 0.1875 -1 -0.65625 C -0.738281 -1.5 -0.390625 -2.3125 0.046875 -3.09375 C 0.484375 -3.875 0.941406 -4.613281 1.421875 -5.3125 C 2.222656 -6.46875 3.066406 -7.578125 3.953125 -8.640625 C 4.847656 -9.710938 5.75 -10.785156 6.65625 -11.859375 C 6.78125 -12.003906 6.898438 -12.144531 7.015625 -12.28125 C 7.128906 -12.414062 7.242188 -12.546875 7.359375 -12.671875 C 7.378906 -13.378906 7.394531 -14.082031 7.40625 -14.78125 C 7.414062 -15.476562 7.425781 -16.171875 7.4375 -16.859375 C 7.457031 -17.453125 7.46875 -18.046875 7.46875 -18.640625 C 7.476562 -19.234375 7.488281 -19.832031 7.5 -20.4375 C 7.28125 -19.738281 7.03125 -19.050781 6.75 -18.375 C 6.476562 -17.695312 6.171875 -17.046875 5.828125 -16.421875 C 5.378906 -15.628906 4.757812 -15.0625 3.96875 -14.71875 C 3.175781 -14.382812 2.320312 -14.34375 1.40625 -14.59375 C 0.738281 -14.789062 0.234375 -15.109375 -0.109375 -15.546875 C -0.460938 -15.992188 -0.710938 -16.507812 -0.859375 -17.09375 C -1.003906 -17.675781 -1.101562 -18.269531 -1.15625 -18.875 C -1.269531 -20.1875 -1.289062 -21.492188 -1.21875 -22.796875 C -1.144531 -24.109375 -0.988281 -25.410156 -0.75 -26.703125 C -0.601562 -27.398438 -0.441406 -28.132812 -0.265625 -28.90625 C -0.0859375 -29.6875 0.148438 -30.441406 0.453125 -31.171875 C 0.753906 -31.898438 1.144531 -32.539062 1.625 -33.09375 C 2.21875 -33.738281 2.957031 -34.179688 3.84375 -34.421875 C 4.726562 -34.660156 5.585938 -34.664062 6.421875 -34.4375 C 6.753906 -34.34375 7.039062 -34.226562 7.28125 -34.09375 C 7.519531 -33.957031 7.726562 -33.796875 7.90625 -33.609375 C 8.101562 -33.816406 8.390625 -33.960938 8.765625 -34.046875 C 9.148438 -34.140625 9.535156 -34.164062 9.921875 -34.125 C 10.316406 -34.082031 10.648438 -33.984375 10.921875 -33.828125 C 11.203125 -33.671875 11.34375 -33.457031 11.34375 -33.1875 C 11.34375 -30.519531 11.328125 -27.835938 11.296875 -25.140625 C 11.273438 -22.453125 11.234375 -19.769531 11.171875 -17.09375 C 11.410156 -17.394531 11.640625 -17.703125 11.859375 -18.015625 C 12.078125 -18.328125 12.289062 -18.644531 12.5 -18.96875 C 13.320312 -20.238281 14.082031 -21.519531 14.78125 -22.8125 C 15.476562 -24.101562 16.101562 -25.488281 16.65625 -26.96875 Z M 6.8125 -26.1875 C 6.914062 -26.726562 6.992188 -27.273438 7.046875 -27.828125 C 7.097656 -28.378906 7.195312 -28.914062 7.34375 -29.4375 C 7.238281 -29.5 7.175781 -29.582031 7.15625 -29.6875 C 7.082031 -30.007812 6.972656 -30.359375 6.828125 -30.734375 C 6.679688 -31.117188 6.5 -31.472656 6.28125 -31.796875 C 6.0625 -32.117188 5.820312 -32.359375 5.5625 -32.515625 C 5.300781 -32.671875 5.023438 -32.691406 4.734375 -32.578125 C 4.453125 -32.460938 4.171875 -32.15625 3.890625 -31.65625 C 3.492188 -30.976562 3.1875 -30.226562 2.96875 -29.40625 C 2.75 -28.59375 2.5625 -27.804688 2.40625 -27.046875 C 2.101562 -25.609375 1.90625 -24.125 1.8125 -22.59375 C 1.726562 -21.0625 1.796875 -19.5625 2.015625 -18.09375 C 2.023438 -18.039062 2.050781 -17.910156 2.09375 -17.703125 C 2.132812 -17.492188 2.1875 -17.265625 2.25 -17.015625 C 2.3125 -16.765625 2.390625 -16.550781 2.484375 -16.375 C 2.585938 -16.195312 2.695312 -16.117188 2.8125 -16.140625 C 3.207031 -16.296875 3.566406 -16.613281 3.890625 -17.09375 C 4.222656 -17.570312 4.53125 -18.144531 4.8125 -18.8125 C 5.09375 -19.476562 5.34375 -20.179688 5.5625 -20.921875 C 5.789062 -21.671875 5.988281 -22.394531 6.15625 -23.09375 C 6.320312 -23.800781 6.457031 -24.425781 6.5625 -24.96875 C 6.675781 -25.519531 6.757812 -25.925781 6.8125 -26.1875 Z M 6.5 -0.625 C 6.78125 -2.28125 6.976562 -3.953125 7.09375 -5.640625 C 7.207031 -7.328125 7.285156 -9.015625 7.328125 -10.703125 C 6.492188 -9.722656 5.671875 -8.722656 4.859375 -7.703125 C 4.054688 -6.679688 3.328125 -5.625 2.671875 -4.53125 C 2.023438 -3.4375 1.503906 -2.269531 1.109375 -1.03125 C 0.921875 -0.394531 0.789062 0.257812 0.71875 0.9375 C 0.65625 1.625 0.703125 2.296875 0.859375 2.953125 C 0.921875 3.222656 1.019531 3.515625 1.15625 3.828125 C 1.300781 4.148438 1.476562 4.445312 1.6875 4.71875 C 1.894531 4.988281 2.132812 5.195312 2.40625 5.34375 C 2.675781 5.488281 2.984375 5.523438 3.328125 5.453125 C 3.753906 5.347656 4.128906 5.128906 4.453125 4.796875 C 4.773438 4.472656 5.050781 4.070312 5.28125 3.59375 C 5.519531 3.125 5.71875 2.628906 5.875 2.109375 C 6.03125 1.597656 6.15625 1.101562 6.25 0.625 C 6.351562 0.144531 6.4375 -0.269531 6.5 -0.625 Z M 6.5 -0.625 "/></g></g></g><g fill="#ffffff" fill-opacity="1"><g transform="translate(71.142297, 63.49996)"><g><path d="M 14.109375 -26.5625 C 14.171875 -26.695312 14.269531 -26.773438 14.40625 -26.796875 C 14.550781 -26.828125 14.671875 -26.800781 14.765625 -26.71875 C 14.867188 -26.644531 14.890625 -26.519531 14.828125 -26.34375 C 14.660156 -25.09375 14.171875 -24.0625 13.359375 -23.25 C 12.554688 -22.4375 11.457031 -21.757812 10.0625 -21.21875 C 9.90625 -20.132812 9.679688 -19.0625 9.390625 -18 C 9.109375 -16.945312 8.757812 -15.984375 8.34375 -15.109375 C 7.925781 -14.234375 7.4375 -13.523438 6.875 -12.984375 C 6.3125 -12.441406 5.675781 -12.148438 4.96875 -12.109375 C 4.15625 -12.054688 3.445312 -12.1875 2.84375 -12.5 C 2.238281 -12.820312 1.71875 -13.269531 1.28125 -13.84375 C 0.851562 -14.414062 0.492188 -15.070312 0.203125 -15.8125 C -0.078125 -16.5625 -0.296875 -17.332031 -0.453125 -18.125 C -0.617188 -18.914062 -0.742188 -19.6875 -0.828125 -20.4375 C -0.910156 -21.1875 -0.960938 -21.867188 -0.984375 -22.484375 C -1.003906 -23.097656 -1.007812 -23.578125 -1 -23.921875 C -1 -24.078125 -0.984375 -24.222656 -0.953125 -24.359375 C -0.929688 -24.503906 -0.898438 -24.628906 -0.859375 -24.734375 C -1.097656 -25.628906 -1.160156 -26.5625 -1.046875 -27.53125 C -0.929688 -28.507812 -0.671875 -29.460938 -0.265625 -30.390625 C 0.128906 -31.316406 0.648438 -32.144531 1.296875 -32.875 C 1.921875 -33.570312 2.585938 -34.035156 3.296875 -34.265625 C 4.015625 -34.503906 4.71875 -34.539062 5.40625 -34.375 C 6.101562 -34.21875 6.71875 -33.90625 7.25 -33.4375 C 8.519531 -32.320312 9.394531 -30.921875 9.875 -29.234375 C 10.363281 -27.546875 10.5 -25.5 10.28125 -23.09375 C 10.28125 -23.007812 10.273438 -22.925781 10.265625 -22.84375 C 10.253906 -22.757812 10.242188 -22.671875 10.234375 -22.578125 C 10.910156 -22.796875 11.546875 -23.082031 12.140625 -23.4375 C 12.734375 -23.789062 13.210938 -24.226562 13.578125 -24.75 C 13.941406 -25.269531 14.117188 -25.875 14.109375 -26.5625 Z M 2.03125 -29.890625 C 1.957031 -29.609375 1.863281 -29.21875 1.75 -28.71875 C 1.632812 -28.226562 1.550781 -27.691406 1.5 -27.109375 C 1.445312 -26.523438 1.457031 -25.953125 1.53125 -25.390625 C 1.738281 -25.265625 1.898438 -25.113281 2.015625 -24.9375 C 2.140625 -24.757812 2.210938 -24.5625 2.234375 -24.34375 C 2.234375 -24.257812 2.234375 -24.148438 2.234375 -24.015625 C 2.234375 -23.890625 2.234375 -23.738281 2.234375 -23.5625 C 2.253906 -23.539062 2.269531 -23.519531 2.28125 -23.5 C 2.300781 -23.488281 2.316406 -23.46875 2.328125 -23.4375 C 2.753906 -22.96875 3.410156 -22.609375 4.296875 -22.359375 C 5.179688 -22.117188 6.160156 -22.015625 7.234375 -22.046875 C 7.304688 -22.773438 7.34375 -23.390625 7.34375 -23.890625 C 7.375 -24.710938 7.378906 -25.578125 7.359375 -26.484375 C 7.347656 -27.398438 7.273438 -28.300781 7.140625 -29.1875 C 7.003906 -30.070312 6.75 -30.882812 6.375 -31.625 C 5.988281 -32.394531 5.59375 -32.878906 5.1875 -33.078125 C 4.78125 -33.273438 4.378906 -33.253906 3.984375 -33.015625 C 3.597656 -32.785156 3.234375 -32.390625 2.890625 -31.828125 C 2.554688 -31.273438 2.269531 -30.628906 2.03125 -29.890625 Z M 4.828125 -14.3125 C 5.128906 -14.34375 5.394531 -14.535156 5.625 -14.890625 C 5.863281 -15.253906 6.070312 -15.726562 6.25 -16.3125 C 6.4375 -16.90625 6.59375 -17.554688 6.71875 -18.265625 C 6.851562 -18.984375 6.960938 -19.691406 7.046875 -20.390625 C 6.203125 -20.265625 5.378906 -20.234375 4.578125 -20.296875 C 3.773438 -20.359375 3.050781 -20.535156 2.40625 -20.828125 C 2.46875 -20.078125 2.554688 -19.316406 2.671875 -18.546875 C 2.796875 -17.785156 2.953125 -17.078125 3.140625 -16.421875 C 3.328125 -15.773438 3.554688 -15.253906 3.828125 -14.859375 C 4.097656 -14.472656 4.429688 -14.289062 4.828125 -14.3125 Z M 4.828125 -14.3125 "/></g></g></g><g fill="#ffffff" fill-opacity="1"><g transform="translate(85.066723, 63.49996)"><g/></g></g><g fill="#ffffff" fill-opacity="1"><g transform="translate(94.889988, 63.49996)"><g><path d="M 17.3125 -25.234375 C 17.320312 -25.285156 17.375 -25.3125 17.46875 -25.3125 C 17.570312 -25.3125 17.613281 -25.285156 17.59375 -25.234375 C 17.351562 -23.441406 17.019531 -21.660156 16.59375 -19.890625 C 16.164062 -18.128906 15.679688 -16.382812 15.140625 -14.65625 C 14.941406 -14.03125 14.613281 -13.5625 14.15625 -13.25 C 13.707031 -12.945312 13.203125 -12.785156 12.640625 -12.765625 C 12.078125 -12.753906 11.53125 -12.875 11 -13.125 C 10.46875 -13.382812 10.023438 -13.753906 9.671875 -14.234375 C 9.148438 -14.960938 8.773438 -15.804688 8.546875 -16.765625 C 8.328125 -17.722656 8.179688 -18.695312 8.109375 -19.6875 C 7.972656 -19.226562 7.835938 -18.769531 7.703125 -18.3125 C 7.566406 -17.863281 7.425781 -17.410156 7.28125 -16.953125 C 7.113281 -16.441406 6.9375 -15.9375 6.75 -15.4375 C 6.5625 -14.945312 6.320312 -14.503906 6.03125 -14.109375 C 5.75 -13.710938 5.390625 -13.398438 4.953125 -13.171875 C 4.523438 -12.941406 3.992188 -12.835938 3.359375 -12.859375 C 2.628906 -12.878906 2.015625 -13.078125 1.515625 -13.453125 C 1.015625 -13.835938 0.601562 -14.320312 0.28125 -14.90625 C -0.0390625 -15.488281 -0.285156 -16.097656 -0.453125 -16.734375 C -0.765625 -17.921875 -0.929688 -19.164062 -0.953125 -20.46875 C -0.984375 -21.78125 -0.894531 -23.101562 -0.6875 -24.4375 C -0.488281 -25.78125 -0.191406 -27.078125 0.203125 -28.328125 C 0.597656 -29.585938 1.070312 -30.75 1.625 -31.8125 C 1.9375 -32.414062 2.289062 -32.96875 2.6875 -33.46875 C 3.09375 -33.976562 3.566406 -34.390625 4.109375 -34.703125 C 4.660156 -35.015625 5.3125 -35.164062 6.0625 -35.15625 C 6.300781 -35.15625 6.585938 -35.125 6.921875 -35.0625 C 7.253906 -35 7.566406 -34.894531 7.859375 -34.75 C 8.046875 -37.625 8.394531 -40.472656 8.90625 -43.296875 C 9.164062 -44.785156 9.453125 -46.316406 9.765625 -47.890625 C 10.078125 -49.460938 10.515625 -50.953125 11.078125 -52.359375 C 11.328125 -52.960938 11.660156 -53.476562 12.078125 -53.90625 C 12.503906 -54.332031 12.96875 -54.644531 13.46875 -54.84375 C 13.976562 -55.039062 14.484375 -55.085938 14.984375 -54.984375 C 15.492188 -54.890625 15.941406 -54.609375 16.328125 -54.140625 C 16.597656 -53.816406 16.804688 -53.367188 16.953125 -52.796875 C 17.097656 -52.222656 17.1875 -51.585938 17.21875 -50.890625 C 17.257812 -50.203125 17.269531 -49.507812 17.25 -48.8125 C 17.238281 -48.125 17.203125 -47.492188 17.140625 -46.921875 C 17.078125 -46.347656 17.015625 -45.894531 16.953125 -45.5625 C 16.648438 -43.96875 16.25 -42.332031 15.75 -40.65625 C 15.25 -38.976562 14.640625 -37.34375 13.921875 -35.75 C 13.210938 -34.15625 12.378906 -32.660156 11.421875 -31.265625 C 11.347656 -28.941406 11.359375 -26.582031 11.453125 -24.1875 C 11.554688 -21.789062 11.84375 -19.453125 12.3125 -17.171875 C 12.375 -16.828125 12.457031 -16.484375 12.5625 -16.140625 C 12.664062 -15.804688 12.804688 -15.492188 12.984375 -15.203125 C 13.023438 -15.148438 13.066406 -15.097656 13.109375 -15.046875 C 13.148438 -15.003906 13.195312 -14.957031 13.25 -14.90625 C 13.375 -15.019531 13.492188 -15.148438 13.609375 -15.296875 C 13.734375 -15.441406 13.835938 -15.582031 13.921875 -15.71875 C 14.117188 -16.007812 14.285156 -16.3125 14.421875 -16.625 C 14.554688 -16.945312 14.691406 -17.257812 14.828125 -17.5625 C 15.390625 -18.800781 15.875 -20.050781 16.28125 -21.3125 C 16.6875 -22.582031 17.03125 -23.890625 17.3125 -25.234375 Z M 13.421875 -47.390625 C 12.898438 -45.109375 12.484375 -42.8125 12.171875 -40.5 C 11.859375 -38.1875 11.632812 -35.863281 11.5 -33.53125 C 11.757812 -34 12.007812 -34.472656 12.25 -34.953125 C 12.5 -35.429688 12.726562 -35.914062 12.9375 -36.40625 C 13.488281 -37.707031 13.976562 -39.035156 14.40625 -40.390625 C 14.832031 -41.742188 15.1875 -43.113281 15.46875 -44.5 C 15.738281 -45.851562 15.898438 -47.160156 15.953125 -48.421875 C 16.003906 -49.679688 15.84375 -50.976562 15.46875 -52.3125 C 15.46875 -52.3125 15.4375 -52.363281 15.375 -52.46875 C 15.320312 -52.570312 15.253906 -52.648438 15.171875 -52.703125 C 15.085938 -52.753906 14.992188 -52.691406 14.890625 -52.515625 C 14.753906 -52.304688 14.644531 -52.078125 14.5625 -51.828125 C 14.488281 -51.585938 14.421875 -51.34375 14.359375 -51.09375 C 14.003906 -49.84375 13.691406 -48.609375 13.421875 -47.390625 Z M 7.671875 -27.5625 C 7.660156 -28.25 7.65625 -28.9375 7.65625 -29.625 C 7.664062 -30.320312 7.679688 -31.007812 7.703125 -31.6875 C 7.609375 -32.175781 7.394531 -32.550781 7.0625 -32.8125 C 6.726562 -33.082031 6.425781 -33.179688 6.15625 -33.109375 C 5.945312 -33.046875 5.734375 -32.910156 5.515625 -32.703125 C 5.304688 -32.503906 5.109375 -32.285156 4.921875 -32.046875 C 4.742188 -31.816406 4.609375 -31.609375 4.515625 -31.421875 C 4.109375 -30.640625 3.78125 -29.828125 3.53125 -28.984375 C 3.289062 -28.148438 3.078125 -27.3125 2.890625 -26.46875 C 2.671875 -25.414062 2.488281 -24.289062 2.34375 -23.09375 C 2.195312 -21.894531 2.132812 -20.710938 2.15625 -19.546875 C 2.1875 -18.390625 2.320312 -17.332031 2.5625 -16.375 C 2.613281 -16.175781 2.675781 -15.972656 2.75 -15.765625 C 2.832031 -15.554688 2.929688 -15.367188 3.046875 -15.203125 C 3.234375 -14.921875 3.410156 -14.773438 3.578125 -14.765625 C 3.742188 -14.765625 3.929688 -14.867188 4.140625 -15.078125 C 4.484375 -15.421875 4.722656 -15.769531 4.859375 -16.125 C 4.992188 -16.476562 5.132812 -16.835938 5.28125 -17.203125 C 5.625 -18.140625 5.9375 -19.085938 6.21875 -20.046875 C 6.507812 -21.003906 6.757812 -21.976562 6.96875 -22.96875 C 7.28125 -24.488281 7.515625 -26.019531 7.671875 -27.5625 Z M 7.671875 -27.5625 "/></g></g></g><g fill="#ffffff" fill-opacity="1"><g transform="translate(112.153925, 63.49996)"><g><path d="M 7.9375 -24.203125 C 7.570312 -23.585938 7.140625 -23.019531 6.640625 -22.5 C 6.148438 -21.988281 5.59375 -21.585938 4.96875 -21.296875 C 4.351562 -21.015625 3.660156 -20.910156 2.890625 -20.984375 C 2.816406 -20.984375 2.738281 -20.988281 2.65625 -21 C 2.582031 -21.007812 2.503906 -21.019531 2.421875 -21.03125 C 2.472656 -20.320312 2.570312 -19.628906 2.71875 -18.953125 C 2.875 -18.273438 3.097656 -17.664062 3.390625 -17.125 C 3.691406 -16.582031 4.085938 -16.140625 4.578125 -15.796875 C 5.078125 -15.460938 5.6875 -15.28125 6.40625 -15.25 C 7.03125 -15.226562 7.617188 -15.375 8.171875 -15.6875 C 8.722656 -16 9.234375 -16.410156 9.703125 -16.921875 C 10.171875 -17.441406 10.597656 -17.988281 10.984375 -18.5625 C 11.378906 -19.132812 11.734375 -19.671875 12.046875 -20.171875 C 12.148438 -20.347656 12.296875 -20.628906 12.484375 -21.015625 C 12.679688 -21.410156 12.890625 -21.863281 13.109375 -22.375 C 13.328125 -22.882812 13.539062 -23.414062 13.75 -23.96875 C 13.96875 -24.53125 14.160156 -25.078125 14.328125 -25.609375 C 14.492188 -26.140625 14.613281 -26.609375 14.6875 -27.015625 C 14.738281 -27.285156 14.851562 -27.457031 15.03125 -27.53125 C 15.207031 -27.613281 15.367188 -27.609375 15.515625 -27.515625 C 15.671875 -27.429688 15.710938 -27.257812 15.640625 -27 C 15.484375 -26.300781 15.257812 -25.507812 14.96875 -24.625 C 14.675781 -23.738281 14.34375 -22.832031 13.96875 -21.90625 C 13.59375 -20.976562 13.195312 -20.078125 12.78125 -19.203125 C 12.257812 -18.097656 11.648438 -17.09375 10.953125 -16.1875 C 10.253906 -15.28125 9.488281 -14.550781 8.65625 -14 C 7.832031 -13.457031 6.953125 -13.15625 6.015625 -13.09375 C 5.140625 -13.019531 4.296875 -13.097656 3.484375 -13.328125 C 2.671875 -13.566406 1.945312 -13.953125 1.3125 -14.484375 C 0.675781 -15.023438 0.160156 -15.707031 -0.234375 -16.53125 C -0.597656 -17.332031 -0.859375 -18.1875 -1.015625 -19.09375 C -1.171875 -20.007812 -1.25 -20.9375 -1.25 -21.875 C -1.257812 -22.820312 -1.238281 -23.726562 -1.1875 -24.59375 C -1.15625 -25.289062 -1.0625 -26.0625 -0.90625 -26.90625 C -0.757812 -27.75 -0.546875 -28.601562 -0.265625 -29.46875 C 0.00390625 -30.34375 0.34375 -31.179688 0.75 -31.984375 C 1.164062 -32.796875 1.648438 -33.519531 2.203125 -34.15625 C 2.765625 -34.800781 3.40625 -35.3125 4.125 -35.6875 C 4.84375 -36.0625 5.644531 -36.25 6.53125 -36.25 C 7.382812 -36.25 8.070312 -36.082031 8.59375 -35.75 C 9.113281 -35.414062 9.492188 -34.957031 9.734375 -34.375 C 9.972656 -33.800781 10.109375 -33.148438 10.140625 -32.421875 C 10.179688 -31.703125 10.132812 -30.945312 10 -30.15625 C 9.875 -29.375 9.691406 -28.601562 9.453125 -27.84375 C 9.222656 -27.09375 8.972656 -26.398438 8.703125 -25.765625 C 8.429688 -25.140625 8.175781 -24.617188 7.9375 -24.203125 Z M 2.390625 -22.5 C 2.421875 -22.476562 2.457031 -22.453125 2.5 -22.421875 C 2.539062 -22.398438 2.585938 -22.375 2.640625 -22.34375 C 3.023438 -22.144531 3.382812 -22.101562 3.71875 -22.21875 C 4.0625 -22.332031 4.375 -22.53125 4.65625 -22.8125 C 4.945312 -23.101562 5.203125 -23.421875 5.421875 -23.765625 C 5.648438 -24.109375 5.84375 -24.410156 6 -24.671875 C 6.570312 -25.703125 7.03125 -26.789062 7.375 -27.9375 C 7.71875 -29.082031 7.894531 -30.238281 7.90625 -31.40625 C 7.925781 -31.707031 7.914062 -32.078125 7.875 -32.515625 C 7.84375 -32.960938 7.757812 -33.390625 7.625 -33.796875 C 7.5 -34.210938 7.28125 -34.503906 6.96875 -34.671875 C 6.6875 -34.835938 6.328125 -34.757812 5.890625 -34.4375 C 5.453125 -34.125 5.007812 -33.597656 4.5625 -32.859375 C 4.113281 -32.128906 3.710938 -31.210938 3.359375 -30.109375 C 3.003906 -29.003906 2.757812 -27.757812 2.625 -26.375 C 2.582031 -25.957031 2.53125 -25.40625 2.46875 -24.71875 C 2.414062 -24.03125 2.390625 -23.289062 2.390625 -22.5 Z M 2.390625 -22.5 "/></g></g></g><g fill="#ffffff" fill-opacity="1"><g transform="translate(126.996224, 63.49996)"><g/></g></g><g fill="#ffffff" fill-opacity="1"><g transform="translate(136.819489, 63.49996)"><g><path d="M 36.953125 -61.40625 C 37.515625 -61.226562 38.003906 -60.859375 38.421875 -60.296875 C 38.847656 -59.734375 39.207031 -59.035156 39.5 -58.203125 C 39.789062 -57.367188 40.019531 -56.441406 40.1875 -55.421875 C 40.351562 -54.410156 40.460938 -53.351562 40.515625 -52.25 C 40.566406 -51.144531 40.554688 -50.046875 40.484375 -48.953125 C 40.410156 -47.421875 40.164062 -46.117188 39.75 -45.046875 C 39.34375 -43.984375 38.8125 -43.222656 38.15625 -42.765625 C 37.507812 -42.304688 36.765625 -42.207031 35.921875 -42.46875 C 35.441406 -42.625 35.066406 -42.929688 34.796875 -43.390625 C 34.523438 -43.847656 34.34375 -44.382812 34.25 -45 C 34.164062 -45.625 34.144531 -46.242188 34.1875 -46.859375 C 34.238281 -47.484375 34.328125 -48.03125 34.453125 -48.5 C 34.492188 -48.625 34.625 -48.707031 34.84375 -48.75 C 35.0625 -48.789062 35.269531 -48.785156 35.46875 -48.734375 C 35.675781 -48.691406 35.773438 -48.59375 35.765625 -48.4375 C 35.753906 -48.226562 35.734375 -47.9375 35.703125 -47.5625 C 35.679688 -47.195312 35.671875 -46.800781 35.671875 -46.375 C 35.671875 -45.957031 35.703125 -45.546875 35.765625 -45.140625 C 35.828125 -44.742188 35.945312 -44.414062 36.125 -44.15625 C 36.300781 -43.894531 36.550781 -43.753906 36.875 -43.734375 C 37.21875 -43.703125 37.5 -43.878906 37.71875 -44.265625 C 37.945312 -44.660156 38.128906 -45.191406 38.265625 -45.859375 C 38.410156 -46.523438 38.515625 -47.265625 38.578125 -48.078125 C 38.640625 -48.890625 38.671875 -49.707031 38.671875 -50.53125 C 38.679688 -51.351562 38.664062 -52.113281 38.625 -52.8125 C 38.59375 -53.519531 38.535156 -54.09375 38.453125 -54.53125 C 38.335938 -55.257812 38.179688 -55.972656 37.984375 -56.671875 C 37.796875 -57.378906 37.550781 -58.070312 37.25 -58.75 C 37.207031 -58.84375 37.140625 -58.984375 37.046875 -59.171875 C 36.960938 -59.359375 36.859375 -59.519531 36.734375 -59.65625 C 36.609375 -59.789062 36.472656 -59.820312 36.328125 -59.75 C 36.222656 -59.6875 36.109375 -59.578125 35.984375 -59.421875 C 35.859375 -59.273438 35.765625 -59.144531 35.703125 -59.03125 C 35.117188 -57.6875 34.59375 -56.09375 34.125 -54.25 C 33.664062 -52.414062 33.257812 -50.394531 32.90625 -48.1875 C 32.5625 -45.988281 32.253906 -43.664062 31.984375 -41.21875 C 31.710938 -38.769531 31.484375 -36.257812 31.296875 -33.6875 C 31.109375 -31.125 30.953125 -28.5625 30.828125 -26 C 30.703125 -23.445312 30.597656 -20.957031 30.515625 -18.53125 C 30.429688 -16.101562 30.359375 -13.800781 30.296875 -11.625 C 30.234375 -9.457031 30.175781 -7.484375 30.125 -5.703125 C 30.082031 -3.921875 30.035156 -2.390625 29.984375 -1.109375 C 29.972656 -0.828125 29.847656 -0.601562 29.609375 -0.4375 C 29.378906 -0.28125 29.085938 -0.175781 28.734375 -0.125 C 28.390625 -0.0703125 28.039062 -0.0703125 27.6875 -0.125 C 27.34375 -0.175781 27.035156 -0.28125 26.765625 -0.4375 C 26.503906 -0.601562 26.335938 -0.8125 26.265625 -1.0625 C 25.046875 -5.863281 23.988281 -10.703125 23.09375 -15.578125 C 22.207031 -20.453125 21.421875 -25.347656 20.734375 -30.265625 C 20.046875 -35.191406 19.390625 -40.125 18.765625 -45.0625 C 18.710938 -44.5625 18.648438 -44.0625 18.578125 -43.5625 C 18.515625 -43.0625 18.445312 -42.566406 18.375 -42.078125 C 18.03125 -39.640625 17.664062 -37.210938 17.28125 -34.796875 C 16.894531 -32.378906 16.488281 -29.96875 16.0625 -27.5625 C 15.65625 -25.363281 15.234375 -23.160156 14.796875 -20.953125 C 14.367188 -18.742188 13.921875 -16.539062 13.453125 -14.34375 C 13.191406 -13.101562 12.925781 -11.835938 12.65625 -10.546875 C 12.394531 -9.253906 12.078125 -7.984375 11.703125 -6.734375 C 11.335938 -5.484375 10.863281 -4.296875 10.28125 -3.171875 C 10.03125 -2.703125 9.6875 -2.265625 9.25 -1.859375 C 8.820312 -1.453125 8.332031 -1.113281 7.78125 -0.84375 C 7.226562 -0.570312 6.640625 -0.394531 6.015625 -0.3125 C 5.398438 -0.238281 4.78125 -0.289062 4.15625 -0.46875 C 3.53125 -0.65625 2.929688 -1.007812 2.359375 -1.53125 C 1.816406 -2.019531 1.335938 -2.738281 0.921875 -3.6875 C 0.515625 -4.644531 0.175781 -5.753906 -0.09375 -7.015625 C -0.375 -8.285156 -0.566406 -9.65625 -0.671875 -11.125 C -0.785156 -12.601562 -0.816406 -14.117188 -0.765625 -15.671875 C -0.722656 -17.234375 -0.582031 -18.769531 -0.34375 -20.28125 C -0.113281 -21.800781 0.207031 -23.242188 0.625 -24.609375 C 1.039062 -25.972656 1.554688 -27.195312 2.171875 -28.28125 C 2.796875 -29.375 3.523438 -30.265625 4.359375 -30.953125 C 4.660156 -31.203125 5.035156 -31.421875 5.484375 -31.609375 C 5.941406 -31.796875 6.40625 -31.910156 6.875 -31.953125 C 7.351562 -32.003906 7.765625 -31.929688 8.109375 -31.734375 C 8.578125 -31.472656 8.910156 -31.015625 9.109375 -30.359375 C 9.316406 -29.703125 9.425781 -28.914062 9.4375 -28 C 9.445312 -27.082031 9.382812 -26.097656 9.25 -25.046875 C 9.113281 -24.003906 8.929688 -22.960938 8.703125 -21.921875 C 8.484375 -20.878906 8.242188 -19.90625 7.984375 -19 C 7.722656 -18.101562 7.476562 -17.34375 7.25 -16.71875 C 7.207031 -16.613281 7.097656 -16.546875 6.921875 -16.515625 C 6.742188 -16.484375 6.578125 -16.492188 6.421875 -16.546875 C 6.265625 -16.609375 6.207031 -16.707031 6.25 -16.84375 C 6.445312 -17.488281 6.644531 -18.257812 6.84375 -19.15625 C 7.050781 -20.0625 7.238281 -21.015625 7.40625 -22.015625 C 7.570312 -23.015625 7.707031 -24.003906 7.8125 -24.984375 C 7.914062 -25.960938 7.96875 -26.859375 7.96875 -27.671875 C 7.96875 -28.484375 7.898438 -29.148438 7.765625 -29.671875 C 7.628906 -30.191406 7.40625 -30.5 7.09375 -30.59375 C 6.925781 -30.644531 6.742188 -30.597656 6.546875 -30.453125 C 6.359375 -30.304688 6.171875 -30.113281 5.984375 -29.875 C 5.796875 -29.644531 5.628906 -29.410156 5.484375 -29.171875 C 5.347656 -28.941406 5.242188 -28.753906 5.171875 -28.609375 C 4.773438 -27.847656 4.445312 -27.050781 4.1875 -26.21875 C 3.925781 -25.382812 3.707031 -24.539062 3.53125 -23.6875 C 3.238281 -22.21875 2.984375 -20.6875 2.765625 -19.09375 C 2.546875 -17.5 2.410156 -15.890625 2.359375 -14.265625 C 2.304688 -12.648438 2.367188 -11.050781 2.546875 -9.46875 C 2.722656 -7.882812 3.050781 -6.363281 3.53125 -4.90625 C 3.632812 -4.59375 3.765625 -4.21875 3.921875 -3.78125 C 4.078125 -3.34375 4.269531 -2.925781 4.5 -2.53125 C 4.726562 -2.132812 5 -1.835938 5.3125 -1.640625 C 5.632812 -1.441406 6.015625 -1.4375 6.453125 -1.625 C 6.898438 -1.832031 7.273438 -2.164062 7.578125 -2.625 C 7.890625 -3.09375 8.148438 -3.597656 8.359375 -4.140625 C 8.566406 -4.691406 8.75 -5.179688 8.90625 -5.609375 C 9.476562 -7.210938 9.941406 -8.847656 10.296875 -10.515625 C 10.648438 -12.179688 11.007812 -13.835938 11.375 -15.484375 C 11.976562 -18.265625 12.523438 -21.015625 13.015625 -23.734375 C 13.515625 -26.453125 13.957031 -29.082031 14.34375 -31.625 C 14.738281 -34.164062 15.082031 -36.566406 15.375 -38.828125 C 15.675781 -41.097656 15.925781 -43.171875 16.125 -45.046875 C 16.320312 -46.929688 16.484375 -48.578125 16.609375 -49.984375 C 16.742188 -51.390625 16.84375 -52.5 16.90625 -53.3125 C 16.96875 -54.132812 17 -54.613281 17 -54.75 C 17 -55.15625 17.023438 -55.5625 17.078125 -55.96875 C 17.140625 -56.375 17.191406 -56.78125 17.234375 -57.1875 C 17.253906 -57.457031 17.382812 -57.675781 17.625 -57.84375 C 17.863281 -58.007812 18.160156 -58.117188 18.515625 -58.171875 C 18.867188 -58.234375 19.222656 -58.238281 19.578125 -58.1875 C 19.941406 -58.144531 20.25 -58.046875 20.5 -57.890625 C 20.75 -57.734375 20.894531 -57.523438 20.9375 -57.265625 C 21.5625 -52.585938 22.164062 -47.894531 22.75 -43.1875 C 23.34375 -38.488281 23.96875 -33.789062 24.625 -29.09375 C 25.289062 -24.394531 26.0625 -19.71875 26.9375 -15.0625 C 27.039062 -16.976562 27.144531 -18.894531 27.25 -20.8125 C 27.351562 -22.726562 27.460938 -24.644531 27.578125 -26.5625 C 27.867188 -31.070312 28.226562 -35.035156 28.65625 -38.453125 C 29.082031 -41.867188 29.535156 -44.796875 30.015625 -47.234375 C 30.503906 -49.679688 30.960938 -51.6875 31.390625 -53.25 C 31.816406 -54.8125 32.164062 -55.984375 32.4375 -56.765625 C 32.59375 -57.191406 32.769531 -57.648438 32.96875 -58.140625 C 33.164062 -58.628906 33.390625 -59.097656 33.640625 -59.546875 C 33.898438 -60.003906 34.191406 -60.398438 34.515625 -60.734375 C 34.835938 -61.078125 35.203125 -61.316406 35.609375 -61.453125 C 36.015625 -61.585938 36.460938 -61.570312 36.953125 -61.40625 Z M 36.953125 -61.40625 "/></g></g></g><g fill="#ffffff" fill-opacity="1"><g transform="translate(172.323831, 63.49996)"><g><path d="M 15.640625 -27.5 C 15.660156 -27.5625 15.738281 -27.597656 15.875 -27.609375 C 16.019531 -27.628906 16.164062 -27.625 16.3125 -27.59375 C 16.457031 -27.570312 16.519531 -27.53125 16.5 -27.46875 C 16.3125 -25.832031 16.050781 -24.195312 15.71875 -22.5625 C 15.382812 -20.9375 14.9375 -19.347656 14.375 -17.796875 C 14.164062 -17.210938 13.929688 -16.613281 13.671875 -16 C 13.410156 -15.394531 13.09375 -14.859375 12.71875 -14.390625 C 12.351562 -13.921875 11.894531 -13.585938 11.34375 -13.390625 C 10.800781 -13.191406 10.140625 -13.195312 9.359375 -13.40625 C 8.722656 -13.582031 8.222656 -13.914062 7.859375 -14.40625 C 7.492188 -14.90625 7.222656 -15.492188 7.046875 -16.171875 C 6.867188 -16.847656 6.75 -17.539062 6.6875 -18.25 C 6.550781 -17.832031 6.40625 -17.414062 6.25 -17 C 6.101562 -16.59375 5.941406 -16.191406 5.765625 -15.796875 C 5.523438 -15.265625 5.238281 -14.757812 4.90625 -14.28125 C 4.582031 -13.8125 4.207031 -13.414062 3.78125 -13.09375 C 3.351562 -12.78125 2.875 -12.578125 2.34375 -12.484375 C 1.820312 -12.398438 1.238281 -12.484375 0.59375 -12.734375 C 0.03125 -12.953125 -0.414062 -13.28125 -0.75 -13.71875 C -1.09375 -14.15625 -1.351562 -14.644531 -1.53125 -15.1875 C -1.707031 -15.738281 -1.832031 -16.304688 -1.90625 -16.890625 C -1.976562 -17.484375 -2.023438 -18.039062 -2.046875 -18.5625 C -2.128906 -19.945312 -2.09375 -21.328125 -1.9375 -22.703125 C -1.78125 -24.078125 -1.519531 -25.4375 -1.15625 -26.78125 C -1 -27.351562 -0.816406 -27.96875 -0.609375 -28.625 C -0.410156 -29.28125 -0.175781 -29.929688 0.09375 -30.578125 C 0.375 -31.222656 0.695312 -31.820312 1.0625 -32.375 C 1.425781 -32.9375 1.851562 -33.414062 2.34375 -33.8125 C 2.71875 -34.113281 3.148438 -34.34375 3.640625 -34.5 C 4.140625 -34.664062 4.648438 -34.75 5.171875 -34.75 C 5.691406 -34.75 6.191406 -34.660156 6.671875 -34.484375 C 7.160156 -34.304688 7.570312 -34.03125 7.90625 -33.65625 C 7.9375 -33.625 7.960938 -33.59375 7.984375 -33.5625 C 8.015625 -33.53125 8.039062 -33.492188 8.0625 -33.453125 C 8.445312 -33.554688 8.835938 -33.59375 9.234375 -33.5625 C 9.640625 -33.539062 9.984375 -33.453125 10.265625 -33.296875 C 10.546875 -33.140625 10.671875 -32.921875 10.640625 -32.640625 C 10.515625 -30.828125 10.394531 -29 10.28125 -27.15625 C 10.175781 -25.3125 10.148438 -23.472656 10.203125 -21.640625 C 10.253906 -19.816406 10.453125 -18.007812 10.796875 -16.21875 C 10.816406 -16.082031 10.84375 -15.945312 10.875 -15.8125 C 10.90625 -15.675781 10.941406 -15.539062 10.984375 -15.40625 C 11.117188 -15.582031 11.25 -15.753906 11.375 -15.921875 C 11.5 -16.085938 11.613281 -16.253906 11.71875 -16.421875 C 12.082031 -16.960938 12.410156 -17.507812 12.703125 -18.0625 C 12.992188 -18.625 13.265625 -19.195312 13.515625 -19.78125 C 14.046875 -21.019531 14.484375 -22.28125 14.828125 -23.5625 C 15.179688 -24.84375 15.453125 -26.15625 15.640625 -27.5 Z M 5 -22.46875 C 5.351562 -23.695312 5.640625 -24.941406 5.859375 -26.203125 C 6.078125 -27.460938 6.289062 -28.722656 6.5 -29.984375 C 6.414062 -30.242188 6.300781 -30.5 6.15625 -30.75 C 6.019531 -30.96875 5.894531 -31.1875 5.78125 -31.40625 C 5.664062 -31.625 5.535156 -31.835938 5.390625 -32.046875 C 5.335938 -32.128906 5.28125 -32.207031 5.21875 -32.28125 C 5.164062 -32.363281 5.109375 -32.441406 5.046875 -32.515625 C 4.953125 -32.378906 4.863281 -32.238281 4.78125 -32.09375 C 4.695312 -31.945312 4.613281 -31.800781 4.53125 -31.65625 C 4.40625 -31.4375 4.28125 -31.207031 4.15625 -30.96875 C 4.039062 -30.726562 3.929688 -30.484375 3.828125 -30.234375 C 3.359375 -29.222656 2.96875 -28.1875 2.65625 -27.125 C 2.300781 -25.976562 2.035156 -24.800781 1.859375 -23.59375 C 1.691406 -22.394531 1.609375 -21.195312 1.609375 -20 C 1.609375 -19.46875 1.617188 -18.929688 1.640625 -18.390625 C 1.671875 -17.847656 1.726562 -17.3125 1.8125 -16.78125 C 1.84375 -16.625 1.890625 -16.375 1.953125 -16.03125 C 2.015625 -15.6875 2.109375 -15.359375 2.234375 -15.046875 C 2.460938 -15.367188 2.671875 -15.738281 2.859375 -16.15625 C 3.046875 -16.582031 3.210938 -16.988281 3.359375 -17.375 C 3.515625 -17.757812 3.625 -18.039062 3.6875 -18.21875 C 3.945312 -18.914062 4.179688 -19.617188 4.390625 -20.328125 C 4.597656 -21.035156 4.800781 -21.75 5 -22.46875 Z M 5 -22.46875 "/></g></g></g><g fill="#ffffff" fill-opacity="1"><g transform="translate(188.084015, 63.49996)"><g><path d="M 9.265625 -25.09375 C 8.660156 -24.5 8.054688 -24.109375 7.453125 -23.921875 C 6.847656 -23.742188 6.210938 -23.875 5.546875 -24.3125 C 5.265625 -24.507812 5.0625 -24.765625 4.9375 -25.078125 C 4.8125 -25.390625 4.757812 -25.703125 4.78125 -26.015625 C 4.8125 -26.328125 4.898438 -26.582031 5.046875 -26.78125 C 5.097656 -26.820312 5.210938 -26.847656 5.390625 -26.859375 C 5.578125 -26.867188 5.765625 -26.859375 5.953125 -26.828125 C 6.148438 -26.804688 6.300781 -26.765625 6.40625 -26.703125 C 6.519531 -26.640625 6.535156 -26.535156 6.453125 -26.390625 C 6.347656 -26.234375 6.296875 -26.054688 6.296875 -25.859375 C 6.304688 -25.660156 6.375 -25.492188 6.5 -25.359375 C 6.625 -25.222656 6.800781 -25.15625 7.03125 -25.15625 C 7.269531 -25.164062 7.484375 -25.320312 7.671875 -25.625 C 7.859375 -25.925781 8.019531 -26.316406 8.15625 -26.796875 C 8.300781 -27.273438 8.414062 -27.785156 8.5 -28.328125 C 8.59375 -28.878906 8.640625 -29.40625 8.640625 -29.90625 C 8.640625 -30.414062 8.59375 -30.84375 8.5 -31.1875 C 8.414062 -31.53125 8.285156 -31.734375 8.109375 -31.796875 C 7.691406 -31.953125 7.257812 -31.882812 6.8125 -31.59375 C 6.363281 -31.300781 5.925781 -30.828125 5.5 -30.171875 C 5.070312 -29.523438 4.671875 -28.726562 4.296875 -27.78125 C 3.929688 -26.84375 3.613281 -25.796875 3.34375 -24.640625 C 3.070312 -23.484375 2.867188 -22.269531 2.734375 -21 C 2.503906 -19.695312 2.390625 -18.320312 2.390625 -16.875 C 2.398438 -15.425781 2.398438 -14.023438 2.390625 -12.671875 C 2.390625 -12.617188 2.390625 -12.5625 2.390625 -12.5 C 2.398438 -12.4375 2.40625 -12.378906 2.40625 -12.328125 L 2.390625 -12.328125 C 2.390625 -12.234375 2.382812 -12.140625 2.375 -12.046875 C 2.363281 -11.960938 2.359375 -11.875 2.359375 -11.78125 C 2.347656 -11.519531 2.222656 -11.320312 1.984375 -11.1875 C 1.753906 -11.0625 1.460938 -10.992188 1.109375 -10.984375 C 0.765625 -10.984375 0.414062 -11.035156 0.0625 -11.140625 C -0.289062 -11.242188 -0.585938 -11.390625 -0.828125 -11.578125 C -1.066406 -11.765625 -1.195312 -11.988281 -1.21875 -12.25 C -1.300781 -14.1875 -1.378906 -16.117188 -1.453125 -18.046875 C -1.535156 -19.972656 -1.585938 -21.898438 -1.609375 -23.828125 C -1.609375 -24.796875 -1.59375 -25.765625 -1.5625 -26.734375 C -1.539062 -27.703125 -1.503906 -28.660156 -1.453125 -29.609375 C -1.410156 -30.191406 -1.351562 -30.804688 -1.28125 -31.453125 C -1.21875 -32.097656 -1.117188 -32.707031 -0.984375 -33.28125 C -0.859375 -33.851562 -0.691406 -34.316406 -0.484375 -34.671875 C -0.378906 -34.847656 -0.195312 -34.992188 0.0625 -35.109375 C 0.320312 -35.222656 0.601562 -35.296875 0.90625 -35.328125 C 1.21875 -35.359375 1.507812 -35.34375 1.78125 -35.28125 C 2.0625 -35.226562 2.285156 -35.125 2.453125 -34.96875 C 2.617188 -34.820312 2.675781 -34.625 2.625 -34.375 C 2.425781 -33.375 2.3125 -32.460938 2.28125 -31.640625 C 2.25 -30.816406 2.207031 -29.957031 2.15625 -29.0625 C 2.132812 -28.550781 2.113281 -28.035156 2.09375 -27.515625 C 2.082031 -26.992188 2.066406 -26.472656 2.046875 -25.953125 C 2.117188 -26.148438 2.1875 -26.34375 2.25 -26.53125 C 2.320312 -26.71875 2.398438 -26.910156 2.484375 -27.109375 C 2.816406 -27.972656 3.175781 -28.847656 3.5625 -29.734375 C 3.957031 -30.617188 4.398438 -31.429688 4.890625 -32.171875 C 5.390625 -32.910156 5.945312 -33.5 6.5625 -33.9375 C 7.1875 -34.375 7.894531 -34.570312 8.6875 -34.53125 C 9.226562 -34.507812 9.664062 -34.3125 10 -33.9375 C 10.34375 -33.5625 10.59375 -33.082031 10.75 -32.5 C 10.914062 -31.914062 11 -31.273438 11 -30.578125 C 11.007812 -29.878906 10.945312 -29.175781 10.8125 -28.46875 C 10.675781 -27.769531 10.476562 -27.125 10.21875 -26.53125 C 9.957031 -25.9375 9.640625 -25.457031 9.265625 -25.09375 Z M 9.265625 -25.09375 "/></g></g></g><g fill="#ffffff" fill-opacity="1"><g transform="translate(201.01245, 63.49996)"><g><path d="M 15.640625 -27.5 C 15.660156 -27.5625 15.738281 -27.597656 15.875 -27.609375 C 16.019531 -27.628906 16.164062 -27.625 16.3125 -27.59375 C 16.457031 -27.570312 16.519531 -27.53125 16.5 -27.46875 C 16.3125 -25.832031 16.050781 -24.195312 15.71875 -22.5625 C 15.382812 -20.9375 14.9375 -19.347656 14.375 -17.796875 C 14.164062 -17.210938 13.929688 -16.613281 13.671875 -16 C 13.410156 -15.394531 13.09375 -14.859375 12.71875 -14.390625 C 12.351562 -13.921875 11.894531 -13.585938 11.34375 -13.390625 C 10.800781 -13.191406 10.140625 -13.195312 9.359375 -13.40625 C 8.722656 -13.582031 8.222656 -13.914062 7.859375 -14.40625 C 7.492188 -14.90625 7.222656 -15.492188 7.046875 -16.171875 C 6.867188 -16.847656 6.75 -17.539062 6.6875 -18.25 C 6.550781 -17.832031 6.40625 -17.414062 6.25 -17 C 6.101562 -16.59375 5.941406 -16.191406 5.765625 -15.796875 C 5.523438 -15.265625 5.238281 -14.757812 4.90625 -14.28125 C 4.582031 -13.8125 4.207031 -13.414062 3.78125 -13.09375 C 3.351562 -12.78125 2.875 -12.578125 2.34375 -12.484375 C 1.820312 -12.398438 1.238281 -12.484375 0.59375 -12.734375 C 0.03125 -12.953125 -0.414062 -13.28125 -0.75 -13.71875 C -1.09375 -14.15625 -1.351562 -14.644531 -1.53125 -15.1875 C -1.707031 -15.738281 -1.832031 -16.304688 -1.90625 -16.890625 C -1.976562 -17.484375 -2.023438 -18.039062 -2.046875 -18.5625 C -2.128906 -19.945312 -2.09375 -21.328125 -1.9375 -22.703125 C -1.78125 -24.078125 -1.519531 -25.4375 -1.15625 -26.78125 C -1 -27.351562 -0.816406 -27.96875 -0.609375 -28.625 C -0.410156 -29.28125 -0.175781 -29.929688 0.09375 -30.578125 C 0.375 -31.222656 0.695312 -31.820312 1.0625 -32.375 C 1.425781 -32.9375 1.851562 -33.414062 2.34375 -33.8125 C 2.71875 -34.113281 3.148438 -34.34375 3.640625 -34.5 C 4.140625 -34.664062 4.648438 -34.75 5.171875 -34.75 C 5.691406 -34.75 6.191406 -34.660156 6.671875 -34.484375 C 7.160156 -34.304688 7.570312 -34.03125 7.90625 -33.65625 C 7.9375 -33.625 7.960938 -33.59375 7.984375 -33.5625 C 8.015625 -33.53125 8.039062 -33.492188 8.0625 -33.453125 C 8.445312 -33.554688 8.835938 -33.59375 9.234375 -33.5625 C 9.640625 -33.539062 9.984375 -33.453125 10.265625 -33.296875 C 10.546875 -33.140625 10.671875 -32.921875 10.640625 -32.640625 C 10.515625 -30.828125 10.394531 -29 10.28125 -27.15625 C 10.175781 -25.3125 10.148438 -23.472656 10.203125 -21.640625 C 10.253906 -19.816406 10.453125 -18.007812 10.796875 -16.21875 C 10.816406 -16.082031 10.84375 -15.945312 10.875 -15.8125 C 10.90625 -15.675781 10.941406 -15.539062 10.984375 -15.40625 C 11.117188 -15.582031 11.25 -15.753906 11.375 -15.921875 C 11.5 -16.085938 11.613281 -16.253906 11.71875 -16.421875 C 12.082031 -16.960938 12.410156 -17.507812 12.703125 -18.0625 C 12.992188 -18.625 13.265625 -19.195312 13.515625 -19.78125 C 14.046875 -21.019531 14.484375 -22.28125 14.828125 -23.5625 C 15.179688 -24.84375 15.453125 -26.15625 15.640625 -27.5 Z M 5 -22.46875 C 5.351562 -23.695312 5.640625 -24.941406 5.859375 -26.203125 C 6.078125 -27.460938 6.289062 -28.722656 6.5 -29.984375 C 6.414062 -30.242188 6.300781 -30.5 6.15625 -30.75 C 6.019531 -30.96875 5.894531 -31.1875 5.78125 -31.40625 C 5.664062 -31.625 5.535156 -31.835938 5.390625 -32.046875 C 5.335938 -32.128906 5.28125 -32.207031 5.21875 -32.28125 C 5.164062 -32.363281 5.109375 -32.441406 5.046875 -32.515625 C 4.953125 -32.378906 4.863281 -32.238281 4.78125 -32.09375 C 4.695312 -31.945312 4.613281 -31.800781 4.53125 -31.65625 C 4.40625 -31.4375 4.28125 -31.207031 4.15625 -30.96875 C 4.039062 -30.726562 3.929688 -30.484375 3.828125 -30.234375 C 3.359375 -29.222656 2.96875 -28.1875 2.65625 -27.125 C 2.300781 -25.976562 2.035156 -24.800781 1.859375 -23.59375 C 1.691406 -22.394531 1.609375 -21.195312 1.609375 -20 C 1.609375 -19.46875 1.617188 -18.929688 1.640625 -18.390625 C 1.671875 -17.847656 1.726562 -17.3125 1.8125 -16.78125 C 1.84375 -16.625 1.890625 -16.375 1.953125 -16.03125 C 2.015625 -15.6875 2.109375 -15.359375 2.234375 -15.046875 C 2.460938 -15.367188 2.671875 -15.738281 2.859375 -16.15625 C 3.046875 -16.582031 3.210938 -16.988281 3.359375 -17.375 C 3.515625 -17.757812 3.625 -18.039062 3.6875 -18.21875 C 3.945312 -18.914062 4.179688 -19.617188 4.390625 -20.328125 C 4.597656 -21.035156 4.800781 -21.75 5 -22.46875 Z M 5 -22.46875 "/></g></g></g><g fill="#ffffff" fill-opacity="1"><g transform="translate(216.772633, 63.49996)"><g><path d="M 14.8125 -7.890625 C 14.914062 -7.921875 15.070312 -7.9375 15.28125 -7.9375 C 15.5 -7.9375 15.617188 -7.84375 15.640625 -7.65625 C 15.691406 -7.332031 15.625 -7.078125 15.4375 -6.890625 C 15.257812 -6.703125 15.023438 -6.5625 14.734375 -6.46875 C 14.453125 -6.382812 14.175781 -6.328125 13.90625 -6.296875 C 13.21875 -6.203125 12.539062 -6.265625 11.875 -6.484375 C 11.207031 -6.703125 10.648438 -7.082031 10.203125 -7.625 C 9.804688 -8.207031 9.488281 -8.960938 9.25 -9.890625 C 9.007812 -10.828125 8.851562 -11.988281 8.78125 -13.375 C 8.707031 -14.769531 8.726562 -16.4375 8.84375 -18.375 C 8.96875 -20.320312 9.1875 -22.585938 9.5 -25.171875 C 9.820312 -27.765625 10.25 -30.726562 10.78125 -34.0625 C 10.78125 -34.5625 10.773438 -35.0625 10.765625 -35.5625 C 10.765625 -36.0625 10.75 -36.550781 10.71875 -37.03125 C 10.707031 -37.070312 10.703125 -37.109375 10.703125 -37.140625 C 10.703125 -37.179688 10.703125 -37.222656 10.703125 -37.265625 C 10.492188 -36.898438 10.316406 -36.601562 10.171875 -36.375 C 9.890625 -35.925781 9.640625 -35.46875 9.421875 -35 C 9.210938 -34.53125 9.003906 -34.054688 8.796875 -33.578125 C 8.347656 -32.546875 7.953125 -31.488281 7.609375 -30.40625 C 7.273438 -29.332031 6.957031 -28.253906 6.65625 -27.171875 C 6.0625 -24.941406 5.476562 -22.691406 4.90625 -20.421875 C 4.332031 -18.160156 3.785156 -15.90625 3.265625 -13.65625 C 3.210938 -13.4375 3.070312 -13.265625 2.84375 -13.140625 C 2.625 -13.015625 2.367188 -12.941406 2.078125 -12.921875 C 1.796875 -12.898438 1.53125 -12.929688 1.28125 -13.015625 C 1.039062 -13.097656 0.867188 -13.234375 0.765625 -13.421875 C 0.253906 -14.347656 -0.113281 -15.335938 -0.34375 -16.390625 C -0.582031 -17.441406 -0.734375 -18.515625 -0.796875 -19.609375 C -0.867188 -20.703125 -0.910156 -21.757812 -0.921875 -22.78125 C -0.921875 -23.738281 -0.890625 -24.695312 -0.828125 -25.65625 C -0.773438 -26.625 -0.695312 -27.546875 -0.59375 -28.421875 C -0.488281 -29.304688 -0.367188 -30.09375 -0.234375 -30.78125 C -0.109375 -31.46875 0.0234375 -32.015625 0.171875 -32.421875 C 0.242188 -32.617188 0.425781 -32.785156 0.71875 -32.921875 C 1.007812 -33.066406 1.328125 -33.15625 1.671875 -33.1875 C 2.023438 -33.226562 2.328125 -33.1875 2.578125 -33.0625 C 2.835938 -32.945312 2.957031 -32.722656 2.9375 -32.390625 C 2.832031 -30.640625 2.773438 -28.984375 2.765625 -27.421875 C 2.753906 -25.859375 2.796875 -24.269531 2.890625 -22.65625 C 2.898438 -22.425781 2.910156 -22.191406 2.921875 -21.953125 C 2.941406 -21.722656 2.957031 -21.488281 2.96875 -21.25 C 3.3125 -22.71875 3.648438 -24.179688 3.984375 -25.640625 C 4.328125 -27.097656 4.71875 -28.539062 5.15625 -29.96875 C 5.570312 -31.269531 6.035156 -32.550781 6.546875 -33.8125 C 7.054688 -35.070312 7.582031 -36.328125 8.125 -37.578125 C 8.332031 -38.046875 8.578125 -38.507812 8.859375 -38.96875 C 9.140625 -39.4375 9.460938 -39.835938 9.828125 -40.171875 C 10.203125 -40.503906 10.625 -40.710938 11.09375 -40.796875 C 11.3125 -40.835938 11.578125 -40.800781 11.890625 -40.6875 C 12.203125 -40.582031 12.519531 -40.429688 12.84375 -40.234375 C 13.164062 -40.035156 13.445312 -39.832031 13.6875 -39.625 C 13.925781 -39.414062 14.078125 -39.234375 14.140625 -39.078125 C 14.359375 -38.523438 14.5 -37.898438 14.5625 -37.203125 C 14.632812 -36.515625 14.65625 -35.84375 14.625 -35.1875 C 14.601562 -34.539062 14.566406 -34 14.515625 -33.5625 C 14.410156 -32.644531 14.265625 -31.609375 14.078125 -30.453125 C 13.898438 -29.304688 13.707031 -28.082031 13.5 -26.78125 C 13.289062 -25.476562 13.09375 -24.148438 12.90625 -22.796875 C 12.726562 -21.441406 12.582031 -20.101562 12.46875 -18.78125 C 12.363281 -17.457031 12.3125 -16.195312 12.3125 -15 C 12.3125 -13.8125 12.390625 -12.726562 12.546875 -11.75 C 12.710938 -10.78125 12.976562 -9.957031 13.34375 -9.28125 C 13.707031 -8.613281 14.195312 -8.148438 14.8125 -7.890625 Z M 14.8125 -7.890625 "/></g></g></g><g fill="#ffffff" fill-opacity="1"><g transform="translate(233.567867, 63.49996)"><g><path d="M 4.296875 -37.15625 C 4.296875 -36.757812 4.035156 -36.425781 3.515625 -36.15625 C 3.003906 -35.882812 2.378906 -35.75 1.640625 -35.75 C 0.910156 -35.75 0.285156 -35.882812 -0.234375 -36.15625 C -0.753906 -36.425781 -1.015625 -36.757812 -1.015625 -37.15625 C -1.015625 -37.414062 -0.894531 -37.648438 -0.65625 -37.859375 C -0.414062 -38.066406 -0.09375 -38.234375 0.3125 -38.359375 C 0.71875 -38.492188 1.160156 -38.5625 1.640625 -38.5625 C 2.378906 -38.5625 3.003906 -38.421875 3.515625 -38.140625 C 4.035156 -37.859375 4.296875 -37.53125 4.296875 -37.15625 Z M 7.4375 -23.5 C 7.644531 -23.757812 7.851562 -23.894531 8.0625 -23.90625 C 8.269531 -23.914062 8.382812 -23.8125 8.40625 -23.59375 C 8.4375 -23.382812 8.28125 -23.0625 7.9375 -22.625 C 7.59375 -22.207031 7.1875 -21.726562 6.71875 -21.1875 C 6.257812 -20.644531 5.800781 -20.097656 5.34375 -19.546875 C 4.894531 -19.003906 4.5 -18.523438 4.15625 -18.109375 C 4.019531 -17.910156 3.875 -17.710938 3.71875 -17.515625 C 3.5625 -17.328125 3.40625 -17.132812 3.25 -16.9375 C 3.25 -15.625 3.25 -14.304688 3.25 -12.984375 C 3.25 -11.671875 3.253906 -10.359375 3.265625 -9.046875 C 3.265625 -7.421875 3.257812 -5.789062 3.25 -4.15625 C 3.25 -2.53125 3.160156 -0.90625 2.984375 0.71875 C 2.910156 1.539062 2.800781 2.394531 2.65625 3.28125 C 2.507812 4.175781 2.273438 5.035156 1.953125 5.859375 C 1.640625 6.679688 1.164062 7.390625 0.53125 7.984375 C -0.144531 8.628906 -0.894531 9.0625 -1.71875 9.28125 C -2.550781 9.5 -3.382812 9.535156 -4.21875 9.390625 C -5.050781 9.253906 -5.835938 8.960938 -6.578125 8.515625 C -7.328125 8.078125 -7.96875 7.519531 -8.5 6.84375 C -9.03125 6.164062 -9.398438 5.394531 -9.609375 4.53125 C -9.910156 3.257812 -9.90625 1.988281 -9.59375 0.71875 C -9.28125 -0.550781 -8.816406 -1.75 -8.203125 -2.875 C -7.453125 -4.25 -6.628906 -5.585938 -5.734375 -6.890625 C -4.835938 -8.191406 -3.914062 -9.460938 -2.96875 -10.703125 C -2.550781 -11.222656 -2.132812 -11.738281 -1.71875 -12.25 C -1.3125 -12.769531 -0.898438 -13.289062 -0.484375 -13.8125 C -0.484375 -13.976562 -0.484375 -14.144531 -0.484375 -14.3125 C -0.484375 -14.488281 -0.484375 -14.660156 -0.484375 -14.828125 C -0.503906 -17.554688 -0.546875 -20.304688 -0.609375 -23.078125 C -0.671875 -25.847656 -0.617188 -28.597656 -0.453125 -31.328125 C -0.679688 -31.390625 -0.898438 -31.484375 -1.109375 -31.609375 C -1.316406 -31.734375 -1.445312 -31.898438 -1.5 -32.109375 C -1.550781 -32.328125 -1.5 -32.507812 -1.34375 -32.65625 C -1.1875 -32.800781 -0.988281 -32.910156 -0.75 -32.984375 C -0.519531 -33.066406 -0.328125 -33.109375 -0.171875 -33.109375 C 0.304688 -33.128906 0.785156 -33.15625 1.265625 -33.1875 C 1.753906 -33.226562 2.238281 -33.257812 2.71875 -33.28125 C 2.894531 -33.289062 3.128906 -33.265625 3.421875 -33.203125 C 3.722656 -33.140625 3.988281 -33.03125 4.21875 -32.875 C 4.457031 -32.726562 4.566406 -32.523438 4.546875 -32.265625 C 4.546875 -31.953125 4.382812 -31.734375 4.0625 -31.609375 C 3.75 -31.484375 3.441406 -31.410156 3.140625 -31.390625 C 3.265625 -29.523438 3.304688 -27.648438 3.265625 -25.765625 C 3.234375 -23.878906 3.226562 -22.003906 3.25 -20.140625 C 3.25 -19.847656 3.25 -19.550781 3.25 -19.25 C 3.25 -18.945312 3.25 -18.644531 3.25 -18.34375 C 3.695312 -18.882812 4.140625 -19.425781 4.578125 -19.96875 C 5.023438 -20.519531 5.472656 -21.070312 5.921875 -21.625 C 6.179688 -21.9375 6.4375 -22.25 6.6875 -22.5625 C 6.945312 -22.875 7.195312 -23.1875 7.4375 -23.5 Z M -0.84375 1.71875 C -0.550781 -0.570312 -0.410156 -2.882812 -0.421875 -5.21875 C -0.429688 -7.550781 -0.445312 -9.875 -0.46875 -12.1875 C -0.632812 -11.957031 -0.804688 -11.722656 -0.984375 -11.484375 C -1.160156 -11.253906 -1.34375 -11.019531 -1.53125 -10.78125 C -2.070312 -10.03125 -2.664062 -9.242188 -3.3125 -8.421875 C -3.957031 -7.609375 -4.59375 -6.753906 -5.21875 -5.859375 C -5.851562 -4.972656 -6.421875 -4.046875 -6.921875 -3.078125 C -7.421875 -2.117188 -7.800781 -1.117188 -8.0625 -0.078125 C -8.320312 0.960938 -8.410156 2.046875 -8.328125 3.171875 C -8.273438 3.765625 -8.128906 4.367188 -7.890625 4.984375 C -7.660156 5.609375 -7.34375 6.160156 -6.9375 6.640625 C -6.53125 7.117188 -6.050781 7.457031 -5.5 7.65625 C -4.945312 7.863281 -4.332031 7.851562 -3.65625 7.625 C -3.09375 7.425781 -2.640625 7.101562 -2.296875 6.65625 C -1.953125 6.21875 -1.6875 5.707031 -1.5 5.125 C -1.3125 4.550781 -1.171875 3.960938 -1.078125 3.359375 C -0.984375 2.765625 -0.90625 2.21875 -0.84375 1.71875 Z M -0.84375 1.71875 "/></g></g></g><g fill="#ffffff" fill-opacity="1"><g transform="translate(241.262416, 63.49996)"><g><path d="M 15.640625 -27.5 C 15.660156 -27.5625 15.738281 -27.597656 15.875 -27.609375 C 16.019531 -27.628906 16.164062 -27.625 16.3125 -27.59375 C 16.457031 -27.570312 16.519531 -27.53125 16.5 -27.46875 C 16.3125 -25.832031 16.050781 -24.195312 15.71875 -22.5625 C 15.382812 -20.9375 14.9375 -19.347656 14.375 -17.796875 C 14.164062 -17.210938 13.929688 -16.613281 13.671875 -16 C 13.410156 -15.394531 13.09375 -14.859375 12.71875 -14.390625 C 12.351562 -13.921875 11.894531 -13.585938 11.34375 -13.390625 C 10.800781 -13.191406 10.140625 -13.195312 9.359375 -13.40625 C 8.722656 -13.582031 8.222656 -13.914062 7.859375 -14.40625 C 7.492188 -14.90625 7.222656 -15.492188 7.046875 -16.171875 C 6.867188 -16.847656 6.75 -17.539062 6.6875 -18.25 C 6.550781 -17.832031 6.40625 -17.414062 6.25 -17 C 6.101562 -16.59375 5.941406 -16.191406 5.765625 -15.796875 C 5.523438 -15.265625 5.238281 -14.757812 4.90625 -14.28125 C 4.582031 -13.8125 4.207031 -13.414062 3.78125 -13.09375 C 3.351562 -12.78125 2.875 -12.578125 2.34375 -12.484375 C 1.820312 -12.398438 1.238281 -12.484375 0.59375 -12.734375 C 0.03125 -12.953125 -0.414062 -13.28125 -0.75 -13.71875 C -1.09375 -14.15625 -1.351562 -14.644531 -1.53125 -15.1875 C -1.707031 -15.738281 -1.832031 -16.304688 -1.90625 -16.890625 C -1.976562 -17.484375 -2.023438 -18.039062 -2.046875 -18.5625 C -2.128906 -19.945312 -2.09375 -21.328125 -1.9375 -22.703125 C -1.78125 -24.078125 -1.519531 -25.4375 -1.15625 -26.78125 C -1 -27.351562 -0.816406 -27.96875 -0.609375 -28.625 C -0.410156 -29.28125 -0.175781 -29.929688 0.09375 -30.578125 C 0.375 -31.222656 0.695312 -31.820312 1.0625 -32.375 C 1.425781 -32.9375 1.851562 -33.414062 2.34375 -33.8125 C 2.71875 -34.113281 3.148438 -34.34375 3.640625 -34.5 C 4.140625 -34.664062 4.648438 -34.75 5.171875 -34.75 C 5.691406 -34.75 6.191406 -34.660156 6.671875 -34.484375 C 7.160156 -34.304688 7.570312 -34.03125 7.90625 -33.65625 C 7.9375 -33.625 7.960938 -33.59375 7.984375 -33.5625 C 8.015625 -33.53125 8.039062 -33.492188 8.0625 -33.453125 C 8.445312 -33.554688 8.835938 -33.59375 9.234375 -33.5625 C 9.640625 -33.539062 9.984375 -33.453125 10.265625 -33.296875 C 10.546875 -33.140625 10.671875 -32.921875 10.640625 -32.640625 C 10.515625 -30.828125 10.394531 -29 10.28125 -27.15625 C 10.175781 -25.3125 10.148438 -23.472656 10.203125 -21.640625 C 10.253906 -19.816406 10.453125 -18.007812 10.796875 -16.21875 C 10.816406 -16.082031 10.84375 -15.945312 10.875 -15.8125 C 10.90625 -15.675781 10.941406 -15.539062 10.984375 -15.40625 C 11.117188 -15.582031 11.25 -15.753906 11.375 -15.921875 C 11.5 -16.085938 11.613281 -16.253906 11.71875 -16.421875 C 12.082031 -16.960938 12.410156 -17.507812 12.703125 -18.0625 C 12.992188 -18.625 13.265625 -19.195312 13.515625 -19.78125 C 14.046875 -21.019531 14.484375 -22.28125 14.828125 -23.5625 C 15.179688 -24.84375 15.453125 -26.15625 15.640625 -27.5 Z M 5 -22.46875 C 5.351562 -23.695312 5.640625 -24.941406 5.859375 -26.203125 C 6.078125 -27.460938 6.289062 -28.722656 6.5 -29.984375 C 6.414062 -30.242188 6.300781 -30.5 6.15625 -30.75 C 6.019531 -30.96875 5.894531 -31.1875 5.78125 -31.40625 C 5.664062 -31.625 5.535156 -31.835938 5.390625 -32.046875 C 5.335938 -32.128906 5.28125 -32.207031 5.21875 -32.28125 C 5.164062 -32.363281 5.109375 -32.441406 5.046875 -32.515625 C 4.953125 -32.378906 4.863281 -32.238281 4.78125 -32.09375 C 4.695312 -31.945312 4.613281 -31.800781 4.53125 -31.65625 C 4.40625 -31.4375 4.28125 -31.207031 4.15625 -30.96875 C 4.039062 -30.726562 3.929688 -30.484375 3.828125 -30.234375 C 3.359375 -29.222656 2.96875 -28.1875 2.65625 -27.125 C 2.300781 -25.976562 2.035156 -24.800781 1.859375 -23.59375 C 1.691406 -22.394531 1.609375 -21.195312 1.609375 -20 C 1.609375 -19.46875 1.617188 -18.929688 1.640625 -18.390625 C 1.671875 -17.847656 1.726562 -17.3125 1.8125 -16.78125 C 1.84375 -16.625 1.890625 -16.375 1.953125 -16.03125 C 2.015625 -15.6875 2.109375 -15.359375 2.234375 -15.046875 C 2.460938 -15.367188 2.671875 -15.738281 2.859375 -16.15625 C 3.046875 -16.582031 3.210938 -16.988281 3.359375 -17.375 C 3.515625 -17.757812 3.625 -18.039062 3.6875 -18.21875 C 3.945312 -18.914062 4.179688 -19.617188 4.390625 -20.328125 C 4.597656 -21.035156 4.800781 -21.75 5 -22.46875 Z M 5 -22.46875 "/></g></g></g></svg>