<svg xmlns="http://www.w3.org/2000/svg" xmlns:xlink="http://www.w3.org/1999/xlink" width="1000" zoomAndPan="magnify" viewBox="0 0 750 74.999997" height="100" preserveAspectRatio="xMidYMid meet" version="1.0"><defs><g/></defs><g fill="#ffffff" fill-opacity="1"><g transform="translate(10.710952, 69.749993)"><g><path d="M 1.765625 -37.078125 C 0.953125 -37.109375 0.269531 -37.34375 -0.28125 -37.78125 C -0.832031 -38.21875 -1.273438 -38.789062 -1.609375 -39.5 C -1.941406 -40.207031 -2.1875 -40.988281 -2.34375 -41.84375 C -2.5 -42.695312 -2.582031 -43.5625 -2.59375 -44.4375 C -2.613281 -45.320312 -2.578125 -46.148438 -2.484375 -46.921875 C -2.316406 -48.390625 -1.972656 -49.8125 -1.453125 -51.1875 C -0.929688 -52.570312 -0.207031 -53.859375 0.71875 -55.046875 C 1.53125 -56.066406 2.476562 -56.882812 3.5625 -57.5 C 4.65625 -58.125 5.796875 -58.503906 6.984375 -58.640625 C 8.171875 -58.773438 9.34375 -58.644531 10.5 -58.25 C 11.65625 -57.851562 12.703125 -57.148438 13.640625 -56.140625 C 14.296875 -55.429688 14.832031 -54.65625 15.25 -53.8125 C 15.664062 -52.976562 16 -52.101562 16.25 -51.1875 C 16.507812 -50.28125 16.722656 -49.363281 16.890625 -48.4375 C 17.191406 -46.757812 17.441406 -45.066406 17.640625 -43.359375 C 17.847656 -41.648438 18.003906 -39.945312 18.109375 -38.25 C 18.128906 -37.644531 18.148438 -37.035156 18.171875 -36.421875 C 18.203125 -35.816406 18.226562 -35.207031 18.25 -34.59375 C 19.320312 -36.039062 20.394531 -37.484375 21.46875 -38.921875 C 22.550781 -40.367188 23.601562 -41.828125 24.625 -43.296875 C 25.238281 -44.179688 25.84375 -45.078125 26.4375 -45.984375 C 27.03125 -46.898438 27.585938 -47.835938 28.109375 -48.796875 C 28.203125 -50.054688 28.34375 -51.304688 28.53125 -52.546875 C 28.71875 -53.796875 29.003906 -55 29.390625 -56.15625 C 29.785156 -57.320312 30.320312 -58.421875 31 -59.453125 C 31.113281 -59.640625 31.320312 -59.785156 31.625 -59.890625 C 31.9375 -60.003906 32.273438 -60.078125 32.640625 -60.109375 C 33.003906 -60.140625 33.34375 -60.125 33.65625 -60.0625 C 33.976562 -60 34.21875 -59.878906 34.375 -59.703125 C 34.539062 -59.535156 34.566406 -59.3125 34.453125 -59.03125 C 34.148438 -58.25 33.84375 -57.46875 33.53125 -56.6875 C 33.21875 -55.914062 32.898438 -55.144531 32.578125 -54.375 C 32.328125 -53.289062 32.144531 -52.1875 32.03125 -51.0625 C 31.914062 -49.9375 31.832031 -48.8125 31.78125 -47.6875 C 31.726562 -46.5625 31.671875 -45.460938 31.609375 -44.390625 C 31.421875 -41.722656 31.269531 -39.054688 31.15625 -36.390625 C 31.050781 -33.722656 30.976562 -31.046875 30.9375 -28.359375 C 30.894531 -25.679688 30.890625 -23 30.921875 -20.3125 C 30.960938 -17.632812 31.035156 -14.953125 31.140625 -12.265625 C 31.160156 -11.472656 31.1875 -10.664062 31.21875 -9.84375 C 31.25 -9.019531 31.328125 -8.203125 31.453125 -7.390625 C 31.585938 -6.585938 31.804688 -5.8125 32.109375 -5.0625 C 32.253906 -4.707031 32.46875 -4.300781 32.75 -3.84375 C 33.03125 -3.394531 33.359375 -2.96875 33.734375 -2.5625 C 34.109375 -2.164062 34.515625 -1.867188 34.953125 -1.671875 C 35.398438 -1.472656 35.859375 -1.453125 36.328125 -1.609375 C 36.546875 -1.679688 36.820312 -1.726562 37.15625 -1.75 C 37.488281 -1.78125 37.816406 -1.765625 38.140625 -1.703125 C 38.472656 -1.640625 38.722656 -1.507812 38.890625 -1.3125 C 39.148438 -1 39.1875 -0.722656 39 -0.484375 C 38.8125 -0.253906 38.5625 -0.078125 38.25 0.046875 C 37.101562 0.429688 35.984375 0.550781 34.890625 0.40625 C 33.796875 0.269531 32.785156 -0.0859375 31.859375 -0.671875 C 30.941406 -1.253906 30.15625 -2 29.5 -2.90625 C 28.84375 -3.8125 28.363281 -4.820312 28.0625 -5.9375 C 27.695312 -7.34375 27.492188 -8.785156 27.453125 -10.265625 C 27.410156 -11.753906 27.367188 -13.222656 27.328125 -14.671875 C 27.273438 -16.222656 27.238281 -17.769531 27.21875 -19.3125 C 27.195312 -20.863281 27.1875 -22.410156 27.1875 -23.953125 C 27.1875 -27.140625 27.238281 -30.332031 27.34375 -33.53125 C 27.445312 -36.726562 27.597656 -39.921875 27.796875 -43.109375 C 27.835938 -43.773438 27.875 -44.457031 27.90625 -45.15625 C 27.800781 -45.007812 27.71875 -44.878906 27.65625 -44.765625 C 26.195312 -42.523438 24.660156 -40.335938 23.046875 -38.203125 C 21.429688 -36.066406 19.875 -33.894531 18.375 -31.6875 C 18.351562 -31.65625 18.332031 -31.617188 18.3125 -31.578125 C 18.289062 -31.546875 18.269531 -31.515625 18.25 -31.484375 C 18.207031 -29.234375 18.082031 -26.984375 17.875 -24.734375 C 17.664062 -22.492188 17.363281 -20.265625 16.96875 -18.046875 C 16.726562 -16.671875 16.425781 -15.296875 16.0625 -13.921875 C 15.695312 -12.546875 15.234375 -11.207031 14.671875 -9.90625 C 14.328125 -9.125 13.929688 -8.316406 13.484375 -7.484375 C 13.035156 -6.648438 12.519531 -5.867188 11.9375 -5.140625 C 11.351562 -4.410156 10.679688 -3.8125 9.921875 -3.34375 C 9.484375 -3.050781 8.972656 -2.8125 8.390625 -2.625 C 7.804688 -2.445312 7.210938 -2.34375 6.609375 -2.3125 C 6.003906 -2.289062 5.429688 -2.378906 4.890625 -2.578125 C 4.347656 -2.773438 3.890625 -3.109375 3.515625 -3.578125 C 3.097656 -4.109375 2.84375 -4.75 2.75 -5.5 C 2.664062 -6.25 2.703125 -7.066406 2.859375 -7.953125 C 3.023438 -8.835938 3.273438 -9.75 3.609375 -10.6875 C 3.941406 -11.632812 4.320312 -12.566406 4.75 -13.484375 C 5.175781 -14.398438 5.609375 -15.269531 6.046875 -16.09375 C 6.484375 -16.914062 6.890625 -17.648438 7.265625 -18.296875 C 7.640625 -18.941406 7.945312 -19.453125 8.1875 -19.828125 C 9.894531 -22.660156 11.691406 -25.429688 13.578125 -28.140625 C 13.722656 -28.367188 13.875 -28.585938 14.03125 -28.796875 C 14.1875 -29.015625 14.332031 -29.226562 14.46875 -29.4375 C 14.488281 -29.769531 14.5 -30.113281 14.5 -30.46875 C 14.507812 -30.820312 14.519531 -31.164062 14.53125 -31.5 C 14.570312 -34.28125 14.484375 -37.054688 14.265625 -39.828125 C 14.054688 -42.609375 13.71875 -45.367188 13.25 -48.109375 C 13.101562 -48.929688 12.925781 -49.757812 12.71875 -50.59375 C 12.519531 -51.425781 12.242188 -52.226562 11.890625 -53 C 11.546875 -53.769531 11.085938 -54.476562 10.515625 -55.125 C 9.660156 -56.0625 8.722656 -56.628906 7.703125 -56.828125 C 6.679688 -57.023438 5.648438 -56.71875 4.609375 -55.90625 C 3.671875 -55.15625 2.859375 -54.269531 2.171875 -53.25 C 1.484375 -52.226562 0.925781 -51.132812 0.5 -49.96875 C 0.0820312 -48.800781 -0.1875 -47.617188 -0.3125 -46.421875 C -0.414062 -45.472656 -0.457031 -44.535156 -0.4375 -43.609375 C -0.414062 -42.691406 -0.320312 -41.851562 -0.15625 -41.09375 C 0 -40.34375 0.234375 -39.734375 0.546875 -39.265625 C 0.867188 -38.796875 1.265625 -38.546875 1.734375 -38.515625 C 2.148438 -38.492188 2.507812 -38.640625 2.8125 -38.953125 C 3.113281 -39.265625 3.363281 -39.691406 3.5625 -40.234375 C 3.769531 -40.785156 3.929688 -41.390625 4.046875 -42.046875 C 4.171875 -42.710938 4.269531 -43.390625 4.34375 -44.078125 C 4.425781 -44.773438 4.492188 -45.421875 4.546875 -46.015625 C 4.597656 -46.617188 4.648438 -47.117188 4.703125 -47.515625 C 4.742188 -47.765625 4.878906 -47.941406 5.109375 -48.046875 C 5.347656 -48.148438 5.609375 -48.191406 5.890625 -48.171875 C 6.179688 -48.148438 6.429688 -48.070312 6.640625 -47.9375 C 6.859375 -47.8125 6.96875 -47.632812 6.96875 -47.40625 C 6.957031 -46.5625 6.894531 -45.660156 6.78125 -44.703125 C 6.664062 -43.742188 6.484375 -42.804688 6.234375 -41.890625 C 5.984375 -40.972656 5.65625 -40.144531 5.25 -39.40625 C 4.851562 -38.664062 4.367188 -38.082031 3.796875 -37.65625 C 3.222656 -37.226562 2.546875 -37.035156 1.765625 -37.078125 Z M 12.859375 -15.953125 C 13.191406 -17.429688 13.460938 -18.925781 13.671875 -20.4375 C 13.890625 -21.945312 14.066406 -23.457031 14.203125 -24.96875 C 13.585938 -23.894531 12.988281 -22.8125 12.40625 -21.71875 C 11.820312 -20.632812 11.242188 -19.546875 10.671875 -18.453125 C 10.109375 -17.378906 9.566406 -16.289062 9.046875 -15.1875 C 8.523438 -14.082031 8.054688 -12.957031 7.640625 -11.8125 C 7.421875 -11.175781 7.21875 -10.539062 7.03125 -9.90625 C 6.851562 -9.269531 6.71875 -8.617188 6.625 -7.953125 C 6.59375 -7.742188 6.5625 -7.472656 6.53125 -7.140625 C 6.5 -6.816406 6.476562 -6.476562 6.46875 -6.125 C 6.457031 -5.769531 6.484375 -5.4375 6.546875 -5.125 C 6.609375 -4.8125 6.722656 -4.554688 6.890625 -4.359375 C 6.921875 -4.367188 6.953125 -4.382812 6.984375 -4.40625 C 7.015625 -4.4375 7.054688 -4.476562 7.109375 -4.53125 C 7.191406 -4.613281 7.285156 -4.6875 7.390625 -4.75 C 7.503906 -4.820312 7.609375 -4.898438 7.703125 -4.984375 C 7.921875 -5.191406 8.128906 -5.414062 8.328125 -5.65625 C 8.535156 -5.894531 8.722656 -6.140625 8.890625 -6.390625 C 9.210938 -6.828125 9.507812 -7.28125 9.78125 -7.75 C 10.0625 -8.21875 10.320312 -8.695312 10.5625 -9.1875 C 11.101562 -10.257812 11.554688 -11.363281 11.921875 -12.5 C 12.296875 -13.644531 12.609375 -14.796875 12.859375 -15.953125 Z M 12.859375 -15.953125 "/></g></g></g><g fill="#ffffff" fill-opacity="1"><g transform="translate(46.137176, 69.749993)"><g><path d="M 16.9375 -24.921875 C 16.945312 -24.960938 17.003906 -24.988281 17.109375 -25 C 17.210938 -25.007812 17.316406 -25.007812 17.421875 -25 C 17.535156 -25 17.59375 -24.976562 17.59375 -24.9375 C 17.664062 -23.582031 17.597656 -22.25 17.390625 -20.9375 C 17.179688 -19.632812 16.890625 -18.34375 16.515625 -17.0625 C 16.140625 -15.78125 15.738281 -14.488281 15.3125 -13.1875 C 15.113281 -12.582031 14.859375 -12.015625 14.546875 -11.484375 C 14.234375 -10.960938 13.859375 -10.535156 13.421875 -10.203125 C 12.992188 -9.867188 12.507812 -9.6875 11.96875 -9.65625 C 11.425781 -9.625 10.828125 -9.804688 10.171875 -10.203125 C 9.734375 -10.472656 9.394531 -10.828125 9.15625 -11.265625 C 8.925781 -11.703125 8.75 -12.171875 8.625 -12.671875 C 8.507812 -13.171875 8.410156 -13.65625 8.328125 -14.125 C 8.140625 -15.125 8.019531 -16.128906 7.96875 -17.140625 C 7.925781 -18.160156 7.921875 -19.179688 7.953125 -20.203125 C 7.960938 -20.523438 7.976562 -20.84375 8 -21.15625 C 8.019531 -21.476562 8.035156 -21.796875 8.046875 -22.109375 C 7.765625 -21.203125 7.503906 -20.3125 7.265625 -19.4375 C 7.035156 -18.5625 6.789062 -17.757812 6.53125 -17.03125 C 6.28125 -16.300781 5.972656 -15.6875 5.609375 -15.1875 C 5.253906 -14.6875 4.796875 -14.34375 4.234375 -14.15625 C 3.472656 -13.914062 2.804688 -13.878906 2.234375 -14.046875 C 1.660156 -14.222656 1.164062 -14.550781 0.75 -15.03125 C 0.34375 -15.507812 0.00390625 -16.070312 -0.265625 -16.71875 C -0.535156 -17.375 -0.75 -18.050781 -0.90625 -18.75 C -1.0625 -19.457031 -1.171875 -20.113281 -1.234375 -20.71875 C -1.347656 -21.75 -1.414062 -22.785156 -1.4375 -23.828125 C -1.46875 -24.878906 -1.476562 -25.921875 -1.46875 -26.953125 C -1.46875 -27.535156 -1.457031 -28.144531 -1.4375 -28.78125 C -1.425781 -29.414062 -1.398438 -30.023438 -1.359375 -30.609375 C -1.328125 -31.191406 -1.257812 -31.710938 -1.15625 -32.171875 C -1.050781 -32.628906 -0.898438 -32.972656 -0.703125 -33.203125 C -0.554688 -33.367188 -0.335938 -33.519531 -0.046875 -33.65625 C 0.242188 -33.800781 0.554688 -33.882812 0.890625 -33.90625 C 1.222656 -33.9375 1.503906 -33.882812 1.734375 -33.75 C 1.972656 -33.625 2.09375 -33.382812 2.09375 -33.03125 C 2.101562 -32.757812 2.109375 -32.359375 2.109375 -31.828125 C 2.109375 -31.296875 2.109375 -30.695312 2.109375 -30.03125 C 2.109375 -29.363281 2.109375 -28.671875 2.109375 -27.953125 C 2.117188 -27.234375 2.128906 -26.539062 2.140625 -25.875 C 2.148438 -25.21875 2.160156 -24.625 2.171875 -24.09375 C 2.179688 -23.5625 2.191406 -23.160156 2.203125 -22.890625 C 2.242188 -22.148438 2.3125 -21.40625 2.40625 -20.65625 C 2.5 -19.914062 2.628906 -19.179688 2.796875 -18.453125 C 2.796875 -18.453125 2.8125 -18.351562 2.84375 -18.15625 C 2.882812 -17.96875 2.953125 -17.734375 3.046875 -17.453125 C 3.140625 -17.179688 3.253906 -16.914062 3.390625 -16.65625 C 3.535156 -16.394531 3.707031 -16.195312 3.90625 -16.0625 C 4.113281 -15.9375 4.351562 -15.921875 4.625 -16.015625 C 4.8125 -16.078125 5.015625 -16.351562 5.234375 -16.84375 C 5.453125 -17.332031 5.679688 -17.972656 5.921875 -18.765625 C 6.171875 -19.566406 6.414062 -20.445312 6.65625 -21.40625 C 6.894531 -22.375 7.125 -23.375 7.34375 -24.40625 C 7.5625 -25.4375 7.753906 -26.4375 7.921875 -27.40625 C 8.097656 -28.382812 8.238281 -29.273438 8.34375 -30.078125 C 8.445312 -30.890625 8.5 -31.539062 8.5 -32.03125 C 8.5 -32.125 8.5 -32.207031 8.5 -32.28125 C 8.5 -32.363281 8.492188 -32.453125 8.484375 -32.546875 C 8.453125 -32.785156 8.550781 -33.003906 8.78125 -33.203125 C 9.007812 -33.398438 9.296875 -33.550781 9.640625 -33.65625 C 9.992188 -33.769531 10.347656 -33.832031 10.703125 -33.84375 C 11.066406 -33.863281 11.375 -33.816406 11.625 -33.703125 C 11.882812 -33.585938 12.019531 -33.398438 12.03125 -33.140625 C 12.113281 -31.609375 12.101562 -30.046875 12 -28.453125 C 11.90625 -26.867188 11.800781 -25.269531 11.6875 -23.65625 C 11.582031 -22.050781 11.53125 -20.453125 11.53125 -18.859375 C 11.539062 -17.273438 11.675781 -15.722656 11.9375 -14.203125 C 12 -13.859375 12.0625 -13.515625 12.125 -13.171875 C 12.195312 -12.828125 12.296875 -12.5 12.421875 -12.1875 C 12.515625 -11.9375 12.644531 -11.691406 12.8125 -11.453125 C 12.820312 -11.429688 12.828125 -11.414062 12.828125 -11.40625 C 13.242188 -12.03125 13.585938 -12.648438 13.859375 -13.265625 C 14.140625 -13.890625 14.394531 -14.5625 14.625 -15.28125 C 15.132812 -16.84375 15.601562 -18.429688 16.03125 -20.046875 C 16.46875 -21.671875 16.769531 -23.296875 16.9375 -24.921875 Z M 16.9375 -24.921875 "/></g></g></g><g fill="#ffffff" fill-opacity="1"><g transform="translate(63.049586, 69.749993)"><g><path d="M 15.640625 -27.5 C 15.660156 -27.5625 15.738281 -27.597656 15.875 -27.609375 C 16.019531 -27.628906 16.164062 -27.625 16.3125 -27.59375 C 16.457031 -27.570312 16.519531 -27.53125 16.5 -27.46875 C 16.3125 -25.832031 16.050781 -24.195312 15.71875 -22.5625 C 15.382812 -20.9375 14.9375 -19.347656 14.375 -17.796875 C 14.164062 -17.210938 13.929688 -16.613281 13.671875 -16 C 13.410156 -15.394531 13.09375 -14.859375 12.71875 -14.390625 C 12.351562 -13.921875 11.894531 -13.585938 11.34375 -13.390625 C 10.800781 -13.191406 10.140625 -13.195312 9.359375 -13.40625 C 8.722656 -13.582031 8.222656 -13.914062 7.859375 -14.40625 C 7.492188 -14.90625 7.222656 -15.492188 7.046875 -16.171875 C 6.867188 -16.847656 6.75 -17.539062 6.6875 -18.25 C 6.550781 -17.832031 6.40625 -17.414062 6.25 -17 C 6.101562 -16.59375 5.941406 -16.191406 5.765625 -15.796875 C 5.523438 -15.265625 5.238281 -14.757812 4.90625 -14.28125 C 4.582031 -13.8125 4.207031 -13.414062 3.78125 -13.09375 C 3.351562 -12.78125 2.875 -12.578125 2.34375 -12.484375 C 1.820312 -12.398438 1.238281 -12.484375 0.59375 -12.734375 C 0.03125 -12.953125 -0.414062 -13.28125 -0.75 -13.71875 C -1.09375 -14.15625 -1.351562 -14.644531 -1.53125 -15.1875 C -1.707031 -15.738281 -1.832031 -16.304688 -1.90625 -16.890625 C -1.976562 -17.484375 -2.023438 -18.039062 -2.046875 -18.5625 C -2.128906 -19.945312 -2.09375 -21.328125 -1.9375 -22.703125 C -1.78125 -24.078125 -1.519531 -25.4375 -1.15625 -26.78125 C -1 -27.351562 -0.816406 -27.96875 -0.609375 -28.625 C -0.410156 -29.28125 -0.175781 -29.929688 0.09375 -30.578125 C 0.375 -31.222656 0.695312 -31.820312 1.0625 -32.375 C 1.425781 -32.9375 1.851562 -33.414062 2.34375 -33.8125 C 2.71875 -34.113281 3.148438 -34.34375 3.640625 -34.5 C 4.140625 -34.664062 4.648438 -34.75 5.171875 -34.75 C 5.691406 -34.75 6.191406 -34.660156 6.671875 -34.484375 C 7.160156 -34.304688 7.570312 -34.03125 7.90625 -33.65625 C 7.9375 -33.625 7.960938 -33.59375 7.984375 -33.5625 C 8.015625 -33.53125 8.039062 -33.492188 8.0625 -33.453125 C 8.445312 -33.554688 8.835938 -33.59375 9.234375 -33.5625 C 9.640625 -33.539062 9.984375 -33.453125 10.265625 -33.296875 C 10.546875 -33.140625 10.671875 -32.921875 10.640625 -32.640625 C 10.515625 -30.828125 10.394531 -29 10.28125 -27.15625 C 10.175781 -25.3125 10.148438 -23.472656 10.203125 -21.640625 C 10.253906 -19.816406 10.453125 -18.007812 10.796875 -16.21875 C 10.816406 -16.082031 10.84375 -15.945312 10.875 -15.8125 C 10.90625 -15.675781 10.941406 -15.539062 10.984375 -15.40625 C 11.117188 -15.582031 11.25 -15.753906 11.375 -15.921875 C 11.5 -16.085938 11.613281 -16.253906 11.71875 -16.421875 C 12.082031 -16.960938 12.410156 -17.507812 12.703125 -18.0625 C 12.992188 -18.625 13.265625 -19.195312 13.515625 -19.78125 C 14.046875 -21.019531 14.484375 -22.28125 14.828125 -23.5625 C 15.179688 -24.84375 15.453125 -26.15625 15.640625 -27.5 Z M 5 -22.46875 C 5.351562 -23.695312 5.640625 -24.941406 5.859375 -26.203125 C 6.078125 -27.460938 6.289062 -28.722656 6.5 -29.984375 C 6.414062 -30.242188 6.300781 -30.5 6.15625 -30.75 C 6.019531 -30.96875 5.894531 -31.1875 5.78125 -31.40625 C 5.664062 -31.625 5.535156 -31.835938 5.390625 -32.046875 C 5.335938 -32.128906 5.28125 -32.207031 5.21875 -32.28125 C 5.164062 -32.363281 5.109375 -32.441406 5.046875 -32.515625 C 4.953125 -32.378906 4.863281 -32.238281 4.78125 -32.09375 C 4.695312 -31.945312 4.613281 -31.800781 4.53125 -31.65625 C 4.40625 -31.4375 4.28125 -31.207031 4.15625 -30.96875 C 4.039062 -30.726562 3.929688 -30.484375 3.828125 -30.234375 C 3.359375 -29.222656 2.96875 -28.1875 2.65625 -27.125 C 2.300781 -25.976562 2.035156 -24.800781 1.859375 -23.59375 C 1.691406 -22.394531 1.609375 -21.195312 1.609375 -20 C 1.609375 -19.46875 1.617188 -18.929688 1.640625 -18.390625 C 1.671875 -17.847656 1.726562 -17.3125 1.8125 -16.78125 C 1.84375 -16.625 1.890625 -16.375 1.953125 -16.03125 C 2.015625 -15.6875 2.109375 -15.359375 2.234375 -15.046875 C 2.460938 -15.367188 2.671875 -15.738281 2.859375 -16.15625 C 3.046875 -16.582031 3.210938 -16.988281 3.359375 -17.375 C 3.515625 -17.757812 3.625 -18.039062 3.6875 -18.21875 C 3.945312 -18.914062 4.179688 -19.617188 4.390625 -20.328125 C 4.597656 -21.035156 4.800781 -21.75 5 -22.46875 Z M 5 -22.46875 "/></g></g></g><g fill="#ffffff" fill-opacity="1"><g transform="translate(78.809769, 69.749993)"><g><path d="M 9.265625 -25.09375 C 8.660156 -24.5 8.054688 -24.109375 7.453125 -23.921875 C 6.847656 -23.742188 6.210938 -23.875 5.546875 -24.3125 C 5.265625 -24.507812 5.0625 -24.765625 4.9375 -25.078125 C 4.8125 -25.390625 4.757812 -25.703125 4.78125 -26.015625 C 4.8125 -26.328125 4.898438 -26.582031 5.046875 -26.78125 C 5.097656 -26.820312 5.210938 -26.847656 5.390625 -26.859375 C 5.578125 -26.867188 5.765625 -26.859375 5.953125 -26.828125 C 6.148438 -26.804688 6.300781 -26.765625 6.40625 -26.703125 C 6.519531 -26.640625 6.535156 -26.535156 6.453125 -26.390625 C 6.347656 -26.234375 6.296875 -26.054688 6.296875 -25.859375 C 6.304688 -25.660156 6.375 -25.492188 6.5 -25.359375 C 6.625 -25.222656 6.800781 -25.15625 7.03125 -25.15625 C 7.269531 -25.164062 7.484375 -25.320312 7.671875 -25.625 C 7.859375 -25.925781 8.019531 -26.316406 8.15625 -26.796875 C 8.300781 -27.273438 8.414062 -27.785156 8.5 -28.328125 C 8.59375 -28.878906 8.640625 -29.40625 8.640625 -29.90625 C 8.640625 -30.414062 8.59375 -30.84375 8.5 -31.1875 C 8.414062 -31.53125 8.285156 -31.734375 8.109375 -31.796875 C 7.691406 -31.953125 7.257812 -31.882812 6.8125 -31.59375 C 6.363281 -31.300781 5.925781 -30.828125 5.5 -30.171875 C 5.070312 -29.523438 4.671875 -28.726562 4.296875 -27.78125 C 3.929688 -26.84375 3.613281 -25.796875 3.34375 -24.640625 C 3.070312 -23.484375 2.867188 -22.269531 2.734375 -21 C 2.503906 -19.695312 2.390625 -18.320312 2.390625 -16.875 C 2.398438 -15.425781 2.398438 -14.023438 2.390625 -12.671875 C 2.390625 -12.617188 2.390625 -12.5625 2.390625 -12.5 C 2.398438 -12.4375 2.40625 -12.378906 2.40625 -12.328125 L 2.390625 -12.328125 C 2.390625 -12.234375 2.382812 -12.140625 2.375 -12.046875 C 2.363281 -11.960938 2.359375 -11.875 2.359375 -11.78125 C 2.347656 -11.519531 2.222656 -11.320312 1.984375 -11.1875 C 1.753906 -11.0625 1.460938 -10.992188 1.109375 -10.984375 C 0.765625 -10.984375 0.414062 -11.035156 0.0625 -11.140625 C -0.289062 -11.242188 -0.585938 -11.390625 -0.828125 -11.578125 C -1.066406 -11.765625 -1.195312 -11.988281 -1.21875 -12.25 C -1.300781 -14.1875 -1.378906 -16.117188 -1.453125 -18.046875 C -1.535156 -19.972656 -1.585938 -21.898438 -1.609375 -23.828125 C -1.609375 -24.796875 -1.59375 -25.765625 -1.5625 -26.734375 C -1.539062 -27.703125 -1.503906 -28.660156 -1.453125 -29.609375 C -1.410156 -30.191406 -1.351562 -30.804688 -1.28125 -31.453125 C -1.21875 -32.097656 -1.117188 -32.707031 -0.984375 -33.28125 C -0.859375 -33.851562 -0.691406 -34.316406 -0.484375 -34.671875 C -0.378906 -34.847656 -0.195312 -34.992188 0.0625 -35.109375 C 0.320312 -35.222656 0.601562 -35.296875 0.90625 -35.328125 C 1.21875 -35.359375 1.507812 -35.34375 1.78125 -35.28125 C 2.0625 -35.226562 2.285156 -35.125 2.453125 -34.96875 C 2.617188 -34.820312 2.675781 -34.625 2.625 -34.375 C 2.425781 -33.375 2.3125 -32.460938 2.28125 -31.640625 C 2.25 -30.816406 2.207031 -29.957031 2.15625 -29.0625 C 2.132812 -28.550781 2.113281 -28.035156 2.09375 -27.515625 C 2.082031 -26.992188 2.066406 -26.472656 2.046875 -25.953125 C 2.117188 -26.148438 2.1875 -26.34375 2.25 -26.53125 C 2.320312 -26.71875 2.398438 -26.910156 2.484375 -27.109375 C 2.816406 -27.972656 3.175781 -28.847656 3.5625 -29.734375 C 3.957031 -30.617188 4.398438 -31.429688 4.890625 -32.171875 C 5.390625 -32.910156 5.945312 -33.5 6.5625 -33.9375 C 7.1875 -34.375 7.894531 -34.570312 8.6875 -34.53125 C 9.226562 -34.507812 9.664062 -34.3125 10 -33.9375 C 10.34375 -33.5625 10.59375 -33.082031 10.75 -32.5 C 10.914062 -31.914062 11 -31.273438 11 -30.578125 C 11.007812 -29.878906 10.945312 -29.175781 10.8125 -28.46875 C 10.675781 -27.769531 10.476562 -27.125 10.21875 -26.53125 C 9.957031 -25.9375 9.640625 -25.457031 9.265625 -25.09375 Z M 9.265625 -25.09375 "/></g></g></g><g fill="#ffffff" fill-opacity="1"><g transform="translate(91.738193, 69.749993)"><g><path d="M 15.640625 -27.5 C 15.660156 -27.5625 15.738281 -27.597656 15.875 -27.609375 C 16.019531 -27.628906 16.164062 -27.625 16.3125 -27.59375 C 16.457031 -27.570312 16.519531 -27.53125 16.5 -27.46875 C 16.3125 -25.832031 16.050781 -24.195312 15.71875 -22.5625 C 15.382812 -20.9375 14.9375 -19.347656 14.375 -17.796875 C 14.164062 -17.210938 13.929688 -16.613281 13.671875 -16 C 13.410156 -15.394531 13.09375 -14.859375 12.71875 -14.390625 C 12.351562 -13.921875 11.894531 -13.585938 11.34375 -13.390625 C 10.800781 -13.191406 10.140625 -13.195312 9.359375 -13.40625 C 8.722656 -13.582031 8.222656 -13.914062 7.859375 -14.40625 C 7.492188 -14.90625 7.222656 -15.492188 7.046875 -16.171875 C 6.867188 -16.847656 6.75 -17.539062 6.6875 -18.25 C 6.550781 -17.832031 6.40625 -17.414062 6.25 -17 C 6.101562 -16.59375 5.941406 -16.191406 5.765625 -15.796875 C 5.523438 -15.265625 5.238281 -14.757812 4.90625 -14.28125 C 4.582031 -13.8125 4.207031 -13.414062 3.78125 -13.09375 C 3.351562 -12.78125 2.875 -12.578125 2.34375 -12.484375 C 1.820312 -12.398438 1.238281 -12.484375 0.59375 -12.734375 C 0.03125 -12.953125 -0.414062 -13.28125 -0.75 -13.71875 C -1.09375 -14.15625 -1.351562 -14.644531 -1.53125 -15.1875 C -1.707031 -15.738281 -1.832031 -16.304688 -1.90625 -16.890625 C -1.976562 -17.484375 -2.023438 -18.039062 -2.046875 -18.5625 C -2.128906 -19.945312 -2.09375 -21.328125 -1.9375 -22.703125 C -1.78125 -24.078125 -1.519531 -25.4375 -1.15625 -26.78125 C -1 -27.351562 -0.816406 -27.96875 -0.609375 -28.625 C -0.410156 -29.28125 -0.175781 -29.929688 0.09375 -30.578125 C 0.375 -31.222656 0.695312 -31.820312 1.0625 -32.375 C 1.425781 -32.9375 1.851562 -33.414062 2.34375 -33.8125 C 2.71875 -34.113281 3.148438 -34.34375 3.640625 -34.5 C 4.140625 -34.664062 4.648438 -34.75 5.171875 -34.75 C 5.691406 -34.75 6.191406 -34.660156 6.671875 -34.484375 C 7.160156 -34.304688 7.570312 -34.03125 7.90625 -33.65625 C 7.9375 -33.625 7.960938 -33.59375 7.984375 -33.5625 C 8.015625 -33.53125 8.039062 -33.492188 8.0625 -33.453125 C 8.445312 -33.554688 8.835938 -33.59375 9.234375 -33.5625 C 9.640625 -33.539062 9.984375 -33.453125 10.265625 -33.296875 C 10.546875 -33.140625 10.671875 -32.921875 10.640625 -32.640625 C 10.515625 -30.828125 10.394531 -29 10.28125 -27.15625 C 10.175781 -25.3125 10.148438 -23.472656 10.203125 -21.640625 C 10.253906 -19.816406 10.453125 -18.007812 10.796875 -16.21875 C 10.816406 -16.082031 10.84375 -15.945312 10.875 -15.8125 C 10.90625 -15.675781 10.941406 -15.539062 10.984375 -15.40625 C 11.117188 -15.582031 11.25 -15.753906 11.375 -15.921875 C 11.5 -16.085938 11.613281 -16.253906 11.71875 -16.421875 C 12.082031 -16.960938 12.410156 -17.507812 12.703125 -18.0625 C 12.992188 -18.625 13.265625 -19.195312 13.515625 -19.78125 C 14.046875 -21.019531 14.484375 -22.28125 14.828125 -23.5625 C 15.179688 -24.84375 15.453125 -26.15625 15.640625 -27.5 Z M 5 -22.46875 C 5.351562 -23.695312 5.640625 -24.941406 5.859375 -26.203125 C 6.078125 -27.460938 6.289062 -28.722656 6.5 -29.984375 C 6.414062 -30.242188 6.300781 -30.5 6.15625 -30.75 C 6.019531 -30.96875 5.894531 -31.1875 5.78125 -31.40625 C 5.664062 -31.625 5.535156 -31.835938 5.390625 -32.046875 C 5.335938 -32.128906 5.28125 -32.207031 5.21875 -32.28125 C 5.164062 -32.363281 5.109375 -32.441406 5.046875 -32.515625 C 4.953125 -32.378906 4.863281 -32.238281 4.78125 -32.09375 C 4.695312 -31.945312 4.613281 -31.800781 4.53125 -31.65625 C 4.40625 -31.4375 4.28125 -31.207031 4.15625 -30.96875 C 4.039062 -30.726562 3.929688 -30.484375 3.828125 -30.234375 C 3.359375 -29.222656 2.96875 -28.1875 2.65625 -27.125 C 2.300781 -25.976562 2.035156 -24.800781 1.859375 -23.59375 C 1.691406 -22.394531 1.609375 -21.195312 1.609375 -20 C 1.609375 -19.46875 1.617188 -18.929688 1.640625 -18.390625 C 1.671875 -17.847656 1.726562 -17.3125 1.8125 -16.78125 C 1.84375 -16.625 1.890625 -16.375 1.953125 -16.03125 C 2.015625 -15.6875 2.109375 -15.359375 2.234375 -15.046875 C 2.460938 -15.367188 2.671875 -15.738281 2.859375 -16.15625 C 3.046875 -16.582031 3.210938 -16.988281 3.359375 -17.375 C 3.515625 -17.757812 3.625 -18.039062 3.6875 -18.21875 C 3.945312 -18.914062 4.179688 -19.617188 4.390625 -20.328125 C 4.597656 -21.035156 4.800781 -21.75 5 -22.46875 Z M 5 -22.46875 "/></g></g></g><g fill="#ffffff" fill-opacity="1"><g transform="translate(107.498377, 69.749993)"><g><path d="M 13.65625 -26.890625 C 13.675781 -27.023438 13.734375 -27.097656 13.828125 -27.109375 C 13.921875 -27.117188 14.003906 -27.101562 14.078125 -27.0625 C 14.160156 -27.03125 14.203125 -26.992188 14.203125 -26.953125 C 14.097656 -24.972656 13.847656 -23.117188 13.453125 -21.390625 C 13.054688 -19.660156 12.535156 -18.125 11.890625 -16.78125 C 11.242188 -15.4375 10.5 -14.347656 9.65625 -13.515625 C 8.820312 -12.679688 7.914062 -12.164062 6.9375 -11.96875 C 6.269531 -11.84375 5.546875 -11.796875 4.765625 -11.828125 C 3.992188 -11.867188 3.25 -12.007812 2.53125 -12.25 C 1.820312 -12.5 1.210938 -12.863281 0.703125 -13.34375 C 0.117188 -13.90625 -0.347656 -14.539062 -0.703125 -15.25 C -1.054688 -15.957031 -1.3125 -16.707031 -1.46875 -17.5 C -1.625 -18.289062 -1.710938 -19.078125 -1.734375 -19.859375 C -1.835938 -22.515625 -1.550781 -25.128906 -0.875 -27.703125 C -0.71875 -28.285156 -0.53125 -28.898438 -0.3125 -29.546875 C -0.09375 -30.191406 0.171875 -30.816406 0.484375 -31.421875 C 0.796875 -32.035156 1.164062 -32.59375 1.59375 -33.09375 C 2.03125 -33.59375 2.535156 -34 3.109375 -34.3125 C 3.703125 -34.644531 4.351562 -34.828125 5.0625 -34.859375 C 5.78125 -34.898438 6.460938 -34.789062 7.109375 -34.53125 C 7.765625 -34.28125 8.289062 -33.867188 8.6875 -33.296875 C 9.039062 -32.816406 9.28125 -32.242188 9.40625 -31.578125 C 9.539062 -30.921875 9.609375 -30.253906 9.609375 -29.578125 C 9.609375 -28.898438 9.570312 -28.273438 9.5 -27.703125 C 9.425781 -27.140625 9.363281 -26.707031 9.3125 -26.40625 C 9.28125 -26.226562 9.148438 -26.0625 8.921875 -25.90625 C 8.691406 -25.75 8.410156 -25.613281 8.078125 -25.5 C 7.753906 -25.382812 7.4375 -25.316406 7.125 -25.296875 C 6.8125 -25.285156 6.550781 -25.320312 6.34375 -25.40625 C 6.132812 -25.5 6.03125 -25.664062 6.03125 -25.90625 C 6.019531 -26.5625 6.039062 -27.207031 6.09375 -27.84375 C 6.144531 -28.476562 6.15625 -29.109375 6.125 -29.734375 C 6.101562 -30.367188 5.976562 -31.007812 5.75 -31.65625 C 5.644531 -31.957031 5.554688 -32.195312 5.484375 -32.375 C 5.421875 -32.550781 5.335938 -32.628906 5.234375 -32.609375 C 5.140625 -32.585938 4.984375 -32.4375 4.765625 -32.15625 C 4.535156 -31.84375 4.328125 -31.503906 4.140625 -31.140625 C 3.960938 -30.785156 3.796875 -30.425781 3.640625 -30.0625 C 2.921875 -28.46875 2.429688 -26.769531 2.171875 -24.96875 C 1.910156 -23.175781 1.828125 -21.410156 1.921875 -19.671875 C 1.953125 -18.828125 2.039062 -18.050781 2.1875 -17.34375 C 2.332031 -16.644531 2.6875 -15.957031 3.25 -15.28125 C 3.363281 -15.132812 3.578125 -14.957031 3.890625 -14.75 C 4.210938 -14.550781 4.609375 -14.394531 5.078125 -14.28125 C 5.546875 -14.175781 6.0625 -14.175781 6.625 -14.28125 C 7.1875 -14.382812 7.773438 -14.664062 8.390625 -15.125 C 9.003906 -15.59375 9.617188 -16.300781 10.234375 -17.25 C 10.859375 -18.195312 11.460938 -19.457031 12.046875 -21.03125 C 12.640625 -22.613281 13.175781 -24.566406 13.65625 -26.890625 Z M 13.65625 -26.890625 "/></g></g></g><g fill="#ffffff" fill-opacity="1"><g transform="translate(121.05174, 69.749993)"><g><path d="M 20.3125 -26.390625 C 20.320312 -26.515625 20.414062 -26.597656 20.59375 -26.640625 C 20.769531 -26.691406 20.945312 -26.695312 21.125 -26.65625 C 21.300781 -26.625 21.382812 -26.539062 21.375 -26.40625 C 21.300781 -24.507812 21.140625 -22.585938 20.890625 -20.640625 C 20.640625 -18.691406 20.289062 -16.757812 19.84375 -14.84375 C 19.40625 -12.925781 18.847656 -11.078125 18.171875 -9.296875 C 17.910156 -8.609375 17.503906 -8.046875 16.953125 -7.609375 C 16.410156 -7.171875 15.789062 -6.910156 15.09375 -6.828125 C 14.40625 -6.742188 13.703125 -6.878906 12.984375 -7.234375 C 12.398438 -7.515625 11.945312 -7.925781 11.625 -8.46875 C 11.300781 -9.019531 11.0625 -9.628906 10.90625 -10.296875 C 10.75 -10.972656 10.648438 -11.648438 10.609375 -12.328125 C 10.566406 -13.015625 10.539062 -13.632812 10.53125 -14.1875 C 10.488281 -16.082031 10.546875 -17.96875 10.703125 -19.84375 C 10.867188 -21.71875 11.03125 -23.59375 11.1875 -25.46875 C 11.34375 -27.351562 11.394531 -29.242188 11.34375 -31.140625 C 11.238281 -31.003906 11.113281 -30.867188 10.96875 -30.734375 C 10.820312 -30.597656 10.710938 -30.476562 10.640625 -30.375 C 10.347656 -29.914062 10.078125 -29.414062 9.828125 -28.875 C 9.554688 -28.3125 9.3125 -27.734375 9.09375 -27.140625 C 8.875 -26.554688 8.671875 -25.972656 8.484375 -25.390625 C 8.015625 -23.941406 7.625 -22.484375 7.3125 -21.015625 C 7 -19.546875 6.75 -18.054688 6.5625 -16.546875 C 6.507812 -16.148438 6.46875 -15.679688 6.4375 -15.140625 C 6.40625 -14.609375 6.335938 -14.070312 6.234375 -13.53125 C 6.140625 -13 5.972656 -12.523438 5.734375 -12.109375 C 5.492188 -11.703125 5.140625 -11.429688 4.671875 -11.296875 C 4.265625 -11.160156 3.863281 -11.132812 3.46875 -11.21875 C 3.082031 -11.300781 2.722656 -11.441406 2.390625 -11.640625 C 2.054688 -11.847656 1.769531 -12.066406 1.53125 -12.296875 C 1.289062 -12.535156 1.117188 -12.738281 1.015625 -12.90625 C 0.910156 -13.0625 0.828125 -13.226562 0.765625 -13.40625 C 0.710938 -13.59375 0.660156 -13.78125 0.609375 -13.96875 C -0.0976562 -16.800781 -0.582031 -19.703125 -0.84375 -22.671875 C -1.113281 -25.640625 -1.222656 -28.582031 -1.171875 -31.5 C -1.117188 -33.875 -0.960938 -36.160156 -0.703125 -38.359375 C -0.441406 -40.554688 -0.113281 -42.601562 0.28125 -44.5 C 0.675781 -46.40625 1.101562 -48.097656 1.5625 -49.578125 C 2.03125 -51.054688 2.492188 -52.265625 2.953125 -53.203125 C 3.410156 -54.148438 3.828125 -54.769531 4.203125 -55.0625 C 4.503906 -55.28125 4.847656 -55.46875 5.234375 -55.625 C 5.628906 -55.789062 6.035156 -55.898438 6.453125 -55.953125 C 6.867188 -56.003906 7.257812 -55.976562 7.625 -55.875 C 8 -55.769531 8.316406 -55.5625 8.578125 -55.25 C 9.015625 -54.707031 9.332031 -53.925781 9.53125 -52.90625 C 9.738281 -51.882812 9.8125 -50.6875 9.75 -49.3125 C 9.6875 -47.945312 9.488281 -46.457031 9.15625 -44.84375 C 8.832031 -43.238281 8.367188 -41.5625 7.765625 -39.8125 C 7.171875 -38.0625 6.429688 -36.289062 5.546875 -34.5 C 4.660156 -32.707031 3.632812 -30.960938 2.46875 -29.265625 C 2.476562 -28.753906 2.492188 -28.242188 2.515625 -27.734375 C 2.535156 -27.222656 2.550781 -26.722656 2.5625 -26.234375 C 2.6875 -23.753906 2.941406 -21.285156 3.328125 -18.828125 C 3.429688 -18.191406 3.535156 -17.554688 3.640625 -16.921875 C 3.753906 -16.296875 3.875 -15.671875 4 -15.046875 C 4.03125 -14.992188 4.046875 -14.929688 4.046875 -14.859375 C 4.054688 -14.796875 4.066406 -14.734375 4.078125 -14.671875 C 4.148438 -14.972656 4.207031 -15.257812 4.25 -15.53125 C 4.289062 -15.800781 4.332031 -16.039062 4.375 -16.25 C 4.488281 -16.90625 4.601562 -17.550781 4.71875 -18.1875 C 4.832031 -18.832031 4.957031 -19.476562 5.09375 -20.125 C 5.382812 -21.425781 5.722656 -22.707031 6.109375 -23.96875 C 6.503906 -25.238281 6.941406 -26.488281 7.421875 -27.71875 C 7.628906 -28.257812 7.867188 -28.820312 8.140625 -29.40625 C 8.421875 -30 8.738281 -30.566406 9.09375 -31.109375 C 9.445312 -31.648438 9.851562 -32.101562 10.3125 -32.46875 C 10.675781 -32.75 11.101562 -32.925781 11.59375 -33 C 12.09375 -33.070312 12.585938 -33.039062 13.078125 -32.90625 C 13.566406 -32.78125 13.96875 -32.554688 14.28125 -32.234375 C 14.632812 -31.867188 14.875 -31.414062 15 -30.875 C 15.132812 -30.34375 15.195312 -29.769531 15.1875 -29.15625 C 15.175781 -28.550781 15.140625 -27.957031 15.078125 -27.375 C 15.015625 -26.789062 14.96875 -26.28125 14.9375 -25.84375 C 14.863281 -24.601562 14.765625 -23.363281 14.640625 -22.125 C 14.515625 -20.894531 14.40625 -19.660156 14.3125 -18.421875 C 14.226562 -17.234375 14.164062 -16.023438 14.125 -14.796875 C 14.09375 -13.578125 14.191406 -12.390625 14.421875 -11.234375 C 14.484375 -10.890625 14.5625 -10.546875 14.65625 -10.203125 C 14.757812 -9.867188 14.894531 -9.554688 15.0625 -9.265625 C 15.21875 -9.003906 15.332031 -8.851562 15.40625 -8.8125 C 15.476562 -8.769531 15.546875 -8.8125 15.609375 -8.9375 C 15.679688 -9.0625 15.785156 -9.234375 15.921875 -9.453125 C 16.222656 -9.929688 16.476562 -10.4375 16.6875 -10.96875 C 16.90625 -11.507812 17.113281 -12.039062 17.3125 -12.5625 C 19.03125 -17.007812 20.03125 -21.617188 20.3125 -26.390625 Z M 3.25 -41.03125 C 3 -39.363281 2.8125 -37.6875 2.6875 -36 C 2.5625 -34.320312 2.488281 -32.632812 2.46875 -30.9375 C 3.207031 -32.425781 3.890625 -33.9375 4.515625 -35.46875 C 5.148438 -37.007812 5.71875 -38.566406 6.21875 -40.140625 C 6.59375 -41.296875 6.925781 -42.460938 7.21875 -43.640625 C 7.507812 -44.816406 7.738281 -46.015625 7.90625 -47.234375 C 8 -47.835938 8.066406 -48.445312 8.109375 -49.0625 C 8.160156 -49.675781 8.160156 -50.289062 8.109375 -50.90625 C 8.097656 -51.09375 8.070312 -51.359375 8.03125 -51.703125 C 8 -52.054688 7.953125 -52.414062 7.890625 -52.78125 C 7.828125 -53.15625 7.734375 -53.488281 7.609375 -53.78125 C 7.492188 -54.082031 7.34375 -54.28125 7.15625 -54.375 C 7 -54.4375 6.8125 -54.269531 6.59375 -53.875 C 6.375 -53.476562 6.144531 -52.921875 5.90625 -52.203125 C 5.675781 -51.492188 5.441406 -50.6875 5.203125 -49.78125 C 4.960938 -48.882812 4.734375 -47.96875 4.515625 -47.03125 C 4.296875 -46.09375 4.09375 -45.207031 3.90625 -44.375 C 3.726562 -43.539062 3.578125 -42.828125 3.453125 -42.234375 C 3.335938 -41.640625 3.269531 -41.238281 3.25 -41.03125 Z M 3.25 -41.03125 "/></g></g></g><g fill="#ffffff" fill-opacity="1"><g transform="translate(141.772377, 69.749993)"><g><path d="M 7.9375 -24.203125 C 7.570312 -23.585938 7.140625 -23.019531 6.640625 -22.5 C 6.148438 -21.988281 5.59375 -21.585938 4.96875 -21.296875 C 4.351562 -21.015625 3.660156 -20.910156 2.890625 -20.984375 C 2.816406 -20.984375 2.738281 -20.988281 2.65625 -21 C 2.582031 -21.007812 2.503906 -21.019531 2.421875 -21.03125 C 2.472656 -20.320312 2.570312 -19.628906 2.71875 -18.953125 C 2.875 -18.273438 3.097656 -17.664062 3.390625 -17.125 C 3.691406 -16.582031 4.085938 -16.140625 4.578125 -15.796875 C 5.078125 -15.460938 5.6875 -15.28125 6.40625 -15.25 C 7.03125 -15.226562 7.617188 -15.375 8.171875 -15.6875 C 8.722656 -16 9.234375 -16.410156 9.703125 -16.921875 C 10.171875 -17.441406 10.597656 -17.988281 10.984375 -18.5625 C 11.378906 -19.132812 11.734375 -19.671875 12.046875 -20.171875 C 12.148438 -20.347656 12.296875 -20.628906 12.484375 -21.015625 C 12.679688 -21.410156 12.890625 -21.863281 13.109375 -22.375 C 13.328125 -22.882812 13.539062 -23.414062 13.75 -23.96875 C 13.96875 -24.53125 14.160156 -25.078125 14.328125 -25.609375 C 14.492188 -26.140625 14.613281 -26.609375 14.6875 -27.015625 C 14.738281 -27.285156 14.851562 -27.457031 15.03125 -27.53125 C 15.207031 -27.613281 15.367188 -27.609375 15.515625 -27.515625 C 15.671875 -27.429688 15.710938 -27.257812 15.640625 -27 C 15.484375 -26.300781 15.257812 -25.507812 14.96875 -24.625 C 14.675781 -23.738281 14.34375 -22.832031 13.96875 -21.90625 C 13.59375 -20.976562 13.195312 -20.078125 12.78125 -19.203125 C 12.257812 -18.097656 11.648438 -17.09375 10.953125 -16.1875 C 10.253906 -15.28125 9.488281 -14.550781 8.65625 -14 C 7.832031 -13.457031 6.953125 -13.15625 6.015625 -13.09375 C 5.140625 -13.019531 4.296875 -13.097656 3.484375 -13.328125 C 2.671875 -13.566406 1.945312 -13.953125 1.3125 -14.484375 C 0.675781 -15.023438 0.160156 -15.707031 -0.234375 -16.53125 C -0.597656 -17.332031 -0.859375 -18.1875 -1.015625 -19.09375 C -1.171875 -20.007812 -1.25 -20.9375 -1.25 -21.875 C -1.257812 -22.820312 -1.238281 -23.726562 -1.1875 -24.59375 C -1.15625 -25.289062 -1.0625 -26.0625 -0.90625 -26.90625 C -0.757812 -27.75 -0.546875 -28.601562 -0.265625 -29.46875 C 0.00390625 -30.34375 0.34375 -31.179688 0.75 -31.984375 C 1.164062 -32.796875 1.648438 -33.519531 2.203125 -34.15625 C 2.765625 -34.800781 3.40625 -35.3125 4.125 -35.6875 C 4.84375 -36.0625 5.644531 -36.25 6.53125 -36.25 C 7.382812 -36.25 8.070312 -36.082031 8.59375 -35.75 C 9.113281 -35.414062 9.492188 -34.957031 9.734375 -34.375 C 9.972656 -33.800781 10.109375 -33.148438 10.140625 -32.421875 C 10.179688 -31.703125 10.132812 -30.945312 10 -30.15625 C 9.875 -29.375 9.691406 -28.601562 9.453125 -27.84375 C 9.222656 -27.09375 8.972656 -26.398438 8.703125 -25.765625 C 8.429688 -25.140625 8.175781 -24.617188 7.9375 -24.203125 Z M 2.390625 -22.5 C 2.421875 -22.476562 2.457031 -22.453125 2.5 -22.421875 C 2.539062 -22.398438 2.585938 -22.375 2.640625 -22.34375 C 3.023438 -22.144531 3.382812 -22.101562 3.71875 -22.21875 C 4.0625 -22.332031 4.375 -22.53125 4.65625 -22.8125 C 4.945312 -23.101562 5.203125 -23.421875 5.421875 -23.765625 C 5.648438 -24.109375 5.84375 -24.410156 6 -24.671875 C 6.570312 -25.703125 7.03125 -26.789062 7.375 -27.9375 C 7.71875 -29.082031 7.894531 -30.238281 7.90625 -31.40625 C 7.925781 -31.707031 7.914062 -32.078125 7.875 -32.515625 C 7.84375 -32.960938 7.757812 -33.390625 7.625 -33.796875 C 7.5 -34.210938 7.28125 -34.503906 6.96875 -34.671875 C 6.6875 -34.835938 6.328125 -34.757812 5.890625 -34.4375 C 5.453125 -34.125 5.007812 -33.597656 4.5625 -32.859375 C 4.113281 -32.128906 3.710938 -31.210938 3.359375 -30.109375 C 3.003906 -29.003906 2.757812 -27.757812 2.625 -26.375 C 2.582031 -25.957031 2.53125 -25.40625 2.46875 -24.71875 C 2.414062 -24.03125 2.390625 -23.289062 2.390625 -22.5 Z M 2.390625 -22.5 "/></g></g></g><g fill="#ffffff" fill-opacity="1"><g transform="translate(156.614676, 69.749993)"><g><path d="M 10.390625 -23.75 C 10.328125 -23.632812 10.164062 -23.550781 9.90625 -23.5 C 9.65625 -23.445312 9.378906 -23.429688 9.078125 -23.453125 C 8.785156 -23.472656 8.539062 -23.53125 8.34375 -23.625 C 8.144531 -23.71875 8.070312 -23.851562 8.125 -24.03125 C 8.28125 -24.582031 8.429688 -25.207031 8.578125 -25.90625 C 8.722656 -26.601562 8.8125 -27.316406 8.84375 -28.046875 C 8.882812 -28.785156 8.84375 -29.5 8.71875 -30.1875 C 8.59375 -30.882812 8.347656 -31.519531 7.984375 -32.09375 C 7.617188 -32.664062 7.09375 -33.128906 6.40625 -33.484375 C 6 -33.691406 5.675781 -33.773438 5.4375 -33.734375 C 5.195312 -33.703125 4.910156 -33.550781 4.578125 -33.28125 C 4.128906 -32.914062 3.742188 -32.460938 3.421875 -31.921875 C 3.097656 -31.378906 2.835938 -30.835938 2.640625 -30.296875 C 2.191406 -29.015625 2.101562 -27.726562 2.375 -26.4375 C 2.65625 -25.144531 3.234375 -23.988281 4.109375 -22.96875 C 4.503906 -22.5 4.945312 -22.082031 5.4375 -21.71875 C 5.925781 -21.363281 6.425781 -21.023438 6.9375 -20.703125 C 7.457031 -20.390625 7.960938 -20.0625 8.453125 -19.71875 C 8.941406 -19.382812 9.394531 -19 9.8125 -18.5625 C 10.34375 -18 10.695312 -17.390625 10.875 -16.734375 C 11.0625 -16.078125 11.046875 -15.4375 10.828125 -14.8125 C 10.617188 -14.195312 10.1875 -13.660156 9.53125 -13.203125 C 8.9375 -12.785156 8.273438 -12.484375 7.546875 -12.296875 C 6.816406 -12.109375 6.09375 -11.992188 5.375 -11.953125 C 4.21875 -11.898438 3.164062 -12.050781 2.21875 -12.40625 C 1.269531 -12.769531 0.5 -13.34375 -0.09375 -14.125 C -0.6875 -14.90625 -1.046875 -15.894531 -1.171875 -17.09375 C -1.203125 -17.351562 -1.097656 -17.5625 -0.859375 -17.71875 C -0.628906 -17.882812 -0.332031 -18 0.03125 -18.0625 C 0.40625 -18.132812 0.773438 -18.148438 1.140625 -18.109375 C 1.515625 -18.066406 1.832031 -17.96875 2.09375 -17.8125 C 2.363281 -17.65625 2.515625 -17.441406 2.546875 -17.171875 C 2.597656 -16.710938 2.703125 -16.234375 2.859375 -15.734375 C 3.015625 -15.242188 3.25 -14.820312 3.5625 -14.46875 C 3.882812 -14.125 4.316406 -13.925781 4.859375 -13.875 C 5.203125 -13.84375 5.546875 -13.890625 5.890625 -14.015625 C 6.242188 -14.140625 6.546875 -14.320312 6.796875 -14.5625 C 7.054688 -14.8125 7.222656 -15.125 7.296875 -15.5 C 7.367188 -15.875 7.300781 -16.296875 7.09375 -16.765625 C 6.925781 -17.160156 6.679688 -17.5 6.359375 -17.78125 C 6.035156 -18.070312 5.6875 -18.332031 5.3125 -18.5625 C 4.9375 -18.789062 4.570312 -19.015625 4.21875 -19.234375 C 3.726562 -19.546875 3.242188 -19.878906 2.765625 -20.234375 C 2.285156 -20.597656 1.835938 -20.984375 1.421875 -21.390625 C 0.609375 -22.191406 -0.0664062 -23.097656 -0.609375 -24.109375 C -1.148438 -25.128906 -1.445312 -26.226562 -1.5 -27.40625 C -1.539062 -28.34375 -1.425781 -29.265625 -1.15625 -30.171875 C -0.882812 -31.078125 -0.484375 -31.910156 0.046875 -32.671875 C 0.585938 -33.441406 1.222656 -34.085938 1.953125 -34.609375 C 2.691406 -35.128906 3.507812 -35.476562 4.40625 -35.65625 C 5.3125 -35.832031 6.257812 -35.789062 7.25 -35.53125 C 8.34375 -35.238281 9.226562 -34.773438 9.90625 -34.140625 C 10.59375 -33.515625 11.097656 -32.78125 11.421875 -31.9375 C 11.753906 -31.09375 11.921875 -30.191406 11.921875 -29.234375 C 11.929688 -28.285156 11.800781 -27.335938 11.53125 -26.390625 C 11.269531 -25.453125 10.890625 -24.570312 10.390625 -23.75 Z M 10.390625 -23.75 "/></g></g></g></svg>