<svg xmlns="http://www.w3.org/2000/svg" xmlns:xlink="http://www.w3.org/1999/xlink" width="1000" zoomAndPan="magnify" viewBox="0 0 750 74.999997" height="100" preserveAspectRatio="xMidYMid meet" version="1.0"><defs><g/></defs><g fill="#ffffff" fill-opacity="1"><g transform="translate(11.039077, 63.499967)"><g><path d="M 24.546875 -61.0625 C 25.796875 -61.0625 26.925781 -60.734375 27.9375 -60.078125 C 28.957031 -59.429688 29.710938 -58.535156 30.203125 -57.390625 C 30.597656 -56.453125 30.867188 -55.460938 31.015625 -54.421875 C 31.160156 -53.378906 31.234375 -52.328125 31.234375 -51.265625 C 31.242188 -50.210938 31.238281 -49.191406 31.21875 -48.203125 C 31.132812 -44.878906 30.75 -41.585938 30.0625 -38.328125 C 29.90625 -37.578125 29.722656 -36.773438 29.515625 -35.921875 C 29.316406 -35.078125 29.066406 -34.21875 28.765625 -33.34375 C 28.472656 -32.476562 28.113281 -31.664062 27.6875 -30.90625 C 27.257812 -30.144531 26.75 -29.476562 26.15625 -28.90625 C 25.570312 -28.34375 24.878906 -27.929688 24.078125 -27.671875 C 23.285156 -27.410156 22.375 -27.359375 21.34375 -27.515625 C 20.65625 -27.617188 20.070312 -27.910156 19.59375 -28.390625 C 19.125 -28.878906 18.769531 -29.484375 18.53125 -30.203125 C 18.300781 -30.929688 18.1875 -31.703125 18.1875 -32.515625 C 18.195312 -33.953125 18.351562 -35.296875 18.65625 -36.546875 C 18.957031 -37.796875 19.484375 -38.804688 20.234375 -39.578125 C 20.285156 -39.628906 20.390625 -39.660156 20.546875 -39.671875 C 20.703125 -39.691406 20.847656 -39.6875 20.984375 -39.65625 C 21.117188 -39.632812 21.175781 -39.566406 21.15625 -39.453125 C 21.0625 -38.984375 20.945312 -38.394531 20.8125 -37.6875 C 20.675781 -36.988281 20.550781 -36.238281 20.4375 -35.4375 C 20.332031 -34.632812 20.265625 -33.84375 20.234375 -33.0625 C 20.210938 -32.28125 20.257812 -31.570312 20.375 -30.9375 C 20.5 -30.300781 20.722656 -29.789062 21.046875 -29.40625 C 21.378906 -29.03125 21.835938 -28.859375 22.421875 -28.890625 C 22.921875 -28.910156 23.378906 -29.210938 23.796875 -29.796875 C 24.222656 -30.378906 24.609375 -31.164062 24.953125 -32.15625 C 25.304688 -33.144531 25.625 -34.257812 25.90625 -35.5 C 26.1875 -36.738281 26.429688 -38.039062 26.640625 -39.40625 C 26.847656 -40.78125 27.015625 -42.132812 27.140625 -43.46875 C 27.273438 -44.800781 27.375 -46.050781 27.4375 -47.21875 C 27.507812 -48.394531 27.535156 -49.398438 27.515625 -50.234375 C 27.503906 -50.890625 27.488281 -51.582031 27.46875 -52.3125 C 27.445312 -53.039062 27.390625 -53.769531 27.296875 -54.5 C 27.203125 -55.238281 27.023438 -55.9375 26.765625 -56.59375 C 26.515625 -57.257812 26.148438 -57.847656 25.671875 -58.359375 C 25.421875 -58.617188 25.191406 -58.796875 24.984375 -58.890625 C 24.773438 -58.984375 24.492188 -59.003906 24.140625 -58.953125 C 24.046875 -58.929688 23.820312 -58.832031 23.46875 -58.65625 C 23.113281 -58.488281 22.664062 -58.164062 22.125 -57.6875 C 21.582031 -57.207031 20.992188 -56.53125 20.359375 -55.65625 C 19.734375 -54.789062 19.097656 -53.664062 18.453125 -52.28125 C 17.816406 -50.894531 17.226562 -49.1875 16.6875 -47.15625 C 16.507812 -46.53125 16.351562 -45.898438 16.21875 -45.265625 C 16.09375 -44.628906 15.972656 -43.992188 15.859375 -43.359375 C 15.992188 -39.910156 16 -36.457031 15.875 -33 C 15.757812 -29.539062 15.484375 -26.097656 15.046875 -22.671875 C 14.804688 -20.847656 14.519531 -19.035156 14.1875 -17.234375 C 13.851562 -15.429688 13.46875 -13.640625 13.03125 -11.859375 C 12.789062 -10.941406 12.546875 -10.03125 12.296875 -9.125 C 12.046875 -8.226562 11.769531 -7.328125 11.46875 -6.421875 C 11.269531 -5.835938 11.078125 -5.253906 10.890625 -4.671875 C 10.703125 -4.085938 10.46875 -3.53125 10.1875 -3 C 9.914062 -2.46875 9.546875 -1.984375 9.078125 -1.546875 C 8.953125 -1.410156 8.765625 -1.300781 8.515625 -1.21875 C 8.265625 -1.144531 7.992188 -1.101562 7.703125 -1.09375 C 7.421875 -1.09375 7.160156 -1.132812 6.921875 -1.21875 C 6.679688 -1.300781 6.507812 -1.441406 6.40625 -1.640625 C 6.28125 -1.878906 6.25 -2.1875 6.3125 -2.5625 C 6.375 -2.945312 6.488281 -3.359375 6.65625 -3.796875 C 6.832031 -4.242188 7.015625 -4.6875 7.203125 -5.125 C 7.398438 -5.570312 7.554688 -5.976562 7.671875 -6.34375 C 7.929688 -7.15625 8.1875 -7.960938 8.4375 -8.765625 C 8.6875 -9.578125 8.914062 -10.394531 9.125 -11.21875 C 9.5625 -12.851562 9.941406 -14.503906 10.265625 -16.171875 C 10.597656 -17.835938 10.878906 -19.507812 11.109375 -21.1875 C 11.523438 -24.101562 11.820312 -27.023438 12 -29.953125 C 12.175781 -32.890625 12.253906 -35.820312 12.234375 -38.75 C 12.210938 -40.65625 12.1875 -42.585938 12.15625 -44.546875 C 12.125 -46.503906 12.003906 -48.457031 11.796875 -50.40625 C 11.585938 -52.351562 11.222656 -54.242188 10.703125 -56.078125 C 10.640625 -56.296875 10.546875 -56.609375 10.421875 -57.015625 C 10.296875 -57.421875 10.128906 -57.84375 9.921875 -58.28125 C 9.722656 -58.726562 9.488281 -59.109375 9.21875 -59.421875 C 8.945312 -59.734375 8.625 -59.898438 8.25 -59.921875 C 7.757812 -59.960938 7.316406 -59.828125 6.921875 -59.515625 C 6.535156 -59.203125 6.179688 -58.785156 5.859375 -58.265625 C 5.546875 -57.753906 5.238281 -57.203125 4.9375 -56.609375 C 4.675781 -56.054688 4.398438 -55.398438 4.109375 -54.640625 C 3.816406 -53.878906 3.523438 -53.054688 3.234375 -52.171875 C 2.953125 -51.296875 2.695312 -50.40625 2.46875 -49.5 C 2.238281 -48.59375 2.050781 -47.726562 1.90625 -46.90625 C 1.769531 -46.082031 1.695312 -45.335938 1.6875 -44.671875 C 1.6875 -44.003906 1.765625 -43.46875 1.921875 -43.0625 C 2.085938 -42.664062 2.359375 -42.445312 2.734375 -42.40625 C 3.035156 -42.375 3.351562 -42.5 3.6875 -42.78125 C 4.03125 -43.0625 4.378906 -43.445312 4.734375 -43.9375 C 5.097656 -44.4375 5.453125 -44.992188 5.796875 -45.609375 C 6.148438 -46.222656 6.484375 -46.847656 6.796875 -47.484375 C 7.117188 -48.117188 7.410156 -48.722656 7.671875 -49.296875 C 7.929688 -49.878906 8.148438 -50.375 8.328125 -50.78125 C 8.378906 -50.863281 8.488281 -50.921875 8.65625 -50.953125 C 8.820312 -50.992188 8.976562 -51 9.125 -50.96875 C 9.28125 -50.945312 9.351562 -50.863281 9.34375 -50.71875 C 9.3125 -50.394531 9.1875 -49.941406 8.96875 -49.359375 C 8.757812 -48.785156 8.484375 -48.144531 8.140625 -47.4375 C 7.796875 -46.738281 7.40625 -46.035156 6.96875 -45.328125 C 6.539062 -44.617188 6.085938 -43.96875 5.609375 -43.375 C 5.140625 -42.78125 4.664062 -42.300781 4.1875 -41.9375 C 3.71875 -41.570312 3.265625 -41.390625 2.828125 -41.390625 C 2.273438 -41.390625 1.816406 -41.53125 1.453125 -41.8125 C 1.085938 -42.101562 0.804688 -42.5 0.609375 -43 C 0.410156 -43.5 0.269531 -44.066406 0.1875 -44.703125 C 0.113281 -45.347656 0.078125 -46.023438 0.078125 -46.734375 C 0.078125 -47.390625 0.128906 -48.144531 0.234375 -49 C 0.347656 -49.863281 0.515625 -50.773438 0.734375 -51.734375 C 0.960938 -52.703125 1.242188 -53.664062 1.578125 -54.625 C 1.910156 -55.59375 2.300781 -56.507812 2.75 -57.375 C 3.195312 -58.25 3.695312 -59.023438 4.25 -59.703125 C 4.8125 -60.378906 5.4375 -60.910156 6.125 -61.296875 C 6.8125 -61.691406 7.550781 -61.890625 8.34375 -61.890625 C 9.28125 -61.890625 10.082031 -61.75 10.75 -61.46875 C 11.425781 -61.195312 11.988281 -60.8125 12.4375 -60.3125 C 12.894531 -59.820312 13.273438 -59.242188 13.578125 -58.578125 C 13.890625 -57.910156 14.15625 -57.1875 14.375 -56.40625 C 14.71875 -55.21875 14.972656 -54.019531 15.140625 -52.8125 C 15.316406 -51.613281 15.453125 -50.40625 15.546875 -49.1875 C 15.953125 -50.394531 16.410156 -51.578125 16.921875 -52.734375 C 17.441406 -53.890625 18 -54.96875 18.59375 -55.96875 C 19.195312 -56.976562 19.828125 -57.863281 20.484375 -58.625 C 21.140625 -59.382812 21.8125 -59.976562 22.5 -60.40625 C 23.1875 -60.84375 23.867188 -61.0625 24.546875 -61.0625 Z M 24.546875 -61.0625 "/></g></g></g><g fill="#ffffff" fill-opacity="1"><g transform="translate(41.407208, 63.499967)"><g><path d="M 15.640625 -27.5 C 15.660156 -27.5625 15.738281 -27.597656 15.875 -27.609375 C 16.019531 -27.628906 16.164062 -27.625 16.3125 -27.59375 C 16.457031 -27.570312 16.519531 -27.53125 16.5 -27.46875 C 16.3125 -25.832031 16.050781 -24.195312 15.71875 -22.5625 C 15.382812 -20.9375 14.9375 -19.347656 14.375 -17.796875 C 14.164062 -17.210938 13.929688 -16.613281 13.671875 -16 C 13.410156 -15.394531 13.09375 -14.859375 12.71875 -14.390625 C 12.351562 -13.921875 11.894531 -13.585938 11.34375 -13.390625 C 10.800781 -13.191406 10.140625 -13.195312 9.359375 -13.40625 C 8.722656 -13.582031 8.222656 -13.914062 7.859375 -14.40625 C 7.492188 -14.90625 7.222656 -15.492188 7.046875 -16.171875 C 6.867188 -16.847656 6.75 -17.539062 6.6875 -18.25 C 6.550781 -17.832031 6.40625 -17.414062 6.25 -17 C 6.101562 -16.59375 5.941406 -16.191406 5.765625 -15.796875 C 5.523438 -15.265625 5.238281 -14.757812 4.90625 -14.28125 C 4.582031 -13.8125 4.207031 -13.414062 3.78125 -13.09375 C 3.351562 -12.78125 2.875 -12.578125 2.34375 -12.484375 C 1.820312 -12.398438 1.238281 -12.484375 0.59375 -12.734375 C 0.03125 -12.953125 -0.414062 -13.28125 -0.75 -13.71875 C -1.09375 -14.15625 -1.351562 -14.644531 -1.53125 -15.1875 C -1.707031 -15.738281 -1.832031 -16.304688 -1.90625 -16.890625 C -1.976562 -17.484375 -2.023438 -18.039062 -2.046875 -18.5625 C -2.128906 -19.945312 -2.09375 -21.328125 -1.9375 -22.703125 C -1.78125 -24.078125 -1.519531 -25.4375 -1.15625 -26.78125 C -1 -27.351562 -0.816406 -27.96875 -0.609375 -28.625 C -0.410156 -29.28125 -0.175781 -29.929688 0.09375 -30.578125 C 0.375 -31.222656 0.695312 -31.820312 1.0625 -32.375 C 1.425781 -32.9375 1.851562 -33.414062 2.34375 -33.8125 C 2.71875 -34.113281 3.148438 -34.34375 3.640625 -34.5 C 4.140625 -34.664062 4.648438 -34.75 5.171875 -34.75 C 5.691406 -34.75 6.191406 -34.660156 6.671875 -34.484375 C 7.160156 -34.304688 7.570312 -34.03125 7.90625 -33.65625 C 7.9375 -33.625 7.960938 -33.59375 7.984375 -33.5625 C 8.015625 -33.53125 8.039062 -33.492188 8.0625 -33.453125 C 8.445312 -33.554688 8.835938 -33.59375 9.234375 -33.5625 C 9.640625 -33.539062 9.984375 -33.453125 10.265625 -33.296875 C 10.546875 -33.140625 10.671875 -32.921875 10.640625 -32.640625 C 10.515625 -30.828125 10.394531 -29 10.28125 -27.15625 C 10.175781 -25.3125 10.148438 -23.472656 10.203125 -21.640625 C 10.253906 -19.816406 10.453125 -18.007812 10.796875 -16.21875 C 10.816406 -16.082031 10.84375 -15.945312 10.875 -15.8125 C 10.90625 -15.675781 10.941406 -15.539062 10.984375 -15.40625 C 11.117188 -15.582031 11.25 -15.753906 11.375 -15.921875 C 11.5 -16.085938 11.613281 -16.253906 11.71875 -16.421875 C 12.082031 -16.960938 12.410156 -17.507812 12.703125 -18.0625 C 12.992188 -18.625 13.265625 -19.195312 13.515625 -19.78125 C 14.046875 -21.019531 14.484375 -22.28125 14.828125 -23.5625 C 15.179688 -24.84375 15.453125 -26.15625 15.640625 -27.5 Z M 5 -22.46875 C 5.351562 -23.695312 5.640625 -24.941406 5.859375 -26.203125 C 6.078125 -27.460938 6.289062 -28.722656 6.5 -29.984375 C 6.414062 -30.242188 6.300781 -30.5 6.15625 -30.75 C 6.019531 -30.96875 5.894531 -31.1875 5.78125 -31.40625 C 5.664062 -31.625 5.535156 -31.835938 5.390625 -32.046875 C 5.335938 -32.128906 5.28125 -32.207031 5.21875 -32.28125 C 5.164062 -32.363281 5.109375 -32.441406 5.046875 -32.515625 C 4.953125 -32.378906 4.863281 -32.238281 4.78125 -32.09375 C 4.695312 -31.945312 4.613281 -31.800781 4.53125 -31.65625 C 4.40625 -31.4375 4.28125 -31.207031 4.15625 -30.96875 C 4.039062 -30.726562 3.929688 -30.484375 3.828125 -30.234375 C 3.359375 -29.222656 2.96875 -28.1875 2.65625 -27.125 C 2.300781 -25.976562 2.035156 -24.800781 1.859375 -23.59375 C 1.691406 -22.394531 1.609375 -21.195312 1.609375 -20 C 1.609375 -19.46875 1.617188 -18.929688 1.640625 -18.390625 C 1.671875 -17.847656 1.726562 -17.3125 1.8125 -16.78125 C 1.84375 -16.625 1.890625 -16.375 1.953125 -16.03125 C 2.015625 -15.6875 2.109375 -15.359375 2.234375 -15.046875 C 2.460938 -15.367188 2.671875 -15.738281 2.859375 -16.15625 C 3.046875 -16.582031 3.210938 -16.988281 3.359375 -17.375 C 3.515625 -17.757812 3.625 -18.039062 3.6875 -18.21875 C 3.945312 -18.914062 4.179688 -19.617188 4.390625 -20.328125 C 4.597656 -21.035156 4.800781 -21.75 5 -22.46875 Z M 5 -22.46875 "/></g></g></g><g fill="#ffffff" fill-opacity="1"><g transform="translate(57.167392, 63.499967)"><g><path d="M 18.328125 -36.71875 C 18.046875 -36.300781 17.8125 -35.867188 17.625 -35.421875 C 17.4375 -34.984375 17.253906 -34.519531 17.078125 -34.03125 C 16.785156 -33.207031 16.519531 -32.378906 16.28125 -31.546875 C 16.050781 -30.710938 15.828125 -29.875 15.609375 -29.03125 C 15.140625 -27.132812 14.78125 -25.234375 14.53125 -23.328125 C 14.28125 -21.429688 13.988281 -19.535156 13.65625 -17.640625 C 13.644531 -17.492188 13.519531 -17.363281 13.28125 -17.25 C 13.15625 -17.15625 13.003906 -17.082031 12.828125 -17.03125 C 12.648438 -16.988281 12.484375 -16.96875 12.328125 -16.96875 C 11.390625 -17 10.644531 -17.21875 10.09375 -17.625 C 9.539062 -18.039062 9.125 -18.59375 8.84375 -19.28125 C 8.5625 -19.96875 8.378906 -20.753906 8.296875 -21.640625 C 8.222656 -22.523438 8.191406 -23.441406 8.203125 -24.390625 C 8.210938 -24.847656 8.25 -25.46875 8.3125 -26.25 C 8.382812 -27.03125 8.460938 -27.882812 8.546875 -28.8125 C 8.640625 -29.738281 8.738281 -30.65625 8.84375 -31.5625 C 8.945312 -32.476562 9.039062 -33.289062 9.125 -34 C 9.03125 -33.875 8.945312 -33.742188 8.875 -33.609375 C 8.800781 -33.472656 8.734375 -33.351562 8.671875 -33.25 C 8.460938 -32.863281 8.265625 -32.46875 8.078125 -32.0625 C 7.898438 -31.65625 7.722656 -31.242188 7.546875 -30.828125 C 7.160156 -29.910156 6.800781 -28.984375 6.46875 -28.046875 C 6.144531 -27.117188 5.835938 -26.179688 5.546875 -25.234375 C 5.066406 -23.578125 4.640625 -21.898438 4.265625 -20.203125 C 3.898438 -18.503906 3.546875 -16.800781 3.203125 -15.09375 C 3.234375 -14.75 3.273438 -14.398438 3.328125 -14.046875 C 3.378906 -13.691406 3.414062 -13.40625 3.4375 -13.1875 C 3.46875 -12.976562 3.4375 -12.785156 3.34375 -12.609375 C 3.257812 -12.429688 3.078125 -12.210938 2.796875 -11.953125 C 2.578125 -11.753906 2.273438 -11.640625 1.890625 -11.609375 C 1.503906 -11.585938 1.179688 -11.648438 0.921875 -11.796875 C 0.566406 -11.992188 0.304688 -12.160156 0.140625 -12.296875 C -0.015625 -12.429688 -0.125 -12.597656 -0.1875 -12.796875 C -0.25 -13.003906 -0.3125 -13.300781 -0.375 -13.6875 C -0.4375 -14.1875 -0.492188 -14.679688 -0.546875 -15.171875 C -0.609375 -15.660156 -0.65625 -16.148438 -0.6875 -16.640625 C -0.738281 -17.578125 -0.757812 -18.515625 -0.75 -19.453125 C -0.75 -20.398438 -0.722656 -21.34375 -0.671875 -22.28125 C -0.640625 -22.625 -0.597656 -23.082031 -0.546875 -23.65625 C -0.503906 -24.226562 -0.445312 -24.867188 -0.375 -25.578125 C -0.3125 -26.296875 -0.234375 -27.03125 -0.140625 -27.78125 C -0.046875 -28.53125 0.0546875 -29.242188 0.171875 -29.921875 C 0.296875 -30.597656 0.414062 -31.191406 0.53125 -31.703125 C 0.65625 -32.210938 0.789062 -32.578125 0.9375 -32.796875 C 1.03125 -32.972656 1.207031 -33.125 1.46875 -33.25 C 1.738281 -33.382812 2.035156 -33.476562 2.359375 -33.53125 C 2.691406 -33.582031 3.007812 -33.59375 3.3125 -33.5625 C 3.613281 -33.539062 3.863281 -33.46875 4.0625 -33.34375 C 4.269531 -33.226562 4.367188 -33.050781 4.359375 -32.8125 C 4.347656 -32.394531 4.289062 -31.882812 4.1875 -31.28125 C 4.082031 -30.6875 3.96875 -30.078125 3.84375 -29.453125 C 3.726562 -28.828125 3.640625 -28.253906 3.578125 -27.734375 C 3.390625 -26.390625 3.253906 -25.078125 3.171875 -23.796875 C 3.273438 -24.171875 3.375 -24.539062 3.46875 -24.90625 C 3.5625 -25.269531 3.671875 -25.632812 3.796875 -26 C 4.117188 -27.050781 4.460938 -28.097656 4.828125 -29.140625 C 5.191406 -30.191406 5.5625 -31.191406 5.9375 -32.140625 C 6.3125 -33.097656 6.671875 -33.957031 7.015625 -34.71875 C 7.367188 -35.488281 7.679688 -36.113281 7.953125 -36.59375 C 8.222656 -37.082031 8.441406 -37.382812 8.609375 -37.5 C 8.921875 -37.707031 9.289062 -37.8125 9.71875 -37.8125 C 10.144531 -37.820312 10.566406 -37.75 10.984375 -37.59375 C 11.410156 -37.4375 11.785156 -37.207031 12.109375 -36.90625 C 12.429688 -36.613281 12.660156 -36.265625 12.796875 -35.859375 C 12.953125 -35.378906 12.992188 -34.957031 12.921875 -34.59375 C 12.847656 -34.238281 12.78125 -33.816406 12.71875 -33.328125 C 12.65625 -32.734375 12.578125 -32.144531 12.484375 -31.5625 C 12.390625 -30.988281 12.296875 -30.410156 12.203125 -29.828125 C 12.023438 -28.679688 11.875 -27.523438 11.75 -26.359375 C 11.625 -25.191406 11.609375 -24.03125 11.703125 -22.875 C 11.722656 -22.601562 11.753906 -22.328125 11.796875 -22.046875 C 11.847656 -21.765625 11.898438 -21.492188 11.953125 -21.234375 C 12.148438 -23.410156 12.519531 -25.578125 13.0625 -27.734375 C 13.601562 -29.898438 14.191406 -32 14.828125 -34.03125 C 14.929688 -34.363281 15.070312 -34.785156 15.25 -35.296875 C 15.425781 -35.816406 15.628906 -36.359375 15.859375 -36.921875 C 16.097656 -37.492188 16.375 -38.039062 16.6875 -38.5625 C 17 -39.082031 17.34375 -39.507812 17.71875 -39.84375 C 18 -40.101562 18.351562 -40.203125 18.78125 -40.140625 C 19.21875 -40.078125 19.65625 -39.90625 20.09375 -39.625 C 20.539062 -39.351562 20.925781 -39.03125 21.25 -38.65625 C 21.570312 -38.28125 21.757812 -37.910156 21.8125 -37.546875 C 21.863281 -36.503906 21.847656 -35.300781 21.765625 -33.9375 C 21.679688 -32.570312 21.554688 -31.113281 21.390625 -29.5625 C 21.234375 -28.007812 21.066406 -26.40625 20.890625 -24.75 C 20.710938 -23.101562 20.5625 -21.46875 20.4375 -19.84375 C 20.3125 -18.226562 20.242188 -16.675781 20.234375 -15.1875 C 20.234375 -13.695312 20.3125 -12.328125 20.46875 -11.078125 C 20.632812 -9.828125 20.921875 -8.75 21.328125 -7.84375 C 21.734375 -6.9375 22.285156 -6.269531 22.984375 -5.84375 C 23.117188 -5.78125 23.140625 -5.695312 23.046875 -5.59375 C 22.953125 -5.5 22.828125 -5.414062 22.671875 -5.34375 C 22.515625 -5.269531 22.40625 -5.226562 22.34375 -5.21875 C 21.394531 -5.082031 20.582031 -5.179688 19.90625 -5.515625 C 19.226562 -5.847656 18.671875 -6.34375 18.234375 -7 C 17.804688 -7.65625 17.476562 -8.410156 17.25 -9.265625 C 17.082031 -9.816406 16.972656 -10.578125 16.921875 -11.546875 C 16.867188 -12.523438 16.859375 -13.640625 16.890625 -14.890625 C 16.929688 -16.140625 17 -17.472656 17.09375 -18.890625 C 17.1875 -20.304688 17.296875 -21.742188 17.421875 -23.203125 C 17.554688 -24.671875 17.679688 -26.101562 17.796875 -27.5 C 17.921875 -28.90625 18.03125 -30.21875 18.125 -31.4375 C 18.226562 -32.65625 18.300781 -33.71875 18.34375 -34.625 C 18.382812 -35.539062 18.378906 -36.238281 18.328125 -36.71875 Z M 18.328125 -36.71875 "/></g></g></g><g fill="#ffffff" fill-opacity="1"><g transform="translate(82.633652, 63.499967)"><g><path d="M 21.703125 -24.15625 C 20.703125 -24.03125 19.722656 -23.773438 18.765625 -23.390625 C 17.804688 -23.015625 16.894531 -22.539062 16.03125 -21.96875 C 16.019531 -20.976562 15.953125 -19.992188 15.828125 -19.015625 C 15.703125 -18.046875 15.53125 -17.09375 15.3125 -16.15625 C 15.164062 -15.53125 15 -14.828125 14.8125 -14.046875 C 14.625 -13.273438 14.382812 -12.503906 14.09375 -11.734375 C 13.800781 -10.972656 13.441406 -10.273438 13.015625 -9.640625 C 12.597656 -9.003906 12.082031 -8.515625 11.46875 -8.171875 C 10.9375 -7.867188 10.390625 -7.695312 9.828125 -7.65625 C 9.273438 -7.613281 8.769531 -7.703125 8.3125 -7.921875 C 7.851562 -8.140625 7.476562 -8.460938 7.1875 -8.890625 C 6.90625 -9.316406 6.75 -9.847656 6.71875 -10.484375 C 6.695312 -11.441406 6.820312 -12.382812 7.09375 -13.3125 C 7.363281 -14.238281 7.742188 -15.128906 8.234375 -15.984375 C 8.722656 -16.847656 9.253906 -17.640625 9.828125 -18.359375 C 10.203125 -18.828125 10.597656 -19.289062 11.015625 -19.75 C 11.441406 -20.207031 11.898438 -20.644531 12.390625 -21.0625 C 12.398438 -21.25 12.40625 -21.441406 12.40625 -21.640625 C 12.414062 -21.835938 12.421875 -22.023438 12.421875 -22.203125 C 12.429688 -22.898438 12.429688 -23.628906 12.421875 -24.390625 C 12.410156 -25.160156 12.34375 -25.914062 12.21875 -26.65625 C 12.09375 -27.40625 11.851562 -28.082031 11.5 -28.6875 C 11.476562 -28.757812 11.425781 -28.863281 11.34375 -29 C 11.257812 -29.144531 11.171875 -29.28125 11.078125 -29.40625 C 10.984375 -29.539062 10.90625 -29.613281 10.84375 -29.625 C 10.695312 -29.664062 10.515625 -29.601562 10.296875 -29.4375 C 10.078125 -29.28125 9.867188 -29.097656 9.671875 -28.890625 C 9.484375 -28.679688 9.351562 -28.535156 9.28125 -28.453125 C 8.914062 -28.054688 8.585938 -27.625 8.296875 -27.15625 C 8.003906 -26.695312 7.734375 -26.21875 7.484375 -25.71875 C 6.960938 -24.71875 6.519531 -23.679688 6.15625 -22.609375 C 5.800781 -21.535156 5.515625 -20.4375 5.296875 -19.3125 C 5.085938 -18.1875 4.929688 -17.050781 4.828125 -15.90625 C 4.722656 -14.769531 4.648438 -13.628906 4.609375 -12.484375 C 4.566406 -11.378906 4.539062 -10.257812 4.53125 -9.125 C 4.53125 -8 4.660156 -6.898438 4.921875 -5.828125 C 4.972656 -5.597656 4.914062 -5.414062 4.75 -5.28125 C 4.59375 -5.15625 4.367188 -5.070312 4.078125 -5.03125 C 3.796875 -4.988281 3.5 -4.972656 3.1875 -4.984375 C 2.875 -4.992188 2.585938 -5.03125 2.328125 -5.09375 C 2.078125 -5.164062 1.90625 -5.253906 1.8125 -5.359375 C 1.21875 -6.035156 0.765625 -6.804688 0.453125 -7.671875 C 0.140625 -8.546875 -0.0859375 -9.453125 -0.234375 -10.390625 C -0.378906 -11.328125 -0.5 -12.226562 -0.59375 -13.09375 C -0.75 -14.707031 -0.859375 -16.328125 -0.921875 -17.953125 C -0.984375 -19.578125 -1.007812 -21.195312 -1 -22.8125 C -0.988281 -25.625 -0.875 -28.460938 -0.65625 -31.328125 C -0.4375 -34.191406 -0.0078125 -37 0.625 -39.75 C 0.914062 -40.9375 1.242188 -42.128906 1.609375 -43.328125 C 1.984375 -44.535156 2.46875 -45.671875 3.0625 -46.734375 C 3.351562 -47.242188 3.695312 -47.765625 4.09375 -48.296875 C 4.5 -48.835938 4.960938 -49.300781 5.484375 -49.6875 C 6.003906 -50.082031 6.578125 -50.316406 7.203125 -50.390625 C 7.566406 -50.429688 7.945312 -50.414062 8.34375 -50.34375 C 8.75 -50.269531 9.066406 -50.082031 9.296875 -49.78125 C 9.515625 -49.507812 9.644531 -49.078125 9.6875 -48.484375 C 9.726562 -47.890625 9.707031 -47.210938 9.625 -46.453125 C 9.539062 -45.691406 9.421875 -44.910156 9.265625 -44.109375 C 9.109375 -43.304688 8.941406 -42.5625 8.765625 -41.875 C 8.597656 -41.1875 8.453125 -40.613281 8.328125 -40.15625 C 7.710938 -38.101562 6.945312 -36.050781 6.03125 -34 C 5.113281 -31.945312 4.019531 -30.03125 2.75 -28.25 C 2.71875 -27.394531 2.691406 -26.539062 2.671875 -25.6875 C 2.648438 -24.84375 2.632812 -23.992188 2.625 -23.140625 C 2.601562 -22.429688 2.597656 -21.71875 2.609375 -21 C 2.628906 -20.28125 2.644531 -19.554688 2.65625 -18.828125 C 2.914062 -20.210938 3.253906 -21.566406 3.671875 -22.890625 C 4.097656 -24.222656 4.648438 -25.5 5.328125 -26.71875 C 5.660156 -27.320312 6.015625 -27.90625 6.390625 -28.46875 C 6.773438 -29.03125 7.203125 -29.53125 7.671875 -29.96875 C 8.140625 -30.414062 8.671875 -30.765625 9.265625 -31.015625 C 9.867188 -31.265625 10.550781 -31.367188 11.3125 -31.328125 C 12.21875 -31.273438 12.96875 -31.023438 13.5625 -30.578125 C 14.15625 -30.140625 14.617188 -29.578125 14.953125 -28.890625 C 15.296875 -28.203125 15.539062 -27.445312 15.6875 -26.625 C 15.78125 -26.125 15.851562 -25.617188 15.90625 -25.109375 C 15.957031 -24.609375 15.992188 -24.109375 16.015625 -23.609375 C 16.890625 -24.078125 17.785156 -24.453125 18.703125 -24.734375 C 19.628906 -25.023438 20.570312 -25.1875 21.53125 -25.21875 C 21.894531 -25.226562 22.132812 -25.148438 22.25 -24.984375 C 22.363281 -24.828125 22.367188 -24.660156 22.265625 -24.484375 C 22.171875 -24.304688 21.984375 -24.195312 21.703125 -24.15625 Z M 4.421875 -40.84375 C 4.054688 -39.289062 3.757812 -37.71875 3.53125 -36.125 C 3.300781 -34.539062 3.113281 -32.945312 2.96875 -31.34375 C 3.832031 -33.050781 4.617188 -34.785156 5.328125 -36.546875 C 6.035156 -38.304688 6.59375 -40.148438 7 -42.078125 C 7.132812 -42.765625 7.253906 -43.445312 7.359375 -44.125 C 7.460938 -44.8125 7.539062 -45.5 7.59375 -46.1875 C 7.625 -46.445312 7.648438 -46.710938 7.671875 -46.984375 C 7.691406 -47.253906 7.710938 -47.519531 7.734375 -47.78125 C 7.734375 -48 7.738281 -48.195312 7.75 -48.375 C 7.769531 -48.5625 7.765625 -48.71875 7.734375 -48.84375 C 7.679688 -48.789062 7.613281 -48.71875 7.53125 -48.625 C 7.445312 -48.539062 7.359375 -48.429688 7.265625 -48.296875 C 6.753906 -47.617188 6.320312 -46.859375 5.96875 -46.015625 C 5.613281 -45.171875 5.3125 -44.300781 5.0625 -43.40625 C 4.820312 -42.519531 4.609375 -41.664062 4.421875 -40.84375 Z M 11.546875 -14.765625 C 11.816406 -16.003906 12.03125 -17.234375 12.1875 -18.453125 C 11.625 -17.773438 11.125 -17.066406 10.6875 -16.328125 C 10.425781 -15.890625 10.164062 -15.367188 9.90625 -14.765625 C 9.644531 -14.171875 9.425781 -13.550781 9.25 -12.90625 C 9.082031 -12.257812 8.992188 -11.644531 8.984375 -11.0625 C 8.972656 -10.488281 9.078125 -10 9.296875 -9.59375 C 9.328125 -9.539062 9.410156 -9.578125 9.546875 -9.703125 C 9.691406 -9.828125 9.851562 -10.023438 10.03125 -10.296875 C 10.207031 -10.566406 10.359375 -10.890625 10.484375 -11.265625 C 10.671875 -11.835938 10.859375 -12.414062 11.046875 -13 C 11.242188 -13.582031 11.410156 -14.171875 11.546875 -14.765625 Z M 11.546875 -14.765625 "/></g></g></g><g fill="#ffffff" fill-opacity="1"><g transform="translate(104.154986, 63.499967)"><g><path d="M 15.640625 -27.5 C 15.660156 -27.5625 15.738281 -27.597656 15.875 -27.609375 C 16.019531 -27.628906 16.164062 -27.625 16.3125 -27.59375 C 16.457031 -27.570312 16.519531 -27.53125 16.5 -27.46875 C 16.3125 -25.832031 16.050781 -24.195312 15.71875 -22.5625 C 15.382812 -20.9375 14.9375 -19.347656 14.375 -17.796875 C 14.164062 -17.210938 13.929688 -16.613281 13.671875 -16 C 13.410156 -15.394531 13.09375 -14.859375 12.71875 -14.390625 C 12.351562 -13.921875 11.894531 -13.585938 11.34375 -13.390625 C 10.800781 -13.191406 10.140625 -13.195312 9.359375 -13.40625 C 8.722656 -13.582031 8.222656 -13.914062 7.859375 -14.40625 C 7.492188 -14.90625 7.222656 -15.492188 7.046875 -16.171875 C 6.867188 -16.847656 6.75 -17.539062 6.6875 -18.25 C 6.550781 -17.832031 6.40625 -17.414062 6.25 -17 C 6.101562 -16.59375 5.941406 -16.191406 5.765625 -15.796875 C 5.523438 -15.265625 5.238281 -14.757812 4.90625 -14.28125 C 4.582031 -13.8125 4.207031 -13.414062 3.78125 -13.09375 C 3.351562 -12.78125 2.875 -12.578125 2.34375 -12.484375 C 1.820312 -12.398438 1.238281 -12.484375 0.59375 -12.734375 C 0.03125 -12.953125 -0.414062 -13.28125 -0.75 -13.71875 C -1.09375 -14.15625 -1.351562 -14.644531 -1.53125 -15.1875 C -1.707031 -15.738281 -1.832031 -16.304688 -1.90625 -16.890625 C -1.976562 -17.484375 -2.023438 -18.039062 -2.046875 -18.5625 C -2.128906 -19.945312 -2.09375 -21.328125 -1.9375 -22.703125 C -1.78125 -24.078125 -1.519531 -25.4375 -1.15625 -26.78125 C -1 -27.351562 -0.816406 -27.96875 -0.609375 -28.625 C -0.410156 -29.28125 -0.175781 -29.929688 0.09375 -30.578125 C 0.375 -31.222656 0.695312 -31.820312 1.0625 -32.375 C 1.425781 -32.9375 1.851562 -33.414062 2.34375 -33.8125 C 2.71875 -34.113281 3.148438 -34.34375 3.640625 -34.5 C 4.140625 -34.664062 4.648438 -34.75 5.171875 -34.75 C 5.691406 -34.75 6.191406 -34.660156 6.671875 -34.484375 C 7.160156 -34.304688 7.570312 -34.03125 7.90625 -33.65625 C 7.9375 -33.625 7.960938 -33.59375 7.984375 -33.5625 C 8.015625 -33.53125 8.039062 -33.492188 8.0625 -33.453125 C 8.445312 -33.554688 8.835938 -33.59375 9.234375 -33.5625 C 9.640625 -33.539062 9.984375 -33.453125 10.265625 -33.296875 C 10.546875 -33.140625 10.671875 -32.921875 10.640625 -32.640625 C 10.515625 -30.828125 10.394531 -29 10.28125 -27.15625 C 10.175781 -25.3125 10.148438 -23.472656 10.203125 -21.640625 C 10.253906 -19.816406 10.453125 -18.007812 10.796875 -16.21875 C 10.816406 -16.082031 10.84375 -15.945312 10.875 -15.8125 C 10.90625 -15.675781 10.941406 -15.539062 10.984375 -15.40625 C 11.117188 -15.582031 11.25 -15.753906 11.375 -15.921875 C 11.5 -16.085938 11.613281 -16.253906 11.71875 -16.421875 C 12.082031 -16.960938 12.410156 -17.507812 12.703125 -18.0625 C 12.992188 -18.625 13.265625 -19.195312 13.515625 -19.78125 C 14.046875 -21.019531 14.484375 -22.28125 14.828125 -23.5625 C 15.179688 -24.84375 15.453125 -26.15625 15.640625 -27.5 Z M 5 -22.46875 C 5.351562 -23.695312 5.640625 -24.941406 5.859375 -26.203125 C 6.078125 -27.460938 6.289062 -28.722656 6.5 -29.984375 C 6.414062 -30.242188 6.300781 -30.5 6.15625 -30.75 C 6.019531 -30.96875 5.894531 -31.1875 5.78125 -31.40625 C 5.664062 -31.625 5.535156 -31.835938 5.390625 -32.046875 C 5.335938 -32.128906 5.28125 -32.207031 5.21875 -32.28125 C 5.164062 -32.363281 5.109375 -32.441406 5.046875 -32.515625 C 4.953125 -32.378906 4.863281 -32.238281 4.78125 -32.09375 C 4.695312 -31.945312 4.613281 -31.800781 4.53125 -31.65625 C 4.40625 -31.4375 4.28125 -31.207031 4.15625 -30.96875 C 4.039062 -30.726562 3.929688 -30.484375 3.828125 -30.234375 C 3.359375 -29.222656 2.96875 -28.1875 2.65625 -27.125 C 2.300781 -25.976562 2.035156 -24.800781 1.859375 -23.59375 C 1.691406 -22.394531 1.609375 -21.195312 1.609375 -20 C 1.609375 -19.46875 1.617188 -18.929688 1.640625 -18.390625 C 1.671875 -17.847656 1.726562 -17.3125 1.8125 -16.78125 C 1.84375 -16.625 1.890625 -16.375 1.953125 -16.03125 C 2.015625 -15.6875 2.109375 -15.359375 2.234375 -15.046875 C 2.460938 -15.367188 2.671875 -15.738281 2.859375 -16.15625 C 3.046875 -16.582031 3.210938 -16.988281 3.359375 -17.375 C 3.515625 -17.757812 3.625 -18.039062 3.6875 -18.21875 C 3.945312 -18.914062 4.179688 -19.617188 4.390625 -20.328125 C 4.597656 -21.035156 4.800781 -21.75 5 -22.46875 Z M 5 -22.46875 "/></g></g></g><g fill="#ffffff" fill-opacity="1"><g transform="translate(119.91517, 63.499967)"><g><path d="M 19.140625 -25.796875 C 18.503906 -24.015625 17.75 -22.328125 16.875 -20.734375 C 16 -19.140625 15.054688 -17.59375 14.046875 -16.09375 C 14.097656 -16 14.148438 -15.90625 14.203125 -15.8125 C 14.253906 -15.726562 14.304688 -15.632812 14.359375 -15.53125 C 14.734375 -14.8125 14.976562 -14.050781 15.09375 -13.25 C 15.21875 -12.445312 15.253906 -11.632812 15.203125 -10.8125 C 15.148438 -9.988281 15.046875 -9.164062 14.890625 -8.34375 C 14.734375 -7.53125 14.5625 -6.753906 14.375 -6.015625 C 13.96875 -4.328125 13.429688 -2.648438 12.765625 -0.984375 C 12.109375 0.671875 11.316406 2.203125 10.390625 3.609375 C 9.554688 4.859375 8.585938 6.015625 7.484375 7.078125 C 6.390625 8.148438 5.1875 8.96875 3.875 9.53125 C 3.4375 9.695312 2.976562 9.820312 2.5 9.90625 C 2.019531 10 1.554688 10 1.109375 9.90625 C 0.671875 9.820312 0.296875 9.617188 -0.015625 9.296875 C -0.328125 8.972656 -0.523438 8.484375 -0.609375 7.828125 C -0.703125 7.140625 -0.648438 6.457031 -0.453125 5.78125 C -0.253906 5.101562 -0.0351562 4.457031 0.203125 3.84375 C 0.492188 2.988281 0.835938 2.148438 1.234375 1.328125 C 1.640625 0.503906 2.050781 -0.300781 2.46875 -1.09375 C 3.269531 -2.5625 4.125 -3.992188 5.03125 -5.390625 C 5.9375 -6.785156 6.882812 -8.15625 7.875 -9.5 C 8.488281 -10.3125 9.097656 -11.125 9.703125 -11.9375 C 10.316406 -12.757812 10.925781 -13.578125 11.53125 -14.390625 C 11.320312 -14.929688 11.046875 -15.410156 10.703125 -15.828125 C 10.222656 -16.429688 9.738281 -16.726562 9.25 -16.71875 C 8.769531 -16.707031 8.242188 -16.488281 7.671875 -16.0625 C 7.203125 -15.707031 6.773438 -15.335938 6.390625 -14.953125 C 6.015625 -14.566406 5.632812 -14.179688 5.25 -13.796875 C 4.925781 -13.148438 4.5625 -12.523438 4.15625 -11.921875 C 3.757812 -11.328125 3.285156 -10.890625 2.734375 -10.609375 C 2.585938 -10.546875 2.375 -10.488281 2.09375 -10.4375 C 1.820312 -10.382812 1.554688 -10.382812 1.296875 -10.4375 C 1.035156 -10.488281 0.859375 -10.632812 0.765625 -10.875 C 0.628906 -11.28125 0.632812 -11.664062 0.78125 -12.03125 C 0.925781 -12.394531 1.117188 -12.742188 1.359375 -13.078125 C 1.597656 -13.421875 1.8125 -13.753906 2 -14.078125 C 2.363281 -14.703125 2.71875 -15.335938 3.0625 -15.984375 C 3.40625 -16.628906 3.726562 -17.28125 4.03125 -17.9375 C 4.675781 -19.289062 5.226562 -20.695312 5.6875 -22.15625 C 6.15625 -23.613281 6.453125 -25.109375 6.578125 -26.640625 C 6.648438 -27.359375 6.675781 -28.09375 6.65625 -28.84375 C 6.632812 -29.59375 6.546875 -30.304688 6.390625 -30.984375 C 6.359375 -31.097656 6.296875 -31.257812 6.203125 -31.46875 C 6.117188 -31.6875 6.007812 -31.875 5.875 -32.03125 C 5.738281 -32.195312 5.578125 -32.25 5.390625 -32.1875 C 5.140625 -32.132812 4.863281 -31.976562 4.5625 -31.71875 C 4.269531 -31.46875 4.046875 -31.238281 3.890625 -31.03125 C 3.640625 -30.71875 3.363281 -30.304688 3.0625 -29.796875 C 2.769531 -29.296875 2.472656 -28.757812 2.171875 -28.1875 C 1.867188 -27.625 1.585938 -27.09375 1.328125 -26.59375 C 1.078125 -26.101562 0.878906 -25.695312 0.734375 -25.375 C 0.585938 -25.0625 0.515625 -24.90625 0.515625 -24.90625 C 0.421875 -24.820312 0.269531 -24.8125 0.0625 -24.875 C -0.132812 -24.945312 -0.316406 -25.066406 -0.484375 -25.234375 C -0.660156 -25.398438 -0.75 -25.585938 -0.75 -25.796875 C -0.75 -26.347656 -0.644531 -26.972656 -0.4375 -27.671875 C -0.226562 -28.367188 0.03125 -29.054688 0.34375 -29.734375 C 0.664062 -30.421875 0.988281 -31.035156 1.3125 -31.578125 C 1.644531 -32.128906 1.9375 -32.539062 2.1875 -32.8125 C 2.75 -33.425781 3.375 -33.878906 4.0625 -34.171875 C 4.75 -34.472656 5.4375 -34.601562 6.125 -34.5625 C 6.8125 -34.53125 7.429688 -34.316406 7.984375 -33.921875 C 8.546875 -33.523438 8.984375 -32.9375 9.296875 -32.15625 C 9.640625 -31.300781 9.84375 -30.382812 9.90625 -29.40625 C 9.976562 -28.4375 9.957031 -27.441406 9.84375 -26.421875 C 9.726562 -25.410156 9.546875 -24.421875 9.296875 -23.453125 C 9.046875 -22.492188 8.78125 -21.601562 8.5 -20.78125 C 8.382812 -20.414062 8.253906 -20.054688 8.109375 -19.703125 C 7.972656 -19.359375 7.835938 -19.015625 7.703125 -18.671875 C 8.703125 -18.910156 9.703125 -18.90625 10.703125 -18.65625 C 11.703125 -18.414062 12.582031 -17.875 13.34375 -17.03125 C 14.238281 -18.382812 15.066406 -19.796875 15.828125 -21.265625 C 16.585938 -22.742188 17.21875 -24.316406 17.71875 -25.984375 C 17.757812 -26.117188 17.863281 -26.210938 18.03125 -26.265625 C 18.195312 -26.316406 18.375 -26.332031 18.5625 -26.3125 C 18.75 -26.300781 18.90625 -26.25 19.03125 -26.15625 C 19.15625 -26.0625 19.191406 -25.941406 19.140625 -25.796875 Z M 11.96875 -11.9375 C 11.96875 -12.3125 11.929688 -12.679688 11.859375 -13.046875 C 11.710938 -12.835938 11.5625 -12.628906 11.40625 -12.421875 C 11.257812 -12.222656 11.109375 -12.019531 10.953125 -11.8125 C 9.890625 -10.40625 8.835938 -8.976562 7.796875 -7.53125 C 6.765625 -6.082031 5.78125 -4.585938 4.84375 -3.046875 C 3.914062 -1.515625 3.082031 0.0859375 2.34375 1.765625 C 2.238281 1.992188 2.09375 2.332031 1.90625 2.78125 C 1.71875 3.226562 1.523438 3.726562 1.328125 4.28125 C 1.128906 4.84375 0.96875 5.394531 0.84375 5.9375 C 0.726562 6.488281 0.675781 6.976562 0.6875 7.40625 C 0.695312 7.84375 0.816406 8.175781 1.046875 8.40625 C 1.273438 8.632812 1.648438 8.695312 2.171875 8.59375 C 2.941406 8.4375 3.691406 8.039062 4.421875 7.40625 C 5.160156 6.78125 5.859375 5.984375 6.515625 5.015625 C 7.179688 4.054688 7.800781 2.988281 8.375 1.8125 C 8.945312 0.632812 9.460938 -0.585938 9.921875 -1.859375 C 10.378906 -3.128906 10.765625 -4.382812 11.078125 -5.625 C 11.398438 -6.875 11.640625 -8.039062 11.796875 -9.125 C 11.953125 -10.207031 12.007812 -11.144531 11.96875 -11.9375 Z M 11.96875 -11.9375 "/></g></g></g><g fill="#ffffff" fill-opacity="1"><g transform="translate(138.27275, 63.499967)"><g><path d="M 14.109375 -26.5625 C 14.171875 -26.695312 14.269531 -26.773438 14.40625 -26.796875 C 14.550781 -26.828125 14.671875 -26.800781 14.765625 -26.71875 C 14.867188 -26.644531 14.890625 -26.519531 14.828125 -26.34375 C 14.660156 -25.09375 14.171875 -24.0625 13.359375 -23.25 C 12.554688 -22.4375 11.457031 -21.757812 10.0625 -21.21875 C 9.90625 -20.132812 9.679688 -19.0625 9.390625 -18 C 9.109375 -16.945312 8.757812 -15.984375 8.34375 -15.109375 C 7.925781 -14.234375 7.4375 -13.523438 6.875 -12.984375 C 6.3125 -12.441406 5.675781 -12.148438 4.96875 -12.109375 C 4.15625 -12.054688 3.445312 -12.1875 2.84375 -12.5 C 2.238281 -12.820312 1.71875 -13.269531 1.28125 -13.84375 C 0.851562 -14.414062 0.492188 -15.070312 0.203125 -15.8125 C -0.078125 -16.5625 -0.296875 -17.332031 -0.453125 -18.125 C -0.617188 -18.914062 -0.742188 -19.6875 -0.828125 -20.4375 C -0.910156 -21.1875 -0.960938 -21.867188 -0.984375 -22.484375 C -1.003906 -23.097656 -1.007812 -23.578125 -1 -23.921875 C -1 -24.078125 -0.984375 -24.222656 -0.953125 -24.359375 C -0.929688 -24.503906 -0.898438 -24.628906 -0.859375 -24.734375 C -1.097656 -25.628906 -1.160156 -26.5625 -1.046875 -27.53125 C -0.929688 -28.507812 -0.671875 -29.460938 -0.265625 -30.390625 C 0.128906 -31.316406 0.648438 -32.144531 1.296875 -32.875 C 1.921875 -33.570312 2.585938 -34.035156 3.296875 -34.265625 C 4.015625 -34.503906 4.71875 -34.539062 5.40625 -34.375 C 6.101562 -34.21875 6.71875 -33.90625 7.25 -33.4375 C 8.519531 -32.320312 9.394531 -30.921875 9.875 -29.234375 C 10.363281 -27.546875 10.5 -25.5 10.28125 -23.09375 C 10.28125 -23.007812 10.273438 -22.925781 10.265625 -22.84375 C 10.253906 -22.757812 10.242188 -22.671875 10.234375 -22.578125 C 10.910156 -22.796875 11.546875 -23.082031 12.140625 -23.4375 C 12.734375 -23.789062 13.210938 -24.226562 13.578125 -24.75 C 13.941406 -25.269531 14.117188 -25.875 14.109375 -26.5625 Z M 2.03125 -29.890625 C 1.957031 -29.609375 1.863281 -29.21875 1.75 -28.71875 C 1.632812 -28.226562 1.550781 -27.691406 1.5 -27.109375 C 1.445312 -26.523438 1.457031 -25.953125 1.53125 -25.390625 C 1.738281 -25.265625 1.898438 -25.113281 2.015625 -24.9375 C 2.140625 -24.757812 2.210938 -24.5625 2.234375 -24.34375 C 2.234375 -24.257812 2.234375 -24.148438 2.234375 -24.015625 C 2.234375 -23.890625 2.234375 -23.738281 2.234375 -23.5625 C 2.253906 -23.539062 2.269531 -23.519531 2.28125 -23.5 C 2.300781 -23.488281 2.316406 -23.46875 2.328125 -23.4375 C 2.753906 -22.96875 3.410156 -22.609375 4.296875 -22.359375 C 5.179688 -22.117188 6.160156 -22.015625 7.234375 -22.046875 C 7.304688 -22.773438 7.34375 -23.390625 7.34375 -23.890625 C 7.375 -24.710938 7.378906 -25.578125 7.359375 -26.484375 C 7.347656 -27.398438 7.273438 -28.300781 7.140625 -29.1875 C 7.003906 -30.070312 6.75 -30.882812 6.375 -31.625 C 5.988281 -32.394531 5.59375 -32.878906 5.1875 -33.078125 C 4.78125 -33.273438 4.378906 -33.253906 3.984375 -33.015625 C 3.597656 -32.785156 3.234375 -32.390625 2.890625 -31.828125 C 2.554688 -31.273438 2.269531 -30.628906 2.03125 -29.890625 Z M 4.828125 -14.3125 C 5.128906 -14.34375 5.394531 -14.535156 5.625 -14.890625 C 5.863281 -15.253906 6.070312 -15.726562 6.25 -16.3125 C 6.4375 -16.90625 6.59375 -17.554688 6.71875 -18.265625 C 6.851562 -18.984375 6.960938 -19.691406 7.046875 -20.390625 C 6.203125 -20.265625 5.378906 -20.234375 4.578125 -20.296875 C 3.773438 -20.359375 3.050781 -20.535156 2.40625 -20.828125 C 2.46875 -20.078125 2.554688 -19.316406 2.671875 -18.546875 C 2.796875 -17.785156 2.953125 -17.078125 3.140625 -16.421875 C 3.328125 -15.773438 3.554688 -15.253906 3.828125 -14.859375 C 4.097656 -14.472656 4.429688 -14.289062 4.828125 -14.3125 Z M 4.828125 -14.3125 "/></g></g></g><g fill="#ffffff" fill-opacity="1"><g transform="translate(152.197176, 63.499967)"><g><path d="M 10.390625 -23.75 C 10.328125 -23.632812 10.164062 -23.550781 9.90625 -23.5 C 9.65625 -23.445312 9.378906 -23.429688 9.078125 -23.453125 C 8.785156 -23.472656 8.539062 -23.53125 8.34375 -23.625 C 8.144531 -23.71875 8.070312 -23.851562 8.125 -24.03125 C 8.28125 -24.582031 8.429688 -25.207031 8.578125 -25.90625 C 8.722656 -26.601562 8.8125 -27.316406 8.84375 -28.046875 C 8.882812 -28.785156 8.84375 -29.5 8.71875 -30.1875 C 8.59375 -30.882812 8.347656 -31.519531 7.984375 -32.09375 C 7.617188 -32.664062 7.09375 -33.128906 6.40625 -33.484375 C 6 -33.691406 5.675781 -33.773438 5.4375 -33.734375 C 5.195312 -33.703125 4.910156 -33.550781 4.578125 -33.28125 C 4.128906 -32.914062 3.742188 -32.460938 3.421875 -31.921875 C 3.097656 -31.378906 2.835938 -30.835938 2.640625 -30.296875 C 2.191406 -29.015625 2.101562 -27.726562 2.375 -26.4375 C 2.65625 -25.144531 3.234375 -23.988281 4.109375 -22.96875 C 4.503906 -22.5 4.945312 -22.082031 5.4375 -21.71875 C 5.925781 -21.363281 6.425781 -21.023438 6.9375 -20.703125 C 7.457031 -20.390625 7.960938 -20.0625 8.453125 -19.71875 C 8.941406 -19.382812 9.394531 -19 9.8125 -18.5625 C 10.34375 -18 10.695312 -17.390625 10.875 -16.734375 C 11.0625 -16.078125 11.046875 -15.4375 10.828125 -14.8125 C 10.617188 -14.195312 10.1875 -13.660156 9.53125 -13.203125 C 8.9375 -12.785156 8.273438 -12.484375 7.546875 -12.296875 C 6.816406 -12.109375 6.09375 -11.992188 5.375 -11.953125 C 4.21875 -11.898438 3.164062 -12.050781 2.21875 -12.40625 C 1.269531 -12.769531 0.5 -13.34375 -0.09375 -14.125 C -0.6875 -14.90625 -1.046875 -15.894531 -1.171875 -17.09375 C -1.203125 -17.351562 -1.097656 -17.5625 -0.859375 -17.71875 C -0.628906 -17.882812 -0.332031 -18 0.03125 -18.0625 C 0.40625 -18.132812 0.773438 -18.148438 1.140625 -18.109375 C 1.515625 -18.066406 1.832031 -17.96875 2.09375 -17.8125 C 2.363281 -17.65625 2.515625 -17.441406 2.546875 -17.171875 C 2.597656 -16.710938 2.703125 -16.234375 2.859375 -15.734375 C 3.015625 -15.242188 3.25 -14.820312 3.5625 -14.46875 C 3.882812 -14.125 4.316406 -13.925781 4.859375 -13.875 C 5.203125 -13.84375 5.546875 -13.890625 5.890625 -14.015625 C 6.242188 -14.140625 6.546875 -14.320312 6.796875 -14.5625 C 7.054688 -14.8125 7.222656 -15.125 7.296875 -15.5 C 7.367188 -15.875 7.300781 -16.296875 7.09375 -16.765625 C 6.925781 -17.160156 6.679688 -17.5 6.359375 -17.78125 C 6.035156 -18.070312 5.6875 -18.332031 5.3125 -18.5625 C 4.9375 -18.789062 4.570312 -19.015625 4.21875 -19.234375 C 3.726562 -19.546875 3.242188 -19.878906 2.765625 -20.234375 C 2.285156 -20.597656 1.835938 -20.984375 1.421875 -21.390625 C 0.609375 -22.191406 -0.0664062 -23.097656 -0.609375 -24.109375 C -1.148438 -25.128906 -1.445312 -26.226562 -1.5 -27.40625 C -1.539062 -28.34375 -1.425781 -29.265625 -1.15625 -30.171875 C -0.882812 -31.078125 -0.484375 -31.910156 0.046875 -32.671875 C 0.585938 -33.441406 1.222656 -34.085938 1.953125 -34.609375 C 2.691406 -35.128906 3.507812 -35.476562 4.40625 -35.65625 C 5.3125 -35.832031 6.257812 -35.789062 7.25 -35.53125 C 8.34375 -35.238281 9.226562 -34.773438 9.90625 -34.140625 C 10.59375 -33.515625 11.097656 -32.78125 11.421875 -31.9375 C 11.753906 -31.09375 11.921875 -30.191406 11.921875 -29.234375 C 11.929688 -28.285156 11.800781 -27.335938 11.53125 -26.390625 C 11.269531 -25.453125 10.890625 -24.570312 10.390625 -23.75 Z M 10.390625 -23.75 "/></g></g></g></svg>