<svg xmlns="http://www.w3.org/2000/svg" xmlns:xlink="http://www.w3.org/1999/xlink" width="1000" zoomAndPan="magnify" viewBox="0 0 750 74.999997" height="100" preserveAspectRatio="xMidYMid meet" version="1.0"><defs><g/></defs><g fill="#ffffff" fill-opacity="1"><g transform="translate(14.988295, 63.499974)"><g><path d="M 1.765625 -37.078125 C 0.953125 -37.109375 0.269531 -37.34375 -0.28125 -37.78125 C -0.832031 -38.21875 -1.273438 -38.789062 -1.609375 -39.5 C -1.941406 -40.207031 -2.1875 -40.988281 -2.34375 -41.84375 C -2.5 -42.695312 -2.582031 -43.5625 -2.59375 -44.4375 C -2.613281 -45.320312 -2.578125 -46.148438 -2.484375 -46.921875 C -2.316406 -48.390625 -1.972656 -49.8125 -1.453125 -51.1875 C -0.929688 -52.570312 -0.207031 -53.859375 0.71875 -55.046875 C 1.53125 -56.066406 2.476562 -56.882812 3.5625 -57.5 C 4.65625 -58.125 5.796875 -58.503906 6.984375 -58.640625 C 8.171875 -58.773438 9.34375 -58.644531 10.5 -58.25 C 11.65625 -57.851562 12.703125 -57.148438 13.640625 -56.140625 C 14.296875 -55.429688 14.832031 -54.65625 15.25 -53.8125 C 15.664062 -52.976562 16 -52.101562 16.25 -51.1875 C 16.507812 -50.28125 16.722656 -49.363281 16.890625 -48.4375 C 17.191406 -46.757812 17.441406 -45.066406 17.640625 -43.359375 C 17.847656 -41.648438 18.003906 -39.945312 18.109375 -38.25 C 18.128906 -37.644531 18.148438 -37.035156 18.171875 -36.421875 C 18.203125 -35.816406 18.226562 -35.207031 18.25 -34.59375 C 19.320312 -36.039062 20.394531 -37.484375 21.46875 -38.921875 C 22.550781 -40.367188 23.601562 -41.828125 24.625 -43.296875 C 25.238281 -44.179688 25.84375 -45.078125 26.4375 -45.984375 C 27.03125 -46.898438 27.585938 -47.835938 28.109375 -48.796875 C 28.203125 -50.054688 28.34375 -51.304688 28.53125 -52.546875 C 28.71875 -53.796875 29.003906 -55 29.390625 -56.15625 C 29.785156 -57.320312 30.320312 -58.421875 31 -59.453125 C 31.113281 -59.640625 31.320312 -59.785156 31.625 -59.890625 C 31.9375 -60.003906 32.273438 -60.078125 32.640625 -60.109375 C 33.003906 -60.140625 33.34375 -60.125 33.65625 -60.0625 C 33.976562 -60 34.21875 -59.878906 34.375 -59.703125 C 34.539062 -59.535156 34.566406 -59.3125 34.453125 -59.03125 C 34.148438 -58.25 33.84375 -57.46875 33.53125 -56.6875 C 33.21875 -55.914062 32.898438 -55.144531 32.578125 -54.375 C 32.328125 -53.289062 32.144531 -52.1875 32.03125 -51.0625 C 31.914062 -49.9375 31.832031 -48.8125 31.78125 -47.6875 C 31.726562 -46.5625 31.671875 -45.460938 31.609375 -44.390625 C 31.421875 -41.722656 31.269531 -39.054688 31.15625 -36.390625 C 31.050781 -33.722656 30.976562 -31.046875 30.9375 -28.359375 C 30.894531 -25.679688 30.890625 -23 30.921875 -20.3125 C 30.960938 -17.632812 31.035156 -14.953125 31.140625 -12.265625 C 31.160156 -11.472656 31.1875 -10.664062 31.21875 -9.84375 C 31.25 -9.019531 31.328125 -8.203125 31.453125 -7.390625 C 31.585938 -6.585938 31.804688 -5.8125 32.109375 -5.0625 C 32.253906 -4.707031 32.46875 -4.300781 32.75 -3.84375 C 33.03125 -3.394531 33.359375 -2.96875 33.734375 -2.5625 C 34.109375 -2.164062 34.515625 -1.867188 34.953125 -1.671875 C 35.398438 -1.472656 35.859375 -1.453125 36.328125 -1.609375 C 36.546875 -1.679688 36.820312 -1.726562 37.15625 -1.75 C 37.488281 -1.78125 37.816406 -1.765625 38.140625 -1.703125 C 38.472656 -1.640625 38.722656 -1.507812 38.890625 -1.3125 C 39.148438 -1 39.1875 -0.722656 39 -0.484375 C 38.8125 -0.253906 38.5625 -0.078125 38.25 0.046875 C 37.101562 0.429688 35.984375 0.550781 34.890625 0.40625 C 33.796875 0.269531 32.785156 -0.0859375 31.859375 -0.671875 C 30.941406 -1.253906 30.15625 -2 29.5 -2.90625 C 28.84375 -3.8125 28.363281 -4.820312 28.0625 -5.9375 C 27.695312 -7.34375 27.492188 -8.785156 27.453125 -10.265625 C 27.410156 -11.753906 27.367188 -13.222656 27.328125 -14.671875 C 27.273438 -16.222656 27.238281 -17.769531 27.21875 -19.3125 C 27.195312 -20.863281 27.1875 -22.410156 27.1875 -23.953125 C 27.1875 -27.140625 27.238281 -30.332031 27.34375 -33.53125 C 27.445312 -36.726562 27.597656 -39.921875 27.796875 -43.109375 C 27.835938 -43.773438 27.875 -44.457031 27.90625 -45.15625 C 27.800781 -45.007812 27.71875 -44.878906 27.65625 -44.765625 C 26.195312 -42.523438 24.660156 -40.335938 23.046875 -38.203125 C 21.429688 -36.066406 19.875 -33.894531 18.375 -31.6875 C 18.351562 -31.65625 18.332031 -31.617188 18.3125 -31.578125 C 18.289062 -31.546875 18.269531 -31.515625 18.25 -31.484375 C 18.207031 -29.234375 18.082031 -26.984375 17.875 -24.734375 C 17.664062 -22.492188 17.363281 -20.265625 16.96875 -18.046875 C 16.726562 -16.671875 16.425781 -15.296875 16.0625 -13.921875 C 15.695312 -12.546875 15.234375 -11.207031 14.671875 -9.90625 C 14.328125 -9.125 13.929688 -8.316406 13.484375 -7.484375 C 13.035156 -6.648438 12.519531 -5.867188 11.9375 -5.140625 C 11.351562 -4.410156 10.679688 -3.8125 9.921875 -3.34375 C 9.484375 -3.050781 8.972656 -2.8125 8.390625 -2.625 C 7.804688 -2.445312 7.210938 -2.34375 6.609375 -2.3125 C 6.003906 -2.289062 5.429688 -2.378906 4.890625 -2.578125 C 4.347656 -2.773438 3.890625 -3.109375 3.515625 -3.578125 C 3.097656 -4.109375 2.84375 -4.75 2.75 -5.5 C 2.664062 -6.25 2.703125 -7.066406 2.859375 -7.953125 C 3.023438 -8.835938 3.273438 -9.75 3.609375 -10.6875 C 3.941406 -11.632812 4.320312 -12.566406 4.75 -13.484375 C 5.175781 -14.398438 5.609375 -15.269531 6.046875 -16.09375 C 6.484375 -16.914062 6.890625 -17.648438 7.265625 -18.296875 C 7.640625 -18.941406 7.945312 -19.453125 8.1875 -19.828125 C 9.894531 -22.660156 11.691406 -25.429688 13.578125 -28.140625 C 13.722656 -28.367188 13.875 -28.585938 14.03125 -28.796875 C 14.1875 -29.015625 14.332031 -29.226562 14.46875 -29.4375 C 14.488281 -29.769531 14.5 -30.113281 14.5 -30.46875 C 14.507812 -30.820312 14.519531 -31.164062 14.53125 -31.5 C 14.570312 -34.28125 14.484375 -37.054688 14.265625 -39.828125 C 14.054688 -42.609375 13.71875 -45.367188 13.25 -48.109375 C 13.101562 -48.929688 12.925781 -49.757812 12.71875 -50.59375 C 12.519531 -51.425781 12.242188 -52.226562 11.890625 -53 C 11.546875 -53.769531 11.085938 -54.476562 10.515625 -55.125 C 9.660156 -56.0625 8.722656 -56.628906 7.703125 -56.828125 C 6.679688 -57.023438 5.648438 -56.71875 4.609375 -55.90625 C 3.671875 -55.15625 2.859375 -54.269531 2.171875 -53.25 C 1.484375 -52.226562 0.925781 -51.132812 0.5 -49.96875 C 0.0820312 -48.800781 -0.1875 -47.617188 -0.3125 -46.421875 C -0.414062 -45.472656 -0.457031 -44.535156 -0.4375 -43.609375 C -0.414062 -42.691406 -0.320312 -41.851562 -0.15625 -41.09375 C 0 -40.34375 0.234375 -39.734375 0.546875 -39.265625 C 0.867188 -38.796875 1.265625 -38.546875 1.734375 -38.515625 C 2.148438 -38.492188 2.507812 -38.640625 2.8125 -38.953125 C 3.113281 -39.265625 3.363281 -39.691406 3.5625 -40.234375 C 3.769531 -40.785156 3.929688 -41.390625 4.046875 -42.046875 C 4.171875 -42.710938 4.269531 -43.390625 4.34375 -44.078125 C 4.425781 -44.773438 4.492188 -45.421875 4.546875 -46.015625 C 4.597656 -46.617188 4.648438 -47.117188 4.703125 -47.515625 C 4.742188 -47.765625 4.878906 -47.941406 5.109375 -48.046875 C 5.347656 -48.148438 5.609375 -48.191406 5.890625 -48.171875 C 6.179688 -48.148438 6.429688 -48.070312 6.640625 -47.9375 C 6.859375 -47.8125 6.96875 -47.632812 6.96875 -47.40625 C 6.957031 -46.5625 6.894531 -45.660156 6.78125 -44.703125 C 6.664062 -43.742188 6.484375 -42.804688 6.234375 -41.890625 C 5.984375 -40.972656 5.65625 -40.144531 5.25 -39.40625 C 4.851562 -38.664062 4.367188 -38.082031 3.796875 -37.65625 C 3.222656 -37.226562 2.546875 -37.035156 1.765625 -37.078125 Z M 12.859375 -15.953125 C 13.191406 -17.429688 13.460938 -18.925781 13.671875 -20.4375 C 13.890625 -21.945312 14.066406 -23.457031 14.203125 -24.96875 C 13.585938 -23.894531 12.988281 -22.8125 12.40625 -21.71875 C 11.820312 -20.632812 11.242188 -19.546875 10.671875 -18.453125 C 10.109375 -17.378906 9.566406 -16.289062 9.046875 -15.1875 C 8.523438 -14.082031 8.054688 -12.957031 7.640625 -11.8125 C 7.421875 -11.175781 7.21875 -10.539062 7.03125 -9.90625 C 6.851562 -9.269531 6.71875 -8.617188 6.625 -7.953125 C 6.59375 -7.742188 6.5625 -7.472656 6.53125 -7.140625 C 6.5 -6.816406 6.476562 -6.476562 6.46875 -6.125 C 6.457031 -5.769531 6.484375 -5.4375 6.546875 -5.125 C 6.609375 -4.8125 6.722656 -4.554688 6.890625 -4.359375 C 6.921875 -4.367188 6.953125 -4.382812 6.984375 -4.40625 C 7.015625 -4.4375 7.054688 -4.476562 7.109375 -4.53125 C 7.191406 -4.613281 7.285156 -4.6875 7.390625 -4.75 C 7.503906 -4.820312 7.609375 -4.898438 7.703125 -4.984375 C 7.921875 -5.191406 8.128906 -5.414062 8.328125 -5.65625 C 8.535156 -5.894531 8.722656 -6.140625 8.890625 -6.390625 C 9.210938 -6.828125 9.507812 -7.28125 9.78125 -7.75 C 10.0625 -8.21875 10.320312 -8.695312 10.5625 -9.1875 C 11.101562 -10.257812 11.554688 -11.363281 11.921875 -12.5 C 12.296875 -13.644531 12.609375 -14.796875 12.859375 -15.953125 Z M 12.859375 -15.953125 "/></g></g></g><g fill="#ffffff" fill-opacity="1"><g transform="translate(50.41452, 63.499974)"><g><path d="M 16.9375 -24.921875 C 16.945312 -24.960938 17.003906 -24.988281 17.109375 -25 C 17.210938 -25.007812 17.316406 -25.007812 17.421875 -25 C 17.535156 -25 17.59375 -24.976562 17.59375 -24.9375 C 17.664062 -23.582031 17.597656 -22.25 17.390625 -20.9375 C 17.179688 -19.632812 16.890625 -18.34375 16.515625 -17.0625 C 16.140625 -15.78125 15.738281 -14.488281 15.3125 -13.1875 C 15.113281 -12.582031 14.859375 -12.015625 14.546875 -11.484375 C 14.234375 -10.960938 13.859375 -10.535156 13.421875 -10.203125 C 12.992188 -9.867188 12.507812 -9.6875 11.96875 -9.65625 C 11.425781 -9.625 10.828125 -9.804688 10.171875 -10.203125 C 9.734375 -10.472656 9.394531 -10.828125 9.15625 -11.265625 C 8.925781 -11.703125 8.75 -12.171875 8.625 -12.671875 C 8.507812 -13.171875 8.410156 -13.65625 8.328125 -14.125 C 8.140625 -15.125 8.019531 -16.128906 7.96875 -17.140625 C 7.925781 -18.160156 7.921875 -19.179688 7.953125 -20.203125 C 7.960938 -20.523438 7.976562 -20.84375 8 -21.15625 C 8.019531 -21.476562 8.035156 -21.796875 8.046875 -22.109375 C 7.765625 -21.203125 7.503906 -20.3125 7.265625 -19.4375 C 7.035156 -18.5625 6.789062 -17.757812 6.53125 -17.03125 C 6.28125 -16.300781 5.972656 -15.6875 5.609375 -15.1875 C 5.253906 -14.6875 4.796875 -14.34375 4.234375 -14.15625 C 3.472656 -13.914062 2.804688 -13.878906 2.234375 -14.046875 C 1.660156 -14.222656 1.164062 -14.550781 0.75 -15.03125 C 0.34375 -15.507812 0.00390625 -16.070312 -0.265625 -16.71875 C -0.535156 -17.375 -0.75 -18.050781 -0.90625 -18.75 C -1.0625 -19.457031 -1.171875 -20.113281 -1.234375 -20.71875 C -1.347656 -21.75 -1.414062 -22.785156 -1.4375 -23.828125 C -1.46875 -24.878906 -1.476562 -25.921875 -1.46875 -26.953125 C -1.46875 -27.535156 -1.457031 -28.144531 -1.4375 -28.78125 C -1.425781 -29.414062 -1.398438 -30.023438 -1.359375 -30.609375 C -1.328125 -31.191406 -1.257812 -31.710938 -1.15625 -32.171875 C -1.050781 -32.628906 -0.898438 -32.972656 -0.703125 -33.203125 C -0.554688 -33.367188 -0.335938 -33.519531 -0.046875 -33.65625 C 0.242188 -33.800781 0.554688 -33.882812 0.890625 -33.90625 C 1.222656 -33.9375 1.503906 -33.882812 1.734375 -33.75 C 1.972656 -33.625 2.09375 -33.382812 2.09375 -33.03125 C 2.101562 -32.757812 2.109375 -32.359375 2.109375 -31.828125 C 2.109375 -31.296875 2.109375 -30.695312 2.109375 -30.03125 C 2.109375 -29.363281 2.109375 -28.671875 2.109375 -27.953125 C 2.117188 -27.234375 2.128906 -26.539062 2.140625 -25.875 C 2.148438 -25.21875 2.160156 -24.625 2.171875 -24.09375 C 2.179688 -23.5625 2.191406 -23.160156 2.203125 -22.890625 C 2.242188 -22.148438 2.3125 -21.40625 2.40625 -20.65625 C 2.5 -19.914062 2.628906 -19.179688 2.796875 -18.453125 C 2.796875 -18.453125 2.8125 -18.351562 2.84375 -18.15625 C 2.882812 -17.96875 2.953125 -17.734375 3.046875 -17.453125 C 3.140625 -17.179688 3.253906 -16.914062 3.390625 -16.65625 C 3.535156 -16.394531 3.707031 -16.195312 3.90625 -16.0625 C 4.113281 -15.9375 4.351562 -15.921875 4.625 -16.015625 C 4.8125 -16.078125 5.015625 -16.351562 5.234375 -16.84375 C 5.453125 -17.332031 5.679688 -17.972656 5.921875 -18.765625 C 6.171875 -19.566406 6.414062 -20.445312 6.65625 -21.40625 C 6.894531 -22.375 7.125 -23.375 7.34375 -24.40625 C 7.5625 -25.4375 7.753906 -26.4375 7.921875 -27.40625 C 8.097656 -28.382812 8.238281 -29.273438 8.34375 -30.078125 C 8.445312 -30.890625 8.5 -31.539062 8.5 -32.03125 C 8.5 -32.125 8.5 -32.207031 8.5 -32.28125 C 8.5 -32.363281 8.492188 -32.453125 8.484375 -32.546875 C 8.453125 -32.785156 8.550781 -33.003906 8.78125 -33.203125 C 9.007812 -33.398438 9.296875 -33.550781 9.640625 -33.65625 C 9.992188 -33.769531 10.347656 -33.832031 10.703125 -33.84375 C 11.066406 -33.863281 11.375 -33.816406 11.625 -33.703125 C 11.882812 -33.585938 12.019531 -33.398438 12.03125 -33.140625 C 12.113281 -31.609375 12.101562 -30.046875 12 -28.453125 C 11.90625 -26.867188 11.800781 -25.269531 11.6875 -23.65625 C 11.582031 -22.050781 11.53125 -20.453125 11.53125 -18.859375 C 11.539062 -17.273438 11.675781 -15.722656 11.9375 -14.203125 C 12 -13.859375 12.0625 -13.515625 12.125 -13.171875 C 12.195312 -12.828125 12.296875 -12.5 12.421875 -12.1875 C 12.515625 -11.9375 12.644531 -11.691406 12.8125 -11.453125 C 12.820312 -11.429688 12.828125 -11.414062 12.828125 -11.40625 C 13.242188 -12.03125 13.585938 -12.648438 13.859375 -13.265625 C 14.140625 -13.890625 14.394531 -14.5625 14.625 -15.28125 C 15.132812 -16.84375 15.601562 -18.429688 16.03125 -20.046875 C 16.46875 -21.671875 16.769531 -23.296875 16.9375 -24.921875 Z M 16.9375 -24.921875 "/></g></g></g><g fill="#ffffff" fill-opacity="1"><g transform="translate(67.326929, 63.499974)"><g><path d="M 7.9375 -24.203125 C 7.570312 -23.585938 7.140625 -23.019531 6.640625 -22.5 C 6.148438 -21.988281 5.59375 -21.585938 4.96875 -21.296875 C 4.351562 -21.015625 3.660156 -20.910156 2.890625 -20.984375 C 2.816406 -20.984375 2.738281 -20.988281 2.65625 -21 C 2.582031 -21.007812 2.503906 -21.019531 2.421875 -21.03125 C 2.472656 -20.320312 2.570312 -19.628906 2.71875 -18.953125 C 2.875 -18.273438 3.097656 -17.664062 3.390625 -17.125 C 3.691406 -16.582031 4.085938 -16.140625 4.578125 -15.796875 C 5.078125 -15.460938 5.6875 -15.28125 6.40625 -15.25 C 7.03125 -15.226562 7.617188 -15.375 8.171875 -15.6875 C 8.722656 -16 9.234375 -16.410156 9.703125 -16.921875 C 10.171875 -17.441406 10.597656 -17.988281 10.984375 -18.5625 C 11.378906 -19.132812 11.734375 -19.671875 12.046875 -20.171875 C 12.148438 -20.347656 12.296875 -20.628906 12.484375 -21.015625 C 12.679688 -21.410156 12.890625 -21.863281 13.109375 -22.375 C 13.328125 -22.882812 13.539062 -23.414062 13.75 -23.96875 C 13.96875 -24.53125 14.160156 -25.078125 14.328125 -25.609375 C 14.492188 -26.140625 14.613281 -26.609375 14.6875 -27.015625 C 14.738281 -27.285156 14.851562 -27.457031 15.03125 -27.53125 C 15.207031 -27.613281 15.367188 -27.609375 15.515625 -27.515625 C 15.671875 -27.429688 15.710938 -27.257812 15.640625 -27 C 15.484375 -26.300781 15.257812 -25.507812 14.96875 -24.625 C 14.675781 -23.738281 14.34375 -22.832031 13.96875 -21.90625 C 13.59375 -20.976562 13.195312 -20.078125 12.78125 -19.203125 C 12.257812 -18.097656 11.648438 -17.09375 10.953125 -16.1875 C 10.253906 -15.28125 9.488281 -14.550781 8.65625 -14 C 7.832031 -13.457031 6.953125 -13.15625 6.015625 -13.09375 C 5.140625 -13.019531 4.296875 -13.097656 3.484375 -13.328125 C 2.671875 -13.566406 1.945312 -13.953125 1.3125 -14.484375 C 0.675781 -15.023438 0.160156 -15.707031 -0.234375 -16.53125 C -0.597656 -17.332031 -0.859375 -18.1875 -1.015625 -19.09375 C -1.171875 -20.007812 -1.25 -20.9375 -1.25 -21.875 C -1.257812 -22.820312 -1.238281 -23.726562 -1.1875 -24.59375 C -1.15625 -25.289062 -1.0625 -26.0625 -0.90625 -26.90625 C -0.757812 -27.75 -0.546875 -28.601562 -0.265625 -29.46875 C 0.00390625 -30.34375 0.34375 -31.179688 0.75 -31.984375 C 1.164062 -32.796875 1.648438 -33.519531 2.203125 -34.15625 C 2.765625 -34.800781 3.40625 -35.3125 4.125 -35.6875 C 4.84375 -36.0625 5.644531 -36.25 6.53125 -36.25 C 7.382812 -36.25 8.070312 -36.082031 8.59375 -35.75 C 9.113281 -35.414062 9.492188 -34.957031 9.734375 -34.375 C 9.972656 -33.800781 10.109375 -33.148438 10.140625 -32.421875 C 10.179688 -31.703125 10.132812 -30.945312 10 -30.15625 C 9.875 -29.375 9.691406 -28.601562 9.453125 -27.84375 C 9.222656 -27.09375 8.972656 -26.398438 8.703125 -25.765625 C 8.429688 -25.140625 8.175781 -24.617188 7.9375 -24.203125 Z M 2.390625 -22.5 C 2.421875 -22.476562 2.457031 -22.453125 2.5 -22.421875 C 2.539062 -22.398438 2.585938 -22.375 2.640625 -22.34375 C 3.023438 -22.144531 3.382812 -22.101562 3.71875 -22.21875 C 4.0625 -22.332031 4.375 -22.53125 4.65625 -22.8125 C 4.945312 -23.101562 5.203125 -23.421875 5.421875 -23.765625 C 5.648438 -24.109375 5.84375 -24.410156 6 -24.671875 C 6.570312 -25.703125 7.03125 -26.789062 7.375 -27.9375 C 7.71875 -29.082031 7.894531 -30.238281 7.90625 -31.40625 C 7.925781 -31.707031 7.914062 -32.078125 7.875 -32.515625 C 7.84375 -32.960938 7.757812 -33.390625 7.625 -33.796875 C 7.5 -34.210938 7.28125 -34.503906 6.96875 -34.671875 C 6.6875 -34.835938 6.328125 -34.757812 5.890625 -34.4375 C 5.453125 -34.125 5.007812 -33.597656 4.5625 -32.859375 C 4.113281 -32.128906 3.710938 -31.210938 3.359375 -30.109375 C 3.003906 -29.003906 2.757812 -27.757812 2.625 -26.375 C 2.582031 -25.957031 2.53125 -25.40625 2.46875 -24.71875 C 2.414062 -24.03125 2.390625 -23.289062 2.390625 -22.5 Z M 2.390625 -22.5 "/></g></g></g><g fill="#ffffff" fill-opacity="1"><g transform="translate(82.169228, 63.499974)"><g><path d="M 13.40625 -36.703125 C 13.101562 -34.460938 12.734375 -32.238281 12.296875 -30.03125 C 11.867188 -27.832031 11.382812 -25.648438 10.84375 -23.484375 C 10.550781 -22.367188 10.269531 -21.253906 10 -20.140625 C 9.738281 -19.035156 9.457031 -17.925781 9.15625 -16.8125 C 9.050781 -16.414062 8.941406 -15.992188 8.828125 -15.546875 C 8.710938 -15.109375 8.566406 -14.6875 8.390625 -14.28125 C 8.210938 -13.875 7.988281 -13.523438 7.71875 -13.234375 C 7.457031 -12.953125 7.117188 -12.757812 6.703125 -12.65625 C 5.867188 -12.457031 5.128906 -12.550781 4.484375 -12.9375 C 3.847656 -13.332031 3.394531 -13.972656 3.125 -14.859375 C 2.800781 -15.941406 2.507812 -17.023438 2.25 -18.109375 C 1.988281 -19.203125 1.734375 -20.300781 1.484375 -21.40625 C 0.992188 -23.707031 0.570312 -25.988281 0.21875 -28.25 C -0.132812 -30.519531 -0.382812 -32.617188 -0.53125 -34.546875 C -0.550781 -34.796875 -0.46875 -35.023438 -0.28125 -35.234375 C -0.09375 -35.453125 0.148438 -35.632812 0.453125 -35.78125 C 0.753906 -35.9375 1.054688 -36.035156 1.359375 -36.078125 C 1.660156 -36.117188 1.921875 -36.09375 2.140625 -36 C 2.367188 -35.914062 2.492188 -35.742188 2.515625 -35.484375 C 2.703125 -33.679688 2.921875 -31.867188 3.171875 -30.046875 C 3.429688 -28.234375 3.722656 -26.4375 4.046875 -24.65625 C 4.222656 -23.738281 4.410156 -22.820312 4.609375 -21.90625 C 4.804688 -21 5.007812 -20.082031 5.21875 -19.15625 C 5.332031 -18.6875 5.453125 -18.210938 5.578125 -17.734375 C 5.703125 -17.253906 5.828125 -16.773438 5.953125 -16.296875 C 5.984375 -16.210938 6.023438 -16.085938 6.078125 -15.921875 C 6.140625 -15.753906 6.195312 -15.578125 6.25 -15.390625 C 6.625 -16.023438 6.929688 -16.726562 7.171875 -17.5 C 7.421875 -18.28125 7.65625 -18.960938 7.875 -19.546875 C 8.207031 -20.398438 8.492188 -21.269531 8.734375 -22.15625 C 8.984375 -23.050781 9.21875 -23.945312 9.4375 -24.84375 C 9.925781 -26.78125 10.359375 -28.722656 10.734375 -30.671875 C 11.109375 -32.628906 11.453125 -34.554688 11.765625 -36.453125 C 11.785156 -36.628906 11.882812 -36.769531 12.0625 -36.875 C 12.238281 -36.988281 12.429688 -37.054688 12.640625 -37.078125 C 12.859375 -37.109375 13.046875 -37.09375 13.203125 -37.03125 C 13.359375 -36.96875 13.425781 -36.859375 13.40625 -36.703125 Z M 13.40625 -36.703125 "/></g></g></g><g fill="#ffffff" fill-opacity="1"><g transform="translate(96.972469, 63.499974)"><g><path d="M 14.109375 -26.5625 C 14.171875 -26.695312 14.269531 -26.773438 14.40625 -26.796875 C 14.550781 -26.828125 14.671875 -26.800781 14.765625 -26.71875 C 14.867188 -26.644531 14.890625 -26.519531 14.828125 -26.34375 C 14.660156 -25.09375 14.171875 -24.0625 13.359375 -23.25 C 12.554688 -22.4375 11.457031 -21.757812 10.0625 -21.21875 C 9.90625 -20.132812 9.679688 -19.0625 9.390625 -18 C 9.109375 -16.945312 8.757812 -15.984375 8.34375 -15.109375 C 7.925781 -14.234375 7.4375 -13.523438 6.875 -12.984375 C 6.3125 -12.441406 5.675781 -12.148438 4.96875 -12.109375 C 4.15625 -12.054688 3.445312 -12.1875 2.84375 -12.5 C 2.238281 -12.820312 1.71875 -13.269531 1.28125 -13.84375 C 0.851562 -14.414062 0.492188 -15.070312 0.203125 -15.8125 C -0.078125 -16.5625 -0.296875 -17.332031 -0.453125 -18.125 C -0.617188 -18.914062 -0.742188 -19.6875 -0.828125 -20.4375 C -0.910156 -21.1875 -0.960938 -21.867188 -0.984375 -22.484375 C -1.003906 -23.097656 -1.007812 -23.578125 -1 -23.921875 C -1 -24.078125 -0.984375 -24.222656 -0.953125 -24.359375 C -0.929688 -24.503906 -0.898438 -24.628906 -0.859375 -24.734375 C -1.097656 -25.628906 -1.160156 -26.5625 -1.046875 -27.53125 C -0.929688 -28.507812 -0.671875 -29.460938 -0.265625 -30.390625 C 0.128906 -31.316406 0.648438 -32.144531 1.296875 -32.875 C 1.921875 -33.570312 2.585938 -34.035156 3.296875 -34.265625 C 4.015625 -34.503906 4.71875 -34.539062 5.40625 -34.375 C 6.101562 -34.21875 6.71875 -33.90625 7.25 -33.4375 C 8.519531 -32.320312 9.394531 -30.921875 9.875 -29.234375 C 10.363281 -27.546875 10.5 -25.5 10.28125 -23.09375 C 10.28125 -23.007812 10.273438 -22.925781 10.265625 -22.84375 C 10.253906 -22.757812 10.242188 -22.671875 10.234375 -22.578125 C 10.910156 -22.796875 11.546875 -23.082031 12.140625 -23.4375 C 12.734375 -23.789062 13.210938 -24.226562 13.578125 -24.75 C 13.941406 -25.269531 14.117188 -25.875 14.109375 -26.5625 Z M 2.03125 -29.890625 C 1.957031 -29.609375 1.863281 -29.21875 1.75 -28.71875 C 1.632812 -28.226562 1.550781 -27.691406 1.5 -27.109375 C 1.445312 -26.523438 1.457031 -25.953125 1.53125 -25.390625 C 1.738281 -25.265625 1.898438 -25.113281 2.015625 -24.9375 C 2.140625 -24.757812 2.210938 -24.5625 2.234375 -24.34375 C 2.234375 -24.257812 2.234375 -24.148438 2.234375 -24.015625 C 2.234375 -23.890625 2.234375 -23.738281 2.234375 -23.5625 C 2.253906 -23.539062 2.269531 -23.519531 2.28125 -23.5 C 2.300781 -23.488281 2.316406 -23.46875 2.328125 -23.4375 C 2.753906 -22.96875 3.410156 -22.609375 4.296875 -22.359375 C 5.179688 -22.117188 6.160156 -22.015625 7.234375 -22.046875 C 7.304688 -22.773438 7.34375 -23.390625 7.34375 -23.890625 C 7.375 -24.710938 7.378906 -25.578125 7.359375 -26.484375 C 7.347656 -27.398438 7.273438 -28.300781 7.140625 -29.1875 C 7.003906 -30.070312 6.75 -30.882812 6.375 -31.625 C 5.988281 -32.394531 5.59375 -32.878906 5.1875 -33.078125 C 4.78125 -33.273438 4.378906 -33.253906 3.984375 -33.015625 C 3.597656 -32.785156 3.234375 -32.390625 2.890625 -31.828125 C 2.554688 -31.273438 2.269531 -30.628906 2.03125 -29.890625 Z M 4.828125 -14.3125 C 5.128906 -14.34375 5.394531 -14.535156 5.625 -14.890625 C 5.863281 -15.253906 6.070312 -15.726562 6.25 -16.3125 C 6.4375 -16.90625 6.59375 -17.554688 6.71875 -18.265625 C 6.851562 -18.984375 6.960938 -19.691406 7.046875 -20.390625 C 6.203125 -20.265625 5.378906 -20.234375 4.578125 -20.296875 C 3.773438 -20.359375 3.050781 -20.535156 2.40625 -20.828125 C 2.46875 -20.078125 2.554688 -19.316406 2.671875 -18.546875 C 2.796875 -17.785156 2.953125 -17.078125 3.140625 -16.421875 C 3.328125 -15.773438 3.554688 -15.253906 3.828125 -14.859375 C 4.097656 -14.472656 4.429688 -14.289062 4.828125 -14.3125 Z M 4.828125 -14.3125 "/></g></g></g><g fill="#ffffff" fill-opacity="1"><g transform="translate(110.896895, 63.499974)"><g><path d="M 10.390625 -23.75 C 10.328125 -23.632812 10.164062 -23.550781 9.90625 -23.5 C 9.65625 -23.445312 9.378906 -23.429688 9.078125 -23.453125 C 8.785156 -23.472656 8.539062 -23.53125 8.34375 -23.625 C 8.144531 -23.71875 8.070312 -23.851562 8.125 -24.03125 C 8.28125 -24.582031 8.429688 -25.207031 8.578125 -25.90625 C 8.722656 -26.601562 8.8125 -27.316406 8.84375 -28.046875 C 8.882812 -28.785156 8.84375 -29.5 8.71875 -30.1875 C 8.59375 -30.882812 8.347656 -31.519531 7.984375 -32.09375 C 7.617188 -32.664062 7.09375 -33.128906 6.40625 -33.484375 C 6 -33.691406 5.675781 -33.773438 5.4375 -33.734375 C 5.195312 -33.703125 4.910156 -33.550781 4.578125 -33.28125 C 4.128906 -32.914062 3.742188 -32.460938 3.421875 -31.921875 C 3.097656 -31.378906 2.835938 -30.835938 2.640625 -30.296875 C 2.191406 -29.015625 2.101562 -27.726562 2.375 -26.4375 C 2.65625 -25.144531 3.234375 -23.988281 4.109375 -22.96875 C 4.503906 -22.5 4.945312 -22.082031 5.4375 -21.71875 C 5.925781 -21.363281 6.425781 -21.023438 6.9375 -20.703125 C 7.457031 -20.390625 7.960938 -20.0625 8.453125 -19.71875 C 8.941406 -19.382812 9.394531 -19 9.8125 -18.5625 C 10.34375 -18 10.695312 -17.390625 10.875 -16.734375 C 11.0625 -16.078125 11.046875 -15.4375 10.828125 -14.8125 C 10.617188 -14.195312 10.1875 -13.660156 9.53125 -13.203125 C 8.9375 -12.785156 8.273438 -12.484375 7.546875 -12.296875 C 6.816406 -12.109375 6.09375 -11.992188 5.375 -11.953125 C 4.21875 -11.898438 3.164062 -12.050781 2.21875 -12.40625 C 1.269531 -12.769531 0.5 -13.34375 -0.09375 -14.125 C -0.6875 -14.90625 -1.046875 -15.894531 -1.171875 -17.09375 C -1.203125 -17.351562 -1.097656 -17.5625 -0.859375 -17.71875 C -0.628906 -17.882812 -0.332031 -18 0.03125 -18.0625 C 0.40625 -18.132812 0.773438 -18.148438 1.140625 -18.109375 C 1.515625 -18.066406 1.832031 -17.96875 2.09375 -17.8125 C 2.363281 -17.65625 2.515625 -17.441406 2.546875 -17.171875 C 2.597656 -16.710938 2.703125 -16.234375 2.859375 -15.734375 C 3.015625 -15.242188 3.25 -14.820312 3.5625 -14.46875 C 3.882812 -14.125 4.316406 -13.925781 4.859375 -13.875 C 5.203125 -13.84375 5.546875 -13.890625 5.890625 -14.015625 C 6.242188 -14.140625 6.546875 -14.320312 6.796875 -14.5625 C 7.054688 -14.8125 7.222656 -15.125 7.296875 -15.5 C 7.367188 -15.875 7.300781 -16.296875 7.09375 -16.765625 C 6.925781 -17.160156 6.679688 -17.5 6.359375 -17.78125 C 6.035156 -18.070312 5.6875 -18.332031 5.3125 -18.5625 C 4.9375 -18.789062 4.570312 -19.015625 4.21875 -19.234375 C 3.726562 -19.546875 3.242188 -19.878906 2.765625 -20.234375 C 2.285156 -20.597656 1.835938 -20.984375 1.421875 -21.390625 C 0.609375 -22.191406 -0.0664062 -23.097656 -0.609375 -24.109375 C -1.148438 -25.128906 -1.445312 -26.226562 -1.5 -27.40625 C -1.539062 -28.34375 -1.425781 -29.265625 -1.15625 -30.171875 C -0.882812 -31.078125 -0.484375 -31.910156 0.046875 -32.671875 C 0.585938 -33.441406 1.222656 -34.085938 1.953125 -34.609375 C 2.691406 -35.128906 3.507812 -35.476562 4.40625 -35.65625 C 5.3125 -35.832031 6.257812 -35.789062 7.25 -35.53125 C 8.34375 -35.238281 9.226562 -34.773438 9.90625 -34.140625 C 10.59375 -33.515625 11.097656 -32.78125 11.421875 -31.9375 C 11.753906 -31.09375 11.921875 -30.191406 11.921875 -29.234375 C 11.929688 -28.285156 11.800781 -27.335938 11.53125 -26.390625 C 11.269531 -25.453125 10.890625 -24.570312 10.390625 -23.75 Z M 10.390625 -23.75 "/></g></g></g><g fill="#ffffff" fill-opacity="1"><g transform="translate(124.606493, 63.499974)"><g/></g></g><g fill="#ffffff" fill-opacity="1"><g transform="translate(134.429757, 63.499974)"><g><path d="M 15.640625 -27.5 C 15.660156 -27.5625 15.738281 -27.597656 15.875 -27.609375 C 16.019531 -27.628906 16.164062 -27.625 16.3125 -27.59375 C 16.457031 -27.570312 16.519531 -27.53125 16.5 -27.46875 C 16.3125 -25.832031 16.050781 -24.195312 15.71875 -22.5625 C 15.382812 -20.9375 14.9375 -19.347656 14.375 -17.796875 C 14.164062 -17.210938 13.929688 -16.613281 13.671875 -16 C 13.410156 -15.394531 13.09375 -14.859375 12.71875 -14.390625 C 12.351562 -13.921875 11.894531 -13.585938 11.34375 -13.390625 C 10.800781 -13.191406 10.140625 -13.195312 9.359375 -13.40625 C 8.722656 -13.582031 8.222656 -13.914062 7.859375 -14.40625 C 7.492188 -14.90625 7.222656 -15.492188 7.046875 -16.171875 C 6.867188 -16.847656 6.75 -17.539062 6.6875 -18.25 C 6.550781 -17.832031 6.40625 -17.414062 6.25 -17 C 6.101562 -16.59375 5.941406 -16.191406 5.765625 -15.796875 C 5.523438 -15.265625 5.238281 -14.757812 4.90625 -14.28125 C 4.582031 -13.8125 4.207031 -13.414062 3.78125 -13.09375 C 3.351562 -12.78125 2.875 -12.578125 2.34375 -12.484375 C 1.820312 -12.398438 1.238281 -12.484375 0.59375 -12.734375 C 0.03125 -12.953125 -0.414062 -13.28125 -0.75 -13.71875 C -1.09375 -14.15625 -1.351562 -14.644531 -1.53125 -15.1875 C -1.707031 -15.738281 -1.832031 -16.304688 -1.90625 -16.890625 C -1.976562 -17.484375 -2.023438 -18.039062 -2.046875 -18.5625 C -2.128906 -19.945312 -2.09375 -21.328125 -1.9375 -22.703125 C -1.78125 -24.078125 -1.519531 -25.4375 -1.15625 -26.78125 C -1 -27.351562 -0.816406 -27.96875 -0.609375 -28.625 C -0.410156 -29.28125 -0.175781 -29.929688 0.09375 -30.578125 C 0.375 -31.222656 0.695312 -31.820312 1.0625 -32.375 C 1.425781 -32.9375 1.851562 -33.414062 2.34375 -33.8125 C 2.71875 -34.113281 3.148438 -34.34375 3.640625 -34.5 C 4.140625 -34.664062 4.648438 -34.75 5.171875 -34.75 C 5.691406 -34.75 6.191406 -34.660156 6.671875 -34.484375 C 7.160156 -34.304688 7.570312 -34.03125 7.90625 -33.65625 C 7.9375 -33.625 7.960938 -33.59375 7.984375 -33.5625 C 8.015625 -33.53125 8.039062 -33.492188 8.0625 -33.453125 C 8.445312 -33.554688 8.835938 -33.59375 9.234375 -33.5625 C 9.640625 -33.539062 9.984375 -33.453125 10.265625 -33.296875 C 10.546875 -33.140625 10.671875 -32.921875 10.640625 -32.640625 C 10.515625 -30.828125 10.394531 -29 10.28125 -27.15625 C 10.175781 -25.3125 10.148438 -23.472656 10.203125 -21.640625 C 10.253906 -19.816406 10.453125 -18.007812 10.796875 -16.21875 C 10.816406 -16.082031 10.84375 -15.945312 10.875 -15.8125 C 10.90625 -15.675781 10.941406 -15.539062 10.984375 -15.40625 C 11.117188 -15.582031 11.25 -15.753906 11.375 -15.921875 C 11.5 -16.085938 11.613281 -16.253906 11.71875 -16.421875 C 12.082031 -16.960938 12.410156 -17.507812 12.703125 -18.0625 C 12.992188 -18.625 13.265625 -19.195312 13.515625 -19.78125 C 14.046875 -21.019531 14.484375 -22.28125 14.828125 -23.5625 C 15.179688 -24.84375 15.453125 -26.15625 15.640625 -27.5 Z M 5 -22.46875 C 5.351562 -23.695312 5.640625 -24.941406 5.859375 -26.203125 C 6.078125 -27.460938 6.289062 -28.722656 6.5 -29.984375 C 6.414062 -30.242188 6.300781 -30.5 6.15625 -30.75 C 6.019531 -30.96875 5.894531 -31.1875 5.78125 -31.40625 C 5.664062 -31.625 5.535156 -31.835938 5.390625 -32.046875 C 5.335938 -32.128906 5.28125 -32.207031 5.21875 -32.28125 C 5.164062 -32.363281 5.109375 -32.441406 5.046875 -32.515625 C 4.953125 -32.378906 4.863281 -32.238281 4.78125 -32.09375 C 4.695312 -31.945312 4.613281 -31.800781 4.53125 -31.65625 C 4.40625 -31.4375 4.28125 -31.207031 4.15625 -30.96875 C 4.039062 -30.726562 3.929688 -30.484375 3.828125 -30.234375 C 3.359375 -29.222656 2.96875 -28.1875 2.65625 -27.125 C 2.300781 -25.976562 2.035156 -24.800781 1.859375 -23.59375 C 1.691406 -22.394531 1.609375 -21.195312 1.609375 -20 C 1.609375 -19.46875 1.617188 -18.929688 1.640625 -18.390625 C 1.671875 -17.847656 1.726562 -17.3125 1.8125 -16.78125 C 1.84375 -16.625 1.890625 -16.375 1.953125 -16.03125 C 2.015625 -15.6875 2.109375 -15.359375 2.234375 -15.046875 C 2.460938 -15.367188 2.671875 -15.738281 2.859375 -16.15625 C 3.046875 -16.582031 3.210938 -16.988281 3.359375 -17.375 C 3.515625 -17.757812 3.625 -18.039062 3.6875 -18.21875 C 3.945312 -18.914062 4.179688 -19.617188 4.390625 -20.328125 C 4.597656 -21.035156 4.800781 -21.75 5 -22.46875 Z M 5 -22.46875 "/></g></g></g><g fill="#ffffff" fill-opacity="1"><g transform="translate(150.189941, 63.499974)"><g><path d="M 12.171875 -25.859375 C 11.867188 -24.515625 11.570312 -23.175781 11.28125 -21.84375 C 11 -20.519531 10.695312 -19.265625 10.375 -18.078125 C 10.0625 -16.890625 9.710938 -15.820312 9.328125 -14.875 C 8.941406 -13.925781 8.503906 -13.164062 8.015625 -12.59375 C 7.523438 -12.019531 6.96875 -11.691406 6.34375 -11.609375 C 5.351562 -11.460938 4.488281 -11.550781 3.75 -11.875 C 3.007812 -12.195312 2.375 -12.691406 1.84375 -13.359375 C 1.320312 -14.035156 0.878906 -14.820312 0.515625 -15.71875 C 0.160156 -16.625 -0.125 -17.578125 -0.34375 -18.578125 C -0.5625 -19.578125 -0.722656 -20.578125 -0.828125 -21.578125 C -0.941406 -22.585938 -1.019531 -23.53125 -1.0625 -24.40625 C -1.113281 -25.28125 -1.144531 -26.03125 -1.15625 -26.65625 C -1.195312 -28.976562 -1.125 -31.335938 -0.9375 -33.734375 C -0.757812 -36.140625 -0.441406 -38.523438 0.015625 -40.890625 C 0.472656 -43.265625 1.085938 -45.546875 1.859375 -47.734375 C 2.335938 -49.097656 2.796875 -50.234375 3.234375 -51.140625 C 3.671875 -52.046875 4.082031 -52.769531 4.46875 -53.3125 C 4.851562 -53.863281 5.210938 -54.273438 5.546875 -54.546875 C 5.890625 -54.828125 6.203125 -55.007812 6.484375 -55.09375 C 7.523438 -55.457031 8.4375 -55.210938 9.21875 -54.359375 C 9.632812 -53.898438 9.890625 -53.207031 9.984375 -52.28125 C 10.085938 -51.363281 10.050781 -50.273438 9.875 -49.015625 C 9.707031 -47.753906 9.421875 -46.398438 9.015625 -44.953125 C 8.609375 -43.503906 8.085938 -42.015625 7.453125 -40.484375 C 6.816406 -38.960938 6.09375 -37.46875 5.28125 -36 C 4.46875 -34.53125 3.582031 -33.160156 2.625 -31.890625 C 2.59375 -31.441406 2.570312 -30.898438 2.5625 -30.265625 C 2.550781 -29.628906 2.546875 -28.992188 2.546875 -28.359375 C 2.546875 -27.734375 2.546875 -27.191406 2.546875 -26.734375 C 2.566406 -25.347656 2.640625 -23.9375 2.765625 -22.5 C 2.890625 -21.070312 3.117188 -19.671875 3.453125 -18.296875 C 3.628906 -17.691406 3.828125 -17.082031 4.046875 -16.46875 C 4.273438 -15.851562 4.554688 -15.273438 4.890625 -14.734375 C 5.097656 -14.398438 5.300781 -14.140625 5.5 -13.953125 C 5.695312 -13.773438 6 -13.695312 6.40625 -13.71875 C 6.75 -13.726562 7.082031 -13.941406 7.40625 -14.359375 C 7.726562 -14.773438 8.035156 -15.320312 8.328125 -16 C 8.617188 -16.675781 8.894531 -17.421875 9.15625 -18.234375 C 9.414062 -19.054688 9.65625 -19.890625 9.875 -20.734375 C 10.101562 -21.585938 10.304688 -22.394531 10.484375 -23.15625 C 10.660156 -23.914062 10.8125 -24.566406 10.9375 -25.109375 C 11.070312 -25.648438 11.171875 -26.023438 11.234375 -26.234375 C 11.335938 -26.546875 11.476562 -26.710938 11.65625 -26.734375 C 11.832031 -26.765625 11.976562 -26.691406 12.09375 -26.515625 C 12.207031 -26.347656 12.234375 -26.128906 12.171875 -25.859375 Z M 4.34375 -43.640625 C 4.0625 -42.242188 3.804688 -40.84375 3.578125 -39.4375 C 3.359375 -38.03125 3.160156 -36.617188 2.984375 -35.203125 C 3.160156 -35.359375 3.394531 -35.6875 3.6875 -36.1875 C 3.988281 -36.695312 4.328125 -37.335938 4.703125 -38.109375 C 5.085938 -38.890625 5.476562 -39.75 5.875 -40.6875 C 6.269531 -41.625 6.648438 -42.601562 7.015625 -43.625 C 7.390625 -44.65625 7.71875 -45.675781 8 -46.6875 C 8.289062 -47.695312 8.507812 -48.660156 8.65625 -49.578125 C 8.800781 -50.492188 8.847656 -51.3125 8.796875 -52.03125 C 8.753906 -52.757812 8.582031 -53.335938 8.28125 -53.765625 C 8.019531 -53.691406 7.753906 -53.453125 7.484375 -53.046875 C 7.210938 -52.640625 6.941406 -52.128906 6.671875 -51.515625 C 6.398438 -50.898438 6.144531 -50.226562 5.90625 -49.5 C 5.664062 -48.78125 5.441406 -48.050781 5.234375 -47.3125 C 5.023438 -46.582031 4.84375 -45.894531 4.6875 -45.25 C 4.539062 -44.613281 4.425781 -44.078125 4.34375 -43.640625 Z M 4.34375 -43.640625 "/></g></g></g><g fill="#ffffff" fill-opacity="1"><g transform="translate(161.380259, 63.499974)"><g/></g></g><g fill="#ffffff" fill-opacity="1"><g transform="translate(171.203523, 63.499974)"><g><path d="M 1.546875 -20.234375 C 0.734375 -21.953125 0.175781 -23.773438 -0.125 -25.703125 C -0.4375 -27.640625 -0.539062 -29.609375 -0.4375 -31.609375 C -0.34375 -33.609375 -0.0820312 -35.578125 0.34375 -37.515625 C 0.769531 -39.460938 1.304688 -41.296875 1.953125 -43.015625 C 2.398438 -44.171875 2.9375 -45.332031 3.5625 -46.5 C 4.1875 -47.675781 4.894531 -48.804688 5.6875 -49.890625 C 6.488281 -50.984375 7.363281 -51.976562 8.3125 -52.875 C 9.257812 -53.769531 10.269531 -54.53125 11.34375 -55.15625 C 12.414062 -55.789062 13.539062 -56.234375 14.71875 -56.484375 C 15.894531 -56.742188 17.113281 -56.765625 18.375 -56.546875 C 19.695312 -56.328125 20.804688 -55.910156 21.703125 -55.296875 C 22.609375 -54.679688 23.34375 -53.9375 23.90625 -53.0625 C 24.476562 -52.195312 24.90625 -51.25 25.1875 -50.21875 C 25.46875 -49.195312 25.644531 -48.15625 25.71875 -47.09375 C 25.789062 -46.039062 25.785156 -45.023438 25.703125 -44.046875 C 25.628906 -43.066406 25.507812 -42.179688 25.34375 -41.390625 C 25.175781 -40.597656 25.003906 -39.96875 24.828125 -39.5 C 24.742188 -39.289062 24.582031 -39.128906 24.34375 -39.015625 C 24.101562 -38.898438 23.835938 -38.832031 23.546875 -38.8125 C 23.253906 -38.800781 22.972656 -38.828125 22.703125 -38.890625 C 22.441406 -38.960938 22.238281 -39.082031 22.09375 -39.25 C 21.945312 -39.414062 21.90625 -39.617188 21.96875 -39.859375 C 22.269531 -40.878906 22.492188 -41.875 22.640625 -42.84375 C 22.796875 -43.820312 22.859375 -44.847656 22.828125 -45.921875 C 22.796875 -47.003906 22.640625 -48.195312 22.359375 -49.5 C 22.148438 -50.1875 21.859375 -50.851562 21.484375 -51.5 C 21.109375 -52.15625 20.648438 -52.738281 20.109375 -53.25 C 19.578125 -53.769531 18.976562 -54.160156 18.3125 -54.421875 C 17.644531 -54.691406 16.921875 -54.785156 16.140625 -54.703125 C 14.992188 -54.597656 13.9375 -54.242188 12.96875 -53.640625 C 12.007812 -53.046875 11.132812 -52.289062 10.34375 -51.375 C 9.550781 -50.457031 8.84375 -49.457031 8.21875 -48.375 C 7.59375 -47.300781 7.039062 -46.21875 6.5625 -45.125 C 6.09375 -44.03125 5.691406 -43.015625 5.359375 -42.078125 C 4.378906 -39.367188 3.75 -36.550781 3.46875 -33.625 C 3.195312 -30.695312 3.316406 -27.816406 3.828125 -24.984375 C 3.984375 -24.117188 4.226562 -23.234375 4.5625 -22.328125 C 4.894531 -21.429688 5.3125 -20.566406 5.8125 -19.734375 C 6.3125 -18.910156 6.882812 -18.171875 7.53125 -17.515625 C 8.175781 -16.859375 8.890625 -16.335938 9.671875 -15.953125 C 10.460938 -15.566406 11.3125 -15.363281 12.21875 -15.34375 C 13.132812 -15.332031 14.101562 -15.5625 15.125 -16.03125 C 15.957031 -16.414062 16.703125 -16.9375 17.359375 -17.59375 C 18.023438 -18.25 18.578125 -18.992188 19.015625 -19.828125 C 19.460938 -20.660156 19.757812 -21.519531 19.90625 -22.40625 C 20.007812 -23.050781 20.019531 -23.71875 19.9375 -24.40625 C 19.863281 -25.101562 19.628906 -25.734375 19.234375 -26.296875 C 19.003906 -26.628906 18.71875 -26.921875 18.375 -27.171875 C 18.03125 -27.429688 17.664062 -27.566406 17.28125 -27.578125 C 17.070312 -27.523438 16.863281 -27.46875 16.65625 -27.40625 C 16.445312 -27.34375 16.253906 -27.273438 16.078125 -27.203125 C 15.859375 -27.140625 15.597656 -27.09375 15.296875 -27.0625 C 14.992188 -27.03125 14.695312 -27.039062 14.40625 -27.09375 C 14.125 -27.144531 13.882812 -27.25 13.6875 -27.40625 C 13.425781 -27.625 13.304688 -27.847656 13.328125 -28.078125 C 13.347656 -28.304688 13.507812 -28.503906 13.8125 -28.671875 C 14.34375 -28.992188 14.929688 -29.226562 15.578125 -29.375 C 16.222656 -29.53125 16.867188 -29.597656 17.515625 -29.578125 C 18.222656 -29.648438 18.914062 -29.644531 19.59375 -29.5625 C 20.28125 -29.476562 20.929688 -29.289062 21.546875 -29 C 22.160156 -28.71875 22.691406 -28.289062 23.140625 -27.71875 C 23.859375 -26.84375 24.378906 -25.882812 24.703125 -24.84375 C 25.035156 -23.800781 25.238281 -22.726562 25.3125 -21.625 C 25.394531 -20.53125 25.410156 -19.441406 25.359375 -18.359375 C 25.304688 -17.253906 25.226562 -16.140625 25.125 -15.015625 C 25.03125 -13.890625 24.898438 -12.765625 24.734375 -11.640625 C 25.535156 -11.515625 26.3125 -11.3125 27.0625 -11.03125 C 27.820312 -10.757812 28.539062 -10.40625 29.21875 -9.96875 C 29.46875 -9.820312 29.578125 -9.664062 29.546875 -9.5 C 29.523438 -9.34375 29.390625 -9.234375 29.140625 -9.171875 C 28.890625 -9.109375 28.539062 -9.164062 28.09375 -9.34375 C 27.5 -9.5625 26.898438 -9.75 26.296875 -9.90625 C 25.703125 -10.070312 25.101562 -10.203125 24.5 -10.296875 C 24.144531 -8.460938 23.644531 -6.664062 23 -4.90625 C 22.351562 -3.144531 21.484375 -1.46875 20.390625 0.125 C 19.566406 1.300781 18.566406 2.265625 17.390625 3.015625 C 16.210938 3.773438 14.890625 4.203125 13.421875 4.296875 C 12.804688 4.335938 12.171875 4.296875 11.515625 4.171875 C 10.859375 4.054688 10.226562 3.851562 9.625 3.5625 C 9.03125 3.269531 8.507812 2.875 8.0625 2.375 C 7.625 1.875 7.3125 1.253906 7.125 0.515625 C 6.894531 -0.453125 6.882812 -1.398438 7.09375 -2.328125 C 7.300781 -3.253906 7.664062 -4.132812 8.1875 -4.96875 C 8.71875 -5.800781 9.351562 -6.570312 10.09375 -7.28125 C 10.84375 -7.988281 11.632812 -8.613281 12.46875 -9.15625 C 13.300781 -9.707031 14.125 -10.144531 14.9375 -10.46875 C 15.875 -10.84375 16.859375 -11.15625 17.890625 -11.40625 C 18.929688 -11.65625 19.988281 -11.804688 21.0625 -11.859375 C 21.21875 -12.847656 21.335938 -13.847656 21.421875 -14.859375 C 21.515625 -15.878906 21.585938 -16.90625 21.640625 -17.9375 C 21.066406 -17.175781 20.4375 -16.523438 19.75 -15.984375 C 18.550781 -15.046875 17.257812 -14.375 15.875 -13.96875 C 14.5 -13.5625 13.101562 -13.398438 11.6875 -13.484375 C 10.28125 -13.566406 8.921875 -13.878906 7.609375 -14.421875 C 6.296875 -14.972656 5.113281 -15.738281 4.0625 -16.71875 C 3.019531 -17.695312 2.179688 -18.867188 1.546875 -20.234375 Z M 19.140625 -4.78125 C 19.515625 -5.71875 19.835938 -6.660156 20.109375 -7.609375 C 20.390625 -8.554688 20.617188 -9.503906 20.796875 -10.453125 C 19.878906 -10.390625 18.957031 -10.234375 18.03125 -9.984375 C 17.113281 -9.734375 16.222656 -9.394531 15.359375 -8.96875 C 14.242188 -8.414062 13.242188 -7.753906 12.359375 -6.984375 C 11.472656 -6.222656 10.75 -5.40625 10.1875 -4.53125 C 9.625 -3.65625 9.257812 -2.78125 9.09375 -1.90625 C 8.925781 -1.039062 9.007812 -0.222656 9.34375 0.546875 C 9.570312 1.097656 9.960938 1.5 10.515625 1.75 C 11.066406 2 11.710938 2.070312 12.453125 1.96875 C 13.191406 1.863281 13.960938 1.554688 14.765625 1.046875 C 15.578125 0.546875 16.363281 -0.179688 17.125 -1.140625 C 17.882812 -2.097656 18.554688 -3.3125 19.140625 -4.78125 Z M 19.140625 -4.78125 "/></g></g></g><g fill="#ffffff" fill-opacity="1"><g transform="translate(200.634246, 63.499974)"><g><path d="M 16.9375 -24.921875 C 16.945312 -24.960938 17.003906 -24.988281 17.109375 -25 C 17.210938 -25.007812 17.316406 -25.007812 17.421875 -25 C 17.535156 -25 17.59375 -24.976562 17.59375 -24.9375 C 17.664062 -23.582031 17.597656 -22.25 17.390625 -20.9375 C 17.179688 -19.632812 16.890625 -18.34375 16.515625 -17.0625 C 16.140625 -15.78125 15.738281 -14.488281 15.3125 -13.1875 C 15.113281 -12.582031 14.859375 -12.015625 14.546875 -11.484375 C 14.234375 -10.960938 13.859375 -10.535156 13.421875 -10.203125 C 12.992188 -9.867188 12.507812 -9.6875 11.96875 -9.65625 C 11.425781 -9.625 10.828125 -9.804688 10.171875 -10.203125 C 9.734375 -10.472656 9.394531 -10.828125 9.15625 -11.265625 C 8.925781 -11.703125 8.75 -12.171875 8.625 -12.671875 C 8.507812 -13.171875 8.410156 -13.65625 8.328125 -14.125 C 8.140625 -15.125 8.019531 -16.128906 7.96875 -17.140625 C 7.925781 -18.160156 7.921875 -19.179688 7.953125 -20.203125 C 7.960938 -20.523438 7.976562 -20.84375 8 -21.15625 C 8.019531 -21.476562 8.035156 -21.796875 8.046875 -22.109375 C 7.765625 -21.203125 7.503906 -20.3125 7.265625 -19.4375 C 7.035156 -18.5625 6.789062 -17.757812 6.53125 -17.03125 C 6.28125 -16.300781 5.972656 -15.6875 5.609375 -15.1875 C 5.253906 -14.6875 4.796875 -14.34375 4.234375 -14.15625 C 3.472656 -13.914062 2.804688 -13.878906 2.234375 -14.046875 C 1.660156 -14.222656 1.164062 -14.550781 0.75 -15.03125 C 0.34375 -15.507812 0.00390625 -16.070312 -0.265625 -16.71875 C -0.535156 -17.375 -0.75 -18.050781 -0.90625 -18.75 C -1.0625 -19.457031 -1.171875 -20.113281 -1.234375 -20.71875 C -1.347656 -21.75 -1.414062 -22.785156 -1.4375 -23.828125 C -1.46875 -24.878906 -1.476562 -25.921875 -1.46875 -26.953125 C -1.46875 -27.535156 -1.457031 -28.144531 -1.4375 -28.78125 C -1.425781 -29.414062 -1.398438 -30.023438 -1.359375 -30.609375 C -1.328125 -31.191406 -1.257812 -31.710938 -1.15625 -32.171875 C -1.050781 -32.628906 -0.898438 -32.972656 -0.703125 -33.203125 C -0.554688 -33.367188 -0.335938 -33.519531 -0.046875 -33.65625 C 0.242188 -33.800781 0.554688 -33.882812 0.890625 -33.90625 C 1.222656 -33.9375 1.503906 -33.882812 1.734375 -33.75 C 1.972656 -33.625 2.09375 -33.382812 2.09375 -33.03125 C 2.101562 -32.757812 2.109375 -32.359375 2.109375 -31.828125 C 2.109375 -31.296875 2.109375 -30.695312 2.109375 -30.03125 C 2.109375 -29.363281 2.109375 -28.671875 2.109375 -27.953125 C 2.117188 -27.234375 2.128906 -26.539062 2.140625 -25.875 C 2.148438 -25.21875 2.160156 -24.625 2.171875 -24.09375 C 2.179688 -23.5625 2.191406 -23.160156 2.203125 -22.890625 C 2.242188 -22.148438 2.3125 -21.40625 2.40625 -20.65625 C 2.5 -19.914062 2.628906 -19.179688 2.796875 -18.453125 C 2.796875 -18.453125 2.8125 -18.351562 2.84375 -18.15625 C 2.882812 -17.96875 2.953125 -17.734375 3.046875 -17.453125 C 3.140625 -17.179688 3.253906 -16.914062 3.390625 -16.65625 C 3.535156 -16.394531 3.707031 -16.195312 3.90625 -16.0625 C 4.113281 -15.9375 4.351562 -15.921875 4.625 -16.015625 C 4.8125 -16.078125 5.015625 -16.351562 5.234375 -16.84375 C 5.453125 -17.332031 5.679688 -17.972656 5.921875 -18.765625 C 6.171875 -19.566406 6.414062 -20.445312 6.65625 -21.40625 C 6.894531 -22.375 7.125 -23.375 7.34375 -24.40625 C 7.5625 -25.4375 7.753906 -26.4375 7.921875 -27.40625 C 8.097656 -28.382812 8.238281 -29.273438 8.34375 -30.078125 C 8.445312 -30.890625 8.5 -31.539062 8.5 -32.03125 C 8.5 -32.125 8.5 -32.207031 8.5 -32.28125 C 8.5 -32.363281 8.492188 -32.453125 8.484375 -32.546875 C 8.453125 -32.785156 8.550781 -33.003906 8.78125 -33.203125 C 9.007812 -33.398438 9.296875 -33.550781 9.640625 -33.65625 C 9.992188 -33.769531 10.347656 -33.832031 10.703125 -33.84375 C 11.066406 -33.863281 11.375 -33.816406 11.625 -33.703125 C 11.882812 -33.585938 12.019531 -33.398438 12.03125 -33.140625 C 12.113281 -31.609375 12.101562 -30.046875 12 -28.453125 C 11.90625 -26.867188 11.800781 -25.269531 11.6875 -23.65625 C 11.582031 -22.050781 11.53125 -20.453125 11.53125 -18.859375 C 11.539062 -17.273438 11.675781 -15.722656 11.9375 -14.203125 C 12 -13.859375 12.0625 -13.515625 12.125 -13.171875 C 12.195312 -12.828125 12.296875 -12.5 12.421875 -12.1875 C 12.515625 -11.9375 12.644531 -11.691406 12.8125 -11.453125 C 12.820312 -11.429688 12.828125 -11.414062 12.828125 -11.40625 C 13.242188 -12.03125 13.585938 -12.648438 13.859375 -13.265625 C 14.140625 -13.890625 14.394531 -14.5625 14.625 -15.28125 C 15.132812 -16.84375 15.601562 -18.429688 16.03125 -20.046875 C 16.46875 -21.671875 16.769531 -23.296875 16.9375 -24.921875 Z M 16.9375 -24.921875 "/></g></g></g><g fill="#ffffff" fill-opacity="1"><g transform="translate(217.546644, 63.499974)"><g><path d="M 10.390625 -23.75 C 10.328125 -23.632812 10.164062 -23.550781 9.90625 -23.5 C 9.65625 -23.445312 9.378906 -23.429688 9.078125 -23.453125 C 8.785156 -23.472656 8.539062 -23.53125 8.34375 -23.625 C 8.144531 -23.71875 8.070312 -23.851562 8.125 -24.03125 C 8.28125 -24.582031 8.429688 -25.207031 8.578125 -25.90625 C 8.722656 -26.601562 8.8125 -27.316406 8.84375 -28.046875 C 8.882812 -28.785156 8.84375 -29.5 8.71875 -30.1875 C 8.59375 -30.882812 8.347656 -31.519531 7.984375 -32.09375 C 7.617188 -32.664062 7.09375 -33.128906 6.40625 -33.484375 C 6 -33.691406 5.675781 -33.773438 5.4375 -33.734375 C 5.195312 -33.703125 4.910156 -33.550781 4.578125 -33.28125 C 4.128906 -32.914062 3.742188 -32.460938 3.421875 -31.921875 C 3.097656 -31.378906 2.835938 -30.835938 2.640625 -30.296875 C 2.191406 -29.015625 2.101562 -27.726562 2.375 -26.4375 C 2.65625 -25.144531 3.234375 -23.988281 4.109375 -22.96875 C 4.503906 -22.5 4.945312 -22.082031 5.4375 -21.71875 C 5.925781 -21.363281 6.425781 -21.023438 6.9375 -20.703125 C 7.457031 -20.390625 7.960938 -20.0625 8.453125 -19.71875 C 8.941406 -19.382812 9.394531 -19 9.8125 -18.5625 C 10.34375 -18 10.695312 -17.390625 10.875 -16.734375 C 11.0625 -16.078125 11.046875 -15.4375 10.828125 -14.8125 C 10.617188 -14.195312 10.1875 -13.660156 9.53125 -13.203125 C 8.9375 -12.785156 8.273438 -12.484375 7.546875 -12.296875 C 6.816406 -12.109375 6.09375 -11.992188 5.375 -11.953125 C 4.21875 -11.898438 3.164062 -12.050781 2.21875 -12.40625 C 1.269531 -12.769531 0.5 -13.34375 -0.09375 -14.125 C -0.6875 -14.90625 -1.046875 -15.894531 -1.171875 -17.09375 C -1.203125 -17.351562 -1.097656 -17.5625 -0.859375 -17.71875 C -0.628906 -17.882812 -0.332031 -18 0.03125 -18.0625 C 0.40625 -18.132812 0.773438 -18.148438 1.140625 -18.109375 C 1.515625 -18.066406 1.832031 -17.96875 2.09375 -17.8125 C 2.363281 -17.65625 2.515625 -17.441406 2.546875 -17.171875 C 2.597656 -16.710938 2.703125 -16.234375 2.859375 -15.734375 C 3.015625 -15.242188 3.25 -14.820312 3.5625 -14.46875 C 3.882812 -14.125 4.316406 -13.925781 4.859375 -13.875 C 5.203125 -13.84375 5.546875 -13.890625 5.890625 -14.015625 C 6.242188 -14.140625 6.546875 -14.320312 6.796875 -14.5625 C 7.054688 -14.8125 7.222656 -15.125 7.296875 -15.5 C 7.367188 -15.875 7.300781 -16.296875 7.09375 -16.765625 C 6.925781 -17.160156 6.679688 -17.5 6.359375 -17.78125 C 6.035156 -18.070312 5.6875 -18.332031 5.3125 -18.5625 C 4.9375 -18.789062 4.570312 -19.015625 4.21875 -19.234375 C 3.726562 -19.546875 3.242188 -19.878906 2.765625 -20.234375 C 2.285156 -20.597656 1.835938 -20.984375 1.421875 -21.390625 C 0.609375 -22.191406 -0.0664062 -23.097656 -0.609375 -24.109375 C -1.148438 -25.128906 -1.445312 -26.226562 -1.5 -27.40625 C -1.539062 -28.34375 -1.425781 -29.265625 -1.15625 -30.171875 C -0.882812 -31.078125 -0.484375 -31.910156 0.046875 -32.671875 C 0.585938 -33.441406 1.222656 -34.085938 1.953125 -34.609375 C 2.691406 -35.128906 3.507812 -35.476562 4.40625 -35.65625 C 5.3125 -35.832031 6.257812 -35.789062 7.25 -35.53125 C 8.34375 -35.238281 9.226562 -34.773438 9.90625 -34.140625 C 10.59375 -33.515625 11.097656 -32.78125 11.421875 -31.9375 C 11.753906 -31.09375 11.921875 -30.191406 11.921875 -29.234375 C 11.929688 -28.285156 11.800781 -27.335938 11.53125 -26.390625 C 11.269531 -25.453125 10.890625 -24.570312 10.390625 -23.75 Z M 10.390625 -23.75 "/></g></g></g><g fill="#ffffff" fill-opacity="1"><g transform="translate(231.256253, 63.499974)"><g><path d="M 4.421875 -43.609375 C 4.140625 -42.234375 3.890625 -40.84375 3.671875 -39.4375 C 3.453125 -38.039062 3.257812 -36.640625 3.09375 -35.234375 C 2.988281 -34.640625 2.898438 -33.640625 2.828125 -32.234375 C 2.753906 -30.835938 2.691406 -29.03125 2.640625 -26.8125 C 2.609375 -25.394531 2.664062 -23.988281 2.8125 -22.59375 C 2.96875 -21.207031 3.207031 -19.816406 3.53125 -18.421875 C 3.6875 -17.796875 3.878906 -17.1875 4.109375 -16.59375 C 4.347656 -16 4.632812 -15.421875 4.96875 -14.859375 C 5.15625 -14.523438 5.351562 -14.273438 5.5625 -14.109375 C 5.800781 -13.921875 6.109375 -13.832031 6.484375 -13.84375 C 7.109375 -13.9375 7.707031 -14.601562 8.28125 -15.84375 C 8.832031 -17.082031 9.320312 -18.507812 9.75 -20.125 C 9.96875 -20.925781 10.164062 -21.6875 10.34375 -22.40625 C 10.519531 -23.125 10.671875 -23.796875 10.796875 -24.421875 C 10.898438 -24.890625 10.992188 -25.28125 11.078125 -25.59375 C 11.171875 -25.90625 11.242188 -26.144531 11.296875 -26.3125 C 11.398438 -26.625 11.535156 -26.785156 11.703125 -26.796875 C 11.867188 -26.804688 12.007812 -26.742188 12.125 -26.609375 C 12.25 -26.429688 12.273438 -26.207031 12.203125 -25.9375 C 12.128906 -25.570312 12.050781 -25.207031 11.96875 -24.84375 C 11.894531 -24.488281 11.816406 -24.128906 11.734375 -23.765625 C 11.523438 -22.765625 11.3125 -21.789062 11.09375 -20.84375 C 10.875 -19.90625 10.644531 -18.992188 10.40625 -18.109375 C 9.9375 -16.335938 9.382812 -14.878906 8.75 -13.734375 C 8.101562 -12.578125 7.328125 -11.921875 6.421875 -11.765625 C 4.703125 -11.566406 3.347656 -12 2.359375 -13.0625 C 1.359375 -14.144531 0.617188 -15.539062 0.140625 -17.25 C -0.347656 -18.9375 -0.660156 -20.660156 -0.796875 -22.421875 C -0.953125 -24.171875 -1.03125 -25.609375 -1.03125 -26.734375 C -1.113281 -30.210938 -0.921875 -33.753906 -0.453125 -37.359375 C -0.304688 -38.484375 -0.128906 -39.585938 0.078125 -40.671875 C 0.285156 -41.765625 0.523438 -42.84375 0.796875 -43.90625 C 0.765625 -43.914062 0.722656 -43.921875 0.671875 -43.921875 C 0.628906 -43.921875 0.585938 -43.921875 0.546875 -43.921875 C -0.867188 -43.972656 -1.929688 -43.859375 -2.640625 -43.578125 C -2.679688 -43.566406 -2.710938 -43.628906 -2.734375 -43.765625 C -2.742188 -43.890625 -2.734375 -44.0625 -2.703125 -44.28125 C -2.679688 -44.445312 -2.613281 -44.609375 -2.5 -44.765625 C -2.164062 -45.085938 -1.488281 -45.25 -0.46875 -45.25 C -0.21875 -45.238281 0.0390625 -45.226562 0.3125 -45.21875 C 0.582031 -45.21875 0.863281 -45.210938 1.15625 -45.203125 C 1.28125 -45.617188 1.40625 -46.035156 1.53125 -46.453125 C 1.664062 -46.878906 1.804688 -47.300781 1.953125 -47.71875 C 2.828125 -50.113281 3.597656 -51.789062 4.265625 -52.75 C 4.953125 -53.738281 5.566406 -54.347656 6.109375 -54.578125 C 6.296875 -54.640625 6.484375 -54.675781 6.671875 -54.6875 C 6.867188 -54.695312 7.0625 -54.691406 7.25 -54.671875 C 7.625 -54.585938 7.9375 -54.429688 8.1875 -54.203125 C 8.25 -54.109375 8.28125 -54.023438 8.28125 -53.953125 C 8.257812 -53.828125 8.210938 -53.738281 8.140625 -53.6875 C 7.617188 -53.25 7.109375 -52.390625 6.609375 -51.109375 C 6.097656 -49.847656 5.644531 -48.503906 5.25 -47.078125 C 5.144531 -46.671875 5.046875 -46.285156 4.953125 -45.921875 C 4.859375 -45.566406 4.769531 -45.234375 4.6875 -44.921875 C 5.1875 -44.898438 5.671875 -44.878906 6.140625 -44.859375 C 6.617188 -44.835938 7.09375 -44.832031 7.5625 -44.84375 C 9.039062 -44.84375 10.191406 -45.117188 11.015625 -45.671875 C 11.015625 -45.648438 11.019531 -45.640625 11.03125 -45.640625 C 11.03125 -45.640625 11.03125 -45.632812 11.03125 -45.625 C 11.03125 -45.625 11.039062 -45.625 11.0625 -45.625 C 11.0625 -45.601562 11.070312 -45.578125 11.09375 -45.546875 C 11.125 -45.492188 11.148438 -45.441406 11.171875 -45.390625 C 11.203125 -45.335938 11.226562 -45.28125 11.25 -45.21875 C 11.289062 -45.0625 11.304688 -44.898438 11.296875 -44.734375 C 11.273438 -44.535156 11.210938 -44.335938 11.109375 -44.140625 C 11.023438 -43.941406 10.84375 -43.726562 10.5625 -43.5 C 10.21875 -43.28125 9.539062 -43.195312 8.53125 -43.25 C 8.007812 -43.269531 7.457031 -43.304688 6.875 -43.359375 C 6.289062 -43.410156 5.660156 -43.476562 4.984375 -43.5625 C 4.890625 -43.570312 4.796875 -43.578125 4.703125 -43.578125 C 4.617188 -43.585938 4.523438 -43.597656 4.421875 -43.609375 Z M 4.421875 -43.609375 "/></g></g></g><g fill="#ffffff" fill-opacity="1"><g transform="translate(242.44656, 63.499974)"><g><path d="M 14.109375 -26.5625 C 14.171875 -26.695312 14.269531 -26.773438 14.40625 -26.796875 C 14.550781 -26.828125 14.671875 -26.800781 14.765625 -26.71875 C 14.867188 -26.644531 14.890625 -26.519531 14.828125 -26.34375 C 14.660156 -25.09375 14.171875 -24.0625 13.359375 -23.25 C 12.554688 -22.4375 11.457031 -21.757812 10.0625 -21.21875 C 9.90625 -20.132812 9.679688 -19.0625 9.390625 -18 C 9.109375 -16.945312 8.757812 -15.984375 8.34375 -15.109375 C 7.925781 -14.234375 7.4375 -13.523438 6.875 -12.984375 C 6.3125 -12.441406 5.675781 -12.148438 4.96875 -12.109375 C 4.15625 -12.054688 3.445312 -12.1875 2.84375 -12.5 C 2.238281 -12.820312 1.71875 -13.269531 1.28125 -13.84375 C 0.851562 -14.414062 0.492188 -15.070312 0.203125 -15.8125 C -0.078125 -16.5625 -0.296875 -17.332031 -0.453125 -18.125 C -0.617188 -18.914062 -0.742188 -19.6875 -0.828125 -20.4375 C -0.910156 -21.1875 -0.960938 -21.867188 -0.984375 -22.484375 C -1.003906 -23.097656 -1.007812 -23.578125 -1 -23.921875 C -1 -24.078125 -0.984375 -24.222656 -0.953125 -24.359375 C -0.929688 -24.503906 -0.898438 -24.628906 -0.859375 -24.734375 C -1.097656 -25.628906 -1.160156 -26.5625 -1.046875 -27.53125 C -0.929688 -28.507812 -0.671875 -29.460938 -0.265625 -30.390625 C 0.128906 -31.316406 0.648438 -32.144531 1.296875 -32.875 C 1.921875 -33.570312 2.585938 -34.035156 3.296875 -34.265625 C 4.015625 -34.503906 4.71875 -34.539062 5.40625 -34.375 C 6.101562 -34.21875 6.71875 -33.90625 7.25 -33.4375 C 8.519531 -32.320312 9.394531 -30.921875 9.875 -29.234375 C 10.363281 -27.546875 10.5 -25.5 10.28125 -23.09375 C 10.28125 -23.007812 10.273438 -22.925781 10.265625 -22.84375 C 10.253906 -22.757812 10.242188 -22.671875 10.234375 -22.578125 C 10.910156 -22.796875 11.546875 -23.082031 12.140625 -23.4375 C 12.734375 -23.789062 13.210938 -24.226562 13.578125 -24.75 C 13.941406 -25.269531 14.117188 -25.875 14.109375 -26.5625 Z M 2.03125 -29.890625 C 1.957031 -29.609375 1.863281 -29.21875 1.75 -28.71875 C 1.632812 -28.226562 1.550781 -27.691406 1.5 -27.109375 C 1.445312 -26.523438 1.457031 -25.953125 1.53125 -25.390625 C 1.738281 -25.265625 1.898438 -25.113281 2.015625 -24.9375 C 2.140625 -24.757812 2.210938 -24.5625 2.234375 -24.34375 C 2.234375 -24.257812 2.234375 -24.148438 2.234375 -24.015625 C 2.234375 -23.890625 2.234375 -23.738281 2.234375 -23.5625 C 2.253906 -23.539062 2.269531 -23.519531 2.28125 -23.5 C 2.300781 -23.488281 2.316406 -23.46875 2.328125 -23.4375 C 2.753906 -22.96875 3.410156 -22.609375 4.296875 -22.359375 C 5.179688 -22.117188 6.160156 -22.015625 7.234375 -22.046875 C 7.304688 -22.773438 7.34375 -23.390625 7.34375 -23.890625 C 7.375 -24.710938 7.378906 -25.578125 7.359375 -26.484375 C 7.347656 -27.398438 7.273438 -28.300781 7.140625 -29.1875 C 7.003906 -30.070312 6.75 -30.882812 6.375 -31.625 C 5.988281 -32.394531 5.59375 -32.878906 5.1875 -33.078125 C 4.78125 -33.273438 4.378906 -33.253906 3.984375 -33.015625 C 3.597656 -32.785156 3.234375 -32.390625 2.890625 -31.828125 C 2.554688 -31.273438 2.269531 -30.628906 2.03125 -29.890625 Z M 4.828125 -14.3125 C 5.128906 -14.34375 5.394531 -14.535156 5.625 -14.890625 C 5.863281 -15.253906 6.070312 -15.726562 6.25 -16.3125 C 6.4375 -16.90625 6.59375 -17.554688 6.71875 -18.265625 C 6.851562 -18.984375 6.960938 -19.691406 7.046875 -20.390625 C 6.203125 -20.265625 5.378906 -20.234375 4.578125 -20.296875 C 3.773438 -20.359375 3.050781 -20.535156 2.40625 -20.828125 C 2.46875 -20.078125 2.554688 -19.316406 2.671875 -18.546875 C 2.796875 -17.785156 2.953125 -17.078125 3.140625 -16.421875 C 3.328125 -15.773438 3.554688 -15.253906 3.828125 -14.859375 C 4.097656 -14.472656 4.429688 -14.289062 4.828125 -14.3125 Z M 4.828125 -14.3125 "/></g></g></g></svg>