<svg xmlns="http://www.w3.org/2000/svg" xmlns:xlink="http://www.w3.org/1999/xlink" width="1000" zoomAndPan="magnify" viewBox="0 0 750 74.999997" height="100" preserveAspectRatio="xMidYMid meet" version="1.0"><defs><g/></defs><g fill="#ffffff" fill-opacity="1"><g transform="translate(8.003921, 63.499966)"><g><path d="M 25.375 -14.96875 C 25.675781 -13.625 25.753906 -12.257812 25.609375 -10.875 C 25.472656 -9.488281 25.140625 -8.160156 24.609375 -6.890625 C 24.046875 -5.578125 23.300781 -4.425781 22.375 -3.4375 C 21.445312 -2.457031 20.382812 -1.648438 19.1875 -1.015625 C 17.988281 -0.390625 16.710938 0.0507812 15.359375 0.3125 C 14.015625 0.570312 12.644531 0.644531 11.25 0.53125 C 9.851562 0.414062 8.488281 0.0820312 7.15625 -0.46875 C 5.832031 -1.03125 4.6875 -1.816406 3.71875 -2.828125 C 3.007812 -3.578125 2.421875 -4.40625 1.953125 -5.3125 C 1.484375 -6.226562 1.113281 -7.1875 0.84375 -8.1875 C 0.582031 -9.1875 0.394531 -10.1875 0.28125 -11.1875 C 0.1875 -12 0.140625 -12.882812 0.140625 -13.84375 C 0.148438 -14.800781 0.21875 -15.78125 0.34375 -16.78125 C 0.476562 -17.78125 0.691406 -18.757812 0.984375 -19.71875 C 1.273438 -20.675781 1.664062 -21.554688 2.15625 -22.359375 C 2.644531 -23.171875 3.25 -23.851562 3.96875 -24.40625 C 4.6875 -24.96875 5.53125 -25.347656 6.5 -25.546875 C 7.40625 -25.734375 8.289062 -25.738281 9.15625 -25.5625 C 10.03125 -25.382812 10.859375 -25.0625 11.640625 -24.59375 C 12.421875 -24.132812 13.125 -23.566406 13.75 -22.890625 C 14.375 -22.210938 14.894531 -21.46875 15.3125 -20.65625 C 15.726562 -19.84375 16.007812 -18.992188 16.15625 -18.109375 C 16.3125 -17.222656 16.289062 -16.335938 16.09375 -15.453125 C 15.925781 -14.671875 15.609375 -13.960938 15.140625 -13.328125 C 14.671875 -12.703125 14.09375 -12.195312 13.40625 -11.8125 C 12.726562 -11.425781 11.984375 -11.207031 11.171875 -11.15625 C 10.597656 -11.113281 10.023438 -11.171875 9.453125 -11.328125 C 8.890625 -11.484375 8.378906 -11.726562 7.921875 -12.0625 C 7.460938 -12.394531 7.09375 -12.804688 6.8125 -13.296875 C 6.539062 -13.785156 6.410156 -14.34375 6.421875 -14.96875 C 6.421875 -15.15625 6.53125 -15.296875 6.75 -15.390625 C 6.96875 -15.492188 7.210938 -15.546875 7.484375 -15.546875 C 7.753906 -15.554688 7.992188 -15.515625 8.203125 -15.421875 C 8.410156 -15.335938 8.519531 -15.195312 8.53125 -15 C 8.5625 -14.644531 8.65625 -14.28125 8.8125 -13.90625 C 8.96875 -13.539062 9.1875 -13.21875 9.46875 -12.9375 C 9.75 -12.65625 10.078125 -12.476562 10.453125 -12.40625 C 10.816406 -12.34375 11.160156 -12.390625 11.484375 -12.546875 C 11.804688 -12.703125 12.101562 -12.914062 12.375 -13.1875 C 12.65625 -13.457031 12.878906 -13.722656 13.046875 -13.984375 C 13.546875 -14.765625 13.796875 -15.617188 13.796875 -16.546875 C 13.804688 -17.484375 13.660156 -18.375 13.359375 -19.21875 C 13.140625 -19.851562 12.8125 -20.5 12.375 -21.15625 C 11.9375 -21.820312 11.429688 -22.414062 10.859375 -22.9375 C 10.296875 -23.46875 9.691406 -23.859375 9.046875 -24.109375 C 8.410156 -24.367188 7.753906 -24.421875 7.078125 -24.265625 C 6.410156 -24.117188 5.769531 -23.6875 5.15625 -22.96875 C 4.570312 -22.289062 4.109375 -21.53125 3.765625 -20.6875 C 3.429688 -19.84375 3.195312 -18.957031 3.0625 -18.03125 C 2.925781 -17.113281 2.867188 -16.191406 2.890625 -15.265625 C 2.921875 -14.347656 3 -13.46875 3.125 -12.625 C 3.320312 -11.445312 3.640625 -10.257812 4.078125 -9.0625 C 4.515625 -7.875 5.078125 -6.753906 5.765625 -5.703125 C 6.460938 -4.648438 7.300781 -3.753906 8.28125 -3.015625 C 9.269531 -2.265625 10.28125 -1.796875 11.3125 -1.609375 C 12.351562 -1.429688 13.367188 -1.476562 14.359375 -1.75 C 15.359375 -2.019531 16.296875 -2.46875 17.171875 -3.09375 C 18.046875 -3.71875 18.8125 -4.46875 19.46875 -5.34375 C 20.125 -6.21875 20.628906 -7.171875 20.984375 -8.203125 C 21.429688 -9.515625 21.632812 -10.789062 21.59375 -12.03125 C 21.5625 -13.269531 21.347656 -14.472656 20.953125 -15.640625 C 20.566406 -16.804688 20.050781 -17.9375 19.40625 -19.03125 C 18.769531 -20.125 18.070312 -21.191406 17.3125 -22.234375 C 16.5625 -23.285156 15.8125 -24.304688 15.0625 -25.296875 C 14.09375 -26.585938 13.132812 -27.882812 12.1875 -29.1875 C 11.25 -30.5 10.359375 -31.84375 9.515625 -33.21875 C 8.679688 -34.59375 7.941406 -36.007812 7.296875 -37.46875 C 6.648438 -38.925781 6.144531 -40.453125 5.78125 -42.046875 C 5.570312 -43.015625 5.414062 -44.007812 5.3125 -45.03125 C 5.207031 -46.050781 5.203125 -47.070312 5.296875 -48.09375 C 5.390625 -49.113281 5.601562 -50.09375 5.9375 -51.03125 C 6.175781 -51.65625 6.46875 -52.300781 6.8125 -52.96875 C 7.164062 -53.632812 7.570312 -54.269531 8.03125 -54.875 C 8.488281 -55.488281 8.992188 -56.035156 9.546875 -56.515625 C 10.097656 -57.003906 10.691406 -57.378906 11.328125 -57.640625 C 12.515625 -58.128906 13.601562 -58.378906 14.59375 -58.390625 C 15.59375 -58.398438 16.5 -58.234375 17.3125 -57.890625 C 18.125 -57.554688 18.851562 -57.113281 19.5 -56.5625 C 20.15625 -56.019531 20.722656 -55.4375 21.203125 -54.8125 C 21.679688 -54.1875 22.078125 -53.59375 22.390625 -53.03125 C 22.710938 -52.46875 22.953125 -52.003906 23.109375 -51.640625 C 23.265625 -51.273438 23.347656 -51.082031 23.359375 -51.0625 C 23.878906 -49.738281 24.210938 -48.367188 24.359375 -46.953125 C 24.503906 -45.546875 24.484375 -44.144531 24.296875 -42.75 C 24.285156 -42.625 24.265625 -42.492188 24.234375 -42.359375 C 24.210938 -42.222656 24.179688 -42.082031 24.140625 -41.9375 C 24.046875 -41.488281 23.890625 -41 23.671875 -40.46875 C 23.460938 -39.945312 23.203125 -39.453125 22.890625 -38.984375 C 22.578125 -38.515625 22.21875 -38.125 21.8125 -37.8125 C 21.414062 -37.507812 20.972656 -37.359375 20.484375 -37.359375 C 20.066406 -37.359375 19.632812 -37.445312 19.1875 -37.625 C 18.75 -37.8125 18.34375 -38.132812 17.96875 -38.59375 C 17.59375 -39.0625 17.296875 -39.703125 17.078125 -40.515625 C 16.835938 -41.410156 16.710938 -42.222656 16.703125 -42.953125 C 16.691406 -43.691406 16.742188 -44.351562 16.859375 -44.9375 C 16.984375 -45.53125 17.125 -46.039062 17.28125 -46.46875 C 17.425781 -46.832031 17.597656 -47.101562 17.796875 -47.28125 C 17.992188 -47.457031 18.191406 -47.570312 18.390625 -47.625 C 18.585938 -47.6875 18.75 -47.710938 18.875 -47.703125 C 19.007812 -47.703125 19.078125 -47.703125 19.078125 -47.703125 C 18.992188 -47.566406 18.910156 -47.265625 18.828125 -46.796875 C 18.753906 -46.328125 18.695312 -45.753906 18.65625 -45.078125 C 18.625 -44.410156 18.640625 -43.707031 18.703125 -42.96875 C 18.765625 -42.226562 18.882812 -41.523438 19.0625 -40.859375 C 19.226562 -40.273438 19.421875 -39.8125 19.640625 -39.46875 C 19.867188 -39.125 20.109375 -38.960938 20.359375 -38.984375 C 20.566406 -38.992188 20.757812 -39.171875 20.9375 -39.515625 C 20.9375 -39.515625 20.929688 -39.515625 20.921875 -39.515625 C 21.398438 -40.804688 21.695312 -42.210938 21.8125 -43.734375 C 21.9375 -45.265625 21.847656 -46.773438 21.546875 -48.265625 C 21.535156 -48.234375 21.476562 -48.410156 21.375 -48.796875 C 21.269531 -49.191406 21.09375 -49.707031 20.84375 -50.34375 C 20.601562 -50.988281 20.269531 -51.6875 19.84375 -52.4375 C 19.425781 -53.1875 18.894531 -53.910156 18.25 -54.609375 C 17.601562 -55.316406 16.832031 -55.914062 15.9375 -56.40625 C 15.164062 -56.832031 14.472656 -57.003906 13.859375 -56.921875 C 13.253906 -56.847656 12.71875 -56.597656 12.25 -56.171875 C 11.78125 -55.753906 11.375 -55.226562 11.03125 -54.59375 C 10.695312 -53.957031 10.425781 -53.285156 10.21875 -52.578125 C 10.007812 -51.878906 9.851562 -51.222656 9.75 -50.609375 C 9.488281 -48.992188 9.378906 -47.390625 9.421875 -45.796875 C 9.472656 -44.210938 9.71875 -42.625 10.15625 -41.03125 C 10.625 -39.394531 11.242188 -37.820312 12.015625 -36.3125 C 12.796875 -34.8125 13.664062 -33.359375 14.625 -31.953125 C 15.582031 -30.546875 16.578125 -29.160156 17.609375 -27.796875 C 18.640625 -26.441406 19.648438 -25.085938 20.640625 -23.734375 C 21.296875 -22.847656 21.9375 -21.9375 22.5625 -21 C 23.1875 -20.070312 23.75 -19.109375 24.25 -18.109375 C 24.75 -17.117188 25.125 -16.070312 25.375 -14.96875 Z M 25.375 -14.96875 "/></g></g></g><g fill="#ffffff" fill-opacity="1"><g transform="translate(36.341, 63.499966)"><g><path d="M 14.109375 -26.5625 C 14.171875 -26.695312 14.269531 -26.773438 14.40625 -26.796875 C 14.550781 -26.828125 14.671875 -26.800781 14.765625 -26.71875 C 14.867188 -26.644531 14.890625 -26.519531 14.828125 -26.34375 C 14.660156 -25.09375 14.171875 -24.0625 13.359375 -23.25 C 12.554688 -22.4375 11.457031 -21.757812 10.0625 -21.21875 C 9.90625 -20.132812 9.679688 -19.0625 9.390625 -18 C 9.109375 -16.945312 8.757812 -15.984375 8.34375 -15.109375 C 7.925781 -14.234375 7.4375 -13.523438 6.875 -12.984375 C 6.3125 -12.441406 5.675781 -12.148438 4.96875 -12.109375 C 4.15625 -12.054688 3.445312 -12.1875 2.84375 -12.5 C 2.238281 -12.820312 1.71875 -13.269531 1.28125 -13.84375 C 0.851562 -14.414062 0.492188 -15.070312 0.203125 -15.8125 C -0.078125 -16.5625 -0.296875 -17.332031 -0.453125 -18.125 C -0.617188 -18.914062 -0.742188 -19.6875 -0.828125 -20.4375 C -0.910156 -21.1875 -0.960938 -21.867188 -0.984375 -22.484375 C -1.003906 -23.097656 -1.007812 -23.578125 -1 -23.921875 C -1 -24.078125 -0.984375 -24.222656 -0.953125 -24.359375 C -0.929688 -24.503906 -0.898438 -24.628906 -0.859375 -24.734375 C -1.097656 -25.628906 -1.160156 -26.5625 -1.046875 -27.53125 C -0.929688 -28.507812 -0.671875 -29.460938 -0.265625 -30.390625 C 0.128906 -31.316406 0.648438 -32.144531 1.296875 -32.875 C 1.921875 -33.570312 2.585938 -34.035156 3.296875 -34.265625 C 4.015625 -34.503906 4.71875 -34.539062 5.40625 -34.375 C 6.101562 -34.21875 6.71875 -33.90625 7.25 -33.4375 C 8.519531 -32.320312 9.394531 -30.921875 9.875 -29.234375 C 10.363281 -27.546875 10.5 -25.5 10.28125 -23.09375 C 10.28125 -23.007812 10.273438 -22.925781 10.265625 -22.84375 C 10.253906 -22.757812 10.242188 -22.671875 10.234375 -22.578125 C 10.910156 -22.796875 11.546875 -23.082031 12.140625 -23.4375 C 12.734375 -23.789062 13.210938 -24.226562 13.578125 -24.75 C 13.941406 -25.269531 14.117188 -25.875 14.109375 -26.5625 Z M 2.03125 -29.890625 C 1.957031 -29.609375 1.863281 -29.21875 1.75 -28.71875 C 1.632812 -28.226562 1.550781 -27.691406 1.5 -27.109375 C 1.445312 -26.523438 1.457031 -25.953125 1.53125 -25.390625 C 1.738281 -25.265625 1.898438 -25.113281 2.015625 -24.9375 C 2.140625 -24.757812 2.210938 -24.5625 2.234375 -24.34375 C 2.234375 -24.257812 2.234375 -24.148438 2.234375 -24.015625 C 2.234375 -23.890625 2.234375 -23.738281 2.234375 -23.5625 C 2.253906 -23.539062 2.269531 -23.519531 2.28125 -23.5 C 2.300781 -23.488281 2.316406 -23.46875 2.328125 -23.4375 C 2.753906 -22.96875 3.410156 -22.609375 4.296875 -22.359375 C 5.179688 -22.117188 6.160156 -22.015625 7.234375 -22.046875 C 7.304688 -22.773438 7.34375 -23.390625 7.34375 -23.890625 C 7.375 -24.710938 7.378906 -25.578125 7.359375 -26.484375 C 7.347656 -27.398438 7.273438 -28.300781 7.140625 -29.1875 C 7.003906 -30.070312 6.75 -30.882812 6.375 -31.625 C 5.988281 -32.394531 5.59375 -32.878906 5.1875 -33.078125 C 4.78125 -33.273438 4.378906 -33.253906 3.984375 -33.015625 C 3.597656 -32.785156 3.234375 -32.390625 2.890625 -31.828125 C 2.554688 -31.273438 2.269531 -30.628906 2.03125 -29.890625 Z M 4.828125 -14.3125 C 5.128906 -14.34375 5.394531 -14.535156 5.625 -14.890625 C 5.863281 -15.253906 6.070312 -15.726562 6.25 -16.3125 C 6.4375 -16.90625 6.59375 -17.554688 6.71875 -18.265625 C 6.851562 -18.984375 6.960938 -19.691406 7.046875 -20.390625 C 6.203125 -20.265625 5.378906 -20.234375 4.578125 -20.296875 C 3.773438 -20.359375 3.050781 -20.535156 2.40625 -20.828125 C 2.46875 -20.078125 2.554688 -19.316406 2.671875 -18.546875 C 2.796875 -17.785156 2.953125 -17.078125 3.140625 -16.421875 C 3.328125 -15.773438 3.554688 -15.253906 3.828125 -14.859375 C 4.097656 -14.472656 4.429688 -14.289062 4.828125 -14.3125 Z M 4.828125 -14.3125 "/></g></g></g><g fill="#ffffff" fill-opacity="1"><g transform="translate(50.265426, 63.499966)"><g><path d="M 18.453125 -27.953125 C 18.691406 -27.953125 18.875 -27.898438 19 -27.796875 C 19.132812 -27.691406 19.179688 -27.578125 19.140625 -27.453125 C 19.097656 -27.335938 18.941406 -27.253906 18.671875 -27.203125 C 18.085938 -27.085938 17.460938 -26.957031 16.796875 -26.8125 C 16.128906 -26.675781 15.335938 -26.429688 14.421875 -26.078125 C 14.398438 -25.265625 14.328125 -24.453125 14.203125 -23.640625 C 14.085938 -22.835938 13.9375 -22.046875 13.75 -21.265625 C 13.382812 -19.785156 12.878906 -18.363281 12.234375 -17 C 11.984375 -16.476562 11.695312 -15.929688 11.375 -15.359375 C 11.0625 -14.785156 10.65625 -14.328125 10.15625 -13.984375 C 9.789062 -13.734375 9.367188 -13.539062 8.890625 -13.40625 C 8.410156 -13.269531 7.929688 -13.210938 7.453125 -13.234375 C 6.972656 -13.265625 6.546875 -13.398438 6.171875 -13.640625 C 5.796875 -13.878906 5.53125 -14.257812 5.375 -14.78125 C 5.175781 -15.382812 5.101562 -16.007812 5.15625 -16.65625 C 5.21875 -17.300781 5.363281 -17.941406 5.59375 -18.578125 C 5.820312 -19.210938 6.09375 -19.828125 6.40625 -20.421875 C 6.71875 -21.015625 7.035156 -21.550781 7.359375 -22.03125 C 7.804688 -22.6875 8.304688 -23.289062 8.859375 -23.84375 C 9.421875 -24.394531 10.03125 -24.898438 10.6875 -25.359375 C 10.75 -26.085938 10.773438 -26.851562 10.765625 -27.65625 C 10.765625 -28.46875 10.679688 -29.242188 10.515625 -29.984375 C 10.359375 -30.734375 10.078125 -31.378906 9.671875 -31.921875 C 9.359375 -32.347656 9.046875 -32.566406 8.734375 -32.578125 C 8.421875 -32.585938 8.109375 -32.472656 7.796875 -32.234375 C 7.484375 -31.992188 7.148438 -31.691406 6.796875 -31.328125 C 6.328125 -30.847656 5.90625 -30.3125 5.53125 -29.71875 C 5.15625 -29.132812 4.816406 -28.539062 4.515625 -27.9375 C 4.015625 -26.925781 3.59375 -25.894531 3.25 -24.84375 C 2.90625 -23.789062 2.609375 -22.722656 2.359375 -21.640625 C 2.335938 -20.453125 2.316406 -19.265625 2.296875 -18.078125 C 2.285156 -16.898438 2.28125 -15.71875 2.28125 -14.53125 C 2.269531 -12.71875 2.28125 -10.910156 2.3125 -9.109375 C 2.34375 -7.304688 2.382812 -5.5 2.4375 -3.6875 C 2.46875 -2.820312 2.5 -1.953125 2.53125 -1.078125 C 2.570312 -0.203125 2.613281 0.675781 2.65625 1.5625 C 2.6875 2.070312 2.710938 2.613281 2.734375 3.1875 C 2.765625 3.769531 2.773438 4.347656 2.765625 4.921875 C 2.753906 5.492188 2.71875 6.015625 2.65625 6.484375 C 2.632812 6.679688 2.507812 6.800781 2.28125 6.84375 C 2.050781 6.894531 1.769531 6.882812 1.4375 6.8125 C 1.113281 6.738281 0.789062 6.628906 0.46875 6.484375 C 0.144531 6.335938 -0.128906 6.171875 -0.359375 5.984375 C -0.597656 5.804688 -0.738281 5.628906 -0.78125 5.453125 C -0.945312 4.765625 -1.03125 4.101562 -1.03125 3.46875 C -1.03125 2.832031 -1.050781 2.117188 -1.09375 1.328125 C -1.132812 0.441406 -1.171875 -0.4375 -1.203125 -1.3125 C -1.242188 -2.1875 -1.28125 -3.054688 -1.3125 -3.921875 C -1.363281 -5.679688 -1.398438 -7.4375 -1.421875 -9.1875 C -1.453125 -10.9375 -1.46875 -12.691406 -1.46875 -14.453125 C -1.457031 -16.265625 -1.4375 -18.066406 -1.40625 -19.859375 C -1.382812 -21.660156 -1.335938 -23.46875 -1.265625 -25.28125 C -1.234375 -26.164062 -1.195312 -27.039062 -1.15625 -27.90625 C -1.113281 -28.78125 -1.0625 -29.65625 -1 -30.53125 C -0.945312 -31.113281 -0.921875 -31.601562 -0.921875 -32 C -0.921875 -32.394531 -0.898438 -32.738281 -0.859375 -33.03125 C -0.816406 -33.332031 -0.734375 -33.617188 -0.609375 -33.890625 C -0.460938 -34.160156 -0.222656 -34.3125 0.109375 -34.34375 C 0.453125 -34.375 0.816406 -34.328125 1.203125 -34.203125 C 1.585938 -34.085938 1.921875 -33.929688 2.203125 -33.734375 C 2.492188 -33.535156 2.648438 -33.335938 2.671875 -33.140625 C 2.722656 -32.847656 2.75 -32.601562 2.75 -32.40625 C 2.75 -32.207031 2.738281 -31.957031 2.71875 -31.65625 C 2.707031 -31.363281 2.6875 -30.910156 2.65625 -30.296875 C 2.644531 -29.671875 2.625 -29.046875 2.59375 -28.421875 C 2.570312 -27.796875 2.546875 -27.171875 2.515625 -26.546875 C 2.765625 -27.316406 3.039062 -28.054688 3.34375 -28.765625 C 3.65625 -29.484375 4.003906 -30.179688 4.390625 -30.859375 C 4.671875 -31.316406 5.019531 -31.828125 5.4375 -32.390625 C 5.851562 -32.960938 6.269531 -33.421875 6.6875 -33.765625 C 7.113281 -34.117188 7.59375 -34.351562 8.125 -34.46875 C 8.65625 -34.59375 9.179688 -34.628906 9.703125 -34.578125 C 10.609375 -34.484375 11.363281 -34.210938 11.96875 -33.765625 C 12.582031 -33.316406 13.070312 -32.742188 13.4375 -32.046875 C 13.8125 -31.347656 14.066406 -30.582031 14.203125 -29.75 C 14.265625 -29.332031 14.3125 -28.910156 14.34375 -28.484375 C 14.375 -28.066406 14.398438 -27.640625 14.421875 -27.203125 C 15.148438 -27.453125 15.804688 -27.632812 16.390625 -27.75 C 16.984375 -27.875 17.671875 -27.941406 18.453125 -27.953125 Z M 8.125 -16.484375 C 9.351562 -18.722656 10.140625 -21.117188 10.484375 -23.671875 C 9.953125 -23.160156 9.453125 -22.570312 8.984375 -21.90625 C 8.515625 -21.25 8.097656 -20.476562 7.734375 -19.59375 C 7.484375 -18.988281 7.273438 -18.351562 7.109375 -17.6875 C 6.953125 -17.03125 6.921875 -16.375 7.015625 -15.71875 C 7.035156 -15.53125 7.050781 -15.378906 7.0625 -15.265625 C 7.070312 -15.148438 7.101562 -15.035156 7.15625 -14.921875 C 7.1875 -14.984375 7.210938 -15.03125 7.234375 -15.0625 C 7.265625 -15.101562 7.304688 -15.148438 7.359375 -15.203125 C 7.492188 -15.421875 7.625 -15.632812 7.75 -15.84375 C 7.875 -16.050781 8 -16.265625 8.125 -16.484375 Z M 8.125 -16.484375 "/></g></g></g><g fill="#ffffff" fill-opacity="1"><g transform="translate(68.54489, 63.499966)"><g><path d="M 7.9375 -24.203125 C 7.570312 -23.585938 7.140625 -23.019531 6.640625 -22.5 C 6.148438 -21.988281 5.59375 -21.585938 4.96875 -21.296875 C 4.351562 -21.015625 3.660156 -20.910156 2.890625 -20.984375 C 2.816406 -20.984375 2.738281 -20.988281 2.65625 -21 C 2.582031 -21.007812 2.503906 -21.019531 2.421875 -21.03125 C 2.472656 -20.320312 2.570312 -19.628906 2.71875 -18.953125 C 2.875 -18.273438 3.097656 -17.664062 3.390625 -17.125 C 3.691406 -16.582031 4.085938 -16.140625 4.578125 -15.796875 C 5.078125 -15.460938 5.6875 -15.28125 6.40625 -15.25 C 7.03125 -15.226562 7.617188 -15.375 8.171875 -15.6875 C 8.722656 -16 9.234375 -16.410156 9.703125 -16.921875 C 10.171875 -17.441406 10.597656 -17.988281 10.984375 -18.5625 C 11.378906 -19.132812 11.734375 -19.671875 12.046875 -20.171875 C 12.148438 -20.347656 12.296875 -20.628906 12.484375 -21.015625 C 12.679688 -21.410156 12.890625 -21.863281 13.109375 -22.375 C 13.328125 -22.882812 13.539062 -23.414062 13.75 -23.96875 C 13.96875 -24.53125 14.160156 -25.078125 14.328125 -25.609375 C 14.492188 -26.140625 14.613281 -26.609375 14.6875 -27.015625 C 14.738281 -27.285156 14.851562 -27.457031 15.03125 -27.53125 C 15.207031 -27.613281 15.367188 -27.609375 15.515625 -27.515625 C 15.671875 -27.429688 15.710938 -27.257812 15.640625 -27 C 15.484375 -26.300781 15.257812 -25.507812 14.96875 -24.625 C 14.675781 -23.738281 14.34375 -22.832031 13.96875 -21.90625 C 13.59375 -20.976562 13.195312 -20.078125 12.78125 -19.203125 C 12.257812 -18.097656 11.648438 -17.09375 10.953125 -16.1875 C 10.253906 -15.28125 9.488281 -14.550781 8.65625 -14 C 7.832031 -13.457031 6.953125 -13.15625 6.015625 -13.09375 C 5.140625 -13.019531 4.296875 -13.097656 3.484375 -13.328125 C 2.671875 -13.566406 1.945312 -13.953125 1.3125 -14.484375 C 0.675781 -15.023438 0.160156 -15.707031 -0.234375 -16.53125 C -0.597656 -17.332031 -0.859375 -18.1875 -1.015625 -19.09375 C -1.171875 -20.007812 -1.25 -20.9375 -1.25 -21.875 C -1.257812 -22.820312 -1.238281 -23.726562 -1.1875 -24.59375 C -1.15625 -25.289062 -1.0625 -26.0625 -0.90625 -26.90625 C -0.757812 -27.75 -0.546875 -28.601562 -0.265625 -29.46875 C 0.00390625 -30.34375 0.34375 -31.179688 0.75 -31.984375 C 1.164062 -32.796875 1.648438 -33.519531 2.203125 -34.15625 C 2.765625 -34.800781 3.40625 -35.3125 4.125 -35.6875 C 4.84375 -36.0625 5.644531 -36.25 6.53125 -36.25 C 7.382812 -36.25 8.070312 -36.082031 8.59375 -35.75 C 9.113281 -35.414062 9.492188 -34.957031 9.734375 -34.375 C 9.972656 -33.800781 10.109375 -33.148438 10.140625 -32.421875 C 10.179688 -31.703125 10.132812 -30.945312 10 -30.15625 C 9.875 -29.375 9.691406 -28.601562 9.453125 -27.84375 C 9.222656 -27.09375 8.972656 -26.398438 8.703125 -25.765625 C 8.429688 -25.140625 8.175781 -24.617188 7.9375 -24.203125 Z M 2.390625 -22.5 C 2.421875 -22.476562 2.457031 -22.453125 2.5 -22.421875 C 2.539062 -22.398438 2.585938 -22.375 2.640625 -22.34375 C 3.023438 -22.144531 3.382812 -22.101562 3.71875 -22.21875 C 4.0625 -22.332031 4.375 -22.53125 4.65625 -22.8125 C 4.945312 -23.101562 5.203125 -23.421875 5.421875 -23.765625 C 5.648438 -24.109375 5.84375 -24.410156 6 -24.671875 C 6.570312 -25.703125 7.03125 -26.789062 7.375 -27.9375 C 7.71875 -29.082031 7.894531 -30.238281 7.90625 -31.40625 C 7.925781 -31.707031 7.914062 -32.078125 7.875 -32.515625 C 7.84375 -32.960938 7.757812 -33.390625 7.625 -33.796875 C 7.5 -34.210938 7.28125 -34.503906 6.96875 -34.671875 C 6.6875 -34.835938 6.328125 -34.757812 5.890625 -34.4375 C 5.453125 -34.125 5.007812 -33.597656 4.5625 -32.859375 C 4.113281 -32.128906 3.710938 -31.210938 3.359375 -30.109375 C 3.003906 -29.003906 2.757812 -27.757812 2.625 -26.375 C 2.582031 -25.957031 2.53125 -25.40625 2.46875 -24.71875 C 2.414062 -24.03125 2.390625 -23.289062 2.390625 -22.5 Z M 2.390625 -22.5 "/></g></g></g><g fill="#ffffff" fill-opacity="1"><g transform="translate(83.387189, 63.499966)"><g><path d="M 10.390625 -23.75 C 10.328125 -23.632812 10.164062 -23.550781 9.90625 -23.5 C 9.65625 -23.445312 9.378906 -23.429688 9.078125 -23.453125 C 8.785156 -23.472656 8.539062 -23.53125 8.34375 -23.625 C 8.144531 -23.71875 8.070312 -23.851562 8.125 -24.03125 C 8.28125 -24.582031 8.429688 -25.207031 8.578125 -25.90625 C 8.722656 -26.601562 8.8125 -27.316406 8.84375 -28.046875 C 8.882812 -28.785156 8.84375 -29.5 8.71875 -30.1875 C 8.59375 -30.882812 8.347656 -31.519531 7.984375 -32.09375 C 7.617188 -32.664062 7.09375 -33.128906 6.40625 -33.484375 C 6 -33.691406 5.675781 -33.773438 5.4375 -33.734375 C 5.195312 -33.703125 4.910156 -33.550781 4.578125 -33.28125 C 4.128906 -32.914062 3.742188 -32.460938 3.421875 -31.921875 C 3.097656 -31.378906 2.835938 -30.835938 2.640625 -30.296875 C 2.191406 -29.015625 2.101562 -27.726562 2.375 -26.4375 C 2.65625 -25.144531 3.234375 -23.988281 4.109375 -22.96875 C 4.503906 -22.5 4.945312 -22.082031 5.4375 -21.71875 C 5.925781 -21.363281 6.425781 -21.023438 6.9375 -20.703125 C 7.457031 -20.390625 7.960938 -20.0625 8.453125 -19.71875 C 8.941406 -19.382812 9.394531 -19 9.8125 -18.5625 C 10.34375 -18 10.695312 -17.390625 10.875 -16.734375 C 11.0625 -16.078125 11.046875 -15.4375 10.828125 -14.8125 C 10.617188 -14.195312 10.1875 -13.660156 9.53125 -13.203125 C 8.9375 -12.785156 8.273438 -12.484375 7.546875 -12.296875 C 6.816406 -12.109375 6.09375 -11.992188 5.375 -11.953125 C 4.21875 -11.898438 3.164062 -12.050781 2.21875 -12.40625 C 1.269531 -12.769531 0.5 -13.34375 -0.09375 -14.125 C -0.6875 -14.90625 -1.046875 -15.894531 -1.171875 -17.09375 C -1.203125 -17.351562 -1.097656 -17.5625 -0.859375 -17.71875 C -0.628906 -17.882812 -0.332031 -18 0.03125 -18.0625 C 0.40625 -18.132812 0.773438 -18.148438 1.140625 -18.109375 C 1.515625 -18.066406 1.832031 -17.96875 2.09375 -17.8125 C 2.363281 -17.65625 2.515625 -17.441406 2.546875 -17.171875 C 2.597656 -16.710938 2.703125 -16.234375 2.859375 -15.734375 C 3.015625 -15.242188 3.25 -14.820312 3.5625 -14.46875 C 3.882812 -14.125 4.316406 -13.925781 4.859375 -13.875 C 5.203125 -13.84375 5.546875 -13.890625 5.890625 -14.015625 C 6.242188 -14.140625 6.546875 -14.320312 6.796875 -14.5625 C 7.054688 -14.8125 7.222656 -15.125 7.296875 -15.5 C 7.367188 -15.875 7.300781 -16.296875 7.09375 -16.765625 C 6.925781 -17.160156 6.679688 -17.5 6.359375 -17.78125 C 6.035156 -18.070312 5.6875 -18.332031 5.3125 -18.5625 C 4.9375 -18.789062 4.570312 -19.015625 4.21875 -19.234375 C 3.726562 -19.546875 3.242188 -19.878906 2.765625 -20.234375 C 2.285156 -20.597656 1.835938 -20.984375 1.421875 -21.390625 C 0.609375 -22.191406 -0.0664062 -23.097656 -0.609375 -24.109375 C -1.148438 -25.128906 -1.445312 -26.226562 -1.5 -27.40625 C -1.539062 -28.34375 -1.425781 -29.265625 -1.15625 -30.171875 C -0.882812 -31.078125 -0.484375 -31.910156 0.046875 -32.671875 C 0.585938 -33.441406 1.222656 -34.085938 1.953125 -34.609375 C 2.691406 -35.128906 3.507812 -35.476562 4.40625 -35.65625 C 5.3125 -35.832031 6.257812 -35.789062 7.25 -35.53125 C 8.34375 -35.238281 9.226562 -34.773438 9.90625 -34.140625 C 10.59375 -33.515625 11.097656 -32.78125 11.421875 -31.9375 C 11.753906 -31.09375 11.921875 -30.191406 11.921875 -29.234375 C 11.929688 -28.285156 11.800781 -27.335938 11.53125 -26.390625 C 11.269531 -25.453125 10.890625 -24.570312 10.390625 -23.75 Z M 10.390625 -23.75 "/></g></g></g></svg>