<svg xmlns="http://www.w3.org/2000/svg" xmlns:xlink="http://www.w3.org/1999/xlink" width="1000" zoomAndPan="magnify" viewBox="0 0 750 74.999997" height="100" preserveAspectRatio="xMidYMid meet" version="1.0"><defs><g/></defs><g fill="#ffffff" fill-opacity="1"><g transform="translate(9.164077, 63.499967)"><g><path d="M 24.375 -15.515625 C 24.40625 -15.804688 24.539062 -16.039062 24.78125 -16.21875 C 25.03125 -16.40625 25.320312 -16.53125 25.65625 -16.59375 C 26 -16.65625 26.335938 -16.65625 26.671875 -16.59375 C 27.015625 -16.53125 27.300781 -16.414062 27.53125 -16.25 C 27.769531 -16.082031 27.890625 -15.851562 27.890625 -15.5625 C 27.898438 -14.800781 27.804688 -13.925781 27.609375 -12.9375 C 27.410156 -11.957031 27.109375 -10.945312 26.703125 -9.90625 C 26.304688 -8.863281 25.828125 -7.863281 25.265625 -6.90625 C 24.710938 -5.945312 24.078125 -5.097656 23.359375 -4.359375 C 22.640625 -3.628906 21.859375 -3.078125 21.015625 -2.703125 C 19.960938 -2.234375 18.8125 -1.910156 17.5625 -1.734375 C 16.3125 -1.566406 15.046875 -1.5625 13.765625 -1.71875 C 12.484375 -1.875 11.269531 -2.195312 10.125 -2.6875 C 8.988281 -3.175781 8 -3.84375 7.15625 -4.6875 C 6.039062 -5.8125 5.109375 -7.039062 4.359375 -8.375 C 3.617188 -9.707031 3.023438 -11.101562 2.578125 -12.5625 C 2.140625 -14.03125 1.816406 -15.507812 1.609375 -17 C 1.410156 -18.488281 1.296875 -19.957031 1.265625 -21.40625 C 1.242188 -22.851562 1.28125 -24.226562 1.375 -25.53125 C 1.613281 -29.175781 1.988281 -32.445312 2.5 -35.34375 C 3.019531 -38.238281 3.640625 -40.804688 4.359375 -43.046875 C 5.085938 -45.285156 5.875 -47.234375 6.71875 -48.890625 C 7.5625 -50.546875 8.4375 -51.945312 9.34375 -53.09375 C 10.257812 -54.238281 11.164062 -55.175781 12.0625 -55.90625 C 12.96875 -56.632812 13.828125 -57.191406 14.640625 -57.578125 C 15.460938 -57.972656 16.207031 -58.234375 16.875 -58.359375 C 17.550781 -58.492188 18.113281 -58.539062 18.5625 -58.5 C 19.875 -58.382812 21.007812 -58.082031 21.96875 -57.59375 C 22.9375 -57.101562 23.757812 -56.476562 24.4375 -55.71875 C 25.113281 -54.96875 25.671875 -54.128906 26.109375 -53.203125 C 26.554688 -52.273438 26.898438 -51.3125 27.140625 -50.3125 C 27.390625 -49.3125 27.5625 -48.316406 27.65625 -47.328125 C 27.757812 -46.335938 27.8125 -45.398438 27.8125 -44.515625 C 27.820312 -43.640625 27.804688 -42.859375 27.765625 -42.171875 C 27.734375 -41.492188 27.695312 -40.96875 27.65625 -40.59375 C 27.539062 -39.363281 27.375 -38.148438 27.15625 -36.953125 C 26.945312 -35.753906 26.664062 -34.628906 26.3125 -33.578125 C 25.957031 -32.523438 25.53125 -31.585938 25.03125 -30.765625 C 24.539062 -29.953125 23.960938 -29.300781 23.296875 -28.8125 C 22.640625 -28.332031 21.878906 -28.070312 21.015625 -28.03125 C 20.347656 -28 19.757812 -28.175781 19.25 -28.5625 C 18.75 -28.957031 18.316406 -29.503906 17.953125 -30.203125 C 17.597656 -30.898438 17.316406 -31.703125 17.109375 -32.609375 C 16.898438 -33.515625 16.753906 -34.472656 16.671875 -35.484375 C 16.597656 -36.492188 16.585938 -37.5 16.640625 -38.5 C 16.691406 -39.507812 16.800781 -40.46875 16.96875 -41.375 C 17.144531 -42.28125 17.375 -43.078125 17.65625 -43.765625 C 17.84375 -44.148438 18.0625 -44.378906 18.3125 -44.453125 C 18.5625 -44.535156 18.773438 -44.519531 18.953125 -44.40625 C 19.140625 -44.289062 19.203125 -44.128906 19.140625 -43.921875 C 19.085938 -43.765625 19.023438 -43.425781 18.953125 -42.90625 C 18.878906 -42.382812 18.8125 -41.742188 18.75 -40.984375 C 18.6875 -40.222656 18.632812 -39.394531 18.59375 -38.5 C 18.550781 -37.601562 18.539062 -36.691406 18.5625 -35.765625 C 18.582031 -34.835938 18.644531 -33.957031 18.75 -33.125 C 18.863281 -32.289062 19.03125 -31.554688 19.25 -30.921875 C 19.476562 -30.296875 19.773438 -29.816406 20.140625 -29.484375 C 20.515625 -29.148438 20.96875 -29.035156 21.5 -29.140625 C 21.800781 -29.191406 22.078125 -29.394531 22.328125 -29.75 C 22.585938 -30.101562 22.820312 -30.550781 23.03125 -31.09375 C 23.238281 -31.644531 23.425781 -32.238281 23.59375 -32.875 C 23.757812 -33.519531 23.90625 -34.160156 24.03125 -34.796875 C 24.15625 -35.441406 24.253906 -36.03125 24.328125 -36.5625 C 24.410156 -37.09375 24.46875 -37.515625 24.5 -37.828125 C 24.625 -39.148438 24.726562 -40.515625 24.8125 -41.921875 C 24.894531 -43.335938 24.921875 -44.738281 24.890625 -46.125 C 24.859375 -47.519531 24.738281 -48.847656 24.53125 -50.109375 C 24.320312 -51.378906 23.984375 -52.519531 23.515625 -53.53125 C 23.054688 -54.550781 22.441406 -55.382812 21.671875 -56.03125 C 20.898438 -56.6875 19.925781 -57.09375 18.75 -57.25 C 18.03125 -57.351562 17.253906 -57.234375 16.421875 -56.890625 C 15.585938 -56.546875 14.734375 -55.914062 13.859375 -55 C 12.984375 -54.09375 12.125 -52.847656 11.28125 -51.265625 C 10.4375 -49.679688 9.644531 -47.707031 8.90625 -45.34375 C 8.175781 -42.976562 7.535156 -40.175781 6.984375 -36.9375 C 6.429688 -33.695312 6.003906 -29.953125 5.703125 -25.703125 C 5.585938 -24.117188 5.550781 -22.5 5.59375 -20.84375 C 5.644531 -19.195312 5.804688 -17.5625 6.078125 -15.9375 C 6.359375 -14.320312 6.789062 -12.753906 7.375 -11.234375 C 7.96875 -9.710938 8.753906 -8.285156 9.734375 -6.953125 C 10.273438 -6.210938 10.925781 -5.582031 11.6875 -5.0625 C 12.445312 -4.539062 13.269531 -4.164062 14.15625 -3.9375 C 15.039062 -3.71875 15.929688 -3.675781 16.828125 -3.8125 C 17.734375 -3.957031 18.585938 -4.304688 19.390625 -4.859375 C 20.222656 -5.453125 20.9375 -6.148438 21.53125 -6.953125 C 22.125 -7.765625 22.613281 -8.640625 23 -9.578125 C 23.394531 -10.523438 23.703125 -11.503906 23.921875 -12.515625 C 24.148438 -13.523438 24.300781 -14.523438 24.375 -15.515625 Z M 24.375 -15.515625 "/></g></g></g><g fill="#ffffff" fill-opacity="1"><g transform="translate(39.786084, 63.499967)"><g><path d="M 20.3125 -26.390625 C 20.320312 -26.515625 20.414062 -26.597656 20.59375 -26.640625 C 20.769531 -26.691406 20.945312 -26.695312 21.125 -26.65625 C 21.300781 -26.625 21.382812 -26.539062 21.375 -26.40625 C 21.300781 -24.507812 21.140625 -22.585938 20.890625 -20.640625 C 20.640625 -18.691406 20.289062 -16.757812 19.84375 -14.84375 C 19.40625 -12.925781 18.847656 -11.078125 18.171875 -9.296875 C 17.910156 -8.609375 17.503906 -8.046875 16.953125 -7.609375 C 16.410156 -7.171875 15.789062 -6.910156 15.09375 -6.828125 C 14.40625 -6.742188 13.703125 -6.878906 12.984375 -7.234375 C 12.398438 -7.515625 11.945312 -7.925781 11.625 -8.46875 C 11.300781 -9.019531 11.0625 -9.628906 10.90625 -10.296875 C 10.75 -10.972656 10.648438 -11.648438 10.609375 -12.328125 C 10.566406 -13.015625 10.539062 -13.632812 10.53125 -14.1875 C 10.488281 -16.082031 10.546875 -17.96875 10.703125 -19.84375 C 10.867188 -21.71875 11.03125 -23.59375 11.1875 -25.46875 C 11.34375 -27.351562 11.394531 -29.242188 11.34375 -31.140625 C 11.238281 -31.003906 11.113281 -30.867188 10.96875 -30.734375 C 10.820312 -30.597656 10.710938 -30.476562 10.640625 -30.375 C 10.347656 -29.914062 10.078125 -29.414062 9.828125 -28.875 C 9.554688 -28.3125 9.3125 -27.734375 9.09375 -27.140625 C 8.875 -26.554688 8.671875 -25.972656 8.484375 -25.390625 C 8.015625 -23.941406 7.625 -22.484375 7.3125 -21.015625 C 7 -19.546875 6.75 -18.054688 6.5625 -16.546875 C 6.507812 -16.148438 6.46875 -15.679688 6.4375 -15.140625 C 6.40625 -14.609375 6.335938 -14.070312 6.234375 -13.53125 C 6.140625 -13 5.972656 -12.523438 5.734375 -12.109375 C 5.492188 -11.703125 5.140625 -11.429688 4.671875 -11.296875 C 4.265625 -11.160156 3.863281 -11.132812 3.46875 -11.21875 C 3.082031 -11.300781 2.722656 -11.441406 2.390625 -11.640625 C 2.054688 -11.847656 1.769531 -12.066406 1.53125 -12.296875 C 1.289062 -12.535156 1.117188 -12.738281 1.015625 -12.90625 C 0.910156 -13.0625 0.828125 -13.226562 0.765625 -13.40625 C 0.710938 -13.59375 0.660156 -13.78125 0.609375 -13.96875 C -0.0976562 -16.800781 -0.582031 -19.703125 -0.84375 -22.671875 C -1.113281 -25.640625 -1.222656 -28.582031 -1.171875 -31.5 C -1.117188 -33.875 -0.960938 -36.160156 -0.703125 -38.359375 C -0.441406 -40.554688 -0.113281 -42.601562 0.28125 -44.5 C 0.675781 -46.40625 1.101562 -48.097656 1.5625 -49.578125 C 2.03125 -51.054688 2.492188 -52.265625 2.953125 -53.203125 C 3.410156 -54.148438 3.828125 -54.769531 4.203125 -55.0625 C 4.503906 -55.28125 4.847656 -55.46875 5.234375 -55.625 C 5.628906 -55.789062 6.035156 -55.898438 6.453125 -55.953125 C 6.867188 -56.003906 7.257812 -55.976562 7.625 -55.875 C 8 -55.769531 8.316406 -55.5625 8.578125 -55.25 C 9.015625 -54.707031 9.332031 -53.925781 9.53125 -52.90625 C 9.738281 -51.882812 9.8125 -50.6875 9.75 -49.3125 C 9.6875 -47.945312 9.488281 -46.457031 9.15625 -44.84375 C 8.832031 -43.238281 8.367188 -41.5625 7.765625 -39.8125 C 7.171875 -38.0625 6.429688 -36.289062 5.546875 -34.5 C 4.660156 -32.707031 3.632812 -30.960938 2.46875 -29.265625 C 2.476562 -28.753906 2.492188 -28.242188 2.515625 -27.734375 C 2.535156 -27.222656 2.550781 -26.722656 2.5625 -26.234375 C 2.6875 -23.753906 2.941406 -21.285156 3.328125 -18.828125 C 3.429688 -18.191406 3.535156 -17.554688 3.640625 -16.921875 C 3.753906 -16.296875 3.875 -15.671875 4 -15.046875 C 4.03125 -14.992188 4.046875 -14.929688 4.046875 -14.859375 C 4.054688 -14.796875 4.066406 -14.734375 4.078125 -14.671875 C 4.148438 -14.972656 4.207031 -15.257812 4.25 -15.53125 C 4.289062 -15.800781 4.332031 -16.039062 4.375 -16.25 C 4.488281 -16.90625 4.601562 -17.550781 4.71875 -18.1875 C 4.832031 -18.832031 4.957031 -19.476562 5.09375 -20.125 C 5.382812 -21.425781 5.722656 -22.707031 6.109375 -23.96875 C 6.503906 -25.238281 6.941406 -26.488281 7.421875 -27.71875 C 7.628906 -28.257812 7.867188 -28.820312 8.140625 -29.40625 C 8.421875 -30 8.738281 -30.566406 9.09375 -31.109375 C 9.445312 -31.648438 9.851562 -32.101562 10.3125 -32.46875 C 10.675781 -32.75 11.101562 -32.925781 11.59375 -33 C 12.09375 -33.070312 12.585938 -33.039062 13.078125 -32.90625 C 13.566406 -32.78125 13.96875 -32.554688 14.28125 -32.234375 C 14.632812 -31.867188 14.875 -31.414062 15 -30.875 C 15.132812 -30.34375 15.195312 -29.769531 15.1875 -29.15625 C 15.175781 -28.550781 15.140625 -27.957031 15.078125 -27.375 C 15.015625 -26.789062 14.96875 -26.28125 14.9375 -25.84375 C 14.863281 -24.601562 14.765625 -23.363281 14.640625 -22.125 C 14.515625 -20.894531 14.40625 -19.660156 14.3125 -18.421875 C 14.226562 -17.234375 14.164062 -16.023438 14.125 -14.796875 C 14.09375 -13.578125 14.191406 -12.390625 14.421875 -11.234375 C 14.484375 -10.890625 14.5625 -10.546875 14.65625 -10.203125 C 14.757812 -9.867188 14.894531 -9.554688 15.0625 -9.265625 C 15.21875 -9.003906 15.332031 -8.851562 15.40625 -8.8125 C 15.476562 -8.769531 15.546875 -8.8125 15.609375 -8.9375 C 15.679688 -9.0625 15.785156 -9.234375 15.921875 -9.453125 C 16.222656 -9.929688 16.476562 -10.4375 16.6875 -10.96875 C 16.90625 -11.507812 17.113281 -12.039062 17.3125 -12.5625 C 19.03125 -17.007812 20.03125 -21.617188 20.3125 -26.390625 Z M 3.25 -41.03125 C 3 -39.363281 2.8125 -37.6875 2.6875 -36 C 2.5625 -34.320312 2.488281 -32.632812 2.46875 -30.9375 C 3.207031 -32.425781 3.890625 -33.9375 4.515625 -35.46875 C 5.148438 -37.007812 5.71875 -38.566406 6.21875 -40.140625 C 6.59375 -41.296875 6.925781 -42.460938 7.21875 -43.640625 C 7.507812 -44.816406 7.738281 -46.015625 7.90625 -47.234375 C 8 -47.835938 8.066406 -48.445312 8.109375 -49.0625 C 8.160156 -49.675781 8.160156 -50.289062 8.109375 -50.90625 C 8.097656 -51.09375 8.070312 -51.359375 8.03125 -51.703125 C 8 -52.054688 7.953125 -52.414062 7.890625 -52.78125 C 7.828125 -53.15625 7.734375 -53.488281 7.609375 -53.78125 C 7.492188 -54.082031 7.34375 -54.28125 7.15625 -54.375 C 7 -54.4375 6.8125 -54.269531 6.59375 -53.875 C 6.375 -53.476562 6.144531 -52.921875 5.90625 -52.203125 C 5.675781 -51.492188 5.441406 -50.6875 5.203125 -49.78125 C 4.960938 -48.882812 4.734375 -47.96875 4.515625 -47.03125 C 4.296875 -46.09375 4.09375 -45.207031 3.90625 -44.375 C 3.726562 -43.539062 3.578125 -42.828125 3.453125 -42.234375 C 3.335938 -41.640625 3.269531 -41.238281 3.25 -41.03125 Z M 3.25 -41.03125 "/></g></g></g><g fill="#ffffff" fill-opacity="1"><g transform="translate(60.506721, 63.499967)"><g><path d="M -0.546875 -27.890625 C -0.535156 -28.234375 -0.515625 -28.644531 -0.484375 -29.125 C -0.453125 -29.601562 -0.421875 -30.085938 -0.390625 -30.578125 C -0.367188 -31.066406 -0.359375 -31.472656 -0.359375 -31.796875 C -0.359375 -31.828125 -0.351562 -31.859375 -0.34375 -31.890625 C -0.332031 -31.929688 -0.328125 -31.96875 -0.328125 -32 C -0.671875 -32.007812 -0.976562 -32.066406 -1.25 -32.171875 C -1.519531 -32.285156 -1.65625 -32.46875 -1.65625 -32.71875 C -1.65625 -32.988281 -1.519531 -33.1875 -1.25 -33.3125 C -0.976562 -33.4375 -0.609375 -33.515625 -0.140625 -33.546875 C 0.316406 -33.578125 0.828125 -33.59375 1.390625 -33.59375 C 2.234375 -33.59375 2.941406 -33.519531 3.515625 -33.375 C 4.097656 -33.238281 4.398438 -33.019531 4.421875 -32.71875 C 4.429688 -32.5 4.34375 -32.335938 4.15625 -32.234375 C 3.96875 -32.128906 3.664062 -32.0625 3.25 -32.03125 C 3.25 -32.007812 3.25 -31.976562 3.25 -31.9375 C 3.25 -31.894531 3.25 -31.863281 3.25 -31.84375 C 3.257812 -31.488281 3.253906 -31.015625 3.234375 -30.421875 C 3.222656 -29.828125 3.203125 -29.203125 3.171875 -28.546875 C 3.140625 -27.890625 3.109375 -27.265625 3.078125 -26.671875 C 3.054688 -26.085938 3.039062 -25.625 3.03125 -25.28125 C 2.976562 -23.90625 2.914062 -22.519531 2.84375 -21.125 C 2.78125 -19.726562 2.863281 -18.351562 3.09375 -17 C 3.113281 -16.8125 3.160156 -16.546875 3.234375 -16.203125 C 3.304688 -15.859375 3.40625 -15.5 3.53125 -15.125 C 3.65625 -14.757812 3.8125 -14.441406 4 -14.171875 C 4.1875 -13.898438 4.40625 -13.765625 4.65625 -13.765625 C 5.09375 -13.753906 5.507812 -13.957031 5.90625 -14.375 C 6.300781 -14.800781 6.671875 -15.367188 7.015625 -16.078125 C 7.367188 -16.796875 7.691406 -17.578125 7.984375 -18.421875 C 8.273438 -19.273438 8.535156 -20.132812 8.765625 -21 C 9.003906 -21.875 9.203125 -22.675781 9.359375 -23.40625 C 9.515625 -24.144531 9.628906 -24.75 9.703125 -25.21875 C 9.734375 -25.363281 9.816406 -25.445312 9.953125 -25.46875 C 10.097656 -25.5 10.234375 -25.484375 10.359375 -25.421875 C 10.492188 -25.359375 10.550781 -25.257812 10.53125 -25.125 C 10.414062 -24.414062 10.265625 -23.601562 10.078125 -22.6875 C 9.898438 -21.78125 9.679688 -20.835938 9.421875 -19.859375 C 9.171875 -18.890625 8.863281 -17.9375 8.5 -17 C 8.144531 -16.070312 7.734375 -15.234375 7.265625 -14.484375 C 6.796875 -13.734375 6.257812 -13.132812 5.65625 -12.6875 C 5.0625 -12.25 4.378906 -12.03125 3.609375 -12.03125 C 2.859375 -12.03125 2.148438 -12.269531 1.484375 -12.75 C 0.835938 -13.25 0.347656 -13.867188 0.015625 -14.609375 C -0.304688 -15.347656 -0.519531 -16.144531 -0.625 -17 C -0.738281 -17.851562 -0.789062 -18.707031 -0.78125 -19.5625 C -0.78125 -20.425781 -0.769531 -21.21875 -0.75 -21.9375 C -0.71875 -22.925781 -0.679688 -23.914062 -0.640625 -24.90625 C -0.609375 -25.90625 -0.578125 -26.898438 -0.546875 -27.890625 Z M 4.6875 -36.875 C 4.675781 -36.488281 4.410156 -36.160156 3.890625 -35.890625 C 3.367188 -35.617188 2.742188 -35.492188 2.015625 -35.515625 C 1.273438 -35.523438 0.644531 -35.671875 0.125 -35.953125 C -0.382812 -36.234375 -0.632812 -36.566406 -0.625 -36.953125 C -0.625 -37.210938 -0.503906 -37.445312 -0.265625 -37.65625 C -0.0234375 -37.863281 0.296875 -38.03125 0.703125 -38.15625 C 1.117188 -38.28125 1.566406 -38.335938 2.046875 -38.328125 C 2.773438 -38.304688 3.394531 -38.148438 3.90625 -37.859375 C 4.425781 -37.578125 4.6875 -37.25 4.6875 -36.875 Z M 4.6875 -36.875 "/></g></g></g><g fill="#ffffff" fill-opacity="1"><g transform="translate(70.447161, 63.499967)"><g><path d="M 12.171875 -25.859375 C 11.867188 -24.515625 11.570312 -23.175781 11.28125 -21.84375 C 11 -20.519531 10.695312 -19.265625 10.375 -18.078125 C 10.0625 -16.890625 9.710938 -15.820312 9.328125 -14.875 C 8.941406 -13.925781 8.503906 -13.164062 8.015625 -12.59375 C 7.523438 -12.019531 6.96875 -11.691406 6.34375 -11.609375 C 5.351562 -11.460938 4.488281 -11.550781 3.75 -11.875 C 3.007812 -12.195312 2.375 -12.691406 1.84375 -13.359375 C 1.320312 -14.035156 0.878906 -14.820312 0.515625 -15.71875 C 0.160156 -16.625 -0.125 -17.578125 -0.34375 -18.578125 C -0.5625 -19.578125 -0.722656 -20.578125 -0.828125 -21.578125 C -0.941406 -22.585938 -1.019531 -23.53125 -1.0625 -24.40625 C -1.113281 -25.28125 -1.144531 -26.03125 -1.15625 -26.65625 C -1.195312 -28.976562 -1.125 -31.335938 -0.9375 -33.734375 C -0.757812 -36.140625 -0.441406 -38.523438 0.015625 -40.890625 C 0.472656 -43.265625 1.085938 -45.546875 1.859375 -47.734375 C 2.335938 -49.097656 2.796875 -50.234375 3.234375 -51.140625 C 3.671875 -52.046875 4.082031 -52.769531 4.46875 -53.3125 C 4.851562 -53.863281 5.210938 -54.273438 5.546875 -54.546875 C 5.890625 -54.828125 6.203125 -55.007812 6.484375 -55.09375 C 7.523438 -55.457031 8.4375 -55.210938 9.21875 -54.359375 C 9.632812 -53.898438 9.890625 -53.207031 9.984375 -52.28125 C 10.085938 -51.363281 10.050781 -50.273438 9.875 -49.015625 C 9.707031 -47.753906 9.421875 -46.398438 9.015625 -44.953125 C 8.609375 -43.503906 8.085938 -42.015625 7.453125 -40.484375 C 6.816406 -38.960938 6.09375 -37.46875 5.28125 -36 C 4.46875 -34.53125 3.582031 -33.160156 2.625 -31.890625 C 2.59375 -31.441406 2.570312 -30.898438 2.5625 -30.265625 C 2.550781 -29.628906 2.546875 -28.992188 2.546875 -28.359375 C 2.546875 -27.734375 2.546875 -27.191406 2.546875 -26.734375 C 2.566406 -25.347656 2.640625 -23.9375 2.765625 -22.5 C 2.890625 -21.070312 3.117188 -19.671875 3.453125 -18.296875 C 3.628906 -17.691406 3.828125 -17.082031 4.046875 -16.46875 C 4.273438 -15.851562 4.554688 -15.273438 4.890625 -14.734375 C 5.097656 -14.398438 5.300781 -14.140625 5.5 -13.953125 C 5.695312 -13.773438 6 -13.695312 6.40625 -13.71875 C 6.75 -13.726562 7.082031 -13.941406 7.40625 -14.359375 C 7.726562 -14.773438 8.035156 -15.320312 8.328125 -16 C 8.617188 -16.675781 8.894531 -17.421875 9.15625 -18.234375 C 9.414062 -19.054688 9.65625 -19.890625 9.875 -20.734375 C 10.101562 -21.585938 10.304688 -22.394531 10.484375 -23.15625 C 10.660156 -23.914062 10.8125 -24.566406 10.9375 -25.109375 C 11.070312 -25.648438 11.171875 -26.023438 11.234375 -26.234375 C 11.335938 -26.546875 11.476562 -26.710938 11.65625 -26.734375 C 11.832031 -26.765625 11.976562 -26.691406 12.09375 -26.515625 C 12.207031 -26.347656 12.234375 -26.128906 12.171875 -25.859375 Z M 4.34375 -43.640625 C 4.0625 -42.242188 3.804688 -40.84375 3.578125 -39.4375 C 3.359375 -38.03125 3.160156 -36.617188 2.984375 -35.203125 C 3.160156 -35.359375 3.394531 -35.6875 3.6875 -36.1875 C 3.988281 -36.695312 4.328125 -37.335938 4.703125 -38.109375 C 5.085938 -38.890625 5.476562 -39.75 5.875 -40.6875 C 6.269531 -41.625 6.648438 -42.601562 7.015625 -43.625 C 7.390625 -44.65625 7.71875 -45.675781 8 -46.6875 C 8.289062 -47.695312 8.507812 -48.660156 8.65625 -49.578125 C 8.800781 -50.492188 8.847656 -51.3125 8.796875 -52.03125 C 8.753906 -52.757812 8.582031 -53.335938 8.28125 -53.765625 C 8.019531 -53.691406 7.753906 -53.453125 7.484375 -53.046875 C 7.210938 -52.640625 6.941406 -52.128906 6.671875 -51.515625 C 6.398438 -50.898438 6.144531 -50.226562 5.90625 -49.5 C 5.664062 -48.78125 5.441406 -48.050781 5.234375 -47.3125 C 5.023438 -46.582031 4.84375 -45.894531 4.6875 -45.25 C 4.539062 -44.613281 4.425781 -44.078125 4.34375 -43.640625 Z M 4.34375 -43.640625 "/></g></g></g><g fill="#ffffff" fill-opacity="1"><g transform="translate(81.637479, 63.499967)"><g><path d="M 15.640625 -27.5 C 15.660156 -27.5625 15.738281 -27.597656 15.875 -27.609375 C 16.019531 -27.628906 16.164062 -27.625 16.3125 -27.59375 C 16.457031 -27.570312 16.519531 -27.53125 16.5 -27.46875 C 16.3125 -25.832031 16.050781 -24.195312 15.71875 -22.5625 C 15.382812 -20.9375 14.9375 -19.347656 14.375 -17.796875 C 14.164062 -17.210938 13.929688 -16.613281 13.671875 -16 C 13.410156 -15.394531 13.09375 -14.859375 12.71875 -14.390625 C 12.351562 -13.921875 11.894531 -13.585938 11.34375 -13.390625 C 10.800781 -13.191406 10.140625 -13.195312 9.359375 -13.40625 C 8.722656 -13.582031 8.222656 -13.914062 7.859375 -14.40625 C 7.492188 -14.90625 7.222656 -15.492188 7.046875 -16.171875 C 6.867188 -16.847656 6.75 -17.539062 6.6875 -18.25 C 6.550781 -17.832031 6.40625 -17.414062 6.25 -17 C 6.101562 -16.59375 5.941406 -16.191406 5.765625 -15.796875 C 5.523438 -15.265625 5.238281 -14.757812 4.90625 -14.28125 C 4.582031 -13.8125 4.207031 -13.414062 3.78125 -13.09375 C 3.351562 -12.78125 2.875 -12.578125 2.34375 -12.484375 C 1.820312 -12.398438 1.238281 -12.484375 0.59375 -12.734375 C 0.03125 -12.953125 -0.414062 -13.28125 -0.75 -13.71875 C -1.09375 -14.15625 -1.351562 -14.644531 -1.53125 -15.1875 C -1.707031 -15.738281 -1.832031 -16.304688 -1.90625 -16.890625 C -1.976562 -17.484375 -2.023438 -18.039062 -2.046875 -18.5625 C -2.128906 -19.945312 -2.09375 -21.328125 -1.9375 -22.703125 C -1.78125 -24.078125 -1.519531 -25.4375 -1.15625 -26.78125 C -1 -27.351562 -0.816406 -27.96875 -0.609375 -28.625 C -0.410156 -29.28125 -0.175781 -29.929688 0.09375 -30.578125 C 0.375 -31.222656 0.695312 -31.820312 1.0625 -32.375 C 1.425781 -32.9375 1.851562 -33.414062 2.34375 -33.8125 C 2.71875 -34.113281 3.148438 -34.34375 3.640625 -34.5 C 4.140625 -34.664062 4.648438 -34.75 5.171875 -34.75 C 5.691406 -34.75 6.191406 -34.660156 6.671875 -34.484375 C 7.160156 -34.304688 7.570312 -34.03125 7.90625 -33.65625 C 7.9375 -33.625 7.960938 -33.59375 7.984375 -33.5625 C 8.015625 -33.53125 8.039062 -33.492188 8.0625 -33.453125 C 8.445312 -33.554688 8.835938 -33.59375 9.234375 -33.5625 C 9.640625 -33.539062 9.984375 -33.453125 10.265625 -33.296875 C 10.546875 -33.140625 10.671875 -32.921875 10.640625 -32.640625 C 10.515625 -30.828125 10.394531 -29 10.28125 -27.15625 C 10.175781 -25.3125 10.148438 -23.472656 10.203125 -21.640625 C 10.253906 -19.816406 10.453125 -18.007812 10.796875 -16.21875 C 10.816406 -16.082031 10.84375 -15.945312 10.875 -15.8125 C 10.90625 -15.675781 10.941406 -15.539062 10.984375 -15.40625 C 11.117188 -15.582031 11.25 -15.753906 11.375 -15.921875 C 11.5 -16.085938 11.613281 -16.253906 11.71875 -16.421875 C 12.082031 -16.960938 12.410156 -17.507812 12.703125 -18.0625 C 12.992188 -18.625 13.265625 -19.195312 13.515625 -19.78125 C 14.046875 -21.019531 14.484375 -22.28125 14.828125 -23.5625 C 15.179688 -24.84375 15.453125 -26.15625 15.640625 -27.5 Z M 5 -22.46875 C 5.351562 -23.695312 5.640625 -24.941406 5.859375 -26.203125 C 6.078125 -27.460938 6.289062 -28.722656 6.5 -29.984375 C 6.414062 -30.242188 6.300781 -30.5 6.15625 -30.75 C 6.019531 -30.96875 5.894531 -31.1875 5.78125 -31.40625 C 5.664062 -31.625 5.535156 -31.835938 5.390625 -32.046875 C 5.335938 -32.128906 5.28125 -32.207031 5.21875 -32.28125 C 5.164062 -32.363281 5.109375 -32.441406 5.046875 -32.515625 C 4.953125 -32.378906 4.863281 -32.238281 4.78125 -32.09375 C 4.695312 -31.945312 4.613281 -31.800781 4.53125 -31.65625 C 4.40625 -31.4375 4.28125 -31.207031 4.15625 -30.96875 C 4.039062 -30.726562 3.929688 -30.484375 3.828125 -30.234375 C 3.359375 -29.222656 2.96875 -28.1875 2.65625 -27.125 C 2.300781 -25.976562 2.035156 -24.800781 1.859375 -23.59375 C 1.691406 -22.394531 1.609375 -21.195312 1.609375 -20 C 1.609375 -19.46875 1.617188 -18.929688 1.640625 -18.390625 C 1.671875 -17.847656 1.726562 -17.3125 1.8125 -16.78125 C 1.84375 -16.625 1.890625 -16.375 1.953125 -16.03125 C 2.015625 -15.6875 2.109375 -15.359375 2.234375 -15.046875 C 2.460938 -15.367188 2.671875 -15.738281 2.859375 -16.15625 C 3.046875 -16.582031 3.210938 -16.988281 3.359375 -17.375 C 3.515625 -17.757812 3.625 -18.039062 3.6875 -18.21875 C 3.945312 -18.914062 4.179688 -19.617188 4.390625 -20.328125 C 4.597656 -21.035156 4.800781 -21.75 5 -22.46875 Z M 5 -22.46875 "/></g></g></g><g fill="#ffffff" fill-opacity="1"><g transform="translate(97.397663, 63.499967)"><g><path d="M 19.0625 -26.609375 C 18.851562 -24.523438 18.472656 -22.601562 17.921875 -20.84375 C 17.378906 -19.082031 16.726562 -17.507812 15.96875 -16.125 C 15.21875 -14.738281 14.414062 -13.554688 13.5625 -12.578125 C 12.707031 -11.597656 11.878906 -10.859375 11.078125 -10.359375 C 11.910156 -10.148438 12.628906 -9.785156 13.234375 -9.265625 C 13.847656 -8.753906 14.367188 -8.128906 14.796875 -7.390625 C 15.234375 -6.660156 15.59375 -5.851562 15.875 -4.96875 C 16.15625 -4.082031 16.378906 -3.171875 16.546875 -2.234375 C 16.691406 -1.453125 16.757812 -0.566406 16.75 0.421875 C 16.738281 1.421875 16.65625 2.421875 16.5 3.421875 C 16.34375 4.429688 16.113281 5.378906 15.8125 6.265625 C 15.507812 7.148438 15.125 7.890625 14.65625 8.484375 C 14.1875 9.085938 13.640625 9.460938 13.015625 9.609375 C 12.140625 9.804688 11.390625 9.816406 10.765625 9.640625 C 10.140625 9.460938 9.613281 9.144531 9.1875 8.6875 C 8.769531 8.238281 8.429688 7.691406 8.171875 7.046875 C 7.910156 6.410156 7.707031 5.726562 7.5625 5 C 7.425781 4.28125 7.332031 3.5625 7.28125 2.84375 C 7.226562 2.125 7.195312 1.457031 7.1875 0.84375 C 7.132812 -2.300781 7.160156 -5.441406 7.265625 -8.578125 C 7.367188 -11.710938 7.503906 -14.847656 7.671875 -17.984375 C 7.460938 -17.429688 7.195312 -16.90625 6.875 -16.40625 C 6.5625 -15.914062 6.164062 -15.519531 5.6875 -15.21875 C 5.175781 -14.90625 4.617188 -14.707031 4.015625 -14.625 C 3.421875 -14.550781 2.832031 -14.597656 2.25 -14.765625 C 1.675781 -14.929688 1.164062 -15.21875 0.71875 -15.625 C 0.351562 -15.976562 0.0546875 -16.40625 -0.171875 -16.90625 C -0.398438 -17.414062 -0.570312 -17.957031 -0.6875 -18.53125 C -0.800781 -19.101562 -0.882812 -19.671875 -0.9375 -20.234375 C -1 -20.804688 -1.046875 -21.328125 -1.078125 -21.796875 C -1.234375 -24.347656 -0.867188 -26.816406 0.015625 -29.203125 C 0.242188 -29.785156 0.507812 -30.394531 0.8125 -31.03125 C 1.113281 -31.675781 1.476562 -32.273438 1.90625 -32.828125 C 2.332031 -33.378906 2.835938 -33.8125 3.421875 -34.125 C 4.097656 -34.488281 4.757812 -34.644531 5.40625 -34.59375 C 6.050781 -34.550781 6.65625 -34.359375 7.21875 -34.015625 C 7.78125 -33.671875 8.265625 -33.222656 8.671875 -32.671875 C 8.679688 -32.722656 8.6875 -32.796875 8.6875 -32.890625 C 8.71875 -33.160156 8.859375 -33.378906 9.109375 -33.546875 C 9.367188 -33.710938 9.679688 -33.820312 10.046875 -33.875 C 10.421875 -33.925781 10.785156 -33.925781 11.140625 -33.875 C 11.503906 -33.820312 11.800781 -33.71875 12.03125 -33.5625 C 12.269531 -33.414062 12.378906 -33.210938 12.359375 -32.953125 C 12.097656 -29.421875 11.847656 -25.882812 11.609375 -22.34375 C 11.367188 -18.8125 11.175781 -15.273438 11.03125 -11.734375 C 11.6875 -12.296875 12.335938 -13 12.984375 -13.84375 C 13.640625 -14.695312 14.265625 -15.640625 14.859375 -16.671875 C 15.460938 -17.703125 16.003906 -18.785156 16.484375 -19.921875 C 16.960938 -21.054688 17.359375 -22.1875 17.671875 -23.3125 C 17.984375 -24.445312 18.175781 -25.535156 18.25 -26.578125 C 18.257812 -26.679688 18.332031 -26.75 18.46875 -26.78125 C 18.601562 -26.820312 18.738281 -26.828125 18.875 -26.796875 C 19.007812 -26.773438 19.070312 -26.710938 19.0625 -26.609375 Z M 8.375 -28.71875 C 8.394531 -28.800781 8.40625 -28.878906 8.40625 -28.953125 C 8.414062 -29.035156 8.421875 -29.125 8.421875 -29.21875 C 8.171875 -29.769531 7.929688 -30.320312 7.703125 -30.875 C 7.472656 -31.425781 7.175781 -31.941406 6.8125 -32.421875 C 6.46875 -32.878906 6.050781 -33.179688 5.5625 -33.328125 C 5.082031 -33.484375 4.625 -33.332031 4.1875 -32.875 C 3.9375 -32.601562 3.722656 -32.296875 3.546875 -31.953125 C 3.378906 -31.617188 3.234375 -31.28125 3.109375 -30.9375 C 2.585938 -29.476562 2.257812 -27.9375 2.125 -26.3125 C 1.988281 -24.695312 2.015625 -23.128906 2.203125 -21.609375 C 2.304688 -20.804688 2.453125 -20 2.640625 -19.1875 C 2.835938 -18.375 3.125 -17.617188 3.5 -16.921875 C 3.519531 -16.867188 3.582031 -16.742188 3.6875 -16.546875 C 3.789062 -16.347656 3.867188 -16.238281 3.921875 -16.21875 C 4.054688 -16.175781 4.1875 -16.207031 4.3125 -16.3125 C 4.445312 -16.425781 4.566406 -16.554688 4.671875 -16.703125 C 4.785156 -16.847656 4.863281 -16.957031 4.90625 -17.03125 C 5.101562 -17.351562 5.269531 -17.691406 5.40625 -18.046875 C 5.539062 -18.410156 5.671875 -18.769531 5.796875 -19.125 C 6.191406 -20.164062 6.507812 -21.222656 6.75 -22.296875 C 6.988281 -23.378906 7.222656 -24.460938 7.453125 -25.546875 C 7.691406 -26.628906 8 -27.6875 8.375 -28.71875 Z M 14.671875 -4.203125 C 14.566406 -4.890625 14.347656 -5.582031 14.015625 -6.28125 C 13.691406 -6.988281 13.269531 -7.625 12.75 -8.1875 C 12.226562 -8.757812 11.625 -9.160156 10.9375 -9.390625 C 10.894531 -7.960938 10.859375 -6.53125 10.828125 -5.09375 C 10.804688 -3.65625 10.804688 -2.210938 10.828125 -0.765625 C 10.835938 0.0546875 10.835938 0.929688 10.828125 1.859375 C 10.828125 2.796875 10.890625 3.710938 11.015625 4.609375 C 11.148438 5.503906 11.425781 6.332031 11.84375 7.09375 C 11.875 7.144531 11.910156 7.203125 11.953125 7.265625 C 11.992188 7.328125 12.035156 7.394531 12.078125 7.46875 C 12.160156 7.539062 12.320312 7.5625 12.5625 7.53125 C 12.8125 7.5 13.082031 7.359375 13.375 7.109375 C 13.675781 6.859375 13.960938 6.46875 14.234375 5.9375 C 14.515625 5.414062 14.738281 4.710938 14.90625 3.828125 C 15.070312 2.941406 15.148438 1.835938 15.140625 0.515625 C 15.128906 -0.796875 14.972656 -2.367188 14.671875 -4.203125 Z M 14.671875 -4.203125 "/></g></g></g><g fill="#ffffff" fill-opacity="1"><g transform="translate(115.540426, 63.499967)"><g><path d="M 16.9375 -24.921875 C 16.945312 -24.960938 17.003906 -24.988281 17.109375 -25 C 17.210938 -25.007812 17.316406 -25.007812 17.421875 -25 C 17.535156 -25 17.59375 -24.976562 17.59375 -24.9375 C 17.664062 -23.582031 17.597656 -22.25 17.390625 -20.9375 C 17.179688 -19.632812 16.890625 -18.34375 16.515625 -17.0625 C 16.140625 -15.78125 15.738281 -14.488281 15.3125 -13.1875 C 15.113281 -12.582031 14.859375 -12.015625 14.546875 -11.484375 C 14.234375 -10.960938 13.859375 -10.535156 13.421875 -10.203125 C 12.992188 -9.867188 12.507812 -9.6875 11.96875 -9.65625 C 11.425781 -9.625 10.828125 -9.804688 10.171875 -10.203125 C 9.734375 -10.472656 9.394531 -10.828125 9.15625 -11.265625 C 8.925781 -11.703125 8.75 -12.171875 8.625 -12.671875 C 8.507812 -13.171875 8.410156 -13.65625 8.328125 -14.125 C 8.140625 -15.125 8.019531 -16.128906 7.96875 -17.140625 C 7.925781 -18.160156 7.921875 -19.179688 7.953125 -20.203125 C 7.960938 -20.523438 7.976562 -20.84375 8 -21.15625 C 8.019531 -21.476562 8.035156 -21.796875 8.046875 -22.109375 C 7.765625 -21.203125 7.503906 -20.3125 7.265625 -19.4375 C 7.035156 -18.5625 6.789062 -17.757812 6.53125 -17.03125 C 6.28125 -16.300781 5.972656 -15.6875 5.609375 -15.1875 C 5.253906 -14.6875 4.796875 -14.34375 4.234375 -14.15625 C 3.472656 -13.914062 2.804688 -13.878906 2.234375 -14.046875 C 1.660156 -14.222656 1.164062 -14.550781 0.75 -15.03125 C 0.34375 -15.507812 0.00390625 -16.070312 -0.265625 -16.71875 C -0.535156 -17.375 -0.75 -18.050781 -0.90625 -18.75 C -1.0625 -19.457031 -1.171875 -20.113281 -1.234375 -20.71875 C -1.347656 -21.75 -1.414062 -22.785156 -1.4375 -23.828125 C -1.46875 -24.878906 -1.476562 -25.921875 -1.46875 -26.953125 C -1.46875 -27.535156 -1.457031 -28.144531 -1.4375 -28.78125 C -1.425781 -29.414062 -1.398438 -30.023438 -1.359375 -30.609375 C -1.328125 -31.191406 -1.257812 -31.710938 -1.15625 -32.171875 C -1.050781 -32.628906 -0.898438 -32.972656 -0.703125 -33.203125 C -0.554688 -33.367188 -0.335938 -33.519531 -0.046875 -33.65625 C 0.242188 -33.800781 0.554688 -33.882812 0.890625 -33.90625 C 1.222656 -33.9375 1.503906 -33.882812 1.734375 -33.75 C 1.972656 -33.625 2.09375 -33.382812 2.09375 -33.03125 C 2.101562 -32.757812 2.109375 -32.359375 2.109375 -31.828125 C 2.109375 -31.296875 2.109375 -30.695312 2.109375 -30.03125 C 2.109375 -29.363281 2.109375 -28.671875 2.109375 -27.953125 C 2.117188 -27.234375 2.128906 -26.539062 2.140625 -25.875 C 2.148438 -25.21875 2.160156 -24.625 2.171875 -24.09375 C 2.179688 -23.5625 2.191406 -23.160156 2.203125 -22.890625 C 2.242188 -22.148438 2.3125 -21.40625 2.40625 -20.65625 C 2.5 -19.914062 2.628906 -19.179688 2.796875 -18.453125 C 2.796875 -18.453125 2.8125 -18.351562 2.84375 -18.15625 C 2.882812 -17.96875 2.953125 -17.734375 3.046875 -17.453125 C 3.140625 -17.179688 3.253906 -16.914062 3.390625 -16.65625 C 3.535156 -16.394531 3.707031 -16.195312 3.90625 -16.0625 C 4.113281 -15.9375 4.351562 -15.921875 4.625 -16.015625 C 4.8125 -16.078125 5.015625 -16.351562 5.234375 -16.84375 C 5.453125 -17.332031 5.679688 -17.972656 5.921875 -18.765625 C 6.171875 -19.566406 6.414062 -20.445312 6.65625 -21.40625 C 6.894531 -22.375 7.125 -23.375 7.34375 -24.40625 C 7.5625 -25.4375 7.753906 -26.4375 7.921875 -27.40625 C 8.097656 -28.382812 8.238281 -29.273438 8.34375 -30.078125 C 8.445312 -30.890625 8.5 -31.539062 8.5 -32.03125 C 8.5 -32.125 8.5 -32.207031 8.5 -32.28125 C 8.5 -32.363281 8.492188 -32.453125 8.484375 -32.546875 C 8.453125 -32.785156 8.550781 -33.003906 8.78125 -33.203125 C 9.007812 -33.398438 9.296875 -33.550781 9.640625 -33.65625 C 9.992188 -33.769531 10.347656 -33.832031 10.703125 -33.84375 C 11.066406 -33.863281 11.375 -33.816406 11.625 -33.703125 C 11.882812 -33.585938 12.019531 -33.398438 12.03125 -33.140625 C 12.113281 -31.609375 12.101562 -30.046875 12 -28.453125 C 11.90625 -26.867188 11.800781 -25.269531 11.6875 -23.65625 C 11.582031 -22.050781 11.53125 -20.453125 11.53125 -18.859375 C 11.539062 -17.273438 11.675781 -15.722656 11.9375 -14.203125 C 12 -13.859375 12.0625 -13.515625 12.125 -13.171875 C 12.195312 -12.828125 12.296875 -12.5 12.421875 -12.1875 C 12.515625 -11.9375 12.644531 -11.691406 12.8125 -11.453125 C 12.820312 -11.429688 12.828125 -11.414062 12.828125 -11.40625 C 13.242188 -12.03125 13.585938 -12.648438 13.859375 -13.265625 C 14.140625 -13.890625 14.394531 -14.5625 14.625 -15.28125 C 15.132812 -16.84375 15.601562 -18.429688 16.03125 -20.046875 C 16.46875 -21.671875 16.769531 -23.296875 16.9375 -24.921875 Z M 16.9375 -24.921875 "/></g></g></g><g fill="#ffffff" fill-opacity="1"><g transform="translate(132.452835, 63.499967)"><g><path d="M -0.546875 -27.890625 C -0.535156 -28.234375 -0.515625 -28.644531 -0.484375 -29.125 C -0.453125 -29.601562 -0.421875 -30.085938 -0.390625 -30.578125 C -0.367188 -31.066406 -0.359375 -31.472656 -0.359375 -31.796875 C -0.359375 -31.828125 -0.351562 -31.859375 -0.34375 -31.890625 C -0.332031 -31.929688 -0.328125 -31.96875 -0.328125 -32 C -0.671875 -32.007812 -0.976562 -32.066406 -1.25 -32.171875 C -1.519531 -32.285156 -1.65625 -32.46875 -1.65625 -32.71875 C -1.65625 -32.988281 -1.519531 -33.1875 -1.25 -33.3125 C -0.976562 -33.4375 -0.609375 -33.515625 -0.140625 -33.546875 C 0.316406 -33.578125 0.828125 -33.59375 1.390625 -33.59375 C 2.234375 -33.59375 2.941406 -33.519531 3.515625 -33.375 C 4.097656 -33.238281 4.398438 -33.019531 4.421875 -32.71875 C 4.429688 -32.5 4.34375 -32.335938 4.15625 -32.234375 C 3.96875 -32.128906 3.664062 -32.0625 3.25 -32.03125 C 3.25 -32.007812 3.25 -31.976562 3.25 -31.9375 C 3.25 -31.894531 3.25 -31.863281 3.25 -31.84375 C 3.257812 -31.488281 3.253906 -31.015625 3.234375 -30.421875 C 3.222656 -29.828125 3.203125 -29.203125 3.171875 -28.546875 C 3.140625 -27.890625 3.109375 -27.265625 3.078125 -26.671875 C 3.054688 -26.085938 3.039062 -25.625 3.03125 -25.28125 C 2.976562 -23.90625 2.914062 -22.519531 2.84375 -21.125 C 2.78125 -19.726562 2.863281 -18.351562 3.09375 -17 C 3.113281 -16.8125 3.160156 -16.546875 3.234375 -16.203125 C 3.304688 -15.859375 3.40625 -15.5 3.53125 -15.125 C 3.65625 -14.757812 3.8125 -14.441406 4 -14.171875 C 4.1875 -13.898438 4.40625 -13.765625 4.65625 -13.765625 C 5.09375 -13.753906 5.507812 -13.957031 5.90625 -14.375 C 6.300781 -14.800781 6.671875 -15.367188 7.015625 -16.078125 C 7.367188 -16.796875 7.691406 -17.578125 7.984375 -18.421875 C 8.273438 -19.273438 8.535156 -20.132812 8.765625 -21 C 9.003906 -21.875 9.203125 -22.675781 9.359375 -23.40625 C 9.515625 -24.144531 9.628906 -24.75 9.703125 -25.21875 C 9.734375 -25.363281 9.816406 -25.445312 9.953125 -25.46875 C 10.097656 -25.5 10.234375 -25.484375 10.359375 -25.421875 C 10.492188 -25.359375 10.550781 -25.257812 10.53125 -25.125 C 10.414062 -24.414062 10.265625 -23.601562 10.078125 -22.6875 C 9.898438 -21.78125 9.679688 -20.835938 9.421875 -19.859375 C 9.171875 -18.890625 8.863281 -17.9375 8.5 -17 C 8.144531 -16.070312 7.734375 -15.234375 7.265625 -14.484375 C 6.796875 -13.734375 6.257812 -13.132812 5.65625 -12.6875 C 5.0625 -12.25 4.378906 -12.03125 3.609375 -12.03125 C 2.859375 -12.03125 2.148438 -12.269531 1.484375 -12.75 C 0.835938 -13.25 0.347656 -13.867188 0.015625 -14.609375 C -0.304688 -15.347656 -0.519531 -16.144531 -0.625 -17 C -0.738281 -17.851562 -0.789062 -18.707031 -0.78125 -19.5625 C -0.78125 -20.425781 -0.769531 -21.21875 -0.75 -21.9375 C -0.71875 -22.925781 -0.679688 -23.914062 -0.640625 -24.90625 C -0.609375 -25.90625 -0.578125 -26.898438 -0.546875 -27.890625 Z M 4.6875 -36.875 C 4.675781 -36.488281 4.410156 -36.160156 3.890625 -35.890625 C 3.367188 -35.617188 2.742188 -35.492188 2.015625 -35.515625 C 1.273438 -35.523438 0.644531 -35.671875 0.125 -35.953125 C -0.382812 -36.234375 -0.632812 -36.566406 -0.625 -36.953125 C -0.625 -37.210938 -0.503906 -37.445312 -0.265625 -37.65625 C -0.0234375 -37.863281 0.296875 -38.03125 0.703125 -38.15625 C 1.117188 -38.28125 1.566406 -38.335938 2.046875 -38.328125 C 2.773438 -38.304688 3.394531 -38.148438 3.90625 -37.859375 C 4.425781 -37.578125 4.6875 -37.25 4.6875 -36.875 Z M 4.6875 -36.875 "/></g></g></g><g fill="#ffffff" fill-opacity="1"><g transform="translate(142.393276, 63.499967)"><g><path d="M 12.171875 -25.859375 C 11.867188 -24.515625 11.570312 -23.175781 11.28125 -21.84375 C 11 -20.519531 10.695312 -19.265625 10.375 -18.078125 C 10.0625 -16.890625 9.710938 -15.820312 9.328125 -14.875 C 8.941406 -13.925781 8.503906 -13.164062 8.015625 -12.59375 C 7.523438 -12.019531 6.96875 -11.691406 6.34375 -11.609375 C 5.351562 -11.460938 4.488281 -11.550781 3.75 -11.875 C 3.007812 -12.195312 2.375 -12.691406 1.84375 -13.359375 C 1.320312 -14.035156 0.878906 -14.820312 0.515625 -15.71875 C 0.160156 -16.625 -0.125 -17.578125 -0.34375 -18.578125 C -0.5625 -19.578125 -0.722656 -20.578125 -0.828125 -21.578125 C -0.941406 -22.585938 -1.019531 -23.53125 -1.0625 -24.40625 C -1.113281 -25.28125 -1.144531 -26.03125 -1.15625 -26.65625 C -1.195312 -28.976562 -1.125 -31.335938 -0.9375 -33.734375 C -0.757812 -36.140625 -0.441406 -38.523438 0.015625 -40.890625 C 0.472656 -43.265625 1.085938 -45.546875 1.859375 -47.734375 C 2.335938 -49.097656 2.796875 -50.234375 3.234375 -51.140625 C 3.671875 -52.046875 4.082031 -52.769531 4.46875 -53.3125 C 4.851562 -53.863281 5.210938 -54.273438 5.546875 -54.546875 C 5.890625 -54.828125 6.203125 -55.007812 6.484375 -55.09375 C 7.523438 -55.457031 8.4375 -55.210938 9.21875 -54.359375 C 9.632812 -53.898438 9.890625 -53.207031 9.984375 -52.28125 C 10.085938 -51.363281 10.050781 -50.273438 9.875 -49.015625 C 9.707031 -47.753906 9.421875 -46.398438 9.015625 -44.953125 C 8.609375 -43.503906 8.085938 -42.015625 7.453125 -40.484375 C 6.816406 -38.960938 6.09375 -37.46875 5.28125 -36 C 4.46875 -34.53125 3.582031 -33.160156 2.625 -31.890625 C 2.59375 -31.441406 2.570312 -30.898438 2.5625 -30.265625 C 2.550781 -29.628906 2.546875 -28.992188 2.546875 -28.359375 C 2.546875 -27.734375 2.546875 -27.191406 2.546875 -26.734375 C 2.566406 -25.347656 2.640625 -23.9375 2.765625 -22.5 C 2.890625 -21.070312 3.117188 -19.671875 3.453125 -18.296875 C 3.628906 -17.691406 3.828125 -17.082031 4.046875 -16.46875 C 4.273438 -15.851562 4.554688 -15.273438 4.890625 -14.734375 C 5.097656 -14.398438 5.300781 -14.140625 5.5 -13.953125 C 5.695312 -13.773438 6 -13.695312 6.40625 -13.71875 C 6.75 -13.726562 7.082031 -13.941406 7.40625 -14.359375 C 7.726562 -14.773438 8.035156 -15.320312 8.328125 -16 C 8.617188 -16.675781 8.894531 -17.421875 9.15625 -18.234375 C 9.414062 -19.054688 9.65625 -19.890625 9.875 -20.734375 C 10.101562 -21.585938 10.304688 -22.394531 10.484375 -23.15625 C 10.660156 -23.914062 10.8125 -24.566406 10.9375 -25.109375 C 11.070312 -25.648438 11.171875 -26.023438 11.234375 -26.234375 C 11.335938 -26.546875 11.476562 -26.710938 11.65625 -26.734375 C 11.832031 -26.765625 11.976562 -26.691406 12.09375 -26.515625 C 12.207031 -26.347656 12.234375 -26.128906 12.171875 -25.859375 Z M 4.34375 -43.640625 C 4.0625 -42.242188 3.804688 -40.84375 3.578125 -39.4375 C 3.359375 -38.03125 3.160156 -36.617188 2.984375 -35.203125 C 3.160156 -35.359375 3.394531 -35.6875 3.6875 -36.1875 C 3.988281 -36.695312 4.328125 -37.335938 4.703125 -38.109375 C 5.085938 -38.890625 5.476562 -39.75 5.875 -40.6875 C 6.269531 -41.625 6.648438 -42.601562 7.015625 -43.625 C 7.390625 -44.65625 7.71875 -45.675781 8 -46.6875 C 8.289062 -47.695312 8.507812 -48.660156 8.65625 -49.578125 C 8.800781 -50.492188 8.847656 -51.3125 8.796875 -52.03125 C 8.753906 -52.757812 8.582031 -53.335938 8.28125 -53.765625 C 8.019531 -53.691406 7.753906 -53.453125 7.484375 -53.046875 C 7.210938 -52.640625 6.941406 -52.128906 6.671875 -51.515625 C 6.398438 -50.898438 6.144531 -50.226562 5.90625 -49.5 C 5.664062 -48.78125 5.441406 -48.050781 5.234375 -47.3125 C 5.023438 -46.582031 4.84375 -45.894531 4.6875 -45.25 C 4.539062 -44.613281 4.425781 -44.078125 4.34375 -43.640625 Z M 4.34375 -43.640625 "/></g></g></g><g fill="#ffffff" fill-opacity="1"><g transform="translate(153.583594, 63.499967)"><g><path d="M 7.9375 -24.203125 C 7.570312 -23.585938 7.140625 -23.019531 6.640625 -22.5 C 6.148438 -21.988281 5.59375 -21.585938 4.96875 -21.296875 C 4.351562 -21.015625 3.660156 -20.910156 2.890625 -20.984375 C 2.816406 -20.984375 2.738281 -20.988281 2.65625 -21 C 2.582031 -21.007812 2.503906 -21.019531 2.421875 -21.03125 C 2.472656 -20.320312 2.570312 -19.628906 2.71875 -18.953125 C 2.875 -18.273438 3.097656 -17.664062 3.390625 -17.125 C 3.691406 -16.582031 4.085938 -16.140625 4.578125 -15.796875 C 5.078125 -15.460938 5.6875 -15.28125 6.40625 -15.25 C 7.03125 -15.226562 7.617188 -15.375 8.171875 -15.6875 C 8.722656 -16 9.234375 -16.410156 9.703125 -16.921875 C 10.171875 -17.441406 10.597656 -17.988281 10.984375 -18.5625 C 11.378906 -19.132812 11.734375 -19.671875 12.046875 -20.171875 C 12.148438 -20.347656 12.296875 -20.628906 12.484375 -21.015625 C 12.679688 -21.410156 12.890625 -21.863281 13.109375 -22.375 C 13.328125 -22.882812 13.539062 -23.414062 13.75 -23.96875 C 13.96875 -24.53125 14.160156 -25.078125 14.328125 -25.609375 C 14.492188 -26.140625 14.613281 -26.609375 14.6875 -27.015625 C 14.738281 -27.285156 14.851562 -27.457031 15.03125 -27.53125 C 15.207031 -27.613281 15.367188 -27.609375 15.515625 -27.515625 C 15.671875 -27.429688 15.710938 -27.257812 15.640625 -27 C 15.484375 -26.300781 15.257812 -25.507812 14.96875 -24.625 C 14.675781 -23.738281 14.34375 -22.832031 13.96875 -21.90625 C 13.59375 -20.976562 13.195312 -20.078125 12.78125 -19.203125 C 12.257812 -18.097656 11.648438 -17.09375 10.953125 -16.1875 C 10.253906 -15.28125 9.488281 -14.550781 8.65625 -14 C 7.832031 -13.457031 6.953125 -13.15625 6.015625 -13.09375 C 5.140625 -13.019531 4.296875 -13.097656 3.484375 -13.328125 C 2.671875 -13.566406 1.945312 -13.953125 1.3125 -14.484375 C 0.675781 -15.023438 0.160156 -15.707031 -0.234375 -16.53125 C -0.597656 -17.332031 -0.859375 -18.1875 -1.015625 -19.09375 C -1.171875 -20.007812 -1.25 -20.9375 -1.25 -21.875 C -1.257812 -22.820312 -1.238281 -23.726562 -1.1875 -24.59375 C -1.15625 -25.289062 -1.0625 -26.0625 -0.90625 -26.90625 C -0.757812 -27.75 -0.546875 -28.601562 -0.265625 -29.46875 C 0.00390625 -30.34375 0.34375 -31.179688 0.75 -31.984375 C 1.164062 -32.796875 1.648438 -33.519531 2.203125 -34.15625 C 2.765625 -34.800781 3.40625 -35.3125 4.125 -35.6875 C 4.84375 -36.0625 5.644531 -36.25 6.53125 -36.25 C 7.382812 -36.25 8.070312 -36.082031 8.59375 -35.75 C 9.113281 -35.414062 9.492188 -34.957031 9.734375 -34.375 C 9.972656 -33.800781 10.109375 -33.148438 10.140625 -32.421875 C 10.179688 -31.703125 10.132812 -30.945312 10 -30.15625 C 9.875 -29.375 9.691406 -28.601562 9.453125 -27.84375 C 9.222656 -27.09375 8.972656 -26.398438 8.703125 -25.765625 C 8.429688 -25.140625 8.175781 -24.617188 7.9375 -24.203125 Z M 2.390625 -22.5 C 2.421875 -22.476562 2.457031 -22.453125 2.5 -22.421875 C 2.539062 -22.398438 2.585938 -22.375 2.640625 -22.34375 C 3.023438 -22.144531 3.382812 -22.101562 3.71875 -22.21875 C 4.0625 -22.332031 4.375 -22.53125 4.65625 -22.8125 C 4.945312 -23.101562 5.203125 -23.421875 5.421875 -23.765625 C 5.648438 -24.109375 5.84375 -24.410156 6 -24.671875 C 6.570312 -25.703125 7.03125 -26.789062 7.375 -27.9375 C 7.71875 -29.082031 7.894531 -30.238281 7.90625 -31.40625 C 7.925781 -31.707031 7.914062 -32.078125 7.875 -32.515625 C 7.84375 -32.960938 7.757812 -33.390625 7.625 -33.796875 C 7.5 -34.210938 7.28125 -34.503906 6.96875 -34.671875 C 6.6875 -34.835938 6.328125 -34.757812 5.890625 -34.4375 C 5.453125 -34.125 5.007812 -33.597656 4.5625 -32.859375 C 4.113281 -32.128906 3.710938 -31.210938 3.359375 -30.109375 C 3.003906 -29.003906 2.757812 -27.757812 2.625 -26.375 C 2.582031 -25.957031 2.53125 -25.40625 2.46875 -24.71875 C 2.414062 -24.03125 2.390625 -23.289062 2.390625 -22.5 Z M 2.390625 -22.5 "/></g></g></g><g fill="#ffffff" fill-opacity="1"><g transform="translate(168.425893, 63.499967)"><g><path d="M 10.390625 -23.75 C 10.328125 -23.632812 10.164062 -23.550781 9.90625 -23.5 C 9.65625 -23.445312 9.378906 -23.429688 9.078125 -23.453125 C 8.785156 -23.472656 8.539062 -23.53125 8.34375 -23.625 C 8.144531 -23.71875 8.070312 -23.851562 8.125 -24.03125 C 8.28125 -24.582031 8.429688 -25.207031 8.578125 -25.90625 C 8.722656 -26.601562 8.8125 -27.316406 8.84375 -28.046875 C 8.882812 -28.785156 8.84375 -29.5 8.71875 -30.1875 C 8.59375 -30.882812 8.347656 -31.519531 7.984375 -32.09375 C 7.617188 -32.664062 7.09375 -33.128906 6.40625 -33.484375 C 6 -33.691406 5.675781 -33.773438 5.4375 -33.734375 C 5.195312 -33.703125 4.910156 -33.550781 4.578125 -33.28125 C 4.128906 -32.914062 3.742188 -32.460938 3.421875 -31.921875 C 3.097656 -31.378906 2.835938 -30.835938 2.640625 -30.296875 C 2.191406 -29.015625 2.101562 -27.726562 2.375 -26.4375 C 2.65625 -25.144531 3.234375 -23.988281 4.109375 -22.96875 C 4.503906 -22.5 4.945312 -22.082031 5.4375 -21.71875 C 5.925781 -21.363281 6.425781 -21.023438 6.9375 -20.703125 C 7.457031 -20.390625 7.960938 -20.0625 8.453125 -19.71875 C 8.941406 -19.382812 9.394531 -19 9.8125 -18.5625 C 10.34375 -18 10.695312 -17.390625 10.875 -16.734375 C 11.0625 -16.078125 11.046875 -15.4375 10.828125 -14.8125 C 10.617188 -14.195312 10.1875 -13.660156 9.53125 -13.203125 C 8.9375 -12.785156 8.273438 -12.484375 7.546875 -12.296875 C 6.816406 -12.109375 6.09375 -11.992188 5.375 -11.953125 C 4.21875 -11.898438 3.164062 -12.050781 2.21875 -12.40625 C 1.269531 -12.769531 0.5 -13.34375 -0.09375 -14.125 C -0.6875 -14.90625 -1.046875 -15.894531 -1.171875 -17.09375 C -1.203125 -17.351562 -1.097656 -17.5625 -0.859375 -17.71875 C -0.628906 -17.882812 -0.332031 -18 0.03125 -18.0625 C 0.40625 -18.132812 0.773438 -18.148438 1.140625 -18.109375 C 1.515625 -18.066406 1.832031 -17.96875 2.09375 -17.8125 C 2.363281 -17.65625 2.515625 -17.441406 2.546875 -17.171875 C 2.597656 -16.710938 2.703125 -16.234375 2.859375 -15.734375 C 3.015625 -15.242188 3.25 -14.820312 3.5625 -14.46875 C 3.882812 -14.125 4.316406 -13.925781 4.859375 -13.875 C 5.203125 -13.84375 5.546875 -13.890625 5.890625 -14.015625 C 6.242188 -14.140625 6.546875 -14.320312 6.796875 -14.5625 C 7.054688 -14.8125 7.222656 -15.125 7.296875 -15.5 C 7.367188 -15.875 7.300781 -16.296875 7.09375 -16.765625 C 6.925781 -17.160156 6.679688 -17.5 6.359375 -17.78125 C 6.035156 -18.070312 5.6875 -18.332031 5.3125 -18.5625 C 4.9375 -18.789062 4.570312 -19.015625 4.21875 -19.234375 C 3.726562 -19.546875 3.242188 -19.878906 2.765625 -20.234375 C 2.285156 -20.597656 1.835938 -20.984375 1.421875 -21.390625 C 0.609375 -22.191406 -0.0664062 -23.097656 -0.609375 -24.109375 C -1.148438 -25.128906 -1.445312 -26.226562 -1.5 -27.40625 C -1.539062 -28.34375 -1.425781 -29.265625 -1.15625 -30.171875 C -0.882812 -31.078125 -0.484375 -31.910156 0.046875 -32.671875 C 0.585938 -33.441406 1.222656 -34.085938 1.953125 -34.609375 C 2.691406 -35.128906 3.507812 -35.476562 4.40625 -35.65625 C 5.3125 -35.832031 6.257812 -35.789062 7.25 -35.53125 C 8.34375 -35.238281 9.226562 -34.773438 9.90625 -34.140625 C 10.59375 -33.515625 11.097656 -32.78125 11.421875 -31.9375 C 11.753906 -31.09375 11.921875 -30.191406 11.921875 -29.234375 C 11.929688 -28.285156 11.800781 -27.335938 11.53125 -26.390625 C 11.269531 -25.453125 10.890625 -24.570312 10.390625 -23.75 Z M 10.390625 -23.75 "/></g></g></g></svg>