<svg xmlns="http://www.w3.org/2000/svg" xmlns:xlink="http://www.w3.org/1999/xlink" width="1000" zoomAndPan="magnify" viewBox="0 0 750 74.999997" height="100" preserveAspectRatio="xMidYMid meet" version="1.0"><defs><g/></defs><g fill="#ffffff" fill-opacity="1"><g transform="translate(12.41017, 63.499974)"><g><path d="M 11.390625 -36.34375 C 10.492188 -35.757812 9.570312 -35.410156 8.625 -35.296875 C 7.675781 -35.191406 6.765625 -35.273438 5.890625 -35.546875 C 5.015625 -35.816406 4.21875 -36.25 3.5 -36.84375 C 2.78125 -37.445312 2.195312 -38.171875 1.75 -39.015625 C 1.300781 -39.867188 1.035156 -40.8125 0.953125 -41.84375 C 0.847656 -43.257812 1.023438 -44.582031 1.484375 -45.8125 C 1.941406 -47.039062 2.601562 -48.148438 3.46875 -49.140625 C 4.34375 -50.140625 5.347656 -50.992188 6.484375 -51.703125 C 7.628906 -52.421875 8.828125 -52.960938 10.078125 -53.328125 C 11.046875 -53.609375 12.113281 -53.789062 13.28125 -53.875 C 14.457031 -53.957031 15.6875 -53.976562 16.96875 -53.9375 C 18.257812 -53.90625 19.570312 -53.84375 20.90625 -53.75 C 22.238281 -53.65625 23.550781 -53.570312 24.84375 -53.5 C 26.144531 -53.4375 27.390625 -53.414062 28.578125 -53.4375 C 29.773438 -53.46875 30.875 -53.570312 31.875 -53.75 C 32.875 -53.9375 33.742188 -54.234375 34.484375 -54.640625 C 35.222656 -55.046875 35.785156 -55.613281 36.171875 -56.34375 C 36.535156 -57.019531 36.742188 -57.753906 36.796875 -58.546875 C 36.847656 -59.347656 36.707031 -60.097656 36.375 -60.796875 C 36.132812 -61.285156 35.820312 -61.660156 35.4375 -61.921875 C 35.050781 -62.191406 34.648438 -62.46875 34.234375 -62.75 C 34.066406 -62.875 34.003906 -63.003906 34.046875 -63.140625 C 34.085938 -63.273438 34.175781 -63.394531 34.3125 -63.5 C 34.445312 -63.613281 34.570312 -63.6875 34.6875 -63.71875 C 35.414062 -63.9375 36.128906 -63.96875 36.828125 -63.8125 C 37.523438 -63.664062 38.148438 -63.363281 38.703125 -62.90625 C 39.265625 -62.457031 39.695312 -61.878906 40 -61.171875 C 40.3125 -60.472656 40.460938 -59.710938 40.453125 -58.890625 C 40.441406 -58.066406 40.285156 -57.273438 39.984375 -56.515625 C 39.691406 -55.753906 39.273438 -55.085938 38.734375 -54.515625 C 38.273438 -54.046875 37.710938 -53.628906 37.046875 -53.265625 C 36.390625 -52.898438 35.703125 -52.59375 34.984375 -52.34375 C 34.265625 -52.09375 33.585938 -51.898438 32.953125 -51.765625 C 31.691406 -51.472656 30.441406 -51.359375 29.203125 -51.421875 C 27.960938 -51.492188 26.707031 -51.582031 25.4375 -51.6875 C 24.875 -51.738281 24.304688 -51.796875 23.734375 -51.859375 C 23.171875 -51.921875 22.609375 -51.976562 22.046875 -52.03125 C 21.835938 -51.757812 21.597656 -51.289062 21.328125 -50.625 C 21.054688 -49.957031 20.816406 -49.039062 20.609375 -47.875 C 20.398438 -46.71875 20.273438 -45.238281 20.234375 -43.4375 C 20.179688 -40.5625 20.085938 -37.679688 19.953125 -34.796875 C 19.828125 -31.921875 19.757812 -29.046875 19.75 -26.171875 C 20.394531 -26.015625 21.046875 -25.878906 21.703125 -25.765625 C 22.367188 -25.660156 23.003906 -25.675781 23.609375 -25.8125 C 24.210938 -25.957031 24.75 -26.316406 25.21875 -26.890625 C 25.695312 -27.460938 25.972656 -28.082031 26.046875 -28.75 C 26.128906 -29.425781 26.015625 -30.050781 25.703125 -30.625 C 25.398438 -31.195312 24.898438 -31.613281 24.203125 -31.875 C 23.898438 -31.988281 23.734375 -32.125 23.703125 -32.28125 C 23.671875 -32.4375 23.722656 -32.585938 23.859375 -32.734375 C 23.992188 -32.890625 24.160156 -33.019531 24.359375 -33.125 C 24.566406 -33.238281 24.753906 -33.3125 24.921875 -33.34375 C 25.679688 -33.457031 26.394531 -33.394531 27.0625 -33.15625 C 27.726562 -32.914062 28.296875 -32.523438 28.765625 -31.984375 C 29.234375 -31.453125 29.539062 -30.796875 29.6875 -30.015625 C 29.832031 -29.304688 29.789062 -28.613281 29.5625 -27.9375 C 29.332031 -27.257812 28.976562 -26.644531 28.5 -26.09375 C 28.019531 -25.550781 27.472656 -25.109375 26.859375 -24.765625 C 26.128906 -24.359375 25.363281 -24.082031 24.5625 -23.9375 C 23.769531 -23.800781 22.96875 -23.757812 22.15625 -23.8125 C 21.34375 -23.863281 20.539062 -23.960938 19.75 -24.109375 C 19.769531 -22.296875 19.785156 -20.453125 19.796875 -18.578125 C 19.804688 -16.703125 19.734375 -14.84375 19.578125 -13 C 19.429688 -11.15625 19.117188 -9.363281 18.640625 -7.625 C 18.390625 -6.71875 18.039062 -5.851562 17.59375 -5.03125 C 17.144531 -4.207031 16.609375 -3.457031 15.984375 -2.78125 C 15.359375 -2.113281 14.65625 -1.566406 13.875 -1.140625 C 13.09375 -0.722656 12.25 -0.460938 11.34375 -0.359375 C 10.4375 -0.253906 9.484375 -0.363281 8.484375 -0.6875 C 7.785156 -0.90625 7.1875 -1.25 6.6875 -1.71875 C 6.195312 -2.1875 5.804688 -2.734375 5.515625 -3.359375 C 5.234375 -3.984375 5.054688 -4.640625 4.984375 -5.328125 C 4.921875 -6.023438 4.96875 -6.695312 5.125 -7.34375 C 5.332031 -8.15625 5.632812 -8.785156 6.03125 -9.234375 C 6.425781 -9.691406 6.847656 -9.992188 7.296875 -10.140625 C 7.742188 -10.285156 8.144531 -10.289062 8.5 -10.15625 C 8.863281 -10.03125 9.109375 -9.769531 9.234375 -9.375 C 9.367188 -8.988281 9.304688 -8.492188 9.046875 -7.890625 C 8.796875 -7.328125 8.664062 -6.742188 8.65625 -6.140625 C 8.644531 -5.535156 8.722656 -4.941406 8.890625 -4.359375 C 8.992188 -4.046875 9.132812 -3.71875 9.3125 -3.375 C 9.5 -3.039062 9.734375 -2.769531 10.015625 -2.5625 C 10.304688 -2.351562 10.640625 -2.28125 11.015625 -2.34375 C 11.378906 -2.425781 11.722656 -2.59375 12.046875 -2.84375 C 12.378906 -3.09375 12.675781 -3.378906 12.9375 -3.703125 C 13.195312 -4.035156 13.414062 -4.34375 13.59375 -4.625 C 14.300781 -5.75 14.828125 -6.960938 15.171875 -8.265625 C 15.515625 -9.578125 15.738281 -10.929688 15.84375 -12.328125 C 15.957031 -13.722656 16.007812 -15.109375 16 -16.484375 C 16 -17.867188 16.003906 -19.191406 16.015625 -20.453125 C 16.023438 -21.191406 16.03125 -21.929688 16.03125 -22.671875 C 16.03125 -23.421875 16.03125 -24.171875 16.03125 -24.921875 C 15.6875 -24.972656 15.34375 -25 15 -25 C 14.664062 -25 14.328125 -24.960938 13.984375 -24.890625 C 13.578125 -24.796875 13.207031 -24.628906 12.875 -24.390625 C 12.550781 -24.148438 12.25 -23.898438 11.96875 -23.640625 C 11.695312 -23.378906 11.441406 -23.144531 11.203125 -22.9375 C 10.972656 -22.738281 10.753906 -22.617188 10.546875 -22.578125 C 10.335938 -22.535156 10.132812 -22.632812 9.9375 -22.875 C 9.707031 -23.144531 9.65625 -23.445312 9.78125 -23.78125 C 9.914062 -24.113281 10.148438 -24.4375 10.484375 -24.75 C 10.816406 -25.070312 11.171875 -25.359375 11.546875 -25.609375 C 11.921875 -25.859375 12.238281 -26.039062 12.5 -26.15625 C 13.050781 -26.414062 13.625 -26.585938 14.21875 -26.671875 C 14.820312 -26.765625 15.421875 -26.800781 16.015625 -26.78125 C 16.003906 -28.5625 16.007812 -30.34375 16.03125 -32.125 C 16.0625 -33.914062 16.148438 -35.703125 16.296875 -37.484375 C 16.484375 -39.890625 16.738281 -41.96875 17.0625 -43.71875 C 17.382812 -45.46875 17.710938 -46.925781 18.046875 -48.09375 C 18.390625 -49.269531 18.695312 -50.195312 18.96875 -50.875 C 19.25 -51.550781 19.457031 -52.019531 19.59375 -52.28125 C 18.4375 -52.382812 17.285156 -52.421875 16.140625 -52.390625 C 15.003906 -52.359375 13.875 -52.207031 12.75 -51.9375 C 11.632812 -51.664062 10.53125 -51.203125 9.4375 -50.546875 C 8.300781 -49.867188 7.34375 -49.082031 6.5625 -48.1875 C 5.789062 -47.289062 5.191406 -46.351562 4.765625 -45.375 C 4.347656 -44.394531 4.097656 -43.4375 4.015625 -42.5 C 3.941406 -41.570312 4.03125 -40.722656 4.28125 -39.953125 C 4.53125 -39.191406 4.941406 -38.566406 5.515625 -38.078125 C 6.085938 -37.597656 6.816406 -37.332031 7.703125 -37.28125 C 8.347656 -37.25 8.96875 -37.351562 9.5625 -37.59375 C 10.15625 -37.84375 10.671875 -38.203125 11.109375 -38.671875 C 11.546875 -39.140625 11.863281 -39.691406 12.0625 -40.328125 C 12.257812 -40.972656 12.296875 -41.675781 12.171875 -42.4375 C 12.054688 -43.195312 11.722656 -43.992188 11.171875 -44.828125 C 11.046875 -45.046875 10.875 -45.226562 10.65625 -45.375 C 10.4375 -45.519531 10.242188 -45.65625 10.078125 -45.78125 C 9.910156 -45.914062 9.828125 -46.066406 9.828125 -46.234375 C 9.828125 -46.460938 9.890625 -46.648438 10.015625 -46.796875 C 10.148438 -46.941406 10.296875 -47.050781 10.453125 -47.125 C 10.609375 -47.207031 10.722656 -47.257812 10.796875 -47.28125 C 11.304688 -47.488281 11.800781 -47.539062 12.28125 -47.4375 C 12.769531 -47.332031 13.210938 -47.117188 13.609375 -46.796875 C 14.003906 -46.472656 14.332031 -46.0625 14.59375 -45.5625 C 14.863281 -45.0625 15.039062 -44.507812 15.125 -43.90625 C 15.226562 -43.207031 15.203125 -42.492188 15.046875 -41.765625 C 14.890625 -41.046875 14.628906 -40.34375 14.265625 -39.65625 C 13.910156 -38.976562 13.484375 -38.351562 12.984375 -37.78125 C 12.492188 -37.207031 11.960938 -36.726562 11.390625 -36.34375 Z M 11.390625 -36.34375 "/></g></g></g><g fill="#ffffff" fill-opacity="1"><g transform="translate(44.985111, 63.499974)"><g><path d="M 9.265625 -25.09375 C 8.660156 -24.5 8.054688 -24.109375 7.453125 -23.921875 C 6.847656 -23.742188 6.210938 -23.875 5.546875 -24.3125 C 5.265625 -24.507812 5.0625 -24.765625 4.9375 -25.078125 C 4.8125 -25.390625 4.757812 -25.703125 4.78125 -26.015625 C 4.8125 -26.328125 4.898438 -26.582031 5.046875 -26.78125 C 5.097656 -26.820312 5.210938 -26.847656 5.390625 -26.859375 C 5.578125 -26.867188 5.765625 -26.859375 5.953125 -26.828125 C 6.148438 -26.804688 6.300781 -26.765625 6.40625 -26.703125 C 6.519531 -26.640625 6.535156 -26.535156 6.453125 -26.390625 C 6.347656 -26.234375 6.296875 -26.054688 6.296875 -25.859375 C 6.304688 -25.660156 6.375 -25.492188 6.5 -25.359375 C 6.625 -25.222656 6.800781 -25.15625 7.03125 -25.15625 C 7.269531 -25.164062 7.484375 -25.320312 7.671875 -25.625 C 7.859375 -25.925781 8.019531 -26.316406 8.15625 -26.796875 C 8.300781 -27.273438 8.414062 -27.785156 8.5 -28.328125 C 8.59375 -28.878906 8.640625 -29.40625 8.640625 -29.90625 C 8.640625 -30.414062 8.59375 -30.84375 8.5 -31.1875 C 8.414062 -31.53125 8.285156 -31.734375 8.109375 -31.796875 C 7.691406 -31.953125 7.257812 -31.882812 6.8125 -31.59375 C 6.363281 -31.300781 5.925781 -30.828125 5.5 -30.171875 C 5.070312 -29.523438 4.671875 -28.726562 4.296875 -27.78125 C 3.929688 -26.84375 3.613281 -25.796875 3.34375 -24.640625 C 3.070312 -23.484375 2.867188 -22.269531 2.734375 -21 C 2.503906 -19.695312 2.390625 -18.320312 2.390625 -16.875 C 2.398438 -15.425781 2.398438 -14.023438 2.390625 -12.671875 C 2.390625 -12.617188 2.390625 -12.5625 2.390625 -12.5 C 2.398438 -12.4375 2.40625 -12.378906 2.40625 -12.328125 L 2.390625 -12.328125 C 2.390625 -12.234375 2.382812 -12.140625 2.375 -12.046875 C 2.363281 -11.960938 2.359375 -11.875 2.359375 -11.78125 C 2.347656 -11.519531 2.222656 -11.320312 1.984375 -11.1875 C 1.753906 -11.0625 1.460938 -10.992188 1.109375 -10.984375 C 0.765625 -10.984375 0.414062 -11.035156 0.0625 -11.140625 C -0.289062 -11.242188 -0.585938 -11.390625 -0.828125 -11.578125 C -1.066406 -11.765625 -1.195312 -11.988281 -1.21875 -12.25 C -1.300781 -14.1875 -1.378906 -16.117188 -1.453125 -18.046875 C -1.535156 -19.972656 -1.585938 -21.898438 -1.609375 -23.828125 C -1.609375 -24.796875 -1.59375 -25.765625 -1.5625 -26.734375 C -1.539062 -27.703125 -1.503906 -28.660156 -1.453125 -29.609375 C -1.410156 -30.191406 -1.351562 -30.804688 -1.28125 -31.453125 C -1.21875 -32.097656 -1.117188 -32.707031 -0.984375 -33.28125 C -0.859375 -33.851562 -0.691406 -34.316406 -0.484375 -34.671875 C -0.378906 -34.847656 -0.195312 -34.992188 0.0625 -35.109375 C 0.320312 -35.222656 0.601562 -35.296875 0.90625 -35.328125 C 1.21875 -35.359375 1.507812 -35.34375 1.78125 -35.28125 C 2.0625 -35.226562 2.285156 -35.125 2.453125 -34.96875 C 2.617188 -34.820312 2.675781 -34.625 2.625 -34.375 C 2.425781 -33.375 2.3125 -32.460938 2.28125 -31.640625 C 2.25 -30.816406 2.207031 -29.957031 2.15625 -29.0625 C 2.132812 -28.550781 2.113281 -28.035156 2.09375 -27.515625 C 2.082031 -26.992188 2.066406 -26.472656 2.046875 -25.953125 C 2.117188 -26.148438 2.1875 -26.34375 2.25 -26.53125 C 2.320312 -26.71875 2.398438 -26.910156 2.484375 -27.109375 C 2.816406 -27.972656 3.175781 -28.847656 3.5625 -29.734375 C 3.957031 -30.617188 4.398438 -31.429688 4.890625 -32.171875 C 5.390625 -32.910156 5.945312 -33.5 6.5625 -33.9375 C 7.1875 -34.375 7.894531 -34.570312 8.6875 -34.53125 C 9.226562 -34.507812 9.664062 -34.3125 10 -33.9375 C 10.34375 -33.5625 10.59375 -33.082031 10.75 -32.5 C 10.914062 -31.914062 11 -31.273438 11 -30.578125 C 11.007812 -29.878906 10.945312 -29.175781 10.8125 -28.46875 C 10.675781 -27.769531 10.476562 -27.125 10.21875 -26.53125 C 9.957031 -25.9375 9.640625 -25.457031 9.265625 -25.09375 Z M 9.265625 -25.09375 "/></g></g></g><g fill="#ffffff" fill-opacity="1"><g transform="translate(57.913535, 63.499974)"><g><path d="M 16.9375 -24.921875 C 16.945312 -24.960938 17.003906 -24.988281 17.109375 -25 C 17.210938 -25.007812 17.316406 -25.007812 17.421875 -25 C 17.535156 -25 17.59375 -24.976562 17.59375 -24.9375 C 17.664062 -23.582031 17.597656 -22.25 17.390625 -20.9375 C 17.179688 -19.632812 16.890625 -18.34375 16.515625 -17.0625 C 16.140625 -15.78125 15.738281 -14.488281 15.3125 -13.1875 C 15.113281 -12.582031 14.859375 -12.015625 14.546875 -11.484375 C 14.234375 -10.960938 13.859375 -10.535156 13.421875 -10.203125 C 12.992188 -9.867188 12.507812 -9.6875 11.96875 -9.65625 C 11.425781 -9.625 10.828125 -9.804688 10.171875 -10.203125 C 9.734375 -10.472656 9.394531 -10.828125 9.15625 -11.265625 C 8.925781 -11.703125 8.75 -12.171875 8.625 -12.671875 C 8.507812 -13.171875 8.410156 -13.65625 8.328125 -14.125 C 8.140625 -15.125 8.019531 -16.128906 7.96875 -17.140625 C 7.925781 -18.160156 7.921875 -19.179688 7.953125 -20.203125 C 7.960938 -20.523438 7.976562 -20.84375 8 -21.15625 C 8.019531 -21.476562 8.035156 -21.796875 8.046875 -22.109375 C 7.765625 -21.203125 7.503906 -20.3125 7.265625 -19.4375 C 7.035156 -18.5625 6.789062 -17.757812 6.53125 -17.03125 C 6.28125 -16.300781 5.972656 -15.6875 5.609375 -15.1875 C 5.253906 -14.6875 4.796875 -14.34375 4.234375 -14.15625 C 3.472656 -13.914062 2.804688 -13.878906 2.234375 -14.046875 C 1.660156 -14.222656 1.164062 -14.550781 0.75 -15.03125 C 0.34375 -15.507812 0.00390625 -16.070312 -0.265625 -16.71875 C -0.535156 -17.375 -0.75 -18.050781 -0.90625 -18.75 C -1.0625 -19.457031 -1.171875 -20.113281 -1.234375 -20.71875 C -1.347656 -21.75 -1.414062 -22.785156 -1.4375 -23.828125 C -1.46875 -24.878906 -1.476562 -25.921875 -1.46875 -26.953125 C -1.46875 -27.535156 -1.457031 -28.144531 -1.4375 -28.78125 C -1.425781 -29.414062 -1.398438 -30.023438 -1.359375 -30.609375 C -1.328125 -31.191406 -1.257812 -31.710938 -1.15625 -32.171875 C -1.050781 -32.628906 -0.898438 -32.972656 -0.703125 -33.203125 C -0.554688 -33.367188 -0.335938 -33.519531 -0.046875 -33.65625 C 0.242188 -33.800781 0.554688 -33.882812 0.890625 -33.90625 C 1.222656 -33.9375 1.503906 -33.882812 1.734375 -33.75 C 1.972656 -33.625 2.09375 -33.382812 2.09375 -33.03125 C 2.101562 -32.757812 2.109375 -32.359375 2.109375 -31.828125 C 2.109375 -31.296875 2.109375 -30.695312 2.109375 -30.03125 C 2.109375 -29.363281 2.109375 -28.671875 2.109375 -27.953125 C 2.117188 -27.234375 2.128906 -26.539062 2.140625 -25.875 C 2.148438 -25.21875 2.160156 -24.625 2.171875 -24.09375 C 2.179688 -23.5625 2.191406 -23.160156 2.203125 -22.890625 C 2.242188 -22.148438 2.3125 -21.40625 2.40625 -20.65625 C 2.5 -19.914062 2.628906 -19.179688 2.796875 -18.453125 C 2.796875 -18.453125 2.8125 -18.351562 2.84375 -18.15625 C 2.882812 -17.96875 2.953125 -17.734375 3.046875 -17.453125 C 3.140625 -17.179688 3.253906 -16.914062 3.390625 -16.65625 C 3.535156 -16.394531 3.707031 -16.195312 3.90625 -16.0625 C 4.113281 -15.9375 4.351562 -15.921875 4.625 -16.015625 C 4.8125 -16.078125 5.015625 -16.351562 5.234375 -16.84375 C 5.453125 -17.332031 5.679688 -17.972656 5.921875 -18.765625 C 6.171875 -19.566406 6.414062 -20.445312 6.65625 -21.40625 C 6.894531 -22.375 7.125 -23.375 7.34375 -24.40625 C 7.5625 -25.4375 7.753906 -26.4375 7.921875 -27.40625 C 8.097656 -28.382812 8.238281 -29.273438 8.34375 -30.078125 C 8.445312 -30.890625 8.5 -31.539062 8.5 -32.03125 C 8.5 -32.125 8.5 -32.207031 8.5 -32.28125 C 8.5 -32.363281 8.492188 -32.453125 8.484375 -32.546875 C 8.453125 -32.785156 8.550781 -33.003906 8.78125 -33.203125 C 9.007812 -33.398438 9.296875 -33.550781 9.640625 -33.65625 C 9.992188 -33.769531 10.347656 -33.832031 10.703125 -33.84375 C 11.066406 -33.863281 11.375 -33.816406 11.625 -33.703125 C 11.882812 -33.585938 12.019531 -33.398438 12.03125 -33.140625 C 12.113281 -31.609375 12.101562 -30.046875 12 -28.453125 C 11.90625 -26.867188 11.800781 -25.269531 11.6875 -23.65625 C 11.582031 -22.050781 11.53125 -20.453125 11.53125 -18.859375 C 11.539062 -17.273438 11.675781 -15.722656 11.9375 -14.203125 C 12 -13.859375 12.0625 -13.515625 12.125 -13.171875 C 12.195312 -12.828125 12.296875 -12.5 12.421875 -12.1875 C 12.515625 -11.9375 12.644531 -11.691406 12.8125 -11.453125 C 12.820312 -11.429688 12.828125 -11.414062 12.828125 -11.40625 C 13.242188 -12.03125 13.585938 -12.648438 13.859375 -13.265625 C 14.140625 -13.890625 14.394531 -14.5625 14.625 -15.28125 C 15.132812 -16.84375 15.601562 -18.429688 16.03125 -20.046875 C 16.46875 -21.671875 16.769531 -23.296875 16.9375 -24.921875 Z M 16.9375 -24.921875 "/></g></g></g><g fill="#ffffff" fill-opacity="1"><g transform="translate(74.825944, 63.499974)"><g><path d="M 4.421875 -43.609375 C 4.140625 -42.234375 3.890625 -40.84375 3.671875 -39.4375 C 3.453125 -38.039062 3.257812 -36.640625 3.09375 -35.234375 C 2.988281 -34.640625 2.898438 -33.640625 2.828125 -32.234375 C 2.753906 -30.835938 2.691406 -29.03125 2.640625 -26.8125 C 2.609375 -25.394531 2.664062 -23.988281 2.8125 -22.59375 C 2.96875 -21.207031 3.207031 -19.816406 3.53125 -18.421875 C 3.6875 -17.796875 3.878906 -17.1875 4.109375 -16.59375 C 4.347656 -16 4.632812 -15.421875 4.96875 -14.859375 C 5.15625 -14.523438 5.351562 -14.273438 5.5625 -14.109375 C 5.800781 -13.921875 6.109375 -13.832031 6.484375 -13.84375 C 7.109375 -13.9375 7.707031 -14.601562 8.28125 -15.84375 C 8.832031 -17.082031 9.320312 -18.507812 9.75 -20.125 C 9.96875 -20.925781 10.164062 -21.6875 10.34375 -22.40625 C 10.519531 -23.125 10.671875 -23.796875 10.796875 -24.421875 C 10.898438 -24.890625 10.992188 -25.28125 11.078125 -25.59375 C 11.171875 -25.90625 11.242188 -26.144531 11.296875 -26.3125 C 11.398438 -26.625 11.535156 -26.785156 11.703125 -26.796875 C 11.867188 -26.804688 12.007812 -26.742188 12.125 -26.609375 C 12.25 -26.429688 12.273438 -26.207031 12.203125 -25.9375 C 12.128906 -25.570312 12.050781 -25.207031 11.96875 -24.84375 C 11.894531 -24.488281 11.816406 -24.128906 11.734375 -23.765625 C 11.523438 -22.765625 11.3125 -21.789062 11.09375 -20.84375 C 10.875 -19.90625 10.644531 -18.992188 10.40625 -18.109375 C 9.9375 -16.335938 9.382812 -14.878906 8.75 -13.734375 C 8.101562 -12.578125 7.328125 -11.921875 6.421875 -11.765625 C 4.703125 -11.566406 3.347656 -12 2.359375 -13.0625 C 1.359375 -14.144531 0.617188 -15.539062 0.140625 -17.25 C -0.347656 -18.9375 -0.660156 -20.660156 -0.796875 -22.421875 C -0.953125 -24.171875 -1.03125 -25.609375 -1.03125 -26.734375 C -1.113281 -30.210938 -0.921875 -33.753906 -0.453125 -37.359375 C -0.304688 -38.484375 -0.128906 -39.585938 0.078125 -40.671875 C 0.285156 -41.765625 0.523438 -42.84375 0.796875 -43.90625 C 0.765625 -43.914062 0.722656 -43.921875 0.671875 -43.921875 C 0.628906 -43.921875 0.585938 -43.921875 0.546875 -43.921875 C -0.867188 -43.972656 -1.929688 -43.859375 -2.640625 -43.578125 C -2.679688 -43.566406 -2.710938 -43.628906 -2.734375 -43.765625 C -2.742188 -43.890625 -2.734375 -44.0625 -2.703125 -44.28125 C -2.679688 -44.445312 -2.613281 -44.609375 -2.5 -44.765625 C -2.164062 -45.085938 -1.488281 -45.25 -0.46875 -45.25 C -0.21875 -45.238281 0.0390625 -45.226562 0.3125 -45.21875 C 0.582031 -45.21875 0.863281 -45.210938 1.15625 -45.203125 C 1.28125 -45.617188 1.40625 -46.035156 1.53125 -46.453125 C 1.664062 -46.878906 1.804688 -47.300781 1.953125 -47.71875 C 2.828125 -50.113281 3.597656 -51.789062 4.265625 -52.75 C 4.953125 -53.738281 5.566406 -54.347656 6.109375 -54.578125 C 6.296875 -54.640625 6.484375 -54.675781 6.671875 -54.6875 C 6.867188 -54.695312 7.0625 -54.691406 7.25 -54.671875 C 7.625 -54.585938 7.9375 -54.429688 8.1875 -54.203125 C 8.25 -54.109375 8.28125 -54.023438 8.28125 -53.953125 C 8.257812 -53.828125 8.210938 -53.738281 8.140625 -53.6875 C 7.617188 -53.25 7.109375 -52.390625 6.609375 -51.109375 C 6.097656 -49.847656 5.644531 -48.503906 5.25 -47.078125 C 5.144531 -46.671875 5.046875 -46.285156 4.953125 -45.921875 C 4.859375 -45.566406 4.769531 -45.234375 4.6875 -44.921875 C 5.1875 -44.898438 5.671875 -44.878906 6.140625 -44.859375 C 6.617188 -44.835938 7.09375 -44.832031 7.5625 -44.84375 C 9.039062 -44.84375 10.191406 -45.117188 11.015625 -45.671875 C 11.015625 -45.648438 11.019531 -45.640625 11.03125 -45.640625 C 11.03125 -45.640625 11.03125 -45.632812 11.03125 -45.625 C 11.03125 -45.625 11.039062 -45.625 11.0625 -45.625 C 11.0625 -45.601562 11.070312 -45.578125 11.09375 -45.546875 C 11.125 -45.492188 11.148438 -45.441406 11.171875 -45.390625 C 11.203125 -45.335938 11.226562 -45.28125 11.25 -45.21875 C 11.289062 -45.0625 11.304688 -44.898438 11.296875 -44.734375 C 11.273438 -44.535156 11.210938 -44.335938 11.109375 -44.140625 C 11.023438 -43.941406 10.84375 -43.726562 10.5625 -43.5 C 10.21875 -43.28125 9.539062 -43.195312 8.53125 -43.25 C 8.007812 -43.269531 7.457031 -43.304688 6.875 -43.359375 C 6.289062 -43.410156 5.660156 -43.476562 4.984375 -43.5625 C 4.890625 -43.570312 4.796875 -43.578125 4.703125 -43.578125 C 4.617188 -43.585938 4.523438 -43.597656 4.421875 -43.609375 Z M 4.421875 -43.609375 "/></g></g></g><g fill="#ffffff" fill-opacity="1"><g transform="translate(86.016263, 63.499974)"><g><path d="M 15.640625 -27.5 C 15.660156 -27.5625 15.738281 -27.597656 15.875 -27.609375 C 16.019531 -27.628906 16.164062 -27.625 16.3125 -27.59375 C 16.457031 -27.570312 16.519531 -27.53125 16.5 -27.46875 C 16.3125 -25.832031 16.050781 -24.195312 15.71875 -22.5625 C 15.382812 -20.9375 14.9375 -19.347656 14.375 -17.796875 C 14.164062 -17.210938 13.929688 -16.613281 13.671875 -16 C 13.410156 -15.394531 13.09375 -14.859375 12.71875 -14.390625 C 12.351562 -13.921875 11.894531 -13.585938 11.34375 -13.390625 C 10.800781 -13.191406 10.140625 -13.195312 9.359375 -13.40625 C 8.722656 -13.582031 8.222656 -13.914062 7.859375 -14.40625 C 7.492188 -14.90625 7.222656 -15.492188 7.046875 -16.171875 C 6.867188 -16.847656 6.75 -17.539062 6.6875 -18.25 C 6.550781 -17.832031 6.40625 -17.414062 6.25 -17 C 6.101562 -16.59375 5.941406 -16.191406 5.765625 -15.796875 C 5.523438 -15.265625 5.238281 -14.757812 4.90625 -14.28125 C 4.582031 -13.8125 4.207031 -13.414062 3.78125 -13.09375 C 3.351562 -12.78125 2.875 -12.578125 2.34375 -12.484375 C 1.820312 -12.398438 1.238281 -12.484375 0.59375 -12.734375 C 0.03125 -12.953125 -0.414062 -13.28125 -0.75 -13.71875 C -1.09375 -14.15625 -1.351562 -14.644531 -1.53125 -15.1875 C -1.707031 -15.738281 -1.832031 -16.304688 -1.90625 -16.890625 C -1.976562 -17.484375 -2.023438 -18.039062 -2.046875 -18.5625 C -2.128906 -19.945312 -2.09375 -21.328125 -1.9375 -22.703125 C -1.78125 -24.078125 -1.519531 -25.4375 -1.15625 -26.78125 C -1 -27.351562 -0.816406 -27.96875 -0.609375 -28.625 C -0.410156 -29.28125 -0.175781 -29.929688 0.09375 -30.578125 C 0.375 -31.222656 0.695312 -31.820312 1.0625 -32.375 C 1.425781 -32.9375 1.851562 -33.414062 2.34375 -33.8125 C 2.71875 -34.113281 3.148438 -34.34375 3.640625 -34.5 C 4.140625 -34.664062 4.648438 -34.75 5.171875 -34.75 C 5.691406 -34.75 6.191406 -34.660156 6.671875 -34.484375 C 7.160156 -34.304688 7.570312 -34.03125 7.90625 -33.65625 C 7.9375 -33.625 7.960938 -33.59375 7.984375 -33.5625 C 8.015625 -33.53125 8.039062 -33.492188 8.0625 -33.453125 C 8.445312 -33.554688 8.835938 -33.59375 9.234375 -33.5625 C 9.640625 -33.539062 9.984375 -33.453125 10.265625 -33.296875 C 10.546875 -33.140625 10.671875 -32.921875 10.640625 -32.640625 C 10.515625 -30.828125 10.394531 -29 10.28125 -27.15625 C 10.175781 -25.3125 10.148438 -23.472656 10.203125 -21.640625 C 10.253906 -19.816406 10.453125 -18.007812 10.796875 -16.21875 C 10.816406 -16.082031 10.84375 -15.945312 10.875 -15.8125 C 10.90625 -15.675781 10.941406 -15.539062 10.984375 -15.40625 C 11.117188 -15.582031 11.25 -15.753906 11.375 -15.921875 C 11.5 -16.085938 11.613281 -16.253906 11.71875 -16.421875 C 12.082031 -16.960938 12.410156 -17.507812 12.703125 -18.0625 C 12.992188 -18.625 13.265625 -19.195312 13.515625 -19.78125 C 14.046875 -21.019531 14.484375 -22.28125 14.828125 -23.5625 C 15.179688 -24.84375 15.453125 -26.15625 15.640625 -27.5 Z M 5 -22.46875 C 5.351562 -23.695312 5.640625 -24.941406 5.859375 -26.203125 C 6.078125 -27.460938 6.289062 -28.722656 6.5 -29.984375 C 6.414062 -30.242188 6.300781 -30.5 6.15625 -30.75 C 6.019531 -30.96875 5.894531 -31.1875 5.78125 -31.40625 C 5.664062 -31.625 5.535156 -31.835938 5.390625 -32.046875 C 5.335938 -32.128906 5.28125 -32.207031 5.21875 -32.28125 C 5.164062 -32.363281 5.109375 -32.441406 5.046875 -32.515625 C 4.953125 -32.378906 4.863281 -32.238281 4.78125 -32.09375 C 4.695312 -31.945312 4.613281 -31.800781 4.53125 -31.65625 C 4.40625 -31.4375 4.28125 -31.207031 4.15625 -30.96875 C 4.039062 -30.726562 3.929688 -30.484375 3.828125 -30.234375 C 3.359375 -29.222656 2.96875 -28.1875 2.65625 -27.125 C 2.300781 -25.976562 2.035156 -24.800781 1.859375 -23.59375 C 1.691406 -22.394531 1.609375 -21.195312 1.609375 -20 C 1.609375 -19.46875 1.617188 -18.929688 1.640625 -18.390625 C 1.671875 -17.847656 1.726562 -17.3125 1.8125 -16.78125 C 1.84375 -16.625 1.890625 -16.375 1.953125 -16.03125 C 2.015625 -15.6875 2.109375 -15.359375 2.234375 -15.046875 C 2.460938 -15.367188 2.671875 -15.738281 2.859375 -16.15625 C 3.046875 -16.582031 3.210938 -16.988281 3.359375 -17.375 C 3.515625 -17.757812 3.625 -18.039062 3.6875 -18.21875 C 3.945312 -18.914062 4.179688 -19.617188 4.390625 -20.328125 C 4.597656 -21.035156 4.800781 -21.75 5 -22.46875 Z M 5 -22.46875 "/></g></g></g><g fill="#ffffff" fill-opacity="1"><g transform="translate(101.776446, 63.499974)"><g/></g></g><g fill="#ffffff" fill-opacity="1"><g transform="translate(111.599711, 63.499974)"><g><path d="M 13.65625 -26.890625 C 13.675781 -27.023438 13.734375 -27.097656 13.828125 -27.109375 C 13.921875 -27.117188 14.003906 -27.101562 14.078125 -27.0625 C 14.160156 -27.03125 14.203125 -26.992188 14.203125 -26.953125 C 14.097656 -24.972656 13.847656 -23.117188 13.453125 -21.390625 C 13.054688 -19.660156 12.535156 -18.125 11.890625 -16.78125 C 11.242188 -15.4375 10.5 -14.347656 9.65625 -13.515625 C 8.820312 -12.679688 7.914062 -12.164062 6.9375 -11.96875 C 6.269531 -11.84375 5.546875 -11.796875 4.765625 -11.828125 C 3.992188 -11.867188 3.25 -12.007812 2.53125 -12.25 C 1.820312 -12.5 1.210938 -12.863281 0.703125 -13.34375 C 0.117188 -13.90625 -0.347656 -14.539062 -0.703125 -15.25 C -1.054688 -15.957031 -1.3125 -16.707031 -1.46875 -17.5 C -1.625 -18.289062 -1.710938 -19.078125 -1.734375 -19.859375 C -1.835938 -22.515625 -1.550781 -25.128906 -0.875 -27.703125 C -0.71875 -28.285156 -0.53125 -28.898438 -0.3125 -29.546875 C -0.09375 -30.191406 0.171875 -30.816406 0.484375 -31.421875 C 0.796875 -32.035156 1.164062 -32.59375 1.59375 -33.09375 C 2.03125 -33.59375 2.535156 -34 3.109375 -34.3125 C 3.703125 -34.644531 4.351562 -34.828125 5.0625 -34.859375 C 5.78125 -34.898438 6.460938 -34.789062 7.109375 -34.53125 C 7.765625 -34.28125 8.289062 -33.867188 8.6875 -33.296875 C 9.039062 -32.816406 9.28125 -32.242188 9.40625 -31.578125 C 9.539062 -30.921875 9.609375 -30.253906 9.609375 -29.578125 C 9.609375 -28.898438 9.570312 -28.273438 9.5 -27.703125 C 9.425781 -27.140625 9.363281 -26.707031 9.3125 -26.40625 C 9.28125 -26.226562 9.148438 -26.0625 8.921875 -25.90625 C 8.691406 -25.75 8.410156 -25.613281 8.078125 -25.5 C 7.753906 -25.382812 7.4375 -25.316406 7.125 -25.296875 C 6.8125 -25.285156 6.550781 -25.320312 6.34375 -25.40625 C 6.132812 -25.5 6.03125 -25.664062 6.03125 -25.90625 C 6.019531 -26.5625 6.039062 -27.207031 6.09375 -27.84375 C 6.144531 -28.476562 6.15625 -29.109375 6.125 -29.734375 C 6.101562 -30.367188 5.976562 -31.007812 5.75 -31.65625 C 5.644531 -31.957031 5.554688 -32.195312 5.484375 -32.375 C 5.421875 -32.550781 5.335938 -32.628906 5.234375 -32.609375 C 5.140625 -32.585938 4.984375 -32.4375 4.765625 -32.15625 C 4.535156 -31.84375 4.328125 -31.503906 4.140625 -31.140625 C 3.960938 -30.785156 3.796875 -30.425781 3.640625 -30.0625 C 2.921875 -28.46875 2.429688 -26.769531 2.171875 -24.96875 C 1.910156 -23.175781 1.828125 -21.410156 1.921875 -19.671875 C 1.953125 -18.828125 2.039062 -18.050781 2.1875 -17.34375 C 2.332031 -16.644531 2.6875 -15.957031 3.25 -15.28125 C 3.363281 -15.132812 3.578125 -14.957031 3.890625 -14.75 C 4.210938 -14.550781 4.609375 -14.394531 5.078125 -14.28125 C 5.546875 -14.175781 6.0625 -14.175781 6.625 -14.28125 C 7.1875 -14.382812 7.773438 -14.664062 8.390625 -15.125 C 9.003906 -15.59375 9.617188 -16.300781 10.234375 -17.25 C 10.859375 -18.195312 11.460938 -19.457031 12.046875 -21.03125 C 12.640625 -22.613281 13.175781 -24.566406 13.65625 -26.890625 Z M 13.65625 -26.890625 "/></g></g></g><g fill="#ffffff" fill-opacity="1"><g transform="translate(125.153073, 63.499974)"><g><path d="M 14.109375 -26.5625 C 14.171875 -26.695312 14.269531 -26.773438 14.40625 -26.796875 C 14.550781 -26.828125 14.671875 -26.800781 14.765625 -26.71875 C 14.867188 -26.644531 14.890625 -26.519531 14.828125 -26.34375 C 14.660156 -25.09375 14.171875 -24.0625 13.359375 -23.25 C 12.554688 -22.4375 11.457031 -21.757812 10.0625 -21.21875 C 9.90625 -20.132812 9.679688 -19.0625 9.390625 -18 C 9.109375 -16.945312 8.757812 -15.984375 8.34375 -15.109375 C 7.925781 -14.234375 7.4375 -13.523438 6.875 -12.984375 C 6.3125 -12.441406 5.675781 -12.148438 4.96875 -12.109375 C 4.15625 -12.054688 3.445312 -12.1875 2.84375 -12.5 C 2.238281 -12.820312 1.71875 -13.269531 1.28125 -13.84375 C 0.851562 -14.414062 0.492188 -15.070312 0.203125 -15.8125 C -0.078125 -16.5625 -0.296875 -17.332031 -0.453125 -18.125 C -0.617188 -18.914062 -0.742188 -19.6875 -0.828125 -20.4375 C -0.910156 -21.1875 -0.960938 -21.867188 -0.984375 -22.484375 C -1.003906 -23.097656 -1.007812 -23.578125 -1 -23.921875 C -1 -24.078125 -0.984375 -24.222656 -0.953125 -24.359375 C -0.929688 -24.503906 -0.898438 -24.628906 -0.859375 -24.734375 C -1.097656 -25.628906 -1.160156 -26.5625 -1.046875 -27.53125 C -0.929688 -28.507812 -0.671875 -29.460938 -0.265625 -30.390625 C 0.128906 -31.316406 0.648438 -32.144531 1.296875 -32.875 C 1.921875 -33.570312 2.585938 -34.035156 3.296875 -34.265625 C 4.015625 -34.503906 4.71875 -34.539062 5.40625 -34.375 C 6.101562 -34.21875 6.71875 -33.90625 7.25 -33.4375 C 8.519531 -32.320312 9.394531 -30.921875 9.875 -29.234375 C 10.363281 -27.546875 10.5 -25.5 10.28125 -23.09375 C 10.28125 -23.007812 10.273438 -22.925781 10.265625 -22.84375 C 10.253906 -22.757812 10.242188 -22.671875 10.234375 -22.578125 C 10.910156 -22.796875 11.546875 -23.082031 12.140625 -23.4375 C 12.734375 -23.789062 13.210938 -24.226562 13.578125 -24.75 C 13.941406 -25.269531 14.117188 -25.875 14.109375 -26.5625 Z M 2.03125 -29.890625 C 1.957031 -29.609375 1.863281 -29.21875 1.75 -28.71875 C 1.632812 -28.226562 1.550781 -27.691406 1.5 -27.109375 C 1.445312 -26.523438 1.457031 -25.953125 1.53125 -25.390625 C 1.738281 -25.265625 1.898438 -25.113281 2.015625 -24.9375 C 2.140625 -24.757812 2.210938 -24.5625 2.234375 -24.34375 C 2.234375 -24.257812 2.234375 -24.148438 2.234375 -24.015625 C 2.234375 -23.890625 2.234375 -23.738281 2.234375 -23.5625 C 2.253906 -23.539062 2.269531 -23.519531 2.28125 -23.5 C 2.300781 -23.488281 2.316406 -23.46875 2.328125 -23.4375 C 2.753906 -22.96875 3.410156 -22.609375 4.296875 -22.359375 C 5.179688 -22.117188 6.160156 -22.015625 7.234375 -22.046875 C 7.304688 -22.773438 7.34375 -23.390625 7.34375 -23.890625 C 7.375 -24.710938 7.378906 -25.578125 7.359375 -26.484375 C 7.347656 -27.398438 7.273438 -28.300781 7.140625 -29.1875 C 7.003906 -30.070312 6.75 -30.882812 6.375 -31.625 C 5.988281 -32.394531 5.59375 -32.878906 5.1875 -33.078125 C 4.78125 -33.273438 4.378906 -33.253906 3.984375 -33.015625 C 3.597656 -32.785156 3.234375 -32.390625 2.890625 -31.828125 C 2.554688 -31.273438 2.269531 -30.628906 2.03125 -29.890625 Z M 4.828125 -14.3125 C 5.128906 -14.34375 5.394531 -14.535156 5.625 -14.890625 C 5.863281 -15.253906 6.070312 -15.726562 6.25 -16.3125 C 6.4375 -16.90625 6.59375 -17.554688 6.71875 -18.265625 C 6.851562 -18.984375 6.960938 -19.691406 7.046875 -20.390625 C 6.203125 -20.265625 5.378906 -20.234375 4.578125 -20.296875 C 3.773438 -20.359375 3.050781 -20.535156 2.40625 -20.828125 C 2.46875 -20.078125 2.554688 -19.316406 2.671875 -18.546875 C 2.796875 -17.785156 2.953125 -17.078125 3.140625 -16.421875 C 3.328125 -15.773438 3.554688 -15.253906 3.828125 -14.859375 C 4.097656 -14.472656 4.429688 -14.289062 4.828125 -14.3125 Z M 4.828125 -14.3125 "/></g></g></g><g fill="#ffffff" fill-opacity="1"><g transform="translate(139.0775, 63.499974)"><g><path d="M 14.8125 -7.890625 C 14.914062 -7.921875 15.070312 -7.9375 15.28125 -7.9375 C 15.5 -7.9375 15.617188 -7.84375 15.640625 -7.65625 C 15.691406 -7.332031 15.625 -7.078125 15.4375 -6.890625 C 15.257812 -6.703125 15.023438 -6.5625 14.734375 -6.46875 C 14.453125 -6.382812 14.175781 -6.328125 13.90625 -6.296875 C 13.21875 -6.203125 12.539062 -6.265625 11.875 -6.484375 C 11.207031 -6.703125 10.648438 -7.082031 10.203125 -7.625 C 9.804688 -8.207031 9.488281 -8.960938 9.25 -9.890625 C 9.007812 -10.828125 8.851562 -11.988281 8.78125 -13.375 C 8.707031 -14.769531 8.726562 -16.4375 8.84375 -18.375 C 8.96875 -20.320312 9.1875 -22.585938 9.5 -25.171875 C 9.820312 -27.765625 10.25 -30.726562 10.78125 -34.0625 C 10.78125 -34.5625 10.773438 -35.0625 10.765625 -35.5625 C 10.765625 -36.0625 10.75 -36.550781 10.71875 -37.03125 C 10.707031 -37.070312 10.703125 -37.109375 10.703125 -37.140625 C 10.703125 -37.179688 10.703125 -37.222656 10.703125 -37.265625 C 10.492188 -36.898438 10.316406 -36.601562 10.171875 -36.375 C 9.890625 -35.925781 9.640625 -35.46875 9.421875 -35 C 9.210938 -34.53125 9.003906 -34.054688 8.796875 -33.578125 C 8.347656 -32.546875 7.953125 -31.488281 7.609375 -30.40625 C 7.273438 -29.332031 6.957031 -28.253906 6.65625 -27.171875 C 6.0625 -24.941406 5.476562 -22.691406 4.90625 -20.421875 C 4.332031 -18.160156 3.785156 -15.90625 3.265625 -13.65625 C 3.210938 -13.4375 3.070312 -13.265625 2.84375 -13.140625 C 2.625 -13.015625 2.367188 -12.941406 2.078125 -12.921875 C 1.796875 -12.898438 1.53125 -12.929688 1.28125 -13.015625 C 1.039062 -13.097656 0.867188 -13.234375 0.765625 -13.421875 C 0.253906 -14.347656 -0.113281 -15.335938 -0.34375 -16.390625 C -0.582031 -17.441406 -0.734375 -18.515625 -0.796875 -19.609375 C -0.867188 -20.703125 -0.910156 -21.757812 -0.921875 -22.78125 C -0.921875 -23.738281 -0.890625 -24.695312 -0.828125 -25.65625 C -0.773438 -26.625 -0.695312 -27.546875 -0.59375 -28.421875 C -0.488281 -29.304688 -0.367188 -30.09375 -0.234375 -30.78125 C -0.109375 -31.46875 0.0234375 -32.015625 0.171875 -32.421875 C 0.242188 -32.617188 0.425781 -32.785156 0.71875 -32.921875 C 1.007812 -33.066406 1.328125 -33.15625 1.671875 -33.1875 C 2.023438 -33.226562 2.328125 -33.1875 2.578125 -33.0625 C 2.835938 -32.945312 2.957031 -32.722656 2.9375 -32.390625 C 2.832031 -30.640625 2.773438 -28.984375 2.765625 -27.421875 C 2.753906 -25.859375 2.796875 -24.269531 2.890625 -22.65625 C 2.898438 -22.425781 2.910156 -22.191406 2.921875 -21.953125 C 2.941406 -21.722656 2.957031 -21.488281 2.96875 -21.25 C 3.3125 -22.71875 3.648438 -24.179688 3.984375 -25.640625 C 4.328125 -27.097656 4.71875 -28.539062 5.15625 -29.96875 C 5.570312 -31.269531 6.035156 -32.550781 6.546875 -33.8125 C 7.054688 -35.070312 7.582031 -36.328125 8.125 -37.578125 C 8.332031 -38.046875 8.578125 -38.507812 8.859375 -38.96875 C 9.140625 -39.4375 9.460938 -39.835938 9.828125 -40.171875 C 10.203125 -40.503906 10.625 -40.710938 11.09375 -40.796875 C 11.3125 -40.835938 11.578125 -40.800781 11.890625 -40.6875 C 12.203125 -40.582031 12.519531 -40.429688 12.84375 -40.234375 C 13.164062 -40.035156 13.445312 -39.832031 13.6875 -39.625 C 13.925781 -39.414062 14.078125 -39.234375 14.140625 -39.078125 C 14.359375 -38.523438 14.5 -37.898438 14.5625 -37.203125 C 14.632812 -36.515625 14.65625 -35.84375 14.625 -35.1875 C 14.601562 -34.539062 14.566406 -34 14.515625 -33.5625 C 14.410156 -32.644531 14.265625 -31.609375 14.078125 -30.453125 C 13.898438 -29.304688 13.707031 -28.082031 13.5 -26.78125 C 13.289062 -25.476562 13.09375 -24.148438 12.90625 -22.796875 C 12.726562 -21.441406 12.582031 -20.101562 12.46875 -18.78125 C 12.363281 -17.457031 12.3125 -16.195312 12.3125 -15 C 12.3125 -13.8125 12.390625 -12.726562 12.546875 -11.75 C 12.710938 -10.78125 12.976562 -9.957031 13.34375 -9.28125 C 13.707031 -8.613281 14.195312 -8.148438 14.8125 -7.890625 Z M 14.8125 -7.890625 "/></g></g></g><g fill="#ffffff" fill-opacity="1"><g transform="translate(155.872733, 63.499974)"><g/></g></g><g fill="#ffffff" fill-opacity="1"><g transform="translate(165.695997, 63.499974)"><g><path d="M 31 -56.34375 C 31.019531 -56.582031 31.15625 -56.769531 31.40625 -56.90625 C 31.664062 -57.039062 31.976562 -57.128906 32.34375 -57.171875 C 32.707031 -57.222656 33.066406 -57.226562 33.421875 -57.1875 C 33.785156 -57.144531 34.085938 -57.054688 34.328125 -56.921875 C 34.566406 -56.796875 34.679688 -56.628906 34.671875 -56.421875 C 34.640625 -55.472656 34.578125 -54.523438 34.484375 -53.578125 C 34.398438 -52.628906 34.300781 -51.6875 34.1875 -50.75 C 33.925781 -47.75 33.691406 -44.75 33.484375 -41.75 C 33.273438 -38.75 33.117188 -35.742188 33.015625 -32.734375 C 32.910156 -29.328125 32.921875 -25.925781 33.046875 -22.53125 C 33.179688 -19.132812 33.363281 -15.734375 33.59375 -12.328125 C 33.6875 -10.941406 33.679688 -9.550781 33.578125 -8.15625 C 33.484375 -6.757812 33.226562 -5.410156 32.8125 -4.109375 C 32.40625 -2.816406 31.789062 -1.640625 30.96875 -0.578125 C 30.144531 0.472656 29.046875 1.34375 27.671875 2.03125 C 27.085938 2.332031 26.382812 2.570312 25.5625 2.75 C 24.75 2.925781 23.898438 3.015625 23.015625 3.015625 C 22.140625 3.015625 21.300781 2.914062 20.5 2.71875 C 19.695312 2.519531 19.003906 2.203125 18.421875 1.765625 C 17.847656 1.328125 17.453125 0.753906 17.234375 0.046875 C 17.023438 -0.648438 17.066406 -1.5 17.359375 -2.5 C 17.597656 -3.28125 18 -4.03125 18.5625 -4.75 C 19.132812 -5.476562 19.789062 -6.117188 20.53125 -6.671875 C 21.269531 -7.234375 22.007812 -7.660156 22.75 -7.953125 C 23.21875 -8.128906 23.742188 -8.253906 24.328125 -8.328125 C 24.921875 -8.398438 25.515625 -8.398438 26.109375 -8.328125 C 26.703125 -8.253906 27.242188 -8.085938 27.734375 -7.828125 C 28.234375 -7.566406 28.625 -7.191406 28.90625 -6.703125 C 29.019531 -6.492188 28.992188 -6.316406 28.828125 -6.171875 C 28.660156 -6.023438 28.410156 -5.910156 28.078125 -5.828125 C 27.753906 -5.742188 27.40625 -5.695312 27.03125 -5.6875 C 26.65625 -5.6875 26.304688 -5.726562 25.984375 -5.8125 C 25.671875 -5.894531 25.445312 -6.03125 25.3125 -6.21875 C 25.144531 -6.4375 24.957031 -6.515625 24.75 -6.453125 C 24.539062 -6.398438 24.285156 -6.257812 23.984375 -6.03125 C 23.703125 -5.820312 23.421875 -5.59375 23.140625 -5.34375 C 22.867188 -5.09375 22.617188 -4.828125 22.390625 -4.546875 C 21.953125 -4.066406 21.585938 -3.535156 21.296875 -2.953125 C 21.003906 -2.367188 20.863281 -1.742188 20.875 -1.078125 C 20.90625 -0.617188 21.015625 -0.191406 21.203125 0.203125 C 21.398438 0.597656 21.675781 0.914062 22.03125 1.15625 C 22.382812 1.40625 22.804688 1.519531 23.296875 1.5 C 23.910156 1.476562 24.5 1.289062 25.0625 0.9375 C 25.632812 0.582031 26.132812 0.210938 26.5625 -0.171875 C 27.5 -1.023438 28.21875 -1.972656 28.71875 -3.015625 C 29.21875 -4.054688 29.554688 -5.15625 29.734375 -6.3125 C 29.910156 -7.476562 29.988281 -8.664062 29.96875 -9.875 C 29.945312 -11.09375 29.878906 -12.300781 29.765625 -13.5 C 29.648438 -14.707031 29.550781 -15.875 29.46875 -17 C 29.40625 -18.0625 29.351562 -19.128906 29.3125 -20.203125 C 29.28125 -21.273438 29.25 -22.347656 29.21875 -23.421875 C 29.144531 -23.148438 28.953125 -22.679688 28.640625 -22.015625 C 28.335938 -21.347656 27.941406 -20.5625 27.453125 -19.65625 C 26.972656 -18.75 26.421875 -17.796875 25.796875 -16.796875 C 25.171875 -15.804688 24.492188 -14.835938 23.765625 -13.890625 C 23.035156 -12.941406 22.273438 -12.082031 21.484375 -11.3125 C 20.703125 -10.550781 19.90625 -9.953125 19.09375 -9.515625 C 18.289062 -9.085938 17.5 -8.890625 16.71875 -8.921875 C 16.207031 -8.953125 15.703125 -9.046875 15.203125 -9.203125 C 14.703125 -9.367188 14.21875 -9.628906 13.75 -9.984375 C 13.132812 -10.421875 12.648438 -10.972656 12.296875 -11.640625 C 11.941406 -12.304688 11.6875 -13.03125 11.53125 -13.8125 C 11.375 -14.59375 11.273438 -15.390625 11.234375 -16.203125 C 11.203125 -17.023438 11.195312 -17.828125 11.21875 -18.609375 C 11.25 -19.390625 11.273438 -20.109375 11.296875 -20.765625 C 11.359375 -23.328125 11.515625 -25.878906 11.765625 -28.421875 C 12.023438 -30.972656 12.273438 -33.523438 12.515625 -36.078125 C 12.765625 -38.546875 12.96875 -41.046875 13.125 -43.578125 C 13.289062 -46.117188 13.242188 -48.625 12.984375 -51.09375 C 12.953125 -51.445312 12.890625 -51.875 12.796875 -52.375 C 12.703125 -52.882812 12.570312 -53.390625 12.40625 -53.890625 C 12.238281 -54.398438 12.015625 -54.828125 11.734375 -55.171875 C 11.460938 -55.523438 11.117188 -55.726562 10.703125 -55.78125 C 9.859375 -55.875 9.085938 -55.734375 8.390625 -55.359375 C 7.703125 -54.992188 7.082031 -54.472656 6.53125 -53.796875 C 5.988281 -53.128906 5.515625 -52.378906 5.109375 -51.546875 C 4.703125 -50.722656 4.359375 -49.890625 4.078125 -49.046875 C 3.804688 -48.210938 3.597656 -47.445312 3.453125 -46.75 C 3.316406 -46.050781 3.234375 -45.507812 3.203125 -45.125 C 3.097656 -43.519531 3.125 -42.117188 3.28125 -40.921875 C 3.445312 -39.734375 3.71875 -38.804688 4.09375 -38.140625 C 4.46875 -37.484375 4.921875 -37.140625 5.453125 -37.109375 C 5.960938 -37.085938 6.414062 -37.210938 6.8125 -37.484375 C 7.207031 -37.765625 7.550781 -38.148438 7.84375 -38.640625 C 8.132812 -39.128906 8.382812 -39.675781 8.59375 -40.28125 C 8.8125 -40.882812 9 -41.5 9.15625 -42.125 C 9.3125 -42.75 9.445312 -43.34375 9.5625 -43.90625 C 9.675781 -44.46875 9.773438 -44.941406 9.859375 -45.328125 C 9.910156 -45.429688 10.046875 -45.507812 10.265625 -45.5625 C 10.484375 -45.613281 10.710938 -45.640625 10.953125 -45.640625 C 11.203125 -45.640625 11.410156 -45.609375 11.578125 -45.546875 C 11.753906 -45.484375 11.828125 -45.382812 11.796875 -45.25 C 11.640625 -44.570312 11.445312 -43.820312 11.21875 -43 C 10.988281 -42.175781 10.703125 -41.347656 10.359375 -40.515625 C 10.023438 -39.679688 9.617188 -38.914062 9.140625 -38.21875 C 8.671875 -37.519531 8.109375 -36.957031 7.453125 -36.53125 C 6.804688 -36.113281 6.046875 -35.910156 5.171875 -35.921875 C 4.515625 -35.921875 3.941406 -36.101562 3.453125 -36.46875 C 2.972656 -36.832031 2.570312 -37.285156 2.25 -37.828125 C 1.9375 -38.367188 1.6875 -38.921875 1.5 -39.484375 C 1.320312 -40.046875 1.203125 -40.535156 1.140625 -40.953125 C 0.929688 -42.128906 0.859375 -43.320312 0.921875 -44.53125 C 0.992188 -45.738281 1.175781 -46.914062 1.46875 -48.0625 C 1.6875 -48.9375 1.988281 -49.84375 2.375 -50.78125 C 2.757812 -51.71875 3.226562 -52.613281 3.78125 -53.46875 C 4.34375 -54.332031 4.988281 -55.09375 5.71875 -55.75 C 6.445312 -56.40625 7.269531 -56.878906 8.1875 -57.171875 C 8.820312 -57.378906 9.488281 -57.503906 10.1875 -57.546875 C 10.894531 -57.597656 11.585938 -57.546875 12.265625 -57.390625 C 12.941406 -57.242188 13.5625 -56.984375 14.125 -56.609375 C 14.84375 -56.117188 15.382812 -55.488281 15.75 -54.71875 C 16.113281 -53.957031 16.378906 -53.171875 16.546875 -52.359375 C 16.796875 -51.140625 16.914062 -49.890625 16.90625 -48.609375 C 16.894531 -47.335938 16.878906 -46.082031 16.859375 -44.84375 C 16.816406 -43.5 16.742188 -42.148438 16.640625 -40.796875 C 16.546875 -39.441406 16.4375 -38.085938 16.3125 -36.734375 C 16.050781 -33.992188 15.773438 -31.25 15.484375 -28.5 C 15.203125 -25.75 15.035156 -22.992188 14.984375 -20.234375 C 14.972656 -19.117188 14.96875 -17.960938 14.96875 -16.765625 C 14.96875 -15.578125 15.125 -14.4375 15.4375 -13.34375 C 15.507812 -13.082031 15.632812 -12.757812 15.8125 -12.375 C 16 -11.988281 16.222656 -11.640625 16.484375 -11.328125 C 16.742188 -11.023438 17.023438 -10.863281 17.328125 -10.84375 C 17.847656 -10.800781 18.394531 -10.972656 18.96875 -11.359375 C 19.539062 -11.742188 20.117188 -12.28125 20.703125 -12.96875 C 21.285156 -13.65625 21.859375 -14.425781 22.421875 -15.28125 C 22.984375 -16.144531 23.515625 -17.03125 24.015625 -17.9375 C 24.515625 -18.84375 24.96875 -19.710938 25.375 -20.546875 C 25.789062 -21.390625 26.140625 -22.132812 26.421875 -22.78125 C 26.703125 -23.425781 26.898438 -23.90625 27.015625 -24.21875 C 27.472656 -25.457031 27.882812 -26.71875 28.25 -28 C 28.625 -29.28125 28.960938 -30.570312 29.265625 -31.875 C 29.390625 -35.96875 29.617188 -40.050781 29.953125 -44.125 C 30.285156 -48.195312 30.632812 -52.269531 31 -56.34375 Z M 31 -56.34375 "/></g></g></g><g fill="#ffffff" fill-opacity="1"><g transform="translate(202.586928, 63.499974)"><g><path d="M 14.109375 -26.5625 C 14.171875 -26.695312 14.269531 -26.773438 14.40625 -26.796875 C 14.550781 -26.828125 14.671875 -26.800781 14.765625 -26.71875 C 14.867188 -26.644531 14.890625 -26.519531 14.828125 -26.34375 C 14.660156 -25.09375 14.171875 -24.0625 13.359375 -23.25 C 12.554688 -22.4375 11.457031 -21.757812 10.0625 -21.21875 C 9.90625 -20.132812 9.679688 -19.0625 9.390625 -18 C 9.109375 -16.945312 8.757812 -15.984375 8.34375 -15.109375 C 7.925781 -14.234375 7.4375 -13.523438 6.875 -12.984375 C 6.3125 -12.441406 5.675781 -12.148438 4.96875 -12.109375 C 4.15625 -12.054688 3.445312 -12.1875 2.84375 -12.5 C 2.238281 -12.820312 1.71875 -13.269531 1.28125 -13.84375 C 0.851562 -14.414062 0.492188 -15.070312 0.203125 -15.8125 C -0.078125 -16.5625 -0.296875 -17.332031 -0.453125 -18.125 C -0.617188 -18.914062 -0.742188 -19.6875 -0.828125 -20.4375 C -0.910156 -21.1875 -0.960938 -21.867188 -0.984375 -22.484375 C -1.003906 -23.097656 -1.007812 -23.578125 -1 -23.921875 C -1 -24.078125 -0.984375 -24.222656 -0.953125 -24.359375 C -0.929688 -24.503906 -0.898438 -24.628906 -0.859375 -24.734375 C -1.097656 -25.628906 -1.160156 -26.5625 -1.046875 -27.53125 C -0.929688 -28.507812 -0.671875 -29.460938 -0.265625 -30.390625 C 0.128906 -31.316406 0.648438 -32.144531 1.296875 -32.875 C 1.921875 -33.570312 2.585938 -34.035156 3.296875 -34.265625 C 4.015625 -34.503906 4.71875 -34.539062 5.40625 -34.375 C 6.101562 -34.21875 6.71875 -33.90625 7.25 -33.4375 C 8.519531 -32.320312 9.394531 -30.921875 9.875 -29.234375 C 10.363281 -27.546875 10.5 -25.5 10.28125 -23.09375 C 10.28125 -23.007812 10.273438 -22.925781 10.265625 -22.84375 C 10.253906 -22.757812 10.242188 -22.671875 10.234375 -22.578125 C 10.910156 -22.796875 11.546875 -23.082031 12.140625 -23.4375 C 12.734375 -23.789062 13.210938 -24.226562 13.578125 -24.75 C 13.941406 -25.269531 14.117188 -25.875 14.109375 -26.5625 Z M 2.03125 -29.890625 C 1.957031 -29.609375 1.863281 -29.21875 1.75 -28.71875 C 1.632812 -28.226562 1.550781 -27.691406 1.5 -27.109375 C 1.445312 -26.523438 1.457031 -25.953125 1.53125 -25.390625 C 1.738281 -25.265625 1.898438 -25.113281 2.015625 -24.9375 C 2.140625 -24.757812 2.210938 -24.5625 2.234375 -24.34375 C 2.234375 -24.257812 2.234375 -24.148438 2.234375 -24.015625 C 2.234375 -23.890625 2.234375 -23.738281 2.234375 -23.5625 C 2.253906 -23.539062 2.269531 -23.519531 2.28125 -23.5 C 2.300781 -23.488281 2.316406 -23.46875 2.328125 -23.4375 C 2.753906 -22.96875 3.410156 -22.609375 4.296875 -22.359375 C 5.179688 -22.117188 6.160156 -22.015625 7.234375 -22.046875 C 7.304688 -22.773438 7.34375 -23.390625 7.34375 -23.890625 C 7.375 -24.710938 7.378906 -25.578125 7.359375 -26.484375 C 7.347656 -27.398438 7.273438 -28.300781 7.140625 -29.1875 C 7.003906 -30.070312 6.75 -30.882812 6.375 -31.625 C 5.988281 -32.394531 5.59375 -32.878906 5.1875 -33.078125 C 4.78125 -33.273438 4.378906 -33.253906 3.984375 -33.015625 C 3.597656 -32.785156 3.234375 -32.390625 2.890625 -31.828125 C 2.554688 -31.273438 2.269531 -30.628906 2.03125 -29.890625 Z M 4.828125 -14.3125 C 5.128906 -14.34375 5.394531 -14.535156 5.625 -14.890625 C 5.863281 -15.253906 6.070312 -15.726562 6.25 -16.3125 C 6.4375 -16.90625 6.59375 -17.554688 6.71875 -18.265625 C 6.851562 -18.984375 6.960938 -19.691406 7.046875 -20.390625 C 6.203125 -20.265625 5.378906 -20.234375 4.578125 -20.296875 C 3.773438 -20.359375 3.050781 -20.535156 2.40625 -20.828125 C 2.46875 -20.078125 2.554688 -19.316406 2.671875 -18.546875 C 2.796875 -17.785156 2.953125 -17.078125 3.140625 -16.421875 C 3.328125 -15.773438 3.554688 -15.253906 3.828125 -14.859375 C 4.097656 -14.472656 4.429688 -14.289062 4.828125 -14.3125 Z M 4.828125 -14.3125 "/></g></g></g><g fill="#ffffff" fill-opacity="1"><g transform="translate(216.511365, 63.499974)"><g><path d="M 16.65625 -26.96875 C 16.6875 -27.007812 16.753906 -27.023438 16.859375 -27.015625 C 16.972656 -27.003906 17.082031 -26.976562 17.1875 -26.9375 C 17.289062 -26.894531 17.335938 -26.847656 17.328125 -26.796875 C 17.140625 -26.015625 16.8125 -25.066406 16.34375 -23.953125 C 15.875 -22.835938 15.21875 -21.5625 14.375 -20.125 C 13.53125 -18.695312 12.441406 -17.109375 11.109375 -15.359375 C 11.097656 -14.648438 11.082031 -13.941406 11.0625 -13.234375 C 11.039062 -12.535156 11.019531 -11.835938 11 -11.140625 C 10.9375 -9.597656 10.867188 -8.046875 10.796875 -6.484375 C 10.722656 -4.929688 10.585938 -3.390625 10.390625 -1.859375 C 10.285156 -1.023438 10.140625 -0.164062 9.953125 0.71875 C 9.765625 1.601562 9.5 2.457031 9.15625 3.28125 C 8.820312 4.101562 8.363281 4.835938 7.78125 5.484375 C 7.3125 6.003906 6.71875 6.429688 6 6.765625 C 5.28125 7.109375 4.535156 7.304688 3.765625 7.359375 C 3.003906 7.410156 2.289062 7.269531 1.625 6.9375 C 1.019531 6.613281 0.5 6.191406 0.0625 5.671875 C -0.375 5.148438 -0.710938 4.566406 -0.953125 3.921875 C -1.191406 3.273438 -1.320312 2.617188 -1.34375 1.953125 C -1.375 1.054688 -1.257812 0.1875 -1 -0.65625 C -0.738281 -1.5 -0.390625 -2.3125 0.046875 -3.09375 C 0.484375 -3.875 0.941406 -4.613281 1.421875 -5.3125 C 2.222656 -6.46875 3.066406 -7.578125 3.953125 -8.640625 C 4.847656 -9.710938 5.75 -10.785156 6.65625 -11.859375 C 6.78125 -12.003906 6.898438 -12.144531 7.015625 -12.28125 C 7.128906 -12.414062 7.242188 -12.546875 7.359375 -12.671875 C 7.378906 -13.378906 7.394531 -14.082031 7.40625 -14.78125 C 7.414062 -15.476562 7.425781 -16.171875 7.4375 -16.859375 C 7.457031 -17.453125 7.46875 -18.046875 7.46875 -18.640625 C 7.476562 -19.234375 7.488281 -19.832031 7.5 -20.4375 C 7.28125 -19.738281 7.03125 -19.050781 6.75 -18.375 C 6.476562 -17.695312 6.171875 -17.046875 5.828125 -16.421875 C 5.378906 -15.628906 4.757812 -15.0625 3.96875 -14.71875 C 3.175781 -14.382812 2.320312 -14.34375 1.40625 -14.59375 C 0.738281 -14.789062 0.234375 -15.109375 -0.109375 -15.546875 C -0.460938 -15.992188 -0.710938 -16.507812 -0.859375 -17.09375 C -1.003906 -17.675781 -1.101562 -18.269531 -1.15625 -18.875 C -1.269531 -20.1875 -1.289062 -21.492188 -1.21875 -22.796875 C -1.144531 -24.109375 -0.988281 -25.410156 -0.75 -26.703125 C -0.601562 -27.398438 -0.441406 -28.132812 -0.265625 -28.90625 C -0.0859375 -29.6875 0.148438 -30.441406 0.453125 -31.171875 C 0.753906 -31.898438 1.144531 -32.539062 1.625 -33.09375 C 2.21875 -33.738281 2.957031 -34.179688 3.84375 -34.421875 C 4.726562 -34.660156 5.585938 -34.664062 6.421875 -34.4375 C 6.753906 -34.34375 7.039062 -34.226562 7.28125 -34.09375 C 7.519531 -33.957031 7.726562 -33.796875 7.90625 -33.609375 C 8.101562 -33.816406 8.390625 -33.960938 8.765625 -34.046875 C 9.148438 -34.140625 9.535156 -34.164062 9.921875 -34.125 C 10.316406 -34.082031 10.648438 -33.984375 10.921875 -33.828125 C 11.203125 -33.671875 11.34375 -33.457031 11.34375 -33.1875 C 11.34375 -30.519531 11.328125 -27.835938 11.296875 -25.140625 C 11.273438 -22.453125 11.234375 -19.769531 11.171875 -17.09375 C 11.410156 -17.394531 11.640625 -17.703125 11.859375 -18.015625 C 12.078125 -18.328125 12.289062 -18.644531 12.5 -18.96875 C 13.320312 -20.238281 14.082031 -21.519531 14.78125 -22.8125 C 15.476562 -24.101562 16.101562 -25.488281 16.65625 -26.96875 Z M 6.8125 -26.1875 C 6.914062 -26.726562 6.992188 -27.273438 7.046875 -27.828125 C 7.097656 -28.378906 7.195312 -28.914062 7.34375 -29.4375 C 7.238281 -29.5 7.175781 -29.582031 7.15625 -29.6875 C 7.082031 -30.007812 6.972656 -30.359375 6.828125 -30.734375 C 6.679688 -31.117188 6.5 -31.472656 6.28125 -31.796875 C 6.0625 -32.117188 5.820312 -32.359375 5.5625 -32.515625 C 5.300781 -32.671875 5.023438 -32.691406 4.734375 -32.578125 C 4.453125 -32.460938 4.171875 -32.15625 3.890625 -31.65625 C 3.492188 -30.976562 3.1875 -30.226562 2.96875 -29.40625 C 2.75 -28.59375 2.5625 -27.804688 2.40625 -27.046875 C 2.101562 -25.609375 1.90625 -24.125 1.8125 -22.59375 C 1.726562 -21.0625 1.796875 -19.5625 2.015625 -18.09375 C 2.023438 -18.039062 2.050781 -17.910156 2.09375 -17.703125 C 2.132812 -17.492188 2.1875 -17.265625 2.25 -17.015625 C 2.3125 -16.765625 2.390625 -16.550781 2.484375 -16.375 C 2.585938 -16.195312 2.695312 -16.117188 2.8125 -16.140625 C 3.207031 -16.296875 3.566406 -16.613281 3.890625 -17.09375 C 4.222656 -17.570312 4.53125 -18.144531 4.8125 -18.8125 C 5.09375 -19.476562 5.34375 -20.179688 5.5625 -20.921875 C 5.789062 -21.671875 5.988281 -22.394531 6.15625 -23.09375 C 6.320312 -23.800781 6.457031 -24.425781 6.5625 -24.96875 C 6.675781 -25.519531 6.757812 -25.925781 6.8125 -26.1875 Z M 6.5 -0.625 C 6.78125 -2.28125 6.976562 -3.953125 7.09375 -5.640625 C 7.207031 -7.328125 7.285156 -9.015625 7.328125 -10.703125 C 6.492188 -9.722656 5.671875 -8.722656 4.859375 -7.703125 C 4.054688 -6.679688 3.328125 -5.625 2.671875 -4.53125 C 2.023438 -3.4375 1.503906 -2.269531 1.109375 -1.03125 C 0.921875 -0.394531 0.789062 0.257812 0.71875 0.9375 C 0.65625 1.625 0.703125 2.296875 0.859375 2.953125 C 0.921875 3.222656 1.019531 3.515625 1.15625 3.828125 C 1.300781 4.148438 1.476562 4.445312 1.6875 4.71875 C 1.894531 4.988281 2.132812 5.195312 2.40625 5.34375 C 2.675781 5.488281 2.984375 5.523438 3.328125 5.453125 C 3.753906 5.347656 4.128906 5.128906 4.453125 4.796875 C 4.773438 4.472656 5.050781 4.070312 5.28125 3.59375 C 5.519531 3.125 5.71875 2.628906 5.875 2.109375 C 6.03125 1.597656 6.15625 1.101562 6.25 0.625 C 6.351562 0.144531 6.4375 -0.269531 6.5 -0.625 Z M 6.5 -0.625 "/></g></g></g><g fill="#ffffff" fill-opacity="1"><g transform="translate(233.306598, 63.499974)"><g><path d="M 16.9375 -24.921875 C 16.945312 -24.960938 17.003906 -24.988281 17.109375 -25 C 17.210938 -25.007812 17.316406 -25.007812 17.421875 -25 C 17.535156 -25 17.59375 -24.976562 17.59375 -24.9375 C 17.664062 -23.582031 17.597656 -22.25 17.390625 -20.9375 C 17.179688 -19.632812 16.890625 -18.34375 16.515625 -17.0625 C 16.140625 -15.78125 15.738281 -14.488281 15.3125 -13.1875 C 15.113281 -12.582031 14.859375 -12.015625 14.546875 -11.484375 C 14.234375 -10.960938 13.859375 -10.535156 13.421875 -10.203125 C 12.992188 -9.867188 12.507812 -9.6875 11.96875 -9.65625 C 11.425781 -9.625 10.828125 -9.804688 10.171875 -10.203125 C 9.734375 -10.472656 9.394531 -10.828125 9.15625 -11.265625 C 8.925781 -11.703125 8.75 -12.171875 8.625 -12.671875 C 8.507812 -13.171875 8.410156 -13.65625 8.328125 -14.125 C 8.140625 -15.125 8.019531 -16.128906 7.96875 -17.140625 C 7.925781 -18.160156 7.921875 -19.179688 7.953125 -20.203125 C 7.960938 -20.523438 7.976562 -20.84375 8 -21.15625 C 8.019531 -21.476562 8.035156 -21.796875 8.046875 -22.109375 C 7.765625 -21.203125 7.503906 -20.3125 7.265625 -19.4375 C 7.035156 -18.5625 6.789062 -17.757812 6.53125 -17.03125 C 6.28125 -16.300781 5.972656 -15.6875 5.609375 -15.1875 C 5.253906 -14.6875 4.796875 -14.34375 4.234375 -14.15625 C 3.472656 -13.914062 2.804688 -13.878906 2.234375 -14.046875 C 1.660156 -14.222656 1.164062 -14.550781 0.75 -15.03125 C 0.34375 -15.507812 0.00390625 -16.070312 -0.265625 -16.71875 C -0.535156 -17.375 -0.75 -18.050781 -0.90625 -18.75 C -1.0625 -19.457031 -1.171875 -20.113281 -1.234375 -20.71875 C -1.347656 -21.75 -1.414062 -22.785156 -1.4375 -23.828125 C -1.46875 -24.878906 -1.476562 -25.921875 -1.46875 -26.953125 C -1.46875 -27.535156 -1.457031 -28.144531 -1.4375 -28.78125 C -1.425781 -29.414062 -1.398438 -30.023438 -1.359375 -30.609375 C -1.328125 -31.191406 -1.257812 -31.710938 -1.15625 -32.171875 C -1.050781 -32.628906 -0.898438 -32.972656 -0.703125 -33.203125 C -0.554688 -33.367188 -0.335938 -33.519531 -0.046875 -33.65625 C 0.242188 -33.800781 0.554688 -33.882812 0.890625 -33.90625 C 1.222656 -33.9375 1.503906 -33.882812 1.734375 -33.75 C 1.972656 -33.625 2.09375 -33.382812 2.09375 -33.03125 C 2.101562 -32.757812 2.109375 -32.359375 2.109375 -31.828125 C 2.109375 -31.296875 2.109375 -30.695312 2.109375 -30.03125 C 2.109375 -29.363281 2.109375 -28.671875 2.109375 -27.953125 C 2.117188 -27.234375 2.128906 -26.539062 2.140625 -25.875 C 2.148438 -25.21875 2.160156 -24.625 2.171875 -24.09375 C 2.179688 -23.5625 2.191406 -23.160156 2.203125 -22.890625 C 2.242188 -22.148438 2.3125 -21.40625 2.40625 -20.65625 C 2.5 -19.914062 2.628906 -19.179688 2.796875 -18.453125 C 2.796875 -18.453125 2.8125 -18.351562 2.84375 -18.15625 C 2.882812 -17.96875 2.953125 -17.734375 3.046875 -17.453125 C 3.140625 -17.179688 3.253906 -16.914062 3.390625 -16.65625 C 3.535156 -16.394531 3.707031 -16.195312 3.90625 -16.0625 C 4.113281 -15.9375 4.351562 -15.921875 4.625 -16.015625 C 4.8125 -16.078125 5.015625 -16.351562 5.234375 -16.84375 C 5.453125 -17.332031 5.679688 -17.972656 5.921875 -18.765625 C 6.171875 -19.566406 6.414062 -20.445312 6.65625 -21.40625 C 6.894531 -22.375 7.125 -23.375 7.34375 -24.40625 C 7.5625 -25.4375 7.753906 -26.4375 7.921875 -27.40625 C 8.097656 -28.382812 8.238281 -29.273438 8.34375 -30.078125 C 8.445312 -30.890625 8.5 -31.539062 8.5 -32.03125 C 8.5 -32.125 8.5 -32.207031 8.5 -32.28125 C 8.5 -32.363281 8.492188 -32.453125 8.484375 -32.546875 C 8.453125 -32.785156 8.550781 -33.003906 8.78125 -33.203125 C 9.007812 -33.398438 9.296875 -33.550781 9.640625 -33.65625 C 9.992188 -33.769531 10.347656 -33.832031 10.703125 -33.84375 C 11.066406 -33.863281 11.375 -33.816406 11.625 -33.703125 C 11.882812 -33.585938 12.019531 -33.398438 12.03125 -33.140625 C 12.113281 -31.609375 12.101562 -30.046875 12 -28.453125 C 11.90625 -26.867188 11.800781 -25.269531 11.6875 -23.65625 C 11.582031 -22.050781 11.53125 -20.453125 11.53125 -18.859375 C 11.539062 -17.273438 11.675781 -15.722656 11.9375 -14.203125 C 12 -13.859375 12.0625 -13.515625 12.125 -13.171875 C 12.195312 -12.828125 12.296875 -12.5 12.421875 -12.1875 C 12.515625 -11.9375 12.644531 -11.691406 12.8125 -11.453125 C 12.820312 -11.429688 12.828125 -11.414062 12.828125 -11.40625 C 13.242188 -12.03125 13.585938 -12.648438 13.859375 -13.265625 C 14.140625 -13.890625 14.394531 -14.5625 14.625 -15.28125 C 15.132812 -16.84375 15.601562 -18.429688 16.03125 -20.046875 C 16.46875 -21.671875 16.769531 -23.296875 16.9375 -24.921875 Z M 16.9375 -24.921875 "/></g></g></g><g fill="#ffffff" fill-opacity="1"><g transform="translate(250.219019, 63.499974)"><g><path d="M 9.265625 -25.09375 C 8.660156 -24.5 8.054688 -24.109375 7.453125 -23.921875 C 6.847656 -23.742188 6.210938 -23.875 5.546875 -24.3125 C 5.265625 -24.507812 5.0625 -24.765625 4.9375 -25.078125 C 4.8125 -25.390625 4.757812 -25.703125 4.78125 -26.015625 C 4.8125 -26.328125 4.898438 -26.582031 5.046875 -26.78125 C 5.097656 -26.820312 5.210938 -26.847656 5.390625 -26.859375 C 5.578125 -26.867188 5.765625 -26.859375 5.953125 -26.828125 C 6.148438 -26.804688 6.300781 -26.765625 6.40625 -26.703125 C 6.519531 -26.640625 6.535156 -26.535156 6.453125 -26.390625 C 6.347656 -26.234375 6.296875 -26.054688 6.296875 -25.859375 C 6.304688 -25.660156 6.375 -25.492188 6.5 -25.359375 C 6.625 -25.222656 6.800781 -25.15625 7.03125 -25.15625 C 7.269531 -25.164062 7.484375 -25.320312 7.671875 -25.625 C 7.859375 -25.925781 8.019531 -26.316406 8.15625 -26.796875 C 8.300781 -27.273438 8.414062 -27.785156 8.5 -28.328125 C 8.59375 -28.878906 8.640625 -29.40625 8.640625 -29.90625 C 8.640625 -30.414062 8.59375 -30.84375 8.5 -31.1875 C 8.414062 -31.53125 8.285156 -31.734375 8.109375 -31.796875 C 7.691406 -31.953125 7.257812 -31.882812 6.8125 -31.59375 C 6.363281 -31.300781 5.925781 -30.828125 5.5 -30.171875 C 5.070312 -29.523438 4.671875 -28.726562 4.296875 -27.78125 C 3.929688 -26.84375 3.613281 -25.796875 3.34375 -24.640625 C 3.070312 -23.484375 2.867188 -22.269531 2.734375 -21 C 2.503906 -19.695312 2.390625 -18.320312 2.390625 -16.875 C 2.398438 -15.425781 2.398438 -14.023438 2.390625 -12.671875 C 2.390625 -12.617188 2.390625 -12.5625 2.390625 -12.5 C 2.398438 -12.4375 2.40625 -12.378906 2.40625 -12.328125 L 2.390625 -12.328125 C 2.390625 -12.234375 2.382812 -12.140625 2.375 -12.046875 C 2.363281 -11.960938 2.359375 -11.875 2.359375 -11.78125 C 2.347656 -11.519531 2.222656 -11.320312 1.984375 -11.1875 C 1.753906 -11.0625 1.460938 -10.992188 1.109375 -10.984375 C 0.765625 -10.984375 0.414062 -11.035156 0.0625 -11.140625 C -0.289062 -11.242188 -0.585938 -11.390625 -0.828125 -11.578125 C -1.066406 -11.765625 -1.195312 -11.988281 -1.21875 -12.25 C -1.300781 -14.1875 -1.378906 -16.117188 -1.453125 -18.046875 C -1.535156 -19.972656 -1.585938 -21.898438 -1.609375 -23.828125 C -1.609375 -24.796875 -1.59375 -25.765625 -1.5625 -26.734375 C -1.539062 -27.703125 -1.503906 -28.660156 -1.453125 -29.609375 C -1.410156 -30.191406 -1.351562 -30.804688 -1.28125 -31.453125 C -1.21875 -32.097656 -1.117188 -32.707031 -0.984375 -33.28125 C -0.859375 -33.851562 -0.691406 -34.316406 -0.484375 -34.671875 C -0.378906 -34.847656 -0.195312 -34.992188 0.0625 -35.109375 C 0.320312 -35.222656 0.601562 -35.296875 0.90625 -35.328125 C 1.21875 -35.359375 1.507812 -35.34375 1.78125 -35.28125 C 2.0625 -35.226562 2.285156 -35.125 2.453125 -34.96875 C 2.617188 -34.820312 2.675781 -34.625 2.625 -34.375 C 2.425781 -33.375 2.3125 -32.460938 2.28125 -31.640625 C 2.25 -30.816406 2.207031 -29.957031 2.15625 -29.0625 C 2.132812 -28.550781 2.113281 -28.035156 2.09375 -27.515625 C 2.082031 -26.992188 2.066406 -26.472656 2.046875 -25.953125 C 2.117188 -26.148438 2.1875 -26.34375 2.25 -26.53125 C 2.320312 -26.71875 2.398438 -26.910156 2.484375 -27.109375 C 2.816406 -27.972656 3.175781 -28.847656 3.5625 -29.734375 C 3.957031 -30.617188 4.398438 -31.429688 4.890625 -32.171875 C 5.390625 -32.910156 5.945312 -33.5 6.5625 -33.9375 C 7.1875 -34.375 7.894531 -34.570312 8.6875 -34.53125 C 9.226562 -34.507812 9.664062 -34.3125 10 -33.9375 C 10.34375 -33.5625 10.59375 -33.082031 10.75 -32.5 C 10.914062 -31.914062 11 -31.273438 11 -30.578125 C 11.007812 -29.878906 10.945312 -29.175781 10.8125 -28.46875 C 10.675781 -27.769531 10.476562 -27.125 10.21875 -26.53125 C 9.957031 -25.9375 9.640625 -25.457031 9.265625 -25.09375 Z M 9.265625 -25.09375 "/></g></g></g><g fill="#ffffff" fill-opacity="1"><g transform="translate(263.147454, 63.499974)"><g><path d="M 4.421875 -43.609375 C 4.140625 -42.234375 3.890625 -40.84375 3.671875 -39.4375 C 3.453125 -38.039062 3.257812 -36.640625 3.09375 -35.234375 C 2.988281 -34.640625 2.898438 -33.640625 2.828125 -32.234375 C 2.753906 -30.835938 2.691406 -29.03125 2.640625 -26.8125 C 2.609375 -25.394531 2.664062 -23.988281 2.8125 -22.59375 C 2.96875 -21.207031 3.207031 -19.816406 3.53125 -18.421875 C 3.6875 -17.796875 3.878906 -17.1875 4.109375 -16.59375 C 4.347656 -16 4.632812 -15.421875 4.96875 -14.859375 C 5.15625 -14.523438 5.351562 -14.273438 5.5625 -14.109375 C 5.800781 -13.921875 6.109375 -13.832031 6.484375 -13.84375 C 7.109375 -13.9375 7.707031 -14.601562 8.28125 -15.84375 C 8.832031 -17.082031 9.320312 -18.507812 9.75 -20.125 C 9.96875 -20.925781 10.164062 -21.6875 10.34375 -22.40625 C 10.519531 -23.125 10.671875 -23.796875 10.796875 -24.421875 C 10.898438 -24.890625 10.992188 -25.28125 11.078125 -25.59375 C 11.171875 -25.90625 11.242188 -26.144531 11.296875 -26.3125 C 11.398438 -26.625 11.535156 -26.785156 11.703125 -26.796875 C 11.867188 -26.804688 12.007812 -26.742188 12.125 -26.609375 C 12.25 -26.429688 12.273438 -26.207031 12.203125 -25.9375 C 12.128906 -25.570312 12.050781 -25.207031 11.96875 -24.84375 C 11.894531 -24.488281 11.816406 -24.128906 11.734375 -23.765625 C 11.523438 -22.765625 11.3125 -21.789062 11.09375 -20.84375 C 10.875 -19.90625 10.644531 -18.992188 10.40625 -18.109375 C 9.9375 -16.335938 9.382812 -14.878906 8.75 -13.734375 C 8.101562 -12.578125 7.328125 -11.921875 6.421875 -11.765625 C 4.703125 -11.566406 3.347656 -12 2.359375 -13.0625 C 1.359375 -14.144531 0.617188 -15.539062 0.140625 -17.25 C -0.347656 -18.9375 -0.660156 -20.660156 -0.796875 -22.421875 C -0.953125 -24.171875 -1.03125 -25.609375 -1.03125 -26.734375 C -1.113281 -30.210938 -0.921875 -33.753906 -0.453125 -37.359375 C -0.304688 -38.484375 -0.128906 -39.585938 0.078125 -40.671875 C 0.285156 -41.765625 0.523438 -42.84375 0.796875 -43.90625 C 0.765625 -43.914062 0.722656 -43.921875 0.671875 -43.921875 C 0.628906 -43.921875 0.585938 -43.921875 0.546875 -43.921875 C -0.867188 -43.972656 -1.929688 -43.859375 -2.640625 -43.578125 C -2.679688 -43.566406 -2.710938 -43.628906 -2.734375 -43.765625 C -2.742188 -43.890625 -2.734375 -44.0625 -2.703125 -44.28125 C -2.679688 -44.445312 -2.613281 -44.609375 -2.5 -44.765625 C -2.164062 -45.085938 -1.488281 -45.25 -0.46875 -45.25 C -0.21875 -45.238281 0.0390625 -45.226562 0.3125 -45.21875 C 0.582031 -45.21875 0.863281 -45.210938 1.15625 -45.203125 C 1.28125 -45.617188 1.40625 -46.035156 1.53125 -46.453125 C 1.664062 -46.878906 1.804688 -47.300781 1.953125 -47.71875 C 2.828125 -50.113281 3.597656 -51.789062 4.265625 -52.75 C 4.953125 -53.738281 5.566406 -54.347656 6.109375 -54.578125 C 6.296875 -54.640625 6.484375 -54.675781 6.671875 -54.6875 C 6.867188 -54.695312 7.0625 -54.691406 7.25 -54.671875 C 7.625 -54.585938 7.9375 -54.429688 8.1875 -54.203125 C 8.25 -54.109375 8.28125 -54.023438 8.28125 -53.953125 C 8.257812 -53.828125 8.210938 -53.738281 8.140625 -53.6875 C 7.617188 -53.25 7.109375 -52.390625 6.609375 -51.109375 C 6.097656 -49.847656 5.644531 -48.503906 5.25 -47.078125 C 5.144531 -46.671875 5.046875 -46.285156 4.953125 -45.921875 C 4.859375 -45.566406 4.769531 -45.234375 4.6875 -44.921875 C 5.1875 -44.898438 5.671875 -44.878906 6.140625 -44.859375 C 6.617188 -44.835938 7.09375 -44.832031 7.5625 -44.84375 C 9.039062 -44.84375 10.191406 -45.117188 11.015625 -45.671875 C 11.015625 -45.648438 11.019531 -45.640625 11.03125 -45.640625 C 11.03125 -45.640625 11.03125 -45.632812 11.03125 -45.625 C 11.03125 -45.625 11.039062 -45.625 11.0625 -45.625 C 11.0625 -45.601562 11.070312 -45.578125 11.09375 -45.546875 C 11.125 -45.492188 11.148438 -45.441406 11.171875 -45.390625 C 11.203125 -45.335938 11.226562 -45.28125 11.25 -45.21875 C 11.289062 -45.0625 11.304688 -44.898438 11.296875 -44.734375 C 11.273438 -44.535156 11.210938 -44.335938 11.109375 -44.140625 C 11.023438 -43.941406 10.84375 -43.726562 10.5625 -43.5 C 10.21875 -43.28125 9.539062 -43.195312 8.53125 -43.25 C 8.007812 -43.269531 7.457031 -43.304688 6.875 -43.359375 C 6.289062 -43.410156 5.660156 -43.476562 4.984375 -43.5625 C 4.890625 -43.570312 4.796875 -43.578125 4.703125 -43.578125 C 4.617188 -43.585938 4.523438 -43.597656 4.421875 -43.609375 Z M 4.421875 -43.609375 "/></g></g></g></svg>