<svg xmlns="http://www.w3.org/2000/svg" xmlns:xlink="http://www.w3.org/1999/xlink" width="1000" zoomAndPan="magnify" viewBox="0 0 750 74.999997" height="100" preserveAspectRatio="xMidYMid meet" version="1.0"><defs><g/></defs><g fill="#ffffff" fill-opacity="1"><g transform="translate(10.218764, 63.499967)"><g><path d="M 39.296875 -50.671875 C 39.773438 -51.054688 40.070312 -51.535156 40.1875 -52.109375 C 40.3125 -52.691406 40.28125 -53.265625 40.09375 -53.828125 C 39.863281 -54.546875 39.503906 -55.132812 39.015625 -55.59375 C 38.535156 -56.0625 37.976562 -56.414062 37.34375 -56.65625 C 36.71875 -56.894531 36.0625 -57.039062 35.375 -57.09375 C 34.6875 -57.15625 34.007812 -57.132812 33.34375 -57.03125 C 32.082031 -56.851562 30.84375 -56.503906 29.625 -55.984375 C 28.414062 -55.472656 27.226562 -54.96875 26.0625 -54.46875 C 25.90625 -54.40625 25.75 -54.34375 25.59375 -54.28125 C 25.4375 -54.21875 25.28125 -54.148438 25.125 -54.078125 C 25.132812 -54.046875 25.140625 -54.007812 25.140625 -53.96875 C 25.148438 -53.925781 25.15625 -53.882812 25.15625 -53.84375 C 25.257812 -50.800781 25.316406 -47.753906 25.328125 -44.703125 C 25.347656 -41.648438 25.347656 -38.597656 25.328125 -35.546875 C 25.316406 -32.796875 25.296875 -30.050781 25.265625 -27.3125 C 25.234375 -24.570312 25.1875 -21.835938 25.125 -19.109375 C 25.09375 -17.773438 25.0625 -16.441406 25.03125 -15.109375 C 25.007812 -13.785156 24.960938 -12.460938 24.890625 -11.140625 C 24.835938 -10.054688 24.695312 -8.960938 24.46875 -7.859375 C 24.25 -6.765625 23.851562 -5.738281 23.28125 -4.78125 C 22.800781 -3.988281 22.191406 -3.300781 21.453125 -2.71875 C 20.722656 -2.144531 19.914062 -1.707031 19.03125 -1.40625 C 18.144531 -1.101562 17.238281 -0.960938 16.3125 -0.984375 C 15.382812 -1.015625 14.476562 -1.234375 13.59375 -1.640625 C 12.820312 -1.992188 12.210938 -2.484375 11.765625 -3.109375 C 11.328125 -3.734375 11.066406 -4.410156 10.984375 -5.140625 C 10.898438 -5.878906 11.015625 -6.585938 11.328125 -7.265625 C 11.648438 -7.941406 12.195312 -8.503906 12.96875 -8.953125 C 13.207031 -9.085938 13.488281 -9.175781 13.8125 -9.21875 C 14.132812 -9.269531 14.453125 -9.28125 14.765625 -9.25 C 15.085938 -9.21875 15.367188 -9.128906 15.609375 -8.984375 C 15.941406 -8.804688 16.113281 -8.582031 16.125 -8.3125 C 16.144531 -8.039062 15.984375 -7.8125 15.640625 -7.625 C 15.253906 -7.394531 14.976562 -7.078125 14.8125 -6.671875 C 14.65625 -6.273438 14.59375 -5.851562 14.625 -5.40625 C 14.65625 -4.957031 14.773438 -4.535156 14.984375 -4.140625 C 15.191406 -3.753906 15.476562 -3.457031 15.84375 -3.25 C 16.300781 -2.988281 16.742188 -2.914062 17.171875 -3.03125 C 17.609375 -3.144531 18.019531 -3.367188 18.40625 -3.703125 C 18.789062 -4.046875 19.125 -4.429688 19.40625 -4.859375 C 19.695312 -5.296875 19.925781 -5.6875 20.09375 -6.03125 C 20.457031 -6.800781 20.710938 -7.597656 20.859375 -8.421875 C 21.015625 -9.242188 21.113281 -10.078125 21.15625 -10.921875 C 21.195312 -11.773438 21.226562 -12.613281 21.25 -13.4375 C 21.289062 -14.789062 21.328125 -16.140625 21.359375 -17.484375 C 21.390625 -18.828125 21.421875 -20.164062 21.453125 -21.5 C 21.554688 -26.695312 21.597656 -31.890625 21.578125 -37.078125 C 21.566406 -42.265625 21.550781 -47.457031 21.53125 -52.65625 C 21.007812 -52.457031 20.488281 -52.265625 19.96875 -52.078125 C 19.445312 -51.890625 18.914062 -51.710938 18.375 -51.546875 C 17.269531 -51.179688 16.101562 -50.816406 14.875 -50.453125 C 13.644531 -50.085938 12.390625 -49.785156 11.109375 -49.546875 C 9.835938 -49.316406 8.578125 -49.21875 7.328125 -49.25 C 6.078125 -49.28125 4.878906 -49.507812 3.734375 -49.9375 C 3.203125 -50.132812 2.664062 -50.398438 2.125 -50.734375 C 1.582031 -51.078125 1.125 -51.492188 0.75 -51.984375 C 0.382812 -52.472656 0.179688 -53.035156 0.140625 -53.671875 C 0.109375 -54.222656 0.238281 -54.75 0.53125 -55.25 C 0.832031 -55.75 1.207031 -56.1875 1.65625 -56.5625 C 2.113281 -56.9375 2.582031 -57.203125 3.0625 -57.359375 C 3.5625 -57.535156 4.082031 -57.617188 4.625 -57.609375 C 5.164062 -57.597656 5.679688 -57.492188 6.171875 -57.296875 C 6.671875 -57.109375 7.09375 -56.8125 7.4375 -56.40625 C 7.925781 -55.84375 8.117188 -55.269531 8.015625 -54.6875 C 7.910156 -54.101562 7.546875 -53.632812 6.921875 -53.28125 C 6.847656 -53.238281 6.722656 -53.207031 6.546875 -53.1875 C 6.378906 -53.175781 6.203125 -53.175781 6.015625 -53.1875 C 5.835938 -53.207031 5.691406 -53.253906 5.578125 -53.328125 C 5.460938 -53.398438 5.445312 -53.515625 5.53125 -53.671875 C 5.644531 -53.921875 5.6875 -54.226562 5.65625 -54.59375 C 5.632812 -54.957031 5.539062 -55.296875 5.375 -55.609375 C 5.21875 -55.921875 4.976562 -56.113281 4.65625 -56.1875 C 4.320312 -56.269531 4.0625 -56.21875 3.875 -56.03125 C 3.695312 -55.84375 3.578125 -55.59375 3.515625 -55.28125 C 3.453125 -54.976562 3.429688 -54.664062 3.453125 -54.34375 C 3.472656 -54.03125 3.519531 -53.78125 3.59375 -53.59375 C 3.863281 -52.914062 4.25 -52.40625 4.75 -52.0625 C 5.257812 -51.71875 5.832031 -51.492188 6.46875 -51.390625 C 7.101562 -51.285156 7.753906 -51.253906 8.421875 -51.296875 C 9.085938 -51.347656 9.710938 -51.429688 10.296875 -51.546875 C 12.804688 -52.015625 15.265625 -52.6875 17.671875 -53.5625 C 20.085938 -54.445312 22.457031 -55.390625 24.78125 -56.390625 C 25.851562 -56.847656 26.929688 -57.273438 28.015625 -57.671875 C 29.109375 -58.066406 30.207031 -58.390625 31.3125 -58.640625 C 32.425781 -58.898438 33.550781 -59.046875 34.6875 -59.078125 C 35.820312 -59.109375 36.972656 -58.988281 38.140625 -58.71875 C 38.796875 -58.5625 39.472656 -58.296875 40.171875 -57.921875 C 40.878906 -57.546875 41.53125 -57.09375 42.125 -56.5625 C 42.726562 -56.03125 43.207031 -55.441406 43.5625 -54.796875 C 43.925781 -54.148438 44.097656 -53.460938 44.078125 -52.734375 C 44.066406 -52.015625 43.796875 -51.289062 43.265625 -50.5625 C 42.765625 -49.875 42.117188 -49.347656 41.328125 -48.984375 C 40.546875 -48.617188 39.753906 -48.382812 38.953125 -48.28125 C 38.660156 -48.238281 38.28125 -48.210938 37.8125 -48.203125 C 37.351562 -48.203125 36.890625 -48.242188 36.421875 -48.328125 C 35.953125 -48.410156 35.550781 -48.5625 35.21875 -48.78125 C 34.894531 -49 34.71875 -49.316406 34.6875 -49.734375 C 34.675781 -49.960938 34.785156 -50.128906 35.015625 -50.234375 C 35.242188 -50.335938 35.492188 -50.398438 35.765625 -50.421875 C 36.035156 -50.441406 36.238281 -50.445312 36.375 -50.4375 C 36.757812 -50.40625 37.109375 -50.351562 37.421875 -50.28125 C 37.734375 -50.207031 38.039062 -50.1875 38.34375 -50.21875 C 38.65625 -50.257812 38.972656 -50.410156 39.296875 -50.671875 Z M 39.296875 -50.671875 "/></g></g></g><g fill="#ffffff" fill-opacity="1"><g transform="translate(41.524304, 63.499967)"><g><path d="M -0.546875 -27.890625 C -0.535156 -28.234375 -0.515625 -28.644531 -0.484375 -29.125 C -0.453125 -29.601562 -0.421875 -30.085938 -0.390625 -30.578125 C -0.367188 -31.066406 -0.359375 -31.472656 -0.359375 -31.796875 C -0.359375 -31.828125 -0.351562 -31.859375 -0.34375 -31.890625 C -0.332031 -31.929688 -0.328125 -31.96875 -0.328125 -32 C -0.671875 -32.007812 -0.976562 -32.066406 -1.25 -32.171875 C -1.519531 -32.285156 -1.65625 -32.46875 -1.65625 -32.71875 C -1.65625 -32.988281 -1.519531 -33.1875 -1.25 -33.3125 C -0.976562 -33.4375 -0.609375 -33.515625 -0.140625 -33.546875 C 0.316406 -33.578125 0.828125 -33.59375 1.390625 -33.59375 C 2.234375 -33.59375 2.941406 -33.519531 3.515625 -33.375 C 4.097656 -33.238281 4.398438 -33.019531 4.421875 -32.71875 C 4.429688 -32.5 4.34375 -32.335938 4.15625 -32.234375 C 3.96875 -32.128906 3.664062 -32.0625 3.25 -32.03125 C 3.25 -32.007812 3.25 -31.976562 3.25 -31.9375 C 3.25 -31.894531 3.25 -31.863281 3.25 -31.84375 C 3.257812 -31.488281 3.253906 -31.015625 3.234375 -30.421875 C 3.222656 -29.828125 3.203125 -29.203125 3.171875 -28.546875 C 3.140625 -27.890625 3.109375 -27.265625 3.078125 -26.671875 C 3.054688 -26.085938 3.039062 -25.625 3.03125 -25.28125 C 2.976562 -23.90625 2.914062 -22.519531 2.84375 -21.125 C 2.78125 -19.726562 2.863281 -18.351562 3.09375 -17 C 3.113281 -16.8125 3.160156 -16.546875 3.234375 -16.203125 C 3.304688 -15.859375 3.40625 -15.5 3.53125 -15.125 C 3.65625 -14.757812 3.8125 -14.441406 4 -14.171875 C 4.1875 -13.898438 4.40625 -13.765625 4.65625 -13.765625 C 5.09375 -13.753906 5.507812 -13.957031 5.90625 -14.375 C 6.300781 -14.800781 6.671875 -15.367188 7.015625 -16.078125 C 7.367188 -16.796875 7.691406 -17.578125 7.984375 -18.421875 C 8.273438 -19.273438 8.535156 -20.132812 8.765625 -21 C 9.003906 -21.875 9.203125 -22.675781 9.359375 -23.40625 C 9.515625 -24.144531 9.628906 -24.75 9.703125 -25.21875 C 9.734375 -25.363281 9.816406 -25.445312 9.953125 -25.46875 C 10.097656 -25.5 10.234375 -25.484375 10.359375 -25.421875 C 10.492188 -25.359375 10.550781 -25.257812 10.53125 -25.125 C 10.414062 -24.414062 10.265625 -23.601562 10.078125 -22.6875 C 9.898438 -21.78125 9.679688 -20.835938 9.421875 -19.859375 C 9.171875 -18.890625 8.863281 -17.9375 8.5 -17 C 8.144531 -16.070312 7.734375 -15.234375 7.265625 -14.484375 C 6.796875 -13.734375 6.257812 -13.132812 5.65625 -12.6875 C 5.0625 -12.25 4.378906 -12.03125 3.609375 -12.03125 C 2.859375 -12.03125 2.148438 -12.269531 1.484375 -12.75 C 0.835938 -13.25 0.347656 -13.867188 0.015625 -14.609375 C -0.304688 -15.347656 -0.519531 -16.144531 -0.625 -17 C -0.738281 -17.851562 -0.789062 -18.707031 -0.78125 -19.5625 C -0.78125 -20.425781 -0.769531 -21.21875 -0.75 -21.9375 C -0.71875 -22.925781 -0.679688 -23.914062 -0.640625 -24.90625 C -0.609375 -25.90625 -0.578125 -26.898438 -0.546875 -27.890625 Z M 4.6875 -36.875 C 4.675781 -36.488281 4.410156 -36.160156 3.890625 -35.890625 C 3.367188 -35.617188 2.742188 -35.492188 2.015625 -35.515625 C 1.273438 -35.523438 0.644531 -35.671875 0.125 -35.953125 C -0.382812 -36.234375 -0.632812 -36.566406 -0.625 -36.953125 C -0.625 -37.210938 -0.503906 -37.445312 -0.265625 -37.65625 C -0.0234375 -37.863281 0.296875 -38.03125 0.703125 -38.15625 C 1.117188 -38.28125 1.566406 -38.335938 2.046875 -38.328125 C 2.773438 -38.304688 3.394531 -38.148438 3.90625 -37.859375 C 4.425781 -37.578125 4.6875 -37.25 4.6875 -36.875 Z M 4.6875 -36.875 "/></g></g></g><g fill="#ffffff" fill-opacity="1"><g transform="translate(51.464744, 63.499967)"><g><path d="M 9.265625 -25.09375 C 8.660156 -24.5 8.054688 -24.109375 7.453125 -23.921875 C 6.847656 -23.742188 6.210938 -23.875 5.546875 -24.3125 C 5.265625 -24.507812 5.0625 -24.765625 4.9375 -25.078125 C 4.8125 -25.390625 4.757812 -25.703125 4.78125 -26.015625 C 4.8125 -26.328125 4.898438 -26.582031 5.046875 -26.78125 C 5.097656 -26.820312 5.210938 -26.847656 5.390625 -26.859375 C 5.578125 -26.867188 5.765625 -26.859375 5.953125 -26.828125 C 6.148438 -26.804688 6.300781 -26.765625 6.40625 -26.703125 C 6.519531 -26.640625 6.535156 -26.535156 6.453125 -26.390625 C 6.347656 -26.234375 6.296875 -26.054688 6.296875 -25.859375 C 6.304688 -25.660156 6.375 -25.492188 6.5 -25.359375 C 6.625 -25.222656 6.800781 -25.15625 7.03125 -25.15625 C 7.269531 -25.164062 7.484375 -25.320312 7.671875 -25.625 C 7.859375 -25.925781 8.019531 -26.316406 8.15625 -26.796875 C 8.300781 -27.273438 8.414062 -27.785156 8.5 -28.328125 C 8.59375 -28.878906 8.640625 -29.40625 8.640625 -29.90625 C 8.640625 -30.414062 8.59375 -30.84375 8.5 -31.1875 C 8.414062 -31.53125 8.285156 -31.734375 8.109375 -31.796875 C 7.691406 -31.953125 7.257812 -31.882812 6.8125 -31.59375 C 6.363281 -31.300781 5.925781 -30.828125 5.5 -30.171875 C 5.070312 -29.523438 4.671875 -28.726562 4.296875 -27.78125 C 3.929688 -26.84375 3.613281 -25.796875 3.34375 -24.640625 C 3.070312 -23.484375 2.867188 -22.269531 2.734375 -21 C 2.503906 -19.695312 2.390625 -18.320312 2.390625 -16.875 C 2.398438 -15.425781 2.398438 -14.023438 2.390625 -12.671875 C 2.390625 -12.617188 2.390625 -12.5625 2.390625 -12.5 C 2.398438 -12.4375 2.40625 -12.378906 2.40625 -12.328125 L 2.390625 -12.328125 C 2.390625 -12.234375 2.382812 -12.140625 2.375 -12.046875 C 2.363281 -11.960938 2.359375 -11.875 2.359375 -11.78125 C 2.347656 -11.519531 2.222656 -11.320312 1.984375 -11.1875 C 1.753906 -11.0625 1.460938 -10.992188 1.109375 -10.984375 C 0.765625 -10.984375 0.414062 -11.035156 0.0625 -11.140625 C -0.289062 -11.242188 -0.585938 -11.390625 -0.828125 -11.578125 C -1.066406 -11.765625 -1.195312 -11.988281 -1.21875 -12.25 C -1.300781 -14.1875 -1.378906 -16.117188 -1.453125 -18.046875 C -1.535156 -19.972656 -1.585938 -21.898438 -1.609375 -23.828125 C -1.609375 -24.796875 -1.59375 -25.765625 -1.5625 -26.734375 C -1.539062 -27.703125 -1.503906 -28.660156 -1.453125 -29.609375 C -1.410156 -30.191406 -1.351562 -30.804688 -1.28125 -31.453125 C -1.21875 -32.097656 -1.117188 -32.707031 -0.984375 -33.28125 C -0.859375 -33.851562 -0.691406 -34.316406 -0.484375 -34.671875 C -0.378906 -34.847656 -0.195312 -34.992188 0.0625 -35.109375 C 0.320312 -35.222656 0.601562 -35.296875 0.90625 -35.328125 C 1.21875 -35.359375 1.507812 -35.34375 1.78125 -35.28125 C 2.0625 -35.226562 2.285156 -35.125 2.453125 -34.96875 C 2.617188 -34.820312 2.675781 -34.625 2.625 -34.375 C 2.425781 -33.375 2.3125 -32.460938 2.28125 -31.640625 C 2.25 -30.816406 2.207031 -29.957031 2.15625 -29.0625 C 2.132812 -28.550781 2.113281 -28.035156 2.09375 -27.515625 C 2.082031 -26.992188 2.066406 -26.472656 2.046875 -25.953125 C 2.117188 -26.148438 2.1875 -26.34375 2.25 -26.53125 C 2.320312 -26.71875 2.398438 -26.910156 2.484375 -27.109375 C 2.816406 -27.972656 3.175781 -28.847656 3.5625 -29.734375 C 3.957031 -30.617188 4.398438 -31.429688 4.890625 -32.171875 C 5.390625 -32.910156 5.945312 -33.5 6.5625 -33.9375 C 7.1875 -34.375 7.894531 -34.570312 8.6875 -34.53125 C 9.226562 -34.507812 9.664062 -34.3125 10 -33.9375 C 10.34375 -33.5625 10.59375 -33.082031 10.75 -32.5 C 10.914062 -31.914062 11 -31.273438 11 -30.578125 C 11.007812 -29.878906 10.945312 -29.175781 10.8125 -28.46875 C 10.675781 -27.769531 10.476562 -27.125 10.21875 -26.53125 C 9.957031 -25.9375 9.640625 -25.457031 9.265625 -25.09375 Z M 9.265625 -25.09375 "/></g></g></g><g fill="#ffffff" fill-opacity="1"><g transform="translate(64.393168, 63.499967)"><g><path d="M 15.640625 -27.5 C 15.660156 -27.5625 15.738281 -27.597656 15.875 -27.609375 C 16.019531 -27.628906 16.164062 -27.625 16.3125 -27.59375 C 16.457031 -27.570312 16.519531 -27.53125 16.5 -27.46875 C 16.3125 -25.832031 16.050781 -24.195312 15.71875 -22.5625 C 15.382812 -20.9375 14.9375 -19.347656 14.375 -17.796875 C 14.164062 -17.210938 13.929688 -16.613281 13.671875 -16 C 13.410156 -15.394531 13.09375 -14.859375 12.71875 -14.390625 C 12.351562 -13.921875 11.894531 -13.585938 11.34375 -13.390625 C 10.800781 -13.191406 10.140625 -13.195312 9.359375 -13.40625 C 8.722656 -13.582031 8.222656 -13.914062 7.859375 -14.40625 C 7.492188 -14.90625 7.222656 -15.492188 7.046875 -16.171875 C 6.867188 -16.847656 6.75 -17.539062 6.6875 -18.25 C 6.550781 -17.832031 6.40625 -17.414062 6.25 -17 C 6.101562 -16.59375 5.941406 -16.191406 5.765625 -15.796875 C 5.523438 -15.265625 5.238281 -14.757812 4.90625 -14.28125 C 4.582031 -13.8125 4.207031 -13.414062 3.78125 -13.09375 C 3.351562 -12.78125 2.875 -12.578125 2.34375 -12.484375 C 1.820312 -12.398438 1.238281 -12.484375 0.59375 -12.734375 C 0.03125 -12.953125 -0.414062 -13.28125 -0.75 -13.71875 C -1.09375 -14.15625 -1.351562 -14.644531 -1.53125 -15.1875 C -1.707031 -15.738281 -1.832031 -16.304688 -1.90625 -16.890625 C -1.976562 -17.484375 -2.023438 -18.039062 -2.046875 -18.5625 C -2.128906 -19.945312 -2.09375 -21.328125 -1.9375 -22.703125 C -1.78125 -24.078125 -1.519531 -25.4375 -1.15625 -26.78125 C -1 -27.351562 -0.816406 -27.96875 -0.609375 -28.625 C -0.410156 -29.28125 -0.175781 -29.929688 0.09375 -30.578125 C 0.375 -31.222656 0.695312 -31.820312 1.0625 -32.375 C 1.425781 -32.9375 1.851562 -33.414062 2.34375 -33.8125 C 2.71875 -34.113281 3.148438 -34.34375 3.640625 -34.5 C 4.140625 -34.664062 4.648438 -34.75 5.171875 -34.75 C 5.691406 -34.75 6.191406 -34.660156 6.671875 -34.484375 C 7.160156 -34.304688 7.570312 -34.03125 7.90625 -33.65625 C 7.9375 -33.625 7.960938 -33.59375 7.984375 -33.5625 C 8.015625 -33.53125 8.039062 -33.492188 8.0625 -33.453125 C 8.445312 -33.554688 8.835938 -33.59375 9.234375 -33.5625 C 9.640625 -33.539062 9.984375 -33.453125 10.265625 -33.296875 C 10.546875 -33.140625 10.671875 -32.921875 10.640625 -32.640625 C 10.515625 -30.828125 10.394531 -29 10.28125 -27.15625 C 10.175781 -25.3125 10.148438 -23.472656 10.203125 -21.640625 C 10.253906 -19.816406 10.453125 -18.007812 10.796875 -16.21875 C 10.816406 -16.082031 10.84375 -15.945312 10.875 -15.8125 C 10.90625 -15.675781 10.941406 -15.539062 10.984375 -15.40625 C 11.117188 -15.582031 11.25 -15.753906 11.375 -15.921875 C 11.5 -16.085938 11.613281 -16.253906 11.71875 -16.421875 C 12.082031 -16.960938 12.410156 -17.507812 12.703125 -18.0625 C 12.992188 -18.625 13.265625 -19.195312 13.515625 -19.78125 C 14.046875 -21.019531 14.484375 -22.28125 14.828125 -23.5625 C 15.179688 -24.84375 15.453125 -26.15625 15.640625 -27.5 Z M 5 -22.46875 C 5.351562 -23.695312 5.640625 -24.941406 5.859375 -26.203125 C 6.078125 -27.460938 6.289062 -28.722656 6.5 -29.984375 C 6.414062 -30.242188 6.300781 -30.5 6.15625 -30.75 C 6.019531 -30.96875 5.894531 -31.1875 5.78125 -31.40625 C 5.664062 -31.625 5.535156 -31.835938 5.390625 -32.046875 C 5.335938 -32.128906 5.28125 -32.207031 5.21875 -32.28125 C 5.164062 -32.363281 5.109375 -32.441406 5.046875 -32.515625 C 4.953125 -32.378906 4.863281 -32.238281 4.78125 -32.09375 C 4.695312 -31.945312 4.613281 -31.800781 4.53125 -31.65625 C 4.40625 -31.4375 4.28125 -31.207031 4.15625 -30.96875 C 4.039062 -30.726562 3.929688 -30.484375 3.828125 -30.234375 C 3.359375 -29.222656 2.96875 -28.1875 2.65625 -27.125 C 2.300781 -25.976562 2.035156 -24.800781 1.859375 -23.59375 C 1.691406 -22.394531 1.609375 -21.195312 1.609375 -20 C 1.609375 -19.46875 1.617188 -18.929688 1.640625 -18.390625 C 1.671875 -17.847656 1.726562 -17.3125 1.8125 -16.78125 C 1.84375 -16.625 1.890625 -16.375 1.953125 -16.03125 C 2.015625 -15.6875 2.109375 -15.359375 2.234375 -15.046875 C 2.460938 -15.367188 2.671875 -15.738281 2.859375 -16.15625 C 3.046875 -16.582031 3.210938 -16.988281 3.359375 -17.375 C 3.515625 -17.757812 3.625 -18.039062 3.6875 -18.21875 C 3.945312 -18.914062 4.179688 -19.617188 4.390625 -20.328125 C 4.597656 -21.035156 4.800781 -21.75 5 -22.46875 Z M 5 -22.46875 "/></g></g></g><g fill="#ffffff" fill-opacity="1"><g transform="translate(80.153352, 63.499967)"><g><path d="M 18.328125 -36.71875 C 18.046875 -36.300781 17.8125 -35.867188 17.625 -35.421875 C 17.4375 -34.984375 17.253906 -34.519531 17.078125 -34.03125 C 16.785156 -33.207031 16.519531 -32.378906 16.28125 -31.546875 C 16.050781 -30.710938 15.828125 -29.875 15.609375 -29.03125 C 15.140625 -27.132812 14.78125 -25.234375 14.53125 -23.328125 C 14.28125 -21.429688 13.988281 -19.535156 13.65625 -17.640625 C 13.644531 -17.492188 13.519531 -17.363281 13.28125 -17.25 C 13.15625 -17.15625 13.003906 -17.082031 12.828125 -17.03125 C 12.648438 -16.988281 12.484375 -16.96875 12.328125 -16.96875 C 11.390625 -17 10.644531 -17.21875 10.09375 -17.625 C 9.539062 -18.039062 9.125 -18.59375 8.84375 -19.28125 C 8.5625 -19.96875 8.378906 -20.753906 8.296875 -21.640625 C 8.222656 -22.523438 8.191406 -23.441406 8.203125 -24.390625 C 8.210938 -24.847656 8.25 -25.46875 8.3125 -26.25 C 8.382812 -27.03125 8.460938 -27.882812 8.546875 -28.8125 C 8.640625 -29.738281 8.738281 -30.65625 8.84375 -31.5625 C 8.945312 -32.476562 9.039062 -33.289062 9.125 -34 C 9.03125 -33.875 8.945312 -33.742188 8.875 -33.609375 C 8.800781 -33.472656 8.734375 -33.351562 8.671875 -33.25 C 8.460938 -32.863281 8.265625 -32.46875 8.078125 -32.0625 C 7.898438 -31.65625 7.722656 -31.242188 7.546875 -30.828125 C 7.160156 -29.910156 6.800781 -28.984375 6.46875 -28.046875 C 6.144531 -27.117188 5.835938 -26.179688 5.546875 -25.234375 C 5.066406 -23.578125 4.640625 -21.898438 4.265625 -20.203125 C 3.898438 -18.503906 3.546875 -16.800781 3.203125 -15.09375 C 3.234375 -14.75 3.273438 -14.398438 3.328125 -14.046875 C 3.378906 -13.691406 3.414062 -13.40625 3.4375 -13.1875 C 3.46875 -12.976562 3.4375 -12.785156 3.34375 -12.609375 C 3.257812 -12.429688 3.078125 -12.210938 2.796875 -11.953125 C 2.578125 -11.753906 2.273438 -11.640625 1.890625 -11.609375 C 1.503906 -11.585938 1.179688 -11.648438 0.921875 -11.796875 C 0.566406 -11.992188 0.304688 -12.160156 0.140625 -12.296875 C -0.015625 -12.429688 -0.125 -12.597656 -0.1875 -12.796875 C -0.25 -13.003906 -0.3125 -13.300781 -0.375 -13.6875 C -0.4375 -14.1875 -0.492188 -14.679688 -0.546875 -15.171875 C -0.609375 -15.660156 -0.65625 -16.148438 -0.6875 -16.640625 C -0.738281 -17.578125 -0.757812 -18.515625 -0.75 -19.453125 C -0.75 -20.398438 -0.722656 -21.34375 -0.671875 -22.28125 C -0.640625 -22.625 -0.597656 -23.082031 -0.546875 -23.65625 C -0.503906 -24.226562 -0.445312 -24.867188 -0.375 -25.578125 C -0.3125 -26.296875 -0.234375 -27.03125 -0.140625 -27.78125 C -0.046875 -28.53125 0.0546875 -29.242188 0.171875 -29.921875 C 0.296875 -30.597656 0.414062 -31.191406 0.53125 -31.703125 C 0.65625 -32.210938 0.789062 -32.578125 0.9375 -32.796875 C 1.03125 -32.972656 1.207031 -33.125 1.46875 -33.25 C 1.738281 -33.382812 2.035156 -33.476562 2.359375 -33.53125 C 2.691406 -33.582031 3.007812 -33.59375 3.3125 -33.5625 C 3.613281 -33.539062 3.863281 -33.46875 4.0625 -33.34375 C 4.269531 -33.226562 4.367188 -33.050781 4.359375 -32.8125 C 4.347656 -32.394531 4.289062 -31.882812 4.1875 -31.28125 C 4.082031 -30.6875 3.96875 -30.078125 3.84375 -29.453125 C 3.726562 -28.828125 3.640625 -28.253906 3.578125 -27.734375 C 3.390625 -26.390625 3.253906 -25.078125 3.171875 -23.796875 C 3.273438 -24.171875 3.375 -24.539062 3.46875 -24.90625 C 3.5625 -25.269531 3.671875 -25.632812 3.796875 -26 C 4.117188 -27.050781 4.460938 -28.097656 4.828125 -29.140625 C 5.191406 -30.191406 5.5625 -31.191406 5.9375 -32.140625 C 6.3125 -33.097656 6.671875 -33.957031 7.015625 -34.71875 C 7.367188 -35.488281 7.679688 -36.113281 7.953125 -36.59375 C 8.222656 -37.082031 8.441406 -37.382812 8.609375 -37.5 C 8.921875 -37.707031 9.289062 -37.8125 9.71875 -37.8125 C 10.144531 -37.820312 10.566406 -37.75 10.984375 -37.59375 C 11.410156 -37.4375 11.785156 -37.207031 12.109375 -36.90625 C 12.429688 -36.613281 12.660156 -36.265625 12.796875 -35.859375 C 12.953125 -35.378906 12.992188 -34.957031 12.921875 -34.59375 C 12.847656 -34.238281 12.78125 -33.816406 12.71875 -33.328125 C 12.65625 -32.734375 12.578125 -32.144531 12.484375 -31.5625 C 12.390625 -30.988281 12.296875 -30.410156 12.203125 -29.828125 C 12.023438 -28.679688 11.875 -27.523438 11.75 -26.359375 C 11.625 -25.191406 11.609375 -24.03125 11.703125 -22.875 C 11.722656 -22.601562 11.753906 -22.328125 11.796875 -22.046875 C 11.847656 -21.765625 11.898438 -21.492188 11.953125 -21.234375 C 12.148438 -23.410156 12.519531 -25.578125 13.0625 -27.734375 C 13.601562 -29.898438 14.191406 -32 14.828125 -34.03125 C 14.929688 -34.363281 15.070312 -34.785156 15.25 -35.296875 C 15.425781 -35.816406 15.628906 -36.359375 15.859375 -36.921875 C 16.097656 -37.492188 16.375 -38.039062 16.6875 -38.5625 C 17 -39.082031 17.34375 -39.507812 17.71875 -39.84375 C 18 -40.101562 18.351562 -40.203125 18.78125 -40.140625 C 19.21875 -40.078125 19.65625 -39.90625 20.09375 -39.625 C 20.539062 -39.351562 20.925781 -39.03125 21.25 -38.65625 C 21.570312 -38.28125 21.757812 -37.910156 21.8125 -37.546875 C 21.863281 -36.503906 21.847656 -35.300781 21.765625 -33.9375 C 21.679688 -32.570312 21.554688 -31.113281 21.390625 -29.5625 C 21.234375 -28.007812 21.066406 -26.40625 20.890625 -24.75 C 20.710938 -23.101562 20.5625 -21.46875 20.4375 -19.84375 C 20.3125 -18.226562 20.242188 -16.675781 20.234375 -15.1875 C 20.234375 -13.695312 20.3125 -12.328125 20.46875 -11.078125 C 20.632812 -9.828125 20.921875 -8.75 21.328125 -7.84375 C 21.734375 -6.9375 22.285156 -6.269531 22.984375 -5.84375 C 23.117188 -5.78125 23.140625 -5.695312 23.046875 -5.59375 C 22.953125 -5.5 22.828125 -5.414062 22.671875 -5.34375 C 22.515625 -5.269531 22.40625 -5.226562 22.34375 -5.21875 C 21.394531 -5.082031 20.582031 -5.179688 19.90625 -5.515625 C 19.226562 -5.847656 18.671875 -6.34375 18.234375 -7 C 17.804688 -7.65625 17.476562 -8.410156 17.25 -9.265625 C 17.082031 -9.816406 16.972656 -10.578125 16.921875 -11.546875 C 16.867188 -12.523438 16.859375 -13.640625 16.890625 -14.890625 C 16.929688 -16.140625 17 -17.472656 17.09375 -18.890625 C 17.1875 -20.304688 17.296875 -21.742188 17.421875 -23.203125 C 17.554688 -24.671875 17.679688 -26.101562 17.796875 -27.5 C 17.921875 -28.90625 18.03125 -30.21875 18.125 -31.4375 C 18.226562 -32.65625 18.300781 -33.71875 18.34375 -34.625 C 18.382812 -35.539062 18.378906 -36.238281 18.328125 -36.71875 Z M 18.328125 -36.71875 "/></g></g></g><g fill="#ffffff" fill-opacity="1"><g transform="translate(105.619612, 63.499967)"><g><path d="M -0.546875 -27.890625 C -0.535156 -28.234375 -0.515625 -28.644531 -0.484375 -29.125 C -0.453125 -29.601562 -0.421875 -30.085938 -0.390625 -30.578125 C -0.367188 -31.066406 -0.359375 -31.472656 -0.359375 -31.796875 C -0.359375 -31.828125 -0.351562 -31.859375 -0.34375 -31.890625 C -0.332031 -31.929688 -0.328125 -31.96875 -0.328125 -32 C -0.671875 -32.007812 -0.976562 -32.066406 -1.25 -32.171875 C -1.519531 -32.285156 -1.65625 -32.46875 -1.65625 -32.71875 C -1.65625 -32.988281 -1.519531 -33.1875 -1.25 -33.3125 C -0.976562 -33.4375 -0.609375 -33.515625 -0.140625 -33.546875 C 0.316406 -33.578125 0.828125 -33.59375 1.390625 -33.59375 C 2.234375 -33.59375 2.941406 -33.519531 3.515625 -33.375 C 4.097656 -33.238281 4.398438 -33.019531 4.421875 -32.71875 C 4.429688 -32.5 4.34375 -32.335938 4.15625 -32.234375 C 3.96875 -32.128906 3.664062 -32.0625 3.25 -32.03125 C 3.25 -32.007812 3.25 -31.976562 3.25 -31.9375 C 3.25 -31.894531 3.25 -31.863281 3.25 -31.84375 C 3.257812 -31.488281 3.253906 -31.015625 3.234375 -30.421875 C 3.222656 -29.828125 3.203125 -29.203125 3.171875 -28.546875 C 3.140625 -27.890625 3.109375 -27.265625 3.078125 -26.671875 C 3.054688 -26.085938 3.039062 -25.625 3.03125 -25.28125 C 2.976562 -23.90625 2.914062 -22.519531 2.84375 -21.125 C 2.78125 -19.726562 2.863281 -18.351562 3.09375 -17 C 3.113281 -16.8125 3.160156 -16.546875 3.234375 -16.203125 C 3.304688 -15.859375 3.40625 -15.5 3.53125 -15.125 C 3.65625 -14.757812 3.8125 -14.441406 4 -14.171875 C 4.1875 -13.898438 4.40625 -13.765625 4.65625 -13.765625 C 5.09375 -13.753906 5.507812 -13.957031 5.90625 -14.375 C 6.300781 -14.800781 6.671875 -15.367188 7.015625 -16.078125 C 7.367188 -16.796875 7.691406 -17.578125 7.984375 -18.421875 C 8.273438 -19.273438 8.535156 -20.132812 8.765625 -21 C 9.003906 -21.875 9.203125 -22.675781 9.359375 -23.40625 C 9.515625 -24.144531 9.628906 -24.75 9.703125 -25.21875 C 9.734375 -25.363281 9.816406 -25.445312 9.953125 -25.46875 C 10.097656 -25.5 10.234375 -25.484375 10.359375 -25.421875 C 10.492188 -25.359375 10.550781 -25.257812 10.53125 -25.125 C 10.414062 -24.414062 10.265625 -23.601562 10.078125 -22.6875 C 9.898438 -21.78125 9.679688 -20.835938 9.421875 -19.859375 C 9.171875 -18.890625 8.863281 -17.9375 8.5 -17 C 8.144531 -16.070312 7.734375 -15.234375 7.265625 -14.484375 C 6.796875 -13.734375 6.257812 -13.132812 5.65625 -12.6875 C 5.0625 -12.25 4.378906 -12.03125 3.609375 -12.03125 C 2.859375 -12.03125 2.148438 -12.269531 1.484375 -12.75 C 0.835938 -13.25 0.347656 -13.867188 0.015625 -14.609375 C -0.304688 -15.347656 -0.519531 -16.144531 -0.625 -17 C -0.738281 -17.851562 -0.789062 -18.707031 -0.78125 -19.5625 C -0.78125 -20.425781 -0.769531 -21.21875 -0.75 -21.9375 C -0.71875 -22.925781 -0.679688 -23.914062 -0.640625 -24.90625 C -0.609375 -25.90625 -0.578125 -26.898438 -0.546875 -27.890625 Z M 4.6875 -36.875 C 4.675781 -36.488281 4.410156 -36.160156 3.890625 -35.890625 C 3.367188 -35.617188 2.742188 -35.492188 2.015625 -35.515625 C 1.273438 -35.523438 0.644531 -35.671875 0.125 -35.953125 C -0.382812 -36.234375 -0.632812 -36.566406 -0.625 -36.953125 C -0.625 -37.210938 -0.503906 -37.445312 -0.265625 -37.65625 C -0.0234375 -37.863281 0.296875 -38.03125 0.703125 -38.15625 C 1.117188 -38.28125 1.566406 -38.335938 2.046875 -38.328125 C 2.773438 -38.304688 3.394531 -38.148438 3.90625 -37.859375 C 4.425781 -37.578125 4.6875 -37.25 4.6875 -36.875 Z M 4.6875 -36.875 "/></g></g></g><g fill="#ffffff" fill-opacity="1"><g transform="translate(115.560053, 63.499967)"><g><path d="M 10.390625 -23.75 C 10.328125 -23.632812 10.164062 -23.550781 9.90625 -23.5 C 9.65625 -23.445312 9.378906 -23.429688 9.078125 -23.453125 C 8.785156 -23.472656 8.539062 -23.53125 8.34375 -23.625 C 8.144531 -23.71875 8.070312 -23.851562 8.125 -24.03125 C 8.28125 -24.582031 8.429688 -25.207031 8.578125 -25.90625 C 8.722656 -26.601562 8.8125 -27.316406 8.84375 -28.046875 C 8.882812 -28.785156 8.84375 -29.5 8.71875 -30.1875 C 8.59375 -30.882812 8.347656 -31.519531 7.984375 -32.09375 C 7.617188 -32.664062 7.09375 -33.128906 6.40625 -33.484375 C 6 -33.691406 5.675781 -33.773438 5.4375 -33.734375 C 5.195312 -33.703125 4.910156 -33.550781 4.578125 -33.28125 C 4.128906 -32.914062 3.742188 -32.460938 3.421875 -31.921875 C 3.097656 -31.378906 2.835938 -30.835938 2.640625 -30.296875 C 2.191406 -29.015625 2.101562 -27.726562 2.375 -26.4375 C 2.65625 -25.144531 3.234375 -23.988281 4.109375 -22.96875 C 4.503906 -22.5 4.945312 -22.082031 5.4375 -21.71875 C 5.925781 -21.363281 6.425781 -21.023438 6.9375 -20.703125 C 7.457031 -20.390625 7.960938 -20.0625 8.453125 -19.71875 C 8.941406 -19.382812 9.394531 -19 9.8125 -18.5625 C 10.34375 -18 10.695312 -17.390625 10.875 -16.734375 C 11.0625 -16.078125 11.046875 -15.4375 10.828125 -14.8125 C 10.617188 -14.195312 10.1875 -13.660156 9.53125 -13.203125 C 8.9375 -12.785156 8.273438 -12.484375 7.546875 -12.296875 C 6.816406 -12.109375 6.09375 -11.992188 5.375 -11.953125 C 4.21875 -11.898438 3.164062 -12.050781 2.21875 -12.40625 C 1.269531 -12.769531 0.5 -13.34375 -0.09375 -14.125 C -0.6875 -14.90625 -1.046875 -15.894531 -1.171875 -17.09375 C -1.203125 -17.351562 -1.097656 -17.5625 -0.859375 -17.71875 C -0.628906 -17.882812 -0.332031 -18 0.03125 -18.0625 C 0.40625 -18.132812 0.773438 -18.148438 1.140625 -18.109375 C 1.515625 -18.066406 1.832031 -17.96875 2.09375 -17.8125 C 2.363281 -17.65625 2.515625 -17.441406 2.546875 -17.171875 C 2.597656 -16.710938 2.703125 -16.234375 2.859375 -15.734375 C 3.015625 -15.242188 3.25 -14.820312 3.5625 -14.46875 C 3.882812 -14.125 4.316406 -13.925781 4.859375 -13.875 C 5.203125 -13.84375 5.546875 -13.890625 5.890625 -14.015625 C 6.242188 -14.140625 6.546875 -14.320312 6.796875 -14.5625 C 7.054688 -14.8125 7.222656 -15.125 7.296875 -15.5 C 7.367188 -15.875 7.300781 -16.296875 7.09375 -16.765625 C 6.925781 -17.160156 6.679688 -17.5 6.359375 -17.78125 C 6.035156 -18.070312 5.6875 -18.332031 5.3125 -18.5625 C 4.9375 -18.789062 4.570312 -19.015625 4.21875 -19.234375 C 3.726562 -19.546875 3.242188 -19.878906 2.765625 -20.234375 C 2.285156 -20.597656 1.835938 -20.984375 1.421875 -21.390625 C 0.609375 -22.191406 -0.0664062 -23.097656 -0.609375 -24.109375 C -1.148438 -25.128906 -1.445312 -26.226562 -1.5 -27.40625 C -1.539062 -28.34375 -1.425781 -29.265625 -1.15625 -30.171875 C -0.882812 -31.078125 -0.484375 -31.910156 0.046875 -32.671875 C 0.585938 -33.441406 1.222656 -34.085938 1.953125 -34.609375 C 2.691406 -35.128906 3.507812 -35.476562 4.40625 -35.65625 C 5.3125 -35.832031 6.257812 -35.789062 7.25 -35.53125 C 8.34375 -35.238281 9.226562 -34.773438 9.90625 -34.140625 C 10.59375 -33.515625 11.097656 -32.78125 11.421875 -31.9375 C 11.753906 -31.09375 11.921875 -30.191406 11.921875 -29.234375 C 11.929688 -28.285156 11.800781 -27.335938 11.53125 -26.390625 C 11.269531 -25.453125 10.890625 -24.570312 10.390625 -23.75 Z M 10.390625 -23.75 "/></g></g></g><g fill="#ffffff" fill-opacity="1"><g transform="translate(129.26965, 63.499967)"><g><path d="M 16.9375 -24.921875 C 16.945312 -24.960938 17.003906 -24.988281 17.109375 -25 C 17.210938 -25.007812 17.316406 -25.007812 17.421875 -25 C 17.535156 -25 17.59375 -24.976562 17.59375 -24.9375 C 17.664062 -23.582031 17.597656 -22.25 17.390625 -20.9375 C 17.179688 -19.632812 16.890625 -18.34375 16.515625 -17.0625 C 16.140625 -15.78125 15.738281 -14.488281 15.3125 -13.1875 C 15.113281 -12.582031 14.859375 -12.015625 14.546875 -11.484375 C 14.234375 -10.960938 13.859375 -10.535156 13.421875 -10.203125 C 12.992188 -9.867188 12.507812 -9.6875 11.96875 -9.65625 C 11.425781 -9.625 10.828125 -9.804688 10.171875 -10.203125 C 9.734375 -10.472656 9.394531 -10.828125 9.15625 -11.265625 C 8.925781 -11.703125 8.75 -12.171875 8.625 -12.671875 C 8.507812 -13.171875 8.410156 -13.65625 8.328125 -14.125 C 8.140625 -15.125 8.019531 -16.128906 7.96875 -17.140625 C 7.925781 -18.160156 7.921875 -19.179688 7.953125 -20.203125 C 7.960938 -20.523438 7.976562 -20.84375 8 -21.15625 C 8.019531 -21.476562 8.035156 -21.796875 8.046875 -22.109375 C 7.765625 -21.203125 7.503906 -20.3125 7.265625 -19.4375 C 7.035156 -18.5625 6.789062 -17.757812 6.53125 -17.03125 C 6.28125 -16.300781 5.972656 -15.6875 5.609375 -15.1875 C 5.253906 -14.6875 4.796875 -14.34375 4.234375 -14.15625 C 3.472656 -13.914062 2.804688 -13.878906 2.234375 -14.046875 C 1.660156 -14.222656 1.164062 -14.550781 0.75 -15.03125 C 0.34375 -15.507812 0.00390625 -16.070312 -0.265625 -16.71875 C -0.535156 -17.375 -0.75 -18.050781 -0.90625 -18.75 C -1.0625 -19.457031 -1.171875 -20.113281 -1.234375 -20.71875 C -1.347656 -21.75 -1.414062 -22.785156 -1.4375 -23.828125 C -1.46875 -24.878906 -1.476562 -25.921875 -1.46875 -26.953125 C -1.46875 -27.535156 -1.457031 -28.144531 -1.4375 -28.78125 C -1.425781 -29.414062 -1.398438 -30.023438 -1.359375 -30.609375 C -1.328125 -31.191406 -1.257812 -31.710938 -1.15625 -32.171875 C -1.050781 -32.628906 -0.898438 -32.972656 -0.703125 -33.203125 C -0.554688 -33.367188 -0.335938 -33.519531 -0.046875 -33.65625 C 0.242188 -33.800781 0.554688 -33.882812 0.890625 -33.90625 C 1.222656 -33.9375 1.503906 -33.882812 1.734375 -33.75 C 1.972656 -33.625 2.09375 -33.382812 2.09375 -33.03125 C 2.101562 -32.757812 2.109375 -32.359375 2.109375 -31.828125 C 2.109375 -31.296875 2.109375 -30.695312 2.109375 -30.03125 C 2.109375 -29.363281 2.109375 -28.671875 2.109375 -27.953125 C 2.117188 -27.234375 2.128906 -26.539062 2.140625 -25.875 C 2.148438 -25.21875 2.160156 -24.625 2.171875 -24.09375 C 2.179688 -23.5625 2.191406 -23.160156 2.203125 -22.890625 C 2.242188 -22.148438 2.3125 -21.40625 2.40625 -20.65625 C 2.5 -19.914062 2.628906 -19.179688 2.796875 -18.453125 C 2.796875 -18.453125 2.8125 -18.351562 2.84375 -18.15625 C 2.882812 -17.96875 2.953125 -17.734375 3.046875 -17.453125 C 3.140625 -17.179688 3.253906 -16.914062 3.390625 -16.65625 C 3.535156 -16.394531 3.707031 -16.195312 3.90625 -16.0625 C 4.113281 -15.9375 4.351562 -15.921875 4.625 -16.015625 C 4.8125 -16.078125 5.015625 -16.351562 5.234375 -16.84375 C 5.453125 -17.332031 5.679688 -17.972656 5.921875 -18.765625 C 6.171875 -19.566406 6.414062 -20.445312 6.65625 -21.40625 C 6.894531 -22.375 7.125 -23.375 7.34375 -24.40625 C 7.5625 -25.4375 7.753906 -26.4375 7.921875 -27.40625 C 8.097656 -28.382812 8.238281 -29.273438 8.34375 -30.078125 C 8.445312 -30.890625 8.5 -31.539062 8.5 -32.03125 C 8.5 -32.125 8.5 -32.207031 8.5 -32.28125 C 8.5 -32.363281 8.492188 -32.453125 8.484375 -32.546875 C 8.453125 -32.785156 8.550781 -33.003906 8.78125 -33.203125 C 9.007812 -33.398438 9.296875 -33.550781 9.640625 -33.65625 C 9.992188 -33.769531 10.347656 -33.832031 10.703125 -33.84375 C 11.066406 -33.863281 11.375 -33.816406 11.625 -33.703125 C 11.882812 -33.585938 12.019531 -33.398438 12.03125 -33.140625 C 12.113281 -31.609375 12.101562 -30.046875 12 -28.453125 C 11.90625 -26.867188 11.800781 -25.269531 11.6875 -23.65625 C 11.582031 -22.050781 11.53125 -20.453125 11.53125 -18.859375 C 11.539062 -17.273438 11.675781 -15.722656 11.9375 -14.203125 C 12 -13.859375 12.0625 -13.515625 12.125 -13.171875 C 12.195312 -12.828125 12.296875 -12.5 12.421875 -12.1875 C 12.515625 -11.9375 12.644531 -11.691406 12.8125 -11.453125 C 12.820312 -11.429688 12.828125 -11.414062 12.828125 -11.40625 C 13.242188 -12.03125 13.585938 -12.648438 13.859375 -13.265625 C 14.140625 -13.890625 14.394531 -14.5625 14.625 -15.28125 C 15.132812 -16.84375 15.601562 -18.429688 16.03125 -20.046875 C 16.46875 -21.671875 16.769531 -23.296875 16.9375 -24.921875 Z M 7.046875 -42.59375 C 7.046875 -42.59375 6.992188 -42.46875 6.890625 -42.21875 C 6.785156 -41.976562 6.648438 -41.664062 6.484375 -41.28125 C 6.316406 -40.894531 6.132812 -40.484375 5.9375 -40.046875 C 5.738281 -39.609375 5.554688 -39.195312 5.390625 -38.8125 C 5.222656 -38.4375 5.085938 -38.125 4.984375 -37.875 C 4.878906 -37.625 4.828125 -37.5 4.828125 -37.5 C 4.828125 -37.351562 4.757812 -37.273438 4.625 -37.265625 C 4.488281 -37.265625 4.347656 -37.316406 4.203125 -37.421875 C 4.054688 -37.523438 3.976562 -37.648438 3.96875 -37.796875 C 3.914062 -38.566406 3.945312 -39.328125 4.0625 -40.078125 C 4.175781 -40.835938 4.34375 -41.519531 4.5625 -42.125 C 4.789062 -42.726562 5.046875 -43.203125 5.328125 -43.546875 C 5.617188 -43.890625 5.914062 -44.03125 6.21875 -43.96875 C 6.457031 -43.914062 6.671875 -43.8125 6.859375 -43.65625 C 7.054688 -43.507812 7.195312 -43.347656 7.28125 -43.171875 C 7.375 -42.992188 7.40625 -42.847656 7.375 -42.734375 C 7.351562 -42.617188 7.242188 -42.570312 7.046875 -42.59375 Z M 7.046875 -42.59375 "/></g></g></g></svg>