<svg xmlns="http://www.w3.org/2000/svg" xmlns:xlink="http://www.w3.org/1999/xlink" width="1000" zoomAndPan="magnify" viewBox="0 0 750 74.999997" height="100" preserveAspectRatio="xMidYMid meet" version="1.0"><defs><g/></defs><g fill="#ffffff" fill-opacity="1"><g transform="translate(8.871108, 63.499966)"><g><path d="M 45.6875 -5.90625 C 45.832031 -6.144531 46 -6.296875 46.1875 -6.359375 C 46.382812 -6.421875 46.570312 -6.40625 46.75 -6.3125 C 46.925781 -6.226562 47.054688 -6.09375 47.140625 -5.90625 C 47.234375 -5.726562 47.242188 -5.519531 47.171875 -5.28125 C 46.878906 -4.25 46.394531 -3.398438 45.71875 -2.734375 C 45.039062 -2.066406 44.257812 -1.570312 43.375 -1.25 C 42.488281 -0.9375 41.578125 -0.796875 40.640625 -0.828125 C 39.703125 -0.859375 38.828125 -1.066406 38.015625 -1.453125 C 37.003906 -1.898438 36.144531 -2.5 35.4375 -3.25 C 34.726562 -4 34.132812 -4.835938 33.65625 -5.765625 C 33.175781 -6.703125 32.765625 -7.675781 32.421875 -8.6875 C 32.085938 -9.695312 31.78125 -10.695312 31.5 -11.6875 C 30.84375 -14.132812 30.320312 -16.613281 29.9375 -19.125 C 29.550781 -21.632812 29.273438 -24.15625 29.109375 -26.6875 C 29.109375 -26.707031 29.109375 -26.726562 29.109375 -26.75 C 29.109375 -26.769531 29.109375 -26.785156 29.109375 -26.796875 C 28.484375 -26.679688 27.875 -26.582031 27.28125 -26.5 C 26.445312 -26.382812 25.609375 -26.273438 24.765625 -26.171875 C 23.929688 -26.066406 23.097656 -25.929688 22.265625 -25.765625 C 21.265625 -23.210938 20.140625 -20.710938 18.890625 -18.265625 C 17.640625 -15.828125 16.207031 -13.507812 14.59375 -11.3125 C 14.132812 -10.6875 13.644531 -10.050781 13.125 -9.40625 C 12.601562 -8.757812 12.046875 -8.15625 11.453125 -7.59375 C 10.859375 -7.039062 10.207031 -6.570312 9.5 -6.1875 C 8.800781 -5.8125 8.046875 -5.570312 7.234375 -5.46875 C 6.117188 -5.34375 5.128906 -5.457031 4.265625 -5.8125 C 3.410156 -6.164062 2.707031 -6.722656 2.15625 -7.484375 C 1.601562 -8.253906 1.222656 -9.164062 1.015625 -10.21875 C 0.691406 -11.925781 0.625 -13.671875 0.8125 -15.453125 C 1 -17.242188 1.328125 -18.960938 1.796875 -20.609375 C 2.015625 -21.390625 2.28125 -22.195312 2.59375 -23.03125 C 2.90625 -23.875 3.269531 -24.707031 3.6875 -25.53125 C 4.101562 -26.351562 4.578125 -27.117188 5.109375 -27.828125 C 5.640625 -28.535156 6.226562 -29.148438 6.875 -29.671875 C 7.40625 -30.085938 8.015625 -30.398438 8.703125 -30.609375 C 9.398438 -30.816406 10.101562 -30.894531 10.8125 -30.84375 C 11.519531 -30.789062 12.171875 -30.585938 12.765625 -30.234375 C 13.359375 -29.878906 13.816406 -29.359375 14.140625 -28.671875 C 14.398438 -28.109375 14.554688 -27.515625 14.609375 -26.890625 C 14.671875 -26.265625 14.660156 -25.640625 14.578125 -25.015625 C 14.628906 -25.046875 14.675781 -25.078125 14.71875 -25.109375 C 14.757812 -25.148438 14.804688 -25.191406 14.859375 -25.234375 C 15.742188 -25.847656 16.691406 -26.328125 17.703125 -26.671875 C 18.722656 -27.023438 19.765625 -27.304688 20.828125 -27.515625 C 21.679688 -29.742188 22.5 -31.992188 23.28125 -34.265625 C 24.0625 -36.535156 24.789062 -38.753906 25.46875 -40.921875 C 26.144531 -43.097656 26.765625 -45.140625 27.328125 -47.046875 C 27.890625 -48.960938 28.378906 -50.679688 28.796875 -52.203125 C 29.210938 -53.734375 29.550781 -54.984375 29.8125 -55.953125 C 30.082031 -56.929688 30.253906 -57.554688 30.328125 -57.828125 C 30.398438 -58.035156 30.566406 -58.203125 30.828125 -58.328125 C 31.085938 -58.453125 31.390625 -58.53125 31.734375 -58.5625 C 32.078125 -58.59375 32.414062 -58.582031 32.75 -58.53125 C 33.09375 -58.476562 33.367188 -58.378906 33.578125 -58.234375 C 33.796875 -58.097656 33.898438 -57.90625 33.890625 -57.65625 C 33.753906 -54.882812 33.550781 -52.109375 33.28125 -49.328125 C 33.007812 -46.554688 32.816406 -43.785156 32.703125 -41.015625 C 32.617188 -39.191406 32.566406 -37.367188 32.546875 -35.546875 C 32.523438 -33.722656 32.550781 -31.898438 32.625 -30.078125 C 33.726562 -30.628906 34.664062 -31.363281 35.4375 -32.28125 C 36.21875 -33.207031 36.710938 -34.421875 36.921875 -35.921875 C 36.953125 -36.191406 36.972656 -36.503906 36.984375 -36.859375 C 36.992188 -37.210938 37.019531 -37.554688 37.0625 -37.890625 C 37.101562 -38.234375 37.1875 -38.535156 37.3125 -38.796875 C 37.4375 -39.066406 37.628906 -39.253906 37.890625 -39.359375 C 38.160156 -39.472656 38.523438 -39.472656 38.984375 -39.359375 C 39.597656 -39.203125 40.03125 -38.898438 40.28125 -38.453125 C 40.539062 -38.015625 40.671875 -37.507812 40.671875 -36.9375 C 40.679688 -36.375 40.613281 -35.800781 40.46875 -35.21875 C 40.320312 -34.644531 40.164062 -34.144531 40 -33.71875 C 39.570312 -32.632812 38.984375 -31.703125 38.234375 -30.921875 C 37.492188 -30.148438 36.648438 -29.5 35.703125 -28.96875 C 34.765625 -28.445312 33.769531 -28.015625 32.71875 -27.671875 C 32.738281 -27.191406 32.769531 -26.707031 32.8125 -26.21875 C 32.851562 -25.726562 32.894531 -25.238281 32.9375 -24.75 C 33.175781 -22.050781 33.535156 -19.335938 34.015625 -16.609375 C 34.503906 -13.878906 35.210938 -11.238281 36.140625 -8.6875 C 36.398438 -7.976562 36.707031 -7.257812 37.0625 -6.53125 C 37.414062 -5.8125 37.847656 -5.144531 38.359375 -4.53125 C 38.878906 -3.914062 39.492188 -3.421875 40.203125 -3.046875 C 40.773438 -2.742188 41.328125 -2.628906 41.859375 -2.703125 C 42.398438 -2.773438 42.910156 -2.96875 43.390625 -3.28125 C 43.878906 -3.601562 44.316406 -4 44.703125 -4.46875 C 45.097656 -4.9375 45.425781 -5.414062 45.6875 -5.90625 Z M 7.046875 -7.484375 C 7.929688 -7.546875 8.820312 -7.890625 9.71875 -8.515625 C 10.613281 -9.148438 11.5 -10.015625 12.375 -11.109375 C 13.25 -12.203125 14.113281 -13.476562 14.96875 -14.9375 C 15.820312 -16.394531 16.660156 -17.988281 17.484375 -19.71875 C 18.316406 -21.445312 19.117188 -23.253906 19.890625 -25.140625 C 19.640625 -25.054688 19.394531 -24.96875 19.15625 -24.875 C 18.925781 -24.789062 18.691406 -24.695312 18.453125 -24.59375 C 17.203125 -24.03125 16.128906 -23.363281 15.234375 -22.59375 C 14.347656 -21.832031 13.488281 -20.941406 12.65625 -19.921875 C 12.382812 -19.484375 12.171875 -19.210938 12.015625 -19.109375 C 11.953125 -18.984375 11.816406 -18.894531 11.609375 -18.84375 C 11.410156 -18.789062 11.195312 -18.769531 10.96875 -18.78125 C 10.738281 -18.800781 10.554688 -18.851562 10.421875 -18.9375 C 10.296875 -19.019531 10.265625 -19.144531 10.328125 -19.3125 C 10.378906 -19.445312 10.484375 -19.722656 10.640625 -20.140625 C 10.796875 -20.566406 10.972656 -21.082031 11.171875 -21.6875 C 11.378906 -22.289062 11.570312 -22.929688 11.75 -23.609375 C 11.925781 -24.285156 12.054688 -24.945312 12.140625 -25.59375 C 12.234375 -26.238281 12.253906 -26.8125 12.203125 -27.3125 C 12.148438 -27.8125 11.988281 -28.1875 11.71875 -28.4375 C 11.445312 -28.695312 11.035156 -28.769531 10.484375 -28.65625 C 10.148438 -28.59375 9.828125 -28.421875 9.515625 -28.140625 C 9.203125 -27.867188 8.910156 -27.550781 8.640625 -27.1875 C 8.378906 -26.832031 8.148438 -26.5 7.953125 -26.1875 C 7.765625 -25.875 7.628906 -25.640625 7.546875 -25.484375 C 7.160156 -24.804688 6.8125 -24.109375 6.5 -23.390625 C 6.1875 -22.671875 5.898438 -21.929688 5.640625 -21.171875 C 4.734375 -18.398438 4.335938 -15.5625 4.453125 -12.65625 C 4.484375 -11.976562 4.539062 -11.296875 4.625 -10.609375 C 4.71875 -9.929688 4.921875 -9.285156 5.234375 -8.671875 C 5.472656 -8.203125 5.753906 -7.882812 6.078125 -7.71875 C 6.398438 -7.550781 6.722656 -7.472656 7.046875 -7.484375 Z M 29.078125 -42.109375 C 29.160156 -44.015625 29.257812 -45.90625 29.375 -47.78125 C 29.164062 -47.15625 28.960938 -46.53125 28.765625 -45.90625 C 28.578125 -45.28125 28.390625 -44.644531 28.203125 -44 C 27.566406 -41.84375 26.925781 -39.679688 26.28125 -37.515625 C 25.644531 -35.359375 24.957031 -33.210938 24.21875 -31.078125 C 24.050781 -30.554688 23.867188 -30.03125 23.671875 -29.5 C 23.472656 -28.976562 23.28125 -28.445312 23.09375 -27.90625 C 23.144531 -27.925781 23.1875 -27.9375 23.21875 -27.9375 C 23.257812 -27.945312 23.300781 -27.953125 23.34375 -27.953125 C 24.226562 -28.078125 25.148438 -28.207031 26.109375 -28.34375 C 27.078125 -28.488281 28.035156 -28.664062 28.984375 -28.875 C 28.890625 -31.082031 28.851562 -33.289062 28.875 -35.5 C 28.894531 -37.707031 28.960938 -39.910156 29.078125 -42.109375 Z M 29.078125 -42.109375 "/></g></g></g><g fill="#ffffff" fill-opacity="1"><g transform="translate(51.679424, 63.499966)"><g><path d="M 9.265625 -25.09375 C 8.660156 -24.5 8.054688 -24.109375 7.453125 -23.921875 C 6.847656 -23.742188 6.210938 -23.875 5.546875 -24.3125 C 5.265625 -24.507812 5.0625 -24.765625 4.9375 -25.078125 C 4.8125 -25.390625 4.757812 -25.703125 4.78125 -26.015625 C 4.8125 -26.328125 4.898438 -26.582031 5.046875 -26.78125 C 5.097656 -26.820312 5.210938 -26.847656 5.390625 -26.859375 C 5.578125 -26.867188 5.765625 -26.859375 5.953125 -26.828125 C 6.148438 -26.804688 6.300781 -26.765625 6.40625 -26.703125 C 6.519531 -26.640625 6.535156 -26.535156 6.453125 -26.390625 C 6.347656 -26.234375 6.296875 -26.054688 6.296875 -25.859375 C 6.304688 -25.660156 6.375 -25.492188 6.5 -25.359375 C 6.625 -25.222656 6.800781 -25.15625 7.03125 -25.15625 C 7.269531 -25.164062 7.484375 -25.320312 7.671875 -25.625 C 7.859375 -25.925781 8.019531 -26.316406 8.15625 -26.796875 C 8.300781 -27.273438 8.414062 -27.785156 8.5 -28.328125 C 8.59375 -28.878906 8.640625 -29.40625 8.640625 -29.90625 C 8.640625 -30.414062 8.59375 -30.84375 8.5 -31.1875 C 8.414062 -31.53125 8.285156 -31.734375 8.109375 -31.796875 C 7.691406 -31.953125 7.257812 -31.882812 6.8125 -31.59375 C 6.363281 -31.300781 5.925781 -30.828125 5.5 -30.171875 C 5.070312 -29.523438 4.671875 -28.726562 4.296875 -27.78125 C 3.929688 -26.84375 3.613281 -25.796875 3.34375 -24.640625 C 3.070312 -23.484375 2.867188 -22.269531 2.734375 -21 C 2.503906 -19.695312 2.390625 -18.320312 2.390625 -16.875 C 2.398438 -15.425781 2.398438 -14.023438 2.390625 -12.671875 C 2.390625 -12.617188 2.390625 -12.5625 2.390625 -12.5 C 2.398438 -12.4375 2.40625 -12.378906 2.40625 -12.328125 L 2.390625 -12.328125 C 2.390625 -12.234375 2.382812 -12.140625 2.375 -12.046875 C 2.363281 -11.960938 2.359375 -11.875 2.359375 -11.78125 C 2.347656 -11.519531 2.222656 -11.320312 1.984375 -11.1875 C 1.753906 -11.0625 1.460938 -10.992188 1.109375 -10.984375 C 0.765625 -10.984375 0.414062 -11.035156 0.0625 -11.140625 C -0.289062 -11.242188 -0.585938 -11.390625 -0.828125 -11.578125 C -1.066406 -11.765625 -1.195312 -11.988281 -1.21875 -12.25 C -1.300781 -14.1875 -1.378906 -16.117188 -1.453125 -18.046875 C -1.535156 -19.972656 -1.585938 -21.898438 -1.609375 -23.828125 C -1.609375 -24.796875 -1.59375 -25.765625 -1.5625 -26.734375 C -1.539062 -27.703125 -1.503906 -28.660156 -1.453125 -29.609375 C -1.410156 -30.191406 -1.351562 -30.804688 -1.28125 -31.453125 C -1.21875 -32.097656 -1.117188 -32.707031 -0.984375 -33.28125 C -0.859375 -33.851562 -0.691406 -34.316406 -0.484375 -34.671875 C -0.378906 -34.847656 -0.195312 -34.992188 0.0625 -35.109375 C 0.320312 -35.222656 0.601562 -35.296875 0.90625 -35.328125 C 1.21875 -35.359375 1.507812 -35.34375 1.78125 -35.28125 C 2.0625 -35.226562 2.285156 -35.125 2.453125 -34.96875 C 2.617188 -34.820312 2.675781 -34.625 2.625 -34.375 C 2.425781 -33.375 2.3125 -32.460938 2.28125 -31.640625 C 2.25 -30.816406 2.207031 -29.957031 2.15625 -29.0625 C 2.132812 -28.550781 2.113281 -28.035156 2.09375 -27.515625 C 2.082031 -26.992188 2.066406 -26.472656 2.046875 -25.953125 C 2.117188 -26.148438 2.1875 -26.34375 2.25 -26.53125 C 2.320312 -26.71875 2.398438 -26.910156 2.484375 -27.109375 C 2.816406 -27.972656 3.175781 -28.847656 3.5625 -29.734375 C 3.957031 -30.617188 4.398438 -31.429688 4.890625 -32.171875 C 5.390625 -32.910156 5.945312 -33.5 6.5625 -33.9375 C 7.1875 -34.375 7.894531 -34.570312 8.6875 -34.53125 C 9.226562 -34.507812 9.664062 -34.3125 10 -33.9375 C 10.34375 -33.5625 10.59375 -33.082031 10.75 -32.5 C 10.914062 -31.914062 11 -31.273438 11 -30.578125 C 11.007812 -29.878906 10.945312 -29.175781 10.8125 -28.46875 C 10.675781 -27.769531 10.476562 -27.125 10.21875 -26.53125 C 9.957031 -25.9375 9.640625 -25.457031 9.265625 -25.09375 Z M 9.265625 -25.09375 "/></g></g></g><g fill="#ffffff" fill-opacity="1"><g transform="translate(64.607848, 63.499966)"><g><path d="M 9.265625 -25.09375 C 8.660156 -24.5 8.054688 -24.109375 7.453125 -23.921875 C 6.847656 -23.742188 6.210938 -23.875 5.546875 -24.3125 C 5.265625 -24.507812 5.0625 -24.765625 4.9375 -25.078125 C 4.8125 -25.390625 4.757812 -25.703125 4.78125 -26.015625 C 4.8125 -26.328125 4.898438 -26.582031 5.046875 -26.78125 C 5.097656 -26.820312 5.210938 -26.847656 5.390625 -26.859375 C 5.578125 -26.867188 5.765625 -26.859375 5.953125 -26.828125 C 6.148438 -26.804688 6.300781 -26.765625 6.40625 -26.703125 C 6.519531 -26.640625 6.535156 -26.535156 6.453125 -26.390625 C 6.347656 -26.234375 6.296875 -26.054688 6.296875 -25.859375 C 6.304688 -25.660156 6.375 -25.492188 6.5 -25.359375 C 6.625 -25.222656 6.800781 -25.15625 7.03125 -25.15625 C 7.269531 -25.164062 7.484375 -25.320312 7.671875 -25.625 C 7.859375 -25.925781 8.019531 -26.316406 8.15625 -26.796875 C 8.300781 -27.273438 8.414062 -27.785156 8.5 -28.328125 C 8.59375 -28.878906 8.640625 -29.40625 8.640625 -29.90625 C 8.640625 -30.414062 8.59375 -30.84375 8.5 -31.1875 C 8.414062 -31.53125 8.285156 -31.734375 8.109375 -31.796875 C 7.691406 -31.953125 7.257812 -31.882812 6.8125 -31.59375 C 6.363281 -31.300781 5.925781 -30.828125 5.5 -30.171875 C 5.070312 -29.523438 4.671875 -28.726562 4.296875 -27.78125 C 3.929688 -26.84375 3.613281 -25.796875 3.34375 -24.640625 C 3.070312 -23.484375 2.867188 -22.269531 2.734375 -21 C 2.503906 -19.695312 2.390625 -18.320312 2.390625 -16.875 C 2.398438 -15.425781 2.398438 -14.023438 2.390625 -12.671875 C 2.390625 -12.617188 2.390625 -12.5625 2.390625 -12.5 C 2.398438 -12.4375 2.40625 -12.378906 2.40625 -12.328125 L 2.390625 -12.328125 C 2.390625 -12.234375 2.382812 -12.140625 2.375 -12.046875 C 2.363281 -11.960938 2.359375 -11.875 2.359375 -11.78125 C 2.347656 -11.519531 2.222656 -11.320312 1.984375 -11.1875 C 1.753906 -11.0625 1.460938 -10.992188 1.109375 -10.984375 C 0.765625 -10.984375 0.414062 -11.035156 0.0625 -11.140625 C -0.289062 -11.242188 -0.585938 -11.390625 -0.828125 -11.578125 C -1.066406 -11.765625 -1.195312 -11.988281 -1.21875 -12.25 C -1.300781 -14.1875 -1.378906 -16.117188 -1.453125 -18.046875 C -1.535156 -19.972656 -1.585938 -21.898438 -1.609375 -23.828125 C -1.609375 -24.796875 -1.59375 -25.765625 -1.5625 -26.734375 C -1.539062 -27.703125 -1.503906 -28.660156 -1.453125 -29.609375 C -1.410156 -30.191406 -1.351562 -30.804688 -1.28125 -31.453125 C -1.21875 -32.097656 -1.117188 -32.707031 -0.984375 -33.28125 C -0.859375 -33.851562 -0.691406 -34.316406 -0.484375 -34.671875 C -0.378906 -34.847656 -0.195312 -34.992188 0.0625 -35.109375 C 0.320312 -35.222656 0.601562 -35.296875 0.90625 -35.328125 C 1.21875 -35.359375 1.507812 -35.34375 1.78125 -35.28125 C 2.0625 -35.226562 2.285156 -35.125 2.453125 -34.96875 C 2.617188 -34.820312 2.675781 -34.625 2.625 -34.375 C 2.425781 -33.375 2.3125 -32.460938 2.28125 -31.640625 C 2.25 -30.816406 2.207031 -29.957031 2.15625 -29.0625 C 2.132812 -28.550781 2.113281 -28.035156 2.09375 -27.515625 C 2.082031 -26.992188 2.066406 -26.472656 2.046875 -25.953125 C 2.117188 -26.148438 2.1875 -26.34375 2.25 -26.53125 C 2.320312 -26.71875 2.398438 -26.910156 2.484375 -27.109375 C 2.816406 -27.972656 3.175781 -28.847656 3.5625 -29.734375 C 3.957031 -30.617188 4.398438 -31.429688 4.890625 -32.171875 C 5.390625 -32.910156 5.945312 -33.5 6.5625 -33.9375 C 7.1875 -34.375 7.894531 -34.570312 8.6875 -34.53125 C 9.226562 -34.507812 9.664062 -34.3125 10 -33.9375 C 10.34375 -33.5625 10.59375 -33.082031 10.75 -32.5 C 10.914062 -31.914062 11 -31.273438 11 -30.578125 C 11.007812 -29.878906 10.945312 -29.175781 10.8125 -28.46875 C 10.675781 -27.769531 10.476562 -27.125 10.21875 -26.53125 C 9.957031 -25.9375 9.640625 -25.457031 9.265625 -25.09375 Z M 9.265625 -25.09375 "/></g></g></g><g fill="#ffffff" fill-opacity="1"><g transform="translate(77.536272, 63.499966)"><g><path d="M 14.109375 -26.5625 C 14.171875 -26.695312 14.269531 -26.773438 14.40625 -26.796875 C 14.550781 -26.828125 14.671875 -26.800781 14.765625 -26.71875 C 14.867188 -26.644531 14.890625 -26.519531 14.828125 -26.34375 C 14.660156 -25.09375 14.171875 -24.0625 13.359375 -23.25 C 12.554688 -22.4375 11.457031 -21.757812 10.0625 -21.21875 C 9.90625 -20.132812 9.679688 -19.0625 9.390625 -18 C 9.109375 -16.945312 8.757812 -15.984375 8.34375 -15.109375 C 7.925781 -14.234375 7.4375 -13.523438 6.875 -12.984375 C 6.3125 -12.441406 5.675781 -12.148438 4.96875 -12.109375 C 4.15625 -12.054688 3.445312 -12.1875 2.84375 -12.5 C 2.238281 -12.820312 1.71875 -13.269531 1.28125 -13.84375 C 0.851562 -14.414062 0.492188 -15.070312 0.203125 -15.8125 C -0.078125 -16.5625 -0.296875 -17.332031 -0.453125 -18.125 C -0.617188 -18.914062 -0.742188 -19.6875 -0.828125 -20.4375 C -0.910156 -21.1875 -0.960938 -21.867188 -0.984375 -22.484375 C -1.003906 -23.097656 -1.007812 -23.578125 -1 -23.921875 C -1 -24.078125 -0.984375 -24.222656 -0.953125 -24.359375 C -0.929688 -24.503906 -0.898438 -24.628906 -0.859375 -24.734375 C -1.097656 -25.628906 -1.160156 -26.5625 -1.046875 -27.53125 C -0.929688 -28.507812 -0.671875 -29.460938 -0.265625 -30.390625 C 0.128906 -31.316406 0.648438 -32.144531 1.296875 -32.875 C 1.921875 -33.570312 2.585938 -34.035156 3.296875 -34.265625 C 4.015625 -34.503906 4.71875 -34.539062 5.40625 -34.375 C 6.101562 -34.21875 6.71875 -33.90625 7.25 -33.4375 C 8.519531 -32.320312 9.394531 -30.921875 9.875 -29.234375 C 10.363281 -27.546875 10.5 -25.5 10.28125 -23.09375 C 10.28125 -23.007812 10.273438 -22.925781 10.265625 -22.84375 C 10.253906 -22.757812 10.242188 -22.671875 10.234375 -22.578125 C 10.910156 -22.796875 11.546875 -23.082031 12.140625 -23.4375 C 12.734375 -23.789062 13.210938 -24.226562 13.578125 -24.75 C 13.941406 -25.269531 14.117188 -25.875 14.109375 -26.5625 Z M 2.03125 -29.890625 C 1.957031 -29.609375 1.863281 -29.21875 1.75 -28.71875 C 1.632812 -28.226562 1.550781 -27.691406 1.5 -27.109375 C 1.445312 -26.523438 1.457031 -25.953125 1.53125 -25.390625 C 1.738281 -25.265625 1.898438 -25.113281 2.015625 -24.9375 C 2.140625 -24.757812 2.210938 -24.5625 2.234375 -24.34375 C 2.234375 -24.257812 2.234375 -24.148438 2.234375 -24.015625 C 2.234375 -23.890625 2.234375 -23.738281 2.234375 -23.5625 C 2.253906 -23.539062 2.269531 -23.519531 2.28125 -23.5 C 2.300781 -23.488281 2.316406 -23.46875 2.328125 -23.4375 C 2.753906 -22.96875 3.410156 -22.609375 4.296875 -22.359375 C 5.179688 -22.117188 6.160156 -22.015625 7.234375 -22.046875 C 7.304688 -22.773438 7.34375 -23.390625 7.34375 -23.890625 C 7.375 -24.710938 7.378906 -25.578125 7.359375 -26.484375 C 7.347656 -27.398438 7.273438 -28.300781 7.140625 -29.1875 C 7.003906 -30.070312 6.75 -30.882812 6.375 -31.625 C 5.988281 -32.394531 5.59375 -32.878906 5.1875 -33.078125 C 4.78125 -33.273438 4.378906 -33.253906 3.984375 -33.015625 C 3.597656 -32.785156 3.234375 -32.390625 2.890625 -31.828125 C 2.554688 -31.273438 2.269531 -30.628906 2.03125 -29.890625 Z M 4.828125 -14.3125 C 5.128906 -14.34375 5.394531 -14.535156 5.625 -14.890625 C 5.863281 -15.253906 6.070312 -15.726562 6.25 -16.3125 C 6.4375 -16.90625 6.59375 -17.554688 6.71875 -18.265625 C 6.851562 -18.984375 6.960938 -19.691406 7.046875 -20.390625 C 6.203125 -20.265625 5.378906 -20.234375 4.578125 -20.296875 C 3.773438 -20.359375 3.050781 -20.535156 2.40625 -20.828125 C 2.46875 -20.078125 2.554688 -19.316406 2.671875 -18.546875 C 2.796875 -17.785156 2.953125 -17.078125 3.140625 -16.421875 C 3.328125 -15.773438 3.554688 -15.253906 3.828125 -14.859375 C 4.097656 -14.472656 4.429688 -14.289062 4.828125 -14.3125 Z M 4.828125 -14.3125 "/></g></g></g><g fill="#ffffff" fill-opacity="1"><g transform="translate(91.460698, 63.499966)"><g><path d="M 19.140625 -25.796875 C 18.503906 -24.015625 17.75 -22.328125 16.875 -20.734375 C 16 -19.140625 15.054688 -17.59375 14.046875 -16.09375 C 14.097656 -16 14.148438 -15.90625 14.203125 -15.8125 C 14.253906 -15.726562 14.304688 -15.632812 14.359375 -15.53125 C 14.734375 -14.8125 14.976562 -14.050781 15.09375 -13.25 C 15.21875 -12.445312 15.253906 -11.632812 15.203125 -10.8125 C 15.148438 -9.988281 15.046875 -9.164062 14.890625 -8.34375 C 14.734375 -7.53125 14.5625 -6.753906 14.375 -6.015625 C 13.96875 -4.328125 13.429688 -2.648438 12.765625 -0.984375 C 12.109375 0.671875 11.316406 2.203125 10.390625 3.609375 C 9.554688 4.859375 8.585938 6.015625 7.484375 7.078125 C 6.390625 8.148438 5.1875 8.96875 3.875 9.53125 C 3.4375 9.695312 2.976562 9.820312 2.5 9.90625 C 2.019531 10 1.554688 10 1.109375 9.90625 C 0.671875 9.820312 0.296875 9.617188 -0.015625 9.296875 C -0.328125 8.972656 -0.523438 8.484375 -0.609375 7.828125 C -0.703125 7.140625 -0.648438 6.457031 -0.453125 5.78125 C -0.253906 5.101562 -0.0351562 4.457031 0.203125 3.84375 C 0.492188 2.988281 0.835938 2.148438 1.234375 1.328125 C 1.640625 0.503906 2.050781 -0.300781 2.46875 -1.09375 C 3.269531 -2.5625 4.125 -3.992188 5.03125 -5.390625 C 5.9375 -6.785156 6.882812 -8.15625 7.875 -9.5 C 8.488281 -10.3125 9.097656 -11.125 9.703125 -11.9375 C 10.316406 -12.757812 10.925781 -13.578125 11.53125 -14.390625 C 11.320312 -14.929688 11.046875 -15.410156 10.703125 -15.828125 C 10.222656 -16.429688 9.738281 -16.726562 9.25 -16.71875 C 8.769531 -16.707031 8.242188 -16.488281 7.671875 -16.0625 C 7.203125 -15.707031 6.773438 -15.335938 6.390625 -14.953125 C 6.015625 -14.566406 5.632812 -14.179688 5.25 -13.796875 C 4.925781 -13.148438 4.5625 -12.523438 4.15625 -11.921875 C 3.757812 -11.328125 3.285156 -10.890625 2.734375 -10.609375 C 2.585938 -10.546875 2.375 -10.488281 2.09375 -10.4375 C 1.820312 -10.382812 1.554688 -10.382812 1.296875 -10.4375 C 1.035156 -10.488281 0.859375 -10.632812 0.765625 -10.875 C 0.628906 -11.28125 0.632812 -11.664062 0.78125 -12.03125 C 0.925781 -12.394531 1.117188 -12.742188 1.359375 -13.078125 C 1.597656 -13.421875 1.8125 -13.753906 2 -14.078125 C 2.363281 -14.703125 2.71875 -15.335938 3.0625 -15.984375 C 3.40625 -16.628906 3.726562 -17.28125 4.03125 -17.9375 C 4.675781 -19.289062 5.226562 -20.695312 5.6875 -22.15625 C 6.15625 -23.613281 6.453125 -25.109375 6.578125 -26.640625 C 6.648438 -27.359375 6.675781 -28.09375 6.65625 -28.84375 C 6.632812 -29.59375 6.546875 -30.304688 6.390625 -30.984375 C 6.359375 -31.097656 6.296875 -31.257812 6.203125 -31.46875 C 6.117188 -31.6875 6.007812 -31.875 5.875 -32.03125 C 5.738281 -32.195312 5.578125 -32.25 5.390625 -32.1875 C 5.140625 -32.132812 4.863281 -31.976562 4.5625 -31.71875 C 4.269531 -31.46875 4.046875 -31.238281 3.890625 -31.03125 C 3.640625 -30.71875 3.363281 -30.304688 3.0625 -29.796875 C 2.769531 -29.296875 2.472656 -28.757812 2.171875 -28.1875 C 1.867188 -27.625 1.585938 -27.09375 1.328125 -26.59375 C 1.078125 -26.101562 0.878906 -25.695312 0.734375 -25.375 C 0.585938 -25.0625 0.515625 -24.90625 0.515625 -24.90625 C 0.421875 -24.820312 0.269531 -24.8125 0.0625 -24.875 C -0.132812 -24.945312 -0.316406 -25.066406 -0.484375 -25.234375 C -0.660156 -25.398438 -0.75 -25.585938 -0.75 -25.796875 C -0.75 -26.347656 -0.644531 -26.972656 -0.4375 -27.671875 C -0.226562 -28.367188 0.03125 -29.054688 0.34375 -29.734375 C 0.664062 -30.421875 0.988281 -31.035156 1.3125 -31.578125 C 1.644531 -32.128906 1.9375 -32.539062 2.1875 -32.8125 C 2.75 -33.425781 3.375 -33.878906 4.0625 -34.171875 C 4.75 -34.472656 5.4375 -34.601562 6.125 -34.5625 C 6.8125 -34.53125 7.429688 -34.316406 7.984375 -33.921875 C 8.546875 -33.523438 8.984375 -32.9375 9.296875 -32.15625 C 9.640625 -31.300781 9.84375 -30.382812 9.90625 -29.40625 C 9.976562 -28.4375 9.957031 -27.441406 9.84375 -26.421875 C 9.726562 -25.410156 9.546875 -24.421875 9.296875 -23.453125 C 9.046875 -22.492188 8.78125 -21.601562 8.5 -20.78125 C 8.382812 -20.414062 8.253906 -20.054688 8.109375 -19.703125 C 7.972656 -19.359375 7.835938 -19.015625 7.703125 -18.671875 C 8.703125 -18.910156 9.703125 -18.90625 10.703125 -18.65625 C 11.703125 -18.414062 12.582031 -17.875 13.34375 -17.03125 C 14.238281 -18.382812 15.066406 -19.796875 15.828125 -21.265625 C 16.585938 -22.742188 17.21875 -24.316406 17.71875 -25.984375 C 17.757812 -26.117188 17.863281 -26.210938 18.03125 -26.265625 C 18.195312 -26.316406 18.375 -26.332031 18.5625 -26.3125 C 18.75 -26.300781 18.90625 -26.25 19.03125 -26.15625 C 19.15625 -26.0625 19.191406 -25.941406 19.140625 -25.796875 Z M 11.96875 -11.9375 C 11.96875 -12.3125 11.929688 -12.679688 11.859375 -13.046875 C 11.710938 -12.835938 11.5625 -12.628906 11.40625 -12.421875 C 11.257812 -12.222656 11.109375 -12.019531 10.953125 -11.8125 C 9.890625 -10.40625 8.835938 -8.976562 7.796875 -7.53125 C 6.765625 -6.082031 5.78125 -4.585938 4.84375 -3.046875 C 3.914062 -1.515625 3.082031 0.0859375 2.34375 1.765625 C 2.238281 1.992188 2.09375 2.332031 1.90625 2.78125 C 1.71875 3.226562 1.523438 3.726562 1.328125 4.28125 C 1.128906 4.84375 0.96875 5.394531 0.84375 5.9375 C 0.726562 6.488281 0.675781 6.976562 0.6875 7.40625 C 0.695312 7.84375 0.816406 8.175781 1.046875 8.40625 C 1.273438 8.632812 1.648438 8.695312 2.171875 8.59375 C 2.941406 8.4375 3.691406 8.039062 4.421875 7.40625 C 5.160156 6.78125 5.859375 5.984375 6.515625 5.015625 C 7.179688 4.054688 7.800781 2.988281 8.375 1.8125 C 8.945312 0.632812 9.460938 -0.585938 9.921875 -1.859375 C 10.378906 -3.128906 10.765625 -4.382812 11.078125 -5.625 C 11.398438 -6.875 11.640625 -8.039062 11.796875 -9.125 C 11.953125 -10.207031 12.007812 -11.144531 11.96875 -11.9375 Z M 11.96875 -11.9375 "/></g></g></g><g fill="#ffffff" fill-opacity="1"><g transform="translate(109.818278, 63.499966)"><g/></g></g><g fill="#ffffff" fill-opacity="1"><g transform="translate(119.641543, 63.499966)"><g><path d="M 13.65625 -26.890625 C 13.675781 -27.023438 13.734375 -27.097656 13.828125 -27.109375 C 13.921875 -27.117188 14.003906 -27.101562 14.078125 -27.0625 C 14.160156 -27.03125 14.203125 -26.992188 14.203125 -26.953125 C 14.097656 -24.972656 13.847656 -23.117188 13.453125 -21.390625 C 13.054688 -19.660156 12.535156 -18.125 11.890625 -16.78125 C 11.242188 -15.4375 10.5 -14.347656 9.65625 -13.515625 C 8.820312 -12.679688 7.914062 -12.164062 6.9375 -11.96875 C 6.269531 -11.84375 5.546875 -11.796875 4.765625 -11.828125 C 3.992188 -11.867188 3.25 -12.007812 2.53125 -12.25 C 1.820312 -12.5 1.210938 -12.863281 0.703125 -13.34375 C 0.117188 -13.90625 -0.347656 -14.539062 -0.703125 -15.25 C -1.054688 -15.957031 -1.3125 -16.707031 -1.46875 -17.5 C -1.625 -18.289062 -1.710938 -19.078125 -1.734375 -19.859375 C -1.835938 -22.515625 -1.550781 -25.128906 -0.875 -27.703125 C -0.71875 -28.285156 -0.53125 -28.898438 -0.3125 -29.546875 C -0.09375 -30.191406 0.171875 -30.816406 0.484375 -31.421875 C 0.796875 -32.035156 1.164062 -32.59375 1.59375 -33.09375 C 2.03125 -33.59375 2.535156 -34 3.109375 -34.3125 C 3.703125 -34.644531 4.351562 -34.828125 5.0625 -34.859375 C 5.78125 -34.898438 6.460938 -34.789062 7.109375 -34.53125 C 7.765625 -34.28125 8.289062 -33.867188 8.6875 -33.296875 C 9.039062 -32.816406 9.28125 -32.242188 9.40625 -31.578125 C 9.539062 -30.921875 9.609375 -30.253906 9.609375 -29.578125 C 9.609375 -28.898438 9.570312 -28.273438 9.5 -27.703125 C 9.425781 -27.140625 9.363281 -26.707031 9.3125 -26.40625 C 9.28125 -26.226562 9.148438 -26.0625 8.921875 -25.90625 C 8.691406 -25.75 8.410156 -25.613281 8.078125 -25.5 C 7.753906 -25.382812 7.4375 -25.316406 7.125 -25.296875 C 6.8125 -25.285156 6.550781 -25.320312 6.34375 -25.40625 C 6.132812 -25.5 6.03125 -25.664062 6.03125 -25.90625 C 6.019531 -26.5625 6.039062 -27.207031 6.09375 -27.84375 C 6.144531 -28.476562 6.15625 -29.109375 6.125 -29.734375 C 6.101562 -30.367188 5.976562 -31.007812 5.75 -31.65625 C 5.644531 -31.957031 5.554688 -32.195312 5.484375 -32.375 C 5.421875 -32.550781 5.335938 -32.628906 5.234375 -32.609375 C 5.140625 -32.585938 4.984375 -32.4375 4.765625 -32.15625 C 4.535156 -31.84375 4.328125 -31.503906 4.140625 -31.140625 C 3.960938 -30.785156 3.796875 -30.425781 3.640625 -30.0625 C 2.921875 -28.46875 2.429688 -26.769531 2.171875 -24.96875 C 1.910156 -23.175781 1.828125 -21.410156 1.921875 -19.671875 C 1.953125 -18.828125 2.039062 -18.050781 2.1875 -17.34375 C 2.332031 -16.644531 2.6875 -15.957031 3.25 -15.28125 C 3.363281 -15.132812 3.578125 -14.957031 3.890625 -14.75 C 4.210938 -14.550781 4.609375 -14.394531 5.078125 -14.28125 C 5.546875 -14.175781 6.0625 -14.175781 6.625 -14.28125 C 7.1875 -14.382812 7.773438 -14.664062 8.390625 -15.125 C 9.003906 -15.59375 9.617188 -16.300781 10.234375 -17.25 C 10.859375 -18.195312 11.460938 -19.457031 12.046875 -21.03125 C 12.640625 -22.613281 13.175781 -24.566406 13.65625 -26.890625 Z M 13.65625 -26.890625 "/></g></g></g><g fill="#ffffff" fill-opacity="1"><g transform="translate(133.194905, 63.499966)"><g><path d="M 14.109375 -26.5625 C 14.171875 -26.695312 14.269531 -26.773438 14.40625 -26.796875 C 14.550781 -26.828125 14.671875 -26.800781 14.765625 -26.71875 C 14.867188 -26.644531 14.890625 -26.519531 14.828125 -26.34375 C 14.660156 -25.09375 14.171875 -24.0625 13.359375 -23.25 C 12.554688 -22.4375 11.457031 -21.757812 10.0625 -21.21875 C 9.90625 -20.132812 9.679688 -19.0625 9.390625 -18 C 9.109375 -16.945312 8.757812 -15.984375 8.34375 -15.109375 C 7.925781 -14.234375 7.4375 -13.523438 6.875 -12.984375 C 6.3125 -12.441406 5.675781 -12.148438 4.96875 -12.109375 C 4.15625 -12.054688 3.445312 -12.1875 2.84375 -12.5 C 2.238281 -12.820312 1.71875 -13.269531 1.28125 -13.84375 C 0.851562 -14.414062 0.492188 -15.070312 0.203125 -15.8125 C -0.078125 -16.5625 -0.296875 -17.332031 -0.453125 -18.125 C -0.617188 -18.914062 -0.742188 -19.6875 -0.828125 -20.4375 C -0.910156 -21.1875 -0.960938 -21.867188 -0.984375 -22.484375 C -1.003906 -23.097656 -1.007812 -23.578125 -1 -23.921875 C -1 -24.078125 -0.984375 -24.222656 -0.953125 -24.359375 C -0.929688 -24.503906 -0.898438 -24.628906 -0.859375 -24.734375 C -1.097656 -25.628906 -1.160156 -26.5625 -1.046875 -27.53125 C -0.929688 -28.507812 -0.671875 -29.460938 -0.265625 -30.390625 C 0.128906 -31.316406 0.648438 -32.144531 1.296875 -32.875 C 1.921875 -33.570312 2.585938 -34.035156 3.296875 -34.265625 C 4.015625 -34.503906 4.71875 -34.539062 5.40625 -34.375 C 6.101562 -34.21875 6.71875 -33.90625 7.25 -33.4375 C 8.519531 -32.320312 9.394531 -30.921875 9.875 -29.234375 C 10.363281 -27.546875 10.5 -25.5 10.28125 -23.09375 C 10.28125 -23.007812 10.273438 -22.925781 10.265625 -22.84375 C 10.253906 -22.757812 10.242188 -22.671875 10.234375 -22.578125 C 10.910156 -22.796875 11.546875 -23.082031 12.140625 -23.4375 C 12.734375 -23.789062 13.210938 -24.226562 13.578125 -24.75 C 13.941406 -25.269531 14.117188 -25.875 14.109375 -26.5625 Z M 2.03125 -29.890625 C 1.957031 -29.609375 1.863281 -29.21875 1.75 -28.71875 C 1.632812 -28.226562 1.550781 -27.691406 1.5 -27.109375 C 1.445312 -26.523438 1.457031 -25.953125 1.53125 -25.390625 C 1.738281 -25.265625 1.898438 -25.113281 2.015625 -24.9375 C 2.140625 -24.757812 2.210938 -24.5625 2.234375 -24.34375 C 2.234375 -24.257812 2.234375 -24.148438 2.234375 -24.015625 C 2.234375 -23.890625 2.234375 -23.738281 2.234375 -23.5625 C 2.253906 -23.539062 2.269531 -23.519531 2.28125 -23.5 C 2.300781 -23.488281 2.316406 -23.46875 2.328125 -23.4375 C 2.753906 -22.96875 3.410156 -22.609375 4.296875 -22.359375 C 5.179688 -22.117188 6.160156 -22.015625 7.234375 -22.046875 C 7.304688 -22.773438 7.34375 -23.390625 7.34375 -23.890625 C 7.375 -24.710938 7.378906 -25.578125 7.359375 -26.484375 C 7.347656 -27.398438 7.273438 -28.300781 7.140625 -29.1875 C 7.003906 -30.070312 6.75 -30.882812 6.375 -31.625 C 5.988281 -32.394531 5.59375 -32.878906 5.1875 -33.078125 C 4.78125 -33.273438 4.378906 -33.253906 3.984375 -33.015625 C 3.597656 -32.785156 3.234375 -32.390625 2.890625 -31.828125 C 2.554688 -31.273438 2.269531 -30.628906 2.03125 -29.890625 Z M 4.828125 -14.3125 C 5.128906 -14.34375 5.394531 -14.535156 5.625 -14.890625 C 5.863281 -15.253906 6.070312 -15.726562 6.25 -16.3125 C 6.4375 -16.90625 6.59375 -17.554688 6.71875 -18.265625 C 6.851562 -18.984375 6.960938 -19.691406 7.046875 -20.390625 C 6.203125 -20.265625 5.378906 -20.234375 4.578125 -20.296875 C 3.773438 -20.359375 3.050781 -20.535156 2.40625 -20.828125 C 2.46875 -20.078125 2.554688 -19.316406 2.671875 -18.546875 C 2.796875 -17.785156 2.953125 -17.078125 3.140625 -16.421875 C 3.328125 -15.773438 3.554688 -15.253906 3.828125 -14.859375 C 4.097656 -14.472656 4.429688 -14.289062 4.828125 -14.3125 Z M 4.828125 -14.3125 "/></g></g></g><g fill="#ffffff" fill-opacity="1"><g transform="translate(147.119332, 63.499966)"><g><path d="M 14.8125 -7.890625 C 14.914062 -7.921875 15.070312 -7.9375 15.28125 -7.9375 C 15.5 -7.9375 15.617188 -7.84375 15.640625 -7.65625 C 15.691406 -7.332031 15.625 -7.078125 15.4375 -6.890625 C 15.257812 -6.703125 15.023438 -6.5625 14.734375 -6.46875 C 14.453125 -6.382812 14.175781 -6.328125 13.90625 -6.296875 C 13.21875 -6.203125 12.539062 -6.265625 11.875 -6.484375 C 11.207031 -6.703125 10.648438 -7.082031 10.203125 -7.625 C 9.804688 -8.207031 9.488281 -8.960938 9.25 -9.890625 C 9.007812 -10.828125 8.851562 -11.988281 8.78125 -13.375 C 8.707031 -14.769531 8.726562 -16.4375 8.84375 -18.375 C 8.96875 -20.320312 9.1875 -22.585938 9.5 -25.171875 C 9.820312 -27.765625 10.25 -30.726562 10.78125 -34.0625 C 10.78125 -34.5625 10.773438 -35.0625 10.765625 -35.5625 C 10.765625 -36.0625 10.75 -36.550781 10.71875 -37.03125 C 10.707031 -37.070312 10.703125 -37.109375 10.703125 -37.140625 C 10.703125 -37.179688 10.703125 -37.222656 10.703125 -37.265625 C 10.492188 -36.898438 10.316406 -36.601562 10.171875 -36.375 C 9.890625 -35.925781 9.640625 -35.46875 9.421875 -35 C 9.210938 -34.53125 9.003906 -34.054688 8.796875 -33.578125 C 8.347656 -32.546875 7.953125 -31.488281 7.609375 -30.40625 C 7.273438 -29.332031 6.957031 -28.253906 6.65625 -27.171875 C 6.0625 -24.941406 5.476562 -22.691406 4.90625 -20.421875 C 4.332031 -18.160156 3.785156 -15.90625 3.265625 -13.65625 C 3.210938 -13.4375 3.070312 -13.265625 2.84375 -13.140625 C 2.625 -13.015625 2.367188 -12.941406 2.078125 -12.921875 C 1.796875 -12.898438 1.53125 -12.929688 1.28125 -13.015625 C 1.039062 -13.097656 0.867188 -13.234375 0.765625 -13.421875 C 0.253906 -14.347656 -0.113281 -15.335938 -0.34375 -16.390625 C -0.582031 -17.441406 -0.734375 -18.515625 -0.796875 -19.609375 C -0.867188 -20.703125 -0.910156 -21.757812 -0.921875 -22.78125 C -0.921875 -23.738281 -0.890625 -24.695312 -0.828125 -25.65625 C -0.773438 -26.625 -0.695312 -27.546875 -0.59375 -28.421875 C -0.488281 -29.304688 -0.367188 -30.09375 -0.234375 -30.78125 C -0.109375 -31.46875 0.0234375 -32.015625 0.171875 -32.421875 C 0.242188 -32.617188 0.425781 -32.785156 0.71875 -32.921875 C 1.007812 -33.066406 1.328125 -33.15625 1.671875 -33.1875 C 2.023438 -33.226562 2.328125 -33.1875 2.578125 -33.0625 C 2.835938 -32.945312 2.957031 -32.722656 2.9375 -32.390625 C 2.832031 -30.640625 2.773438 -28.984375 2.765625 -27.421875 C 2.753906 -25.859375 2.796875 -24.269531 2.890625 -22.65625 C 2.898438 -22.425781 2.910156 -22.191406 2.921875 -21.953125 C 2.941406 -21.722656 2.957031 -21.488281 2.96875 -21.25 C 3.3125 -22.71875 3.648438 -24.179688 3.984375 -25.640625 C 4.328125 -27.097656 4.71875 -28.539062 5.15625 -29.96875 C 5.570312 -31.269531 6.035156 -32.550781 6.546875 -33.8125 C 7.054688 -35.070312 7.582031 -36.328125 8.125 -37.578125 C 8.332031 -38.046875 8.578125 -38.507812 8.859375 -38.96875 C 9.140625 -39.4375 9.460938 -39.835938 9.828125 -40.171875 C 10.203125 -40.503906 10.625 -40.710938 11.09375 -40.796875 C 11.3125 -40.835938 11.578125 -40.800781 11.890625 -40.6875 C 12.203125 -40.582031 12.519531 -40.429688 12.84375 -40.234375 C 13.164062 -40.035156 13.445312 -39.832031 13.6875 -39.625 C 13.925781 -39.414062 14.078125 -39.234375 14.140625 -39.078125 C 14.359375 -38.523438 14.5 -37.898438 14.5625 -37.203125 C 14.632812 -36.515625 14.65625 -35.84375 14.625 -35.1875 C 14.601562 -34.539062 14.566406 -34 14.515625 -33.5625 C 14.410156 -32.644531 14.265625 -31.609375 14.078125 -30.453125 C 13.898438 -29.304688 13.707031 -28.082031 13.5 -26.78125 C 13.289062 -25.476562 13.09375 -24.148438 12.90625 -22.796875 C 12.726562 -21.441406 12.582031 -20.101562 12.46875 -18.78125 C 12.363281 -17.457031 12.3125 -16.195312 12.3125 -15 C 12.3125 -13.8125 12.390625 -12.726562 12.546875 -11.75 C 12.710938 -10.78125 12.976562 -9.957031 13.34375 -9.28125 C 13.707031 -8.613281 14.195312 -8.148438 14.8125 -7.890625 Z M 14.8125 -7.890625 "/></g></g></g><g fill="#ffffff" fill-opacity="1"><g transform="translate(163.914565, 63.499966)"><g/></g></g><g fill="#ffffff" fill-opacity="1"><g transform="translate(173.737829, 63.499966)"><g><path d="M 1.234375 -5.3125 C 0.734375 -5.71875 0.414062 -6.203125 0.28125 -6.765625 C 0.144531 -7.335938 0.15625 -7.914062 0.3125 -8.5 C 0.46875 -9.082031 0.722656 -9.601562 1.078125 -10.0625 C 1.515625 -10.632812 2.039062 -11.101562 2.65625 -11.46875 C 3.28125 -11.832031 3.945312 -12.113281 4.65625 -12.3125 C 5.363281 -12.519531 6.066406 -12.640625 6.765625 -12.671875 C 7.078125 -12.703125 7.390625 -12.707031 7.703125 -12.6875 C 8.015625 -12.675781 8.316406 -12.660156 8.609375 -12.640625 C 8.609375 -12.640625 8.625 -12.664062 8.65625 -12.71875 C 9.875 -15.4375 10.828125 -18.238281 11.515625 -21.125 C 12.203125 -24.019531 12.707031 -26.953125 13.03125 -29.921875 C 13.351562 -32.890625 13.585938 -35.847656 13.734375 -38.796875 C 13.835938 -40.960938 13.941406 -43.144531 14.046875 -45.34375 C 14.148438 -47.539062 14.144531 -49.722656 14.03125 -51.890625 C 13.976562 -52.972656 13.878906 -54.101562 13.734375 -55.28125 C 13.597656 -56.457031 13.304688 -57.550781 12.859375 -58.5625 C 12.816406 -58.644531 12.753906 -58.769531 12.671875 -58.9375 C 12.585938 -59.113281 12.492188 -59.28125 12.390625 -59.4375 C 12.296875 -59.601562 12.191406 -59.707031 12.078125 -59.75 C 11.503906 -59.976562 10.945312 -59.972656 10.40625 -59.734375 C 9.863281 -59.492188 9.347656 -59.078125 8.859375 -58.484375 C 8.367188 -57.890625 7.910156 -57.175781 7.484375 -56.34375 C 7.066406 -55.507812 6.679688 -54.609375 6.328125 -53.640625 C 5.972656 -52.679688 5.671875 -51.710938 5.421875 -50.734375 C 5.171875 -49.753906 4.96875 -48.816406 4.8125 -47.921875 C 4.65625 -47.023438 4.5625 -46.234375 4.53125 -45.546875 C 4.53125 -45.390625 4.523438 -45.164062 4.515625 -44.875 C 4.515625 -44.582031 4.53125 -44.257812 4.5625 -43.90625 C 4.59375 -43.550781 4.65625 -43.210938 4.75 -42.890625 C 4.851562 -42.566406 4.992188 -42.289062 5.171875 -42.0625 C 5.359375 -41.84375 5.609375 -41.722656 5.921875 -41.703125 C 6.285156 -41.671875 6.648438 -41.84375 7.015625 -42.21875 C 7.390625 -42.601562 7.753906 -43.101562 8.109375 -43.71875 C 8.472656 -44.34375 8.800781 -45 9.09375 -45.6875 C 9.394531 -46.382812 9.660156 -47.050781 9.890625 -47.6875 C 10.117188 -48.320312 10.285156 -48.832031 10.390625 -49.21875 C 10.429688 -49.363281 10.550781 -49.46875 10.75 -49.53125 C 10.957031 -49.59375 11.175781 -49.613281 11.40625 -49.59375 C 11.644531 -49.582031 11.84375 -49.523438 12 -49.421875 C 12.15625 -49.328125 12.207031 -49.1875 12.15625 -49 C 11.8125 -47.625 11.300781 -46.257812 10.625 -44.90625 C 9.957031 -43.550781 9.117188 -42.375 8.109375 -41.375 C 7.734375 -41.007812 7.273438 -40.75 6.734375 -40.59375 C 6.191406 -40.4375 5.664062 -40.4375 5.15625 -40.59375 C 4.644531 -40.75 4.226562 -41.113281 3.90625 -41.6875 C 3.488281 -42.4375 3.222656 -43.328125 3.109375 -44.359375 C 2.992188 -45.398438 2.992188 -46.515625 3.109375 -47.703125 C 3.234375 -48.898438 3.457031 -50.101562 3.78125 -51.3125 C 4.113281 -52.53125 4.515625 -53.710938 4.984375 -54.859375 C 5.460938 -56.003906 5.988281 -57.050781 6.5625 -58 C 7.144531 -58.945312 7.753906 -59.738281 8.390625 -60.375 C 9.023438 -61.007812 9.660156 -61.425781 10.296875 -61.625 C 10.984375 -61.832031 11.691406 -61.910156 12.421875 -61.859375 C 13.148438 -61.816406 13.832031 -61.632812 14.46875 -61.3125 C 15.113281 -61 15.632812 -60.53125 16.03125 -59.90625 C 16.476562 -59.238281 16.8125 -58.484375 17.03125 -57.640625 C 17.25 -56.796875 17.40625 -55.929688 17.5 -55.046875 C 17.601562 -54.160156 17.679688 -53.328125 17.734375 -52.546875 C 17.835938 -51.117188 17.867188 -49.6875 17.828125 -48.25 C 17.796875 -46.8125 17.742188 -45.378906 17.671875 -43.953125 C 17.585938 -41.253906 17.457031 -38.53125 17.28125 -35.78125 C 17.113281 -33.03125 16.847656 -30.289062 16.484375 -27.5625 C 16.117188 -24.84375 15.582031 -22.160156 14.875 -19.515625 C 14.175781 -16.867188 13.242188 -14.3125 12.078125 -11.84375 C 13.222656 -11.445312 14.347656 -10.96875 15.453125 -10.40625 C 16.554688 -9.851562 17.660156 -9.304688 18.765625 -8.765625 C 19.878906 -8.222656 21 -7.765625 22.125 -7.390625 C 23.144531 -7.054688 24.191406 -6.863281 25.265625 -6.8125 C 26.347656 -6.757812 27.382812 -6.878906 28.375 -7.171875 C 29.363281 -7.472656 30.234375 -7.96875 30.984375 -8.65625 C 31.734375 -9.351562 32.285156 -10.289062 32.640625 -11.46875 C 32.703125 -11.695312 32.878906 -11.875 33.171875 -12 C 33.460938 -12.132812 33.796875 -12.210938 34.171875 -12.234375 C 34.554688 -12.265625 34.921875 -12.238281 35.265625 -12.15625 C 35.609375 -12.070312 35.878906 -11.9375 36.078125 -11.75 C 36.285156 -11.5625 36.34375 -11.316406 36.25 -11.015625 C 35.976562 -10.117188 35.566406 -9.328125 35.015625 -8.640625 C 34.472656 -7.960938 33.828125 -7.367188 33.078125 -6.859375 C 32.335938 -6.359375 31.546875 -5.953125 30.703125 -5.640625 C 29.859375 -5.328125 29.003906 -5.09375 28.140625 -4.9375 C 26.710938 -4.707031 25.300781 -4.6875 23.90625 -4.875 C 22.507812 -5.0625 21.140625 -5.390625 19.796875 -5.859375 C 18.460938 -6.335938 17.15625 -6.878906 15.875 -7.484375 C 15.269531 -7.765625 14.539062 -8.140625 13.6875 -8.609375 C 12.84375 -9.078125 11.957031 -9.507812 11.03125 -9.90625 C 10.582031 -9.113281 10.0625 -8.363281 9.46875 -7.65625 C 8.882812 -6.957031 8.222656 -6.335938 7.484375 -5.796875 C 7.066406 -5.503906 6.585938 -5.242188 6.046875 -5.015625 C 5.515625 -4.796875 4.960938 -4.644531 4.390625 -4.5625 C 3.816406 -4.476562 3.257812 -4.488281 2.71875 -4.59375 C 2.1875 -4.707031 1.691406 -4.945312 1.234375 -5.3125 Z M 3.875 -7.703125 C 3.875 -7.609375 3.890625 -7.472656 3.921875 -7.296875 C 3.953125 -7.117188 4.019531 -6.984375 4.125 -6.890625 C 4.238281 -6.804688 4.40625 -6.847656 4.625 -7.015625 C 4.820312 -7.160156 5.007812 -7.316406 5.1875 -7.484375 C 5.363281 -7.648438 5.535156 -7.816406 5.703125 -7.984375 C 6.109375 -8.398438 6.46875 -8.84375 6.78125 -9.3125 C 7.101562 -9.78125 7.398438 -10.265625 7.671875 -10.765625 C 7.035156 -10.785156 6.441406 -10.6875 5.890625 -10.46875 C 5.335938 -10.25 4.851562 -9.847656 4.4375 -9.265625 C 4.300781 -9.078125 4.175781 -8.835938 4.0625 -8.546875 C 3.957031 -8.265625 3.894531 -7.984375 3.875 -7.703125 Z M 3.875 -7.703125 "/></g></g></g><g fill="#ffffff" fill-opacity="1"><g transform="translate(196.469982, 63.499966)"><g><path d="M 7.9375 -24.203125 C 7.570312 -23.585938 7.140625 -23.019531 6.640625 -22.5 C 6.148438 -21.988281 5.59375 -21.585938 4.96875 -21.296875 C 4.351562 -21.015625 3.660156 -20.910156 2.890625 -20.984375 C 2.816406 -20.984375 2.738281 -20.988281 2.65625 -21 C 2.582031 -21.007812 2.503906 -21.019531 2.421875 -21.03125 C 2.472656 -20.320312 2.570312 -19.628906 2.71875 -18.953125 C 2.875 -18.273438 3.097656 -17.664062 3.390625 -17.125 C 3.691406 -16.582031 4.085938 -16.140625 4.578125 -15.796875 C 5.078125 -15.460938 5.6875 -15.28125 6.40625 -15.25 C 7.03125 -15.226562 7.617188 -15.375 8.171875 -15.6875 C 8.722656 -16 9.234375 -16.410156 9.703125 -16.921875 C 10.171875 -17.441406 10.597656 -17.988281 10.984375 -18.5625 C 11.378906 -19.132812 11.734375 -19.671875 12.046875 -20.171875 C 12.148438 -20.347656 12.296875 -20.628906 12.484375 -21.015625 C 12.679688 -21.410156 12.890625 -21.863281 13.109375 -22.375 C 13.328125 -22.882812 13.539062 -23.414062 13.75 -23.96875 C 13.96875 -24.53125 14.160156 -25.078125 14.328125 -25.609375 C 14.492188 -26.140625 14.613281 -26.609375 14.6875 -27.015625 C 14.738281 -27.285156 14.851562 -27.457031 15.03125 -27.53125 C 15.207031 -27.613281 15.367188 -27.609375 15.515625 -27.515625 C 15.671875 -27.429688 15.710938 -27.257812 15.640625 -27 C 15.484375 -26.300781 15.257812 -25.507812 14.96875 -24.625 C 14.675781 -23.738281 14.34375 -22.832031 13.96875 -21.90625 C 13.59375 -20.976562 13.195312 -20.078125 12.78125 -19.203125 C 12.257812 -18.097656 11.648438 -17.09375 10.953125 -16.1875 C 10.253906 -15.28125 9.488281 -14.550781 8.65625 -14 C 7.832031 -13.457031 6.953125 -13.15625 6.015625 -13.09375 C 5.140625 -13.019531 4.296875 -13.097656 3.484375 -13.328125 C 2.671875 -13.566406 1.945312 -13.953125 1.3125 -14.484375 C 0.675781 -15.023438 0.160156 -15.707031 -0.234375 -16.53125 C -0.597656 -17.332031 -0.859375 -18.1875 -1.015625 -19.09375 C -1.171875 -20.007812 -1.25 -20.9375 -1.25 -21.875 C -1.257812 -22.820312 -1.238281 -23.726562 -1.1875 -24.59375 C -1.15625 -25.289062 -1.0625 -26.0625 -0.90625 -26.90625 C -0.757812 -27.75 -0.546875 -28.601562 -0.265625 -29.46875 C 0.00390625 -30.34375 0.34375 -31.179688 0.75 -31.984375 C 1.164062 -32.796875 1.648438 -33.519531 2.203125 -34.15625 C 2.765625 -34.800781 3.40625 -35.3125 4.125 -35.6875 C 4.84375 -36.0625 5.644531 -36.25 6.53125 -36.25 C 7.382812 -36.25 8.070312 -36.082031 8.59375 -35.75 C 9.113281 -35.414062 9.492188 -34.957031 9.734375 -34.375 C 9.972656 -33.800781 10.109375 -33.148438 10.140625 -32.421875 C 10.179688 -31.703125 10.132812 -30.945312 10 -30.15625 C 9.875 -29.375 9.691406 -28.601562 9.453125 -27.84375 C 9.222656 -27.09375 8.972656 -26.398438 8.703125 -25.765625 C 8.429688 -25.140625 8.175781 -24.617188 7.9375 -24.203125 Z M 2.390625 -22.5 C 2.421875 -22.476562 2.457031 -22.453125 2.5 -22.421875 C 2.539062 -22.398438 2.585938 -22.375 2.640625 -22.34375 C 3.023438 -22.144531 3.382812 -22.101562 3.71875 -22.21875 C 4.0625 -22.332031 4.375 -22.53125 4.65625 -22.8125 C 4.945312 -23.101562 5.203125 -23.421875 5.421875 -23.765625 C 5.648438 -24.109375 5.84375 -24.410156 6 -24.671875 C 6.570312 -25.703125 7.03125 -26.789062 7.375 -27.9375 C 7.71875 -29.082031 7.894531 -30.238281 7.90625 -31.40625 C 7.925781 -31.707031 7.914062 -32.078125 7.875 -32.515625 C 7.84375 -32.960938 7.757812 -33.390625 7.625 -33.796875 C 7.5 -34.210938 7.28125 -34.503906 6.96875 -34.671875 C 6.6875 -34.835938 6.328125 -34.757812 5.890625 -34.4375 C 5.453125 -34.125 5.007812 -33.597656 4.5625 -32.859375 C 4.113281 -32.128906 3.710938 -31.210938 3.359375 -30.109375 C 3.003906 -29.003906 2.757812 -27.757812 2.625 -26.375 C 2.582031 -25.957031 2.53125 -25.40625 2.46875 -24.71875 C 2.414062 -24.03125 2.390625 -23.289062 2.390625 -22.5 Z M 2.390625 -22.5 "/></g></g></g><g fill="#ffffff" fill-opacity="1"><g transform="translate(211.31227, 63.499966)"><g><path d="M 13.65625 -26.890625 C 13.675781 -27.023438 13.734375 -27.097656 13.828125 -27.109375 C 13.921875 -27.117188 14.003906 -27.101562 14.078125 -27.0625 C 14.160156 -27.03125 14.203125 -26.992188 14.203125 -26.953125 C 14.097656 -24.972656 13.847656 -23.117188 13.453125 -21.390625 C 13.054688 -19.660156 12.535156 -18.125 11.890625 -16.78125 C 11.242188 -15.4375 10.5 -14.347656 9.65625 -13.515625 C 8.820312 -12.679688 7.914062 -12.164062 6.9375 -11.96875 C 6.269531 -11.84375 5.546875 -11.796875 4.765625 -11.828125 C 3.992188 -11.867188 3.25 -12.007812 2.53125 -12.25 C 1.820312 -12.5 1.210938 -12.863281 0.703125 -13.34375 C 0.117188 -13.90625 -0.347656 -14.539062 -0.703125 -15.25 C -1.054688 -15.957031 -1.3125 -16.707031 -1.46875 -17.5 C -1.625 -18.289062 -1.710938 -19.078125 -1.734375 -19.859375 C -1.835938 -22.515625 -1.550781 -25.128906 -0.875 -27.703125 C -0.71875 -28.285156 -0.53125 -28.898438 -0.3125 -29.546875 C -0.09375 -30.191406 0.171875 -30.816406 0.484375 -31.421875 C 0.796875 -32.035156 1.164062 -32.59375 1.59375 -33.09375 C 2.03125 -33.59375 2.535156 -34 3.109375 -34.3125 C 3.703125 -34.644531 4.351562 -34.828125 5.0625 -34.859375 C 5.78125 -34.898438 6.460938 -34.789062 7.109375 -34.53125 C 7.765625 -34.28125 8.289062 -33.867188 8.6875 -33.296875 C 9.039062 -32.816406 9.28125 -32.242188 9.40625 -31.578125 C 9.539062 -30.921875 9.609375 -30.253906 9.609375 -29.578125 C 9.609375 -28.898438 9.570312 -28.273438 9.5 -27.703125 C 9.425781 -27.140625 9.363281 -26.707031 9.3125 -26.40625 C 9.28125 -26.226562 9.148438 -26.0625 8.921875 -25.90625 C 8.691406 -25.75 8.410156 -25.613281 8.078125 -25.5 C 7.753906 -25.382812 7.4375 -25.316406 7.125 -25.296875 C 6.8125 -25.285156 6.550781 -25.320312 6.34375 -25.40625 C 6.132812 -25.5 6.03125 -25.664062 6.03125 -25.90625 C 6.019531 -26.5625 6.039062 -27.207031 6.09375 -27.84375 C 6.144531 -28.476562 6.15625 -29.109375 6.125 -29.734375 C 6.101562 -30.367188 5.976562 -31.007812 5.75 -31.65625 C 5.644531 -31.957031 5.554688 -32.195312 5.484375 -32.375 C 5.421875 -32.550781 5.335938 -32.628906 5.234375 -32.609375 C 5.140625 -32.585938 4.984375 -32.4375 4.765625 -32.15625 C 4.535156 -31.84375 4.328125 -31.503906 4.140625 -31.140625 C 3.960938 -30.785156 3.796875 -30.425781 3.640625 -30.0625 C 2.921875 -28.46875 2.429688 -26.769531 2.171875 -24.96875 C 1.910156 -23.175781 1.828125 -21.410156 1.921875 -19.671875 C 1.953125 -18.828125 2.039062 -18.050781 2.1875 -17.34375 C 2.332031 -16.644531 2.6875 -15.957031 3.25 -15.28125 C 3.363281 -15.132812 3.578125 -14.957031 3.890625 -14.75 C 4.210938 -14.550781 4.609375 -14.394531 5.078125 -14.28125 C 5.546875 -14.175781 6.0625 -14.175781 6.625 -14.28125 C 7.1875 -14.382812 7.773438 -14.664062 8.390625 -15.125 C 9.003906 -15.59375 9.617188 -16.300781 10.234375 -17.25 C 10.859375 -18.195312 11.460938 -19.457031 12.046875 -21.03125 C 12.640625 -22.613281 13.175781 -24.566406 13.65625 -26.890625 Z M 13.65625 -26.890625 "/></g></g></g><g fill="#ffffff" fill-opacity="1"><g transform="translate(224.865644, 63.499966)"><g><path d="M 20.3125 -26.390625 C 20.320312 -26.515625 20.414062 -26.597656 20.59375 -26.640625 C 20.769531 -26.691406 20.945312 -26.695312 21.125 -26.65625 C 21.300781 -26.625 21.382812 -26.539062 21.375 -26.40625 C 21.300781 -24.507812 21.140625 -22.585938 20.890625 -20.640625 C 20.640625 -18.691406 20.289062 -16.757812 19.84375 -14.84375 C 19.40625 -12.925781 18.847656 -11.078125 18.171875 -9.296875 C 17.910156 -8.609375 17.503906 -8.046875 16.953125 -7.609375 C 16.410156 -7.171875 15.789062 -6.910156 15.09375 -6.828125 C 14.40625 -6.742188 13.703125 -6.878906 12.984375 -7.234375 C 12.398438 -7.515625 11.945312 -7.925781 11.625 -8.46875 C 11.300781 -9.019531 11.0625 -9.628906 10.90625 -10.296875 C 10.75 -10.972656 10.648438 -11.648438 10.609375 -12.328125 C 10.566406 -13.015625 10.539062 -13.632812 10.53125 -14.1875 C 10.488281 -16.082031 10.546875 -17.96875 10.703125 -19.84375 C 10.867188 -21.71875 11.03125 -23.59375 11.1875 -25.46875 C 11.34375 -27.351562 11.394531 -29.242188 11.34375 -31.140625 C 11.238281 -31.003906 11.113281 -30.867188 10.96875 -30.734375 C 10.820312 -30.597656 10.710938 -30.476562 10.640625 -30.375 C 10.347656 -29.914062 10.078125 -29.414062 9.828125 -28.875 C 9.554688 -28.3125 9.3125 -27.734375 9.09375 -27.140625 C 8.875 -26.554688 8.671875 -25.972656 8.484375 -25.390625 C 8.015625 -23.941406 7.625 -22.484375 7.3125 -21.015625 C 7 -19.546875 6.75 -18.054688 6.5625 -16.546875 C 6.507812 -16.148438 6.46875 -15.679688 6.4375 -15.140625 C 6.40625 -14.609375 6.335938 -14.070312 6.234375 -13.53125 C 6.140625 -13 5.972656 -12.523438 5.734375 -12.109375 C 5.492188 -11.703125 5.140625 -11.429688 4.671875 -11.296875 C 4.265625 -11.160156 3.863281 -11.132812 3.46875 -11.21875 C 3.082031 -11.300781 2.722656 -11.441406 2.390625 -11.640625 C 2.054688 -11.847656 1.769531 -12.066406 1.53125 -12.296875 C 1.289062 -12.535156 1.117188 -12.738281 1.015625 -12.90625 C 0.910156 -13.0625 0.828125 -13.226562 0.765625 -13.40625 C 0.710938 -13.59375 0.660156 -13.78125 0.609375 -13.96875 C -0.0976562 -16.800781 -0.582031 -19.703125 -0.84375 -22.671875 C -1.113281 -25.640625 -1.222656 -28.582031 -1.171875 -31.5 C -1.117188 -33.875 -0.960938 -36.160156 -0.703125 -38.359375 C -0.441406 -40.554688 -0.113281 -42.601562 0.28125 -44.5 C 0.675781 -46.40625 1.101562 -48.097656 1.5625 -49.578125 C 2.03125 -51.054688 2.492188 -52.265625 2.953125 -53.203125 C 3.410156 -54.148438 3.828125 -54.769531 4.203125 -55.0625 C 4.503906 -55.28125 4.847656 -55.46875 5.234375 -55.625 C 5.628906 -55.789062 6.035156 -55.898438 6.453125 -55.953125 C 6.867188 -56.003906 7.257812 -55.976562 7.625 -55.875 C 8 -55.769531 8.316406 -55.5625 8.578125 -55.25 C 9.015625 -54.707031 9.332031 -53.925781 9.53125 -52.90625 C 9.738281 -51.882812 9.8125 -50.6875 9.75 -49.3125 C 9.6875 -47.945312 9.488281 -46.457031 9.15625 -44.84375 C 8.832031 -43.238281 8.367188 -41.5625 7.765625 -39.8125 C 7.171875 -38.0625 6.429688 -36.289062 5.546875 -34.5 C 4.660156 -32.707031 3.632812 -30.960938 2.46875 -29.265625 C 2.476562 -28.753906 2.492188 -28.242188 2.515625 -27.734375 C 2.535156 -27.222656 2.550781 -26.722656 2.5625 -26.234375 C 2.6875 -23.753906 2.941406 -21.285156 3.328125 -18.828125 C 3.429688 -18.191406 3.535156 -17.554688 3.640625 -16.921875 C 3.753906 -16.296875 3.875 -15.671875 4 -15.046875 C 4.03125 -14.992188 4.046875 -14.929688 4.046875 -14.859375 C 4.054688 -14.796875 4.066406 -14.734375 4.078125 -14.671875 C 4.148438 -14.972656 4.207031 -15.257812 4.25 -15.53125 C 4.289062 -15.800781 4.332031 -16.039062 4.375 -16.25 C 4.488281 -16.90625 4.601562 -17.550781 4.71875 -18.1875 C 4.832031 -18.832031 4.957031 -19.476562 5.09375 -20.125 C 5.382812 -21.425781 5.722656 -22.707031 6.109375 -23.96875 C 6.503906 -25.238281 6.941406 -26.488281 7.421875 -27.71875 C 7.628906 -28.257812 7.867188 -28.820312 8.140625 -29.40625 C 8.421875 -30 8.738281 -30.566406 9.09375 -31.109375 C 9.445312 -31.648438 9.851562 -32.101562 10.3125 -32.46875 C 10.675781 -32.75 11.101562 -32.925781 11.59375 -33 C 12.09375 -33.070312 12.585938 -33.039062 13.078125 -32.90625 C 13.566406 -32.78125 13.96875 -32.554688 14.28125 -32.234375 C 14.632812 -31.867188 14.875 -31.414062 15 -30.875 C 15.132812 -30.34375 15.195312 -29.769531 15.1875 -29.15625 C 15.175781 -28.550781 15.140625 -27.957031 15.078125 -27.375 C 15.015625 -26.789062 14.96875 -26.28125 14.9375 -25.84375 C 14.863281 -24.601562 14.765625 -23.363281 14.640625 -22.125 C 14.515625 -20.894531 14.40625 -19.660156 14.3125 -18.421875 C 14.226562 -17.234375 14.164062 -16.023438 14.125 -14.796875 C 14.09375 -13.578125 14.191406 -12.390625 14.421875 -11.234375 C 14.484375 -10.890625 14.5625 -10.546875 14.65625 -10.203125 C 14.757812 -9.867188 14.894531 -9.554688 15.0625 -9.265625 C 15.21875 -9.003906 15.332031 -8.851562 15.40625 -8.8125 C 15.476562 -8.769531 15.546875 -8.8125 15.609375 -8.9375 C 15.679688 -9.0625 15.785156 -9.234375 15.921875 -9.453125 C 16.222656 -9.929688 16.476562 -10.4375 16.6875 -10.96875 C 16.90625 -11.507812 17.113281 -12.039062 17.3125 -12.5625 C 19.03125 -17.007812 20.03125 -21.617188 20.3125 -26.390625 Z M 3.25 -41.03125 C 3 -39.363281 2.8125 -37.6875 2.6875 -36 C 2.5625 -34.320312 2.488281 -32.632812 2.46875 -30.9375 C 3.207031 -32.425781 3.890625 -33.9375 4.515625 -35.46875 C 5.148438 -37.007812 5.71875 -38.566406 6.21875 -40.140625 C 6.59375 -41.296875 6.925781 -42.460938 7.21875 -43.640625 C 7.507812 -44.816406 7.738281 -46.015625 7.90625 -47.234375 C 8 -47.835938 8.066406 -48.445312 8.109375 -49.0625 C 8.160156 -49.675781 8.160156 -50.289062 8.109375 -50.90625 C 8.097656 -51.09375 8.070312 -51.359375 8.03125 -51.703125 C 8 -52.054688 7.953125 -52.414062 7.890625 -52.78125 C 7.828125 -53.15625 7.734375 -53.488281 7.609375 -53.78125 C 7.492188 -54.082031 7.34375 -54.28125 7.15625 -54.375 C 7 -54.4375 6.8125 -54.269531 6.59375 -53.875 C 6.375 -53.476562 6.144531 -52.921875 5.90625 -52.203125 C 5.675781 -51.492188 5.441406 -50.6875 5.203125 -49.78125 C 4.960938 -48.882812 4.734375 -47.96875 4.515625 -47.03125 C 4.296875 -46.09375 4.09375 -45.207031 3.90625 -44.375 C 3.726562 -43.539062 3.578125 -42.828125 3.453125 -42.234375 C 3.335938 -41.640625 3.269531 -41.238281 3.25 -41.03125 Z M 3.25 -41.03125 "/></g></g></g><g fill="#ffffff" fill-opacity="1"><g transform="translate(245.586269, 63.499966)"><g><path d="M 7.9375 -24.203125 C 7.570312 -23.585938 7.140625 -23.019531 6.640625 -22.5 C 6.148438 -21.988281 5.59375 -21.585938 4.96875 -21.296875 C 4.351562 -21.015625 3.660156 -20.910156 2.890625 -20.984375 C 2.816406 -20.984375 2.738281 -20.988281 2.65625 -21 C 2.582031 -21.007812 2.503906 -21.019531 2.421875 -21.03125 C 2.472656 -20.320312 2.570312 -19.628906 2.71875 -18.953125 C 2.875 -18.273438 3.097656 -17.664062 3.390625 -17.125 C 3.691406 -16.582031 4.085938 -16.140625 4.578125 -15.796875 C 5.078125 -15.460938 5.6875 -15.28125 6.40625 -15.25 C 7.03125 -15.226562 7.617188 -15.375 8.171875 -15.6875 C 8.722656 -16 9.234375 -16.410156 9.703125 -16.921875 C 10.171875 -17.441406 10.597656 -17.988281 10.984375 -18.5625 C 11.378906 -19.132812 11.734375 -19.671875 12.046875 -20.171875 C 12.148438 -20.347656 12.296875 -20.628906 12.484375 -21.015625 C 12.679688 -21.410156 12.890625 -21.863281 13.109375 -22.375 C 13.328125 -22.882812 13.539062 -23.414062 13.75 -23.96875 C 13.96875 -24.53125 14.160156 -25.078125 14.328125 -25.609375 C 14.492188 -26.140625 14.613281 -26.609375 14.6875 -27.015625 C 14.738281 -27.285156 14.851562 -27.457031 15.03125 -27.53125 C 15.207031 -27.613281 15.367188 -27.609375 15.515625 -27.515625 C 15.671875 -27.429688 15.710938 -27.257812 15.640625 -27 C 15.484375 -26.300781 15.257812 -25.507812 14.96875 -24.625 C 14.675781 -23.738281 14.34375 -22.832031 13.96875 -21.90625 C 13.59375 -20.976562 13.195312 -20.078125 12.78125 -19.203125 C 12.257812 -18.097656 11.648438 -17.09375 10.953125 -16.1875 C 10.253906 -15.28125 9.488281 -14.550781 8.65625 -14 C 7.832031 -13.457031 6.953125 -13.15625 6.015625 -13.09375 C 5.140625 -13.019531 4.296875 -13.097656 3.484375 -13.328125 C 2.671875 -13.566406 1.945312 -13.953125 1.3125 -14.484375 C 0.675781 -15.023438 0.160156 -15.707031 -0.234375 -16.53125 C -0.597656 -17.332031 -0.859375 -18.1875 -1.015625 -19.09375 C -1.171875 -20.007812 -1.25 -20.9375 -1.25 -21.875 C -1.257812 -22.820312 -1.238281 -23.726562 -1.1875 -24.59375 C -1.15625 -25.289062 -1.0625 -26.0625 -0.90625 -26.90625 C -0.757812 -27.75 -0.546875 -28.601562 -0.265625 -29.46875 C 0.00390625 -30.34375 0.34375 -31.179688 0.75 -31.984375 C 1.164062 -32.796875 1.648438 -33.519531 2.203125 -34.15625 C 2.765625 -34.800781 3.40625 -35.3125 4.125 -35.6875 C 4.84375 -36.0625 5.644531 -36.25 6.53125 -36.25 C 7.382812 -36.25 8.070312 -36.082031 8.59375 -35.75 C 9.113281 -35.414062 9.492188 -34.957031 9.734375 -34.375 C 9.972656 -33.800781 10.109375 -33.148438 10.140625 -32.421875 C 10.179688 -31.703125 10.132812 -30.945312 10 -30.15625 C 9.875 -29.375 9.691406 -28.601562 9.453125 -27.84375 C 9.222656 -27.09375 8.972656 -26.398438 8.703125 -25.765625 C 8.429688 -25.140625 8.175781 -24.617188 7.9375 -24.203125 Z M 2.390625 -22.5 C 2.421875 -22.476562 2.457031 -22.453125 2.5 -22.421875 C 2.539062 -22.398438 2.585938 -22.375 2.640625 -22.34375 C 3.023438 -22.144531 3.382812 -22.101562 3.71875 -22.21875 C 4.0625 -22.332031 4.375 -22.53125 4.65625 -22.8125 C 4.945312 -23.101562 5.203125 -23.421875 5.421875 -23.765625 C 5.648438 -24.109375 5.84375 -24.410156 6 -24.671875 C 6.570312 -25.703125 7.03125 -26.789062 7.375 -27.9375 C 7.71875 -29.082031 7.894531 -30.238281 7.90625 -31.40625 C 7.925781 -31.707031 7.914062 -32.078125 7.875 -32.515625 C 7.84375 -32.960938 7.757812 -33.390625 7.625 -33.796875 C 7.5 -34.210938 7.28125 -34.503906 6.96875 -34.671875 C 6.6875 -34.835938 6.328125 -34.757812 5.890625 -34.4375 C 5.453125 -34.125 5.007812 -33.597656 4.5625 -32.859375 C 4.113281 -32.128906 3.710938 -31.210938 3.359375 -30.109375 C 3.003906 -29.003906 2.757812 -27.757812 2.625 -26.375 C 2.582031 -25.957031 2.53125 -25.40625 2.46875 -24.71875 C 2.414062 -24.03125 2.390625 -23.289062 2.390625 -22.5 Z M 2.390625 -22.5 "/></g></g></g></svg>