<svg xmlns="http://www.w3.org/2000/svg" xmlns:xlink="http://www.w3.org/1999/xlink" width="1000" zoomAndPan="magnify" viewBox="0 0 750 74.999997" height="100" preserveAspectRatio="xMidYMid meet" version="1.0"><defs><g/></defs><g fill="#ffffff" fill-opacity="1"><g transform="translate(14.425795, 63.499967)"><g><path d="M 24.375 -15.515625 C 24.40625 -15.804688 24.539062 -16.039062 24.78125 -16.21875 C 25.03125 -16.40625 25.320312 -16.53125 25.65625 -16.59375 C 26 -16.65625 26.335938 -16.65625 26.671875 -16.59375 C 27.015625 -16.53125 27.300781 -16.414062 27.53125 -16.25 C 27.769531 -16.082031 27.890625 -15.851562 27.890625 -15.5625 C 27.898438 -14.800781 27.804688 -13.925781 27.609375 -12.9375 C 27.410156 -11.957031 27.109375 -10.945312 26.703125 -9.90625 C 26.304688 -8.863281 25.828125 -7.863281 25.265625 -6.90625 C 24.710938 -5.945312 24.078125 -5.097656 23.359375 -4.359375 C 22.640625 -3.628906 21.859375 -3.078125 21.015625 -2.703125 C 19.960938 -2.234375 18.8125 -1.910156 17.5625 -1.734375 C 16.3125 -1.566406 15.046875 -1.5625 13.765625 -1.71875 C 12.484375 -1.875 11.269531 -2.195312 10.125 -2.6875 C 8.988281 -3.175781 8 -3.84375 7.15625 -4.6875 C 6.039062 -5.8125 5.109375 -7.039062 4.359375 -8.375 C 3.617188 -9.707031 3.023438 -11.101562 2.578125 -12.5625 C 2.140625 -14.03125 1.816406 -15.507812 1.609375 -17 C 1.410156 -18.488281 1.296875 -19.957031 1.265625 -21.40625 C 1.242188 -22.851562 1.28125 -24.226562 1.375 -25.53125 C 1.613281 -29.175781 1.988281 -32.445312 2.5 -35.34375 C 3.019531 -38.238281 3.640625 -40.804688 4.359375 -43.046875 C 5.085938 -45.285156 5.875 -47.234375 6.71875 -48.890625 C 7.5625 -50.546875 8.4375 -51.945312 9.34375 -53.09375 C 10.257812 -54.238281 11.164062 -55.175781 12.0625 -55.90625 C 12.96875 -56.632812 13.828125 -57.191406 14.640625 -57.578125 C 15.460938 -57.972656 16.207031 -58.234375 16.875 -58.359375 C 17.550781 -58.492188 18.113281 -58.539062 18.5625 -58.5 C 19.875 -58.382812 21.007812 -58.082031 21.96875 -57.59375 C 22.9375 -57.101562 23.757812 -56.476562 24.4375 -55.71875 C 25.113281 -54.96875 25.671875 -54.128906 26.109375 -53.203125 C 26.554688 -52.273438 26.898438 -51.3125 27.140625 -50.3125 C 27.390625 -49.3125 27.5625 -48.316406 27.65625 -47.328125 C 27.757812 -46.335938 27.8125 -45.398438 27.8125 -44.515625 C 27.820312 -43.640625 27.804688 -42.859375 27.765625 -42.171875 C 27.734375 -41.492188 27.695312 -40.96875 27.65625 -40.59375 C 27.539062 -39.363281 27.375 -38.148438 27.15625 -36.953125 C 26.945312 -35.753906 26.664062 -34.628906 26.3125 -33.578125 C 25.957031 -32.523438 25.53125 -31.585938 25.03125 -30.765625 C 24.539062 -29.953125 23.960938 -29.300781 23.296875 -28.8125 C 22.640625 -28.332031 21.878906 -28.070312 21.015625 -28.03125 C 20.347656 -28 19.757812 -28.175781 19.25 -28.5625 C 18.75 -28.957031 18.316406 -29.503906 17.953125 -30.203125 C 17.597656 -30.898438 17.316406 -31.703125 17.109375 -32.609375 C 16.898438 -33.515625 16.753906 -34.472656 16.671875 -35.484375 C 16.597656 -36.492188 16.585938 -37.5 16.640625 -38.5 C 16.691406 -39.507812 16.800781 -40.46875 16.96875 -41.375 C 17.144531 -42.28125 17.375 -43.078125 17.65625 -43.765625 C 17.84375 -44.148438 18.0625 -44.378906 18.3125 -44.453125 C 18.5625 -44.535156 18.773438 -44.519531 18.953125 -44.40625 C 19.140625 -44.289062 19.203125 -44.128906 19.140625 -43.921875 C 19.085938 -43.765625 19.023438 -43.425781 18.953125 -42.90625 C 18.878906 -42.382812 18.8125 -41.742188 18.75 -40.984375 C 18.6875 -40.222656 18.632812 -39.394531 18.59375 -38.5 C 18.550781 -37.601562 18.539062 -36.691406 18.5625 -35.765625 C 18.582031 -34.835938 18.644531 -33.957031 18.75 -33.125 C 18.863281 -32.289062 19.03125 -31.554688 19.25 -30.921875 C 19.476562 -30.296875 19.773438 -29.816406 20.140625 -29.484375 C 20.515625 -29.148438 20.96875 -29.035156 21.5 -29.140625 C 21.800781 -29.191406 22.078125 -29.394531 22.328125 -29.75 C 22.585938 -30.101562 22.820312 -30.550781 23.03125 -31.09375 C 23.238281 -31.644531 23.425781 -32.238281 23.59375 -32.875 C 23.757812 -33.519531 23.90625 -34.160156 24.03125 -34.796875 C 24.15625 -35.441406 24.253906 -36.03125 24.328125 -36.5625 C 24.410156 -37.09375 24.46875 -37.515625 24.5 -37.828125 C 24.625 -39.148438 24.726562 -40.515625 24.8125 -41.921875 C 24.894531 -43.335938 24.921875 -44.738281 24.890625 -46.125 C 24.859375 -47.519531 24.738281 -48.847656 24.53125 -50.109375 C 24.320312 -51.378906 23.984375 -52.519531 23.515625 -53.53125 C 23.054688 -54.550781 22.441406 -55.382812 21.671875 -56.03125 C 20.898438 -56.6875 19.925781 -57.09375 18.75 -57.25 C 18.03125 -57.351562 17.253906 -57.234375 16.421875 -56.890625 C 15.585938 -56.546875 14.734375 -55.914062 13.859375 -55 C 12.984375 -54.09375 12.125 -52.847656 11.28125 -51.265625 C 10.4375 -49.679688 9.644531 -47.707031 8.90625 -45.34375 C 8.175781 -42.976562 7.535156 -40.175781 6.984375 -36.9375 C 6.429688 -33.695312 6.003906 -29.953125 5.703125 -25.703125 C 5.585938 -24.117188 5.550781 -22.5 5.59375 -20.84375 C 5.644531 -19.195312 5.804688 -17.5625 6.078125 -15.9375 C 6.359375 -14.320312 6.789062 -12.753906 7.375 -11.234375 C 7.96875 -9.710938 8.753906 -8.285156 9.734375 -6.953125 C 10.273438 -6.210938 10.925781 -5.582031 11.6875 -5.0625 C 12.445312 -4.539062 13.269531 -4.164062 14.15625 -3.9375 C 15.039062 -3.71875 15.929688 -3.675781 16.828125 -3.8125 C 17.734375 -3.957031 18.585938 -4.304688 19.390625 -4.859375 C 20.222656 -5.453125 20.9375 -6.148438 21.53125 -6.953125 C 22.125 -7.765625 22.613281 -8.640625 23 -9.578125 C 23.394531 -10.523438 23.703125 -11.503906 23.921875 -12.515625 C 24.148438 -13.523438 24.300781 -14.523438 24.375 -15.515625 Z M 24.375 -15.515625 "/></g></g></g><g fill="#ffffff" fill-opacity="1"><g transform="translate(45.047802, 63.499967)"><g><path d="M 15.640625 -27.5 C 15.660156 -27.5625 15.738281 -27.597656 15.875 -27.609375 C 16.019531 -27.628906 16.164062 -27.625 16.3125 -27.59375 C 16.457031 -27.570312 16.519531 -27.53125 16.5 -27.46875 C 16.3125 -25.832031 16.050781 -24.195312 15.71875 -22.5625 C 15.382812 -20.9375 14.9375 -19.347656 14.375 -17.796875 C 14.164062 -17.210938 13.929688 -16.613281 13.671875 -16 C 13.410156 -15.394531 13.09375 -14.859375 12.71875 -14.390625 C 12.351562 -13.921875 11.894531 -13.585938 11.34375 -13.390625 C 10.800781 -13.191406 10.140625 -13.195312 9.359375 -13.40625 C 8.722656 -13.582031 8.222656 -13.914062 7.859375 -14.40625 C 7.492188 -14.90625 7.222656 -15.492188 7.046875 -16.171875 C 6.867188 -16.847656 6.75 -17.539062 6.6875 -18.25 C 6.550781 -17.832031 6.40625 -17.414062 6.25 -17 C 6.101562 -16.59375 5.941406 -16.191406 5.765625 -15.796875 C 5.523438 -15.265625 5.238281 -14.757812 4.90625 -14.28125 C 4.582031 -13.8125 4.207031 -13.414062 3.78125 -13.09375 C 3.351562 -12.78125 2.875 -12.578125 2.34375 -12.484375 C 1.820312 -12.398438 1.238281 -12.484375 0.59375 -12.734375 C 0.03125 -12.953125 -0.414062 -13.28125 -0.75 -13.71875 C -1.09375 -14.15625 -1.351562 -14.644531 -1.53125 -15.1875 C -1.707031 -15.738281 -1.832031 -16.304688 -1.90625 -16.890625 C -1.976562 -17.484375 -2.023438 -18.039062 -2.046875 -18.5625 C -2.128906 -19.945312 -2.09375 -21.328125 -1.9375 -22.703125 C -1.78125 -24.078125 -1.519531 -25.4375 -1.15625 -26.78125 C -1 -27.351562 -0.816406 -27.96875 -0.609375 -28.625 C -0.410156 -29.28125 -0.175781 -29.929688 0.09375 -30.578125 C 0.375 -31.222656 0.695312 -31.820312 1.0625 -32.375 C 1.425781 -32.9375 1.851562 -33.414062 2.34375 -33.8125 C 2.71875 -34.113281 3.148438 -34.34375 3.640625 -34.5 C 4.140625 -34.664062 4.648438 -34.75 5.171875 -34.75 C 5.691406 -34.75 6.191406 -34.660156 6.671875 -34.484375 C 7.160156 -34.304688 7.570312 -34.03125 7.90625 -33.65625 C 7.9375 -33.625 7.960938 -33.59375 7.984375 -33.5625 C 8.015625 -33.53125 8.039062 -33.492188 8.0625 -33.453125 C 8.445312 -33.554688 8.835938 -33.59375 9.234375 -33.5625 C 9.640625 -33.539062 9.984375 -33.453125 10.265625 -33.296875 C 10.546875 -33.140625 10.671875 -32.921875 10.640625 -32.640625 C 10.515625 -30.828125 10.394531 -29 10.28125 -27.15625 C 10.175781 -25.3125 10.148438 -23.472656 10.203125 -21.640625 C 10.253906 -19.816406 10.453125 -18.007812 10.796875 -16.21875 C 10.816406 -16.082031 10.84375 -15.945312 10.875 -15.8125 C 10.90625 -15.675781 10.941406 -15.539062 10.984375 -15.40625 C 11.117188 -15.582031 11.25 -15.753906 11.375 -15.921875 C 11.5 -16.085938 11.613281 -16.253906 11.71875 -16.421875 C 12.082031 -16.960938 12.410156 -17.507812 12.703125 -18.0625 C 12.992188 -18.625 13.265625 -19.195312 13.515625 -19.78125 C 14.046875 -21.019531 14.484375 -22.28125 14.828125 -23.5625 C 15.179688 -24.84375 15.453125 -26.15625 15.640625 -27.5 Z M 5 -22.46875 C 5.351562 -23.695312 5.640625 -24.941406 5.859375 -26.203125 C 6.078125 -27.460938 6.289062 -28.722656 6.5 -29.984375 C 6.414062 -30.242188 6.300781 -30.5 6.15625 -30.75 C 6.019531 -30.96875 5.894531 -31.1875 5.78125 -31.40625 C 5.664062 -31.625 5.535156 -31.835938 5.390625 -32.046875 C 5.335938 -32.128906 5.28125 -32.207031 5.21875 -32.28125 C 5.164062 -32.363281 5.109375 -32.441406 5.046875 -32.515625 C 4.953125 -32.378906 4.863281 -32.238281 4.78125 -32.09375 C 4.695312 -31.945312 4.613281 -31.800781 4.53125 -31.65625 C 4.40625 -31.4375 4.28125 -31.207031 4.15625 -30.96875 C 4.039062 -30.726562 3.929688 -30.484375 3.828125 -30.234375 C 3.359375 -29.222656 2.96875 -28.1875 2.65625 -27.125 C 2.300781 -25.976562 2.035156 -24.800781 1.859375 -23.59375 C 1.691406 -22.394531 1.609375 -21.195312 1.609375 -20 C 1.609375 -19.46875 1.617188 -18.929688 1.640625 -18.390625 C 1.671875 -17.847656 1.726562 -17.3125 1.8125 -16.78125 C 1.84375 -16.625 1.890625 -16.375 1.953125 -16.03125 C 2.015625 -15.6875 2.109375 -15.359375 2.234375 -15.046875 C 2.460938 -15.367188 2.671875 -15.738281 2.859375 -16.15625 C 3.046875 -16.582031 3.210938 -16.988281 3.359375 -17.375 C 3.515625 -17.757812 3.625 -18.039062 3.6875 -18.21875 C 3.945312 -18.914062 4.179688 -19.617188 4.390625 -20.328125 C 4.597656 -21.035156 4.800781 -21.75 5 -22.46875 Z M 5 -22.46875 "/></g></g></g><g fill="#ffffff" fill-opacity="1"><g transform="translate(60.807986, 63.499967)"><g><path d="M 18.328125 -36.71875 C 18.046875 -36.300781 17.8125 -35.867188 17.625 -35.421875 C 17.4375 -34.984375 17.253906 -34.519531 17.078125 -34.03125 C 16.785156 -33.207031 16.519531 -32.378906 16.28125 -31.546875 C 16.050781 -30.710938 15.828125 -29.875 15.609375 -29.03125 C 15.140625 -27.132812 14.78125 -25.234375 14.53125 -23.328125 C 14.28125 -21.429688 13.988281 -19.535156 13.65625 -17.640625 C 13.644531 -17.492188 13.519531 -17.363281 13.28125 -17.25 C 13.15625 -17.15625 13.003906 -17.082031 12.828125 -17.03125 C 12.648438 -16.988281 12.484375 -16.96875 12.328125 -16.96875 C 11.390625 -17 10.644531 -17.21875 10.09375 -17.625 C 9.539062 -18.039062 9.125 -18.59375 8.84375 -19.28125 C 8.5625 -19.96875 8.378906 -20.753906 8.296875 -21.640625 C 8.222656 -22.523438 8.191406 -23.441406 8.203125 -24.390625 C 8.210938 -24.847656 8.25 -25.46875 8.3125 -26.25 C 8.382812 -27.03125 8.460938 -27.882812 8.546875 -28.8125 C 8.640625 -29.738281 8.738281 -30.65625 8.84375 -31.5625 C 8.945312 -32.476562 9.039062 -33.289062 9.125 -34 C 9.03125 -33.875 8.945312 -33.742188 8.875 -33.609375 C 8.800781 -33.472656 8.734375 -33.351562 8.671875 -33.25 C 8.460938 -32.863281 8.265625 -32.46875 8.078125 -32.0625 C 7.898438 -31.65625 7.722656 -31.242188 7.546875 -30.828125 C 7.160156 -29.910156 6.800781 -28.984375 6.46875 -28.046875 C 6.144531 -27.117188 5.835938 -26.179688 5.546875 -25.234375 C 5.066406 -23.578125 4.640625 -21.898438 4.265625 -20.203125 C 3.898438 -18.503906 3.546875 -16.800781 3.203125 -15.09375 C 3.234375 -14.75 3.273438 -14.398438 3.328125 -14.046875 C 3.378906 -13.691406 3.414062 -13.40625 3.4375 -13.1875 C 3.46875 -12.976562 3.4375 -12.785156 3.34375 -12.609375 C 3.257812 -12.429688 3.078125 -12.210938 2.796875 -11.953125 C 2.578125 -11.753906 2.273438 -11.640625 1.890625 -11.609375 C 1.503906 -11.585938 1.179688 -11.648438 0.921875 -11.796875 C 0.566406 -11.992188 0.304688 -12.160156 0.140625 -12.296875 C -0.015625 -12.429688 -0.125 -12.597656 -0.1875 -12.796875 C -0.25 -13.003906 -0.3125 -13.300781 -0.375 -13.6875 C -0.4375 -14.1875 -0.492188 -14.679688 -0.546875 -15.171875 C -0.609375 -15.660156 -0.65625 -16.148438 -0.6875 -16.640625 C -0.738281 -17.578125 -0.757812 -18.515625 -0.75 -19.453125 C -0.75 -20.398438 -0.722656 -21.34375 -0.671875 -22.28125 C -0.640625 -22.625 -0.597656 -23.082031 -0.546875 -23.65625 C -0.503906 -24.226562 -0.445312 -24.867188 -0.375 -25.578125 C -0.3125 -26.296875 -0.234375 -27.03125 -0.140625 -27.78125 C -0.046875 -28.53125 0.0546875 -29.242188 0.171875 -29.921875 C 0.296875 -30.597656 0.414062 -31.191406 0.53125 -31.703125 C 0.65625 -32.210938 0.789062 -32.578125 0.9375 -32.796875 C 1.03125 -32.972656 1.207031 -33.125 1.46875 -33.25 C 1.738281 -33.382812 2.035156 -33.476562 2.359375 -33.53125 C 2.691406 -33.582031 3.007812 -33.59375 3.3125 -33.5625 C 3.613281 -33.539062 3.863281 -33.46875 4.0625 -33.34375 C 4.269531 -33.226562 4.367188 -33.050781 4.359375 -32.8125 C 4.347656 -32.394531 4.289062 -31.882812 4.1875 -31.28125 C 4.082031 -30.6875 3.96875 -30.078125 3.84375 -29.453125 C 3.726562 -28.828125 3.640625 -28.253906 3.578125 -27.734375 C 3.390625 -26.390625 3.253906 -25.078125 3.171875 -23.796875 C 3.273438 -24.171875 3.375 -24.539062 3.46875 -24.90625 C 3.5625 -25.269531 3.671875 -25.632812 3.796875 -26 C 4.117188 -27.050781 4.460938 -28.097656 4.828125 -29.140625 C 5.191406 -30.191406 5.5625 -31.191406 5.9375 -32.140625 C 6.3125 -33.097656 6.671875 -33.957031 7.015625 -34.71875 C 7.367188 -35.488281 7.679688 -36.113281 7.953125 -36.59375 C 8.222656 -37.082031 8.441406 -37.382812 8.609375 -37.5 C 8.921875 -37.707031 9.289062 -37.8125 9.71875 -37.8125 C 10.144531 -37.820312 10.566406 -37.75 10.984375 -37.59375 C 11.410156 -37.4375 11.785156 -37.207031 12.109375 -36.90625 C 12.429688 -36.613281 12.660156 -36.265625 12.796875 -35.859375 C 12.953125 -35.378906 12.992188 -34.957031 12.921875 -34.59375 C 12.847656 -34.238281 12.78125 -33.816406 12.71875 -33.328125 C 12.65625 -32.734375 12.578125 -32.144531 12.484375 -31.5625 C 12.390625 -30.988281 12.296875 -30.410156 12.203125 -29.828125 C 12.023438 -28.679688 11.875 -27.523438 11.75 -26.359375 C 11.625 -25.191406 11.609375 -24.03125 11.703125 -22.875 C 11.722656 -22.601562 11.753906 -22.328125 11.796875 -22.046875 C 11.847656 -21.765625 11.898438 -21.492188 11.953125 -21.234375 C 12.148438 -23.410156 12.519531 -25.578125 13.0625 -27.734375 C 13.601562 -29.898438 14.191406 -32 14.828125 -34.03125 C 14.929688 -34.363281 15.070312 -34.785156 15.25 -35.296875 C 15.425781 -35.816406 15.628906 -36.359375 15.859375 -36.921875 C 16.097656 -37.492188 16.375 -38.039062 16.6875 -38.5625 C 17 -39.082031 17.34375 -39.507812 17.71875 -39.84375 C 18 -40.101562 18.351562 -40.203125 18.78125 -40.140625 C 19.21875 -40.078125 19.65625 -39.90625 20.09375 -39.625 C 20.539062 -39.351562 20.925781 -39.03125 21.25 -38.65625 C 21.570312 -38.28125 21.757812 -37.910156 21.8125 -37.546875 C 21.863281 -36.503906 21.847656 -35.300781 21.765625 -33.9375 C 21.679688 -32.570312 21.554688 -31.113281 21.390625 -29.5625 C 21.234375 -28.007812 21.066406 -26.40625 20.890625 -24.75 C 20.710938 -23.101562 20.5625 -21.46875 20.4375 -19.84375 C 20.3125 -18.226562 20.242188 -16.675781 20.234375 -15.1875 C 20.234375 -13.695312 20.3125 -12.328125 20.46875 -11.078125 C 20.632812 -9.828125 20.921875 -8.75 21.328125 -7.84375 C 21.734375 -6.9375 22.285156 -6.269531 22.984375 -5.84375 C 23.117188 -5.78125 23.140625 -5.695312 23.046875 -5.59375 C 22.953125 -5.5 22.828125 -5.414062 22.671875 -5.34375 C 22.515625 -5.269531 22.40625 -5.226562 22.34375 -5.21875 C 21.394531 -5.082031 20.582031 -5.179688 19.90625 -5.515625 C 19.226562 -5.847656 18.671875 -6.34375 18.234375 -7 C 17.804688 -7.65625 17.476562 -8.410156 17.25 -9.265625 C 17.082031 -9.816406 16.972656 -10.578125 16.921875 -11.546875 C 16.867188 -12.523438 16.859375 -13.640625 16.890625 -14.890625 C 16.929688 -16.140625 17 -17.472656 17.09375 -18.890625 C 17.1875 -20.304688 17.296875 -21.742188 17.421875 -23.203125 C 17.554688 -24.671875 17.679688 -26.101562 17.796875 -27.5 C 17.921875 -28.90625 18.03125 -30.21875 18.125 -31.4375 C 18.226562 -32.65625 18.300781 -33.71875 18.34375 -34.625 C 18.382812 -35.539062 18.378906 -36.238281 18.328125 -36.71875 Z M 18.328125 -36.71875 "/></g></g></g><g fill="#ffffff" fill-opacity="1"><g transform="translate(86.274246, 63.499967)"><g><path d="M 15.640625 -27.5 C 15.660156 -27.5625 15.738281 -27.597656 15.875 -27.609375 C 16.019531 -27.628906 16.164062 -27.625 16.3125 -27.59375 C 16.457031 -27.570312 16.519531 -27.53125 16.5 -27.46875 C 16.3125 -25.832031 16.050781 -24.195312 15.71875 -22.5625 C 15.382812 -20.9375 14.9375 -19.347656 14.375 -17.796875 C 14.164062 -17.210938 13.929688 -16.613281 13.671875 -16 C 13.410156 -15.394531 13.09375 -14.859375 12.71875 -14.390625 C 12.351562 -13.921875 11.894531 -13.585938 11.34375 -13.390625 C 10.800781 -13.191406 10.140625 -13.195312 9.359375 -13.40625 C 8.722656 -13.582031 8.222656 -13.914062 7.859375 -14.40625 C 7.492188 -14.90625 7.222656 -15.492188 7.046875 -16.171875 C 6.867188 -16.847656 6.75 -17.539062 6.6875 -18.25 C 6.550781 -17.832031 6.40625 -17.414062 6.25 -17 C 6.101562 -16.59375 5.941406 -16.191406 5.765625 -15.796875 C 5.523438 -15.265625 5.238281 -14.757812 4.90625 -14.28125 C 4.582031 -13.8125 4.207031 -13.414062 3.78125 -13.09375 C 3.351562 -12.78125 2.875 -12.578125 2.34375 -12.484375 C 1.820312 -12.398438 1.238281 -12.484375 0.59375 -12.734375 C 0.03125 -12.953125 -0.414062 -13.28125 -0.75 -13.71875 C -1.09375 -14.15625 -1.351562 -14.644531 -1.53125 -15.1875 C -1.707031 -15.738281 -1.832031 -16.304688 -1.90625 -16.890625 C -1.976562 -17.484375 -2.023438 -18.039062 -2.046875 -18.5625 C -2.128906 -19.945312 -2.09375 -21.328125 -1.9375 -22.703125 C -1.78125 -24.078125 -1.519531 -25.4375 -1.15625 -26.78125 C -1 -27.351562 -0.816406 -27.96875 -0.609375 -28.625 C -0.410156 -29.28125 -0.175781 -29.929688 0.09375 -30.578125 C 0.375 -31.222656 0.695312 -31.820312 1.0625 -32.375 C 1.425781 -32.9375 1.851562 -33.414062 2.34375 -33.8125 C 2.71875 -34.113281 3.148438 -34.34375 3.640625 -34.5 C 4.140625 -34.664062 4.648438 -34.75 5.171875 -34.75 C 5.691406 -34.75 6.191406 -34.660156 6.671875 -34.484375 C 7.160156 -34.304688 7.570312 -34.03125 7.90625 -33.65625 C 7.9375 -33.625 7.960938 -33.59375 7.984375 -33.5625 C 8.015625 -33.53125 8.039062 -33.492188 8.0625 -33.453125 C 8.445312 -33.554688 8.835938 -33.59375 9.234375 -33.5625 C 9.640625 -33.539062 9.984375 -33.453125 10.265625 -33.296875 C 10.546875 -33.140625 10.671875 -32.921875 10.640625 -32.640625 C 10.515625 -30.828125 10.394531 -29 10.28125 -27.15625 C 10.175781 -25.3125 10.148438 -23.472656 10.203125 -21.640625 C 10.253906 -19.816406 10.453125 -18.007812 10.796875 -16.21875 C 10.816406 -16.082031 10.84375 -15.945312 10.875 -15.8125 C 10.90625 -15.675781 10.941406 -15.539062 10.984375 -15.40625 C 11.117188 -15.582031 11.25 -15.753906 11.375 -15.921875 C 11.5 -16.085938 11.613281 -16.253906 11.71875 -16.421875 C 12.082031 -16.960938 12.410156 -17.507812 12.703125 -18.0625 C 12.992188 -18.625 13.265625 -19.195312 13.515625 -19.78125 C 14.046875 -21.019531 14.484375 -22.28125 14.828125 -23.5625 C 15.179688 -24.84375 15.453125 -26.15625 15.640625 -27.5 Z M 5 -22.46875 C 5.351562 -23.695312 5.640625 -24.941406 5.859375 -26.203125 C 6.078125 -27.460938 6.289062 -28.722656 6.5 -29.984375 C 6.414062 -30.242188 6.300781 -30.5 6.15625 -30.75 C 6.019531 -30.96875 5.894531 -31.1875 5.78125 -31.40625 C 5.664062 -31.625 5.535156 -31.835938 5.390625 -32.046875 C 5.335938 -32.128906 5.28125 -32.207031 5.21875 -32.28125 C 5.164062 -32.363281 5.109375 -32.441406 5.046875 -32.515625 C 4.953125 -32.378906 4.863281 -32.238281 4.78125 -32.09375 C 4.695312 -31.945312 4.613281 -31.800781 4.53125 -31.65625 C 4.40625 -31.4375 4.28125 -31.207031 4.15625 -30.96875 C 4.039062 -30.726562 3.929688 -30.484375 3.828125 -30.234375 C 3.359375 -29.222656 2.96875 -28.1875 2.65625 -27.125 C 2.300781 -25.976562 2.035156 -24.800781 1.859375 -23.59375 C 1.691406 -22.394531 1.609375 -21.195312 1.609375 -20 C 1.609375 -19.46875 1.617188 -18.929688 1.640625 -18.390625 C 1.671875 -17.847656 1.726562 -17.3125 1.8125 -16.78125 C 1.84375 -16.625 1.890625 -16.375 1.953125 -16.03125 C 2.015625 -15.6875 2.109375 -15.359375 2.234375 -15.046875 C 2.460938 -15.367188 2.671875 -15.738281 2.859375 -16.15625 C 3.046875 -16.582031 3.210938 -16.988281 3.359375 -17.375 C 3.515625 -17.757812 3.625 -18.039062 3.6875 -18.21875 C 3.945312 -18.914062 4.179688 -19.617188 4.390625 -20.328125 C 4.597656 -21.035156 4.800781 -21.75 5 -22.46875 Z M 5 -22.46875 "/></g></g></g><g fill="#ffffff" fill-opacity="1"><g transform="translate(102.03443, 63.499967)"><g><path d="M 9.265625 -25.09375 C 8.660156 -24.5 8.054688 -24.109375 7.453125 -23.921875 C 6.847656 -23.742188 6.210938 -23.875 5.546875 -24.3125 C 5.265625 -24.507812 5.0625 -24.765625 4.9375 -25.078125 C 4.8125 -25.390625 4.757812 -25.703125 4.78125 -26.015625 C 4.8125 -26.328125 4.898438 -26.582031 5.046875 -26.78125 C 5.097656 -26.820312 5.210938 -26.847656 5.390625 -26.859375 C 5.578125 -26.867188 5.765625 -26.859375 5.953125 -26.828125 C 6.148438 -26.804688 6.300781 -26.765625 6.40625 -26.703125 C 6.519531 -26.640625 6.535156 -26.535156 6.453125 -26.390625 C 6.347656 -26.234375 6.296875 -26.054688 6.296875 -25.859375 C 6.304688 -25.660156 6.375 -25.492188 6.5 -25.359375 C 6.625 -25.222656 6.800781 -25.15625 7.03125 -25.15625 C 7.269531 -25.164062 7.484375 -25.320312 7.671875 -25.625 C 7.859375 -25.925781 8.019531 -26.316406 8.15625 -26.796875 C 8.300781 -27.273438 8.414062 -27.785156 8.5 -28.328125 C 8.59375 -28.878906 8.640625 -29.40625 8.640625 -29.90625 C 8.640625 -30.414062 8.59375 -30.84375 8.5 -31.1875 C 8.414062 -31.53125 8.285156 -31.734375 8.109375 -31.796875 C 7.691406 -31.953125 7.257812 -31.882812 6.8125 -31.59375 C 6.363281 -31.300781 5.925781 -30.828125 5.5 -30.171875 C 5.070312 -29.523438 4.671875 -28.726562 4.296875 -27.78125 C 3.929688 -26.84375 3.613281 -25.796875 3.34375 -24.640625 C 3.070312 -23.484375 2.867188 -22.269531 2.734375 -21 C 2.503906 -19.695312 2.390625 -18.320312 2.390625 -16.875 C 2.398438 -15.425781 2.398438 -14.023438 2.390625 -12.671875 C 2.390625 -12.617188 2.390625 -12.5625 2.390625 -12.5 C 2.398438 -12.4375 2.40625 -12.378906 2.40625 -12.328125 L 2.390625 -12.328125 C 2.390625 -12.234375 2.382812 -12.140625 2.375 -12.046875 C 2.363281 -11.960938 2.359375 -11.875 2.359375 -11.78125 C 2.347656 -11.519531 2.222656 -11.320312 1.984375 -11.1875 C 1.753906 -11.0625 1.460938 -10.992188 1.109375 -10.984375 C 0.765625 -10.984375 0.414062 -11.035156 0.0625 -11.140625 C -0.289062 -11.242188 -0.585938 -11.390625 -0.828125 -11.578125 C -1.066406 -11.765625 -1.195312 -11.988281 -1.21875 -12.25 C -1.300781 -14.1875 -1.378906 -16.117188 -1.453125 -18.046875 C -1.535156 -19.972656 -1.585938 -21.898438 -1.609375 -23.828125 C -1.609375 -24.796875 -1.59375 -25.765625 -1.5625 -26.734375 C -1.539062 -27.703125 -1.503906 -28.660156 -1.453125 -29.609375 C -1.410156 -30.191406 -1.351562 -30.804688 -1.28125 -31.453125 C -1.21875 -32.097656 -1.117188 -32.707031 -0.984375 -33.28125 C -0.859375 -33.851562 -0.691406 -34.316406 -0.484375 -34.671875 C -0.378906 -34.847656 -0.195312 -34.992188 0.0625 -35.109375 C 0.320312 -35.222656 0.601562 -35.296875 0.90625 -35.328125 C 1.21875 -35.359375 1.507812 -35.34375 1.78125 -35.28125 C 2.0625 -35.226562 2.285156 -35.125 2.453125 -34.96875 C 2.617188 -34.820312 2.675781 -34.625 2.625 -34.375 C 2.425781 -33.375 2.3125 -32.460938 2.28125 -31.640625 C 2.25 -30.816406 2.207031 -29.957031 2.15625 -29.0625 C 2.132812 -28.550781 2.113281 -28.035156 2.09375 -27.515625 C 2.082031 -26.992188 2.066406 -26.472656 2.046875 -25.953125 C 2.117188 -26.148438 2.1875 -26.34375 2.25 -26.53125 C 2.320312 -26.71875 2.398438 -26.910156 2.484375 -27.109375 C 2.816406 -27.972656 3.175781 -28.847656 3.5625 -29.734375 C 3.957031 -30.617188 4.398438 -31.429688 4.890625 -32.171875 C 5.390625 -32.910156 5.945312 -33.5 6.5625 -33.9375 C 7.1875 -34.375 7.894531 -34.570312 8.6875 -34.53125 C 9.226562 -34.507812 9.664062 -34.3125 10 -33.9375 C 10.34375 -33.5625 10.59375 -33.082031 10.75 -32.5 C 10.914062 -31.914062 11 -31.273438 11 -30.578125 C 11.007812 -29.878906 10.945312 -29.175781 10.8125 -28.46875 C 10.675781 -27.769531 10.476562 -27.125 10.21875 -26.53125 C 9.957031 -25.9375 9.640625 -25.457031 9.265625 -25.09375 Z M 9.265625 -25.09375 "/></g></g></g><g fill="#ffffff" fill-opacity="1"><g transform="translate(114.962854, 63.499967)"><g><path d="M 14.109375 -26.5625 C 14.171875 -26.695312 14.269531 -26.773438 14.40625 -26.796875 C 14.550781 -26.828125 14.671875 -26.800781 14.765625 -26.71875 C 14.867188 -26.644531 14.890625 -26.519531 14.828125 -26.34375 C 14.660156 -25.09375 14.171875 -24.0625 13.359375 -23.25 C 12.554688 -22.4375 11.457031 -21.757812 10.0625 -21.21875 C 9.90625 -20.132812 9.679688 -19.0625 9.390625 -18 C 9.109375 -16.945312 8.757812 -15.984375 8.34375 -15.109375 C 7.925781 -14.234375 7.4375 -13.523438 6.875 -12.984375 C 6.3125 -12.441406 5.675781 -12.148438 4.96875 -12.109375 C 4.15625 -12.054688 3.445312 -12.1875 2.84375 -12.5 C 2.238281 -12.820312 1.71875 -13.269531 1.28125 -13.84375 C 0.851562 -14.414062 0.492188 -15.070312 0.203125 -15.8125 C -0.078125 -16.5625 -0.296875 -17.332031 -0.453125 -18.125 C -0.617188 -18.914062 -0.742188 -19.6875 -0.828125 -20.4375 C -0.910156 -21.1875 -0.960938 -21.867188 -0.984375 -22.484375 C -1.003906 -23.097656 -1.007812 -23.578125 -1 -23.921875 C -1 -24.078125 -0.984375 -24.222656 -0.953125 -24.359375 C -0.929688 -24.503906 -0.898438 -24.628906 -0.859375 -24.734375 C -1.097656 -25.628906 -1.160156 -26.5625 -1.046875 -27.53125 C -0.929688 -28.507812 -0.671875 -29.460938 -0.265625 -30.390625 C 0.128906 -31.316406 0.648438 -32.144531 1.296875 -32.875 C 1.921875 -33.570312 2.585938 -34.035156 3.296875 -34.265625 C 4.015625 -34.503906 4.71875 -34.539062 5.40625 -34.375 C 6.101562 -34.21875 6.71875 -33.90625 7.25 -33.4375 C 8.519531 -32.320312 9.394531 -30.921875 9.875 -29.234375 C 10.363281 -27.546875 10.5 -25.5 10.28125 -23.09375 C 10.28125 -23.007812 10.273438 -22.925781 10.265625 -22.84375 C 10.253906 -22.757812 10.242188 -22.671875 10.234375 -22.578125 C 10.910156 -22.796875 11.546875 -23.082031 12.140625 -23.4375 C 12.734375 -23.789062 13.210938 -24.226562 13.578125 -24.75 C 13.941406 -25.269531 14.117188 -25.875 14.109375 -26.5625 Z M 2.03125 -29.890625 C 1.957031 -29.609375 1.863281 -29.21875 1.75 -28.71875 C 1.632812 -28.226562 1.550781 -27.691406 1.5 -27.109375 C 1.445312 -26.523438 1.457031 -25.953125 1.53125 -25.390625 C 1.738281 -25.265625 1.898438 -25.113281 2.015625 -24.9375 C 2.140625 -24.757812 2.210938 -24.5625 2.234375 -24.34375 C 2.234375 -24.257812 2.234375 -24.148438 2.234375 -24.015625 C 2.234375 -23.890625 2.234375 -23.738281 2.234375 -23.5625 C 2.253906 -23.539062 2.269531 -23.519531 2.28125 -23.5 C 2.300781 -23.488281 2.316406 -23.46875 2.328125 -23.4375 C 2.753906 -22.96875 3.410156 -22.609375 4.296875 -22.359375 C 5.179688 -22.117188 6.160156 -22.015625 7.234375 -22.046875 C 7.304688 -22.773438 7.34375 -23.390625 7.34375 -23.890625 C 7.375 -24.710938 7.378906 -25.578125 7.359375 -26.484375 C 7.347656 -27.398438 7.273438 -28.300781 7.140625 -29.1875 C 7.003906 -30.070312 6.75 -30.882812 6.375 -31.625 C 5.988281 -32.394531 5.59375 -32.878906 5.1875 -33.078125 C 4.78125 -33.273438 4.378906 -33.253906 3.984375 -33.015625 C 3.597656 -32.785156 3.234375 -32.390625 2.890625 -31.828125 C 2.554688 -31.273438 2.269531 -30.628906 2.03125 -29.890625 Z M 4.828125 -14.3125 C 5.128906 -14.34375 5.394531 -14.535156 5.625 -14.890625 C 5.863281 -15.253906 6.070312 -15.726562 6.25 -16.3125 C 6.4375 -16.90625 6.59375 -17.554688 6.71875 -18.265625 C 6.851562 -18.984375 6.960938 -19.691406 7.046875 -20.390625 C 6.203125 -20.265625 5.378906 -20.234375 4.578125 -20.296875 C 3.773438 -20.359375 3.050781 -20.535156 2.40625 -20.828125 C 2.46875 -20.078125 2.554688 -19.316406 2.671875 -18.546875 C 2.796875 -17.785156 2.953125 -17.078125 3.140625 -16.421875 C 3.328125 -15.773438 3.554688 -15.253906 3.828125 -14.859375 C 4.097656 -14.472656 4.429688 -14.289062 4.828125 -14.3125 Z M 4.828125 -14.3125 "/></g></g></g><g fill="#ffffff" fill-opacity="1"><g transform="translate(128.88728, 63.499967)"><g><path d="M 14.8125 -7.890625 C 14.914062 -7.921875 15.070312 -7.9375 15.28125 -7.9375 C 15.5 -7.9375 15.617188 -7.84375 15.640625 -7.65625 C 15.691406 -7.332031 15.625 -7.078125 15.4375 -6.890625 C 15.257812 -6.703125 15.023438 -6.5625 14.734375 -6.46875 C 14.453125 -6.382812 14.175781 -6.328125 13.90625 -6.296875 C 13.21875 -6.203125 12.539062 -6.265625 11.875 -6.484375 C 11.207031 -6.703125 10.648438 -7.082031 10.203125 -7.625 C 9.804688 -8.207031 9.488281 -8.960938 9.25 -9.890625 C 9.007812 -10.828125 8.851562 -11.988281 8.78125 -13.375 C 8.707031 -14.769531 8.726562 -16.4375 8.84375 -18.375 C 8.96875 -20.320312 9.1875 -22.585938 9.5 -25.171875 C 9.820312 -27.765625 10.25 -30.726562 10.78125 -34.0625 C 10.78125 -34.5625 10.773438 -35.0625 10.765625 -35.5625 C 10.765625 -36.0625 10.75 -36.550781 10.71875 -37.03125 C 10.707031 -37.070312 10.703125 -37.109375 10.703125 -37.140625 C 10.703125 -37.179688 10.703125 -37.222656 10.703125 -37.265625 C 10.492188 -36.898438 10.316406 -36.601562 10.171875 -36.375 C 9.890625 -35.925781 9.640625 -35.46875 9.421875 -35 C 9.210938 -34.53125 9.003906 -34.054688 8.796875 -33.578125 C 8.347656 -32.546875 7.953125 -31.488281 7.609375 -30.40625 C 7.273438 -29.332031 6.957031 -28.253906 6.65625 -27.171875 C 6.0625 -24.941406 5.476562 -22.691406 4.90625 -20.421875 C 4.332031 -18.160156 3.785156 -15.90625 3.265625 -13.65625 C 3.210938 -13.4375 3.070312 -13.265625 2.84375 -13.140625 C 2.625 -13.015625 2.367188 -12.941406 2.078125 -12.921875 C 1.796875 -12.898438 1.53125 -12.929688 1.28125 -13.015625 C 1.039062 -13.097656 0.867188 -13.234375 0.765625 -13.421875 C 0.253906 -14.347656 -0.113281 -15.335938 -0.34375 -16.390625 C -0.582031 -17.441406 -0.734375 -18.515625 -0.796875 -19.609375 C -0.867188 -20.703125 -0.910156 -21.757812 -0.921875 -22.78125 C -0.921875 -23.738281 -0.890625 -24.695312 -0.828125 -25.65625 C -0.773438 -26.625 -0.695312 -27.546875 -0.59375 -28.421875 C -0.488281 -29.304688 -0.367188 -30.09375 -0.234375 -30.78125 C -0.109375 -31.46875 0.0234375 -32.015625 0.171875 -32.421875 C 0.242188 -32.617188 0.425781 -32.785156 0.71875 -32.921875 C 1.007812 -33.066406 1.328125 -33.15625 1.671875 -33.1875 C 2.023438 -33.226562 2.328125 -33.1875 2.578125 -33.0625 C 2.835938 -32.945312 2.957031 -32.722656 2.9375 -32.390625 C 2.832031 -30.640625 2.773438 -28.984375 2.765625 -27.421875 C 2.753906 -25.859375 2.796875 -24.269531 2.890625 -22.65625 C 2.898438 -22.425781 2.910156 -22.191406 2.921875 -21.953125 C 2.941406 -21.722656 2.957031 -21.488281 2.96875 -21.25 C 3.3125 -22.71875 3.648438 -24.179688 3.984375 -25.640625 C 4.328125 -27.097656 4.71875 -28.539062 5.15625 -29.96875 C 5.570312 -31.269531 6.035156 -32.550781 6.546875 -33.8125 C 7.054688 -35.070312 7.582031 -36.328125 8.125 -37.578125 C 8.332031 -38.046875 8.578125 -38.507812 8.859375 -38.96875 C 9.140625 -39.4375 9.460938 -39.835938 9.828125 -40.171875 C 10.203125 -40.503906 10.625 -40.710938 11.09375 -40.796875 C 11.3125 -40.835938 11.578125 -40.800781 11.890625 -40.6875 C 12.203125 -40.582031 12.519531 -40.429688 12.84375 -40.234375 C 13.164062 -40.035156 13.445312 -39.832031 13.6875 -39.625 C 13.925781 -39.414062 14.078125 -39.234375 14.140625 -39.078125 C 14.359375 -38.523438 14.5 -37.898438 14.5625 -37.203125 C 14.632812 -36.515625 14.65625 -35.84375 14.625 -35.1875 C 14.601562 -34.539062 14.566406 -34 14.515625 -33.5625 C 14.410156 -32.644531 14.265625 -31.609375 14.078125 -30.453125 C 13.898438 -29.304688 13.707031 -28.082031 13.5 -26.78125 C 13.289062 -25.476562 13.09375 -24.148438 12.90625 -22.796875 C 12.726562 -21.441406 12.582031 -20.101562 12.46875 -18.78125 C 12.363281 -17.457031 12.3125 -16.195312 12.3125 -15 C 12.3125 -13.8125 12.390625 -12.726562 12.546875 -11.75 C 12.710938 -10.78125 12.976562 -9.957031 13.34375 -9.28125 C 13.707031 -8.613281 14.195312 -8.148438 14.8125 -7.890625 Z M 14.8125 -7.890625 "/></g></g></g><g fill="#ffffff" fill-opacity="1"><g transform="translate(145.682513, 63.499967)"><g><path d="M 7.9375 -24.203125 C 7.570312 -23.585938 7.140625 -23.019531 6.640625 -22.5 C 6.148438 -21.988281 5.59375 -21.585938 4.96875 -21.296875 C 4.351562 -21.015625 3.660156 -20.910156 2.890625 -20.984375 C 2.816406 -20.984375 2.738281 -20.988281 2.65625 -21 C 2.582031 -21.007812 2.503906 -21.019531 2.421875 -21.03125 C 2.472656 -20.320312 2.570312 -19.628906 2.71875 -18.953125 C 2.875 -18.273438 3.097656 -17.664062 3.390625 -17.125 C 3.691406 -16.582031 4.085938 -16.140625 4.578125 -15.796875 C 5.078125 -15.460938 5.6875 -15.28125 6.40625 -15.25 C 7.03125 -15.226562 7.617188 -15.375 8.171875 -15.6875 C 8.722656 -16 9.234375 -16.410156 9.703125 -16.921875 C 10.171875 -17.441406 10.597656 -17.988281 10.984375 -18.5625 C 11.378906 -19.132812 11.734375 -19.671875 12.046875 -20.171875 C 12.148438 -20.347656 12.296875 -20.628906 12.484375 -21.015625 C 12.679688 -21.410156 12.890625 -21.863281 13.109375 -22.375 C 13.328125 -22.882812 13.539062 -23.414062 13.75 -23.96875 C 13.96875 -24.53125 14.160156 -25.078125 14.328125 -25.609375 C 14.492188 -26.140625 14.613281 -26.609375 14.6875 -27.015625 C 14.738281 -27.285156 14.851562 -27.457031 15.03125 -27.53125 C 15.207031 -27.613281 15.367188 -27.609375 15.515625 -27.515625 C 15.671875 -27.429688 15.710938 -27.257812 15.640625 -27 C 15.484375 -26.300781 15.257812 -25.507812 14.96875 -24.625 C 14.675781 -23.738281 14.34375 -22.832031 13.96875 -21.90625 C 13.59375 -20.976562 13.195312 -20.078125 12.78125 -19.203125 C 12.257812 -18.097656 11.648438 -17.09375 10.953125 -16.1875 C 10.253906 -15.28125 9.488281 -14.550781 8.65625 -14 C 7.832031 -13.457031 6.953125 -13.15625 6.015625 -13.09375 C 5.140625 -13.019531 4.296875 -13.097656 3.484375 -13.328125 C 2.671875 -13.566406 1.945312 -13.953125 1.3125 -14.484375 C 0.675781 -15.023438 0.160156 -15.707031 -0.234375 -16.53125 C -0.597656 -17.332031 -0.859375 -18.1875 -1.015625 -19.09375 C -1.171875 -20.007812 -1.25 -20.9375 -1.25 -21.875 C -1.257812 -22.820312 -1.238281 -23.726562 -1.1875 -24.59375 C -1.15625 -25.289062 -1.0625 -26.0625 -0.90625 -26.90625 C -0.757812 -27.75 -0.546875 -28.601562 -0.265625 -29.46875 C 0.00390625 -30.34375 0.34375 -31.179688 0.75 -31.984375 C 1.164062 -32.796875 1.648438 -33.519531 2.203125 -34.15625 C 2.765625 -34.800781 3.40625 -35.3125 4.125 -35.6875 C 4.84375 -36.0625 5.644531 -36.25 6.53125 -36.25 C 7.382812 -36.25 8.070312 -36.082031 8.59375 -35.75 C 9.113281 -35.414062 9.492188 -34.957031 9.734375 -34.375 C 9.972656 -33.800781 10.109375 -33.148438 10.140625 -32.421875 C 10.179688 -31.703125 10.132812 -30.945312 10 -30.15625 C 9.875 -29.375 9.691406 -28.601562 9.453125 -27.84375 C 9.222656 -27.09375 8.972656 -26.398438 8.703125 -25.765625 C 8.429688 -25.140625 8.175781 -24.617188 7.9375 -24.203125 Z M 2.390625 -22.5 C 2.421875 -22.476562 2.457031 -22.453125 2.5 -22.421875 C 2.539062 -22.398438 2.585938 -22.375 2.640625 -22.34375 C 3.023438 -22.144531 3.382812 -22.101562 3.71875 -22.21875 C 4.0625 -22.332031 4.375 -22.53125 4.65625 -22.8125 C 4.945312 -23.101562 5.203125 -23.421875 5.421875 -23.765625 C 5.648438 -24.109375 5.84375 -24.410156 6 -24.671875 C 6.570312 -25.703125 7.03125 -26.789062 7.375 -27.9375 C 7.71875 -29.082031 7.894531 -30.238281 7.90625 -31.40625 C 7.925781 -31.707031 7.914062 -32.078125 7.875 -32.515625 C 7.84375 -32.960938 7.757812 -33.390625 7.625 -33.796875 C 7.5 -34.210938 7.28125 -34.503906 6.96875 -34.671875 C 6.6875 -34.835938 6.328125 -34.757812 5.890625 -34.4375 C 5.453125 -34.125 5.007812 -33.597656 4.5625 -32.859375 C 4.113281 -32.128906 3.710938 -31.210938 3.359375 -30.109375 C 3.003906 -29.003906 2.757812 -27.757812 2.625 -26.375 C 2.582031 -25.957031 2.53125 -25.40625 2.46875 -24.71875 C 2.414062 -24.03125 2.390625 -23.289062 2.390625 -22.5 Z M 2.390625 -22.5 "/></g></g></g><g fill="#ffffff" fill-opacity="1"><g transform="translate(160.524813, 63.499967)"><g><path d="M 10.390625 -23.75 C 10.328125 -23.632812 10.164062 -23.550781 9.90625 -23.5 C 9.65625 -23.445312 9.378906 -23.429688 9.078125 -23.453125 C 8.785156 -23.472656 8.539062 -23.53125 8.34375 -23.625 C 8.144531 -23.71875 8.070312 -23.851562 8.125 -24.03125 C 8.28125 -24.582031 8.429688 -25.207031 8.578125 -25.90625 C 8.722656 -26.601562 8.8125 -27.316406 8.84375 -28.046875 C 8.882812 -28.785156 8.84375 -29.5 8.71875 -30.1875 C 8.59375 -30.882812 8.347656 -31.519531 7.984375 -32.09375 C 7.617188 -32.664062 7.09375 -33.128906 6.40625 -33.484375 C 6 -33.691406 5.675781 -33.773438 5.4375 -33.734375 C 5.195312 -33.703125 4.910156 -33.550781 4.578125 -33.28125 C 4.128906 -32.914062 3.742188 -32.460938 3.421875 -31.921875 C 3.097656 -31.378906 2.835938 -30.835938 2.640625 -30.296875 C 2.191406 -29.015625 2.101562 -27.726562 2.375 -26.4375 C 2.65625 -25.144531 3.234375 -23.988281 4.109375 -22.96875 C 4.503906 -22.5 4.945312 -22.082031 5.4375 -21.71875 C 5.925781 -21.363281 6.425781 -21.023438 6.9375 -20.703125 C 7.457031 -20.390625 7.960938 -20.0625 8.453125 -19.71875 C 8.941406 -19.382812 9.394531 -19 9.8125 -18.5625 C 10.34375 -18 10.695312 -17.390625 10.875 -16.734375 C 11.0625 -16.078125 11.046875 -15.4375 10.828125 -14.8125 C 10.617188 -14.195312 10.1875 -13.660156 9.53125 -13.203125 C 8.9375 -12.785156 8.273438 -12.484375 7.546875 -12.296875 C 6.816406 -12.109375 6.09375 -11.992188 5.375 -11.953125 C 4.21875 -11.898438 3.164062 -12.050781 2.21875 -12.40625 C 1.269531 -12.769531 0.5 -13.34375 -0.09375 -14.125 C -0.6875 -14.90625 -1.046875 -15.894531 -1.171875 -17.09375 C -1.203125 -17.351562 -1.097656 -17.5625 -0.859375 -17.71875 C -0.628906 -17.882812 -0.332031 -18 0.03125 -18.0625 C 0.40625 -18.132812 0.773438 -18.148438 1.140625 -18.109375 C 1.515625 -18.066406 1.832031 -17.96875 2.09375 -17.8125 C 2.363281 -17.65625 2.515625 -17.441406 2.546875 -17.171875 C 2.597656 -16.710938 2.703125 -16.234375 2.859375 -15.734375 C 3.015625 -15.242188 3.25 -14.820312 3.5625 -14.46875 C 3.882812 -14.125 4.316406 -13.925781 4.859375 -13.875 C 5.203125 -13.84375 5.546875 -13.890625 5.890625 -14.015625 C 6.242188 -14.140625 6.546875 -14.320312 6.796875 -14.5625 C 7.054688 -14.8125 7.222656 -15.125 7.296875 -15.5 C 7.367188 -15.875 7.300781 -16.296875 7.09375 -16.765625 C 6.925781 -17.160156 6.679688 -17.5 6.359375 -17.78125 C 6.035156 -18.070312 5.6875 -18.332031 5.3125 -18.5625 C 4.9375 -18.789062 4.570312 -19.015625 4.21875 -19.234375 C 3.726562 -19.546875 3.242188 -19.878906 2.765625 -20.234375 C 2.285156 -20.597656 1.835938 -20.984375 1.421875 -21.390625 C 0.609375 -22.191406 -0.0664062 -23.097656 -0.609375 -24.109375 C -1.148438 -25.128906 -1.445312 -26.226562 -1.5 -27.40625 C -1.539062 -28.34375 -1.425781 -29.265625 -1.15625 -30.171875 C -0.882812 -31.078125 -0.484375 -31.910156 0.046875 -32.671875 C 0.585938 -33.441406 1.222656 -34.085938 1.953125 -34.609375 C 2.691406 -35.128906 3.507812 -35.476562 4.40625 -35.65625 C 5.3125 -35.832031 6.257812 -35.789062 7.25 -35.53125 C 8.34375 -35.238281 9.226562 -34.773438 9.90625 -34.140625 C 10.59375 -33.515625 11.097656 -32.78125 11.421875 -31.9375 C 11.753906 -31.09375 11.921875 -30.191406 11.921875 -29.234375 C 11.929688 -28.285156 11.800781 -27.335938 11.53125 -26.390625 C 11.269531 -25.453125 10.890625 -24.570312 10.390625 -23.75 Z M 10.390625 -23.75 "/></g></g></g><g fill="#ffffff" fill-opacity="1"><g transform="translate(174.23441, 63.499967)"><g/></g></g><g fill="#ffffff" fill-opacity="1"><g transform="translate(184.057675, 63.499967)"><g><path d="M 15.640625 -27.5 C 15.660156 -27.5625 15.738281 -27.597656 15.875 -27.609375 C 16.019531 -27.628906 16.164062 -27.625 16.3125 -27.59375 C 16.457031 -27.570312 16.519531 -27.53125 16.5 -27.46875 C 16.3125 -25.832031 16.050781 -24.195312 15.71875 -22.5625 C 15.382812 -20.9375 14.9375 -19.347656 14.375 -17.796875 C 14.164062 -17.210938 13.929688 -16.613281 13.671875 -16 C 13.410156 -15.394531 13.09375 -14.859375 12.71875 -14.390625 C 12.351562 -13.921875 11.894531 -13.585938 11.34375 -13.390625 C 10.800781 -13.191406 10.140625 -13.195312 9.359375 -13.40625 C 8.722656 -13.582031 8.222656 -13.914062 7.859375 -14.40625 C 7.492188 -14.90625 7.222656 -15.492188 7.046875 -16.171875 C 6.867188 -16.847656 6.75 -17.539062 6.6875 -18.25 C 6.550781 -17.832031 6.40625 -17.414062 6.25 -17 C 6.101562 -16.59375 5.941406 -16.191406 5.765625 -15.796875 C 5.523438 -15.265625 5.238281 -14.757812 4.90625 -14.28125 C 4.582031 -13.8125 4.207031 -13.414062 3.78125 -13.09375 C 3.351562 -12.78125 2.875 -12.578125 2.34375 -12.484375 C 1.820312 -12.398438 1.238281 -12.484375 0.59375 -12.734375 C 0.03125 -12.953125 -0.414062 -13.28125 -0.75 -13.71875 C -1.09375 -14.15625 -1.351562 -14.644531 -1.53125 -15.1875 C -1.707031 -15.738281 -1.832031 -16.304688 -1.90625 -16.890625 C -1.976562 -17.484375 -2.023438 -18.039062 -2.046875 -18.5625 C -2.128906 -19.945312 -2.09375 -21.328125 -1.9375 -22.703125 C -1.78125 -24.078125 -1.519531 -25.4375 -1.15625 -26.78125 C -1 -27.351562 -0.816406 -27.96875 -0.609375 -28.625 C -0.410156 -29.28125 -0.175781 -29.929688 0.09375 -30.578125 C 0.375 -31.222656 0.695312 -31.820312 1.0625 -32.375 C 1.425781 -32.9375 1.851562 -33.414062 2.34375 -33.8125 C 2.71875 -34.113281 3.148438 -34.34375 3.640625 -34.5 C 4.140625 -34.664062 4.648438 -34.75 5.171875 -34.75 C 5.691406 -34.75 6.191406 -34.660156 6.671875 -34.484375 C 7.160156 -34.304688 7.570312 -34.03125 7.90625 -33.65625 C 7.9375 -33.625 7.960938 -33.59375 7.984375 -33.5625 C 8.015625 -33.53125 8.039062 -33.492188 8.0625 -33.453125 C 8.445312 -33.554688 8.835938 -33.59375 9.234375 -33.5625 C 9.640625 -33.539062 9.984375 -33.453125 10.265625 -33.296875 C 10.546875 -33.140625 10.671875 -32.921875 10.640625 -32.640625 C 10.515625 -30.828125 10.394531 -29 10.28125 -27.15625 C 10.175781 -25.3125 10.148438 -23.472656 10.203125 -21.640625 C 10.253906 -19.816406 10.453125 -18.007812 10.796875 -16.21875 C 10.816406 -16.082031 10.84375 -15.945312 10.875 -15.8125 C 10.90625 -15.675781 10.941406 -15.539062 10.984375 -15.40625 C 11.117188 -15.582031 11.25 -15.753906 11.375 -15.921875 C 11.5 -16.085938 11.613281 -16.253906 11.71875 -16.421875 C 12.082031 -16.960938 12.410156 -17.507812 12.703125 -18.0625 C 12.992188 -18.625 13.265625 -19.195312 13.515625 -19.78125 C 14.046875 -21.019531 14.484375 -22.28125 14.828125 -23.5625 C 15.179688 -24.84375 15.453125 -26.15625 15.640625 -27.5 Z M 5 -22.46875 C 5.351562 -23.695312 5.640625 -24.941406 5.859375 -26.203125 C 6.078125 -27.460938 6.289062 -28.722656 6.5 -29.984375 C 6.414062 -30.242188 6.300781 -30.5 6.15625 -30.75 C 6.019531 -30.96875 5.894531 -31.1875 5.78125 -31.40625 C 5.664062 -31.625 5.535156 -31.835938 5.390625 -32.046875 C 5.335938 -32.128906 5.28125 -32.207031 5.21875 -32.28125 C 5.164062 -32.363281 5.109375 -32.441406 5.046875 -32.515625 C 4.953125 -32.378906 4.863281 -32.238281 4.78125 -32.09375 C 4.695312 -31.945312 4.613281 -31.800781 4.53125 -31.65625 C 4.40625 -31.4375 4.28125 -31.207031 4.15625 -30.96875 C 4.039062 -30.726562 3.929688 -30.484375 3.828125 -30.234375 C 3.359375 -29.222656 2.96875 -28.1875 2.65625 -27.125 C 2.300781 -25.976562 2.035156 -24.800781 1.859375 -23.59375 C 1.691406 -22.394531 1.609375 -21.195312 1.609375 -20 C 1.609375 -19.46875 1.617188 -18.929688 1.640625 -18.390625 C 1.671875 -17.847656 1.726562 -17.3125 1.8125 -16.78125 C 1.84375 -16.625 1.890625 -16.375 1.953125 -16.03125 C 2.015625 -15.6875 2.109375 -15.359375 2.234375 -15.046875 C 2.460938 -15.367188 2.671875 -15.738281 2.859375 -16.15625 C 3.046875 -16.582031 3.210938 -16.988281 3.359375 -17.375 C 3.515625 -17.757812 3.625 -18.039062 3.6875 -18.21875 C 3.945312 -18.914062 4.179688 -19.617188 4.390625 -20.328125 C 4.597656 -21.035156 4.800781 -21.75 5 -22.46875 Z M 5 -22.46875 "/></g></g></g><g fill="#ffffff" fill-opacity="1"><g transform="translate(199.817858, 63.499967)"><g><path d="M 12.171875 -25.859375 C 11.867188 -24.515625 11.570312 -23.175781 11.28125 -21.84375 C 11 -20.519531 10.695312 -19.265625 10.375 -18.078125 C 10.0625 -16.890625 9.710938 -15.820312 9.328125 -14.875 C 8.941406 -13.925781 8.503906 -13.164062 8.015625 -12.59375 C 7.523438 -12.019531 6.96875 -11.691406 6.34375 -11.609375 C 5.351562 -11.460938 4.488281 -11.550781 3.75 -11.875 C 3.007812 -12.195312 2.375 -12.691406 1.84375 -13.359375 C 1.320312 -14.035156 0.878906 -14.820312 0.515625 -15.71875 C 0.160156 -16.625 -0.125 -17.578125 -0.34375 -18.578125 C -0.5625 -19.578125 -0.722656 -20.578125 -0.828125 -21.578125 C -0.941406 -22.585938 -1.019531 -23.53125 -1.0625 -24.40625 C -1.113281 -25.28125 -1.144531 -26.03125 -1.15625 -26.65625 C -1.195312 -28.976562 -1.125 -31.335938 -0.9375 -33.734375 C -0.757812 -36.140625 -0.441406 -38.523438 0.015625 -40.890625 C 0.472656 -43.265625 1.085938 -45.546875 1.859375 -47.734375 C 2.335938 -49.097656 2.796875 -50.234375 3.234375 -51.140625 C 3.671875 -52.046875 4.082031 -52.769531 4.46875 -53.3125 C 4.851562 -53.863281 5.210938 -54.273438 5.546875 -54.546875 C 5.890625 -54.828125 6.203125 -55.007812 6.484375 -55.09375 C 7.523438 -55.457031 8.4375 -55.210938 9.21875 -54.359375 C 9.632812 -53.898438 9.890625 -53.207031 9.984375 -52.28125 C 10.085938 -51.363281 10.050781 -50.273438 9.875 -49.015625 C 9.707031 -47.753906 9.421875 -46.398438 9.015625 -44.953125 C 8.609375 -43.503906 8.085938 -42.015625 7.453125 -40.484375 C 6.816406 -38.960938 6.09375 -37.46875 5.28125 -36 C 4.46875 -34.53125 3.582031 -33.160156 2.625 -31.890625 C 2.59375 -31.441406 2.570312 -30.898438 2.5625 -30.265625 C 2.550781 -29.628906 2.546875 -28.992188 2.546875 -28.359375 C 2.546875 -27.734375 2.546875 -27.191406 2.546875 -26.734375 C 2.566406 -25.347656 2.640625 -23.9375 2.765625 -22.5 C 2.890625 -21.070312 3.117188 -19.671875 3.453125 -18.296875 C 3.628906 -17.691406 3.828125 -17.082031 4.046875 -16.46875 C 4.273438 -15.851562 4.554688 -15.273438 4.890625 -14.734375 C 5.097656 -14.398438 5.300781 -14.140625 5.5 -13.953125 C 5.695312 -13.773438 6 -13.695312 6.40625 -13.71875 C 6.75 -13.726562 7.082031 -13.941406 7.40625 -14.359375 C 7.726562 -14.773438 8.035156 -15.320312 8.328125 -16 C 8.617188 -16.675781 8.894531 -17.421875 9.15625 -18.234375 C 9.414062 -19.054688 9.65625 -19.890625 9.875 -20.734375 C 10.101562 -21.585938 10.304688 -22.394531 10.484375 -23.15625 C 10.660156 -23.914062 10.8125 -24.566406 10.9375 -25.109375 C 11.070312 -25.648438 11.171875 -26.023438 11.234375 -26.234375 C 11.335938 -26.546875 11.476562 -26.710938 11.65625 -26.734375 C 11.832031 -26.765625 11.976562 -26.691406 12.09375 -26.515625 C 12.207031 -26.347656 12.234375 -26.128906 12.171875 -25.859375 Z M 4.34375 -43.640625 C 4.0625 -42.242188 3.804688 -40.84375 3.578125 -39.4375 C 3.359375 -38.03125 3.160156 -36.617188 2.984375 -35.203125 C 3.160156 -35.359375 3.394531 -35.6875 3.6875 -36.1875 C 3.988281 -36.695312 4.328125 -37.335938 4.703125 -38.109375 C 5.085938 -38.890625 5.476562 -39.75 5.875 -40.6875 C 6.269531 -41.625 6.648438 -42.601562 7.015625 -43.625 C 7.390625 -44.65625 7.71875 -45.675781 8 -46.6875 C 8.289062 -47.695312 8.507812 -48.660156 8.65625 -49.578125 C 8.800781 -50.492188 8.847656 -51.3125 8.796875 -52.03125 C 8.753906 -52.757812 8.582031 -53.335938 8.28125 -53.765625 C 8.019531 -53.691406 7.753906 -53.453125 7.484375 -53.046875 C 7.210938 -52.640625 6.941406 -52.128906 6.671875 -51.515625 C 6.398438 -50.898438 6.144531 -50.226562 5.90625 -49.5 C 5.664062 -48.78125 5.441406 -48.050781 5.234375 -47.3125 C 5.023438 -46.582031 4.84375 -45.894531 4.6875 -45.25 C 4.539062 -44.613281 4.425781 -44.078125 4.34375 -43.640625 Z M 4.34375 -43.640625 "/></g></g></g><g fill="#ffffff" fill-opacity="1"><g transform="translate(211.008176, 63.499967)"><g/></g></g><g fill="#ffffff" fill-opacity="1"><g transform="translate(220.831441, 63.499967)"><g><path d="M 30.453125 -23.953125 C 30.398438 -28.347656 30.492188 -32.742188 30.734375 -37.140625 C 30.984375 -41.535156 31.300781 -45.925781 31.6875 -50.3125 C 31.195312 -48.84375 30.710938 -47.316406 30.234375 -45.734375 C 29.765625 -44.148438 29.304688 -42.578125 28.859375 -41.015625 C 28.410156 -39.460938 27.976562 -37.976562 27.5625 -36.5625 C 27.15625 -35.15625 26.773438 -33.890625 26.421875 -32.765625 C 26.078125 -31.640625 25.765625 -30.710938 25.484375 -29.984375 C 25.203125 -29.253906 24.960938 -28.796875 24.765625 -28.609375 C 24.390625 -28.265625 23.96875 -28.015625 23.5 -27.859375 C 23.03125 -27.710938 22.601562 -27.679688 22.21875 -27.765625 C 21.84375 -27.859375 21.601562 -28.085938 21.5 -28.453125 C 21.125 -29.804688 20.867188 -31.15625 20.734375 -32.5 C 20.597656 -33.851562 20.53125 -35.207031 20.53125 -36.5625 C 20.539062 -37.914062 20.578125 -39.273438 20.640625 -40.640625 C 20.710938 -42.015625 20.753906 -43.390625 20.765625 -44.765625 C 20.648438 -44.171875 20.53125 -43.570312 20.40625 -42.96875 C 20.289062 -42.375 20.175781 -41.769531 20.0625 -41.15625 C 19.65625 -38.988281 19.21875 -36.828125 18.75 -34.671875 C 18.289062 -32.523438 17.796875 -30.382812 17.265625 -28.25 C 16.785156 -26.238281 16.257812 -24.226562 15.6875 -22.21875 C 15.125 -20.207031 14.535156 -18.210938 13.921875 -16.234375 C 13.585938 -15.140625 13.226562 -14.03125 12.84375 -12.90625 C 12.457031 -11.789062 12.007812 -10.707031 11.5 -9.65625 C 11 -8.613281 10.382812 -7.632812 9.65625 -6.71875 C 9.289062 -6.25 8.804688 -5.859375 8.203125 -5.546875 C 7.609375 -5.242188 6.960938 -5.046875 6.265625 -4.953125 C 5.578125 -4.867188 4.90625 -4.90625 4.25 -5.0625 C 3.59375 -5.226562 3.015625 -5.539062 2.515625 -6 C 1.921875 -6.5625 1.429688 -7.34375 1.046875 -8.34375 C 0.660156 -9.34375 0.382812 -10.488281 0.21875 -11.78125 C 0.0625 -13.082031 0 -14.460938 0.03125 -15.921875 C 0.0703125 -17.390625 0.210938 -18.863281 0.453125 -20.34375 C 0.703125 -21.820312 1.039062 -23.242188 1.46875 -24.609375 C 1.894531 -25.972656 2.410156 -27.207031 3.015625 -28.3125 C 3.617188 -29.425781 4.304688 -30.34375 5.078125 -31.0625 C 5.859375 -31.789062 6.71875 -32.238281 7.65625 -32.40625 C 8.539062 -32.570312 9.265625 -32.519531 9.828125 -32.25 C 10.390625 -31.976562 10.8125 -31.539062 11.09375 -30.9375 C 11.382812 -30.34375 11.5625 -29.632812 11.625 -28.8125 C 11.695312 -28 11.6875 -27.132812 11.59375 -26.21875 C 11.507812 -25.300781 11.363281 -24.375 11.15625 -23.4375 C 10.957031 -22.5 10.726562 -21.613281 10.46875 -20.78125 C 10.21875 -19.945312 9.96875 -19.210938 9.71875 -18.578125 C 9.476562 -17.953125 9.265625 -17.484375 9.078125 -17.171875 C 8.890625 -16.929688 8.640625 -16.753906 8.328125 -16.640625 C 8.023438 -16.535156 7.722656 -16.488281 7.421875 -16.5 C 7.117188 -16.519531 6.894531 -16.59375 6.75 -16.71875 C 6.601562 -16.851562 6.585938 -17.035156 6.703125 -17.265625 C 7.546875 -18.878906 8.226562 -20.476562 8.75 -22.0625 C 9.28125 -23.65625 9.613281 -25.3125 9.75 -27.03125 C 9.769531 -27.269531 9.789062 -27.578125 9.8125 -27.953125 C 9.84375 -28.328125 9.847656 -28.71875 9.828125 -29.125 C 9.816406 -29.53125 9.757812 -29.90625 9.65625 -30.25 C 9.550781 -30.59375 9.375 -30.84375 9.125 -31 C 8.914062 -31.144531 8.691406 -31.144531 8.453125 -31 C 8.210938 -30.863281 7.972656 -30.644531 7.734375 -30.34375 C 7.503906 -30.050781 7.285156 -29.722656 7.078125 -29.359375 C 6.867188 -29.003906 6.6875 -28.671875 6.53125 -28.359375 C 6.375 -28.046875 6.253906 -27.804688 6.171875 -27.640625 C 5.734375 -26.710938 5.320312 -25.648438 4.9375 -24.453125 C 4.5625 -23.265625 4.238281 -22.015625 3.96875 -20.703125 C 3.695312 -19.390625 3.484375 -18.066406 3.328125 -16.734375 C 3.179688 -15.410156 3.101562 -14.140625 3.09375 -12.921875 C 3.09375 -11.710938 3.171875 -10.617188 3.328125 -9.640625 C 3.492188 -8.660156 3.753906 -7.851562 4.109375 -7.21875 C 4.472656 -6.582031 4.941406 -6.195312 5.515625 -6.0625 C 6.003906 -5.9375 6.503906 -6.113281 7.015625 -6.59375 C 7.535156 -7.082031 8.054688 -7.8125 8.578125 -8.78125 C 9.109375 -9.75 9.632812 -10.90625 10.15625 -12.25 C 10.675781 -13.601562 11.191406 -15.082031 11.703125 -16.6875 C 12.210938 -18.300781 12.707031 -19.984375 13.1875 -21.734375 C 13.664062 -23.484375 14.125 -25.253906 14.5625 -27.046875 C 15.007812 -28.847656 15.425781 -30.601562 15.8125 -32.3125 C 16.207031 -34.03125 16.5625 -35.648438 16.875 -37.171875 C 17.195312 -38.703125 17.476562 -40.082031 17.71875 -41.3125 C 17.96875 -42.550781 18.171875 -43.578125 18.328125 -44.390625 C 18.484375 -45.203125 18.578125 -45.75 18.609375 -46.03125 C 18.753906 -46.945312 18.875 -47.863281 18.96875 -48.78125 C 19.070312 -49.695312 19.15625 -50.566406 19.21875 -51.390625 C 19.28125 -52.222656 19.332031 -52.96875 19.375 -53.625 C 19.425781 -54.289062 19.476562 -54.820312 19.53125 -55.21875 C 19.5625 -55.488281 19.695312 -55.703125 19.9375 -55.859375 C 20.175781 -56.023438 20.46875 -56.140625 20.8125 -56.203125 C 21.15625 -56.265625 21.5 -56.269531 21.84375 -56.21875 C 22.1875 -56.164062 22.484375 -56.0625 22.734375 -55.90625 C 22.992188 -55.757812 23.148438 -55.554688 23.203125 -55.296875 C 23.523438 -53.835938 23.734375 -52.367188 23.828125 -50.890625 C 23.929688 -49.421875 23.96875 -47.945312 23.9375 -46.46875 C 23.90625 -45 23.859375 -43.519531 23.796875 -42.03125 C 23.742188 -40.550781 23.71875 -39.070312 23.71875 -37.59375 C 23.726562 -36.113281 23.816406 -34.644531 23.984375 -33.1875 C 24.171875 -33.707031 24.332031 -34.226562 24.46875 -34.75 C 24.613281 -35.269531 24.757812 -35.785156 24.90625 -36.296875 C 25.3125 -37.679688 25.710938 -39.070312 26.109375 -40.46875 C 26.503906 -41.863281 26.894531 -43.257812 27.28125 -44.65625 C 27.664062 -45.96875 28.03125 -47.300781 28.375 -48.65625 C 28.71875 -50.007812 29.085938 -51.359375 29.484375 -52.703125 C 29.878906 -54.054688 30.332031 -55.378906 30.84375 -56.671875 C 31.351562 -57.960938 31.953125 -59.203125 32.640625 -60.390625 C 32.742188 -60.554688 32.9375 -60.703125 33.21875 -60.828125 C 33.5 -60.953125 33.816406 -61.039062 34.171875 -61.09375 C 34.523438 -61.144531 34.867188 -61.15625 35.203125 -61.125 C 35.546875 -61.09375 35.820312 -61 36.03125 -60.84375 C 36.238281 -60.695312 36.332031 -60.488281 36.3125 -60.21875 C 35.832031 -55.0625 35.382812 -49.90625 34.96875 -44.75 C 34.550781 -39.59375 34.296875 -34.421875 34.203125 -29.234375 C 34.148438 -26.628906 34.160156 -24.023438 34.234375 -21.421875 C 34.304688 -18.816406 34.445312 -16.210938 34.65625 -13.609375 C 34.757812 -12.460938 34.867188 -11.3125 34.984375 -10.15625 C 35.097656 -9.007812 35.28125 -7.878906 35.53125 -6.765625 C 35.675781 -6.160156 35.835938 -5.5625 36.015625 -4.96875 C 36.203125 -4.375 36.425781 -3.804688 36.6875 -3.265625 C 36.757812 -3.117188 36.867188 -2.910156 37.015625 -2.640625 C 37.171875 -2.378906 37.34375 -2.117188 37.53125 -1.859375 C 37.726562 -1.597656 37.941406 -1.390625 38.171875 -1.234375 C 38.398438 -1.078125 38.625 -1.035156 38.84375 -1.109375 C 39.144531 -1.210938 39.515625 -1.265625 39.953125 -1.265625 C 40.390625 -1.265625 40.738281 -1.15625 41 -0.9375 C 41.21875 -0.769531 41.328125 -0.570312 41.328125 -0.34375 C 41.328125 -0.125 41.175781 0.0546875 40.875 0.203125 C 40.226562 0.492188 39.539062 0.671875 38.8125 0.734375 C 38.082031 0.804688 37.363281 0.742188 36.65625 0.546875 C 35.957031 0.347656 35.320312 0.015625 34.75 -0.453125 C 34.144531 -0.960938 33.65625 -1.5625 33.28125 -2.25 C 32.914062 -2.9375 32.617188 -3.664062 32.390625 -4.4375 C 32.160156 -5.207031 31.960938 -5.957031 31.796875 -6.6875 C 31.390625 -8.539062 31.09375 -10.4375 30.90625 -12.375 C 30.726562 -14.3125 30.613281 -16.25 30.5625 -18.1875 C 30.507812 -20.132812 30.472656 -22.054688 30.453125 -23.953125 Z M 30.453125 -23.953125 "/></g></g></g><g fill="#ffffff" fill-opacity="1"><g transform="translate(260.163523, 63.499967)"><g><path d="M 14.109375 -26.5625 C 14.171875 -26.695312 14.269531 -26.773438 14.40625 -26.796875 C 14.550781 -26.828125 14.671875 -26.800781 14.765625 -26.71875 C 14.867188 -26.644531 14.890625 -26.519531 14.828125 -26.34375 C 14.660156 -25.09375 14.171875 -24.0625 13.359375 -23.25 C 12.554688 -22.4375 11.457031 -21.757812 10.0625 -21.21875 C 9.90625 -20.132812 9.679688 -19.0625 9.390625 -18 C 9.109375 -16.945312 8.757812 -15.984375 8.34375 -15.109375 C 7.925781 -14.234375 7.4375 -13.523438 6.875 -12.984375 C 6.3125 -12.441406 5.675781 -12.148438 4.96875 -12.109375 C 4.15625 -12.054688 3.445312 -12.1875 2.84375 -12.5 C 2.238281 -12.820312 1.71875 -13.269531 1.28125 -13.84375 C 0.851562 -14.414062 0.492188 -15.070312 0.203125 -15.8125 C -0.078125 -16.5625 -0.296875 -17.332031 -0.453125 -18.125 C -0.617188 -18.914062 -0.742188 -19.6875 -0.828125 -20.4375 C -0.910156 -21.1875 -0.960938 -21.867188 -0.984375 -22.484375 C -1.003906 -23.097656 -1.007812 -23.578125 -1 -23.921875 C -1 -24.078125 -0.984375 -24.222656 -0.953125 -24.359375 C -0.929688 -24.503906 -0.898438 -24.628906 -0.859375 -24.734375 C -1.097656 -25.628906 -1.160156 -26.5625 -1.046875 -27.53125 C -0.929688 -28.507812 -0.671875 -29.460938 -0.265625 -30.390625 C 0.128906 -31.316406 0.648438 -32.144531 1.296875 -32.875 C 1.921875 -33.570312 2.585938 -34.035156 3.296875 -34.265625 C 4.015625 -34.503906 4.71875 -34.539062 5.40625 -34.375 C 6.101562 -34.21875 6.71875 -33.90625 7.25 -33.4375 C 8.519531 -32.320312 9.394531 -30.921875 9.875 -29.234375 C 10.363281 -27.546875 10.5 -25.5 10.28125 -23.09375 C 10.28125 -23.007812 10.273438 -22.925781 10.265625 -22.84375 C 10.253906 -22.757812 10.242188 -22.671875 10.234375 -22.578125 C 10.910156 -22.796875 11.546875 -23.082031 12.140625 -23.4375 C 12.734375 -23.789062 13.210938 -24.226562 13.578125 -24.75 C 13.941406 -25.269531 14.117188 -25.875 14.109375 -26.5625 Z M 2.03125 -29.890625 C 1.957031 -29.609375 1.863281 -29.21875 1.75 -28.71875 C 1.632812 -28.226562 1.550781 -27.691406 1.5 -27.109375 C 1.445312 -26.523438 1.457031 -25.953125 1.53125 -25.390625 C 1.738281 -25.265625 1.898438 -25.113281 2.015625 -24.9375 C 2.140625 -24.757812 2.210938 -24.5625 2.234375 -24.34375 C 2.234375 -24.257812 2.234375 -24.148438 2.234375 -24.015625 C 2.234375 -23.890625 2.234375 -23.738281 2.234375 -23.5625 C 2.253906 -23.539062 2.269531 -23.519531 2.28125 -23.5 C 2.300781 -23.488281 2.316406 -23.46875 2.328125 -23.4375 C 2.753906 -22.96875 3.410156 -22.609375 4.296875 -22.359375 C 5.179688 -22.117188 6.160156 -22.015625 7.234375 -22.046875 C 7.304688 -22.773438 7.34375 -23.390625 7.34375 -23.890625 C 7.375 -24.710938 7.378906 -25.578125 7.359375 -26.484375 C 7.347656 -27.398438 7.273438 -28.300781 7.140625 -29.1875 C 7.003906 -30.070312 6.75 -30.882812 6.375 -31.625 C 5.988281 -32.394531 5.59375 -32.878906 5.1875 -33.078125 C 4.78125 -33.273438 4.378906 -33.253906 3.984375 -33.015625 C 3.597656 -32.785156 3.234375 -32.390625 2.890625 -31.828125 C 2.554688 -31.273438 2.269531 -30.628906 2.03125 -29.890625 Z M 4.828125 -14.3125 C 5.128906 -14.34375 5.394531 -14.535156 5.625 -14.890625 C 5.863281 -15.253906 6.070312 -15.726562 6.25 -16.3125 C 6.4375 -16.90625 6.59375 -17.554688 6.71875 -18.265625 C 6.851562 -18.984375 6.960938 -19.691406 7.046875 -20.390625 C 6.203125 -20.265625 5.378906 -20.234375 4.578125 -20.296875 C 3.773438 -20.359375 3.050781 -20.535156 2.40625 -20.828125 C 2.46875 -20.078125 2.554688 -19.316406 2.671875 -18.546875 C 2.796875 -17.785156 2.953125 -17.078125 3.140625 -16.421875 C 3.328125 -15.773438 3.554688 -15.253906 3.828125 -14.859375 C 4.097656 -14.472656 4.429688 -14.289062 4.828125 -14.3125 Z M 4.828125 -14.3125 "/></g></g></g><g fill="#ffffff" fill-opacity="1"><g transform="translate(274.08796, 63.499967)"><g><path d="M 4.296875 -37.15625 C 4.296875 -36.757812 4.035156 -36.425781 3.515625 -36.15625 C 3.003906 -35.882812 2.378906 -35.75 1.640625 -35.75 C 0.910156 -35.75 0.285156 -35.882812 -0.234375 -36.15625 C -0.753906 -36.425781 -1.015625 -36.757812 -1.015625 -37.15625 C -1.015625 -37.414062 -0.894531 -37.648438 -0.65625 -37.859375 C -0.414062 -38.066406 -0.09375 -38.234375 0.3125 -38.359375 C 0.71875 -38.492188 1.160156 -38.5625 1.640625 -38.5625 C 2.378906 -38.5625 3.003906 -38.421875 3.515625 -38.140625 C 4.035156 -37.859375 4.296875 -37.53125 4.296875 -37.15625 Z M 7.4375 -23.5 C 7.644531 -23.757812 7.851562 -23.894531 8.0625 -23.90625 C 8.269531 -23.914062 8.382812 -23.8125 8.40625 -23.59375 C 8.4375 -23.382812 8.28125 -23.0625 7.9375 -22.625 C 7.59375 -22.207031 7.1875 -21.726562 6.71875 -21.1875 C 6.257812 -20.644531 5.800781 -20.097656 5.34375 -19.546875 C 4.894531 -19.003906 4.5 -18.523438 4.15625 -18.109375 C 4.019531 -17.910156 3.875 -17.710938 3.71875 -17.515625 C 3.5625 -17.328125 3.40625 -17.132812 3.25 -16.9375 C 3.25 -15.625 3.25 -14.304688 3.25 -12.984375 C 3.25 -11.671875 3.253906 -10.359375 3.265625 -9.046875 C 3.265625 -7.421875 3.257812 -5.789062 3.25 -4.15625 C 3.25 -2.53125 3.160156 -0.90625 2.984375 0.71875 C 2.910156 1.539062 2.800781 2.394531 2.65625 3.28125 C 2.507812 4.175781 2.273438 5.035156 1.953125 5.859375 C 1.640625 6.679688 1.164062 7.390625 0.53125 7.984375 C -0.144531 8.628906 -0.894531 9.0625 -1.71875 9.28125 C -2.550781 9.5 -3.382812 9.535156 -4.21875 9.390625 C -5.050781 9.253906 -5.835938 8.960938 -6.578125 8.515625 C -7.328125 8.078125 -7.96875 7.519531 -8.5 6.84375 C -9.03125 6.164062 -9.398438 5.394531 -9.609375 4.53125 C -9.910156 3.257812 -9.90625 1.988281 -9.59375 0.71875 C -9.28125 -0.550781 -8.816406 -1.75 -8.203125 -2.875 C -7.453125 -4.25 -6.628906 -5.585938 -5.734375 -6.890625 C -4.835938 -8.191406 -3.914062 -9.460938 -2.96875 -10.703125 C -2.550781 -11.222656 -2.132812 -11.738281 -1.71875 -12.25 C -1.3125 -12.769531 -0.898438 -13.289062 -0.484375 -13.8125 C -0.484375 -13.976562 -0.484375 -14.144531 -0.484375 -14.3125 C -0.484375 -14.488281 -0.484375 -14.660156 -0.484375 -14.828125 C -0.503906 -17.554688 -0.546875 -20.304688 -0.609375 -23.078125 C -0.671875 -25.847656 -0.617188 -28.597656 -0.453125 -31.328125 C -0.679688 -31.390625 -0.898438 -31.484375 -1.109375 -31.609375 C -1.316406 -31.734375 -1.445312 -31.898438 -1.5 -32.109375 C -1.550781 -32.328125 -1.5 -32.507812 -1.34375 -32.65625 C -1.1875 -32.800781 -0.988281 -32.910156 -0.75 -32.984375 C -0.519531 -33.066406 -0.328125 -33.109375 -0.171875 -33.109375 C 0.304688 -33.128906 0.785156 -33.15625 1.265625 -33.1875 C 1.753906 -33.226562 2.238281 -33.257812 2.71875 -33.28125 C 2.894531 -33.289062 3.128906 -33.265625 3.421875 -33.203125 C 3.722656 -33.140625 3.988281 -33.03125 4.21875 -32.875 C 4.457031 -32.726562 4.566406 -32.523438 4.546875 -32.265625 C 4.546875 -31.953125 4.382812 -31.734375 4.0625 -31.609375 C 3.75 -31.484375 3.441406 -31.410156 3.140625 -31.390625 C 3.265625 -29.523438 3.304688 -27.648438 3.265625 -25.765625 C 3.234375 -23.878906 3.226562 -22.003906 3.25 -20.140625 C 3.25 -19.847656 3.25 -19.550781 3.25 -19.25 C 3.25 -18.945312 3.25 -18.644531 3.25 -18.34375 C 3.695312 -18.882812 4.140625 -19.425781 4.578125 -19.96875 C 5.023438 -20.519531 5.472656 -21.070312 5.921875 -21.625 C 6.179688 -21.9375 6.4375 -22.25 6.6875 -22.5625 C 6.945312 -22.875 7.195312 -23.1875 7.4375 -23.5 Z M -0.84375 1.71875 C -0.550781 -0.570312 -0.410156 -2.882812 -0.421875 -5.21875 C -0.429688 -7.550781 -0.445312 -9.875 -0.46875 -12.1875 C -0.632812 -11.957031 -0.804688 -11.722656 -0.984375 -11.484375 C -1.160156 -11.253906 -1.34375 -11.019531 -1.53125 -10.78125 C -2.070312 -10.03125 -2.664062 -9.242188 -3.3125 -8.421875 C -3.957031 -7.609375 -4.59375 -6.753906 -5.21875 -5.859375 C -5.851562 -4.972656 -6.421875 -4.046875 -6.921875 -3.078125 C -7.421875 -2.117188 -7.800781 -1.117188 -8.0625 -0.078125 C -8.320312 0.960938 -8.410156 2.046875 -8.328125 3.171875 C -8.273438 3.765625 -8.128906 4.367188 -7.890625 4.984375 C -7.660156 5.609375 -7.34375 6.160156 -6.9375 6.640625 C -6.53125 7.117188 -6.050781 7.457031 -5.5 7.65625 C -4.945312 7.863281 -4.332031 7.851562 -3.65625 7.625 C -3.09375 7.425781 -2.640625 7.101562 -2.296875 6.65625 C -1.953125 6.21875 -1.6875 5.707031 -1.5 5.125 C -1.3125 4.550781 -1.171875 3.960938 -1.078125 3.359375 C -0.984375 2.765625 -0.90625 2.21875 -0.84375 1.71875 Z M -0.84375 1.71875 "/></g></g></g><g fill="#ffffff" fill-opacity="1"><g transform="translate(281.782509, 63.499967)"><g><path d="M 14.109375 -26.5625 C 14.171875 -26.695312 14.269531 -26.773438 14.40625 -26.796875 C 14.550781 -26.828125 14.671875 -26.800781 14.765625 -26.71875 C 14.867188 -26.644531 14.890625 -26.519531 14.828125 -26.34375 C 14.660156 -25.09375 14.171875 -24.0625 13.359375 -23.25 C 12.554688 -22.4375 11.457031 -21.757812 10.0625 -21.21875 C 9.90625 -20.132812 9.679688 -19.0625 9.390625 -18 C 9.109375 -16.945312 8.757812 -15.984375 8.34375 -15.109375 C 7.925781 -14.234375 7.4375 -13.523438 6.875 -12.984375 C 6.3125 -12.441406 5.675781 -12.148438 4.96875 -12.109375 C 4.15625 -12.054688 3.445312 -12.1875 2.84375 -12.5 C 2.238281 -12.820312 1.71875 -13.269531 1.28125 -13.84375 C 0.851562 -14.414062 0.492188 -15.070312 0.203125 -15.8125 C -0.078125 -16.5625 -0.296875 -17.332031 -0.453125 -18.125 C -0.617188 -18.914062 -0.742188 -19.6875 -0.828125 -20.4375 C -0.910156 -21.1875 -0.960938 -21.867188 -0.984375 -22.484375 C -1.003906 -23.097656 -1.007812 -23.578125 -1 -23.921875 C -1 -24.078125 -0.984375 -24.222656 -0.953125 -24.359375 C -0.929688 -24.503906 -0.898438 -24.628906 -0.859375 -24.734375 C -1.097656 -25.628906 -1.160156 -26.5625 -1.046875 -27.53125 C -0.929688 -28.507812 -0.671875 -29.460938 -0.265625 -30.390625 C 0.128906 -31.316406 0.648438 -32.144531 1.296875 -32.875 C 1.921875 -33.570312 2.585938 -34.035156 3.296875 -34.265625 C 4.015625 -34.503906 4.71875 -34.539062 5.40625 -34.375 C 6.101562 -34.21875 6.71875 -33.90625 7.25 -33.4375 C 8.519531 -32.320312 9.394531 -30.921875 9.875 -29.234375 C 10.363281 -27.546875 10.5 -25.5 10.28125 -23.09375 C 10.28125 -23.007812 10.273438 -22.925781 10.265625 -22.84375 C 10.253906 -22.757812 10.242188 -22.671875 10.234375 -22.578125 C 10.910156 -22.796875 11.546875 -23.082031 12.140625 -23.4375 C 12.734375 -23.789062 13.210938 -24.226562 13.578125 -24.75 C 13.941406 -25.269531 14.117188 -25.875 14.109375 -26.5625 Z M 2.03125 -29.890625 C 1.957031 -29.609375 1.863281 -29.21875 1.75 -28.71875 C 1.632812 -28.226562 1.550781 -27.691406 1.5 -27.109375 C 1.445312 -26.523438 1.457031 -25.953125 1.53125 -25.390625 C 1.738281 -25.265625 1.898438 -25.113281 2.015625 -24.9375 C 2.140625 -24.757812 2.210938 -24.5625 2.234375 -24.34375 C 2.234375 -24.257812 2.234375 -24.148438 2.234375 -24.015625 C 2.234375 -23.890625 2.234375 -23.738281 2.234375 -23.5625 C 2.253906 -23.539062 2.269531 -23.519531 2.28125 -23.5 C 2.300781 -23.488281 2.316406 -23.46875 2.328125 -23.4375 C 2.753906 -22.96875 3.410156 -22.609375 4.296875 -22.359375 C 5.179688 -22.117188 6.160156 -22.015625 7.234375 -22.046875 C 7.304688 -22.773438 7.34375 -23.390625 7.34375 -23.890625 C 7.375 -24.710938 7.378906 -25.578125 7.359375 -26.484375 C 7.347656 -27.398438 7.273438 -28.300781 7.140625 -29.1875 C 7.003906 -30.070312 6.75 -30.882812 6.375 -31.625 C 5.988281 -32.394531 5.59375 -32.878906 5.1875 -33.078125 C 4.78125 -33.273438 4.378906 -33.253906 3.984375 -33.015625 C 3.597656 -32.785156 3.234375 -32.390625 2.890625 -31.828125 C 2.554688 -31.273438 2.269531 -30.628906 2.03125 -29.890625 Z M 4.828125 -14.3125 C 5.128906 -14.34375 5.394531 -14.535156 5.625 -14.890625 C 5.863281 -15.253906 6.070312 -15.726562 6.25 -16.3125 C 6.4375 -16.90625 6.59375 -17.554688 6.71875 -18.265625 C 6.851562 -18.984375 6.960938 -19.691406 7.046875 -20.390625 C 6.203125 -20.265625 5.378906 -20.234375 4.578125 -20.296875 C 3.773438 -20.359375 3.050781 -20.535156 2.40625 -20.828125 C 2.46875 -20.078125 2.554688 -19.316406 2.671875 -18.546875 C 2.796875 -17.785156 2.953125 -17.078125 3.140625 -16.421875 C 3.328125 -15.773438 3.554688 -15.253906 3.828125 -14.859375 C 4.097656 -14.472656 4.429688 -14.289062 4.828125 -14.3125 Z M 4.828125 -14.3125 "/></g></g></g><g fill="#ffffff" fill-opacity="1"><g transform="translate(295.706946, 63.499967)"><g/></g></g><g fill="#ffffff" fill-opacity="1"><g transform="translate(305.53021, 63.499967)"><g><path d="M 17.3125 -25.234375 C 17.320312 -25.285156 17.375 -25.3125 17.46875 -25.3125 C 17.570312 -25.3125 17.613281 -25.285156 17.59375 -25.234375 C 17.351562 -23.441406 17.019531 -21.660156 16.59375 -19.890625 C 16.164062 -18.128906 15.679688 -16.382812 15.140625 -14.65625 C 14.941406 -14.03125 14.613281 -13.5625 14.15625 -13.25 C 13.707031 -12.945312 13.203125 -12.785156 12.640625 -12.765625 C 12.078125 -12.753906 11.53125 -12.875 11 -13.125 C 10.46875 -13.382812 10.023438 -13.753906 9.671875 -14.234375 C 9.148438 -14.960938 8.773438 -15.804688 8.546875 -16.765625 C 8.328125 -17.722656 8.179688 -18.695312 8.109375 -19.6875 C 7.972656 -19.226562 7.835938 -18.769531 7.703125 -18.3125 C 7.566406 -17.863281 7.425781 -17.410156 7.28125 -16.953125 C 7.113281 -16.441406 6.9375 -15.9375 6.75 -15.4375 C 6.5625 -14.945312 6.320312 -14.503906 6.03125 -14.109375 C 5.75 -13.710938 5.390625 -13.398438 4.953125 -13.171875 C 4.523438 -12.941406 3.992188 -12.835938 3.359375 -12.859375 C 2.628906 -12.878906 2.015625 -13.078125 1.515625 -13.453125 C 1.015625 -13.835938 0.601562 -14.320312 0.28125 -14.90625 C -0.0390625 -15.488281 -0.285156 -16.097656 -0.453125 -16.734375 C -0.765625 -17.921875 -0.929688 -19.164062 -0.953125 -20.46875 C -0.984375 -21.78125 -0.894531 -23.101562 -0.6875 -24.4375 C -0.488281 -25.78125 -0.191406 -27.078125 0.203125 -28.328125 C 0.597656 -29.585938 1.070312 -30.75 1.625 -31.8125 C 1.9375 -32.414062 2.289062 -32.96875 2.6875 -33.46875 C 3.09375 -33.976562 3.566406 -34.390625 4.109375 -34.703125 C 4.660156 -35.015625 5.3125 -35.164062 6.0625 -35.15625 C 6.300781 -35.15625 6.585938 -35.125 6.921875 -35.0625 C 7.253906 -35 7.566406 -34.894531 7.859375 -34.75 C 8.046875 -37.625 8.394531 -40.472656 8.90625 -43.296875 C 9.164062 -44.785156 9.453125 -46.316406 9.765625 -47.890625 C 10.078125 -49.460938 10.515625 -50.953125 11.078125 -52.359375 C 11.328125 -52.960938 11.660156 -53.476562 12.078125 -53.90625 C 12.503906 -54.332031 12.96875 -54.644531 13.46875 -54.84375 C 13.976562 -55.039062 14.484375 -55.085938 14.984375 -54.984375 C 15.492188 -54.890625 15.941406 -54.609375 16.328125 -54.140625 C 16.597656 -53.816406 16.804688 -53.367188 16.953125 -52.796875 C 17.097656 -52.222656 17.1875 -51.585938 17.21875 -50.890625 C 17.257812 -50.203125 17.269531 -49.507812 17.25 -48.8125 C 17.238281 -48.125 17.203125 -47.492188 17.140625 -46.921875 C 17.078125 -46.347656 17.015625 -45.894531 16.953125 -45.5625 C 16.648438 -43.96875 16.25 -42.332031 15.75 -40.65625 C 15.25 -38.976562 14.640625 -37.34375 13.921875 -35.75 C 13.210938 -34.15625 12.378906 -32.660156 11.421875 -31.265625 C 11.347656 -28.941406 11.359375 -26.582031 11.453125 -24.1875 C 11.554688 -21.789062 11.84375 -19.453125 12.3125 -17.171875 C 12.375 -16.828125 12.457031 -16.484375 12.5625 -16.140625 C 12.664062 -15.804688 12.804688 -15.492188 12.984375 -15.203125 C 13.023438 -15.148438 13.066406 -15.097656 13.109375 -15.046875 C 13.148438 -15.003906 13.195312 -14.957031 13.25 -14.90625 C 13.375 -15.019531 13.492188 -15.148438 13.609375 -15.296875 C 13.734375 -15.441406 13.835938 -15.582031 13.921875 -15.71875 C 14.117188 -16.007812 14.285156 -16.3125 14.421875 -16.625 C 14.554688 -16.945312 14.691406 -17.257812 14.828125 -17.5625 C 15.390625 -18.800781 15.875 -20.050781 16.28125 -21.3125 C 16.6875 -22.582031 17.03125 -23.890625 17.3125 -25.234375 Z M 13.421875 -47.390625 C 12.898438 -45.109375 12.484375 -42.8125 12.171875 -40.5 C 11.859375 -38.1875 11.632812 -35.863281 11.5 -33.53125 C 11.757812 -34 12.007812 -34.472656 12.25 -34.953125 C 12.5 -35.429688 12.726562 -35.914062 12.9375 -36.40625 C 13.488281 -37.707031 13.976562 -39.035156 14.40625 -40.390625 C 14.832031 -41.742188 15.1875 -43.113281 15.46875 -44.5 C 15.738281 -45.851562 15.898438 -47.160156 15.953125 -48.421875 C 16.003906 -49.679688 15.84375 -50.976562 15.46875 -52.3125 C 15.46875 -52.3125 15.4375 -52.363281 15.375 -52.46875 C 15.320312 -52.570312 15.253906 -52.648438 15.171875 -52.703125 C 15.085938 -52.753906 14.992188 -52.691406 14.890625 -52.515625 C 14.753906 -52.304688 14.644531 -52.078125 14.5625 -51.828125 C 14.488281 -51.585938 14.421875 -51.34375 14.359375 -51.09375 C 14.003906 -49.84375 13.691406 -48.609375 13.421875 -47.390625 Z M 7.671875 -27.5625 C 7.660156 -28.25 7.65625 -28.9375 7.65625 -29.625 C 7.664062 -30.320312 7.679688 -31.007812 7.703125 -31.6875 C 7.609375 -32.175781 7.394531 -32.550781 7.0625 -32.8125 C 6.726562 -33.082031 6.425781 -33.179688 6.15625 -33.109375 C 5.945312 -33.046875 5.734375 -32.910156 5.515625 -32.703125 C 5.304688 -32.503906 5.109375 -32.285156 4.921875 -32.046875 C 4.742188 -31.816406 4.609375 -31.609375 4.515625 -31.421875 C 4.109375 -30.640625 3.78125 -29.828125 3.53125 -28.984375 C 3.289062 -28.148438 3.078125 -27.3125 2.890625 -26.46875 C 2.671875 -25.414062 2.488281 -24.289062 2.34375 -23.09375 C 2.195312 -21.894531 2.132812 -20.710938 2.15625 -19.546875 C 2.1875 -18.390625 2.320312 -17.332031 2.5625 -16.375 C 2.613281 -16.175781 2.675781 -15.972656 2.75 -15.765625 C 2.832031 -15.554688 2.929688 -15.367188 3.046875 -15.203125 C 3.234375 -14.921875 3.410156 -14.773438 3.578125 -14.765625 C 3.742188 -14.765625 3.929688 -14.867188 4.140625 -15.078125 C 4.484375 -15.421875 4.722656 -15.769531 4.859375 -16.125 C 4.992188 -16.476562 5.132812 -16.835938 5.28125 -17.203125 C 5.625 -18.140625 5.9375 -19.085938 6.21875 -20.046875 C 6.507812 -21.003906 6.757812 -21.976562 6.96875 -22.96875 C 7.28125 -24.488281 7.515625 -26.019531 7.671875 -27.5625 Z M 7.671875 -27.5625 "/></g></g></g><g fill="#ffffff" fill-opacity="1"><g transform="translate(322.794148, 63.499967)"><g><path d="M 7.9375 -24.203125 C 7.570312 -23.585938 7.140625 -23.019531 6.640625 -22.5 C 6.148438 -21.988281 5.59375 -21.585938 4.96875 -21.296875 C 4.351562 -21.015625 3.660156 -20.910156 2.890625 -20.984375 C 2.816406 -20.984375 2.738281 -20.988281 2.65625 -21 C 2.582031 -21.007812 2.503906 -21.019531 2.421875 -21.03125 C 2.472656 -20.320312 2.570312 -19.628906 2.71875 -18.953125 C 2.875 -18.273438 3.097656 -17.664062 3.390625 -17.125 C 3.691406 -16.582031 4.085938 -16.140625 4.578125 -15.796875 C 5.078125 -15.460938 5.6875 -15.28125 6.40625 -15.25 C 7.03125 -15.226562 7.617188 -15.375 8.171875 -15.6875 C 8.722656 -16 9.234375 -16.410156 9.703125 -16.921875 C 10.171875 -17.441406 10.597656 -17.988281 10.984375 -18.5625 C 11.378906 -19.132812 11.734375 -19.671875 12.046875 -20.171875 C 12.148438 -20.347656 12.296875 -20.628906 12.484375 -21.015625 C 12.679688 -21.410156 12.890625 -21.863281 13.109375 -22.375 C 13.328125 -22.882812 13.539062 -23.414062 13.75 -23.96875 C 13.96875 -24.53125 14.160156 -25.078125 14.328125 -25.609375 C 14.492188 -26.140625 14.613281 -26.609375 14.6875 -27.015625 C 14.738281 -27.285156 14.851562 -27.457031 15.03125 -27.53125 C 15.207031 -27.613281 15.367188 -27.609375 15.515625 -27.515625 C 15.671875 -27.429688 15.710938 -27.257812 15.640625 -27 C 15.484375 -26.300781 15.257812 -25.507812 14.96875 -24.625 C 14.675781 -23.738281 14.34375 -22.832031 13.96875 -21.90625 C 13.59375 -20.976562 13.195312 -20.078125 12.78125 -19.203125 C 12.257812 -18.097656 11.648438 -17.09375 10.953125 -16.1875 C 10.253906 -15.28125 9.488281 -14.550781 8.65625 -14 C 7.832031 -13.457031 6.953125 -13.15625 6.015625 -13.09375 C 5.140625 -13.019531 4.296875 -13.097656 3.484375 -13.328125 C 2.671875 -13.566406 1.945312 -13.953125 1.3125 -14.484375 C 0.675781 -15.023438 0.160156 -15.707031 -0.234375 -16.53125 C -0.597656 -17.332031 -0.859375 -18.1875 -1.015625 -19.09375 C -1.171875 -20.007812 -1.25 -20.9375 -1.25 -21.875 C -1.257812 -22.820312 -1.238281 -23.726562 -1.1875 -24.59375 C -1.15625 -25.289062 -1.0625 -26.0625 -0.90625 -26.90625 C -0.757812 -27.75 -0.546875 -28.601562 -0.265625 -29.46875 C 0.00390625 -30.34375 0.34375 -31.179688 0.75 -31.984375 C 1.164062 -32.796875 1.648438 -33.519531 2.203125 -34.15625 C 2.765625 -34.800781 3.40625 -35.3125 4.125 -35.6875 C 4.84375 -36.0625 5.644531 -36.25 6.53125 -36.25 C 7.382812 -36.25 8.070312 -36.082031 8.59375 -35.75 C 9.113281 -35.414062 9.492188 -34.957031 9.734375 -34.375 C 9.972656 -33.800781 10.109375 -33.148438 10.140625 -32.421875 C 10.179688 -31.703125 10.132812 -30.945312 10 -30.15625 C 9.875 -29.375 9.691406 -28.601562 9.453125 -27.84375 C 9.222656 -27.09375 8.972656 -26.398438 8.703125 -25.765625 C 8.429688 -25.140625 8.175781 -24.617188 7.9375 -24.203125 Z M 2.390625 -22.5 C 2.421875 -22.476562 2.457031 -22.453125 2.5 -22.421875 C 2.539062 -22.398438 2.585938 -22.375 2.640625 -22.34375 C 3.023438 -22.144531 3.382812 -22.101562 3.71875 -22.21875 C 4.0625 -22.332031 4.375 -22.53125 4.65625 -22.8125 C 4.945312 -23.101562 5.203125 -23.421875 5.421875 -23.765625 C 5.648438 -24.109375 5.84375 -24.410156 6 -24.671875 C 6.570312 -25.703125 7.03125 -26.789062 7.375 -27.9375 C 7.71875 -29.082031 7.894531 -30.238281 7.90625 -31.40625 C 7.925781 -31.707031 7.914062 -32.078125 7.875 -32.515625 C 7.84375 -32.960938 7.757812 -33.390625 7.625 -33.796875 C 7.5 -34.210938 7.28125 -34.503906 6.96875 -34.671875 C 6.6875 -34.835938 6.328125 -34.757812 5.890625 -34.4375 C 5.453125 -34.125 5.007812 -33.597656 4.5625 -32.859375 C 4.113281 -32.128906 3.710938 -31.210938 3.359375 -30.109375 C 3.003906 -29.003906 2.757812 -27.757812 2.625 -26.375 C 2.582031 -25.957031 2.53125 -25.40625 2.46875 -24.71875 C 2.414062 -24.03125 2.390625 -23.289062 2.390625 -22.5 Z M 2.390625 -22.5 "/></g></g></g><g fill="#ffffff" fill-opacity="1"><g transform="translate(337.636447, 63.499967)"><g/></g></g><g fill="#ffffff" fill-opacity="1"><g transform="translate(347.459711, 63.499967)"><g><path d="M 45.6875 -5.90625 C 45.832031 -6.144531 46 -6.296875 46.1875 -6.359375 C 46.382812 -6.421875 46.570312 -6.40625 46.75 -6.3125 C 46.925781 -6.226562 47.054688 -6.09375 47.140625 -5.90625 C 47.234375 -5.726562 47.242188 -5.519531 47.171875 -5.28125 C 46.878906 -4.25 46.394531 -3.398438 45.71875 -2.734375 C 45.039062 -2.066406 44.257812 -1.570312 43.375 -1.25 C 42.488281 -0.9375 41.578125 -0.796875 40.640625 -0.828125 C 39.703125 -0.859375 38.828125 -1.066406 38.015625 -1.453125 C 37.003906 -1.898438 36.144531 -2.5 35.4375 -3.25 C 34.726562 -4 34.132812 -4.835938 33.65625 -5.765625 C 33.175781 -6.703125 32.765625 -7.675781 32.421875 -8.6875 C 32.085938 -9.695312 31.78125 -10.695312 31.5 -11.6875 C 30.84375 -14.132812 30.320312 -16.613281 29.9375 -19.125 C 29.550781 -21.632812 29.273438 -24.15625 29.109375 -26.6875 C 29.109375 -26.707031 29.109375 -26.726562 29.109375 -26.75 C 29.109375 -26.769531 29.109375 -26.785156 29.109375 -26.796875 C 28.484375 -26.679688 27.875 -26.582031 27.28125 -26.5 C 26.445312 -26.382812 25.609375 -26.273438 24.765625 -26.171875 C 23.929688 -26.066406 23.097656 -25.929688 22.265625 -25.765625 C 21.265625 -23.210938 20.140625 -20.710938 18.890625 -18.265625 C 17.640625 -15.828125 16.207031 -13.507812 14.59375 -11.3125 C 14.132812 -10.6875 13.644531 -10.050781 13.125 -9.40625 C 12.601562 -8.757812 12.046875 -8.15625 11.453125 -7.59375 C 10.859375 -7.039062 10.207031 -6.570312 9.5 -6.1875 C 8.800781 -5.8125 8.046875 -5.570312 7.234375 -5.46875 C 6.117188 -5.34375 5.128906 -5.457031 4.265625 -5.8125 C 3.410156 -6.164062 2.707031 -6.722656 2.15625 -7.484375 C 1.601562 -8.253906 1.222656 -9.164062 1.015625 -10.21875 C 0.691406 -11.925781 0.625 -13.671875 0.8125 -15.453125 C 1 -17.242188 1.328125 -18.960938 1.796875 -20.609375 C 2.015625 -21.390625 2.28125 -22.195312 2.59375 -23.03125 C 2.90625 -23.875 3.269531 -24.707031 3.6875 -25.53125 C 4.101562 -26.351562 4.578125 -27.117188 5.109375 -27.828125 C 5.640625 -28.535156 6.226562 -29.148438 6.875 -29.671875 C 7.40625 -30.085938 8.015625 -30.398438 8.703125 -30.609375 C 9.398438 -30.816406 10.101562 -30.894531 10.8125 -30.84375 C 11.519531 -30.789062 12.171875 -30.585938 12.765625 -30.234375 C 13.359375 -29.878906 13.816406 -29.359375 14.140625 -28.671875 C 14.398438 -28.109375 14.554688 -27.515625 14.609375 -26.890625 C 14.671875 -26.265625 14.660156 -25.640625 14.578125 -25.015625 C 14.628906 -25.046875 14.675781 -25.078125 14.71875 -25.109375 C 14.757812 -25.148438 14.804688 -25.191406 14.859375 -25.234375 C 15.742188 -25.847656 16.691406 -26.328125 17.703125 -26.671875 C 18.722656 -27.023438 19.765625 -27.304688 20.828125 -27.515625 C 21.679688 -29.742188 22.5 -31.992188 23.28125 -34.265625 C 24.0625 -36.535156 24.789062 -38.753906 25.46875 -40.921875 C 26.144531 -43.097656 26.765625 -45.140625 27.328125 -47.046875 C 27.890625 -48.960938 28.378906 -50.679688 28.796875 -52.203125 C 29.210938 -53.734375 29.550781 -54.984375 29.8125 -55.953125 C 30.082031 -56.929688 30.253906 -57.554688 30.328125 -57.828125 C 30.398438 -58.035156 30.566406 -58.203125 30.828125 -58.328125 C 31.085938 -58.453125 31.390625 -58.53125 31.734375 -58.5625 C 32.078125 -58.59375 32.414062 -58.582031 32.75 -58.53125 C 33.09375 -58.476562 33.367188 -58.378906 33.578125 -58.234375 C 33.796875 -58.097656 33.898438 -57.90625 33.890625 -57.65625 C 33.753906 -54.882812 33.550781 -52.109375 33.28125 -49.328125 C 33.007812 -46.554688 32.816406 -43.785156 32.703125 -41.015625 C 32.617188 -39.191406 32.566406 -37.367188 32.546875 -35.546875 C 32.523438 -33.722656 32.550781 -31.898438 32.625 -30.078125 C 33.726562 -30.628906 34.664062 -31.363281 35.4375 -32.28125 C 36.21875 -33.207031 36.710938 -34.421875 36.921875 -35.921875 C 36.953125 -36.191406 36.972656 -36.503906 36.984375 -36.859375 C 36.992188 -37.210938 37.019531 -37.554688 37.0625 -37.890625 C 37.101562 -38.234375 37.1875 -38.535156 37.3125 -38.796875 C 37.4375 -39.066406 37.628906 -39.253906 37.890625 -39.359375 C 38.160156 -39.472656 38.523438 -39.472656 38.984375 -39.359375 C 39.597656 -39.203125 40.03125 -38.898438 40.28125 -38.453125 C 40.539062 -38.015625 40.671875 -37.507812 40.671875 -36.9375 C 40.679688 -36.375 40.613281 -35.800781 40.46875 -35.21875 C 40.320312 -34.644531 40.164062 -34.144531 40 -33.71875 C 39.570312 -32.632812 38.984375 -31.703125 38.234375 -30.921875 C 37.492188 -30.148438 36.648438 -29.5 35.703125 -28.96875 C 34.765625 -28.445312 33.769531 -28.015625 32.71875 -27.671875 C 32.738281 -27.191406 32.769531 -26.707031 32.8125 -26.21875 C 32.851562 -25.726562 32.894531 -25.238281 32.9375 -24.75 C 33.175781 -22.050781 33.535156 -19.335938 34.015625 -16.609375 C 34.503906 -13.878906 35.210938 -11.238281 36.140625 -8.6875 C 36.398438 -7.976562 36.707031 -7.257812 37.0625 -6.53125 C 37.414062 -5.8125 37.847656 -5.144531 38.359375 -4.53125 C 38.878906 -3.914062 39.492188 -3.421875 40.203125 -3.046875 C 40.773438 -2.742188 41.328125 -2.628906 41.859375 -2.703125 C 42.398438 -2.773438 42.910156 -2.96875 43.390625 -3.28125 C 43.878906 -3.601562 44.316406 -4 44.703125 -4.46875 C 45.097656 -4.9375 45.425781 -5.414062 45.6875 -5.90625 Z M 7.046875 -7.484375 C 7.929688 -7.546875 8.820312 -7.890625 9.71875 -8.515625 C 10.613281 -9.148438 11.5 -10.015625 12.375 -11.109375 C 13.25 -12.203125 14.113281 -13.476562 14.96875 -14.9375 C 15.820312 -16.394531 16.660156 -17.988281 17.484375 -19.71875 C 18.316406 -21.445312 19.117188 -23.253906 19.890625 -25.140625 C 19.640625 -25.054688 19.394531 -24.96875 19.15625 -24.875 C 18.925781 -24.789062 18.691406 -24.695312 18.453125 -24.59375 C 17.203125 -24.03125 16.128906 -23.363281 15.234375 -22.59375 C 14.347656 -21.832031 13.488281 -20.941406 12.65625 -19.921875 C 12.382812 -19.484375 12.171875 -19.210938 12.015625 -19.109375 C 11.953125 -18.984375 11.816406 -18.894531 11.609375 -18.84375 C 11.410156 -18.789062 11.195312 -18.769531 10.96875 -18.78125 C 10.738281 -18.800781 10.554688 -18.851562 10.421875 -18.9375 C 10.296875 -19.019531 10.265625 -19.144531 10.328125 -19.3125 C 10.378906 -19.445312 10.484375 -19.722656 10.640625 -20.140625 C 10.796875 -20.566406 10.972656 -21.082031 11.171875 -21.6875 C 11.378906 -22.289062 11.570312 -22.929688 11.75 -23.609375 C 11.925781 -24.285156 12.054688 -24.945312 12.140625 -25.59375 C 12.234375 -26.238281 12.253906 -26.8125 12.203125 -27.3125 C 12.148438 -27.8125 11.988281 -28.1875 11.71875 -28.4375 C 11.445312 -28.695312 11.035156 -28.769531 10.484375 -28.65625 C 10.148438 -28.59375 9.828125 -28.421875 9.515625 -28.140625 C 9.203125 -27.867188 8.910156 -27.550781 8.640625 -27.1875 C 8.378906 -26.832031 8.148438 -26.5 7.953125 -26.1875 C 7.765625 -25.875 7.628906 -25.640625 7.546875 -25.484375 C 7.160156 -24.804688 6.8125 -24.109375 6.5 -23.390625 C 6.1875 -22.671875 5.898438 -21.929688 5.640625 -21.171875 C 4.734375 -18.398438 4.335938 -15.5625 4.453125 -12.65625 C 4.484375 -11.976562 4.539062 -11.296875 4.625 -10.609375 C 4.71875 -9.929688 4.921875 -9.285156 5.234375 -8.671875 C 5.472656 -8.203125 5.753906 -7.882812 6.078125 -7.71875 C 6.398438 -7.550781 6.722656 -7.472656 7.046875 -7.484375 Z M 29.078125 -42.109375 C 29.160156 -44.015625 29.257812 -45.90625 29.375 -47.78125 C 29.164062 -47.15625 28.960938 -46.53125 28.765625 -45.90625 C 28.578125 -45.28125 28.390625 -44.644531 28.203125 -44 C 27.566406 -41.84375 26.925781 -39.679688 26.28125 -37.515625 C 25.644531 -35.359375 24.957031 -33.210938 24.21875 -31.078125 C 24.050781 -30.554688 23.867188 -30.03125 23.671875 -29.5 C 23.472656 -28.976562 23.28125 -28.445312 23.09375 -27.90625 C 23.144531 -27.925781 23.1875 -27.9375 23.21875 -27.9375 C 23.257812 -27.945312 23.300781 -27.953125 23.34375 -27.953125 C 24.226562 -28.078125 25.148438 -28.207031 26.109375 -28.34375 C 27.078125 -28.488281 28.035156 -28.664062 28.984375 -28.875 C 28.890625 -31.082031 28.851562 -33.289062 28.875 -35.5 C 28.894531 -37.707031 28.960938 -39.910156 29.078125 -42.109375 Z M 29.078125 -42.109375 "/></g></g></g><g fill="#ffffff" fill-opacity="1"><g transform="translate(390.268027, 63.499967)"><g><path d="M 4.296875 -37.15625 C 4.296875 -36.757812 4.035156 -36.425781 3.515625 -36.15625 C 3.003906 -35.882812 2.378906 -35.75 1.640625 -35.75 C 0.910156 -35.75 0.285156 -35.882812 -0.234375 -36.15625 C -0.753906 -36.425781 -1.015625 -36.757812 -1.015625 -37.15625 C -1.015625 -37.414062 -0.894531 -37.648438 -0.65625 -37.859375 C -0.414062 -38.066406 -0.09375 -38.234375 0.3125 -38.359375 C 0.71875 -38.492188 1.160156 -38.5625 1.640625 -38.5625 C 2.378906 -38.5625 3.003906 -38.421875 3.515625 -38.140625 C 4.035156 -37.859375 4.296875 -37.53125 4.296875 -37.15625 Z M 7.4375 -23.5 C 7.644531 -23.757812 7.851562 -23.894531 8.0625 -23.90625 C 8.269531 -23.914062 8.382812 -23.8125 8.40625 -23.59375 C 8.4375 -23.382812 8.28125 -23.0625 7.9375 -22.625 C 7.59375 -22.207031 7.1875 -21.726562 6.71875 -21.1875 C 6.257812 -20.644531 5.800781 -20.097656 5.34375 -19.546875 C 4.894531 -19.003906 4.5 -18.523438 4.15625 -18.109375 C 4.019531 -17.910156 3.875 -17.710938 3.71875 -17.515625 C 3.5625 -17.328125 3.40625 -17.132812 3.25 -16.9375 C 3.25 -15.625 3.25 -14.304688 3.25 -12.984375 C 3.25 -11.671875 3.253906 -10.359375 3.265625 -9.046875 C 3.265625 -7.421875 3.257812 -5.789062 3.25 -4.15625 C 3.25 -2.53125 3.160156 -0.90625 2.984375 0.71875 C 2.910156 1.539062 2.800781 2.394531 2.65625 3.28125 C 2.507812 4.175781 2.273438 5.035156 1.953125 5.859375 C 1.640625 6.679688 1.164062 7.390625 0.53125 7.984375 C -0.144531 8.628906 -0.894531 9.0625 -1.71875 9.28125 C -2.550781 9.5 -3.382812 9.535156 -4.21875 9.390625 C -5.050781 9.253906 -5.835938 8.960938 -6.578125 8.515625 C -7.328125 8.078125 -7.96875 7.519531 -8.5 6.84375 C -9.03125 6.164062 -9.398438 5.394531 -9.609375 4.53125 C -9.910156 3.257812 -9.90625 1.988281 -9.59375 0.71875 C -9.28125 -0.550781 -8.816406 -1.75 -8.203125 -2.875 C -7.453125 -4.25 -6.628906 -5.585938 -5.734375 -6.890625 C -4.835938 -8.191406 -3.914062 -9.460938 -2.96875 -10.703125 C -2.550781 -11.222656 -2.132812 -11.738281 -1.71875 -12.25 C -1.3125 -12.769531 -0.898438 -13.289062 -0.484375 -13.8125 C -0.484375 -13.976562 -0.484375 -14.144531 -0.484375 -14.3125 C -0.484375 -14.488281 -0.484375 -14.660156 -0.484375 -14.828125 C -0.503906 -17.554688 -0.546875 -20.304688 -0.609375 -23.078125 C -0.671875 -25.847656 -0.617188 -28.597656 -0.453125 -31.328125 C -0.679688 -31.390625 -0.898438 -31.484375 -1.109375 -31.609375 C -1.316406 -31.734375 -1.445312 -31.898438 -1.5 -32.109375 C -1.550781 -32.328125 -1.5 -32.507812 -1.34375 -32.65625 C -1.1875 -32.800781 -0.988281 -32.910156 -0.75 -32.984375 C -0.519531 -33.066406 -0.328125 -33.109375 -0.171875 -33.109375 C 0.304688 -33.128906 0.785156 -33.15625 1.265625 -33.1875 C 1.753906 -33.226562 2.238281 -33.257812 2.71875 -33.28125 C 2.894531 -33.289062 3.128906 -33.265625 3.421875 -33.203125 C 3.722656 -33.140625 3.988281 -33.03125 4.21875 -32.875 C 4.457031 -32.726562 4.566406 -32.523438 4.546875 -32.265625 C 4.546875 -31.953125 4.382812 -31.734375 4.0625 -31.609375 C 3.75 -31.484375 3.441406 -31.410156 3.140625 -31.390625 C 3.265625 -29.523438 3.304688 -27.648438 3.265625 -25.765625 C 3.234375 -23.878906 3.226562 -22.003906 3.25 -20.140625 C 3.25 -19.847656 3.25 -19.550781 3.25 -19.25 C 3.25 -18.945312 3.25 -18.644531 3.25 -18.34375 C 3.695312 -18.882812 4.140625 -19.425781 4.578125 -19.96875 C 5.023438 -20.519531 5.472656 -21.070312 5.921875 -21.625 C 6.179688 -21.9375 6.4375 -22.25 6.6875 -22.5625 C 6.945312 -22.875 7.195312 -23.1875 7.4375 -23.5 Z M -0.84375 1.71875 C -0.550781 -0.570312 -0.410156 -2.882812 -0.421875 -5.21875 C -0.429688 -7.550781 -0.445312 -9.875 -0.46875 -12.1875 C -0.632812 -11.957031 -0.804688 -11.722656 -0.984375 -11.484375 C -1.160156 -11.253906 -1.34375 -11.019531 -1.53125 -10.78125 C -2.070312 -10.03125 -2.664062 -9.242188 -3.3125 -8.421875 C -3.957031 -7.609375 -4.59375 -6.753906 -5.21875 -5.859375 C -5.851562 -4.972656 -6.421875 -4.046875 -6.921875 -3.078125 C -7.421875 -2.117188 -7.800781 -1.117188 -8.0625 -0.078125 C -8.320312 0.960938 -8.410156 2.046875 -8.328125 3.171875 C -8.273438 3.765625 -8.128906 4.367188 -7.890625 4.984375 C -7.660156 5.609375 -7.34375 6.160156 -6.9375 6.640625 C -6.53125 7.117188 -6.050781 7.457031 -5.5 7.65625 C -4.945312 7.863281 -4.332031 7.851562 -3.65625 7.625 C -3.09375 7.425781 -2.640625 7.101562 -2.296875 6.65625 C -1.953125 6.21875 -1.6875 5.707031 -1.5 5.125 C -1.3125 4.550781 -1.171875 3.960938 -1.078125 3.359375 C -0.984375 2.765625 -0.90625 2.21875 -0.84375 1.71875 Z M -0.84375 1.71875 "/></g></g></g><g fill="#ffffff" fill-opacity="1"><g transform="translate(397.962599, 63.499967)"><g><path d="M 14.109375 -26.5625 C 14.171875 -26.695312 14.269531 -26.773438 14.40625 -26.796875 C 14.550781 -26.828125 14.671875 -26.800781 14.765625 -26.71875 C 14.867188 -26.644531 14.890625 -26.519531 14.828125 -26.34375 C 14.660156 -25.09375 14.171875 -24.0625 13.359375 -23.25 C 12.554688 -22.4375 11.457031 -21.757812 10.0625 -21.21875 C 9.90625 -20.132812 9.679688 -19.0625 9.390625 -18 C 9.109375 -16.945312 8.757812 -15.984375 8.34375 -15.109375 C 7.925781 -14.234375 7.4375 -13.523438 6.875 -12.984375 C 6.3125 -12.441406 5.675781 -12.148438 4.96875 -12.109375 C 4.15625 -12.054688 3.445312 -12.1875 2.84375 -12.5 C 2.238281 -12.820312 1.71875 -13.269531 1.28125 -13.84375 C 0.851562 -14.414062 0.492188 -15.070312 0.203125 -15.8125 C -0.078125 -16.5625 -0.296875 -17.332031 -0.453125 -18.125 C -0.617188 -18.914062 -0.742188 -19.6875 -0.828125 -20.4375 C -0.910156 -21.1875 -0.960938 -21.867188 -0.984375 -22.484375 C -1.003906 -23.097656 -1.007812 -23.578125 -1 -23.921875 C -1 -24.078125 -0.984375 -24.222656 -0.953125 -24.359375 C -0.929688 -24.503906 -0.898438 -24.628906 -0.859375 -24.734375 C -1.097656 -25.628906 -1.160156 -26.5625 -1.046875 -27.53125 C -0.929688 -28.507812 -0.671875 -29.460938 -0.265625 -30.390625 C 0.128906 -31.316406 0.648438 -32.144531 1.296875 -32.875 C 1.921875 -33.570312 2.585938 -34.035156 3.296875 -34.265625 C 4.015625 -34.503906 4.71875 -34.539062 5.40625 -34.375 C 6.101562 -34.21875 6.71875 -33.90625 7.25 -33.4375 C 8.519531 -32.320312 9.394531 -30.921875 9.875 -29.234375 C 10.363281 -27.546875 10.5 -25.5 10.28125 -23.09375 C 10.28125 -23.007812 10.273438 -22.925781 10.265625 -22.84375 C 10.253906 -22.757812 10.242188 -22.671875 10.234375 -22.578125 C 10.910156 -22.796875 11.546875 -23.082031 12.140625 -23.4375 C 12.734375 -23.789062 13.210938 -24.226562 13.578125 -24.75 C 13.941406 -25.269531 14.117188 -25.875 14.109375 -26.5625 Z M 2.03125 -29.890625 C 1.957031 -29.609375 1.863281 -29.21875 1.75 -28.71875 C 1.632812 -28.226562 1.550781 -27.691406 1.5 -27.109375 C 1.445312 -26.523438 1.457031 -25.953125 1.53125 -25.390625 C 1.738281 -25.265625 1.898438 -25.113281 2.015625 -24.9375 C 2.140625 -24.757812 2.210938 -24.5625 2.234375 -24.34375 C 2.234375 -24.257812 2.234375 -24.148438 2.234375 -24.015625 C 2.234375 -23.890625 2.234375 -23.738281 2.234375 -23.5625 C 2.253906 -23.539062 2.269531 -23.519531 2.28125 -23.5 C 2.300781 -23.488281 2.316406 -23.46875 2.328125 -23.4375 C 2.753906 -22.96875 3.410156 -22.609375 4.296875 -22.359375 C 5.179688 -22.117188 6.160156 -22.015625 7.234375 -22.046875 C 7.304688 -22.773438 7.34375 -23.390625 7.34375 -23.890625 C 7.375 -24.710938 7.378906 -25.578125 7.359375 -26.484375 C 7.347656 -27.398438 7.273438 -28.300781 7.140625 -29.1875 C 7.003906 -30.070312 6.75 -30.882812 6.375 -31.625 C 5.988281 -32.394531 5.59375 -32.878906 5.1875 -33.078125 C 4.78125 -33.273438 4.378906 -33.253906 3.984375 -33.015625 C 3.597656 -32.785156 3.234375 -32.390625 2.890625 -31.828125 C 2.554688 -31.273438 2.269531 -30.628906 2.03125 -29.890625 Z M 4.828125 -14.3125 C 5.128906 -14.34375 5.394531 -14.535156 5.625 -14.890625 C 5.863281 -15.253906 6.070312 -15.726562 6.25 -16.3125 C 6.4375 -16.90625 6.59375 -17.554688 6.71875 -18.265625 C 6.851562 -18.984375 6.960938 -19.691406 7.046875 -20.390625 C 6.203125 -20.265625 5.378906 -20.234375 4.578125 -20.296875 C 3.773438 -20.359375 3.050781 -20.535156 2.40625 -20.828125 C 2.46875 -20.078125 2.554688 -19.316406 2.671875 -18.546875 C 2.796875 -17.785156 2.953125 -17.078125 3.140625 -16.421875 C 3.328125 -15.773438 3.554688 -15.253906 3.828125 -14.859375 C 4.097656 -14.472656 4.429688 -14.289062 4.828125 -14.3125 Z M 4.828125 -14.3125 "/></g></g></g></svg>