<svg xmlns="http://www.w3.org/2000/svg" xmlns:xlink="http://www.w3.org/1999/xlink" width="1000" zoomAndPan="magnify" viewBox="0 0 750 74.999997" height="100" preserveAspectRatio="xMidYMid meet" version="1.0"><defs><g/></defs><g fill="#ffffff" fill-opacity="1"><g transform="translate(10.394545, 63.499966)"><g><path d="M 30.453125 -23.953125 C 30.398438 -28.347656 30.492188 -32.742188 30.734375 -37.140625 C 30.984375 -41.535156 31.300781 -45.925781 31.6875 -50.3125 C 31.195312 -48.84375 30.710938 -47.316406 30.234375 -45.734375 C 29.765625 -44.148438 29.304688 -42.578125 28.859375 -41.015625 C 28.410156 -39.460938 27.976562 -37.976562 27.5625 -36.5625 C 27.15625 -35.15625 26.773438 -33.890625 26.421875 -32.765625 C 26.078125 -31.640625 25.765625 -30.710938 25.484375 -29.984375 C 25.203125 -29.253906 24.960938 -28.796875 24.765625 -28.609375 C 24.390625 -28.265625 23.96875 -28.015625 23.5 -27.859375 C 23.03125 -27.710938 22.601562 -27.679688 22.21875 -27.765625 C 21.84375 -27.859375 21.601562 -28.085938 21.5 -28.453125 C 21.125 -29.804688 20.867188 -31.15625 20.734375 -32.5 C 20.597656 -33.851562 20.53125 -35.207031 20.53125 -36.5625 C 20.539062 -37.914062 20.578125 -39.273438 20.640625 -40.640625 C 20.710938 -42.015625 20.753906 -43.390625 20.765625 -44.765625 C 20.648438 -44.171875 20.53125 -43.570312 20.40625 -42.96875 C 20.289062 -42.375 20.175781 -41.769531 20.0625 -41.15625 C 19.65625 -38.988281 19.21875 -36.828125 18.75 -34.671875 C 18.289062 -32.523438 17.796875 -30.382812 17.265625 -28.25 C 16.785156 -26.238281 16.257812 -24.226562 15.6875 -22.21875 C 15.125 -20.207031 14.535156 -18.210938 13.921875 -16.234375 C 13.585938 -15.140625 13.226562 -14.03125 12.84375 -12.90625 C 12.457031 -11.789062 12.007812 -10.707031 11.5 -9.65625 C 11 -8.613281 10.382812 -7.632812 9.65625 -6.71875 C 9.289062 -6.25 8.804688 -5.859375 8.203125 -5.546875 C 7.609375 -5.242188 6.960938 -5.046875 6.265625 -4.953125 C 5.578125 -4.867188 4.90625 -4.90625 4.25 -5.0625 C 3.59375 -5.226562 3.015625 -5.539062 2.515625 -6 C 1.921875 -6.5625 1.429688 -7.34375 1.046875 -8.34375 C 0.660156 -9.34375 0.382812 -10.488281 0.21875 -11.78125 C 0.0625 -13.082031 0 -14.460938 0.03125 -15.921875 C 0.0703125 -17.390625 0.210938 -18.863281 0.453125 -20.34375 C 0.703125 -21.820312 1.039062 -23.242188 1.46875 -24.609375 C 1.894531 -25.972656 2.410156 -27.207031 3.015625 -28.3125 C 3.617188 -29.425781 4.304688 -30.34375 5.078125 -31.0625 C 5.859375 -31.789062 6.71875 -32.238281 7.65625 -32.40625 C 8.539062 -32.570312 9.265625 -32.519531 9.828125 -32.25 C 10.390625 -31.976562 10.8125 -31.539062 11.09375 -30.9375 C 11.382812 -30.34375 11.5625 -29.632812 11.625 -28.8125 C 11.695312 -28 11.6875 -27.132812 11.59375 -26.21875 C 11.507812 -25.300781 11.363281 -24.375 11.15625 -23.4375 C 10.957031 -22.5 10.726562 -21.613281 10.46875 -20.78125 C 10.21875 -19.945312 9.96875 -19.210938 9.71875 -18.578125 C 9.476562 -17.953125 9.265625 -17.484375 9.078125 -17.171875 C 8.890625 -16.929688 8.640625 -16.753906 8.328125 -16.640625 C 8.023438 -16.535156 7.722656 -16.488281 7.421875 -16.5 C 7.117188 -16.519531 6.894531 -16.59375 6.75 -16.71875 C 6.601562 -16.851562 6.585938 -17.035156 6.703125 -17.265625 C 7.546875 -18.878906 8.226562 -20.476562 8.75 -22.0625 C 9.28125 -23.65625 9.613281 -25.3125 9.75 -27.03125 C 9.769531 -27.269531 9.789062 -27.578125 9.8125 -27.953125 C 9.84375 -28.328125 9.847656 -28.71875 9.828125 -29.125 C 9.816406 -29.53125 9.757812 -29.90625 9.65625 -30.25 C 9.550781 -30.59375 9.375 -30.84375 9.125 -31 C 8.914062 -31.144531 8.691406 -31.144531 8.453125 -31 C 8.210938 -30.863281 7.972656 -30.644531 7.734375 -30.34375 C 7.503906 -30.050781 7.285156 -29.722656 7.078125 -29.359375 C 6.867188 -29.003906 6.6875 -28.671875 6.53125 -28.359375 C 6.375 -28.046875 6.253906 -27.804688 6.171875 -27.640625 C 5.734375 -26.710938 5.320312 -25.648438 4.9375 -24.453125 C 4.5625 -23.265625 4.238281 -22.015625 3.96875 -20.703125 C 3.695312 -19.390625 3.484375 -18.066406 3.328125 -16.734375 C 3.179688 -15.410156 3.101562 -14.140625 3.09375 -12.921875 C 3.09375 -11.710938 3.171875 -10.617188 3.328125 -9.640625 C 3.492188 -8.660156 3.753906 -7.851562 4.109375 -7.21875 C 4.472656 -6.582031 4.941406 -6.195312 5.515625 -6.0625 C 6.003906 -5.9375 6.503906 -6.113281 7.015625 -6.59375 C 7.535156 -7.082031 8.054688 -7.8125 8.578125 -8.78125 C 9.109375 -9.75 9.632812 -10.90625 10.15625 -12.25 C 10.675781 -13.601562 11.191406 -15.082031 11.703125 -16.6875 C 12.210938 -18.300781 12.707031 -19.984375 13.1875 -21.734375 C 13.664062 -23.484375 14.125 -25.253906 14.5625 -27.046875 C 15.007812 -28.847656 15.425781 -30.601562 15.8125 -32.3125 C 16.207031 -34.03125 16.5625 -35.648438 16.875 -37.171875 C 17.195312 -38.703125 17.476562 -40.082031 17.71875 -41.3125 C 17.96875 -42.550781 18.171875 -43.578125 18.328125 -44.390625 C 18.484375 -45.203125 18.578125 -45.75 18.609375 -46.03125 C 18.753906 -46.945312 18.875 -47.863281 18.96875 -48.78125 C 19.070312 -49.695312 19.15625 -50.566406 19.21875 -51.390625 C 19.28125 -52.222656 19.332031 -52.96875 19.375 -53.625 C 19.425781 -54.289062 19.476562 -54.820312 19.53125 -55.21875 C 19.5625 -55.488281 19.695312 -55.703125 19.9375 -55.859375 C 20.175781 -56.023438 20.46875 -56.140625 20.8125 -56.203125 C 21.15625 -56.265625 21.5 -56.269531 21.84375 -56.21875 C 22.1875 -56.164062 22.484375 -56.0625 22.734375 -55.90625 C 22.992188 -55.757812 23.148438 -55.554688 23.203125 -55.296875 C 23.523438 -53.835938 23.734375 -52.367188 23.828125 -50.890625 C 23.929688 -49.421875 23.96875 -47.945312 23.9375 -46.46875 C 23.90625 -45 23.859375 -43.519531 23.796875 -42.03125 C 23.742188 -40.550781 23.71875 -39.070312 23.71875 -37.59375 C 23.726562 -36.113281 23.816406 -34.644531 23.984375 -33.1875 C 24.171875 -33.707031 24.332031 -34.226562 24.46875 -34.75 C 24.613281 -35.269531 24.757812 -35.785156 24.90625 -36.296875 C 25.3125 -37.679688 25.710938 -39.070312 26.109375 -40.46875 C 26.503906 -41.863281 26.894531 -43.257812 27.28125 -44.65625 C 27.664062 -45.96875 28.03125 -47.300781 28.375 -48.65625 C 28.71875 -50.007812 29.085938 -51.359375 29.484375 -52.703125 C 29.878906 -54.054688 30.332031 -55.378906 30.84375 -56.671875 C 31.351562 -57.960938 31.953125 -59.203125 32.640625 -60.390625 C 32.742188 -60.554688 32.9375 -60.703125 33.21875 -60.828125 C 33.5 -60.953125 33.816406 -61.039062 34.171875 -61.09375 C 34.523438 -61.144531 34.867188 -61.15625 35.203125 -61.125 C 35.546875 -61.09375 35.820312 -61 36.03125 -60.84375 C 36.238281 -60.695312 36.332031 -60.488281 36.3125 -60.21875 C 35.832031 -55.0625 35.382812 -49.90625 34.96875 -44.75 C 34.550781 -39.59375 34.296875 -34.421875 34.203125 -29.234375 C 34.148438 -26.628906 34.160156 -24.023438 34.234375 -21.421875 C 34.304688 -18.816406 34.445312 -16.210938 34.65625 -13.609375 C 34.757812 -12.460938 34.867188 -11.3125 34.984375 -10.15625 C 35.097656 -9.007812 35.28125 -7.878906 35.53125 -6.765625 C 35.675781 -6.160156 35.835938 -5.5625 36.015625 -4.96875 C 36.203125 -4.375 36.425781 -3.804688 36.6875 -3.265625 C 36.757812 -3.117188 36.867188 -2.910156 37.015625 -2.640625 C 37.171875 -2.378906 37.34375 -2.117188 37.53125 -1.859375 C 37.726562 -1.597656 37.941406 -1.390625 38.171875 -1.234375 C 38.398438 -1.078125 38.625 -1.035156 38.84375 -1.109375 C 39.144531 -1.210938 39.515625 -1.265625 39.953125 -1.265625 C 40.390625 -1.265625 40.738281 -1.15625 41 -0.9375 C 41.21875 -0.769531 41.328125 -0.570312 41.328125 -0.34375 C 41.328125 -0.125 41.175781 0.0546875 40.875 0.203125 C 40.226562 0.492188 39.539062 0.671875 38.8125 0.734375 C 38.082031 0.804688 37.363281 0.742188 36.65625 0.546875 C 35.957031 0.347656 35.320312 0.015625 34.75 -0.453125 C 34.144531 -0.960938 33.65625 -1.5625 33.28125 -2.25 C 32.914062 -2.9375 32.617188 -3.664062 32.390625 -4.4375 C 32.160156 -5.207031 31.960938 -5.957031 31.796875 -6.6875 C 31.390625 -8.539062 31.09375 -10.4375 30.90625 -12.375 C 30.726562 -14.3125 30.613281 -16.25 30.5625 -18.1875 C 30.507812 -20.132812 30.472656 -22.054688 30.453125 -23.953125 Z M 30.453125 -23.953125 "/></g></g></g><g fill="#ffffff" fill-opacity="1"><g transform="translate(49.726638, 63.499966)"><g><path d="M 14.109375 -26.5625 C 14.171875 -26.695312 14.269531 -26.773438 14.40625 -26.796875 C 14.550781 -26.828125 14.671875 -26.800781 14.765625 -26.71875 C 14.867188 -26.644531 14.890625 -26.519531 14.828125 -26.34375 C 14.660156 -25.09375 14.171875 -24.0625 13.359375 -23.25 C 12.554688 -22.4375 11.457031 -21.757812 10.0625 -21.21875 C 9.90625 -20.132812 9.679688 -19.0625 9.390625 -18 C 9.109375 -16.945312 8.757812 -15.984375 8.34375 -15.109375 C 7.925781 -14.234375 7.4375 -13.523438 6.875 -12.984375 C 6.3125 -12.441406 5.675781 -12.148438 4.96875 -12.109375 C 4.15625 -12.054688 3.445312 -12.1875 2.84375 -12.5 C 2.238281 -12.820312 1.71875 -13.269531 1.28125 -13.84375 C 0.851562 -14.414062 0.492188 -15.070312 0.203125 -15.8125 C -0.078125 -16.5625 -0.296875 -17.332031 -0.453125 -18.125 C -0.617188 -18.914062 -0.742188 -19.6875 -0.828125 -20.4375 C -0.910156 -21.1875 -0.960938 -21.867188 -0.984375 -22.484375 C -1.003906 -23.097656 -1.007812 -23.578125 -1 -23.921875 C -1 -24.078125 -0.984375 -24.222656 -0.953125 -24.359375 C -0.929688 -24.503906 -0.898438 -24.628906 -0.859375 -24.734375 C -1.097656 -25.628906 -1.160156 -26.5625 -1.046875 -27.53125 C -0.929688 -28.507812 -0.671875 -29.460938 -0.265625 -30.390625 C 0.128906 -31.316406 0.648438 -32.144531 1.296875 -32.875 C 1.921875 -33.570312 2.585938 -34.035156 3.296875 -34.265625 C 4.015625 -34.503906 4.71875 -34.539062 5.40625 -34.375 C 6.101562 -34.21875 6.71875 -33.90625 7.25 -33.4375 C 8.519531 -32.320312 9.394531 -30.921875 9.875 -29.234375 C 10.363281 -27.546875 10.5 -25.5 10.28125 -23.09375 C 10.28125 -23.007812 10.273438 -22.925781 10.265625 -22.84375 C 10.253906 -22.757812 10.242188 -22.671875 10.234375 -22.578125 C 10.910156 -22.796875 11.546875 -23.082031 12.140625 -23.4375 C 12.734375 -23.789062 13.210938 -24.226562 13.578125 -24.75 C 13.941406 -25.269531 14.117188 -25.875 14.109375 -26.5625 Z M 2.03125 -29.890625 C 1.957031 -29.609375 1.863281 -29.21875 1.75 -28.71875 C 1.632812 -28.226562 1.550781 -27.691406 1.5 -27.109375 C 1.445312 -26.523438 1.457031 -25.953125 1.53125 -25.390625 C 1.738281 -25.265625 1.898438 -25.113281 2.015625 -24.9375 C 2.140625 -24.757812 2.210938 -24.5625 2.234375 -24.34375 C 2.234375 -24.257812 2.234375 -24.148438 2.234375 -24.015625 C 2.234375 -23.890625 2.234375 -23.738281 2.234375 -23.5625 C 2.253906 -23.539062 2.269531 -23.519531 2.28125 -23.5 C 2.300781 -23.488281 2.316406 -23.46875 2.328125 -23.4375 C 2.753906 -22.96875 3.410156 -22.609375 4.296875 -22.359375 C 5.179688 -22.117188 6.160156 -22.015625 7.234375 -22.046875 C 7.304688 -22.773438 7.34375 -23.390625 7.34375 -23.890625 C 7.375 -24.710938 7.378906 -25.578125 7.359375 -26.484375 C 7.347656 -27.398438 7.273438 -28.300781 7.140625 -29.1875 C 7.003906 -30.070312 6.75 -30.882812 6.375 -31.625 C 5.988281 -32.394531 5.59375 -32.878906 5.1875 -33.078125 C 4.78125 -33.273438 4.378906 -33.253906 3.984375 -33.015625 C 3.597656 -32.785156 3.234375 -32.390625 2.890625 -31.828125 C 2.554688 -31.273438 2.269531 -30.628906 2.03125 -29.890625 Z M 4.828125 -14.3125 C 5.128906 -14.34375 5.394531 -14.535156 5.625 -14.890625 C 5.863281 -15.253906 6.070312 -15.726562 6.25 -16.3125 C 6.4375 -16.90625 6.59375 -17.554688 6.71875 -18.265625 C 6.851562 -18.984375 6.960938 -19.691406 7.046875 -20.390625 C 6.203125 -20.265625 5.378906 -20.234375 4.578125 -20.296875 C 3.773438 -20.359375 3.050781 -20.535156 2.40625 -20.828125 C 2.46875 -20.078125 2.554688 -19.316406 2.671875 -18.546875 C 2.796875 -17.785156 2.953125 -17.078125 3.140625 -16.421875 C 3.328125 -15.773438 3.554688 -15.253906 3.828125 -14.859375 C 4.097656 -14.472656 4.429688 -14.289062 4.828125 -14.3125 Z M 4.828125 -14.3125 "/></g></g></g><g fill="#ffffff" fill-opacity="1"><g transform="translate(63.651065, 63.499966)"><g><path d="M 12.171875 -25.859375 C 11.867188 -24.515625 11.570312 -23.175781 11.28125 -21.84375 C 11 -20.519531 10.695312 -19.265625 10.375 -18.078125 C 10.0625 -16.890625 9.710938 -15.820312 9.328125 -14.875 C 8.941406 -13.925781 8.503906 -13.164062 8.015625 -12.59375 C 7.523438 -12.019531 6.96875 -11.691406 6.34375 -11.609375 C 5.351562 -11.460938 4.488281 -11.550781 3.75 -11.875 C 3.007812 -12.195312 2.375 -12.691406 1.84375 -13.359375 C 1.320312 -14.035156 0.878906 -14.820312 0.515625 -15.71875 C 0.160156 -16.625 -0.125 -17.578125 -0.34375 -18.578125 C -0.5625 -19.578125 -0.722656 -20.578125 -0.828125 -21.578125 C -0.941406 -22.585938 -1.019531 -23.53125 -1.0625 -24.40625 C -1.113281 -25.28125 -1.144531 -26.03125 -1.15625 -26.65625 C -1.195312 -28.976562 -1.125 -31.335938 -0.9375 -33.734375 C -0.757812 -36.140625 -0.441406 -38.523438 0.015625 -40.890625 C 0.472656 -43.265625 1.085938 -45.546875 1.859375 -47.734375 C 2.335938 -49.097656 2.796875 -50.234375 3.234375 -51.140625 C 3.671875 -52.046875 4.082031 -52.769531 4.46875 -53.3125 C 4.851562 -53.863281 5.210938 -54.273438 5.546875 -54.546875 C 5.890625 -54.828125 6.203125 -55.007812 6.484375 -55.09375 C 7.523438 -55.457031 8.4375 -55.210938 9.21875 -54.359375 C 9.632812 -53.898438 9.890625 -53.207031 9.984375 -52.28125 C 10.085938 -51.363281 10.050781 -50.273438 9.875 -49.015625 C 9.707031 -47.753906 9.421875 -46.398438 9.015625 -44.953125 C 8.609375 -43.503906 8.085938 -42.015625 7.453125 -40.484375 C 6.816406 -38.960938 6.09375 -37.46875 5.28125 -36 C 4.46875 -34.53125 3.582031 -33.160156 2.625 -31.890625 C 2.59375 -31.441406 2.570312 -30.898438 2.5625 -30.265625 C 2.550781 -29.628906 2.546875 -28.992188 2.546875 -28.359375 C 2.546875 -27.734375 2.546875 -27.191406 2.546875 -26.734375 C 2.566406 -25.347656 2.640625 -23.9375 2.765625 -22.5 C 2.890625 -21.070312 3.117188 -19.671875 3.453125 -18.296875 C 3.628906 -17.691406 3.828125 -17.082031 4.046875 -16.46875 C 4.273438 -15.851562 4.554688 -15.273438 4.890625 -14.734375 C 5.097656 -14.398438 5.300781 -14.140625 5.5 -13.953125 C 5.695312 -13.773438 6 -13.695312 6.40625 -13.71875 C 6.75 -13.726562 7.082031 -13.941406 7.40625 -14.359375 C 7.726562 -14.773438 8.035156 -15.320312 8.328125 -16 C 8.617188 -16.675781 8.894531 -17.421875 9.15625 -18.234375 C 9.414062 -19.054688 9.65625 -19.890625 9.875 -20.734375 C 10.101562 -21.585938 10.304688 -22.394531 10.484375 -23.15625 C 10.660156 -23.914062 10.8125 -24.566406 10.9375 -25.109375 C 11.070312 -25.648438 11.171875 -26.023438 11.234375 -26.234375 C 11.335938 -26.546875 11.476562 -26.710938 11.65625 -26.734375 C 11.832031 -26.765625 11.976562 -26.691406 12.09375 -26.515625 C 12.207031 -26.347656 12.234375 -26.128906 12.171875 -25.859375 Z M 4.34375 -43.640625 C 4.0625 -42.242188 3.804688 -40.84375 3.578125 -39.4375 C 3.359375 -38.03125 3.160156 -36.617188 2.984375 -35.203125 C 3.160156 -35.359375 3.394531 -35.6875 3.6875 -36.1875 C 3.988281 -36.695312 4.328125 -37.335938 4.703125 -38.109375 C 5.085938 -38.890625 5.476562 -39.75 5.875 -40.6875 C 6.269531 -41.625 6.648438 -42.601562 7.015625 -43.625 C 7.390625 -44.65625 7.71875 -45.675781 8 -46.6875 C 8.289062 -47.695312 8.507812 -48.660156 8.65625 -49.578125 C 8.800781 -50.492188 8.847656 -51.3125 8.796875 -52.03125 C 8.753906 -52.757812 8.582031 -53.335938 8.28125 -53.765625 C 8.019531 -53.691406 7.753906 -53.453125 7.484375 -53.046875 C 7.210938 -52.640625 6.941406 -52.128906 6.671875 -51.515625 C 6.398438 -50.898438 6.144531 -50.226562 5.90625 -49.5 C 5.664062 -48.78125 5.441406 -48.050781 5.234375 -47.3125 C 5.023438 -46.582031 4.84375 -45.894531 4.6875 -45.25 C 4.539062 -44.613281 4.425781 -44.078125 4.34375 -43.640625 Z M 4.34375 -43.640625 "/></g></g></g><g fill="#ffffff" fill-opacity="1"><g transform="translate(74.841383, 63.499966)"><g><path d="M 7.9375 -24.203125 C 7.570312 -23.585938 7.140625 -23.019531 6.640625 -22.5 C 6.148438 -21.988281 5.59375 -21.585938 4.96875 -21.296875 C 4.351562 -21.015625 3.660156 -20.910156 2.890625 -20.984375 C 2.816406 -20.984375 2.738281 -20.988281 2.65625 -21 C 2.582031 -21.007812 2.503906 -21.019531 2.421875 -21.03125 C 2.472656 -20.320312 2.570312 -19.628906 2.71875 -18.953125 C 2.875 -18.273438 3.097656 -17.664062 3.390625 -17.125 C 3.691406 -16.582031 4.085938 -16.140625 4.578125 -15.796875 C 5.078125 -15.460938 5.6875 -15.28125 6.40625 -15.25 C 7.03125 -15.226562 7.617188 -15.375 8.171875 -15.6875 C 8.722656 -16 9.234375 -16.410156 9.703125 -16.921875 C 10.171875 -17.441406 10.597656 -17.988281 10.984375 -18.5625 C 11.378906 -19.132812 11.734375 -19.671875 12.046875 -20.171875 C 12.148438 -20.347656 12.296875 -20.628906 12.484375 -21.015625 C 12.679688 -21.410156 12.890625 -21.863281 13.109375 -22.375 C 13.328125 -22.882812 13.539062 -23.414062 13.75 -23.96875 C 13.96875 -24.53125 14.160156 -25.078125 14.328125 -25.609375 C 14.492188 -26.140625 14.613281 -26.609375 14.6875 -27.015625 C 14.738281 -27.285156 14.851562 -27.457031 15.03125 -27.53125 C 15.207031 -27.613281 15.367188 -27.609375 15.515625 -27.515625 C 15.671875 -27.429688 15.710938 -27.257812 15.640625 -27 C 15.484375 -26.300781 15.257812 -25.507812 14.96875 -24.625 C 14.675781 -23.738281 14.34375 -22.832031 13.96875 -21.90625 C 13.59375 -20.976562 13.195312 -20.078125 12.78125 -19.203125 C 12.257812 -18.097656 11.648438 -17.09375 10.953125 -16.1875 C 10.253906 -15.28125 9.488281 -14.550781 8.65625 -14 C 7.832031 -13.457031 6.953125 -13.15625 6.015625 -13.09375 C 5.140625 -13.019531 4.296875 -13.097656 3.484375 -13.328125 C 2.671875 -13.566406 1.945312 -13.953125 1.3125 -14.484375 C 0.675781 -15.023438 0.160156 -15.707031 -0.234375 -16.53125 C -0.597656 -17.332031 -0.859375 -18.1875 -1.015625 -19.09375 C -1.171875 -20.007812 -1.25 -20.9375 -1.25 -21.875 C -1.257812 -22.820312 -1.238281 -23.726562 -1.1875 -24.59375 C -1.15625 -25.289062 -1.0625 -26.0625 -0.90625 -26.90625 C -0.757812 -27.75 -0.546875 -28.601562 -0.265625 -29.46875 C 0.00390625 -30.34375 0.34375 -31.179688 0.75 -31.984375 C 1.164062 -32.796875 1.648438 -33.519531 2.203125 -34.15625 C 2.765625 -34.800781 3.40625 -35.3125 4.125 -35.6875 C 4.84375 -36.0625 5.644531 -36.25 6.53125 -36.25 C 7.382812 -36.25 8.070312 -36.082031 8.59375 -35.75 C 9.113281 -35.414062 9.492188 -34.957031 9.734375 -34.375 C 9.972656 -33.800781 10.109375 -33.148438 10.140625 -32.421875 C 10.179688 -31.703125 10.132812 -30.945312 10 -30.15625 C 9.875 -29.375 9.691406 -28.601562 9.453125 -27.84375 C 9.222656 -27.09375 8.972656 -26.398438 8.703125 -25.765625 C 8.429688 -25.140625 8.175781 -24.617188 7.9375 -24.203125 Z M 2.390625 -22.5 C 2.421875 -22.476562 2.457031 -22.453125 2.5 -22.421875 C 2.539062 -22.398438 2.585938 -22.375 2.640625 -22.34375 C 3.023438 -22.144531 3.382812 -22.101562 3.71875 -22.21875 C 4.0625 -22.332031 4.375 -22.53125 4.65625 -22.8125 C 4.945312 -23.101562 5.203125 -23.421875 5.421875 -23.765625 C 5.648438 -24.109375 5.84375 -24.410156 6 -24.671875 C 6.570312 -25.703125 7.03125 -26.789062 7.375 -27.9375 C 7.71875 -29.082031 7.894531 -30.238281 7.90625 -31.40625 C 7.925781 -31.707031 7.914062 -32.078125 7.875 -32.515625 C 7.84375 -32.960938 7.757812 -33.390625 7.625 -33.796875 C 7.5 -34.210938 7.28125 -34.503906 6.96875 -34.671875 C 6.6875 -34.835938 6.328125 -34.757812 5.890625 -34.4375 C 5.453125 -34.125 5.007812 -33.597656 4.5625 -32.859375 C 4.113281 -32.128906 3.710938 -31.210938 3.359375 -30.109375 C 3.003906 -29.003906 2.757812 -27.757812 2.625 -26.375 C 2.582031 -25.957031 2.53125 -25.40625 2.46875 -24.71875 C 2.414062 -24.03125 2.390625 -23.289062 2.390625 -22.5 Z M 2.390625 -22.5 "/></g></g></g><g fill="#ffffff" fill-opacity="1"><g transform="translate(89.683682, 63.499966)"><g/></g></g><g fill="#ffffff" fill-opacity="1"><g transform="translate(99.506946, 63.499966)"><g><path d="M 24.546875 -61.0625 C 25.796875 -61.0625 26.925781 -60.734375 27.9375 -60.078125 C 28.957031 -59.429688 29.710938 -58.535156 30.203125 -57.390625 C 30.597656 -56.453125 30.867188 -55.460938 31.015625 -54.421875 C 31.160156 -53.378906 31.234375 -52.328125 31.234375 -51.265625 C 31.242188 -50.210938 31.238281 -49.191406 31.21875 -48.203125 C 31.132812 -44.878906 30.75 -41.585938 30.0625 -38.328125 C 29.90625 -37.578125 29.722656 -36.773438 29.515625 -35.921875 C 29.316406 -35.078125 29.066406 -34.21875 28.765625 -33.34375 C 28.472656 -32.476562 28.113281 -31.664062 27.6875 -30.90625 C 27.257812 -30.144531 26.75 -29.476562 26.15625 -28.90625 C 25.570312 -28.34375 24.878906 -27.929688 24.078125 -27.671875 C 23.285156 -27.410156 22.375 -27.359375 21.34375 -27.515625 C 20.65625 -27.617188 20.070312 -27.910156 19.59375 -28.390625 C 19.125 -28.878906 18.769531 -29.484375 18.53125 -30.203125 C 18.300781 -30.929688 18.1875 -31.703125 18.1875 -32.515625 C 18.195312 -33.953125 18.351562 -35.296875 18.65625 -36.546875 C 18.957031 -37.796875 19.484375 -38.804688 20.234375 -39.578125 C 20.285156 -39.628906 20.390625 -39.660156 20.546875 -39.671875 C 20.703125 -39.691406 20.847656 -39.6875 20.984375 -39.65625 C 21.117188 -39.632812 21.175781 -39.566406 21.15625 -39.453125 C 21.0625 -38.984375 20.945312 -38.394531 20.8125 -37.6875 C 20.675781 -36.988281 20.550781 -36.238281 20.4375 -35.4375 C 20.332031 -34.632812 20.265625 -33.84375 20.234375 -33.0625 C 20.210938 -32.28125 20.257812 -31.570312 20.375 -30.9375 C 20.5 -30.300781 20.722656 -29.789062 21.046875 -29.40625 C 21.378906 -29.03125 21.835938 -28.859375 22.421875 -28.890625 C 22.921875 -28.910156 23.378906 -29.210938 23.796875 -29.796875 C 24.222656 -30.378906 24.609375 -31.164062 24.953125 -32.15625 C 25.304688 -33.144531 25.625 -34.257812 25.90625 -35.5 C 26.1875 -36.738281 26.429688 -38.039062 26.640625 -39.40625 C 26.847656 -40.78125 27.015625 -42.132812 27.140625 -43.46875 C 27.273438 -44.800781 27.375 -46.050781 27.4375 -47.21875 C 27.507812 -48.394531 27.535156 -49.398438 27.515625 -50.234375 C 27.503906 -50.890625 27.488281 -51.582031 27.46875 -52.3125 C 27.445312 -53.039062 27.390625 -53.769531 27.296875 -54.5 C 27.203125 -55.238281 27.023438 -55.9375 26.765625 -56.59375 C 26.515625 -57.257812 26.148438 -57.847656 25.671875 -58.359375 C 25.421875 -58.617188 25.191406 -58.796875 24.984375 -58.890625 C 24.773438 -58.984375 24.492188 -59.003906 24.140625 -58.953125 C 24.046875 -58.929688 23.820312 -58.832031 23.46875 -58.65625 C 23.113281 -58.488281 22.664062 -58.164062 22.125 -57.6875 C 21.582031 -57.207031 20.992188 -56.53125 20.359375 -55.65625 C 19.734375 -54.789062 19.097656 -53.664062 18.453125 -52.28125 C 17.816406 -50.894531 17.226562 -49.1875 16.6875 -47.15625 C 16.507812 -46.53125 16.351562 -45.898438 16.21875 -45.265625 C 16.09375 -44.628906 15.972656 -43.992188 15.859375 -43.359375 C 15.992188 -39.910156 16 -36.457031 15.875 -33 C 15.757812 -29.539062 15.484375 -26.097656 15.046875 -22.671875 C 14.804688 -20.847656 14.519531 -19.035156 14.1875 -17.234375 C 13.851562 -15.429688 13.46875 -13.640625 13.03125 -11.859375 C 12.789062 -10.941406 12.546875 -10.03125 12.296875 -9.125 C 12.046875 -8.226562 11.769531 -7.328125 11.46875 -6.421875 C 11.269531 -5.835938 11.078125 -5.253906 10.890625 -4.671875 C 10.703125 -4.085938 10.46875 -3.53125 10.1875 -3 C 9.914062 -2.46875 9.546875 -1.984375 9.078125 -1.546875 C 8.953125 -1.410156 8.765625 -1.300781 8.515625 -1.21875 C 8.265625 -1.144531 7.992188 -1.101562 7.703125 -1.09375 C 7.421875 -1.09375 7.160156 -1.132812 6.921875 -1.21875 C 6.679688 -1.300781 6.507812 -1.441406 6.40625 -1.640625 C 6.28125 -1.878906 6.25 -2.1875 6.3125 -2.5625 C 6.375 -2.945312 6.488281 -3.359375 6.65625 -3.796875 C 6.832031 -4.242188 7.015625 -4.6875 7.203125 -5.125 C 7.398438 -5.570312 7.554688 -5.976562 7.671875 -6.34375 C 7.929688 -7.15625 8.1875 -7.960938 8.4375 -8.765625 C 8.6875 -9.578125 8.914062 -10.394531 9.125 -11.21875 C 9.5625 -12.851562 9.941406 -14.503906 10.265625 -16.171875 C 10.597656 -17.835938 10.878906 -19.507812 11.109375 -21.1875 C 11.523438 -24.101562 11.820312 -27.023438 12 -29.953125 C 12.175781 -32.890625 12.253906 -35.820312 12.234375 -38.75 C 12.210938 -40.65625 12.1875 -42.585938 12.15625 -44.546875 C 12.125 -46.503906 12.003906 -48.457031 11.796875 -50.40625 C 11.585938 -52.351562 11.222656 -54.242188 10.703125 -56.078125 C 10.640625 -56.296875 10.546875 -56.609375 10.421875 -57.015625 C 10.296875 -57.421875 10.128906 -57.84375 9.921875 -58.28125 C 9.722656 -58.726562 9.488281 -59.109375 9.21875 -59.421875 C 8.945312 -59.734375 8.625 -59.898438 8.25 -59.921875 C 7.757812 -59.960938 7.316406 -59.828125 6.921875 -59.515625 C 6.535156 -59.203125 6.179688 -58.785156 5.859375 -58.265625 C 5.546875 -57.753906 5.238281 -57.203125 4.9375 -56.609375 C 4.675781 -56.054688 4.398438 -55.398438 4.109375 -54.640625 C 3.816406 -53.878906 3.523438 -53.054688 3.234375 -52.171875 C 2.953125 -51.296875 2.695312 -50.40625 2.46875 -49.5 C 2.238281 -48.59375 2.050781 -47.726562 1.90625 -46.90625 C 1.769531 -46.082031 1.695312 -45.335938 1.6875 -44.671875 C 1.6875 -44.003906 1.765625 -43.46875 1.921875 -43.0625 C 2.085938 -42.664062 2.359375 -42.445312 2.734375 -42.40625 C 3.035156 -42.375 3.351562 -42.5 3.6875 -42.78125 C 4.03125 -43.0625 4.378906 -43.445312 4.734375 -43.9375 C 5.097656 -44.4375 5.453125 -44.992188 5.796875 -45.609375 C 6.148438 -46.222656 6.484375 -46.847656 6.796875 -47.484375 C 7.117188 -48.117188 7.410156 -48.722656 7.671875 -49.296875 C 7.929688 -49.878906 8.148438 -50.375 8.328125 -50.78125 C 8.378906 -50.863281 8.488281 -50.921875 8.65625 -50.953125 C 8.820312 -50.992188 8.976562 -51 9.125 -50.96875 C 9.28125 -50.945312 9.351562 -50.863281 9.34375 -50.71875 C 9.3125 -50.394531 9.1875 -49.941406 8.96875 -49.359375 C 8.757812 -48.785156 8.484375 -48.144531 8.140625 -47.4375 C 7.796875 -46.738281 7.40625 -46.035156 6.96875 -45.328125 C 6.539062 -44.617188 6.085938 -43.96875 5.609375 -43.375 C 5.140625 -42.78125 4.664062 -42.300781 4.1875 -41.9375 C 3.71875 -41.570312 3.265625 -41.390625 2.828125 -41.390625 C 2.273438 -41.390625 1.816406 -41.53125 1.453125 -41.8125 C 1.085938 -42.101562 0.804688 -42.5 0.609375 -43 C 0.410156 -43.5 0.269531 -44.066406 0.1875 -44.703125 C 0.113281 -45.347656 0.078125 -46.023438 0.078125 -46.734375 C 0.078125 -47.390625 0.128906 -48.144531 0.234375 -49 C 0.347656 -49.863281 0.515625 -50.773438 0.734375 -51.734375 C 0.960938 -52.703125 1.242188 -53.664062 1.578125 -54.625 C 1.910156 -55.59375 2.300781 -56.507812 2.75 -57.375 C 3.195312 -58.25 3.695312 -59.023438 4.25 -59.703125 C 4.8125 -60.378906 5.4375 -60.910156 6.125 -61.296875 C 6.8125 -61.691406 7.550781 -61.890625 8.34375 -61.890625 C 9.28125 -61.890625 10.082031 -61.75 10.75 -61.46875 C 11.425781 -61.195312 11.988281 -60.8125 12.4375 -60.3125 C 12.894531 -59.820312 13.273438 -59.242188 13.578125 -58.578125 C 13.890625 -57.910156 14.15625 -57.1875 14.375 -56.40625 C 14.71875 -55.21875 14.972656 -54.019531 15.140625 -52.8125 C 15.316406 -51.613281 15.453125 -50.40625 15.546875 -49.1875 C 15.953125 -50.394531 16.410156 -51.578125 16.921875 -52.734375 C 17.441406 -53.890625 18 -54.96875 18.59375 -55.96875 C 19.195312 -56.976562 19.828125 -57.863281 20.484375 -58.625 C 21.140625 -59.382812 21.8125 -59.976562 22.5 -60.40625 C 23.1875 -60.84375 23.867188 -61.0625 24.546875 -61.0625 Z M 24.546875 -61.0625 "/></g></g></g><g fill="#ffffff" fill-opacity="1"><g transform="translate(129.875078, 63.499966)"><g><path d="M 14.109375 -26.5625 C 14.171875 -26.695312 14.269531 -26.773438 14.40625 -26.796875 C 14.550781 -26.828125 14.671875 -26.800781 14.765625 -26.71875 C 14.867188 -26.644531 14.890625 -26.519531 14.828125 -26.34375 C 14.660156 -25.09375 14.171875 -24.0625 13.359375 -23.25 C 12.554688 -22.4375 11.457031 -21.757812 10.0625 -21.21875 C 9.90625 -20.132812 9.679688 -19.0625 9.390625 -18 C 9.109375 -16.945312 8.757812 -15.984375 8.34375 -15.109375 C 7.925781 -14.234375 7.4375 -13.523438 6.875 -12.984375 C 6.3125 -12.441406 5.675781 -12.148438 4.96875 -12.109375 C 4.15625 -12.054688 3.445312 -12.1875 2.84375 -12.5 C 2.238281 -12.820312 1.71875 -13.269531 1.28125 -13.84375 C 0.851562 -14.414062 0.492188 -15.070312 0.203125 -15.8125 C -0.078125 -16.5625 -0.296875 -17.332031 -0.453125 -18.125 C -0.617188 -18.914062 -0.742188 -19.6875 -0.828125 -20.4375 C -0.910156 -21.1875 -0.960938 -21.867188 -0.984375 -22.484375 C -1.003906 -23.097656 -1.007812 -23.578125 -1 -23.921875 C -1 -24.078125 -0.984375 -24.222656 -0.953125 -24.359375 C -0.929688 -24.503906 -0.898438 -24.628906 -0.859375 -24.734375 C -1.097656 -25.628906 -1.160156 -26.5625 -1.046875 -27.53125 C -0.929688 -28.507812 -0.671875 -29.460938 -0.265625 -30.390625 C 0.128906 -31.316406 0.648438 -32.144531 1.296875 -32.875 C 1.921875 -33.570312 2.585938 -34.035156 3.296875 -34.265625 C 4.015625 -34.503906 4.71875 -34.539062 5.40625 -34.375 C 6.101562 -34.21875 6.71875 -33.90625 7.25 -33.4375 C 8.519531 -32.320312 9.394531 -30.921875 9.875 -29.234375 C 10.363281 -27.546875 10.5 -25.5 10.28125 -23.09375 C 10.28125 -23.007812 10.273438 -22.925781 10.265625 -22.84375 C 10.253906 -22.757812 10.242188 -22.671875 10.234375 -22.578125 C 10.910156 -22.796875 11.546875 -23.082031 12.140625 -23.4375 C 12.734375 -23.789062 13.210938 -24.226562 13.578125 -24.75 C 13.941406 -25.269531 14.117188 -25.875 14.109375 -26.5625 Z M 2.03125 -29.890625 C 1.957031 -29.609375 1.863281 -29.21875 1.75 -28.71875 C 1.632812 -28.226562 1.550781 -27.691406 1.5 -27.109375 C 1.445312 -26.523438 1.457031 -25.953125 1.53125 -25.390625 C 1.738281 -25.265625 1.898438 -25.113281 2.015625 -24.9375 C 2.140625 -24.757812 2.210938 -24.5625 2.234375 -24.34375 C 2.234375 -24.257812 2.234375 -24.148438 2.234375 -24.015625 C 2.234375 -23.890625 2.234375 -23.738281 2.234375 -23.5625 C 2.253906 -23.539062 2.269531 -23.519531 2.28125 -23.5 C 2.300781 -23.488281 2.316406 -23.46875 2.328125 -23.4375 C 2.753906 -22.96875 3.410156 -22.609375 4.296875 -22.359375 C 5.179688 -22.117188 6.160156 -22.015625 7.234375 -22.046875 C 7.304688 -22.773438 7.34375 -23.390625 7.34375 -23.890625 C 7.375 -24.710938 7.378906 -25.578125 7.359375 -26.484375 C 7.347656 -27.398438 7.273438 -28.300781 7.140625 -29.1875 C 7.003906 -30.070312 6.75 -30.882812 6.375 -31.625 C 5.988281 -32.394531 5.59375 -32.878906 5.1875 -33.078125 C 4.78125 -33.273438 4.378906 -33.253906 3.984375 -33.015625 C 3.597656 -32.785156 3.234375 -32.390625 2.890625 -31.828125 C 2.554688 -31.273438 2.269531 -30.628906 2.03125 -29.890625 Z M 4.828125 -14.3125 C 5.128906 -14.34375 5.394531 -14.535156 5.625 -14.890625 C 5.863281 -15.253906 6.070312 -15.726562 6.25 -16.3125 C 6.4375 -16.90625 6.59375 -17.554688 6.71875 -18.265625 C 6.851562 -18.984375 6.960938 -19.691406 7.046875 -20.390625 C 6.203125 -20.265625 5.378906 -20.234375 4.578125 -20.296875 C 3.773438 -20.359375 3.050781 -20.535156 2.40625 -20.828125 C 2.46875 -20.078125 2.554688 -19.316406 2.671875 -18.546875 C 2.796875 -17.785156 2.953125 -17.078125 3.140625 -16.421875 C 3.328125 -15.773438 3.554688 -15.253906 3.828125 -14.859375 C 4.097656 -14.472656 4.429688 -14.289062 4.828125 -14.3125 Z M 4.828125 -14.3125 "/></g></g></g><g fill="#ffffff" fill-opacity="1"><g transform="translate(143.799504, 63.499966)"><g><path d="M 21.703125 -24.15625 C 20.703125 -24.03125 19.722656 -23.773438 18.765625 -23.390625 C 17.804688 -23.015625 16.894531 -22.539062 16.03125 -21.96875 C 16.019531 -20.976562 15.953125 -19.992188 15.828125 -19.015625 C 15.703125 -18.046875 15.53125 -17.09375 15.3125 -16.15625 C 15.164062 -15.53125 15 -14.828125 14.8125 -14.046875 C 14.625 -13.273438 14.382812 -12.503906 14.09375 -11.734375 C 13.800781 -10.972656 13.441406 -10.273438 13.015625 -9.640625 C 12.597656 -9.003906 12.082031 -8.515625 11.46875 -8.171875 C 10.9375 -7.867188 10.390625 -7.695312 9.828125 -7.65625 C 9.273438 -7.613281 8.769531 -7.703125 8.3125 -7.921875 C 7.851562 -8.140625 7.476562 -8.460938 7.1875 -8.890625 C 6.90625 -9.316406 6.75 -9.847656 6.71875 -10.484375 C 6.695312 -11.441406 6.820312 -12.382812 7.09375 -13.3125 C 7.363281 -14.238281 7.742188 -15.128906 8.234375 -15.984375 C 8.722656 -16.847656 9.253906 -17.640625 9.828125 -18.359375 C 10.203125 -18.828125 10.597656 -19.289062 11.015625 -19.75 C 11.441406 -20.207031 11.898438 -20.644531 12.390625 -21.0625 C 12.398438 -21.25 12.40625 -21.441406 12.40625 -21.640625 C 12.414062 -21.835938 12.421875 -22.023438 12.421875 -22.203125 C 12.429688 -22.898438 12.429688 -23.628906 12.421875 -24.390625 C 12.410156 -25.160156 12.34375 -25.914062 12.21875 -26.65625 C 12.09375 -27.40625 11.851562 -28.082031 11.5 -28.6875 C 11.476562 -28.757812 11.425781 -28.863281 11.34375 -29 C 11.257812 -29.144531 11.171875 -29.28125 11.078125 -29.40625 C 10.984375 -29.539062 10.90625 -29.613281 10.84375 -29.625 C 10.695312 -29.664062 10.515625 -29.601562 10.296875 -29.4375 C 10.078125 -29.28125 9.867188 -29.097656 9.671875 -28.890625 C 9.484375 -28.679688 9.351562 -28.535156 9.28125 -28.453125 C 8.914062 -28.054688 8.585938 -27.625 8.296875 -27.15625 C 8.003906 -26.695312 7.734375 -26.21875 7.484375 -25.71875 C 6.960938 -24.71875 6.519531 -23.679688 6.15625 -22.609375 C 5.800781 -21.535156 5.515625 -20.4375 5.296875 -19.3125 C 5.085938 -18.1875 4.929688 -17.050781 4.828125 -15.90625 C 4.722656 -14.769531 4.648438 -13.628906 4.609375 -12.484375 C 4.566406 -11.378906 4.539062 -10.257812 4.53125 -9.125 C 4.53125 -8 4.660156 -6.898438 4.921875 -5.828125 C 4.972656 -5.597656 4.914062 -5.414062 4.75 -5.28125 C 4.59375 -5.15625 4.367188 -5.070312 4.078125 -5.03125 C 3.796875 -4.988281 3.5 -4.972656 3.1875 -4.984375 C 2.875 -4.992188 2.585938 -5.03125 2.328125 -5.09375 C 2.078125 -5.164062 1.90625 -5.253906 1.8125 -5.359375 C 1.21875 -6.035156 0.765625 -6.804688 0.453125 -7.671875 C 0.140625 -8.546875 -0.0859375 -9.453125 -0.234375 -10.390625 C -0.378906 -11.328125 -0.5 -12.226562 -0.59375 -13.09375 C -0.75 -14.707031 -0.859375 -16.328125 -0.921875 -17.953125 C -0.984375 -19.578125 -1.007812 -21.195312 -1 -22.8125 C -0.988281 -25.625 -0.875 -28.460938 -0.65625 -31.328125 C -0.4375 -34.191406 -0.0078125 -37 0.625 -39.75 C 0.914062 -40.9375 1.242188 -42.128906 1.609375 -43.328125 C 1.984375 -44.535156 2.46875 -45.671875 3.0625 -46.734375 C 3.351562 -47.242188 3.695312 -47.765625 4.09375 -48.296875 C 4.5 -48.835938 4.960938 -49.300781 5.484375 -49.6875 C 6.003906 -50.082031 6.578125 -50.316406 7.203125 -50.390625 C 7.566406 -50.429688 7.945312 -50.414062 8.34375 -50.34375 C 8.75 -50.269531 9.066406 -50.082031 9.296875 -49.78125 C 9.515625 -49.507812 9.644531 -49.078125 9.6875 -48.484375 C 9.726562 -47.890625 9.707031 -47.210938 9.625 -46.453125 C 9.539062 -45.691406 9.421875 -44.910156 9.265625 -44.109375 C 9.109375 -43.304688 8.941406 -42.5625 8.765625 -41.875 C 8.597656 -41.1875 8.453125 -40.613281 8.328125 -40.15625 C 7.710938 -38.101562 6.945312 -36.050781 6.03125 -34 C 5.113281 -31.945312 4.019531 -30.03125 2.75 -28.25 C 2.71875 -27.394531 2.691406 -26.539062 2.671875 -25.6875 C 2.648438 -24.84375 2.632812 -23.992188 2.625 -23.140625 C 2.601562 -22.429688 2.597656 -21.71875 2.609375 -21 C 2.628906 -20.28125 2.644531 -19.554688 2.65625 -18.828125 C 2.914062 -20.210938 3.253906 -21.566406 3.671875 -22.890625 C 4.097656 -24.222656 4.648438 -25.5 5.328125 -26.71875 C 5.660156 -27.320312 6.015625 -27.90625 6.390625 -28.46875 C 6.773438 -29.03125 7.203125 -29.53125 7.671875 -29.96875 C 8.140625 -30.414062 8.671875 -30.765625 9.265625 -31.015625 C 9.867188 -31.265625 10.550781 -31.367188 11.3125 -31.328125 C 12.21875 -31.273438 12.96875 -31.023438 13.5625 -30.578125 C 14.15625 -30.140625 14.617188 -29.578125 14.953125 -28.890625 C 15.296875 -28.203125 15.539062 -27.445312 15.6875 -26.625 C 15.78125 -26.125 15.851562 -25.617188 15.90625 -25.109375 C 15.957031 -24.609375 15.992188 -24.109375 16.015625 -23.609375 C 16.890625 -24.078125 17.785156 -24.453125 18.703125 -24.734375 C 19.628906 -25.023438 20.570312 -25.1875 21.53125 -25.21875 C 21.894531 -25.226562 22.132812 -25.148438 22.25 -24.984375 C 22.363281 -24.828125 22.367188 -24.660156 22.265625 -24.484375 C 22.171875 -24.304688 21.984375 -24.195312 21.703125 -24.15625 Z M 4.421875 -40.84375 C 4.054688 -39.289062 3.757812 -37.71875 3.53125 -36.125 C 3.300781 -34.539062 3.113281 -32.945312 2.96875 -31.34375 C 3.832031 -33.050781 4.617188 -34.785156 5.328125 -36.546875 C 6.035156 -38.304688 6.59375 -40.148438 7 -42.078125 C 7.132812 -42.765625 7.253906 -43.445312 7.359375 -44.125 C 7.460938 -44.8125 7.539062 -45.5 7.59375 -46.1875 C 7.625 -46.445312 7.648438 -46.710938 7.671875 -46.984375 C 7.691406 -47.253906 7.710938 -47.519531 7.734375 -47.78125 C 7.734375 -48 7.738281 -48.195312 7.75 -48.375 C 7.769531 -48.5625 7.765625 -48.71875 7.734375 -48.84375 C 7.679688 -48.789062 7.613281 -48.71875 7.53125 -48.625 C 7.445312 -48.539062 7.359375 -48.429688 7.265625 -48.296875 C 6.753906 -47.617188 6.320312 -46.859375 5.96875 -46.015625 C 5.613281 -45.171875 5.3125 -44.300781 5.0625 -43.40625 C 4.820312 -42.519531 4.609375 -41.664062 4.421875 -40.84375 Z M 11.546875 -14.765625 C 11.816406 -16.003906 12.03125 -17.234375 12.1875 -18.453125 C 11.625 -17.773438 11.125 -17.066406 10.6875 -16.328125 C 10.425781 -15.890625 10.164062 -15.367188 9.90625 -14.765625 C 9.644531 -14.171875 9.425781 -13.550781 9.25 -12.90625 C 9.082031 -12.257812 8.992188 -11.644531 8.984375 -11.0625 C 8.972656 -10.488281 9.078125 -10 9.296875 -9.59375 C 9.328125 -9.539062 9.410156 -9.578125 9.546875 -9.703125 C 9.691406 -9.828125 9.851562 -10.023438 10.03125 -10.296875 C 10.207031 -10.566406 10.359375 -10.890625 10.484375 -11.265625 C 10.671875 -11.835938 10.859375 -12.414062 11.046875 -13 C 11.242188 -13.582031 11.410156 -14.171875 11.546875 -14.765625 Z M 11.546875 -14.765625 "/></g></g></g><g fill="#ffffff" fill-opacity="1"><g transform="translate(165.320837, 63.499966)"><g><path d="M 12.171875 -25.859375 C 11.867188 -24.515625 11.570312 -23.175781 11.28125 -21.84375 C 11 -20.519531 10.695312 -19.265625 10.375 -18.078125 C 10.0625 -16.890625 9.710938 -15.820312 9.328125 -14.875 C 8.941406 -13.925781 8.503906 -13.164062 8.015625 -12.59375 C 7.523438 -12.019531 6.96875 -11.691406 6.34375 -11.609375 C 5.351562 -11.460938 4.488281 -11.550781 3.75 -11.875 C 3.007812 -12.195312 2.375 -12.691406 1.84375 -13.359375 C 1.320312 -14.035156 0.878906 -14.820312 0.515625 -15.71875 C 0.160156 -16.625 -0.125 -17.578125 -0.34375 -18.578125 C -0.5625 -19.578125 -0.722656 -20.578125 -0.828125 -21.578125 C -0.941406 -22.585938 -1.019531 -23.53125 -1.0625 -24.40625 C -1.113281 -25.28125 -1.144531 -26.03125 -1.15625 -26.65625 C -1.195312 -28.976562 -1.125 -31.335938 -0.9375 -33.734375 C -0.757812 -36.140625 -0.441406 -38.523438 0.015625 -40.890625 C 0.472656 -43.265625 1.085938 -45.546875 1.859375 -47.734375 C 2.335938 -49.097656 2.796875 -50.234375 3.234375 -51.140625 C 3.671875 -52.046875 4.082031 -52.769531 4.46875 -53.3125 C 4.851562 -53.863281 5.210938 -54.273438 5.546875 -54.546875 C 5.890625 -54.828125 6.203125 -55.007812 6.484375 -55.09375 C 7.523438 -55.457031 8.4375 -55.210938 9.21875 -54.359375 C 9.632812 -53.898438 9.890625 -53.207031 9.984375 -52.28125 C 10.085938 -51.363281 10.050781 -50.273438 9.875 -49.015625 C 9.707031 -47.753906 9.421875 -46.398438 9.015625 -44.953125 C 8.609375 -43.503906 8.085938 -42.015625 7.453125 -40.484375 C 6.816406 -38.960938 6.09375 -37.46875 5.28125 -36 C 4.46875 -34.53125 3.582031 -33.160156 2.625 -31.890625 C 2.59375 -31.441406 2.570312 -30.898438 2.5625 -30.265625 C 2.550781 -29.628906 2.546875 -28.992188 2.546875 -28.359375 C 2.546875 -27.734375 2.546875 -27.191406 2.546875 -26.734375 C 2.566406 -25.347656 2.640625 -23.9375 2.765625 -22.5 C 2.890625 -21.070312 3.117188 -19.671875 3.453125 -18.296875 C 3.628906 -17.691406 3.828125 -17.082031 4.046875 -16.46875 C 4.273438 -15.851562 4.554688 -15.273438 4.890625 -14.734375 C 5.097656 -14.398438 5.300781 -14.140625 5.5 -13.953125 C 5.695312 -13.773438 6 -13.695312 6.40625 -13.71875 C 6.75 -13.726562 7.082031 -13.941406 7.40625 -14.359375 C 7.726562 -14.773438 8.035156 -15.320312 8.328125 -16 C 8.617188 -16.675781 8.894531 -17.421875 9.15625 -18.234375 C 9.414062 -19.054688 9.65625 -19.890625 9.875 -20.734375 C 10.101562 -21.585938 10.304688 -22.394531 10.484375 -23.15625 C 10.660156 -23.914062 10.8125 -24.566406 10.9375 -25.109375 C 11.070312 -25.648438 11.171875 -26.023438 11.234375 -26.234375 C 11.335938 -26.546875 11.476562 -26.710938 11.65625 -26.734375 C 11.832031 -26.765625 11.976562 -26.691406 12.09375 -26.515625 C 12.207031 -26.347656 12.234375 -26.128906 12.171875 -25.859375 Z M 4.34375 -43.640625 C 4.0625 -42.242188 3.804688 -40.84375 3.578125 -39.4375 C 3.359375 -38.03125 3.160156 -36.617188 2.984375 -35.203125 C 3.160156 -35.359375 3.394531 -35.6875 3.6875 -36.1875 C 3.988281 -36.695312 4.328125 -37.335938 4.703125 -38.109375 C 5.085938 -38.890625 5.476562 -39.75 5.875 -40.6875 C 6.269531 -41.625 6.648438 -42.601562 7.015625 -43.625 C 7.390625 -44.65625 7.71875 -45.675781 8 -46.6875 C 8.289062 -47.695312 8.507812 -48.660156 8.65625 -49.578125 C 8.800781 -50.492188 8.847656 -51.3125 8.796875 -52.03125 C 8.753906 -52.757812 8.582031 -53.335938 8.28125 -53.765625 C 8.019531 -53.691406 7.753906 -53.453125 7.484375 -53.046875 C 7.210938 -52.640625 6.941406 -52.128906 6.671875 -51.515625 C 6.398438 -50.898438 6.144531 -50.226562 5.90625 -49.5 C 5.664062 -48.78125 5.441406 -48.050781 5.234375 -47.3125 C 5.023438 -46.582031 4.84375 -45.894531 4.6875 -45.25 C 4.539062 -44.613281 4.425781 -44.078125 4.34375 -43.640625 Z M 4.34375 -43.640625 "/></g></g></g><g fill="#ffffff" fill-opacity="1"><g transform="translate(176.511156, 63.499966)"><g><path d="M 15.640625 -27.5 C 15.660156 -27.5625 15.738281 -27.597656 15.875 -27.609375 C 16.019531 -27.628906 16.164062 -27.625 16.3125 -27.59375 C 16.457031 -27.570312 16.519531 -27.53125 16.5 -27.46875 C 16.3125 -25.832031 16.050781 -24.195312 15.71875 -22.5625 C 15.382812 -20.9375 14.9375 -19.347656 14.375 -17.796875 C 14.164062 -17.210938 13.929688 -16.613281 13.671875 -16 C 13.410156 -15.394531 13.09375 -14.859375 12.71875 -14.390625 C 12.351562 -13.921875 11.894531 -13.585938 11.34375 -13.390625 C 10.800781 -13.191406 10.140625 -13.195312 9.359375 -13.40625 C 8.722656 -13.582031 8.222656 -13.914062 7.859375 -14.40625 C 7.492188 -14.90625 7.222656 -15.492188 7.046875 -16.171875 C 6.867188 -16.847656 6.75 -17.539062 6.6875 -18.25 C 6.550781 -17.832031 6.40625 -17.414062 6.25 -17 C 6.101562 -16.59375 5.941406 -16.191406 5.765625 -15.796875 C 5.523438 -15.265625 5.238281 -14.757812 4.90625 -14.28125 C 4.582031 -13.8125 4.207031 -13.414062 3.78125 -13.09375 C 3.351562 -12.78125 2.875 -12.578125 2.34375 -12.484375 C 1.820312 -12.398438 1.238281 -12.484375 0.59375 -12.734375 C 0.03125 -12.953125 -0.414062 -13.28125 -0.75 -13.71875 C -1.09375 -14.15625 -1.351562 -14.644531 -1.53125 -15.1875 C -1.707031 -15.738281 -1.832031 -16.304688 -1.90625 -16.890625 C -1.976562 -17.484375 -2.023438 -18.039062 -2.046875 -18.5625 C -2.128906 -19.945312 -2.09375 -21.328125 -1.9375 -22.703125 C -1.78125 -24.078125 -1.519531 -25.4375 -1.15625 -26.78125 C -1 -27.351562 -0.816406 -27.96875 -0.609375 -28.625 C -0.410156 -29.28125 -0.175781 -29.929688 0.09375 -30.578125 C 0.375 -31.222656 0.695312 -31.820312 1.0625 -32.375 C 1.425781 -32.9375 1.851562 -33.414062 2.34375 -33.8125 C 2.71875 -34.113281 3.148438 -34.34375 3.640625 -34.5 C 4.140625 -34.664062 4.648438 -34.75 5.171875 -34.75 C 5.691406 -34.75 6.191406 -34.660156 6.671875 -34.484375 C 7.160156 -34.304688 7.570312 -34.03125 7.90625 -33.65625 C 7.9375 -33.625 7.960938 -33.59375 7.984375 -33.5625 C 8.015625 -33.53125 8.039062 -33.492188 8.0625 -33.453125 C 8.445312 -33.554688 8.835938 -33.59375 9.234375 -33.5625 C 9.640625 -33.539062 9.984375 -33.453125 10.265625 -33.296875 C 10.546875 -33.140625 10.671875 -32.921875 10.640625 -32.640625 C 10.515625 -30.828125 10.394531 -29 10.28125 -27.15625 C 10.175781 -25.3125 10.148438 -23.472656 10.203125 -21.640625 C 10.253906 -19.816406 10.453125 -18.007812 10.796875 -16.21875 C 10.816406 -16.082031 10.84375 -15.945312 10.875 -15.8125 C 10.90625 -15.675781 10.941406 -15.539062 10.984375 -15.40625 C 11.117188 -15.582031 11.25 -15.753906 11.375 -15.921875 C 11.5 -16.085938 11.613281 -16.253906 11.71875 -16.421875 C 12.082031 -16.960938 12.410156 -17.507812 12.703125 -18.0625 C 12.992188 -18.625 13.265625 -19.195312 13.515625 -19.78125 C 14.046875 -21.019531 14.484375 -22.28125 14.828125 -23.5625 C 15.179688 -24.84375 15.453125 -26.15625 15.640625 -27.5 Z M 5 -22.46875 C 5.351562 -23.695312 5.640625 -24.941406 5.859375 -26.203125 C 6.078125 -27.460938 6.289062 -28.722656 6.5 -29.984375 C 6.414062 -30.242188 6.300781 -30.5 6.15625 -30.75 C 6.019531 -30.96875 5.894531 -31.1875 5.78125 -31.40625 C 5.664062 -31.625 5.535156 -31.835938 5.390625 -32.046875 C 5.335938 -32.128906 5.28125 -32.207031 5.21875 -32.28125 C 5.164062 -32.363281 5.109375 -32.441406 5.046875 -32.515625 C 4.953125 -32.378906 4.863281 -32.238281 4.78125 -32.09375 C 4.695312 -31.945312 4.613281 -31.800781 4.53125 -31.65625 C 4.40625 -31.4375 4.28125 -31.207031 4.15625 -30.96875 C 4.039062 -30.726562 3.929688 -30.484375 3.828125 -30.234375 C 3.359375 -29.222656 2.96875 -28.1875 2.65625 -27.125 C 2.300781 -25.976562 2.035156 -24.800781 1.859375 -23.59375 C 1.691406 -22.394531 1.609375 -21.195312 1.609375 -20 C 1.609375 -19.46875 1.617188 -18.929688 1.640625 -18.390625 C 1.671875 -17.847656 1.726562 -17.3125 1.8125 -16.78125 C 1.84375 -16.625 1.890625 -16.375 1.953125 -16.03125 C 2.015625 -15.6875 2.109375 -15.359375 2.234375 -15.046875 C 2.460938 -15.367188 2.671875 -15.738281 2.859375 -16.15625 C 3.046875 -16.582031 3.210938 -16.988281 3.359375 -17.375 C 3.515625 -17.757812 3.625 -18.039062 3.6875 -18.21875 C 3.945312 -18.914062 4.179688 -19.617188 4.390625 -20.328125 C 4.597656 -21.035156 4.800781 -21.75 5 -22.46875 Z M 5 -22.46875 "/></g></g></g><g fill="#ffffff" fill-opacity="1"><g transform="translate(192.271339, 63.499966)"><g><path d="M 14.8125 -7.890625 C 14.914062 -7.921875 15.070312 -7.9375 15.28125 -7.9375 C 15.5 -7.9375 15.617188 -7.84375 15.640625 -7.65625 C 15.691406 -7.332031 15.625 -7.078125 15.4375 -6.890625 C 15.257812 -6.703125 15.023438 -6.5625 14.734375 -6.46875 C 14.453125 -6.382812 14.175781 -6.328125 13.90625 -6.296875 C 13.21875 -6.203125 12.539062 -6.265625 11.875 -6.484375 C 11.207031 -6.703125 10.648438 -7.082031 10.203125 -7.625 C 9.804688 -8.207031 9.488281 -8.960938 9.25 -9.890625 C 9.007812 -10.828125 8.851562 -11.988281 8.78125 -13.375 C 8.707031 -14.769531 8.726562 -16.4375 8.84375 -18.375 C 8.96875 -20.320312 9.1875 -22.585938 9.5 -25.171875 C 9.820312 -27.765625 10.25 -30.726562 10.78125 -34.0625 C 10.78125 -34.5625 10.773438 -35.0625 10.765625 -35.5625 C 10.765625 -36.0625 10.75 -36.550781 10.71875 -37.03125 C 10.707031 -37.070312 10.703125 -37.109375 10.703125 -37.140625 C 10.703125 -37.179688 10.703125 -37.222656 10.703125 -37.265625 C 10.492188 -36.898438 10.316406 -36.601562 10.171875 -36.375 C 9.890625 -35.925781 9.640625 -35.46875 9.421875 -35 C 9.210938 -34.53125 9.003906 -34.054688 8.796875 -33.578125 C 8.347656 -32.546875 7.953125 -31.488281 7.609375 -30.40625 C 7.273438 -29.332031 6.957031 -28.253906 6.65625 -27.171875 C 6.0625 -24.941406 5.476562 -22.691406 4.90625 -20.421875 C 4.332031 -18.160156 3.785156 -15.90625 3.265625 -13.65625 C 3.210938 -13.4375 3.070312 -13.265625 2.84375 -13.140625 C 2.625 -13.015625 2.367188 -12.941406 2.078125 -12.921875 C 1.796875 -12.898438 1.53125 -12.929688 1.28125 -13.015625 C 1.039062 -13.097656 0.867188 -13.234375 0.765625 -13.421875 C 0.253906 -14.347656 -0.113281 -15.335938 -0.34375 -16.390625 C -0.582031 -17.441406 -0.734375 -18.515625 -0.796875 -19.609375 C -0.867188 -20.703125 -0.910156 -21.757812 -0.921875 -22.78125 C -0.921875 -23.738281 -0.890625 -24.695312 -0.828125 -25.65625 C -0.773438 -26.625 -0.695312 -27.546875 -0.59375 -28.421875 C -0.488281 -29.304688 -0.367188 -30.09375 -0.234375 -30.78125 C -0.109375 -31.46875 0.0234375 -32.015625 0.171875 -32.421875 C 0.242188 -32.617188 0.425781 -32.785156 0.71875 -32.921875 C 1.007812 -33.066406 1.328125 -33.15625 1.671875 -33.1875 C 2.023438 -33.226562 2.328125 -33.1875 2.578125 -33.0625 C 2.835938 -32.945312 2.957031 -32.722656 2.9375 -32.390625 C 2.832031 -30.640625 2.773438 -28.984375 2.765625 -27.421875 C 2.753906 -25.859375 2.796875 -24.269531 2.890625 -22.65625 C 2.898438 -22.425781 2.910156 -22.191406 2.921875 -21.953125 C 2.941406 -21.722656 2.957031 -21.488281 2.96875 -21.25 C 3.3125 -22.71875 3.648438 -24.179688 3.984375 -25.640625 C 4.328125 -27.097656 4.71875 -28.539062 5.15625 -29.96875 C 5.570312 -31.269531 6.035156 -32.550781 6.546875 -33.8125 C 7.054688 -35.070312 7.582031 -36.328125 8.125 -37.578125 C 8.332031 -38.046875 8.578125 -38.507812 8.859375 -38.96875 C 9.140625 -39.4375 9.460938 -39.835938 9.828125 -40.171875 C 10.203125 -40.503906 10.625 -40.710938 11.09375 -40.796875 C 11.3125 -40.835938 11.578125 -40.800781 11.890625 -40.6875 C 12.203125 -40.582031 12.519531 -40.429688 12.84375 -40.234375 C 13.164062 -40.035156 13.445312 -39.832031 13.6875 -39.625 C 13.925781 -39.414062 14.078125 -39.234375 14.140625 -39.078125 C 14.359375 -38.523438 14.5 -37.898438 14.5625 -37.203125 C 14.632812 -36.515625 14.65625 -35.84375 14.625 -35.1875 C 14.601562 -34.539062 14.566406 -34 14.515625 -33.5625 C 14.410156 -32.644531 14.265625 -31.609375 14.078125 -30.453125 C 13.898438 -29.304688 13.707031 -28.082031 13.5 -26.78125 C 13.289062 -25.476562 13.09375 -24.148438 12.90625 -22.796875 C 12.726562 -21.441406 12.582031 -20.101562 12.46875 -18.78125 C 12.363281 -17.457031 12.3125 -16.195312 12.3125 -15 C 12.3125 -13.8125 12.390625 -12.726562 12.546875 -11.75 C 12.710938 -10.78125 12.976562 -9.957031 13.34375 -9.28125 C 13.707031 -8.613281 14.195312 -8.148438 14.8125 -7.890625 Z M 14.8125 -7.890625 "/></g></g></g><g fill="#ffffff" fill-opacity="1"><g transform="translate(209.066572, 63.499966)"><g><path d="M 14.109375 -26.5625 C 14.171875 -26.695312 14.269531 -26.773438 14.40625 -26.796875 C 14.550781 -26.828125 14.671875 -26.800781 14.765625 -26.71875 C 14.867188 -26.644531 14.890625 -26.519531 14.828125 -26.34375 C 14.660156 -25.09375 14.171875 -24.0625 13.359375 -23.25 C 12.554688 -22.4375 11.457031 -21.757812 10.0625 -21.21875 C 9.90625 -20.132812 9.679688 -19.0625 9.390625 -18 C 9.109375 -16.945312 8.757812 -15.984375 8.34375 -15.109375 C 7.925781 -14.234375 7.4375 -13.523438 6.875 -12.984375 C 6.3125 -12.441406 5.675781 -12.148438 4.96875 -12.109375 C 4.15625 -12.054688 3.445312 -12.1875 2.84375 -12.5 C 2.238281 -12.820312 1.71875 -13.269531 1.28125 -13.84375 C 0.851562 -14.414062 0.492188 -15.070312 0.203125 -15.8125 C -0.078125 -16.5625 -0.296875 -17.332031 -0.453125 -18.125 C -0.617188 -18.914062 -0.742188 -19.6875 -0.828125 -20.4375 C -0.910156 -21.1875 -0.960938 -21.867188 -0.984375 -22.484375 C -1.003906 -23.097656 -1.007812 -23.578125 -1 -23.921875 C -1 -24.078125 -0.984375 -24.222656 -0.953125 -24.359375 C -0.929688 -24.503906 -0.898438 -24.628906 -0.859375 -24.734375 C -1.097656 -25.628906 -1.160156 -26.5625 -1.046875 -27.53125 C -0.929688 -28.507812 -0.671875 -29.460938 -0.265625 -30.390625 C 0.128906 -31.316406 0.648438 -32.144531 1.296875 -32.875 C 1.921875 -33.570312 2.585938 -34.035156 3.296875 -34.265625 C 4.015625 -34.503906 4.71875 -34.539062 5.40625 -34.375 C 6.101562 -34.21875 6.71875 -33.90625 7.25 -33.4375 C 8.519531 -32.320312 9.394531 -30.921875 9.875 -29.234375 C 10.363281 -27.546875 10.5 -25.5 10.28125 -23.09375 C 10.28125 -23.007812 10.273438 -22.925781 10.265625 -22.84375 C 10.253906 -22.757812 10.242188 -22.671875 10.234375 -22.578125 C 10.910156 -22.796875 11.546875 -23.082031 12.140625 -23.4375 C 12.734375 -23.789062 13.210938 -24.226562 13.578125 -24.75 C 13.941406 -25.269531 14.117188 -25.875 14.109375 -26.5625 Z M 2.03125 -29.890625 C 1.957031 -29.609375 1.863281 -29.21875 1.75 -28.71875 C 1.632812 -28.226562 1.550781 -27.691406 1.5 -27.109375 C 1.445312 -26.523438 1.457031 -25.953125 1.53125 -25.390625 C 1.738281 -25.265625 1.898438 -25.113281 2.015625 -24.9375 C 2.140625 -24.757812 2.210938 -24.5625 2.234375 -24.34375 C 2.234375 -24.257812 2.234375 -24.148438 2.234375 -24.015625 C 2.234375 -23.890625 2.234375 -23.738281 2.234375 -23.5625 C 2.253906 -23.539062 2.269531 -23.519531 2.28125 -23.5 C 2.300781 -23.488281 2.316406 -23.46875 2.328125 -23.4375 C 2.753906 -22.96875 3.410156 -22.609375 4.296875 -22.359375 C 5.179688 -22.117188 6.160156 -22.015625 7.234375 -22.046875 C 7.304688 -22.773438 7.34375 -23.390625 7.34375 -23.890625 C 7.375 -24.710938 7.378906 -25.578125 7.359375 -26.484375 C 7.347656 -27.398438 7.273438 -28.300781 7.140625 -29.1875 C 7.003906 -30.070312 6.75 -30.882812 6.375 -31.625 C 5.988281 -32.394531 5.59375 -32.878906 5.1875 -33.078125 C 4.78125 -33.273438 4.378906 -33.253906 3.984375 -33.015625 C 3.597656 -32.785156 3.234375 -32.390625 2.890625 -31.828125 C 2.554688 -31.273438 2.269531 -30.628906 2.03125 -29.890625 Z M 4.828125 -14.3125 C 5.128906 -14.34375 5.394531 -14.535156 5.625 -14.890625 C 5.863281 -15.253906 6.070312 -15.726562 6.25 -16.3125 C 6.4375 -16.90625 6.59375 -17.554688 6.71875 -18.265625 C 6.851562 -18.984375 6.960938 -19.691406 7.046875 -20.390625 C 6.203125 -20.265625 5.378906 -20.234375 4.578125 -20.296875 C 3.773438 -20.359375 3.050781 -20.535156 2.40625 -20.828125 C 2.46875 -20.078125 2.554688 -19.316406 2.671875 -18.546875 C 2.796875 -17.785156 2.953125 -17.078125 3.140625 -16.421875 C 3.328125 -15.773438 3.554688 -15.253906 3.828125 -14.859375 C 4.097656 -14.472656 4.429688 -14.289062 4.828125 -14.3125 Z M 4.828125 -14.3125 "/></g></g></g></svg>