<svg xmlns="http://www.w3.org/2000/svg" xmlns:xlink="http://www.w3.org/1999/xlink" width="1000" zoomAndPan="magnify" viewBox="0 0 750 74.999997" height="100" preserveAspectRatio="xMidYMid meet" version="1.0"><defs><g/></defs><g fill="#ffffff" fill-opacity="1"><g transform="translate(14.519545, 63.499967)"><g><path d="M 30.453125 -23.953125 C 30.398438 -28.347656 30.492188 -32.742188 30.734375 -37.140625 C 30.984375 -41.535156 31.300781 -45.925781 31.6875 -50.3125 C 31.195312 -48.84375 30.710938 -47.316406 30.234375 -45.734375 C 29.765625 -44.148438 29.304688 -42.578125 28.859375 -41.015625 C 28.410156 -39.460938 27.976562 -37.976562 27.5625 -36.5625 C 27.15625 -35.15625 26.773438 -33.890625 26.421875 -32.765625 C 26.078125 -31.640625 25.765625 -30.710938 25.484375 -29.984375 C 25.203125 -29.253906 24.960938 -28.796875 24.765625 -28.609375 C 24.390625 -28.265625 23.96875 -28.015625 23.5 -27.859375 C 23.03125 -27.710938 22.601562 -27.679688 22.21875 -27.765625 C 21.84375 -27.859375 21.601562 -28.085938 21.5 -28.453125 C 21.125 -29.804688 20.867188 -31.15625 20.734375 -32.5 C 20.597656 -33.851562 20.53125 -35.207031 20.53125 -36.5625 C 20.539062 -37.914062 20.578125 -39.273438 20.640625 -40.640625 C 20.710938 -42.015625 20.753906 -43.390625 20.765625 -44.765625 C 20.648438 -44.171875 20.53125 -43.570312 20.40625 -42.96875 C 20.289062 -42.375 20.175781 -41.769531 20.0625 -41.15625 C 19.65625 -38.988281 19.21875 -36.828125 18.75 -34.671875 C 18.289062 -32.523438 17.796875 -30.382812 17.265625 -28.25 C 16.785156 -26.238281 16.257812 -24.226562 15.6875 -22.21875 C 15.125 -20.207031 14.535156 -18.210938 13.921875 -16.234375 C 13.585938 -15.140625 13.226562 -14.03125 12.84375 -12.90625 C 12.457031 -11.789062 12.007812 -10.707031 11.5 -9.65625 C 11 -8.613281 10.382812 -7.632812 9.65625 -6.71875 C 9.289062 -6.25 8.804688 -5.859375 8.203125 -5.546875 C 7.609375 -5.242188 6.960938 -5.046875 6.265625 -4.953125 C 5.578125 -4.867188 4.90625 -4.90625 4.25 -5.0625 C 3.59375 -5.226562 3.015625 -5.539062 2.515625 -6 C 1.921875 -6.5625 1.429688 -7.34375 1.046875 -8.34375 C 0.660156 -9.34375 0.382812 -10.488281 0.21875 -11.78125 C 0.0625 -13.082031 0 -14.460938 0.03125 -15.921875 C 0.0703125 -17.390625 0.210938 -18.863281 0.453125 -20.34375 C 0.703125 -21.820312 1.039062 -23.242188 1.46875 -24.609375 C 1.894531 -25.972656 2.410156 -27.207031 3.015625 -28.3125 C 3.617188 -29.425781 4.304688 -30.34375 5.078125 -31.0625 C 5.859375 -31.789062 6.71875 -32.238281 7.65625 -32.40625 C 8.539062 -32.570312 9.265625 -32.519531 9.828125 -32.25 C 10.390625 -31.976562 10.8125 -31.539062 11.09375 -30.9375 C 11.382812 -30.34375 11.5625 -29.632812 11.625 -28.8125 C 11.695312 -28 11.6875 -27.132812 11.59375 -26.21875 C 11.507812 -25.300781 11.363281 -24.375 11.15625 -23.4375 C 10.957031 -22.5 10.726562 -21.613281 10.46875 -20.78125 C 10.21875 -19.945312 9.96875 -19.210938 9.71875 -18.578125 C 9.476562 -17.953125 9.265625 -17.484375 9.078125 -17.171875 C 8.890625 -16.929688 8.640625 -16.753906 8.328125 -16.640625 C 8.023438 -16.535156 7.722656 -16.488281 7.421875 -16.5 C 7.117188 -16.519531 6.894531 -16.59375 6.75 -16.71875 C 6.601562 -16.851562 6.585938 -17.035156 6.703125 -17.265625 C 7.546875 -18.878906 8.226562 -20.476562 8.75 -22.0625 C 9.28125 -23.65625 9.613281 -25.3125 9.75 -27.03125 C 9.769531 -27.269531 9.789062 -27.578125 9.8125 -27.953125 C 9.84375 -28.328125 9.847656 -28.71875 9.828125 -29.125 C 9.816406 -29.53125 9.757812 -29.90625 9.65625 -30.25 C 9.550781 -30.59375 9.375 -30.84375 9.125 -31 C 8.914062 -31.144531 8.691406 -31.144531 8.453125 -31 C 8.210938 -30.863281 7.972656 -30.644531 7.734375 -30.34375 C 7.503906 -30.050781 7.285156 -29.722656 7.078125 -29.359375 C 6.867188 -29.003906 6.6875 -28.671875 6.53125 -28.359375 C 6.375 -28.046875 6.253906 -27.804688 6.171875 -27.640625 C 5.734375 -26.710938 5.320312 -25.648438 4.9375 -24.453125 C 4.5625 -23.265625 4.238281 -22.015625 3.96875 -20.703125 C 3.695312 -19.390625 3.484375 -18.066406 3.328125 -16.734375 C 3.179688 -15.410156 3.101562 -14.140625 3.09375 -12.921875 C 3.09375 -11.710938 3.171875 -10.617188 3.328125 -9.640625 C 3.492188 -8.660156 3.753906 -7.851562 4.109375 -7.21875 C 4.472656 -6.582031 4.941406 -6.195312 5.515625 -6.0625 C 6.003906 -5.9375 6.503906 -6.113281 7.015625 -6.59375 C 7.535156 -7.082031 8.054688 -7.8125 8.578125 -8.78125 C 9.109375 -9.75 9.632812 -10.90625 10.15625 -12.25 C 10.675781 -13.601562 11.191406 -15.082031 11.703125 -16.6875 C 12.210938 -18.300781 12.707031 -19.984375 13.1875 -21.734375 C 13.664062 -23.484375 14.125 -25.253906 14.5625 -27.046875 C 15.007812 -28.847656 15.425781 -30.601562 15.8125 -32.3125 C 16.207031 -34.03125 16.5625 -35.648438 16.875 -37.171875 C 17.195312 -38.703125 17.476562 -40.082031 17.71875 -41.3125 C 17.96875 -42.550781 18.171875 -43.578125 18.328125 -44.390625 C 18.484375 -45.203125 18.578125 -45.75 18.609375 -46.03125 C 18.753906 -46.945312 18.875 -47.863281 18.96875 -48.78125 C 19.070312 -49.695312 19.15625 -50.566406 19.21875 -51.390625 C 19.28125 -52.222656 19.332031 -52.96875 19.375 -53.625 C 19.425781 -54.289062 19.476562 -54.820312 19.53125 -55.21875 C 19.5625 -55.488281 19.695312 -55.703125 19.9375 -55.859375 C 20.175781 -56.023438 20.46875 -56.140625 20.8125 -56.203125 C 21.15625 -56.265625 21.5 -56.269531 21.84375 -56.21875 C 22.1875 -56.164062 22.484375 -56.0625 22.734375 -55.90625 C 22.992188 -55.757812 23.148438 -55.554688 23.203125 -55.296875 C 23.523438 -53.835938 23.734375 -52.367188 23.828125 -50.890625 C 23.929688 -49.421875 23.96875 -47.945312 23.9375 -46.46875 C 23.90625 -45 23.859375 -43.519531 23.796875 -42.03125 C 23.742188 -40.550781 23.71875 -39.070312 23.71875 -37.59375 C 23.726562 -36.113281 23.816406 -34.644531 23.984375 -33.1875 C 24.171875 -33.707031 24.332031 -34.226562 24.46875 -34.75 C 24.613281 -35.269531 24.757812 -35.785156 24.90625 -36.296875 C 25.3125 -37.679688 25.710938 -39.070312 26.109375 -40.46875 C 26.503906 -41.863281 26.894531 -43.257812 27.28125 -44.65625 C 27.664062 -45.96875 28.03125 -47.300781 28.375 -48.65625 C 28.71875 -50.007812 29.085938 -51.359375 29.484375 -52.703125 C 29.878906 -54.054688 30.332031 -55.378906 30.84375 -56.671875 C 31.351562 -57.960938 31.953125 -59.203125 32.640625 -60.390625 C 32.742188 -60.554688 32.9375 -60.703125 33.21875 -60.828125 C 33.5 -60.953125 33.816406 -61.039062 34.171875 -61.09375 C 34.523438 -61.144531 34.867188 -61.15625 35.203125 -61.125 C 35.546875 -61.09375 35.820312 -61 36.03125 -60.84375 C 36.238281 -60.695312 36.332031 -60.488281 36.3125 -60.21875 C 35.832031 -55.0625 35.382812 -49.90625 34.96875 -44.75 C 34.550781 -39.59375 34.296875 -34.421875 34.203125 -29.234375 C 34.148438 -26.628906 34.160156 -24.023438 34.234375 -21.421875 C 34.304688 -18.816406 34.445312 -16.210938 34.65625 -13.609375 C 34.757812 -12.460938 34.867188 -11.3125 34.984375 -10.15625 C 35.097656 -9.007812 35.28125 -7.878906 35.53125 -6.765625 C 35.675781 -6.160156 35.835938 -5.5625 36.015625 -4.96875 C 36.203125 -4.375 36.425781 -3.804688 36.6875 -3.265625 C 36.757812 -3.117188 36.867188 -2.910156 37.015625 -2.640625 C 37.171875 -2.378906 37.34375 -2.117188 37.53125 -1.859375 C 37.726562 -1.597656 37.941406 -1.390625 38.171875 -1.234375 C 38.398438 -1.078125 38.625 -1.035156 38.84375 -1.109375 C 39.144531 -1.210938 39.515625 -1.265625 39.953125 -1.265625 C 40.390625 -1.265625 40.738281 -1.15625 41 -0.9375 C 41.21875 -0.769531 41.328125 -0.570312 41.328125 -0.34375 C 41.328125 -0.125 41.175781 0.0546875 40.875 0.203125 C 40.226562 0.492188 39.539062 0.671875 38.8125 0.734375 C 38.082031 0.804688 37.363281 0.742188 36.65625 0.546875 C 35.957031 0.347656 35.320312 0.015625 34.75 -0.453125 C 34.144531 -0.960938 33.65625 -1.5625 33.28125 -2.25 C 32.914062 -2.9375 32.617188 -3.664062 32.390625 -4.4375 C 32.160156 -5.207031 31.960938 -5.957031 31.796875 -6.6875 C 31.390625 -8.539062 31.09375 -10.4375 30.90625 -12.375 C 30.726562 -14.3125 30.613281 -16.25 30.5625 -18.1875 C 30.507812 -20.132812 30.472656 -22.054688 30.453125 -23.953125 Z M 30.453125 -23.953125 "/></g></g></g><g fill="#ffffff" fill-opacity="1"><g transform="translate(53.851638, 63.499967)"><g><path d="M 14.109375 -26.5625 C 14.171875 -26.695312 14.269531 -26.773438 14.40625 -26.796875 C 14.550781 -26.828125 14.671875 -26.800781 14.765625 -26.71875 C 14.867188 -26.644531 14.890625 -26.519531 14.828125 -26.34375 C 14.660156 -25.09375 14.171875 -24.0625 13.359375 -23.25 C 12.554688 -22.4375 11.457031 -21.757812 10.0625 -21.21875 C 9.90625 -20.132812 9.679688 -19.0625 9.390625 -18 C 9.109375 -16.945312 8.757812 -15.984375 8.34375 -15.109375 C 7.925781 -14.234375 7.4375 -13.523438 6.875 -12.984375 C 6.3125 -12.441406 5.675781 -12.148438 4.96875 -12.109375 C 4.15625 -12.054688 3.445312 -12.1875 2.84375 -12.5 C 2.238281 -12.820312 1.71875 -13.269531 1.28125 -13.84375 C 0.851562 -14.414062 0.492188 -15.070312 0.203125 -15.8125 C -0.078125 -16.5625 -0.296875 -17.332031 -0.453125 -18.125 C -0.617188 -18.914062 -0.742188 -19.6875 -0.828125 -20.4375 C -0.910156 -21.1875 -0.960938 -21.867188 -0.984375 -22.484375 C -1.003906 -23.097656 -1.007812 -23.578125 -1 -23.921875 C -1 -24.078125 -0.984375 -24.222656 -0.953125 -24.359375 C -0.929688 -24.503906 -0.898438 -24.628906 -0.859375 -24.734375 C -1.097656 -25.628906 -1.160156 -26.5625 -1.046875 -27.53125 C -0.929688 -28.507812 -0.671875 -29.460938 -0.265625 -30.390625 C 0.128906 -31.316406 0.648438 -32.144531 1.296875 -32.875 C 1.921875 -33.570312 2.585938 -34.035156 3.296875 -34.265625 C 4.015625 -34.503906 4.71875 -34.539062 5.40625 -34.375 C 6.101562 -34.21875 6.71875 -33.90625 7.25 -33.4375 C 8.519531 -32.320312 9.394531 -30.921875 9.875 -29.234375 C 10.363281 -27.546875 10.5 -25.5 10.28125 -23.09375 C 10.28125 -23.007812 10.273438 -22.925781 10.265625 -22.84375 C 10.253906 -22.757812 10.242188 -22.671875 10.234375 -22.578125 C 10.910156 -22.796875 11.546875 -23.082031 12.140625 -23.4375 C 12.734375 -23.789062 13.210938 -24.226562 13.578125 -24.75 C 13.941406 -25.269531 14.117188 -25.875 14.109375 -26.5625 Z M 2.03125 -29.890625 C 1.957031 -29.609375 1.863281 -29.21875 1.75 -28.71875 C 1.632812 -28.226562 1.550781 -27.691406 1.5 -27.109375 C 1.445312 -26.523438 1.457031 -25.953125 1.53125 -25.390625 C 1.738281 -25.265625 1.898438 -25.113281 2.015625 -24.9375 C 2.140625 -24.757812 2.210938 -24.5625 2.234375 -24.34375 C 2.234375 -24.257812 2.234375 -24.148438 2.234375 -24.015625 C 2.234375 -23.890625 2.234375 -23.738281 2.234375 -23.5625 C 2.253906 -23.539062 2.269531 -23.519531 2.28125 -23.5 C 2.300781 -23.488281 2.316406 -23.46875 2.328125 -23.4375 C 2.753906 -22.96875 3.410156 -22.609375 4.296875 -22.359375 C 5.179688 -22.117188 6.160156 -22.015625 7.234375 -22.046875 C 7.304688 -22.773438 7.34375 -23.390625 7.34375 -23.890625 C 7.375 -24.710938 7.378906 -25.578125 7.359375 -26.484375 C 7.347656 -27.398438 7.273438 -28.300781 7.140625 -29.1875 C 7.003906 -30.070312 6.75 -30.882812 6.375 -31.625 C 5.988281 -32.394531 5.59375 -32.878906 5.1875 -33.078125 C 4.78125 -33.273438 4.378906 -33.253906 3.984375 -33.015625 C 3.597656 -32.785156 3.234375 -32.390625 2.890625 -31.828125 C 2.554688 -31.273438 2.269531 -30.628906 2.03125 -29.890625 Z M 4.828125 -14.3125 C 5.128906 -14.34375 5.394531 -14.535156 5.625 -14.890625 C 5.863281 -15.253906 6.070312 -15.726562 6.25 -16.3125 C 6.4375 -16.90625 6.59375 -17.554688 6.71875 -18.265625 C 6.851562 -18.984375 6.960938 -19.691406 7.046875 -20.390625 C 6.203125 -20.265625 5.378906 -20.234375 4.578125 -20.296875 C 3.773438 -20.359375 3.050781 -20.535156 2.40625 -20.828125 C 2.46875 -20.078125 2.554688 -19.316406 2.671875 -18.546875 C 2.796875 -17.785156 2.953125 -17.078125 3.140625 -16.421875 C 3.328125 -15.773438 3.554688 -15.253906 3.828125 -14.859375 C 4.097656 -14.472656 4.429688 -14.289062 4.828125 -14.3125 Z M 4.828125 -14.3125 "/></g></g></g><g fill="#ffffff" fill-opacity="1"><g transform="translate(67.776064, 63.499967)"><g><path d="M 12.171875 -25.859375 C 11.867188 -24.515625 11.570312 -23.175781 11.28125 -21.84375 C 11 -20.519531 10.695312 -19.265625 10.375 -18.078125 C 10.0625 -16.890625 9.710938 -15.820312 9.328125 -14.875 C 8.941406 -13.925781 8.503906 -13.164062 8.015625 -12.59375 C 7.523438 -12.019531 6.96875 -11.691406 6.34375 -11.609375 C 5.351562 -11.460938 4.488281 -11.550781 3.75 -11.875 C 3.007812 -12.195312 2.375 -12.691406 1.84375 -13.359375 C 1.320312 -14.035156 0.878906 -14.820312 0.515625 -15.71875 C 0.160156 -16.625 -0.125 -17.578125 -0.34375 -18.578125 C -0.5625 -19.578125 -0.722656 -20.578125 -0.828125 -21.578125 C -0.941406 -22.585938 -1.019531 -23.53125 -1.0625 -24.40625 C -1.113281 -25.28125 -1.144531 -26.03125 -1.15625 -26.65625 C -1.195312 -28.976562 -1.125 -31.335938 -0.9375 -33.734375 C -0.757812 -36.140625 -0.441406 -38.523438 0.015625 -40.890625 C 0.472656 -43.265625 1.085938 -45.546875 1.859375 -47.734375 C 2.335938 -49.097656 2.796875 -50.234375 3.234375 -51.140625 C 3.671875 -52.046875 4.082031 -52.769531 4.46875 -53.3125 C 4.851562 -53.863281 5.210938 -54.273438 5.546875 -54.546875 C 5.890625 -54.828125 6.203125 -55.007812 6.484375 -55.09375 C 7.523438 -55.457031 8.4375 -55.210938 9.21875 -54.359375 C 9.632812 -53.898438 9.890625 -53.207031 9.984375 -52.28125 C 10.085938 -51.363281 10.050781 -50.273438 9.875 -49.015625 C 9.707031 -47.753906 9.421875 -46.398438 9.015625 -44.953125 C 8.609375 -43.503906 8.085938 -42.015625 7.453125 -40.484375 C 6.816406 -38.960938 6.09375 -37.46875 5.28125 -36 C 4.46875 -34.53125 3.582031 -33.160156 2.625 -31.890625 C 2.59375 -31.441406 2.570312 -30.898438 2.5625 -30.265625 C 2.550781 -29.628906 2.546875 -28.992188 2.546875 -28.359375 C 2.546875 -27.734375 2.546875 -27.191406 2.546875 -26.734375 C 2.566406 -25.347656 2.640625 -23.9375 2.765625 -22.5 C 2.890625 -21.070312 3.117188 -19.671875 3.453125 -18.296875 C 3.628906 -17.691406 3.828125 -17.082031 4.046875 -16.46875 C 4.273438 -15.851562 4.554688 -15.273438 4.890625 -14.734375 C 5.097656 -14.398438 5.300781 -14.140625 5.5 -13.953125 C 5.695312 -13.773438 6 -13.695312 6.40625 -13.71875 C 6.75 -13.726562 7.082031 -13.941406 7.40625 -14.359375 C 7.726562 -14.773438 8.035156 -15.320312 8.328125 -16 C 8.617188 -16.675781 8.894531 -17.421875 9.15625 -18.234375 C 9.414062 -19.054688 9.65625 -19.890625 9.875 -20.734375 C 10.101562 -21.585938 10.304688 -22.394531 10.484375 -23.15625 C 10.660156 -23.914062 10.8125 -24.566406 10.9375 -25.109375 C 11.070312 -25.648438 11.171875 -26.023438 11.234375 -26.234375 C 11.335938 -26.546875 11.476562 -26.710938 11.65625 -26.734375 C 11.832031 -26.765625 11.976562 -26.691406 12.09375 -26.515625 C 12.207031 -26.347656 12.234375 -26.128906 12.171875 -25.859375 Z M 4.34375 -43.640625 C 4.0625 -42.242188 3.804688 -40.84375 3.578125 -39.4375 C 3.359375 -38.03125 3.160156 -36.617188 2.984375 -35.203125 C 3.160156 -35.359375 3.394531 -35.6875 3.6875 -36.1875 C 3.988281 -36.695312 4.328125 -37.335938 4.703125 -38.109375 C 5.085938 -38.890625 5.476562 -39.75 5.875 -40.6875 C 6.269531 -41.625 6.648438 -42.601562 7.015625 -43.625 C 7.390625 -44.65625 7.71875 -45.675781 8 -46.6875 C 8.289062 -47.695312 8.507812 -48.660156 8.65625 -49.578125 C 8.800781 -50.492188 8.847656 -51.3125 8.796875 -52.03125 C 8.753906 -52.757812 8.582031 -53.335938 8.28125 -53.765625 C 8.019531 -53.691406 7.753906 -53.453125 7.484375 -53.046875 C 7.210938 -52.640625 6.941406 -52.128906 6.671875 -51.515625 C 6.398438 -50.898438 6.144531 -50.226562 5.90625 -49.5 C 5.664062 -48.78125 5.441406 -48.050781 5.234375 -47.3125 C 5.023438 -46.582031 4.84375 -45.894531 4.6875 -45.25 C 4.539062 -44.613281 4.425781 -44.078125 4.34375 -43.640625 Z M 4.34375 -43.640625 "/></g></g></g><g fill="#ffffff" fill-opacity="1"><g transform="translate(78.966382, 63.499967)"><g><path d="M 7.9375 -24.203125 C 7.570312 -23.585938 7.140625 -23.019531 6.640625 -22.5 C 6.148438 -21.988281 5.59375 -21.585938 4.96875 -21.296875 C 4.351562 -21.015625 3.660156 -20.910156 2.890625 -20.984375 C 2.816406 -20.984375 2.738281 -20.988281 2.65625 -21 C 2.582031 -21.007812 2.503906 -21.019531 2.421875 -21.03125 C 2.472656 -20.320312 2.570312 -19.628906 2.71875 -18.953125 C 2.875 -18.273438 3.097656 -17.664062 3.390625 -17.125 C 3.691406 -16.582031 4.085938 -16.140625 4.578125 -15.796875 C 5.078125 -15.460938 5.6875 -15.28125 6.40625 -15.25 C 7.03125 -15.226562 7.617188 -15.375 8.171875 -15.6875 C 8.722656 -16 9.234375 -16.410156 9.703125 -16.921875 C 10.171875 -17.441406 10.597656 -17.988281 10.984375 -18.5625 C 11.378906 -19.132812 11.734375 -19.671875 12.046875 -20.171875 C 12.148438 -20.347656 12.296875 -20.628906 12.484375 -21.015625 C 12.679688 -21.410156 12.890625 -21.863281 13.109375 -22.375 C 13.328125 -22.882812 13.539062 -23.414062 13.75 -23.96875 C 13.96875 -24.53125 14.160156 -25.078125 14.328125 -25.609375 C 14.492188 -26.140625 14.613281 -26.609375 14.6875 -27.015625 C 14.738281 -27.285156 14.851562 -27.457031 15.03125 -27.53125 C 15.207031 -27.613281 15.367188 -27.609375 15.515625 -27.515625 C 15.671875 -27.429688 15.710938 -27.257812 15.640625 -27 C 15.484375 -26.300781 15.257812 -25.507812 14.96875 -24.625 C 14.675781 -23.738281 14.34375 -22.832031 13.96875 -21.90625 C 13.59375 -20.976562 13.195312 -20.078125 12.78125 -19.203125 C 12.257812 -18.097656 11.648438 -17.09375 10.953125 -16.1875 C 10.253906 -15.28125 9.488281 -14.550781 8.65625 -14 C 7.832031 -13.457031 6.953125 -13.15625 6.015625 -13.09375 C 5.140625 -13.019531 4.296875 -13.097656 3.484375 -13.328125 C 2.671875 -13.566406 1.945312 -13.953125 1.3125 -14.484375 C 0.675781 -15.023438 0.160156 -15.707031 -0.234375 -16.53125 C -0.597656 -17.332031 -0.859375 -18.1875 -1.015625 -19.09375 C -1.171875 -20.007812 -1.25 -20.9375 -1.25 -21.875 C -1.257812 -22.820312 -1.238281 -23.726562 -1.1875 -24.59375 C -1.15625 -25.289062 -1.0625 -26.0625 -0.90625 -26.90625 C -0.757812 -27.75 -0.546875 -28.601562 -0.265625 -29.46875 C 0.00390625 -30.34375 0.34375 -31.179688 0.75 -31.984375 C 1.164062 -32.796875 1.648438 -33.519531 2.203125 -34.15625 C 2.765625 -34.800781 3.40625 -35.3125 4.125 -35.6875 C 4.84375 -36.0625 5.644531 -36.25 6.53125 -36.25 C 7.382812 -36.25 8.070312 -36.082031 8.59375 -35.75 C 9.113281 -35.414062 9.492188 -34.957031 9.734375 -34.375 C 9.972656 -33.800781 10.109375 -33.148438 10.140625 -32.421875 C 10.179688 -31.703125 10.132812 -30.945312 10 -30.15625 C 9.875 -29.375 9.691406 -28.601562 9.453125 -27.84375 C 9.222656 -27.09375 8.972656 -26.398438 8.703125 -25.765625 C 8.429688 -25.140625 8.175781 -24.617188 7.9375 -24.203125 Z M 2.390625 -22.5 C 2.421875 -22.476562 2.457031 -22.453125 2.5 -22.421875 C 2.539062 -22.398438 2.585938 -22.375 2.640625 -22.34375 C 3.023438 -22.144531 3.382812 -22.101562 3.71875 -22.21875 C 4.0625 -22.332031 4.375 -22.53125 4.65625 -22.8125 C 4.945312 -23.101562 5.203125 -23.421875 5.421875 -23.765625 C 5.648438 -24.109375 5.84375 -24.410156 6 -24.671875 C 6.570312 -25.703125 7.03125 -26.789062 7.375 -27.9375 C 7.71875 -29.082031 7.894531 -30.238281 7.90625 -31.40625 C 7.925781 -31.707031 7.914062 -32.078125 7.875 -32.515625 C 7.84375 -32.960938 7.757812 -33.390625 7.625 -33.796875 C 7.5 -34.210938 7.28125 -34.503906 6.96875 -34.671875 C 6.6875 -34.835938 6.328125 -34.757812 5.890625 -34.4375 C 5.453125 -34.125 5.007812 -33.597656 4.5625 -32.859375 C 4.113281 -32.128906 3.710938 -31.210938 3.359375 -30.109375 C 3.003906 -29.003906 2.757812 -27.757812 2.625 -26.375 C 2.582031 -25.957031 2.53125 -25.40625 2.46875 -24.71875 C 2.414062 -24.03125 2.390625 -23.289062 2.390625 -22.5 Z M 2.390625 -22.5 "/></g></g></g><g fill="#ffffff" fill-opacity="1"><g transform="translate(93.808682, 63.499967)"><g/></g></g><g fill="#ffffff" fill-opacity="1"><g transform="translate(103.631946, 63.499967)"><g><path d="M 23.09375 -12.734375 C 23.007812 -10.835938 22.890625 -8.953125 22.734375 -7.078125 C 23.234375 -8.046875 23.71875 -9.023438 24.1875 -10.015625 C 24.65625 -11.003906 25.109375 -12.003906 25.546875 -13.015625 C 26.585938 -15.335938 27.5625 -17.703125 28.46875 -20.109375 C 29.375 -22.523438 30.175781 -24.960938 30.875 -27.421875 C 31.632812 -30.054688 32.257812 -32.710938 32.75 -35.390625 C 33.238281 -38.078125 33.5625 -40.78125 33.71875 -43.5 C 33.875 -46.175781 33.851562 -48.835938 33.65625 -51.484375 C 33.457031 -54.128906 33.128906 -56.773438 32.671875 -59.421875 C 32.640625 -59.660156 32.734375 -59.863281 32.953125 -60.03125 C 33.179688 -60.195312 33.476562 -60.3125 33.84375 -60.375 C 34.207031 -60.445312 34.578125 -60.460938 34.953125 -60.421875 C 35.335938 -60.390625 35.671875 -60.296875 35.953125 -60.140625 C 36.234375 -59.984375 36.390625 -59.769531 36.421875 -59.5 C 36.804688 -56.863281 36.988281 -54.203125 36.96875 -51.515625 C 36.957031 -48.828125 36.789062 -46.140625 36.46875 -43.453125 C 36.144531 -40.765625 35.695312 -38.097656 35.125 -35.453125 C 34.550781 -32.816406 33.890625 -30.238281 33.140625 -27.71875 C 32.410156 -25.238281 31.585938 -22.796875 30.671875 -20.390625 C 29.765625 -17.992188 28.785156 -15.625 27.734375 -13.28125 C 27.191406 -12.0625 26.628906 -10.851562 26.046875 -9.65625 C 25.460938 -8.457031 24.867188 -7.265625 24.265625 -6.078125 C 24.128906 -5.828125 23.945312 -5.472656 23.71875 -5.015625 C 23.488281 -4.566406 23.226562 -4.066406 22.9375 -3.515625 C 22.65625 -2.972656 22.378906 -2.4375 22.109375 -1.90625 C 21.835938 -1.375 21.59375 -0.914062 21.375 -0.53125 C 21.164062 -0.144531 21.007812 0.101562 20.90625 0.21875 C 20.757812 0.382812 20.550781 0.515625 20.28125 0.609375 C 20.019531 0.710938 19.75 0.765625 19.46875 0.765625 C 19.1875 0.765625 18.945312 0.710938 18.75 0.609375 C 18.550781 0.503906 18.453125 0.34375 18.453125 0.125 C 18.441406 -0.78125 18.484375 -1.691406 18.578125 -2.609375 C 18.679688 -3.523438 18.78125 -4.457031 18.875 -5.40625 C 18.976562 -6.414062 19.0625 -7.421875 19.125 -8.421875 C 19.1875 -9.429688 19.242188 -10.441406 19.296875 -11.453125 C 19.492188 -15.492188 19.515625 -19.53125 19.359375 -23.5625 C 19.222656 -26.90625 18.972656 -30.253906 18.609375 -33.609375 C 18.242188 -36.972656 17.679688 -40.28125 16.921875 -43.53125 C 16.566406 -45.039062 16.140625 -46.53125 15.640625 -48 C 15.148438 -49.476562 14.5625 -50.914062 13.875 -52.3125 C 13.507812 -53.050781 13.117188 -53.800781 12.703125 -54.5625 C 12.285156 -55.332031 11.800781 -56.023438 11.25 -56.640625 C 10.925781 -56.992188 10.644531 -57.238281 10.40625 -57.375 C 10.164062 -57.519531 9.796875 -57.550781 9.296875 -57.46875 C 8.734375 -57.375 8.171875 -57.003906 7.609375 -56.359375 C 7.054688 -55.722656 6.523438 -54.898438 6.015625 -53.890625 C 5.503906 -52.890625 5.046875 -51.769531 4.640625 -50.53125 C 4.242188 -49.289062 3.925781 -48.019531 3.6875 -46.71875 C 3.40625 -45.101562 3.210938 -43.472656 3.109375 -41.828125 C 3.015625 -40.191406 3.050781 -38.5625 3.21875 -36.9375 C 3.3125 -36.09375 3.429688 -35.226562 3.578125 -34.34375 C 3.722656 -33.457031 3.929688 -32.609375 4.203125 -31.796875 C 4.378906 -31.273438 4.601562 -30.921875 4.875 -30.734375 C 5.15625 -30.554688 5.453125 -30.503906 5.765625 -30.578125 C 6.085938 -30.648438 6.40625 -30.796875 6.71875 -31.015625 C 7.039062 -31.234375 7.332031 -31.488281 7.59375 -31.78125 C 7.851562 -32.082031 8.070312 -32.351562 8.25 -32.59375 C 9.1875 -34.03125 9.992188 -35.53125 10.671875 -37.09375 C 11.347656 -38.65625 11.953125 -40.226562 12.484375 -41.8125 C 12.535156 -41.9375 12.671875 -42.015625 12.890625 -42.046875 C 13.109375 -42.085938 13.316406 -42.082031 13.515625 -42.03125 C 13.710938 -41.988281 13.789062 -41.898438 13.75 -41.765625 C 13.53125 -40.640625 13.21875 -39.550781 12.8125 -38.5 C 12.40625 -37.457031 11.941406 -36.425781 11.421875 -35.40625 C 10.992188 -34.5625 10.519531 -33.691406 10 -32.796875 C 9.488281 -31.898438 8.867188 -31.128906 8.140625 -30.484375 C 7.640625 -30.046875 7.066406 -29.707031 6.421875 -29.46875 C 5.785156 -29.238281 5.128906 -29.195312 4.453125 -29.34375 C 4.023438 -29.445312 3.632812 -29.695312 3.28125 -30.09375 C 2.925781 -30.488281 2.628906 -30.957031 2.390625 -31.5 C 2.148438 -32.050781 1.96875 -32.59375 1.84375 -33.125 C 1.394531 -35.082031 1.132812 -37.066406 1.0625 -39.078125 C 0.988281 -41.097656 1.101562 -43.097656 1.40625 -45.078125 C 1.675781 -46.941406 2.097656 -48.8125 2.671875 -50.6875 C 3.242188 -52.570312 3.988281 -54.320312 4.90625 -55.9375 C 5.851562 -57.601562 7.015625 -58.679688 8.390625 -59.171875 C 9.773438 -59.660156 11.210938 -59.578125 12.703125 -58.921875 C 13.484375 -58.578125 14.179688 -58.0625 14.796875 -57.375 C 15.410156 -56.6875 15.957031 -55.910156 16.4375 -55.046875 C 16.925781 -54.191406 17.351562 -53.316406 17.71875 -52.421875 C 18.09375 -51.535156 18.425781 -50.722656 18.71875 -49.984375 C 19.675781 -47.472656 20.4375 -44.878906 21 -42.203125 C 21.5625 -39.535156 21.988281 -36.84375 22.28125 -34.125 C 22.570312 -31.414062 22.796875 -28.726562 22.953125 -26.0625 C 23.097656 -23.84375 23.175781 -21.617188 23.1875 -19.390625 C 23.207031 -17.171875 23.175781 -14.953125 23.09375 -12.734375 Z M 23.09375 -12.734375 "/></g></g></g><g fill="#ffffff" fill-opacity="1"><g transform="translate(140.503342, 63.499967)"><g><path d="M 7.9375 -24.203125 C 7.570312 -23.585938 7.140625 -23.019531 6.640625 -22.5 C 6.148438 -21.988281 5.59375 -21.585938 4.96875 -21.296875 C 4.351562 -21.015625 3.660156 -20.910156 2.890625 -20.984375 C 2.816406 -20.984375 2.738281 -20.988281 2.65625 -21 C 2.582031 -21.007812 2.503906 -21.019531 2.421875 -21.03125 C 2.472656 -20.320312 2.570312 -19.628906 2.71875 -18.953125 C 2.875 -18.273438 3.097656 -17.664062 3.390625 -17.125 C 3.691406 -16.582031 4.085938 -16.140625 4.578125 -15.796875 C 5.078125 -15.460938 5.6875 -15.28125 6.40625 -15.25 C 7.03125 -15.226562 7.617188 -15.375 8.171875 -15.6875 C 8.722656 -16 9.234375 -16.410156 9.703125 -16.921875 C 10.171875 -17.441406 10.597656 -17.988281 10.984375 -18.5625 C 11.378906 -19.132812 11.734375 -19.671875 12.046875 -20.171875 C 12.148438 -20.347656 12.296875 -20.628906 12.484375 -21.015625 C 12.679688 -21.410156 12.890625 -21.863281 13.109375 -22.375 C 13.328125 -22.882812 13.539062 -23.414062 13.75 -23.96875 C 13.96875 -24.53125 14.160156 -25.078125 14.328125 -25.609375 C 14.492188 -26.140625 14.613281 -26.609375 14.6875 -27.015625 C 14.738281 -27.285156 14.851562 -27.457031 15.03125 -27.53125 C 15.207031 -27.613281 15.367188 -27.609375 15.515625 -27.515625 C 15.671875 -27.429688 15.710938 -27.257812 15.640625 -27 C 15.484375 -26.300781 15.257812 -25.507812 14.96875 -24.625 C 14.675781 -23.738281 14.34375 -22.832031 13.96875 -21.90625 C 13.59375 -20.976562 13.195312 -20.078125 12.78125 -19.203125 C 12.257812 -18.097656 11.648438 -17.09375 10.953125 -16.1875 C 10.253906 -15.28125 9.488281 -14.550781 8.65625 -14 C 7.832031 -13.457031 6.953125 -13.15625 6.015625 -13.09375 C 5.140625 -13.019531 4.296875 -13.097656 3.484375 -13.328125 C 2.671875 -13.566406 1.945312 -13.953125 1.3125 -14.484375 C 0.675781 -15.023438 0.160156 -15.707031 -0.234375 -16.53125 C -0.597656 -17.332031 -0.859375 -18.1875 -1.015625 -19.09375 C -1.171875 -20.007812 -1.25 -20.9375 -1.25 -21.875 C -1.257812 -22.820312 -1.238281 -23.726562 -1.1875 -24.59375 C -1.15625 -25.289062 -1.0625 -26.0625 -0.90625 -26.90625 C -0.757812 -27.75 -0.546875 -28.601562 -0.265625 -29.46875 C 0.00390625 -30.34375 0.34375 -31.179688 0.75 -31.984375 C 1.164062 -32.796875 1.648438 -33.519531 2.203125 -34.15625 C 2.765625 -34.800781 3.40625 -35.3125 4.125 -35.6875 C 4.84375 -36.0625 5.644531 -36.25 6.53125 -36.25 C 7.382812 -36.25 8.070312 -36.082031 8.59375 -35.75 C 9.113281 -35.414062 9.492188 -34.957031 9.734375 -34.375 C 9.972656 -33.800781 10.109375 -33.148438 10.140625 -32.421875 C 10.179688 -31.703125 10.132812 -30.945312 10 -30.15625 C 9.875 -29.375 9.691406 -28.601562 9.453125 -27.84375 C 9.222656 -27.09375 8.972656 -26.398438 8.703125 -25.765625 C 8.429688 -25.140625 8.175781 -24.617188 7.9375 -24.203125 Z M 2.390625 -22.5 C 2.421875 -22.476562 2.457031 -22.453125 2.5 -22.421875 C 2.539062 -22.398438 2.585938 -22.375 2.640625 -22.34375 C 3.023438 -22.144531 3.382812 -22.101562 3.71875 -22.21875 C 4.0625 -22.332031 4.375 -22.53125 4.65625 -22.8125 C 4.945312 -23.101562 5.203125 -23.421875 5.421875 -23.765625 C 5.648438 -24.109375 5.84375 -24.410156 6 -24.671875 C 6.570312 -25.703125 7.03125 -26.789062 7.375 -27.9375 C 7.71875 -29.082031 7.894531 -30.238281 7.90625 -31.40625 C 7.925781 -31.707031 7.914062 -32.078125 7.875 -32.515625 C 7.84375 -32.960938 7.757812 -33.390625 7.625 -33.796875 C 7.5 -34.210938 7.28125 -34.503906 6.96875 -34.671875 C 6.6875 -34.835938 6.328125 -34.757812 5.890625 -34.4375 C 5.453125 -34.125 5.007812 -33.597656 4.5625 -32.859375 C 4.113281 -32.128906 3.710938 -31.210938 3.359375 -30.109375 C 3.003906 -29.003906 2.757812 -27.757812 2.625 -26.375 C 2.582031 -25.957031 2.53125 -25.40625 2.46875 -24.71875 C 2.414062 -24.03125 2.390625 -23.289062 2.390625 -22.5 Z M 2.390625 -22.5 "/></g></g></g><g fill="#ffffff" fill-opacity="1"><g transform="translate(155.345641, 63.499967)"><g><path d="M 9.265625 -25.09375 C 8.660156 -24.5 8.054688 -24.109375 7.453125 -23.921875 C 6.847656 -23.742188 6.210938 -23.875 5.546875 -24.3125 C 5.265625 -24.507812 5.0625 -24.765625 4.9375 -25.078125 C 4.8125 -25.390625 4.757812 -25.703125 4.78125 -26.015625 C 4.8125 -26.328125 4.898438 -26.582031 5.046875 -26.78125 C 5.097656 -26.820312 5.210938 -26.847656 5.390625 -26.859375 C 5.578125 -26.867188 5.765625 -26.859375 5.953125 -26.828125 C 6.148438 -26.804688 6.300781 -26.765625 6.40625 -26.703125 C 6.519531 -26.640625 6.535156 -26.535156 6.453125 -26.390625 C 6.347656 -26.234375 6.296875 -26.054688 6.296875 -25.859375 C 6.304688 -25.660156 6.375 -25.492188 6.5 -25.359375 C 6.625 -25.222656 6.800781 -25.15625 7.03125 -25.15625 C 7.269531 -25.164062 7.484375 -25.320312 7.671875 -25.625 C 7.859375 -25.925781 8.019531 -26.316406 8.15625 -26.796875 C 8.300781 -27.273438 8.414062 -27.785156 8.5 -28.328125 C 8.59375 -28.878906 8.640625 -29.40625 8.640625 -29.90625 C 8.640625 -30.414062 8.59375 -30.84375 8.5 -31.1875 C 8.414062 -31.53125 8.285156 -31.734375 8.109375 -31.796875 C 7.691406 -31.953125 7.257812 -31.882812 6.8125 -31.59375 C 6.363281 -31.300781 5.925781 -30.828125 5.5 -30.171875 C 5.070312 -29.523438 4.671875 -28.726562 4.296875 -27.78125 C 3.929688 -26.84375 3.613281 -25.796875 3.34375 -24.640625 C 3.070312 -23.484375 2.867188 -22.269531 2.734375 -21 C 2.503906 -19.695312 2.390625 -18.320312 2.390625 -16.875 C 2.398438 -15.425781 2.398438 -14.023438 2.390625 -12.671875 C 2.390625 -12.617188 2.390625 -12.5625 2.390625 -12.5 C 2.398438 -12.4375 2.40625 -12.378906 2.40625 -12.328125 L 2.390625 -12.328125 C 2.390625 -12.234375 2.382812 -12.140625 2.375 -12.046875 C 2.363281 -11.960938 2.359375 -11.875 2.359375 -11.78125 C 2.347656 -11.519531 2.222656 -11.320312 1.984375 -11.1875 C 1.753906 -11.0625 1.460938 -10.992188 1.109375 -10.984375 C 0.765625 -10.984375 0.414062 -11.035156 0.0625 -11.140625 C -0.289062 -11.242188 -0.585938 -11.390625 -0.828125 -11.578125 C -1.066406 -11.765625 -1.195312 -11.988281 -1.21875 -12.25 C -1.300781 -14.1875 -1.378906 -16.117188 -1.453125 -18.046875 C -1.535156 -19.972656 -1.585938 -21.898438 -1.609375 -23.828125 C -1.609375 -24.796875 -1.59375 -25.765625 -1.5625 -26.734375 C -1.539062 -27.703125 -1.503906 -28.660156 -1.453125 -29.609375 C -1.410156 -30.191406 -1.351562 -30.804688 -1.28125 -31.453125 C -1.21875 -32.097656 -1.117188 -32.707031 -0.984375 -33.28125 C -0.859375 -33.851562 -0.691406 -34.316406 -0.484375 -34.671875 C -0.378906 -34.847656 -0.195312 -34.992188 0.0625 -35.109375 C 0.320312 -35.222656 0.601562 -35.296875 0.90625 -35.328125 C 1.21875 -35.359375 1.507812 -35.34375 1.78125 -35.28125 C 2.0625 -35.226562 2.285156 -35.125 2.453125 -34.96875 C 2.617188 -34.820312 2.675781 -34.625 2.625 -34.375 C 2.425781 -33.375 2.3125 -32.460938 2.28125 -31.640625 C 2.25 -30.816406 2.207031 -29.957031 2.15625 -29.0625 C 2.132812 -28.550781 2.113281 -28.035156 2.09375 -27.515625 C 2.082031 -26.992188 2.066406 -26.472656 2.046875 -25.953125 C 2.117188 -26.148438 2.1875 -26.34375 2.25 -26.53125 C 2.320312 -26.71875 2.398438 -26.910156 2.484375 -27.109375 C 2.816406 -27.972656 3.175781 -28.847656 3.5625 -29.734375 C 3.957031 -30.617188 4.398438 -31.429688 4.890625 -32.171875 C 5.390625 -32.910156 5.945312 -33.5 6.5625 -33.9375 C 7.1875 -34.375 7.894531 -34.570312 8.6875 -34.53125 C 9.226562 -34.507812 9.664062 -34.3125 10 -33.9375 C 10.34375 -33.5625 10.59375 -33.082031 10.75 -32.5 C 10.914062 -31.914062 11 -31.273438 11 -30.578125 C 11.007812 -29.878906 10.945312 -29.175781 10.8125 -28.46875 C 10.675781 -27.769531 10.476562 -27.125 10.21875 -26.53125 C 9.957031 -25.9375 9.640625 -25.457031 9.265625 -25.09375 Z M 9.265625 -25.09375 "/></g></g></g><g fill="#ffffff" fill-opacity="1"><g transform="translate(168.274065, 63.499967)"><g><path d="M 17.3125 -25.234375 C 17.320312 -25.285156 17.375 -25.3125 17.46875 -25.3125 C 17.570312 -25.3125 17.613281 -25.285156 17.59375 -25.234375 C 17.351562 -23.441406 17.019531 -21.660156 16.59375 -19.890625 C 16.164062 -18.128906 15.679688 -16.382812 15.140625 -14.65625 C 14.941406 -14.03125 14.613281 -13.5625 14.15625 -13.25 C 13.707031 -12.945312 13.203125 -12.785156 12.640625 -12.765625 C 12.078125 -12.753906 11.53125 -12.875 11 -13.125 C 10.46875 -13.382812 10.023438 -13.753906 9.671875 -14.234375 C 9.148438 -14.960938 8.773438 -15.804688 8.546875 -16.765625 C 8.328125 -17.722656 8.179688 -18.695312 8.109375 -19.6875 C 7.972656 -19.226562 7.835938 -18.769531 7.703125 -18.3125 C 7.566406 -17.863281 7.425781 -17.410156 7.28125 -16.953125 C 7.113281 -16.441406 6.9375 -15.9375 6.75 -15.4375 C 6.5625 -14.945312 6.320312 -14.503906 6.03125 -14.109375 C 5.75 -13.710938 5.390625 -13.398438 4.953125 -13.171875 C 4.523438 -12.941406 3.992188 -12.835938 3.359375 -12.859375 C 2.628906 -12.878906 2.015625 -13.078125 1.515625 -13.453125 C 1.015625 -13.835938 0.601562 -14.320312 0.28125 -14.90625 C -0.0390625 -15.488281 -0.285156 -16.097656 -0.453125 -16.734375 C -0.765625 -17.921875 -0.929688 -19.164062 -0.953125 -20.46875 C -0.984375 -21.78125 -0.894531 -23.101562 -0.6875 -24.4375 C -0.488281 -25.78125 -0.191406 -27.078125 0.203125 -28.328125 C 0.597656 -29.585938 1.070312 -30.75 1.625 -31.8125 C 1.9375 -32.414062 2.289062 -32.96875 2.6875 -33.46875 C 3.09375 -33.976562 3.566406 -34.390625 4.109375 -34.703125 C 4.660156 -35.015625 5.3125 -35.164062 6.0625 -35.15625 C 6.300781 -35.15625 6.585938 -35.125 6.921875 -35.0625 C 7.253906 -35 7.566406 -34.894531 7.859375 -34.75 C 8.046875 -37.625 8.394531 -40.472656 8.90625 -43.296875 C 9.164062 -44.785156 9.453125 -46.316406 9.765625 -47.890625 C 10.078125 -49.460938 10.515625 -50.953125 11.078125 -52.359375 C 11.328125 -52.960938 11.660156 -53.476562 12.078125 -53.90625 C 12.503906 -54.332031 12.96875 -54.644531 13.46875 -54.84375 C 13.976562 -55.039062 14.484375 -55.085938 14.984375 -54.984375 C 15.492188 -54.890625 15.941406 -54.609375 16.328125 -54.140625 C 16.597656 -53.816406 16.804688 -53.367188 16.953125 -52.796875 C 17.097656 -52.222656 17.1875 -51.585938 17.21875 -50.890625 C 17.257812 -50.203125 17.269531 -49.507812 17.25 -48.8125 C 17.238281 -48.125 17.203125 -47.492188 17.140625 -46.921875 C 17.078125 -46.347656 17.015625 -45.894531 16.953125 -45.5625 C 16.648438 -43.96875 16.25 -42.332031 15.75 -40.65625 C 15.25 -38.976562 14.640625 -37.34375 13.921875 -35.75 C 13.210938 -34.15625 12.378906 -32.660156 11.421875 -31.265625 C 11.347656 -28.941406 11.359375 -26.582031 11.453125 -24.1875 C 11.554688 -21.789062 11.84375 -19.453125 12.3125 -17.171875 C 12.375 -16.828125 12.457031 -16.484375 12.5625 -16.140625 C 12.664062 -15.804688 12.804688 -15.492188 12.984375 -15.203125 C 13.023438 -15.148438 13.066406 -15.097656 13.109375 -15.046875 C 13.148438 -15.003906 13.195312 -14.957031 13.25 -14.90625 C 13.375 -15.019531 13.492188 -15.148438 13.609375 -15.296875 C 13.734375 -15.441406 13.835938 -15.582031 13.921875 -15.71875 C 14.117188 -16.007812 14.285156 -16.3125 14.421875 -16.625 C 14.554688 -16.945312 14.691406 -17.257812 14.828125 -17.5625 C 15.390625 -18.800781 15.875 -20.050781 16.28125 -21.3125 C 16.6875 -22.582031 17.03125 -23.890625 17.3125 -25.234375 Z M 13.421875 -47.390625 C 12.898438 -45.109375 12.484375 -42.8125 12.171875 -40.5 C 11.859375 -38.1875 11.632812 -35.863281 11.5 -33.53125 C 11.757812 -34 12.007812 -34.472656 12.25 -34.953125 C 12.5 -35.429688 12.726562 -35.914062 12.9375 -36.40625 C 13.488281 -37.707031 13.976562 -39.035156 14.40625 -40.390625 C 14.832031 -41.742188 15.1875 -43.113281 15.46875 -44.5 C 15.738281 -45.851562 15.898438 -47.160156 15.953125 -48.421875 C 16.003906 -49.679688 15.84375 -50.976562 15.46875 -52.3125 C 15.46875 -52.3125 15.4375 -52.363281 15.375 -52.46875 C 15.320312 -52.570312 15.253906 -52.648438 15.171875 -52.703125 C 15.085938 -52.753906 14.992188 -52.691406 14.890625 -52.515625 C 14.753906 -52.304688 14.644531 -52.078125 14.5625 -51.828125 C 14.488281 -51.585938 14.421875 -51.34375 14.359375 -51.09375 C 14.003906 -49.84375 13.691406 -48.609375 13.421875 -47.390625 Z M 7.671875 -27.5625 C 7.660156 -28.25 7.65625 -28.9375 7.65625 -29.625 C 7.664062 -30.320312 7.679688 -31.007812 7.703125 -31.6875 C 7.609375 -32.175781 7.394531 -32.550781 7.0625 -32.8125 C 6.726562 -33.082031 6.425781 -33.179688 6.15625 -33.109375 C 5.945312 -33.046875 5.734375 -32.910156 5.515625 -32.703125 C 5.304688 -32.503906 5.109375 -32.285156 4.921875 -32.046875 C 4.742188 -31.816406 4.609375 -31.609375 4.515625 -31.421875 C 4.109375 -30.640625 3.78125 -29.828125 3.53125 -28.984375 C 3.289062 -28.148438 3.078125 -27.3125 2.890625 -26.46875 C 2.671875 -25.414062 2.488281 -24.289062 2.34375 -23.09375 C 2.195312 -21.894531 2.132812 -20.710938 2.15625 -19.546875 C 2.1875 -18.390625 2.320312 -17.332031 2.5625 -16.375 C 2.613281 -16.175781 2.675781 -15.972656 2.75 -15.765625 C 2.832031 -15.554688 2.929688 -15.367188 3.046875 -15.203125 C 3.234375 -14.921875 3.410156 -14.773438 3.578125 -14.765625 C 3.742188 -14.765625 3.929688 -14.867188 4.140625 -15.078125 C 4.484375 -15.421875 4.722656 -15.769531 4.859375 -16.125 C 4.992188 -16.476562 5.132812 -16.835938 5.28125 -17.203125 C 5.625 -18.140625 5.9375 -19.085938 6.21875 -20.046875 C 6.507812 -21.003906 6.757812 -21.976562 6.96875 -22.96875 C 7.28125 -24.488281 7.515625 -26.019531 7.671875 -27.5625 Z M 7.671875 -27.5625 "/></g></g></g><g fill="#ffffff" fill-opacity="1"><g transform="translate(185.538002, 63.499967)"><g><path d="M 7.9375 -24.203125 C 7.570312 -23.585938 7.140625 -23.019531 6.640625 -22.5 C 6.148438 -21.988281 5.59375 -21.585938 4.96875 -21.296875 C 4.351562 -21.015625 3.660156 -20.910156 2.890625 -20.984375 C 2.816406 -20.984375 2.738281 -20.988281 2.65625 -21 C 2.582031 -21.007812 2.503906 -21.019531 2.421875 -21.03125 C 2.472656 -20.320312 2.570312 -19.628906 2.71875 -18.953125 C 2.875 -18.273438 3.097656 -17.664062 3.390625 -17.125 C 3.691406 -16.582031 4.085938 -16.140625 4.578125 -15.796875 C 5.078125 -15.460938 5.6875 -15.28125 6.40625 -15.25 C 7.03125 -15.226562 7.617188 -15.375 8.171875 -15.6875 C 8.722656 -16 9.234375 -16.410156 9.703125 -16.921875 C 10.171875 -17.441406 10.597656 -17.988281 10.984375 -18.5625 C 11.378906 -19.132812 11.734375 -19.671875 12.046875 -20.171875 C 12.148438 -20.347656 12.296875 -20.628906 12.484375 -21.015625 C 12.679688 -21.410156 12.890625 -21.863281 13.109375 -22.375 C 13.328125 -22.882812 13.539062 -23.414062 13.75 -23.96875 C 13.96875 -24.53125 14.160156 -25.078125 14.328125 -25.609375 C 14.492188 -26.140625 14.613281 -26.609375 14.6875 -27.015625 C 14.738281 -27.285156 14.851562 -27.457031 15.03125 -27.53125 C 15.207031 -27.613281 15.367188 -27.609375 15.515625 -27.515625 C 15.671875 -27.429688 15.710938 -27.257812 15.640625 -27 C 15.484375 -26.300781 15.257812 -25.507812 14.96875 -24.625 C 14.675781 -23.738281 14.34375 -22.832031 13.96875 -21.90625 C 13.59375 -20.976562 13.195312 -20.078125 12.78125 -19.203125 C 12.257812 -18.097656 11.648438 -17.09375 10.953125 -16.1875 C 10.253906 -15.28125 9.488281 -14.550781 8.65625 -14 C 7.832031 -13.457031 6.953125 -13.15625 6.015625 -13.09375 C 5.140625 -13.019531 4.296875 -13.097656 3.484375 -13.328125 C 2.671875 -13.566406 1.945312 -13.953125 1.3125 -14.484375 C 0.675781 -15.023438 0.160156 -15.707031 -0.234375 -16.53125 C -0.597656 -17.332031 -0.859375 -18.1875 -1.015625 -19.09375 C -1.171875 -20.007812 -1.25 -20.9375 -1.25 -21.875 C -1.257812 -22.820312 -1.238281 -23.726562 -1.1875 -24.59375 C -1.15625 -25.289062 -1.0625 -26.0625 -0.90625 -26.90625 C -0.757812 -27.75 -0.546875 -28.601562 -0.265625 -29.46875 C 0.00390625 -30.34375 0.34375 -31.179688 0.75 -31.984375 C 1.164062 -32.796875 1.648438 -33.519531 2.203125 -34.15625 C 2.765625 -34.800781 3.40625 -35.3125 4.125 -35.6875 C 4.84375 -36.0625 5.644531 -36.25 6.53125 -36.25 C 7.382812 -36.25 8.070312 -36.082031 8.59375 -35.75 C 9.113281 -35.414062 9.492188 -34.957031 9.734375 -34.375 C 9.972656 -33.800781 10.109375 -33.148438 10.140625 -32.421875 C 10.179688 -31.703125 10.132812 -30.945312 10 -30.15625 C 9.875 -29.375 9.691406 -28.601562 9.453125 -27.84375 C 9.222656 -27.09375 8.972656 -26.398438 8.703125 -25.765625 C 8.429688 -25.140625 8.175781 -24.617188 7.9375 -24.203125 Z M 2.390625 -22.5 C 2.421875 -22.476562 2.457031 -22.453125 2.5 -22.421875 C 2.539062 -22.398438 2.585938 -22.375 2.640625 -22.34375 C 3.023438 -22.144531 3.382812 -22.101562 3.71875 -22.21875 C 4.0625 -22.332031 4.375 -22.53125 4.65625 -22.8125 C 4.945312 -23.101562 5.203125 -23.421875 5.421875 -23.765625 C 5.648438 -24.109375 5.84375 -24.410156 6 -24.671875 C 6.570312 -25.703125 7.03125 -26.789062 7.375 -27.9375 C 7.71875 -29.082031 7.894531 -30.238281 7.90625 -31.40625 C 7.925781 -31.707031 7.914062 -32.078125 7.875 -32.515625 C 7.84375 -32.960938 7.757812 -33.390625 7.625 -33.796875 C 7.5 -34.210938 7.28125 -34.503906 6.96875 -34.671875 C 6.6875 -34.835938 6.328125 -34.757812 5.890625 -34.4375 C 5.453125 -34.125 5.007812 -33.597656 4.5625 -32.859375 C 4.113281 -32.128906 3.710938 -31.210938 3.359375 -30.109375 C 3.003906 -29.003906 2.757812 -27.757812 2.625 -26.375 C 2.582031 -25.957031 2.53125 -25.40625 2.46875 -24.71875 C 2.414062 -24.03125 2.390625 -23.289062 2.390625 -22.5 Z M 2.390625 -22.5 "/></g></g></g></svg>