<svg xmlns="http://www.w3.org/2000/svg" xmlns:xlink="http://www.w3.org/1999/xlink" width="1000" zoomAndPan="magnify" viewBox="0 0 750 74.999997" height="100" preserveAspectRatio="xMidYMid meet" version="1.0"><defs><g/></defs><g fill="#ffffff" fill-opacity="1"><g transform="translate(10.511733, 63.499974)"><g><path d="M 24.375 -15.515625 C 24.40625 -15.804688 24.539062 -16.039062 24.78125 -16.21875 C 25.03125 -16.40625 25.320312 -16.53125 25.65625 -16.59375 C 26 -16.65625 26.335938 -16.65625 26.671875 -16.59375 C 27.015625 -16.53125 27.300781 -16.414062 27.53125 -16.25 C 27.769531 -16.082031 27.890625 -15.851562 27.890625 -15.5625 C 27.898438 -14.800781 27.804688 -13.925781 27.609375 -12.9375 C 27.410156 -11.957031 27.109375 -10.945312 26.703125 -9.90625 C 26.304688 -8.863281 25.828125 -7.863281 25.265625 -6.90625 C 24.710938 -5.945312 24.078125 -5.097656 23.359375 -4.359375 C 22.640625 -3.628906 21.859375 -3.078125 21.015625 -2.703125 C 19.960938 -2.234375 18.8125 -1.910156 17.5625 -1.734375 C 16.3125 -1.566406 15.046875 -1.5625 13.765625 -1.71875 C 12.484375 -1.875 11.269531 -2.195312 10.125 -2.6875 C 8.988281 -3.175781 8 -3.84375 7.15625 -4.6875 C 6.039062 -5.8125 5.109375 -7.039062 4.359375 -8.375 C 3.617188 -9.707031 3.023438 -11.101562 2.578125 -12.5625 C 2.140625 -14.03125 1.816406 -15.507812 1.609375 -17 C 1.410156 -18.488281 1.296875 -19.957031 1.265625 -21.40625 C 1.242188 -22.851562 1.28125 -24.226562 1.375 -25.53125 C 1.613281 -29.175781 1.988281 -32.445312 2.5 -35.34375 C 3.019531 -38.238281 3.640625 -40.804688 4.359375 -43.046875 C 5.085938 -45.285156 5.875 -47.234375 6.71875 -48.890625 C 7.5625 -50.546875 8.4375 -51.945312 9.34375 -53.09375 C 10.257812 -54.238281 11.164062 -55.175781 12.0625 -55.90625 C 12.96875 -56.632812 13.828125 -57.191406 14.640625 -57.578125 C 15.460938 -57.972656 16.207031 -58.234375 16.875 -58.359375 C 17.550781 -58.492188 18.113281 -58.539062 18.5625 -58.5 C 19.875 -58.382812 21.007812 -58.082031 21.96875 -57.59375 C 22.9375 -57.101562 23.757812 -56.476562 24.4375 -55.71875 C 25.113281 -54.96875 25.671875 -54.128906 26.109375 -53.203125 C 26.554688 -52.273438 26.898438 -51.3125 27.140625 -50.3125 C 27.390625 -49.3125 27.5625 -48.316406 27.65625 -47.328125 C 27.757812 -46.335938 27.8125 -45.398438 27.8125 -44.515625 C 27.820312 -43.640625 27.804688 -42.859375 27.765625 -42.171875 C 27.734375 -41.492188 27.695312 -40.96875 27.65625 -40.59375 C 27.539062 -39.363281 27.375 -38.148438 27.15625 -36.953125 C 26.945312 -35.753906 26.664062 -34.628906 26.3125 -33.578125 C 25.957031 -32.523438 25.53125 -31.585938 25.03125 -30.765625 C 24.539062 -29.953125 23.960938 -29.300781 23.296875 -28.8125 C 22.640625 -28.332031 21.878906 -28.070312 21.015625 -28.03125 C 20.347656 -28 19.757812 -28.175781 19.25 -28.5625 C 18.75 -28.957031 18.316406 -29.503906 17.953125 -30.203125 C 17.597656 -30.898438 17.316406 -31.703125 17.109375 -32.609375 C 16.898438 -33.515625 16.753906 -34.472656 16.671875 -35.484375 C 16.597656 -36.492188 16.585938 -37.5 16.640625 -38.5 C 16.691406 -39.507812 16.800781 -40.46875 16.96875 -41.375 C 17.144531 -42.28125 17.375 -43.078125 17.65625 -43.765625 C 17.84375 -44.148438 18.0625 -44.378906 18.3125 -44.453125 C 18.5625 -44.535156 18.773438 -44.519531 18.953125 -44.40625 C 19.140625 -44.289062 19.203125 -44.128906 19.140625 -43.921875 C 19.085938 -43.765625 19.023438 -43.425781 18.953125 -42.90625 C 18.878906 -42.382812 18.8125 -41.742188 18.75 -40.984375 C 18.6875 -40.222656 18.632812 -39.394531 18.59375 -38.5 C 18.550781 -37.601562 18.539062 -36.691406 18.5625 -35.765625 C 18.582031 -34.835938 18.644531 -33.957031 18.75 -33.125 C 18.863281 -32.289062 19.03125 -31.554688 19.25 -30.921875 C 19.476562 -30.296875 19.773438 -29.816406 20.140625 -29.484375 C 20.515625 -29.148438 20.96875 -29.035156 21.5 -29.140625 C 21.800781 -29.191406 22.078125 -29.394531 22.328125 -29.75 C 22.585938 -30.101562 22.820312 -30.550781 23.03125 -31.09375 C 23.238281 -31.644531 23.425781 -32.238281 23.59375 -32.875 C 23.757812 -33.519531 23.90625 -34.160156 24.03125 -34.796875 C 24.15625 -35.441406 24.253906 -36.03125 24.328125 -36.5625 C 24.410156 -37.09375 24.46875 -37.515625 24.5 -37.828125 C 24.625 -39.148438 24.726562 -40.515625 24.8125 -41.921875 C 24.894531 -43.335938 24.921875 -44.738281 24.890625 -46.125 C 24.859375 -47.519531 24.738281 -48.847656 24.53125 -50.109375 C 24.320312 -51.378906 23.984375 -52.519531 23.515625 -53.53125 C 23.054688 -54.550781 22.441406 -55.382812 21.671875 -56.03125 C 20.898438 -56.6875 19.925781 -57.09375 18.75 -57.25 C 18.03125 -57.351562 17.253906 -57.234375 16.421875 -56.890625 C 15.585938 -56.546875 14.734375 -55.914062 13.859375 -55 C 12.984375 -54.09375 12.125 -52.847656 11.28125 -51.265625 C 10.4375 -49.679688 9.644531 -47.707031 8.90625 -45.34375 C 8.175781 -42.976562 7.535156 -40.175781 6.984375 -36.9375 C 6.429688 -33.695312 6.003906 -29.953125 5.703125 -25.703125 C 5.585938 -24.117188 5.550781 -22.5 5.59375 -20.84375 C 5.644531 -19.195312 5.804688 -17.5625 6.078125 -15.9375 C 6.359375 -14.320312 6.789062 -12.753906 7.375 -11.234375 C 7.96875 -9.710938 8.753906 -8.285156 9.734375 -6.953125 C 10.273438 -6.210938 10.925781 -5.582031 11.6875 -5.0625 C 12.445312 -4.539062 13.269531 -4.164062 14.15625 -3.9375 C 15.039062 -3.71875 15.929688 -3.675781 16.828125 -3.8125 C 17.734375 -3.957031 18.585938 -4.304688 19.390625 -4.859375 C 20.222656 -5.453125 20.9375 -6.148438 21.53125 -6.953125 C 22.125 -7.765625 22.613281 -8.640625 23 -9.578125 C 23.394531 -10.523438 23.703125 -11.503906 23.921875 -12.515625 C 24.148438 -13.523438 24.300781 -14.523438 24.375 -15.515625 Z M 24.375 -15.515625 "/></g></g></g><g fill="#ffffff" fill-opacity="1"><g transform="translate(41.13374, 63.499974)"><g><path d="M 20.3125 -26.390625 C 20.320312 -26.515625 20.414062 -26.597656 20.59375 -26.640625 C 20.769531 -26.691406 20.945312 -26.695312 21.125 -26.65625 C 21.300781 -26.625 21.382812 -26.539062 21.375 -26.40625 C 21.300781 -24.507812 21.140625 -22.585938 20.890625 -20.640625 C 20.640625 -18.691406 20.289062 -16.757812 19.84375 -14.84375 C 19.40625 -12.925781 18.847656 -11.078125 18.171875 -9.296875 C 17.910156 -8.609375 17.503906 -8.046875 16.953125 -7.609375 C 16.410156 -7.171875 15.789062 -6.910156 15.09375 -6.828125 C 14.40625 -6.742188 13.703125 -6.878906 12.984375 -7.234375 C 12.398438 -7.515625 11.945312 -7.925781 11.625 -8.46875 C 11.300781 -9.019531 11.0625 -9.628906 10.90625 -10.296875 C 10.75 -10.972656 10.648438 -11.648438 10.609375 -12.328125 C 10.566406 -13.015625 10.539062 -13.632812 10.53125 -14.1875 C 10.488281 -16.082031 10.546875 -17.96875 10.703125 -19.84375 C 10.867188 -21.71875 11.03125 -23.59375 11.1875 -25.46875 C 11.34375 -27.351562 11.394531 -29.242188 11.34375 -31.140625 C 11.238281 -31.003906 11.113281 -30.867188 10.96875 -30.734375 C 10.820312 -30.597656 10.710938 -30.476562 10.640625 -30.375 C 10.347656 -29.914062 10.078125 -29.414062 9.828125 -28.875 C 9.554688 -28.3125 9.3125 -27.734375 9.09375 -27.140625 C 8.875 -26.554688 8.671875 -25.972656 8.484375 -25.390625 C 8.015625 -23.941406 7.625 -22.484375 7.3125 -21.015625 C 7 -19.546875 6.75 -18.054688 6.5625 -16.546875 C 6.507812 -16.148438 6.46875 -15.679688 6.4375 -15.140625 C 6.40625 -14.609375 6.335938 -14.070312 6.234375 -13.53125 C 6.140625 -13 5.972656 -12.523438 5.734375 -12.109375 C 5.492188 -11.703125 5.140625 -11.429688 4.671875 -11.296875 C 4.265625 -11.160156 3.863281 -11.132812 3.46875 -11.21875 C 3.082031 -11.300781 2.722656 -11.441406 2.390625 -11.640625 C 2.054688 -11.847656 1.769531 -12.066406 1.53125 -12.296875 C 1.289062 -12.535156 1.117188 -12.738281 1.015625 -12.90625 C 0.910156 -13.0625 0.828125 -13.226562 0.765625 -13.40625 C 0.710938 -13.59375 0.660156 -13.78125 0.609375 -13.96875 C -0.0976562 -16.800781 -0.582031 -19.703125 -0.84375 -22.671875 C -1.113281 -25.640625 -1.222656 -28.582031 -1.171875 -31.5 C -1.117188 -33.875 -0.960938 -36.160156 -0.703125 -38.359375 C -0.441406 -40.554688 -0.113281 -42.601562 0.28125 -44.5 C 0.675781 -46.40625 1.101562 -48.097656 1.5625 -49.578125 C 2.03125 -51.054688 2.492188 -52.265625 2.953125 -53.203125 C 3.410156 -54.148438 3.828125 -54.769531 4.203125 -55.0625 C 4.503906 -55.28125 4.847656 -55.46875 5.234375 -55.625 C 5.628906 -55.789062 6.035156 -55.898438 6.453125 -55.953125 C 6.867188 -56.003906 7.257812 -55.976562 7.625 -55.875 C 8 -55.769531 8.316406 -55.5625 8.578125 -55.25 C 9.015625 -54.707031 9.332031 -53.925781 9.53125 -52.90625 C 9.738281 -51.882812 9.8125 -50.6875 9.75 -49.3125 C 9.6875 -47.945312 9.488281 -46.457031 9.15625 -44.84375 C 8.832031 -43.238281 8.367188 -41.5625 7.765625 -39.8125 C 7.171875 -38.0625 6.429688 -36.289062 5.546875 -34.5 C 4.660156 -32.707031 3.632812 -30.960938 2.46875 -29.265625 C 2.476562 -28.753906 2.492188 -28.242188 2.515625 -27.734375 C 2.535156 -27.222656 2.550781 -26.722656 2.5625 -26.234375 C 2.6875 -23.753906 2.941406 -21.285156 3.328125 -18.828125 C 3.429688 -18.191406 3.535156 -17.554688 3.640625 -16.921875 C 3.753906 -16.296875 3.875 -15.671875 4 -15.046875 C 4.03125 -14.992188 4.046875 -14.929688 4.046875 -14.859375 C 4.054688 -14.796875 4.066406 -14.734375 4.078125 -14.671875 C 4.148438 -14.972656 4.207031 -15.257812 4.25 -15.53125 C 4.289062 -15.800781 4.332031 -16.039062 4.375 -16.25 C 4.488281 -16.90625 4.601562 -17.550781 4.71875 -18.1875 C 4.832031 -18.832031 4.957031 -19.476562 5.09375 -20.125 C 5.382812 -21.425781 5.722656 -22.707031 6.109375 -23.96875 C 6.503906 -25.238281 6.941406 -26.488281 7.421875 -27.71875 C 7.628906 -28.257812 7.867188 -28.820312 8.140625 -29.40625 C 8.421875 -30 8.738281 -30.566406 9.09375 -31.109375 C 9.445312 -31.648438 9.851562 -32.101562 10.3125 -32.46875 C 10.675781 -32.75 11.101562 -32.925781 11.59375 -33 C 12.09375 -33.070312 12.585938 -33.039062 13.078125 -32.90625 C 13.566406 -32.78125 13.96875 -32.554688 14.28125 -32.234375 C 14.632812 -31.867188 14.875 -31.414062 15 -30.875 C 15.132812 -30.34375 15.195312 -29.769531 15.1875 -29.15625 C 15.175781 -28.550781 15.140625 -27.957031 15.078125 -27.375 C 15.015625 -26.789062 14.96875 -26.28125 14.9375 -25.84375 C 14.863281 -24.601562 14.765625 -23.363281 14.640625 -22.125 C 14.515625 -20.894531 14.40625 -19.660156 14.3125 -18.421875 C 14.226562 -17.234375 14.164062 -16.023438 14.125 -14.796875 C 14.09375 -13.578125 14.191406 -12.390625 14.421875 -11.234375 C 14.484375 -10.890625 14.5625 -10.546875 14.65625 -10.203125 C 14.757812 -9.867188 14.894531 -9.554688 15.0625 -9.265625 C 15.21875 -9.003906 15.332031 -8.851562 15.40625 -8.8125 C 15.476562 -8.769531 15.546875 -8.8125 15.609375 -8.9375 C 15.679688 -9.0625 15.785156 -9.234375 15.921875 -9.453125 C 16.222656 -9.929688 16.476562 -10.4375 16.6875 -10.96875 C 16.90625 -11.507812 17.113281 -12.039062 17.3125 -12.5625 C 19.03125 -17.007812 20.03125 -21.617188 20.3125 -26.390625 Z M 3.25 -41.03125 C 3 -39.363281 2.8125 -37.6875 2.6875 -36 C 2.5625 -34.320312 2.488281 -32.632812 2.46875 -30.9375 C 3.207031 -32.425781 3.890625 -33.9375 4.515625 -35.46875 C 5.148438 -37.007812 5.71875 -38.566406 6.21875 -40.140625 C 6.59375 -41.296875 6.925781 -42.460938 7.21875 -43.640625 C 7.507812 -44.816406 7.738281 -46.015625 7.90625 -47.234375 C 8 -47.835938 8.066406 -48.445312 8.109375 -49.0625 C 8.160156 -49.675781 8.160156 -50.289062 8.109375 -50.90625 C 8.097656 -51.09375 8.070312 -51.359375 8.03125 -51.703125 C 8 -52.054688 7.953125 -52.414062 7.890625 -52.78125 C 7.828125 -53.15625 7.734375 -53.488281 7.609375 -53.78125 C 7.492188 -54.082031 7.34375 -54.28125 7.15625 -54.375 C 7 -54.4375 6.8125 -54.269531 6.59375 -53.875 C 6.375 -53.476562 6.144531 -52.921875 5.90625 -52.203125 C 5.675781 -51.492188 5.441406 -50.6875 5.203125 -49.78125 C 4.960938 -48.882812 4.734375 -47.96875 4.515625 -47.03125 C 4.296875 -46.09375 4.09375 -45.207031 3.90625 -44.375 C 3.726562 -43.539062 3.578125 -42.828125 3.453125 -42.234375 C 3.335938 -41.640625 3.269531 -41.238281 3.25 -41.03125 Z M 3.25 -41.03125 "/></g></g></g><g fill="#ffffff" fill-opacity="1"><g transform="translate(61.854377, 63.499974)"><g><path d="M 15.640625 -27.5 C 15.660156 -27.5625 15.738281 -27.597656 15.875 -27.609375 C 16.019531 -27.628906 16.164062 -27.625 16.3125 -27.59375 C 16.457031 -27.570312 16.519531 -27.53125 16.5 -27.46875 C 16.3125 -25.832031 16.050781 -24.195312 15.71875 -22.5625 C 15.382812 -20.9375 14.9375 -19.347656 14.375 -17.796875 C 14.164062 -17.210938 13.929688 -16.613281 13.671875 -16 C 13.410156 -15.394531 13.09375 -14.859375 12.71875 -14.390625 C 12.351562 -13.921875 11.894531 -13.585938 11.34375 -13.390625 C 10.800781 -13.191406 10.140625 -13.195312 9.359375 -13.40625 C 8.722656 -13.582031 8.222656 -13.914062 7.859375 -14.40625 C 7.492188 -14.90625 7.222656 -15.492188 7.046875 -16.171875 C 6.867188 -16.847656 6.75 -17.539062 6.6875 -18.25 C 6.550781 -17.832031 6.40625 -17.414062 6.25 -17 C 6.101562 -16.59375 5.941406 -16.191406 5.765625 -15.796875 C 5.523438 -15.265625 5.238281 -14.757812 4.90625 -14.28125 C 4.582031 -13.8125 4.207031 -13.414062 3.78125 -13.09375 C 3.351562 -12.78125 2.875 -12.578125 2.34375 -12.484375 C 1.820312 -12.398438 1.238281 -12.484375 0.59375 -12.734375 C 0.03125 -12.953125 -0.414062 -13.28125 -0.75 -13.71875 C -1.09375 -14.15625 -1.351562 -14.644531 -1.53125 -15.1875 C -1.707031 -15.738281 -1.832031 -16.304688 -1.90625 -16.890625 C -1.976562 -17.484375 -2.023438 -18.039062 -2.046875 -18.5625 C -2.128906 -19.945312 -2.09375 -21.328125 -1.9375 -22.703125 C -1.78125 -24.078125 -1.519531 -25.4375 -1.15625 -26.78125 C -1 -27.351562 -0.816406 -27.96875 -0.609375 -28.625 C -0.410156 -29.28125 -0.175781 -29.929688 0.09375 -30.578125 C 0.375 -31.222656 0.695312 -31.820312 1.0625 -32.375 C 1.425781 -32.9375 1.851562 -33.414062 2.34375 -33.8125 C 2.71875 -34.113281 3.148438 -34.34375 3.640625 -34.5 C 4.140625 -34.664062 4.648438 -34.75 5.171875 -34.75 C 5.691406 -34.75 6.191406 -34.660156 6.671875 -34.484375 C 7.160156 -34.304688 7.570312 -34.03125 7.90625 -33.65625 C 7.9375 -33.625 7.960938 -33.59375 7.984375 -33.5625 C 8.015625 -33.53125 8.039062 -33.492188 8.0625 -33.453125 C 8.445312 -33.554688 8.835938 -33.59375 9.234375 -33.5625 C 9.640625 -33.539062 9.984375 -33.453125 10.265625 -33.296875 C 10.546875 -33.140625 10.671875 -32.921875 10.640625 -32.640625 C 10.515625 -30.828125 10.394531 -29 10.28125 -27.15625 C 10.175781 -25.3125 10.148438 -23.472656 10.203125 -21.640625 C 10.253906 -19.816406 10.453125 -18.007812 10.796875 -16.21875 C 10.816406 -16.082031 10.84375 -15.945312 10.875 -15.8125 C 10.90625 -15.675781 10.941406 -15.539062 10.984375 -15.40625 C 11.117188 -15.582031 11.25 -15.753906 11.375 -15.921875 C 11.5 -16.085938 11.613281 -16.253906 11.71875 -16.421875 C 12.082031 -16.960938 12.410156 -17.507812 12.703125 -18.0625 C 12.992188 -18.625 13.265625 -19.195312 13.515625 -19.78125 C 14.046875 -21.019531 14.484375 -22.28125 14.828125 -23.5625 C 15.179688 -24.84375 15.453125 -26.15625 15.640625 -27.5 Z M 5 -22.46875 C 5.351562 -23.695312 5.640625 -24.941406 5.859375 -26.203125 C 6.078125 -27.460938 6.289062 -28.722656 6.5 -29.984375 C 6.414062 -30.242188 6.300781 -30.5 6.15625 -30.75 C 6.019531 -30.96875 5.894531 -31.1875 5.78125 -31.40625 C 5.664062 -31.625 5.535156 -31.835938 5.390625 -32.046875 C 5.335938 -32.128906 5.28125 -32.207031 5.21875 -32.28125 C 5.164062 -32.363281 5.109375 -32.441406 5.046875 -32.515625 C 4.953125 -32.378906 4.863281 -32.238281 4.78125 -32.09375 C 4.695312 -31.945312 4.613281 -31.800781 4.53125 -31.65625 C 4.40625 -31.4375 4.28125 -31.207031 4.15625 -30.96875 C 4.039062 -30.726562 3.929688 -30.484375 3.828125 -30.234375 C 3.359375 -29.222656 2.96875 -28.1875 2.65625 -27.125 C 2.300781 -25.976562 2.035156 -24.800781 1.859375 -23.59375 C 1.691406 -22.394531 1.609375 -21.195312 1.609375 -20 C 1.609375 -19.46875 1.617188 -18.929688 1.640625 -18.390625 C 1.671875 -17.847656 1.726562 -17.3125 1.8125 -16.78125 C 1.84375 -16.625 1.890625 -16.375 1.953125 -16.03125 C 2.015625 -15.6875 2.109375 -15.359375 2.234375 -15.046875 C 2.460938 -15.367188 2.671875 -15.738281 2.859375 -16.15625 C 3.046875 -16.582031 3.210938 -16.988281 3.359375 -17.375 C 3.515625 -17.757812 3.625 -18.039062 3.6875 -18.21875 C 3.945312 -18.914062 4.179688 -19.617188 4.390625 -20.328125 C 4.597656 -21.035156 4.800781 -21.75 5 -22.46875 Z M 5 -22.46875 "/></g></g></g><g fill="#ffffff" fill-opacity="1"><g transform="translate(77.61456, 63.499974)"><g><path d="M 18.328125 -36.71875 C 18.046875 -36.300781 17.8125 -35.867188 17.625 -35.421875 C 17.4375 -34.984375 17.253906 -34.519531 17.078125 -34.03125 C 16.785156 -33.207031 16.519531 -32.378906 16.28125 -31.546875 C 16.050781 -30.710938 15.828125 -29.875 15.609375 -29.03125 C 15.140625 -27.132812 14.78125 -25.234375 14.53125 -23.328125 C 14.28125 -21.429688 13.988281 -19.535156 13.65625 -17.640625 C 13.644531 -17.492188 13.519531 -17.363281 13.28125 -17.25 C 13.15625 -17.15625 13.003906 -17.082031 12.828125 -17.03125 C 12.648438 -16.988281 12.484375 -16.96875 12.328125 -16.96875 C 11.390625 -17 10.644531 -17.21875 10.09375 -17.625 C 9.539062 -18.039062 9.125 -18.59375 8.84375 -19.28125 C 8.5625 -19.96875 8.378906 -20.753906 8.296875 -21.640625 C 8.222656 -22.523438 8.191406 -23.441406 8.203125 -24.390625 C 8.210938 -24.847656 8.25 -25.46875 8.3125 -26.25 C 8.382812 -27.03125 8.460938 -27.882812 8.546875 -28.8125 C 8.640625 -29.738281 8.738281 -30.65625 8.84375 -31.5625 C 8.945312 -32.476562 9.039062 -33.289062 9.125 -34 C 9.03125 -33.875 8.945312 -33.742188 8.875 -33.609375 C 8.800781 -33.472656 8.734375 -33.351562 8.671875 -33.25 C 8.460938 -32.863281 8.265625 -32.46875 8.078125 -32.0625 C 7.898438 -31.65625 7.722656 -31.242188 7.546875 -30.828125 C 7.160156 -29.910156 6.800781 -28.984375 6.46875 -28.046875 C 6.144531 -27.117188 5.835938 -26.179688 5.546875 -25.234375 C 5.066406 -23.578125 4.640625 -21.898438 4.265625 -20.203125 C 3.898438 -18.503906 3.546875 -16.800781 3.203125 -15.09375 C 3.234375 -14.75 3.273438 -14.398438 3.328125 -14.046875 C 3.378906 -13.691406 3.414062 -13.40625 3.4375 -13.1875 C 3.46875 -12.976562 3.4375 -12.785156 3.34375 -12.609375 C 3.257812 -12.429688 3.078125 -12.210938 2.796875 -11.953125 C 2.578125 -11.753906 2.273438 -11.640625 1.890625 -11.609375 C 1.503906 -11.585938 1.179688 -11.648438 0.921875 -11.796875 C 0.566406 -11.992188 0.304688 -12.160156 0.140625 -12.296875 C -0.015625 -12.429688 -0.125 -12.597656 -0.1875 -12.796875 C -0.25 -13.003906 -0.3125 -13.300781 -0.375 -13.6875 C -0.4375 -14.1875 -0.492188 -14.679688 -0.546875 -15.171875 C -0.609375 -15.660156 -0.65625 -16.148438 -0.6875 -16.640625 C -0.738281 -17.578125 -0.757812 -18.515625 -0.75 -19.453125 C -0.75 -20.398438 -0.722656 -21.34375 -0.671875 -22.28125 C -0.640625 -22.625 -0.597656 -23.082031 -0.546875 -23.65625 C -0.503906 -24.226562 -0.445312 -24.867188 -0.375 -25.578125 C -0.3125 -26.296875 -0.234375 -27.03125 -0.140625 -27.78125 C -0.046875 -28.53125 0.0546875 -29.242188 0.171875 -29.921875 C 0.296875 -30.597656 0.414062 -31.191406 0.53125 -31.703125 C 0.65625 -32.210938 0.789062 -32.578125 0.9375 -32.796875 C 1.03125 -32.972656 1.207031 -33.125 1.46875 -33.25 C 1.738281 -33.382812 2.035156 -33.476562 2.359375 -33.53125 C 2.691406 -33.582031 3.007812 -33.59375 3.3125 -33.5625 C 3.613281 -33.539062 3.863281 -33.46875 4.0625 -33.34375 C 4.269531 -33.226562 4.367188 -33.050781 4.359375 -32.8125 C 4.347656 -32.394531 4.289062 -31.882812 4.1875 -31.28125 C 4.082031 -30.6875 3.96875 -30.078125 3.84375 -29.453125 C 3.726562 -28.828125 3.640625 -28.253906 3.578125 -27.734375 C 3.390625 -26.390625 3.253906 -25.078125 3.171875 -23.796875 C 3.273438 -24.171875 3.375 -24.539062 3.46875 -24.90625 C 3.5625 -25.269531 3.671875 -25.632812 3.796875 -26 C 4.117188 -27.050781 4.460938 -28.097656 4.828125 -29.140625 C 5.191406 -30.191406 5.5625 -31.191406 5.9375 -32.140625 C 6.3125 -33.097656 6.671875 -33.957031 7.015625 -34.71875 C 7.367188 -35.488281 7.679688 -36.113281 7.953125 -36.59375 C 8.222656 -37.082031 8.441406 -37.382812 8.609375 -37.5 C 8.921875 -37.707031 9.289062 -37.8125 9.71875 -37.8125 C 10.144531 -37.820312 10.566406 -37.75 10.984375 -37.59375 C 11.410156 -37.4375 11.785156 -37.207031 12.109375 -36.90625 C 12.429688 -36.613281 12.660156 -36.265625 12.796875 -35.859375 C 12.953125 -35.378906 12.992188 -34.957031 12.921875 -34.59375 C 12.847656 -34.238281 12.78125 -33.816406 12.71875 -33.328125 C 12.65625 -32.734375 12.578125 -32.144531 12.484375 -31.5625 C 12.390625 -30.988281 12.296875 -30.410156 12.203125 -29.828125 C 12.023438 -28.679688 11.875 -27.523438 11.75 -26.359375 C 11.625 -25.191406 11.609375 -24.03125 11.703125 -22.875 C 11.722656 -22.601562 11.753906 -22.328125 11.796875 -22.046875 C 11.847656 -21.765625 11.898438 -21.492188 11.953125 -21.234375 C 12.148438 -23.410156 12.519531 -25.578125 13.0625 -27.734375 C 13.601562 -29.898438 14.191406 -32 14.828125 -34.03125 C 14.929688 -34.363281 15.070312 -34.785156 15.25 -35.296875 C 15.425781 -35.816406 15.628906 -36.359375 15.859375 -36.921875 C 16.097656 -37.492188 16.375 -38.039062 16.6875 -38.5625 C 17 -39.082031 17.34375 -39.507812 17.71875 -39.84375 C 18 -40.101562 18.351562 -40.203125 18.78125 -40.140625 C 19.21875 -40.078125 19.65625 -39.90625 20.09375 -39.625 C 20.539062 -39.351562 20.925781 -39.03125 21.25 -38.65625 C 21.570312 -38.28125 21.757812 -37.910156 21.8125 -37.546875 C 21.863281 -36.503906 21.847656 -35.300781 21.765625 -33.9375 C 21.679688 -32.570312 21.554688 -31.113281 21.390625 -29.5625 C 21.234375 -28.007812 21.066406 -26.40625 20.890625 -24.75 C 20.710938 -23.101562 20.5625 -21.46875 20.4375 -19.84375 C 20.3125 -18.226562 20.242188 -16.675781 20.234375 -15.1875 C 20.234375 -13.695312 20.3125 -12.328125 20.46875 -11.078125 C 20.632812 -9.828125 20.921875 -8.75 21.328125 -7.84375 C 21.734375 -6.9375 22.285156 -6.269531 22.984375 -5.84375 C 23.117188 -5.78125 23.140625 -5.695312 23.046875 -5.59375 C 22.953125 -5.5 22.828125 -5.414062 22.671875 -5.34375 C 22.515625 -5.269531 22.40625 -5.226562 22.34375 -5.21875 C 21.394531 -5.082031 20.582031 -5.179688 19.90625 -5.515625 C 19.226562 -5.847656 18.671875 -6.34375 18.234375 -7 C 17.804688 -7.65625 17.476562 -8.410156 17.25 -9.265625 C 17.082031 -9.816406 16.972656 -10.578125 16.921875 -11.546875 C 16.867188 -12.523438 16.859375 -13.640625 16.890625 -14.890625 C 16.929688 -16.140625 17 -17.472656 17.09375 -18.890625 C 17.1875 -20.304688 17.296875 -21.742188 17.421875 -23.203125 C 17.554688 -24.671875 17.679688 -26.101562 17.796875 -27.5 C 17.921875 -28.90625 18.03125 -30.21875 18.125 -31.4375 C 18.226562 -32.65625 18.300781 -33.71875 18.34375 -34.625 C 18.382812 -35.539062 18.378906 -36.238281 18.328125 -36.71875 Z M 18.328125 -36.71875 "/></g></g></g><g fill="#ffffff" fill-opacity="1"><g transform="translate(103.080821, 63.499974)"><g><path d="M 14.109375 -26.5625 C 14.171875 -26.695312 14.269531 -26.773438 14.40625 -26.796875 C 14.550781 -26.828125 14.671875 -26.800781 14.765625 -26.71875 C 14.867188 -26.644531 14.890625 -26.519531 14.828125 -26.34375 C 14.660156 -25.09375 14.171875 -24.0625 13.359375 -23.25 C 12.554688 -22.4375 11.457031 -21.757812 10.0625 -21.21875 C 9.90625 -20.132812 9.679688 -19.0625 9.390625 -18 C 9.109375 -16.945312 8.757812 -15.984375 8.34375 -15.109375 C 7.925781 -14.234375 7.4375 -13.523438 6.875 -12.984375 C 6.3125 -12.441406 5.675781 -12.148438 4.96875 -12.109375 C 4.15625 -12.054688 3.445312 -12.1875 2.84375 -12.5 C 2.238281 -12.820312 1.71875 -13.269531 1.28125 -13.84375 C 0.851562 -14.414062 0.492188 -15.070312 0.203125 -15.8125 C -0.078125 -16.5625 -0.296875 -17.332031 -0.453125 -18.125 C -0.617188 -18.914062 -0.742188 -19.6875 -0.828125 -20.4375 C -0.910156 -21.1875 -0.960938 -21.867188 -0.984375 -22.484375 C -1.003906 -23.097656 -1.007812 -23.578125 -1 -23.921875 C -1 -24.078125 -0.984375 -24.222656 -0.953125 -24.359375 C -0.929688 -24.503906 -0.898438 -24.628906 -0.859375 -24.734375 C -1.097656 -25.628906 -1.160156 -26.5625 -1.046875 -27.53125 C -0.929688 -28.507812 -0.671875 -29.460938 -0.265625 -30.390625 C 0.128906 -31.316406 0.648438 -32.144531 1.296875 -32.875 C 1.921875 -33.570312 2.585938 -34.035156 3.296875 -34.265625 C 4.015625 -34.503906 4.71875 -34.539062 5.40625 -34.375 C 6.101562 -34.21875 6.71875 -33.90625 7.25 -33.4375 C 8.519531 -32.320312 9.394531 -30.921875 9.875 -29.234375 C 10.363281 -27.546875 10.5 -25.5 10.28125 -23.09375 C 10.28125 -23.007812 10.273438 -22.925781 10.265625 -22.84375 C 10.253906 -22.757812 10.242188 -22.671875 10.234375 -22.578125 C 10.910156 -22.796875 11.546875 -23.082031 12.140625 -23.4375 C 12.734375 -23.789062 13.210938 -24.226562 13.578125 -24.75 C 13.941406 -25.269531 14.117188 -25.875 14.109375 -26.5625 Z M 2.03125 -29.890625 C 1.957031 -29.609375 1.863281 -29.21875 1.75 -28.71875 C 1.632812 -28.226562 1.550781 -27.691406 1.5 -27.109375 C 1.445312 -26.523438 1.457031 -25.953125 1.53125 -25.390625 C 1.738281 -25.265625 1.898438 -25.113281 2.015625 -24.9375 C 2.140625 -24.757812 2.210938 -24.5625 2.234375 -24.34375 C 2.234375 -24.257812 2.234375 -24.148438 2.234375 -24.015625 C 2.234375 -23.890625 2.234375 -23.738281 2.234375 -23.5625 C 2.253906 -23.539062 2.269531 -23.519531 2.28125 -23.5 C 2.300781 -23.488281 2.316406 -23.46875 2.328125 -23.4375 C 2.753906 -22.96875 3.410156 -22.609375 4.296875 -22.359375 C 5.179688 -22.117188 6.160156 -22.015625 7.234375 -22.046875 C 7.304688 -22.773438 7.34375 -23.390625 7.34375 -23.890625 C 7.375 -24.710938 7.378906 -25.578125 7.359375 -26.484375 C 7.347656 -27.398438 7.273438 -28.300781 7.140625 -29.1875 C 7.003906 -30.070312 6.75 -30.882812 6.375 -31.625 C 5.988281 -32.394531 5.59375 -32.878906 5.1875 -33.078125 C 4.78125 -33.273438 4.378906 -33.253906 3.984375 -33.015625 C 3.597656 -32.785156 3.234375 -32.390625 2.890625 -31.828125 C 2.554688 -31.273438 2.269531 -30.628906 2.03125 -29.890625 Z M 4.828125 -14.3125 C 5.128906 -14.34375 5.394531 -14.535156 5.625 -14.890625 C 5.863281 -15.253906 6.070312 -15.726562 6.25 -16.3125 C 6.4375 -16.90625 6.59375 -17.554688 6.71875 -18.265625 C 6.851562 -18.984375 6.960938 -19.691406 7.046875 -20.390625 C 6.203125 -20.265625 5.378906 -20.234375 4.578125 -20.296875 C 3.773438 -20.359375 3.050781 -20.535156 2.40625 -20.828125 C 2.46875 -20.078125 2.554688 -19.316406 2.671875 -18.546875 C 2.796875 -17.785156 2.953125 -17.078125 3.140625 -16.421875 C 3.328125 -15.773438 3.554688 -15.253906 3.828125 -14.859375 C 4.097656 -14.472656 4.429688 -14.289062 4.828125 -14.3125 Z M 4.828125 -14.3125 "/></g></g></g><g fill="#ffffff" fill-opacity="1"><g transform="translate(117.005247, 63.499974)"><g><path d="M 17.953125 -27.71875 C 17.992188 -27.875 18.125 -27.984375 18.34375 -28.046875 C 18.5625 -28.109375 18.796875 -28.128906 19.046875 -28.109375 C 19.296875 -28.097656 19.5 -28.039062 19.65625 -27.9375 C 19.820312 -27.832031 19.875 -27.6875 19.8125 -27.5 C 19.164062 -25.707031 18.503906 -23.972656 17.828125 -22.296875 C 17.148438 -20.617188 16.351562 -19.023438 15.4375 -17.515625 C 14.53125 -16.003906 13.398438 -14.59375 12.046875 -13.28125 C 12.015625 -11.9375 11.976562 -10.59375 11.9375 -9.25 C 11.894531 -7.90625 11.851562 -6.554688 11.8125 -5.203125 C 11.789062 -4.078125 11.753906 -2.941406 11.703125 -1.796875 C 11.660156 -0.660156 11.5625 0.46875 11.40625 1.59375 C 11.25 2.71875 10.96875 3.816406 10.5625 4.890625 C 9.96875 6.503906 9.097656 7.785156 7.953125 8.734375 C 6.804688 9.679688 5.378906 10.265625 3.671875 10.484375 C 2.828125 10.585938 1.992188 10.554688 1.171875 10.390625 C 0.359375 10.234375 -0.375 9.921875 -1.03125 9.453125 C -1.695312 8.984375 -2.238281 8.351562 -2.65625 7.5625 C -3.132812 6.632812 -3.390625 5.675781 -3.421875 4.6875 C -3.460938 3.695312 -3.335938 2.710938 -3.046875 1.734375 C -2.765625 0.765625 -2.390625 -0.148438 -1.921875 -1.015625 C -1.109375 -2.472656 -0.140625 -3.800781 0.984375 -5 C 2.109375 -6.207031 3.304688 -7.34375 4.578125 -8.40625 C 5.847656 -9.476562 7.109375 -10.546875 8.359375 -11.609375 C 8.390625 -12.722656 8.414062 -13.84375 8.4375 -14.96875 C 8.46875 -16.09375 8.488281 -17.222656 8.5 -18.359375 C 8.175781 -17.640625 7.8125 -16.9375 7.40625 -16.25 C 7.007812 -15.5625 6.585938 -14.941406 6.140625 -14.390625 C 5.691406 -13.835938 5.234375 -13.414062 4.765625 -13.125 C 4.304688 -12.84375 3.859375 -12.753906 3.421875 -12.859375 C 2.546875 -12.941406 1.820312 -13.171875 1.25 -13.546875 C 0.675781 -13.929688 0.222656 -14.414062 -0.109375 -15 C -0.453125 -15.582031 -0.703125 -16.222656 -0.859375 -16.921875 C -1.023438 -17.628906 -1.132812 -18.359375 -1.1875 -19.109375 C -1.238281 -19.859375 -1.28125 -20.578125 -1.3125 -21.265625 C -1.382812 -23.753906 -1.382812 -26.238281 -1.3125 -28.71875 C -1.28125 -29.375 -1.242188 -30.085938 -1.203125 -30.859375 C -1.171875 -31.628906 -1.117188 -32.363281 -1.046875 -33.0625 C -0.972656 -33.769531 -0.878906 -34.363281 -0.765625 -34.84375 C -0.703125 -35.15625 -0.539062 -35.382812 -0.28125 -35.53125 C -0.03125 -35.675781 0.257812 -35.734375 0.59375 -35.703125 C 0.9375 -35.679688 1.265625 -35.582031 1.578125 -35.40625 C 1.890625 -35.226562 2.144531 -34.984375 2.34375 -34.671875 C 2.550781 -34.367188 2.648438 -34.003906 2.640625 -33.578125 C 2.628906 -33.210938 2.609375 -32.722656 2.578125 -32.109375 C 2.554688 -31.492188 2.523438 -30.828125 2.484375 -30.109375 C 2.453125 -29.390625 2.421875 -28.664062 2.390625 -27.9375 C 2.359375 -27.207031 2.332031 -26.535156 2.3125 -25.921875 C 2.289062 -25.316406 2.28125 -24.828125 2.28125 -24.453125 C 2.28125 -22.710938 2.320312 -20.96875 2.40625 -19.21875 C 2.425781 -18.789062 2.46875 -18.300781 2.53125 -17.75 C 2.59375 -17.195312 2.710938 -16.664062 2.890625 -16.15625 C 3.078125 -15.65625 3.378906 -15.269531 3.796875 -15 C 3.859375 -14.988281 3.96875 -15.070312 4.125 -15.25 C 4.289062 -15.4375 4.476562 -15.671875 4.6875 -15.953125 C 4.894531 -16.242188 5.101562 -16.546875 5.3125 -16.859375 C 5.519531 -17.179688 5.695312 -17.46875 5.84375 -17.71875 C 6.21875 -18.351562 6.546875 -19.015625 6.828125 -19.703125 C 7.117188 -20.398438 7.390625 -21.09375 7.640625 -21.78125 C 7.847656 -22.375 8.03125 -22.976562 8.1875 -23.59375 C 8.351562 -24.207031 8.503906 -24.828125 8.640625 -25.453125 C 8.671875 -27.003906 8.726562 -28.550781 8.8125 -30.09375 C 8.90625 -31.644531 9.015625 -33.191406 9.140625 -34.734375 C 9.171875 -34.972656 9.300781 -35.148438 9.53125 -35.265625 C 9.769531 -35.378906 10.0625 -35.425781 10.40625 -35.40625 C 10.75 -35.382812 11.085938 -35.316406 11.421875 -35.203125 C 11.753906 -35.097656 12.03125 -34.945312 12.25 -34.75 C 12.476562 -34.550781 12.601562 -34.328125 12.625 -34.078125 C 12.675781 -32.441406 12.675781 -30.859375 12.625 -29.328125 C 12.582031 -27.804688 12.523438 -26.28125 12.453125 -24.75 C 12.378906 -23.226562 12.316406 -21.644531 12.265625 -20 C 12.242188 -19.21875 12.21875 -18.4375 12.1875 -17.65625 C 12.164062 -16.882812 12.140625 -16.109375 12.109375 -15.328125 C 13.566406 -17.097656 14.753906 -19.015625 15.671875 -21.078125 C 16.585938 -23.148438 17.347656 -25.363281 17.953125 -27.71875 Z M 8.015625 -0.875 C 8.117188 -2.40625 8.1875 -3.929688 8.21875 -5.453125 C 8.25 -6.972656 8.273438 -8.492188 8.296875 -10.015625 C 7.117188 -9.023438 5.945312 -8.015625 4.78125 -6.984375 C 3.613281 -5.953125 2.53125 -4.835938 1.53125 -3.640625 C 1.019531 -3.015625 0.53125 -2.34375 0.0625 -1.625 C -0.394531 -0.914062 -0.789062 -0.171875 -1.125 0.609375 C -1.457031 1.390625 -1.6875 2.1875 -1.8125 3 C -1.945312 3.820312 -1.9375 4.648438 -1.78125 5.484375 C -1.632812 6.203125 -1.363281 6.898438 -0.96875 7.578125 C -0.570312 8.265625 -0.046875 8.800781 0.609375 9.1875 C 1.085938 9.457031 1.535156 9.582031 1.953125 9.5625 C 2.367188 9.550781 2.765625 9.445312 3.140625 9.25 C 3.523438 9.0625 3.882812 8.8125 4.21875 8.5 C 4.5625 8.195312 4.890625 7.882812 5.203125 7.5625 C 5.898438 6.820312 6.441406 5.984375 6.828125 5.046875 C 7.210938 4.109375 7.488281 3.128906 7.65625 2.109375 C 7.820312 1.097656 7.941406 0.101562 8.015625 -0.875 Z M 8.015625 -0.875 "/></g></g></g><g fill="#ffffff" fill-opacity="1"><g transform="translate(135.753415, 63.499974)"><g><path d="M 15.640625 -27.5 C 15.660156 -27.5625 15.738281 -27.597656 15.875 -27.609375 C 16.019531 -27.628906 16.164062 -27.625 16.3125 -27.59375 C 16.457031 -27.570312 16.519531 -27.53125 16.5 -27.46875 C 16.3125 -25.832031 16.050781 -24.195312 15.71875 -22.5625 C 15.382812 -20.9375 14.9375 -19.347656 14.375 -17.796875 C 14.164062 -17.210938 13.929688 -16.613281 13.671875 -16 C 13.410156 -15.394531 13.09375 -14.859375 12.71875 -14.390625 C 12.351562 -13.921875 11.894531 -13.585938 11.34375 -13.390625 C 10.800781 -13.191406 10.140625 -13.195312 9.359375 -13.40625 C 8.722656 -13.582031 8.222656 -13.914062 7.859375 -14.40625 C 7.492188 -14.90625 7.222656 -15.492188 7.046875 -16.171875 C 6.867188 -16.847656 6.75 -17.539062 6.6875 -18.25 C 6.550781 -17.832031 6.40625 -17.414062 6.25 -17 C 6.101562 -16.59375 5.941406 -16.191406 5.765625 -15.796875 C 5.523438 -15.265625 5.238281 -14.757812 4.90625 -14.28125 C 4.582031 -13.8125 4.207031 -13.414062 3.78125 -13.09375 C 3.351562 -12.78125 2.875 -12.578125 2.34375 -12.484375 C 1.820312 -12.398438 1.238281 -12.484375 0.59375 -12.734375 C 0.03125 -12.953125 -0.414062 -13.28125 -0.75 -13.71875 C -1.09375 -14.15625 -1.351562 -14.644531 -1.53125 -15.1875 C -1.707031 -15.738281 -1.832031 -16.304688 -1.90625 -16.890625 C -1.976562 -17.484375 -2.023438 -18.039062 -2.046875 -18.5625 C -2.128906 -19.945312 -2.09375 -21.328125 -1.9375 -22.703125 C -1.78125 -24.078125 -1.519531 -25.4375 -1.15625 -26.78125 C -1 -27.351562 -0.816406 -27.96875 -0.609375 -28.625 C -0.410156 -29.28125 -0.175781 -29.929688 0.09375 -30.578125 C 0.375 -31.222656 0.695312 -31.820312 1.0625 -32.375 C 1.425781 -32.9375 1.851562 -33.414062 2.34375 -33.8125 C 2.71875 -34.113281 3.148438 -34.34375 3.640625 -34.5 C 4.140625 -34.664062 4.648438 -34.75 5.171875 -34.75 C 5.691406 -34.75 6.191406 -34.660156 6.671875 -34.484375 C 7.160156 -34.304688 7.570312 -34.03125 7.90625 -33.65625 C 7.9375 -33.625 7.960938 -33.59375 7.984375 -33.5625 C 8.015625 -33.53125 8.039062 -33.492188 8.0625 -33.453125 C 8.445312 -33.554688 8.835938 -33.59375 9.234375 -33.5625 C 9.640625 -33.539062 9.984375 -33.453125 10.265625 -33.296875 C 10.546875 -33.140625 10.671875 -32.921875 10.640625 -32.640625 C 10.515625 -30.828125 10.394531 -29 10.28125 -27.15625 C 10.175781 -25.3125 10.148438 -23.472656 10.203125 -21.640625 C 10.253906 -19.816406 10.453125 -18.007812 10.796875 -16.21875 C 10.816406 -16.082031 10.84375 -15.945312 10.875 -15.8125 C 10.90625 -15.675781 10.941406 -15.539062 10.984375 -15.40625 C 11.117188 -15.582031 11.25 -15.753906 11.375 -15.921875 C 11.5 -16.085938 11.613281 -16.253906 11.71875 -16.421875 C 12.082031 -16.960938 12.410156 -17.507812 12.703125 -18.0625 C 12.992188 -18.625 13.265625 -19.195312 13.515625 -19.78125 C 14.046875 -21.019531 14.484375 -22.28125 14.828125 -23.5625 C 15.179688 -24.84375 15.453125 -26.15625 15.640625 -27.5 Z M 5 -22.46875 C 5.351562 -23.695312 5.640625 -24.941406 5.859375 -26.203125 C 6.078125 -27.460938 6.289062 -28.722656 6.5 -29.984375 C 6.414062 -30.242188 6.300781 -30.5 6.15625 -30.75 C 6.019531 -30.96875 5.894531 -31.1875 5.78125 -31.40625 C 5.664062 -31.625 5.535156 -31.835938 5.390625 -32.046875 C 5.335938 -32.128906 5.28125 -32.207031 5.21875 -32.28125 C 5.164062 -32.363281 5.109375 -32.441406 5.046875 -32.515625 C 4.953125 -32.378906 4.863281 -32.238281 4.78125 -32.09375 C 4.695312 -31.945312 4.613281 -31.800781 4.53125 -31.65625 C 4.40625 -31.4375 4.28125 -31.207031 4.15625 -30.96875 C 4.039062 -30.726562 3.929688 -30.484375 3.828125 -30.234375 C 3.359375 -29.222656 2.96875 -28.1875 2.65625 -27.125 C 2.300781 -25.976562 2.035156 -24.800781 1.859375 -23.59375 C 1.691406 -22.394531 1.609375 -21.195312 1.609375 -20 C 1.609375 -19.46875 1.617188 -18.929688 1.640625 -18.390625 C 1.671875 -17.847656 1.726562 -17.3125 1.8125 -16.78125 C 1.84375 -16.625 1.890625 -16.375 1.953125 -16.03125 C 2.015625 -15.6875 2.109375 -15.359375 2.234375 -15.046875 C 2.460938 -15.367188 2.671875 -15.738281 2.859375 -16.15625 C 3.046875 -16.582031 3.210938 -16.988281 3.359375 -17.375 C 3.515625 -17.757812 3.625 -18.039062 3.6875 -18.21875 C 3.945312 -18.914062 4.179688 -19.617188 4.390625 -20.328125 C 4.597656 -21.035156 4.800781 -21.75 5 -22.46875 Z M 5 -22.46875 "/></g></g></g><g fill="#ffffff" fill-opacity="1"><g transform="translate(151.513599, 63.499974)"><g><path d="M 17.3125 -25.234375 C 17.320312 -25.285156 17.375 -25.3125 17.46875 -25.3125 C 17.570312 -25.3125 17.613281 -25.285156 17.59375 -25.234375 C 17.351562 -23.441406 17.019531 -21.660156 16.59375 -19.890625 C 16.164062 -18.128906 15.679688 -16.382812 15.140625 -14.65625 C 14.941406 -14.03125 14.613281 -13.5625 14.15625 -13.25 C 13.707031 -12.945312 13.203125 -12.785156 12.640625 -12.765625 C 12.078125 -12.753906 11.53125 -12.875 11 -13.125 C 10.46875 -13.382812 10.023438 -13.753906 9.671875 -14.234375 C 9.148438 -14.960938 8.773438 -15.804688 8.546875 -16.765625 C 8.328125 -17.722656 8.179688 -18.695312 8.109375 -19.6875 C 7.972656 -19.226562 7.835938 -18.769531 7.703125 -18.3125 C 7.566406 -17.863281 7.425781 -17.410156 7.28125 -16.953125 C 7.113281 -16.441406 6.9375 -15.9375 6.75 -15.4375 C 6.5625 -14.945312 6.320312 -14.503906 6.03125 -14.109375 C 5.75 -13.710938 5.390625 -13.398438 4.953125 -13.171875 C 4.523438 -12.941406 3.992188 -12.835938 3.359375 -12.859375 C 2.628906 -12.878906 2.015625 -13.078125 1.515625 -13.453125 C 1.015625 -13.835938 0.601562 -14.320312 0.28125 -14.90625 C -0.0390625 -15.488281 -0.285156 -16.097656 -0.453125 -16.734375 C -0.765625 -17.921875 -0.929688 -19.164062 -0.953125 -20.46875 C -0.984375 -21.78125 -0.894531 -23.101562 -0.6875 -24.4375 C -0.488281 -25.78125 -0.191406 -27.078125 0.203125 -28.328125 C 0.597656 -29.585938 1.070312 -30.75 1.625 -31.8125 C 1.9375 -32.414062 2.289062 -32.96875 2.6875 -33.46875 C 3.09375 -33.976562 3.566406 -34.390625 4.109375 -34.703125 C 4.660156 -35.015625 5.3125 -35.164062 6.0625 -35.15625 C 6.300781 -35.15625 6.585938 -35.125 6.921875 -35.0625 C 7.253906 -35 7.566406 -34.894531 7.859375 -34.75 C 8.046875 -37.625 8.394531 -40.472656 8.90625 -43.296875 C 9.164062 -44.785156 9.453125 -46.316406 9.765625 -47.890625 C 10.078125 -49.460938 10.515625 -50.953125 11.078125 -52.359375 C 11.328125 -52.960938 11.660156 -53.476562 12.078125 -53.90625 C 12.503906 -54.332031 12.96875 -54.644531 13.46875 -54.84375 C 13.976562 -55.039062 14.484375 -55.085938 14.984375 -54.984375 C 15.492188 -54.890625 15.941406 -54.609375 16.328125 -54.140625 C 16.597656 -53.816406 16.804688 -53.367188 16.953125 -52.796875 C 17.097656 -52.222656 17.1875 -51.585938 17.21875 -50.890625 C 17.257812 -50.203125 17.269531 -49.507812 17.25 -48.8125 C 17.238281 -48.125 17.203125 -47.492188 17.140625 -46.921875 C 17.078125 -46.347656 17.015625 -45.894531 16.953125 -45.5625 C 16.648438 -43.96875 16.25 -42.332031 15.75 -40.65625 C 15.25 -38.976562 14.640625 -37.34375 13.921875 -35.75 C 13.210938 -34.15625 12.378906 -32.660156 11.421875 -31.265625 C 11.347656 -28.941406 11.359375 -26.582031 11.453125 -24.1875 C 11.554688 -21.789062 11.84375 -19.453125 12.3125 -17.171875 C 12.375 -16.828125 12.457031 -16.484375 12.5625 -16.140625 C 12.664062 -15.804688 12.804688 -15.492188 12.984375 -15.203125 C 13.023438 -15.148438 13.066406 -15.097656 13.109375 -15.046875 C 13.148438 -15.003906 13.195312 -14.957031 13.25 -14.90625 C 13.375 -15.019531 13.492188 -15.148438 13.609375 -15.296875 C 13.734375 -15.441406 13.835938 -15.582031 13.921875 -15.71875 C 14.117188 -16.007812 14.285156 -16.3125 14.421875 -16.625 C 14.554688 -16.945312 14.691406 -17.257812 14.828125 -17.5625 C 15.390625 -18.800781 15.875 -20.050781 16.28125 -21.3125 C 16.6875 -22.582031 17.03125 -23.890625 17.3125 -25.234375 Z M 13.421875 -47.390625 C 12.898438 -45.109375 12.484375 -42.8125 12.171875 -40.5 C 11.859375 -38.1875 11.632812 -35.863281 11.5 -33.53125 C 11.757812 -34 12.007812 -34.472656 12.25 -34.953125 C 12.5 -35.429688 12.726562 -35.914062 12.9375 -36.40625 C 13.488281 -37.707031 13.976562 -39.035156 14.40625 -40.390625 C 14.832031 -41.742188 15.1875 -43.113281 15.46875 -44.5 C 15.738281 -45.851562 15.898438 -47.160156 15.953125 -48.421875 C 16.003906 -49.679688 15.84375 -50.976562 15.46875 -52.3125 C 15.46875 -52.3125 15.4375 -52.363281 15.375 -52.46875 C 15.320312 -52.570312 15.253906 -52.648438 15.171875 -52.703125 C 15.085938 -52.753906 14.992188 -52.691406 14.890625 -52.515625 C 14.753906 -52.304688 14.644531 -52.078125 14.5625 -51.828125 C 14.488281 -51.585938 14.421875 -51.34375 14.359375 -51.09375 C 14.003906 -49.84375 13.691406 -48.609375 13.421875 -47.390625 Z M 7.671875 -27.5625 C 7.660156 -28.25 7.65625 -28.9375 7.65625 -29.625 C 7.664062 -30.320312 7.679688 -31.007812 7.703125 -31.6875 C 7.609375 -32.175781 7.394531 -32.550781 7.0625 -32.8125 C 6.726562 -33.082031 6.425781 -33.179688 6.15625 -33.109375 C 5.945312 -33.046875 5.734375 -32.910156 5.515625 -32.703125 C 5.304688 -32.503906 5.109375 -32.285156 4.921875 -32.046875 C 4.742188 -31.816406 4.609375 -31.609375 4.515625 -31.421875 C 4.109375 -30.640625 3.78125 -29.828125 3.53125 -28.984375 C 3.289062 -28.148438 3.078125 -27.3125 2.890625 -26.46875 C 2.671875 -25.414062 2.488281 -24.289062 2.34375 -23.09375 C 2.195312 -21.894531 2.132812 -20.710938 2.15625 -19.546875 C 2.1875 -18.390625 2.320312 -17.332031 2.5625 -16.375 C 2.613281 -16.175781 2.675781 -15.972656 2.75 -15.765625 C 2.832031 -15.554688 2.929688 -15.367188 3.046875 -15.203125 C 3.234375 -14.921875 3.410156 -14.773438 3.578125 -14.765625 C 3.742188 -14.765625 3.929688 -14.867188 4.140625 -15.078125 C 4.484375 -15.421875 4.722656 -15.769531 4.859375 -16.125 C 4.992188 -16.476562 5.132812 -16.835938 5.28125 -17.203125 C 5.625 -18.140625 5.9375 -19.085938 6.21875 -20.046875 C 6.507812 -21.003906 6.757812 -21.976562 6.96875 -22.96875 C 7.28125 -24.488281 7.515625 -26.019531 7.671875 -27.5625 Z M 7.671875 -27.5625 "/></g></g></g><g fill="#ffffff" fill-opacity="1"><g transform="translate(168.777536, 63.499974)"><g><path d="M 15.640625 -27.5 C 15.660156 -27.5625 15.738281 -27.597656 15.875 -27.609375 C 16.019531 -27.628906 16.164062 -27.625 16.3125 -27.59375 C 16.457031 -27.570312 16.519531 -27.53125 16.5 -27.46875 C 16.3125 -25.832031 16.050781 -24.195312 15.71875 -22.5625 C 15.382812 -20.9375 14.9375 -19.347656 14.375 -17.796875 C 14.164062 -17.210938 13.929688 -16.613281 13.671875 -16 C 13.410156 -15.394531 13.09375 -14.859375 12.71875 -14.390625 C 12.351562 -13.921875 11.894531 -13.585938 11.34375 -13.390625 C 10.800781 -13.191406 10.140625 -13.195312 9.359375 -13.40625 C 8.722656 -13.582031 8.222656 -13.914062 7.859375 -14.40625 C 7.492188 -14.90625 7.222656 -15.492188 7.046875 -16.171875 C 6.867188 -16.847656 6.75 -17.539062 6.6875 -18.25 C 6.550781 -17.832031 6.40625 -17.414062 6.25 -17 C 6.101562 -16.59375 5.941406 -16.191406 5.765625 -15.796875 C 5.523438 -15.265625 5.238281 -14.757812 4.90625 -14.28125 C 4.582031 -13.8125 4.207031 -13.414062 3.78125 -13.09375 C 3.351562 -12.78125 2.875 -12.578125 2.34375 -12.484375 C 1.820312 -12.398438 1.238281 -12.484375 0.59375 -12.734375 C 0.03125 -12.953125 -0.414062 -13.28125 -0.75 -13.71875 C -1.09375 -14.15625 -1.351562 -14.644531 -1.53125 -15.1875 C -1.707031 -15.738281 -1.832031 -16.304688 -1.90625 -16.890625 C -1.976562 -17.484375 -2.023438 -18.039062 -2.046875 -18.5625 C -2.128906 -19.945312 -2.09375 -21.328125 -1.9375 -22.703125 C -1.78125 -24.078125 -1.519531 -25.4375 -1.15625 -26.78125 C -1 -27.351562 -0.816406 -27.96875 -0.609375 -28.625 C -0.410156 -29.28125 -0.175781 -29.929688 0.09375 -30.578125 C 0.375 -31.222656 0.695312 -31.820312 1.0625 -32.375 C 1.425781 -32.9375 1.851562 -33.414062 2.34375 -33.8125 C 2.71875 -34.113281 3.148438 -34.34375 3.640625 -34.5 C 4.140625 -34.664062 4.648438 -34.75 5.171875 -34.75 C 5.691406 -34.75 6.191406 -34.660156 6.671875 -34.484375 C 7.160156 -34.304688 7.570312 -34.03125 7.90625 -33.65625 C 7.9375 -33.625 7.960938 -33.59375 7.984375 -33.5625 C 8.015625 -33.53125 8.039062 -33.492188 8.0625 -33.453125 C 8.445312 -33.554688 8.835938 -33.59375 9.234375 -33.5625 C 9.640625 -33.539062 9.984375 -33.453125 10.265625 -33.296875 C 10.546875 -33.140625 10.671875 -32.921875 10.640625 -32.640625 C 10.515625 -30.828125 10.394531 -29 10.28125 -27.15625 C 10.175781 -25.3125 10.148438 -23.472656 10.203125 -21.640625 C 10.253906 -19.816406 10.453125 -18.007812 10.796875 -16.21875 C 10.816406 -16.082031 10.84375 -15.945312 10.875 -15.8125 C 10.90625 -15.675781 10.941406 -15.539062 10.984375 -15.40625 C 11.117188 -15.582031 11.25 -15.753906 11.375 -15.921875 C 11.5 -16.085938 11.613281 -16.253906 11.71875 -16.421875 C 12.082031 -16.960938 12.410156 -17.507812 12.703125 -18.0625 C 12.992188 -18.625 13.265625 -19.195312 13.515625 -19.78125 C 14.046875 -21.019531 14.484375 -22.28125 14.828125 -23.5625 C 15.179688 -24.84375 15.453125 -26.15625 15.640625 -27.5 Z M 5 -22.46875 C 5.351562 -23.695312 5.640625 -24.941406 5.859375 -26.203125 C 6.078125 -27.460938 6.289062 -28.722656 6.5 -29.984375 C 6.414062 -30.242188 6.300781 -30.5 6.15625 -30.75 C 6.019531 -30.96875 5.894531 -31.1875 5.78125 -31.40625 C 5.664062 -31.625 5.535156 -31.835938 5.390625 -32.046875 C 5.335938 -32.128906 5.28125 -32.207031 5.21875 -32.28125 C 5.164062 -32.363281 5.109375 -32.441406 5.046875 -32.515625 C 4.953125 -32.378906 4.863281 -32.238281 4.78125 -32.09375 C 4.695312 -31.945312 4.613281 -31.800781 4.53125 -31.65625 C 4.40625 -31.4375 4.28125 -31.207031 4.15625 -30.96875 C 4.039062 -30.726562 3.929688 -30.484375 3.828125 -30.234375 C 3.359375 -29.222656 2.96875 -28.1875 2.65625 -27.125 C 2.300781 -25.976562 2.035156 -24.800781 1.859375 -23.59375 C 1.691406 -22.394531 1.609375 -21.195312 1.609375 -20 C 1.609375 -19.46875 1.617188 -18.929688 1.640625 -18.390625 C 1.671875 -17.847656 1.726562 -17.3125 1.8125 -16.78125 C 1.84375 -16.625 1.890625 -16.375 1.953125 -16.03125 C 2.015625 -15.6875 2.109375 -15.359375 2.234375 -15.046875 C 2.460938 -15.367188 2.671875 -15.738281 2.859375 -16.15625 C 3.046875 -16.582031 3.210938 -16.988281 3.359375 -17.375 C 3.515625 -17.757812 3.625 -18.039062 3.6875 -18.21875 C 3.945312 -18.914062 4.179688 -19.617188 4.390625 -20.328125 C 4.597656 -21.035156 4.800781 -21.75 5 -22.46875 Z M 5 -22.46875 "/></g></g></g><g fill="#ffffff" fill-opacity="1"><g transform="translate(184.53772, 63.499974)"><g><path d="M 10.390625 -23.75 C 10.328125 -23.632812 10.164062 -23.550781 9.90625 -23.5 C 9.65625 -23.445312 9.378906 -23.429688 9.078125 -23.453125 C 8.785156 -23.472656 8.539062 -23.53125 8.34375 -23.625 C 8.144531 -23.71875 8.070312 -23.851562 8.125 -24.03125 C 8.28125 -24.582031 8.429688 -25.207031 8.578125 -25.90625 C 8.722656 -26.601562 8.8125 -27.316406 8.84375 -28.046875 C 8.882812 -28.785156 8.84375 -29.5 8.71875 -30.1875 C 8.59375 -30.882812 8.347656 -31.519531 7.984375 -32.09375 C 7.617188 -32.664062 7.09375 -33.128906 6.40625 -33.484375 C 6 -33.691406 5.675781 -33.773438 5.4375 -33.734375 C 5.195312 -33.703125 4.910156 -33.550781 4.578125 -33.28125 C 4.128906 -32.914062 3.742188 -32.460938 3.421875 -31.921875 C 3.097656 -31.378906 2.835938 -30.835938 2.640625 -30.296875 C 2.191406 -29.015625 2.101562 -27.726562 2.375 -26.4375 C 2.65625 -25.144531 3.234375 -23.988281 4.109375 -22.96875 C 4.503906 -22.5 4.945312 -22.082031 5.4375 -21.71875 C 5.925781 -21.363281 6.425781 -21.023438 6.9375 -20.703125 C 7.457031 -20.390625 7.960938 -20.0625 8.453125 -19.71875 C 8.941406 -19.382812 9.394531 -19 9.8125 -18.5625 C 10.34375 -18 10.695312 -17.390625 10.875 -16.734375 C 11.0625 -16.078125 11.046875 -15.4375 10.828125 -14.8125 C 10.617188 -14.195312 10.1875 -13.660156 9.53125 -13.203125 C 8.9375 -12.785156 8.273438 -12.484375 7.546875 -12.296875 C 6.816406 -12.109375 6.09375 -11.992188 5.375 -11.953125 C 4.21875 -11.898438 3.164062 -12.050781 2.21875 -12.40625 C 1.269531 -12.769531 0.5 -13.34375 -0.09375 -14.125 C -0.6875 -14.90625 -1.046875 -15.894531 -1.171875 -17.09375 C -1.203125 -17.351562 -1.097656 -17.5625 -0.859375 -17.71875 C -0.628906 -17.882812 -0.332031 -18 0.03125 -18.0625 C 0.40625 -18.132812 0.773438 -18.148438 1.140625 -18.109375 C 1.515625 -18.066406 1.832031 -17.96875 2.09375 -17.8125 C 2.363281 -17.65625 2.515625 -17.441406 2.546875 -17.171875 C 2.597656 -16.710938 2.703125 -16.234375 2.859375 -15.734375 C 3.015625 -15.242188 3.25 -14.820312 3.5625 -14.46875 C 3.882812 -14.125 4.316406 -13.925781 4.859375 -13.875 C 5.203125 -13.84375 5.546875 -13.890625 5.890625 -14.015625 C 6.242188 -14.140625 6.546875 -14.320312 6.796875 -14.5625 C 7.054688 -14.8125 7.222656 -15.125 7.296875 -15.5 C 7.367188 -15.875 7.300781 -16.296875 7.09375 -16.765625 C 6.925781 -17.160156 6.679688 -17.5 6.359375 -17.78125 C 6.035156 -18.070312 5.6875 -18.332031 5.3125 -18.5625 C 4.9375 -18.789062 4.570312 -19.015625 4.21875 -19.234375 C 3.726562 -19.546875 3.242188 -19.878906 2.765625 -20.234375 C 2.285156 -20.597656 1.835938 -20.984375 1.421875 -21.390625 C 0.609375 -22.191406 -0.0664062 -23.097656 -0.609375 -24.109375 C -1.148438 -25.128906 -1.445312 -26.226562 -1.5 -27.40625 C -1.539062 -28.34375 -1.425781 -29.265625 -1.15625 -30.171875 C -0.882812 -31.078125 -0.484375 -31.910156 0.046875 -32.671875 C 0.585938 -33.441406 1.222656 -34.085938 1.953125 -34.609375 C 2.691406 -35.128906 3.507812 -35.476562 4.40625 -35.65625 C 5.3125 -35.832031 6.257812 -35.789062 7.25 -35.53125 C 8.34375 -35.238281 9.226562 -34.773438 9.90625 -34.140625 C 10.59375 -33.515625 11.097656 -32.78125 11.421875 -31.9375 C 11.753906 -31.09375 11.921875 -30.191406 11.921875 -29.234375 C 11.929688 -28.285156 11.800781 -27.335938 11.53125 -26.390625 C 11.269531 -25.453125 10.890625 -24.570312 10.390625 -23.75 Z M 10.390625 -23.75 "/></g></g></g></svg>