<svg xmlns="http://www.w3.org/2000/svg" xmlns:xlink="http://www.w3.org/1999/xlink" width="1000" zoomAndPan="magnify" viewBox="0 0 750 74.999997" height="100" preserveAspectRatio="xMidYMid meet" version="1.0"><defs><g/></defs><g fill="#ffffff" fill-opacity="1"><g transform="translate(12.105483, 63.499966)"><g><path d="M 22.734375 -26.53125 C 23.867188 -26.820312 24.847656 -26.867188 25.671875 -26.671875 C 26.503906 -26.484375 27.207031 -26.101562 27.78125 -25.53125 C 28.351562 -24.96875 28.8125 -24.273438 29.15625 -23.453125 C 29.507812 -22.640625 29.765625 -21.75 29.921875 -20.78125 C 30.078125 -19.820312 30.160156 -18.84375 30.171875 -17.84375 C 30.191406 -16.84375 30.144531 -15.882812 30.03125 -14.96875 C 29.914062 -14.050781 29.765625 -13.242188 29.578125 -12.546875 C 29.210938 -11.191406 28.679688 -9.894531 27.984375 -8.65625 C 27.285156 -7.425781 26.441406 -6.3125 25.453125 -5.3125 C 24.460938 -4.320312 23.351562 -3.507812 22.125 -2.875 C 20.894531 -2.238281 19.554688 -1.84375 18.109375 -1.6875 C 16.722656 -1.53125 15.332031 -1.582031 13.9375 -1.84375 C 12.550781 -2.113281 11.222656 -2.570312 9.953125 -3.21875 C 8.691406 -3.875 7.546875 -4.679688 6.515625 -5.640625 C 5.484375 -6.609375 4.632812 -7.703125 3.96875 -8.921875 C 3.144531 -10.429688 2.546875 -12.03125 2.171875 -13.71875 C 1.796875 -15.414062 1.625 -17.140625 1.65625 -18.890625 C 1.6875 -20.648438 1.90625 -22.378906 2.3125 -24.078125 C 2.726562 -25.773438 3.304688 -27.375 4.046875 -28.875 C 4.554688 -29.875 5.140625 -30.832031 5.796875 -31.75 C 6.460938 -32.664062 7.222656 -33.492188 8.078125 -34.234375 C 8.929688 -34.984375 9.875 -35.578125 10.90625 -36.015625 C 11.695312 -36.367188 12.507812 -36.609375 13.34375 -36.734375 C 12.65625 -37.703125 12.0625 -38.722656 11.5625 -39.796875 C 11.070312 -40.878906 10.671875 -42.003906 10.359375 -43.171875 C 10.097656 -44.128906 9.910156 -45.101562 9.796875 -46.09375 C 9.679688 -47.09375 9.691406 -48.085938 9.828125 -49.078125 C 10.035156 -50.765625 10.4375 -52.207031 11.03125 -53.40625 C 11.632812 -54.601562 12.347656 -55.578125 13.171875 -56.328125 C 14.003906 -57.085938 14.878906 -57.640625 15.796875 -57.984375 C 16.710938 -58.335938 17.597656 -58.503906 18.453125 -58.484375 C 19.015625 -58.460938 19.632812 -58.382812 20.3125 -58.25 C 21 -58.113281 21.78125 -57.785156 22.65625 -57.265625 C 23.4375 -56.796875 24.203125 -56.140625 24.953125 -55.296875 C 25.710938 -54.460938 26.390625 -53.484375 26.984375 -52.359375 C 27.578125 -51.234375 28.023438 -50.007812 28.328125 -48.6875 C 28.640625 -47.375 28.734375 -46.019531 28.609375 -44.625 C 28.546875 -43.832031 28.382812 -43.082031 28.125 -42.375 C 27.875 -41.664062 27.519531 -41.097656 27.0625 -40.671875 C 26.613281 -40.253906 26.050781 -40.0625 25.375 -40.09375 C 24.695312 -40.132812 24.0625 -40.34375 23.46875 -40.71875 C 22.875 -41.101562 22.34375 -41.582031 21.875 -42.15625 C 21.414062 -42.738281 21.035156 -43.363281 20.734375 -44.03125 C 20.441406 -44.707031 20.242188 -45.367188 20.140625 -46.015625 C 20.046875 -46.671875 20.066406 -47.25 20.203125 -47.75 C 20.222656 -47.832031 20.316406 -47.875 20.484375 -47.875 C 20.660156 -47.882812 20.859375 -47.863281 21.078125 -47.8125 C 21.296875 -47.757812 21.492188 -47.675781 21.671875 -47.5625 C 21.847656 -47.457031 21.957031 -47.332031 22 -47.1875 C 21.976562 -47.03125 22.003906 -46.769531 22.078125 -46.40625 C 22.160156 -46.039062 22.285156 -45.632812 22.453125 -45.1875 C 22.617188 -44.738281 22.8125 -44.285156 23.03125 -43.828125 C 23.25 -43.367188 23.492188 -42.960938 23.765625 -42.609375 C 24.046875 -42.253906 24.34375 -41.988281 24.65625 -41.8125 C 24.96875 -41.644531 25.285156 -41.617188 25.609375 -41.734375 C 26.046875 -41.890625 26.375 -42.242188 26.59375 -42.796875 C 26.820312 -43.359375 26.941406 -44.046875 26.953125 -44.859375 C 26.960938 -45.671875 26.875 -46.550781 26.6875 -47.5 C 26.5 -48.445312 26.21875 -49.398438 25.84375 -50.359375 C 25.476562 -51.328125 25.019531 -52.238281 24.46875 -53.09375 C 23.914062 -53.957031 23.273438 -54.707031 22.546875 -55.34375 C 21.828125 -55.976562 21.023438 -56.429688 20.140625 -56.703125 C 19.265625 -56.984375 18.3125 -57.019531 17.28125 -56.8125 C 16.601562 -56.6875 15.945312 -56.332031 15.3125 -55.75 C 14.675781 -55.175781 14.132812 -54.410156 13.6875 -53.453125 C 13.25 -52.503906 12.972656 -51.390625 12.859375 -50.109375 C 12.753906 -48.828125 12.882812 -47.398438 13.25 -45.828125 C 13.613281 -44.265625 14.28125 -42.585938 15.25 -40.796875 C 16.226562 -39.003906 17.59375 -37.125 19.34375 -35.15625 C 19.613281 -34.882812 19.695312 -34.644531 19.59375 -34.4375 C 19.5 -34.226562 19.289062 -34.054688 18.96875 -33.921875 C 18.65625 -33.796875 18.289062 -33.707031 17.875 -33.65625 C 17.457031 -33.613281 17.054688 -33.617188 16.671875 -33.671875 C 16.296875 -33.722656 16.015625 -33.832031 15.828125 -34 C 15.429688 -34.382812 15.019531 -34.59375 14.59375 -34.625 C 14.164062 -34.664062 13.726562 -34.585938 13.28125 -34.390625 C 12.84375 -34.203125 12.414062 -33.9375 12 -33.59375 C 11.582031 -33.257812 11.195312 -32.90625 10.84375 -32.53125 C 10.488281 -32.15625 10.1875 -31.8125 9.9375 -31.5 C 9.03125 -30.351562 8.257812 -29.070312 7.625 -27.65625 C 7 -26.25 6.535156 -24.820312 6.234375 -23.375 C 5.972656 -22.164062 5.8125 -20.90625 5.75 -19.59375 C 5.695312 -18.289062 5.753906 -16.988281 5.921875 -15.6875 C 6.085938 -14.382812 6.382812 -13.125 6.8125 -11.90625 C 7.25 -10.6875 7.820312 -9.550781 8.53125 -8.5 C 9 -7.789062 9.59375 -7.113281 10.3125 -6.46875 C 11.03125 -5.832031 11.816406 -5.273438 12.671875 -4.796875 C 13.523438 -4.316406 14.410156 -3.984375 15.328125 -3.796875 C 16.242188 -3.617188 17.144531 -3.644531 18.03125 -3.875 C 19.019531 -4.113281 19.925781 -4.550781 20.75 -5.1875 C 21.582031 -5.820312 22.316406 -6.570312 22.953125 -7.4375 C 23.597656 -8.300781 24.144531 -9.21875 24.59375 -10.1875 C 25.050781 -11.15625 25.394531 -12.101562 25.625 -13.03125 C 25.882812 -14.082031 26.050781 -15.175781 26.125 -16.3125 C 26.195312 -17.445312 26.179688 -18.546875 26.078125 -19.609375 C 25.972656 -20.703125 25.710938 -21.738281 25.296875 -22.71875 C 25.234375 -22.875 25.140625 -23.066406 25.015625 -23.296875 C 24.898438 -23.523438 24.773438 -23.75 24.640625 -23.96875 C 24.515625 -24.1875 24.40625 -24.363281 24.3125 -24.5 C 24.15625 -24.457031 23.914062 -24.457031 23.59375 -24.5 C 23.28125 -24.550781 22.96875 -24.644531 22.65625 -24.78125 C 22.34375 -24.914062 22.125 -25.085938 22 -25.296875 C 21.8125 -25.597656 21.8125 -25.859375 22 -26.078125 C 22.1875 -26.296875 22.429688 -26.445312 22.734375 -26.53125 Z M 22.734375 -26.53125 "/></g></g></g><g fill="#ffffff" fill-opacity="1"><g transform="translate(44.465606, 63.499966)"><g><path d="M 12.171875 -25.859375 C 11.867188 -24.515625 11.570312 -23.175781 11.28125 -21.84375 C 11 -20.519531 10.695312 -19.265625 10.375 -18.078125 C 10.0625 -16.890625 9.710938 -15.820312 9.328125 -14.875 C 8.941406 -13.925781 8.503906 -13.164062 8.015625 -12.59375 C 7.523438 -12.019531 6.96875 -11.691406 6.34375 -11.609375 C 5.351562 -11.460938 4.488281 -11.550781 3.75 -11.875 C 3.007812 -12.195312 2.375 -12.691406 1.84375 -13.359375 C 1.320312 -14.035156 0.878906 -14.820312 0.515625 -15.71875 C 0.160156 -16.625 -0.125 -17.578125 -0.34375 -18.578125 C -0.5625 -19.578125 -0.722656 -20.578125 -0.828125 -21.578125 C -0.941406 -22.585938 -1.019531 -23.53125 -1.0625 -24.40625 C -1.113281 -25.28125 -1.144531 -26.03125 -1.15625 -26.65625 C -1.195312 -28.976562 -1.125 -31.335938 -0.9375 -33.734375 C -0.757812 -36.140625 -0.441406 -38.523438 0.015625 -40.890625 C 0.472656 -43.265625 1.085938 -45.546875 1.859375 -47.734375 C 2.335938 -49.097656 2.796875 -50.234375 3.234375 -51.140625 C 3.671875 -52.046875 4.082031 -52.769531 4.46875 -53.3125 C 4.851562 -53.863281 5.210938 -54.273438 5.546875 -54.546875 C 5.890625 -54.828125 6.203125 -55.007812 6.484375 -55.09375 C 7.523438 -55.457031 8.4375 -55.210938 9.21875 -54.359375 C 9.632812 -53.898438 9.890625 -53.207031 9.984375 -52.28125 C 10.085938 -51.363281 10.050781 -50.273438 9.875 -49.015625 C 9.707031 -47.753906 9.421875 -46.398438 9.015625 -44.953125 C 8.609375 -43.503906 8.085938 -42.015625 7.453125 -40.484375 C 6.816406 -38.960938 6.09375 -37.46875 5.28125 -36 C 4.46875 -34.53125 3.582031 -33.160156 2.625 -31.890625 C 2.59375 -31.441406 2.570312 -30.898438 2.5625 -30.265625 C 2.550781 -29.628906 2.546875 -28.992188 2.546875 -28.359375 C 2.546875 -27.734375 2.546875 -27.191406 2.546875 -26.734375 C 2.566406 -25.347656 2.640625 -23.9375 2.765625 -22.5 C 2.890625 -21.070312 3.117188 -19.671875 3.453125 -18.296875 C 3.628906 -17.691406 3.828125 -17.082031 4.046875 -16.46875 C 4.273438 -15.851562 4.554688 -15.273438 4.890625 -14.734375 C 5.097656 -14.398438 5.300781 -14.140625 5.5 -13.953125 C 5.695312 -13.773438 6 -13.695312 6.40625 -13.71875 C 6.75 -13.726562 7.082031 -13.941406 7.40625 -14.359375 C 7.726562 -14.773438 8.035156 -15.320312 8.328125 -16 C 8.617188 -16.675781 8.894531 -17.421875 9.15625 -18.234375 C 9.414062 -19.054688 9.65625 -19.890625 9.875 -20.734375 C 10.101562 -21.585938 10.304688 -22.394531 10.484375 -23.15625 C 10.660156 -23.914062 10.8125 -24.566406 10.9375 -25.109375 C 11.070312 -25.648438 11.171875 -26.023438 11.234375 -26.234375 C 11.335938 -26.546875 11.476562 -26.710938 11.65625 -26.734375 C 11.832031 -26.765625 11.976562 -26.691406 12.09375 -26.515625 C 12.207031 -26.347656 12.234375 -26.128906 12.171875 -25.859375 Z M 4.34375 -43.640625 C 4.0625 -42.242188 3.804688 -40.84375 3.578125 -39.4375 C 3.359375 -38.03125 3.160156 -36.617188 2.984375 -35.203125 C 3.160156 -35.359375 3.394531 -35.6875 3.6875 -36.1875 C 3.988281 -36.695312 4.328125 -37.335938 4.703125 -38.109375 C 5.085938 -38.890625 5.476562 -39.75 5.875 -40.6875 C 6.269531 -41.625 6.648438 -42.601562 7.015625 -43.625 C 7.390625 -44.65625 7.71875 -45.675781 8 -46.6875 C 8.289062 -47.695312 8.507812 -48.660156 8.65625 -49.578125 C 8.800781 -50.492188 8.847656 -51.3125 8.796875 -52.03125 C 8.753906 -52.757812 8.582031 -53.335938 8.28125 -53.765625 C 8.019531 -53.691406 7.753906 -53.453125 7.484375 -53.046875 C 7.210938 -52.640625 6.941406 -52.128906 6.671875 -51.515625 C 6.398438 -50.898438 6.144531 -50.226562 5.90625 -49.5 C 5.664062 -48.78125 5.441406 -48.050781 5.234375 -47.3125 C 5.023438 -46.582031 4.84375 -45.894531 4.6875 -45.25 C 4.539062 -44.613281 4.425781 -44.078125 4.34375 -43.640625 Z M 4.34375 -43.640625 "/></g></g></g><g fill="#ffffff" fill-opacity="1"><g transform="translate(55.655925, 63.499966)"><g><path d="M 14.109375 -26.5625 C 14.171875 -26.695312 14.269531 -26.773438 14.40625 -26.796875 C 14.550781 -26.828125 14.671875 -26.800781 14.765625 -26.71875 C 14.867188 -26.644531 14.890625 -26.519531 14.828125 -26.34375 C 14.660156 -25.09375 14.171875 -24.0625 13.359375 -23.25 C 12.554688 -22.4375 11.457031 -21.757812 10.0625 -21.21875 C 9.90625 -20.132812 9.679688 -19.0625 9.390625 -18 C 9.109375 -16.945312 8.757812 -15.984375 8.34375 -15.109375 C 7.925781 -14.234375 7.4375 -13.523438 6.875 -12.984375 C 6.3125 -12.441406 5.675781 -12.148438 4.96875 -12.109375 C 4.15625 -12.054688 3.445312 -12.1875 2.84375 -12.5 C 2.238281 -12.820312 1.71875 -13.269531 1.28125 -13.84375 C 0.851562 -14.414062 0.492188 -15.070312 0.203125 -15.8125 C -0.078125 -16.5625 -0.296875 -17.332031 -0.453125 -18.125 C -0.617188 -18.914062 -0.742188 -19.6875 -0.828125 -20.4375 C -0.910156 -21.1875 -0.960938 -21.867188 -0.984375 -22.484375 C -1.003906 -23.097656 -1.007812 -23.578125 -1 -23.921875 C -1 -24.078125 -0.984375 -24.222656 -0.953125 -24.359375 C -0.929688 -24.503906 -0.898438 -24.628906 -0.859375 -24.734375 C -1.097656 -25.628906 -1.160156 -26.5625 -1.046875 -27.53125 C -0.929688 -28.507812 -0.671875 -29.460938 -0.265625 -30.390625 C 0.128906 -31.316406 0.648438 -32.144531 1.296875 -32.875 C 1.921875 -33.570312 2.585938 -34.035156 3.296875 -34.265625 C 4.015625 -34.503906 4.71875 -34.539062 5.40625 -34.375 C 6.101562 -34.21875 6.71875 -33.90625 7.25 -33.4375 C 8.519531 -32.320312 9.394531 -30.921875 9.875 -29.234375 C 10.363281 -27.546875 10.5 -25.5 10.28125 -23.09375 C 10.28125 -23.007812 10.273438 -22.925781 10.265625 -22.84375 C 10.253906 -22.757812 10.242188 -22.671875 10.234375 -22.578125 C 10.910156 -22.796875 11.546875 -23.082031 12.140625 -23.4375 C 12.734375 -23.789062 13.210938 -24.226562 13.578125 -24.75 C 13.941406 -25.269531 14.117188 -25.875 14.109375 -26.5625 Z M 2.03125 -29.890625 C 1.957031 -29.609375 1.863281 -29.21875 1.75 -28.71875 C 1.632812 -28.226562 1.550781 -27.691406 1.5 -27.109375 C 1.445312 -26.523438 1.457031 -25.953125 1.53125 -25.390625 C 1.738281 -25.265625 1.898438 -25.113281 2.015625 -24.9375 C 2.140625 -24.757812 2.210938 -24.5625 2.234375 -24.34375 C 2.234375 -24.257812 2.234375 -24.148438 2.234375 -24.015625 C 2.234375 -23.890625 2.234375 -23.738281 2.234375 -23.5625 C 2.253906 -23.539062 2.269531 -23.519531 2.28125 -23.5 C 2.300781 -23.488281 2.316406 -23.46875 2.328125 -23.4375 C 2.753906 -22.96875 3.410156 -22.609375 4.296875 -22.359375 C 5.179688 -22.117188 6.160156 -22.015625 7.234375 -22.046875 C 7.304688 -22.773438 7.34375 -23.390625 7.34375 -23.890625 C 7.375 -24.710938 7.378906 -25.578125 7.359375 -26.484375 C 7.347656 -27.398438 7.273438 -28.300781 7.140625 -29.1875 C 7.003906 -30.070312 6.75 -30.882812 6.375 -31.625 C 5.988281 -32.394531 5.59375 -32.878906 5.1875 -33.078125 C 4.78125 -33.273438 4.378906 -33.253906 3.984375 -33.015625 C 3.597656 -32.785156 3.234375 -32.390625 2.890625 -31.828125 C 2.554688 -31.273438 2.269531 -30.628906 2.03125 -29.890625 Z M 4.828125 -14.3125 C 5.128906 -14.34375 5.394531 -14.535156 5.625 -14.890625 C 5.863281 -15.253906 6.070312 -15.726562 6.25 -16.3125 C 6.4375 -16.90625 6.59375 -17.554688 6.71875 -18.265625 C 6.851562 -18.984375 6.960938 -19.691406 7.046875 -20.390625 C 6.203125 -20.265625 5.378906 -20.234375 4.578125 -20.296875 C 3.773438 -20.359375 3.050781 -20.535156 2.40625 -20.828125 C 2.46875 -20.078125 2.554688 -19.316406 2.671875 -18.546875 C 2.796875 -17.785156 2.953125 -17.078125 3.140625 -16.421875 C 3.328125 -15.773438 3.554688 -15.253906 3.828125 -14.859375 C 4.097656 -14.472656 4.429688 -14.289062 4.828125 -14.3125 Z M 4.828125 -14.3125 "/></g></g></g><g fill="#ffffff" fill-opacity="1"><g transform="translate(69.580351, 63.499966)"><g><path d="M 4.421875 -43.609375 C 4.140625 -42.234375 3.890625 -40.84375 3.671875 -39.4375 C 3.453125 -38.039062 3.257812 -36.640625 3.09375 -35.234375 C 2.988281 -34.640625 2.898438 -33.640625 2.828125 -32.234375 C 2.753906 -30.835938 2.691406 -29.03125 2.640625 -26.8125 C 2.609375 -25.394531 2.664062 -23.988281 2.8125 -22.59375 C 2.96875 -21.207031 3.207031 -19.816406 3.53125 -18.421875 C 3.6875 -17.796875 3.878906 -17.1875 4.109375 -16.59375 C 4.347656 -16 4.632812 -15.421875 4.96875 -14.859375 C 5.15625 -14.523438 5.351562 -14.273438 5.5625 -14.109375 C 5.800781 -13.921875 6.109375 -13.832031 6.484375 -13.84375 C 7.109375 -13.9375 7.707031 -14.601562 8.28125 -15.84375 C 8.832031 -17.082031 9.320312 -18.507812 9.75 -20.125 C 9.96875 -20.925781 10.164062 -21.6875 10.34375 -22.40625 C 10.519531 -23.125 10.671875 -23.796875 10.796875 -24.421875 C 10.898438 -24.890625 10.992188 -25.28125 11.078125 -25.59375 C 11.171875 -25.90625 11.242188 -26.144531 11.296875 -26.3125 C 11.398438 -26.625 11.535156 -26.785156 11.703125 -26.796875 C 11.867188 -26.804688 12.007812 -26.742188 12.125 -26.609375 C 12.25 -26.429688 12.273438 -26.207031 12.203125 -25.9375 C 12.128906 -25.570312 12.050781 -25.207031 11.96875 -24.84375 C 11.894531 -24.488281 11.816406 -24.128906 11.734375 -23.765625 C 11.523438 -22.765625 11.3125 -21.789062 11.09375 -20.84375 C 10.875 -19.90625 10.644531 -18.992188 10.40625 -18.109375 C 9.9375 -16.335938 9.382812 -14.878906 8.75 -13.734375 C 8.101562 -12.578125 7.328125 -11.921875 6.421875 -11.765625 C 4.703125 -11.566406 3.347656 -12 2.359375 -13.0625 C 1.359375 -14.144531 0.617188 -15.539062 0.140625 -17.25 C -0.347656 -18.9375 -0.660156 -20.660156 -0.796875 -22.421875 C -0.953125 -24.171875 -1.03125 -25.609375 -1.03125 -26.734375 C -1.113281 -30.210938 -0.921875 -33.753906 -0.453125 -37.359375 C -0.304688 -38.484375 -0.128906 -39.585938 0.078125 -40.671875 C 0.285156 -41.765625 0.523438 -42.84375 0.796875 -43.90625 C 0.765625 -43.914062 0.722656 -43.921875 0.671875 -43.921875 C 0.628906 -43.921875 0.585938 -43.921875 0.546875 -43.921875 C -0.867188 -43.972656 -1.929688 -43.859375 -2.640625 -43.578125 C -2.679688 -43.566406 -2.710938 -43.628906 -2.734375 -43.765625 C -2.742188 -43.890625 -2.734375 -44.0625 -2.703125 -44.28125 C -2.679688 -44.445312 -2.613281 -44.609375 -2.5 -44.765625 C -2.164062 -45.085938 -1.488281 -45.25 -0.46875 -45.25 C -0.21875 -45.238281 0.0390625 -45.226562 0.3125 -45.21875 C 0.582031 -45.21875 0.863281 -45.210938 1.15625 -45.203125 C 1.28125 -45.617188 1.40625 -46.035156 1.53125 -46.453125 C 1.664062 -46.878906 1.804688 -47.300781 1.953125 -47.71875 C 2.828125 -50.113281 3.597656 -51.789062 4.265625 -52.75 C 4.953125 -53.738281 5.566406 -54.347656 6.109375 -54.578125 C 6.296875 -54.640625 6.484375 -54.675781 6.671875 -54.6875 C 6.867188 -54.695312 7.0625 -54.691406 7.25 -54.671875 C 7.625 -54.585938 7.9375 -54.429688 8.1875 -54.203125 C 8.25 -54.109375 8.28125 -54.023438 8.28125 -53.953125 C 8.257812 -53.828125 8.210938 -53.738281 8.140625 -53.6875 C 7.617188 -53.25 7.109375 -52.390625 6.609375 -51.109375 C 6.097656 -49.847656 5.644531 -48.503906 5.25 -47.078125 C 5.144531 -46.671875 5.046875 -46.285156 4.953125 -45.921875 C 4.859375 -45.566406 4.769531 -45.234375 4.6875 -44.921875 C 5.1875 -44.898438 5.671875 -44.878906 6.140625 -44.859375 C 6.617188 -44.835938 7.09375 -44.832031 7.5625 -44.84375 C 9.039062 -44.84375 10.191406 -45.117188 11.015625 -45.671875 C 11.015625 -45.648438 11.019531 -45.640625 11.03125 -45.640625 C 11.03125 -45.640625 11.03125 -45.632812 11.03125 -45.625 C 11.03125 -45.625 11.039062 -45.625 11.0625 -45.625 C 11.0625 -45.601562 11.070312 -45.578125 11.09375 -45.546875 C 11.125 -45.492188 11.148438 -45.441406 11.171875 -45.390625 C 11.203125 -45.335938 11.226562 -45.28125 11.25 -45.21875 C 11.289062 -45.0625 11.304688 -44.898438 11.296875 -44.734375 C 11.273438 -44.535156 11.210938 -44.335938 11.109375 -44.140625 C 11.023438 -43.941406 10.84375 -43.726562 10.5625 -43.5 C 10.21875 -43.28125 9.539062 -43.195312 8.53125 -43.25 C 8.007812 -43.269531 7.457031 -43.304688 6.875 -43.359375 C 6.289062 -43.410156 5.660156 -43.476562 4.984375 -43.5625 C 4.890625 -43.570312 4.796875 -43.578125 4.703125 -43.578125 C 4.617188 -43.585938 4.523438 -43.597656 4.421875 -43.609375 Z M 4.421875 -43.609375 "/></g></g></g><g fill="#ffffff" fill-opacity="1"><g transform="translate(80.770669, 63.499966)"><g><path d="M 7.9375 -24.203125 C 7.570312 -23.585938 7.140625 -23.019531 6.640625 -22.5 C 6.148438 -21.988281 5.59375 -21.585938 4.96875 -21.296875 C 4.351562 -21.015625 3.660156 -20.910156 2.890625 -20.984375 C 2.816406 -20.984375 2.738281 -20.988281 2.65625 -21 C 2.582031 -21.007812 2.503906 -21.019531 2.421875 -21.03125 C 2.472656 -20.320312 2.570312 -19.628906 2.71875 -18.953125 C 2.875 -18.273438 3.097656 -17.664062 3.390625 -17.125 C 3.691406 -16.582031 4.085938 -16.140625 4.578125 -15.796875 C 5.078125 -15.460938 5.6875 -15.28125 6.40625 -15.25 C 7.03125 -15.226562 7.617188 -15.375 8.171875 -15.6875 C 8.722656 -16 9.234375 -16.410156 9.703125 -16.921875 C 10.171875 -17.441406 10.597656 -17.988281 10.984375 -18.5625 C 11.378906 -19.132812 11.734375 -19.671875 12.046875 -20.171875 C 12.148438 -20.347656 12.296875 -20.628906 12.484375 -21.015625 C 12.679688 -21.410156 12.890625 -21.863281 13.109375 -22.375 C 13.328125 -22.882812 13.539062 -23.414062 13.75 -23.96875 C 13.96875 -24.53125 14.160156 -25.078125 14.328125 -25.609375 C 14.492188 -26.140625 14.613281 -26.609375 14.6875 -27.015625 C 14.738281 -27.285156 14.851562 -27.457031 15.03125 -27.53125 C 15.207031 -27.613281 15.367188 -27.609375 15.515625 -27.515625 C 15.671875 -27.429688 15.710938 -27.257812 15.640625 -27 C 15.484375 -26.300781 15.257812 -25.507812 14.96875 -24.625 C 14.675781 -23.738281 14.34375 -22.832031 13.96875 -21.90625 C 13.59375 -20.976562 13.195312 -20.078125 12.78125 -19.203125 C 12.257812 -18.097656 11.648438 -17.09375 10.953125 -16.1875 C 10.253906 -15.28125 9.488281 -14.550781 8.65625 -14 C 7.832031 -13.457031 6.953125 -13.15625 6.015625 -13.09375 C 5.140625 -13.019531 4.296875 -13.097656 3.484375 -13.328125 C 2.671875 -13.566406 1.945312 -13.953125 1.3125 -14.484375 C 0.675781 -15.023438 0.160156 -15.707031 -0.234375 -16.53125 C -0.597656 -17.332031 -0.859375 -18.1875 -1.015625 -19.09375 C -1.171875 -20.007812 -1.25 -20.9375 -1.25 -21.875 C -1.257812 -22.820312 -1.238281 -23.726562 -1.1875 -24.59375 C -1.15625 -25.289062 -1.0625 -26.0625 -0.90625 -26.90625 C -0.757812 -27.75 -0.546875 -28.601562 -0.265625 -29.46875 C 0.00390625 -30.34375 0.34375 -31.179688 0.75 -31.984375 C 1.164062 -32.796875 1.648438 -33.519531 2.203125 -34.15625 C 2.765625 -34.800781 3.40625 -35.3125 4.125 -35.6875 C 4.84375 -36.0625 5.644531 -36.25 6.53125 -36.25 C 7.382812 -36.25 8.070312 -36.082031 8.59375 -35.75 C 9.113281 -35.414062 9.492188 -34.957031 9.734375 -34.375 C 9.972656 -33.800781 10.109375 -33.148438 10.140625 -32.421875 C 10.179688 -31.703125 10.132812 -30.945312 10 -30.15625 C 9.875 -29.375 9.691406 -28.601562 9.453125 -27.84375 C 9.222656 -27.09375 8.972656 -26.398438 8.703125 -25.765625 C 8.429688 -25.140625 8.175781 -24.617188 7.9375 -24.203125 Z M 2.390625 -22.5 C 2.421875 -22.476562 2.457031 -22.453125 2.5 -22.421875 C 2.539062 -22.398438 2.585938 -22.375 2.640625 -22.34375 C 3.023438 -22.144531 3.382812 -22.101562 3.71875 -22.21875 C 4.0625 -22.332031 4.375 -22.53125 4.65625 -22.8125 C 4.945312 -23.101562 5.203125 -23.421875 5.421875 -23.765625 C 5.648438 -24.109375 5.84375 -24.410156 6 -24.671875 C 6.570312 -25.703125 7.03125 -26.789062 7.375 -27.9375 C 7.71875 -29.082031 7.894531 -30.238281 7.90625 -31.40625 C 7.925781 -31.707031 7.914062 -32.078125 7.875 -32.515625 C 7.84375 -32.960938 7.757812 -33.390625 7.625 -33.796875 C 7.5 -34.210938 7.28125 -34.503906 6.96875 -34.671875 C 6.6875 -34.835938 6.328125 -34.757812 5.890625 -34.4375 C 5.453125 -34.125 5.007812 -33.597656 4.5625 -32.859375 C 4.113281 -32.128906 3.710938 -31.210938 3.359375 -30.109375 C 3.003906 -29.003906 2.757812 -27.757812 2.625 -26.375 C 2.582031 -25.957031 2.53125 -25.40625 2.46875 -24.71875 C 2.414062 -24.03125 2.390625 -23.289062 2.390625 -22.5 Z M 2.390625 -22.5 "/></g></g></g><g fill="#ffffff" fill-opacity="1"><g transform="translate(95.612968, 63.499966)"><g><path d="M 10.390625 -23.75 C 10.328125 -23.632812 10.164062 -23.550781 9.90625 -23.5 C 9.65625 -23.445312 9.378906 -23.429688 9.078125 -23.453125 C 8.785156 -23.472656 8.539062 -23.53125 8.34375 -23.625 C 8.144531 -23.71875 8.070312 -23.851562 8.125 -24.03125 C 8.28125 -24.582031 8.429688 -25.207031 8.578125 -25.90625 C 8.722656 -26.601562 8.8125 -27.316406 8.84375 -28.046875 C 8.882812 -28.785156 8.84375 -29.5 8.71875 -30.1875 C 8.59375 -30.882812 8.347656 -31.519531 7.984375 -32.09375 C 7.617188 -32.664062 7.09375 -33.128906 6.40625 -33.484375 C 6 -33.691406 5.675781 -33.773438 5.4375 -33.734375 C 5.195312 -33.703125 4.910156 -33.550781 4.578125 -33.28125 C 4.128906 -32.914062 3.742188 -32.460938 3.421875 -31.921875 C 3.097656 -31.378906 2.835938 -30.835938 2.640625 -30.296875 C 2.191406 -29.015625 2.101562 -27.726562 2.375 -26.4375 C 2.65625 -25.144531 3.234375 -23.988281 4.109375 -22.96875 C 4.503906 -22.5 4.945312 -22.082031 5.4375 -21.71875 C 5.925781 -21.363281 6.425781 -21.023438 6.9375 -20.703125 C 7.457031 -20.390625 7.960938 -20.0625 8.453125 -19.71875 C 8.941406 -19.382812 9.394531 -19 9.8125 -18.5625 C 10.34375 -18 10.695312 -17.390625 10.875 -16.734375 C 11.0625 -16.078125 11.046875 -15.4375 10.828125 -14.8125 C 10.617188 -14.195312 10.1875 -13.660156 9.53125 -13.203125 C 8.9375 -12.785156 8.273438 -12.484375 7.546875 -12.296875 C 6.816406 -12.109375 6.09375 -11.992188 5.375 -11.953125 C 4.21875 -11.898438 3.164062 -12.050781 2.21875 -12.40625 C 1.269531 -12.769531 0.5 -13.34375 -0.09375 -14.125 C -0.6875 -14.90625 -1.046875 -15.894531 -1.171875 -17.09375 C -1.203125 -17.351562 -1.097656 -17.5625 -0.859375 -17.71875 C -0.628906 -17.882812 -0.332031 -18 0.03125 -18.0625 C 0.40625 -18.132812 0.773438 -18.148438 1.140625 -18.109375 C 1.515625 -18.066406 1.832031 -17.96875 2.09375 -17.8125 C 2.363281 -17.65625 2.515625 -17.441406 2.546875 -17.171875 C 2.597656 -16.710938 2.703125 -16.234375 2.859375 -15.734375 C 3.015625 -15.242188 3.25 -14.820312 3.5625 -14.46875 C 3.882812 -14.125 4.316406 -13.925781 4.859375 -13.875 C 5.203125 -13.84375 5.546875 -13.890625 5.890625 -14.015625 C 6.242188 -14.140625 6.546875 -14.320312 6.796875 -14.5625 C 7.054688 -14.8125 7.222656 -15.125 7.296875 -15.5 C 7.367188 -15.875 7.300781 -16.296875 7.09375 -16.765625 C 6.925781 -17.160156 6.679688 -17.5 6.359375 -17.78125 C 6.035156 -18.070312 5.6875 -18.332031 5.3125 -18.5625 C 4.9375 -18.789062 4.570312 -19.015625 4.21875 -19.234375 C 3.726562 -19.546875 3.242188 -19.878906 2.765625 -20.234375 C 2.285156 -20.597656 1.835938 -20.984375 1.421875 -21.390625 C 0.609375 -22.191406 -0.0664062 -23.097656 -0.609375 -24.109375 C -1.148438 -25.128906 -1.445312 -26.226562 -1.5 -27.40625 C -1.539062 -28.34375 -1.425781 -29.265625 -1.15625 -30.171875 C -0.882812 -31.078125 -0.484375 -31.910156 0.046875 -32.671875 C 0.585938 -33.441406 1.222656 -34.085938 1.953125 -34.609375 C 2.691406 -35.128906 3.507812 -35.476562 4.40625 -35.65625 C 5.3125 -35.832031 6.257812 -35.789062 7.25 -35.53125 C 8.34375 -35.238281 9.226562 -34.773438 9.90625 -34.140625 C 10.59375 -33.515625 11.097656 -32.78125 11.421875 -31.9375 C 11.753906 -31.09375 11.921875 -30.191406 11.921875 -29.234375 C 11.929688 -28.285156 11.800781 -27.335938 11.53125 -26.390625 C 11.269531 -25.453125 10.890625 -24.570312 10.390625 -23.75 Z M 10.390625 -23.75 "/></g></g></g><g fill="#ffffff" fill-opacity="1"><g transform="translate(109.322566, 63.499966)"><g/></g></g><g fill="#ffffff" fill-opacity="1"><g transform="translate(119.14583, 63.499966)"><g><path d="M 24.546875 -61.0625 C 25.796875 -61.0625 26.925781 -60.734375 27.9375 -60.078125 C 28.957031 -59.429688 29.710938 -58.535156 30.203125 -57.390625 C 30.597656 -56.453125 30.867188 -55.460938 31.015625 -54.421875 C 31.160156 -53.378906 31.234375 -52.328125 31.234375 -51.265625 C 31.242188 -50.210938 31.238281 -49.191406 31.21875 -48.203125 C 31.132812 -44.878906 30.75 -41.585938 30.0625 -38.328125 C 29.90625 -37.578125 29.722656 -36.773438 29.515625 -35.921875 C 29.316406 -35.078125 29.066406 -34.21875 28.765625 -33.34375 C 28.472656 -32.476562 28.113281 -31.664062 27.6875 -30.90625 C 27.257812 -30.144531 26.75 -29.476562 26.15625 -28.90625 C 25.570312 -28.34375 24.878906 -27.929688 24.078125 -27.671875 C 23.285156 -27.410156 22.375 -27.359375 21.34375 -27.515625 C 20.65625 -27.617188 20.070312 -27.910156 19.59375 -28.390625 C 19.125 -28.878906 18.769531 -29.484375 18.53125 -30.203125 C 18.300781 -30.929688 18.1875 -31.703125 18.1875 -32.515625 C 18.195312 -33.953125 18.351562 -35.296875 18.65625 -36.546875 C 18.957031 -37.796875 19.484375 -38.804688 20.234375 -39.578125 C 20.285156 -39.628906 20.390625 -39.660156 20.546875 -39.671875 C 20.703125 -39.691406 20.847656 -39.6875 20.984375 -39.65625 C 21.117188 -39.632812 21.175781 -39.566406 21.15625 -39.453125 C 21.0625 -38.984375 20.945312 -38.394531 20.8125 -37.6875 C 20.675781 -36.988281 20.550781 -36.238281 20.4375 -35.4375 C 20.332031 -34.632812 20.265625 -33.84375 20.234375 -33.0625 C 20.210938 -32.28125 20.257812 -31.570312 20.375 -30.9375 C 20.5 -30.300781 20.722656 -29.789062 21.046875 -29.40625 C 21.378906 -29.03125 21.835938 -28.859375 22.421875 -28.890625 C 22.921875 -28.910156 23.378906 -29.210938 23.796875 -29.796875 C 24.222656 -30.378906 24.609375 -31.164062 24.953125 -32.15625 C 25.304688 -33.144531 25.625 -34.257812 25.90625 -35.5 C 26.1875 -36.738281 26.429688 -38.039062 26.640625 -39.40625 C 26.847656 -40.78125 27.015625 -42.132812 27.140625 -43.46875 C 27.273438 -44.800781 27.375 -46.050781 27.4375 -47.21875 C 27.507812 -48.394531 27.535156 -49.398438 27.515625 -50.234375 C 27.503906 -50.890625 27.488281 -51.582031 27.46875 -52.3125 C 27.445312 -53.039062 27.390625 -53.769531 27.296875 -54.5 C 27.203125 -55.238281 27.023438 -55.9375 26.765625 -56.59375 C 26.515625 -57.257812 26.148438 -57.847656 25.671875 -58.359375 C 25.421875 -58.617188 25.191406 -58.796875 24.984375 -58.890625 C 24.773438 -58.984375 24.492188 -59.003906 24.140625 -58.953125 C 24.046875 -58.929688 23.820312 -58.832031 23.46875 -58.65625 C 23.113281 -58.488281 22.664062 -58.164062 22.125 -57.6875 C 21.582031 -57.207031 20.992188 -56.53125 20.359375 -55.65625 C 19.734375 -54.789062 19.097656 -53.664062 18.453125 -52.28125 C 17.816406 -50.894531 17.226562 -49.1875 16.6875 -47.15625 C 16.507812 -46.53125 16.351562 -45.898438 16.21875 -45.265625 C 16.09375 -44.628906 15.972656 -43.992188 15.859375 -43.359375 C 15.992188 -39.910156 16 -36.457031 15.875 -33 C 15.757812 -29.539062 15.484375 -26.097656 15.046875 -22.671875 C 14.804688 -20.847656 14.519531 -19.035156 14.1875 -17.234375 C 13.851562 -15.429688 13.46875 -13.640625 13.03125 -11.859375 C 12.789062 -10.941406 12.546875 -10.03125 12.296875 -9.125 C 12.046875 -8.226562 11.769531 -7.328125 11.46875 -6.421875 C 11.269531 -5.835938 11.078125 -5.253906 10.890625 -4.671875 C 10.703125 -4.085938 10.46875 -3.53125 10.1875 -3 C 9.914062 -2.46875 9.546875 -1.984375 9.078125 -1.546875 C 8.953125 -1.410156 8.765625 -1.300781 8.515625 -1.21875 C 8.265625 -1.144531 7.992188 -1.101562 7.703125 -1.09375 C 7.421875 -1.09375 7.160156 -1.132812 6.921875 -1.21875 C 6.679688 -1.300781 6.507812 -1.441406 6.40625 -1.640625 C 6.28125 -1.878906 6.25 -2.1875 6.3125 -2.5625 C 6.375 -2.945312 6.488281 -3.359375 6.65625 -3.796875 C 6.832031 -4.242188 7.015625 -4.6875 7.203125 -5.125 C 7.398438 -5.570312 7.554688 -5.976562 7.671875 -6.34375 C 7.929688 -7.15625 8.1875 -7.960938 8.4375 -8.765625 C 8.6875 -9.578125 8.914062 -10.394531 9.125 -11.21875 C 9.5625 -12.851562 9.941406 -14.503906 10.265625 -16.171875 C 10.597656 -17.835938 10.878906 -19.507812 11.109375 -21.1875 C 11.523438 -24.101562 11.820312 -27.023438 12 -29.953125 C 12.175781 -32.890625 12.253906 -35.820312 12.234375 -38.75 C 12.210938 -40.65625 12.1875 -42.585938 12.15625 -44.546875 C 12.125 -46.503906 12.003906 -48.457031 11.796875 -50.40625 C 11.585938 -52.351562 11.222656 -54.242188 10.703125 -56.078125 C 10.640625 -56.296875 10.546875 -56.609375 10.421875 -57.015625 C 10.296875 -57.421875 10.128906 -57.84375 9.921875 -58.28125 C 9.722656 -58.726562 9.488281 -59.109375 9.21875 -59.421875 C 8.945312 -59.734375 8.625 -59.898438 8.25 -59.921875 C 7.757812 -59.960938 7.316406 -59.828125 6.921875 -59.515625 C 6.535156 -59.203125 6.179688 -58.785156 5.859375 -58.265625 C 5.546875 -57.753906 5.238281 -57.203125 4.9375 -56.609375 C 4.675781 -56.054688 4.398438 -55.398438 4.109375 -54.640625 C 3.816406 -53.878906 3.523438 -53.054688 3.234375 -52.171875 C 2.953125 -51.296875 2.695312 -50.40625 2.46875 -49.5 C 2.238281 -48.59375 2.050781 -47.726562 1.90625 -46.90625 C 1.769531 -46.082031 1.695312 -45.335938 1.6875 -44.671875 C 1.6875 -44.003906 1.765625 -43.46875 1.921875 -43.0625 C 2.085938 -42.664062 2.359375 -42.445312 2.734375 -42.40625 C 3.035156 -42.375 3.351562 -42.5 3.6875 -42.78125 C 4.03125 -43.0625 4.378906 -43.445312 4.734375 -43.9375 C 5.097656 -44.4375 5.453125 -44.992188 5.796875 -45.609375 C 6.148438 -46.222656 6.484375 -46.847656 6.796875 -47.484375 C 7.117188 -48.117188 7.410156 -48.722656 7.671875 -49.296875 C 7.929688 -49.878906 8.148438 -50.375 8.328125 -50.78125 C 8.378906 -50.863281 8.488281 -50.921875 8.65625 -50.953125 C 8.820312 -50.992188 8.976562 -51 9.125 -50.96875 C 9.28125 -50.945312 9.351562 -50.863281 9.34375 -50.71875 C 9.3125 -50.394531 9.1875 -49.941406 8.96875 -49.359375 C 8.757812 -48.785156 8.484375 -48.144531 8.140625 -47.4375 C 7.796875 -46.738281 7.40625 -46.035156 6.96875 -45.328125 C 6.539062 -44.617188 6.085938 -43.96875 5.609375 -43.375 C 5.140625 -42.78125 4.664062 -42.300781 4.1875 -41.9375 C 3.71875 -41.570312 3.265625 -41.390625 2.828125 -41.390625 C 2.273438 -41.390625 1.816406 -41.53125 1.453125 -41.8125 C 1.085938 -42.101562 0.804688 -42.5 0.609375 -43 C 0.410156 -43.5 0.269531 -44.066406 0.1875 -44.703125 C 0.113281 -45.347656 0.078125 -46.023438 0.078125 -46.734375 C 0.078125 -47.390625 0.128906 -48.144531 0.234375 -49 C 0.347656 -49.863281 0.515625 -50.773438 0.734375 -51.734375 C 0.960938 -52.703125 1.242188 -53.664062 1.578125 -54.625 C 1.910156 -55.59375 2.300781 -56.507812 2.75 -57.375 C 3.195312 -58.25 3.695312 -59.023438 4.25 -59.703125 C 4.8125 -60.378906 5.4375 -60.910156 6.125 -61.296875 C 6.8125 -61.691406 7.550781 -61.890625 8.34375 -61.890625 C 9.28125 -61.890625 10.082031 -61.75 10.75 -61.46875 C 11.425781 -61.195312 11.988281 -60.8125 12.4375 -60.3125 C 12.894531 -59.820312 13.273438 -59.242188 13.578125 -58.578125 C 13.890625 -57.910156 14.15625 -57.1875 14.375 -56.40625 C 14.71875 -55.21875 14.972656 -54.019531 15.140625 -52.8125 C 15.316406 -51.613281 15.453125 -50.40625 15.546875 -49.1875 C 15.953125 -50.394531 16.410156 -51.578125 16.921875 -52.734375 C 17.441406 -53.890625 18 -54.96875 18.59375 -55.96875 C 19.195312 -56.976562 19.828125 -57.863281 20.484375 -58.625 C 21.140625 -59.382812 21.8125 -59.976562 22.5 -60.40625 C 23.1875 -60.84375 23.867188 -61.0625 24.546875 -61.0625 Z M 24.546875 -61.0625 "/></g></g></g><g fill="#ffffff" fill-opacity="1"><g transform="translate(149.513961, 63.499966)"><g><path d="M 9.265625 -25.09375 C 8.660156 -24.5 8.054688 -24.109375 7.453125 -23.921875 C 6.847656 -23.742188 6.210938 -23.875 5.546875 -24.3125 C 5.265625 -24.507812 5.0625 -24.765625 4.9375 -25.078125 C 4.8125 -25.390625 4.757812 -25.703125 4.78125 -26.015625 C 4.8125 -26.328125 4.898438 -26.582031 5.046875 -26.78125 C 5.097656 -26.820312 5.210938 -26.847656 5.390625 -26.859375 C 5.578125 -26.867188 5.765625 -26.859375 5.953125 -26.828125 C 6.148438 -26.804688 6.300781 -26.765625 6.40625 -26.703125 C 6.519531 -26.640625 6.535156 -26.535156 6.453125 -26.390625 C 6.347656 -26.234375 6.296875 -26.054688 6.296875 -25.859375 C 6.304688 -25.660156 6.375 -25.492188 6.5 -25.359375 C 6.625 -25.222656 6.800781 -25.15625 7.03125 -25.15625 C 7.269531 -25.164062 7.484375 -25.320312 7.671875 -25.625 C 7.859375 -25.925781 8.019531 -26.316406 8.15625 -26.796875 C 8.300781 -27.273438 8.414062 -27.785156 8.5 -28.328125 C 8.59375 -28.878906 8.640625 -29.40625 8.640625 -29.90625 C 8.640625 -30.414062 8.59375 -30.84375 8.5 -31.1875 C 8.414062 -31.53125 8.285156 -31.734375 8.109375 -31.796875 C 7.691406 -31.953125 7.257812 -31.882812 6.8125 -31.59375 C 6.363281 -31.300781 5.925781 -30.828125 5.5 -30.171875 C 5.070312 -29.523438 4.671875 -28.726562 4.296875 -27.78125 C 3.929688 -26.84375 3.613281 -25.796875 3.34375 -24.640625 C 3.070312 -23.484375 2.867188 -22.269531 2.734375 -21 C 2.503906 -19.695312 2.390625 -18.320312 2.390625 -16.875 C 2.398438 -15.425781 2.398438 -14.023438 2.390625 -12.671875 C 2.390625 -12.617188 2.390625 -12.5625 2.390625 -12.5 C 2.398438 -12.4375 2.40625 -12.378906 2.40625 -12.328125 L 2.390625 -12.328125 C 2.390625 -12.234375 2.382812 -12.140625 2.375 -12.046875 C 2.363281 -11.960938 2.359375 -11.875 2.359375 -11.78125 C 2.347656 -11.519531 2.222656 -11.320312 1.984375 -11.1875 C 1.753906 -11.0625 1.460938 -10.992188 1.109375 -10.984375 C 0.765625 -10.984375 0.414062 -11.035156 0.0625 -11.140625 C -0.289062 -11.242188 -0.585938 -11.390625 -0.828125 -11.578125 C -1.066406 -11.765625 -1.195312 -11.988281 -1.21875 -12.25 C -1.300781 -14.1875 -1.378906 -16.117188 -1.453125 -18.046875 C -1.535156 -19.972656 -1.585938 -21.898438 -1.609375 -23.828125 C -1.609375 -24.796875 -1.59375 -25.765625 -1.5625 -26.734375 C -1.539062 -27.703125 -1.503906 -28.660156 -1.453125 -29.609375 C -1.410156 -30.191406 -1.351562 -30.804688 -1.28125 -31.453125 C -1.21875 -32.097656 -1.117188 -32.707031 -0.984375 -33.28125 C -0.859375 -33.851562 -0.691406 -34.316406 -0.484375 -34.671875 C -0.378906 -34.847656 -0.195312 -34.992188 0.0625 -35.109375 C 0.320312 -35.222656 0.601562 -35.296875 0.90625 -35.328125 C 1.21875 -35.359375 1.507812 -35.34375 1.78125 -35.28125 C 2.0625 -35.226562 2.285156 -35.125 2.453125 -34.96875 C 2.617188 -34.820312 2.675781 -34.625 2.625 -34.375 C 2.425781 -33.375 2.3125 -32.460938 2.28125 -31.640625 C 2.25 -30.816406 2.207031 -29.957031 2.15625 -29.0625 C 2.132812 -28.550781 2.113281 -28.035156 2.09375 -27.515625 C 2.082031 -26.992188 2.066406 -26.472656 2.046875 -25.953125 C 2.117188 -26.148438 2.1875 -26.34375 2.25 -26.53125 C 2.320312 -26.71875 2.398438 -26.910156 2.484375 -27.109375 C 2.816406 -27.972656 3.175781 -28.847656 3.5625 -29.734375 C 3.957031 -30.617188 4.398438 -31.429688 4.890625 -32.171875 C 5.390625 -32.910156 5.945312 -33.5 6.5625 -33.9375 C 7.1875 -34.375 7.894531 -34.570312 8.6875 -34.53125 C 9.226562 -34.507812 9.664062 -34.3125 10 -33.9375 C 10.34375 -33.5625 10.59375 -33.082031 10.75 -32.5 C 10.914062 -31.914062 11 -31.273438 11 -30.578125 C 11.007812 -29.878906 10.945312 -29.175781 10.8125 -28.46875 C 10.675781 -27.769531 10.476562 -27.125 10.21875 -26.53125 C 9.957031 -25.9375 9.640625 -25.457031 9.265625 -25.09375 Z M 9.265625 -25.09375 "/></g></g></g><g fill="#ffffff" fill-opacity="1"><g transform="translate(162.442385, 63.499966)"><g><path d="M 7.9375 -24.203125 C 7.570312 -23.585938 7.140625 -23.019531 6.640625 -22.5 C 6.148438 -21.988281 5.59375 -21.585938 4.96875 -21.296875 C 4.351562 -21.015625 3.660156 -20.910156 2.890625 -20.984375 C 2.816406 -20.984375 2.738281 -20.988281 2.65625 -21 C 2.582031 -21.007812 2.503906 -21.019531 2.421875 -21.03125 C 2.472656 -20.320312 2.570312 -19.628906 2.71875 -18.953125 C 2.875 -18.273438 3.097656 -17.664062 3.390625 -17.125 C 3.691406 -16.582031 4.085938 -16.140625 4.578125 -15.796875 C 5.078125 -15.460938 5.6875 -15.28125 6.40625 -15.25 C 7.03125 -15.226562 7.617188 -15.375 8.171875 -15.6875 C 8.722656 -16 9.234375 -16.410156 9.703125 -16.921875 C 10.171875 -17.441406 10.597656 -17.988281 10.984375 -18.5625 C 11.378906 -19.132812 11.734375 -19.671875 12.046875 -20.171875 C 12.148438 -20.347656 12.296875 -20.628906 12.484375 -21.015625 C 12.679688 -21.410156 12.890625 -21.863281 13.109375 -22.375 C 13.328125 -22.882812 13.539062 -23.414062 13.75 -23.96875 C 13.96875 -24.53125 14.160156 -25.078125 14.328125 -25.609375 C 14.492188 -26.140625 14.613281 -26.609375 14.6875 -27.015625 C 14.738281 -27.285156 14.851562 -27.457031 15.03125 -27.53125 C 15.207031 -27.613281 15.367188 -27.609375 15.515625 -27.515625 C 15.671875 -27.429688 15.710938 -27.257812 15.640625 -27 C 15.484375 -26.300781 15.257812 -25.507812 14.96875 -24.625 C 14.675781 -23.738281 14.34375 -22.832031 13.96875 -21.90625 C 13.59375 -20.976562 13.195312 -20.078125 12.78125 -19.203125 C 12.257812 -18.097656 11.648438 -17.09375 10.953125 -16.1875 C 10.253906 -15.28125 9.488281 -14.550781 8.65625 -14 C 7.832031 -13.457031 6.953125 -13.15625 6.015625 -13.09375 C 5.140625 -13.019531 4.296875 -13.097656 3.484375 -13.328125 C 2.671875 -13.566406 1.945312 -13.953125 1.3125 -14.484375 C 0.675781 -15.023438 0.160156 -15.707031 -0.234375 -16.53125 C -0.597656 -17.332031 -0.859375 -18.1875 -1.015625 -19.09375 C -1.171875 -20.007812 -1.25 -20.9375 -1.25 -21.875 C -1.257812 -22.820312 -1.238281 -23.726562 -1.1875 -24.59375 C -1.15625 -25.289062 -1.0625 -26.0625 -0.90625 -26.90625 C -0.757812 -27.75 -0.546875 -28.601562 -0.265625 -29.46875 C 0.00390625 -30.34375 0.34375 -31.179688 0.75 -31.984375 C 1.164062 -32.796875 1.648438 -33.519531 2.203125 -34.15625 C 2.765625 -34.800781 3.40625 -35.3125 4.125 -35.6875 C 4.84375 -36.0625 5.644531 -36.25 6.53125 -36.25 C 7.382812 -36.25 8.070312 -36.082031 8.59375 -35.75 C 9.113281 -35.414062 9.492188 -34.957031 9.734375 -34.375 C 9.972656 -33.800781 10.109375 -33.148438 10.140625 -32.421875 C 10.179688 -31.703125 10.132812 -30.945312 10 -30.15625 C 9.875 -29.375 9.691406 -28.601562 9.453125 -27.84375 C 9.222656 -27.09375 8.972656 -26.398438 8.703125 -25.765625 C 8.429688 -25.140625 8.175781 -24.617188 7.9375 -24.203125 Z M 2.390625 -22.5 C 2.421875 -22.476562 2.457031 -22.453125 2.5 -22.421875 C 2.539062 -22.398438 2.585938 -22.375 2.640625 -22.34375 C 3.023438 -22.144531 3.382812 -22.101562 3.71875 -22.21875 C 4.0625 -22.332031 4.375 -22.53125 4.65625 -22.8125 C 4.945312 -23.101562 5.203125 -23.421875 5.421875 -23.765625 C 5.648438 -24.109375 5.84375 -24.410156 6 -24.671875 C 6.570312 -25.703125 7.03125 -26.789062 7.375 -27.9375 C 7.71875 -29.082031 7.894531 -30.238281 7.90625 -31.40625 C 7.925781 -31.707031 7.914062 -32.078125 7.875 -32.515625 C 7.84375 -32.960938 7.757812 -33.390625 7.625 -33.796875 C 7.5 -34.210938 7.28125 -34.503906 6.96875 -34.671875 C 6.6875 -34.835938 6.328125 -34.757812 5.890625 -34.4375 C 5.453125 -34.125 5.007812 -33.597656 4.5625 -32.859375 C 4.113281 -32.128906 3.710938 -31.210938 3.359375 -30.109375 C 3.003906 -29.003906 2.757812 -27.757812 2.625 -26.375 C 2.582031 -25.957031 2.53125 -25.40625 2.46875 -24.71875 C 2.414062 -24.03125 2.390625 -23.289062 2.390625 -22.5 Z M 2.390625 -22.5 "/></g></g></g><g fill="#ffffff" fill-opacity="1"><g transform="translate(177.284684, 63.499966)"><g><path d="M 18.453125 -27.953125 C 18.691406 -27.953125 18.875 -27.898438 19 -27.796875 C 19.132812 -27.691406 19.179688 -27.578125 19.140625 -27.453125 C 19.097656 -27.335938 18.941406 -27.253906 18.671875 -27.203125 C 18.085938 -27.085938 17.460938 -26.957031 16.796875 -26.8125 C 16.128906 -26.675781 15.335938 -26.429688 14.421875 -26.078125 C 14.398438 -25.265625 14.328125 -24.453125 14.203125 -23.640625 C 14.085938 -22.835938 13.9375 -22.046875 13.75 -21.265625 C 13.382812 -19.785156 12.878906 -18.363281 12.234375 -17 C 11.984375 -16.476562 11.695312 -15.929688 11.375 -15.359375 C 11.0625 -14.785156 10.65625 -14.328125 10.15625 -13.984375 C 9.789062 -13.734375 9.367188 -13.539062 8.890625 -13.40625 C 8.410156 -13.269531 7.929688 -13.210938 7.453125 -13.234375 C 6.972656 -13.265625 6.546875 -13.398438 6.171875 -13.640625 C 5.796875 -13.878906 5.53125 -14.257812 5.375 -14.78125 C 5.175781 -15.382812 5.101562 -16.007812 5.15625 -16.65625 C 5.21875 -17.300781 5.363281 -17.941406 5.59375 -18.578125 C 5.820312 -19.210938 6.09375 -19.828125 6.40625 -20.421875 C 6.71875 -21.015625 7.035156 -21.550781 7.359375 -22.03125 C 7.804688 -22.6875 8.304688 -23.289062 8.859375 -23.84375 C 9.421875 -24.394531 10.03125 -24.898438 10.6875 -25.359375 C 10.75 -26.085938 10.773438 -26.851562 10.765625 -27.65625 C 10.765625 -28.46875 10.679688 -29.242188 10.515625 -29.984375 C 10.359375 -30.734375 10.078125 -31.378906 9.671875 -31.921875 C 9.359375 -32.347656 9.046875 -32.566406 8.734375 -32.578125 C 8.421875 -32.585938 8.109375 -32.472656 7.796875 -32.234375 C 7.484375 -31.992188 7.148438 -31.691406 6.796875 -31.328125 C 6.328125 -30.847656 5.90625 -30.3125 5.53125 -29.71875 C 5.15625 -29.132812 4.816406 -28.539062 4.515625 -27.9375 C 4.015625 -26.925781 3.59375 -25.894531 3.25 -24.84375 C 2.90625 -23.789062 2.609375 -22.722656 2.359375 -21.640625 C 2.335938 -20.453125 2.316406 -19.265625 2.296875 -18.078125 C 2.285156 -16.898438 2.28125 -15.71875 2.28125 -14.53125 C 2.269531 -12.71875 2.28125 -10.910156 2.3125 -9.109375 C 2.34375 -7.304688 2.382812 -5.5 2.4375 -3.6875 C 2.46875 -2.820312 2.5 -1.953125 2.53125 -1.078125 C 2.570312 -0.203125 2.613281 0.675781 2.65625 1.5625 C 2.6875 2.070312 2.710938 2.613281 2.734375 3.1875 C 2.765625 3.769531 2.773438 4.347656 2.765625 4.921875 C 2.753906 5.492188 2.71875 6.015625 2.65625 6.484375 C 2.632812 6.679688 2.507812 6.800781 2.28125 6.84375 C 2.050781 6.894531 1.769531 6.882812 1.4375 6.8125 C 1.113281 6.738281 0.789062 6.628906 0.46875 6.484375 C 0.144531 6.335938 -0.128906 6.171875 -0.359375 5.984375 C -0.597656 5.804688 -0.738281 5.628906 -0.78125 5.453125 C -0.945312 4.765625 -1.03125 4.101562 -1.03125 3.46875 C -1.03125 2.832031 -1.050781 2.117188 -1.09375 1.328125 C -1.132812 0.441406 -1.171875 -0.4375 -1.203125 -1.3125 C -1.242188 -2.1875 -1.28125 -3.054688 -1.3125 -3.921875 C -1.363281 -5.679688 -1.398438 -7.4375 -1.421875 -9.1875 C -1.453125 -10.9375 -1.46875 -12.691406 -1.46875 -14.453125 C -1.457031 -16.265625 -1.4375 -18.066406 -1.40625 -19.859375 C -1.382812 -21.660156 -1.335938 -23.46875 -1.265625 -25.28125 C -1.234375 -26.164062 -1.195312 -27.039062 -1.15625 -27.90625 C -1.113281 -28.78125 -1.0625 -29.65625 -1 -30.53125 C -0.945312 -31.113281 -0.921875 -31.601562 -0.921875 -32 C -0.921875 -32.394531 -0.898438 -32.738281 -0.859375 -33.03125 C -0.816406 -33.332031 -0.734375 -33.617188 -0.609375 -33.890625 C -0.460938 -34.160156 -0.222656 -34.3125 0.109375 -34.34375 C 0.453125 -34.375 0.816406 -34.328125 1.203125 -34.203125 C 1.585938 -34.085938 1.921875 -33.929688 2.203125 -33.734375 C 2.492188 -33.535156 2.648438 -33.335938 2.671875 -33.140625 C 2.722656 -32.847656 2.75 -32.601562 2.75 -32.40625 C 2.75 -32.207031 2.738281 -31.957031 2.71875 -31.65625 C 2.707031 -31.363281 2.6875 -30.910156 2.65625 -30.296875 C 2.644531 -29.671875 2.625 -29.046875 2.59375 -28.421875 C 2.570312 -27.796875 2.546875 -27.171875 2.515625 -26.546875 C 2.765625 -27.316406 3.039062 -28.054688 3.34375 -28.765625 C 3.65625 -29.484375 4.003906 -30.179688 4.390625 -30.859375 C 4.671875 -31.316406 5.019531 -31.828125 5.4375 -32.390625 C 5.851562 -32.960938 6.269531 -33.421875 6.6875 -33.765625 C 7.113281 -34.117188 7.59375 -34.351562 8.125 -34.46875 C 8.65625 -34.59375 9.179688 -34.628906 9.703125 -34.578125 C 10.609375 -34.484375 11.363281 -34.210938 11.96875 -33.765625 C 12.582031 -33.316406 13.070312 -32.742188 13.4375 -32.046875 C 13.8125 -31.347656 14.066406 -30.582031 14.203125 -29.75 C 14.265625 -29.332031 14.3125 -28.910156 14.34375 -28.484375 C 14.375 -28.066406 14.398438 -27.640625 14.421875 -27.203125 C 15.148438 -27.453125 15.804688 -27.632812 16.390625 -27.75 C 16.984375 -27.875 17.671875 -27.941406 18.453125 -27.953125 Z M 8.125 -16.484375 C 9.351562 -18.722656 10.140625 -21.117188 10.484375 -23.671875 C 9.953125 -23.160156 9.453125 -22.570312 8.984375 -21.90625 C 8.515625 -21.25 8.097656 -20.476562 7.734375 -19.59375 C 7.484375 -18.988281 7.273438 -18.351562 7.109375 -17.6875 C 6.953125 -17.03125 6.921875 -16.375 7.015625 -15.71875 C 7.035156 -15.53125 7.050781 -15.378906 7.0625 -15.265625 C 7.070312 -15.148438 7.101562 -15.035156 7.15625 -14.921875 C 7.1875 -14.984375 7.210938 -15.03125 7.234375 -15.0625 C 7.265625 -15.101562 7.304688 -15.148438 7.359375 -15.203125 C 7.492188 -15.421875 7.625 -15.632812 7.75 -15.84375 C 7.875 -16.050781 8 -16.265625 8.125 -16.484375 Z M 8.125 -16.484375 "/></g></g></g><g fill="#ffffff" fill-opacity="1"><g transform="translate(195.564148, 63.499966)"><g><path d="M 15.640625 -27.5 C 15.660156 -27.5625 15.738281 -27.597656 15.875 -27.609375 C 16.019531 -27.628906 16.164062 -27.625 16.3125 -27.59375 C 16.457031 -27.570312 16.519531 -27.53125 16.5 -27.46875 C 16.3125 -25.832031 16.050781 -24.195312 15.71875 -22.5625 C 15.382812 -20.9375 14.9375 -19.347656 14.375 -17.796875 C 14.164062 -17.210938 13.929688 -16.613281 13.671875 -16 C 13.410156 -15.394531 13.09375 -14.859375 12.71875 -14.390625 C 12.351562 -13.921875 11.894531 -13.585938 11.34375 -13.390625 C 10.800781 -13.191406 10.140625 -13.195312 9.359375 -13.40625 C 8.722656 -13.582031 8.222656 -13.914062 7.859375 -14.40625 C 7.492188 -14.90625 7.222656 -15.492188 7.046875 -16.171875 C 6.867188 -16.847656 6.75 -17.539062 6.6875 -18.25 C 6.550781 -17.832031 6.40625 -17.414062 6.25 -17 C 6.101562 -16.59375 5.941406 -16.191406 5.765625 -15.796875 C 5.523438 -15.265625 5.238281 -14.757812 4.90625 -14.28125 C 4.582031 -13.8125 4.207031 -13.414062 3.78125 -13.09375 C 3.351562 -12.78125 2.875 -12.578125 2.34375 -12.484375 C 1.820312 -12.398438 1.238281 -12.484375 0.59375 -12.734375 C 0.03125 -12.953125 -0.414062 -13.28125 -0.75 -13.71875 C -1.09375 -14.15625 -1.351562 -14.644531 -1.53125 -15.1875 C -1.707031 -15.738281 -1.832031 -16.304688 -1.90625 -16.890625 C -1.976562 -17.484375 -2.023438 -18.039062 -2.046875 -18.5625 C -2.128906 -19.945312 -2.09375 -21.328125 -1.9375 -22.703125 C -1.78125 -24.078125 -1.519531 -25.4375 -1.15625 -26.78125 C -1 -27.351562 -0.816406 -27.96875 -0.609375 -28.625 C -0.410156 -29.28125 -0.175781 -29.929688 0.09375 -30.578125 C 0.375 -31.222656 0.695312 -31.820312 1.0625 -32.375 C 1.425781 -32.9375 1.851562 -33.414062 2.34375 -33.8125 C 2.71875 -34.113281 3.148438 -34.34375 3.640625 -34.5 C 4.140625 -34.664062 4.648438 -34.75 5.171875 -34.75 C 5.691406 -34.75 6.191406 -34.660156 6.671875 -34.484375 C 7.160156 -34.304688 7.570312 -34.03125 7.90625 -33.65625 C 7.9375 -33.625 7.960938 -33.59375 7.984375 -33.5625 C 8.015625 -33.53125 8.039062 -33.492188 8.0625 -33.453125 C 8.445312 -33.554688 8.835938 -33.59375 9.234375 -33.5625 C 9.640625 -33.539062 9.984375 -33.453125 10.265625 -33.296875 C 10.546875 -33.140625 10.671875 -32.921875 10.640625 -32.640625 C 10.515625 -30.828125 10.394531 -29 10.28125 -27.15625 C 10.175781 -25.3125 10.148438 -23.472656 10.203125 -21.640625 C 10.253906 -19.816406 10.453125 -18.007812 10.796875 -16.21875 C 10.816406 -16.082031 10.84375 -15.945312 10.875 -15.8125 C 10.90625 -15.675781 10.941406 -15.539062 10.984375 -15.40625 C 11.117188 -15.582031 11.25 -15.753906 11.375 -15.921875 C 11.5 -16.085938 11.613281 -16.253906 11.71875 -16.421875 C 12.082031 -16.960938 12.410156 -17.507812 12.703125 -18.0625 C 12.992188 -18.625 13.265625 -19.195312 13.515625 -19.78125 C 14.046875 -21.019531 14.484375 -22.28125 14.828125 -23.5625 C 15.179688 -24.84375 15.453125 -26.15625 15.640625 -27.5 Z M 5 -22.46875 C 5.351562 -23.695312 5.640625 -24.941406 5.859375 -26.203125 C 6.078125 -27.460938 6.289062 -28.722656 6.5 -29.984375 C 6.414062 -30.242188 6.300781 -30.5 6.15625 -30.75 C 6.019531 -30.96875 5.894531 -31.1875 5.78125 -31.40625 C 5.664062 -31.625 5.535156 -31.835938 5.390625 -32.046875 C 5.335938 -32.128906 5.28125 -32.207031 5.21875 -32.28125 C 5.164062 -32.363281 5.109375 -32.441406 5.046875 -32.515625 C 4.953125 -32.378906 4.863281 -32.238281 4.78125 -32.09375 C 4.695312 -31.945312 4.613281 -31.800781 4.53125 -31.65625 C 4.40625 -31.4375 4.28125 -31.207031 4.15625 -30.96875 C 4.039062 -30.726562 3.929688 -30.484375 3.828125 -30.234375 C 3.359375 -29.222656 2.96875 -28.1875 2.65625 -27.125 C 2.300781 -25.976562 2.035156 -24.800781 1.859375 -23.59375 C 1.691406 -22.394531 1.609375 -21.195312 1.609375 -20 C 1.609375 -19.46875 1.617188 -18.929688 1.640625 -18.390625 C 1.671875 -17.847656 1.726562 -17.3125 1.8125 -16.78125 C 1.84375 -16.625 1.890625 -16.375 1.953125 -16.03125 C 2.015625 -15.6875 2.109375 -15.359375 2.234375 -15.046875 C 2.460938 -15.367188 2.671875 -15.738281 2.859375 -16.15625 C 3.046875 -16.582031 3.210938 -16.988281 3.359375 -17.375 C 3.515625 -17.757812 3.625 -18.039062 3.6875 -18.21875 C 3.945312 -18.914062 4.179688 -19.617188 4.390625 -20.328125 C 4.597656 -21.035156 4.800781 -21.75 5 -22.46875 Z M 5 -22.46875 "/></g></g></g><g fill="#ffffff" fill-opacity="1"><g transform="translate(211.324332, 63.499966)"><g><path d="M 9.265625 -25.09375 C 8.660156 -24.5 8.054688 -24.109375 7.453125 -23.921875 C 6.847656 -23.742188 6.210938 -23.875 5.546875 -24.3125 C 5.265625 -24.507812 5.0625 -24.765625 4.9375 -25.078125 C 4.8125 -25.390625 4.757812 -25.703125 4.78125 -26.015625 C 4.8125 -26.328125 4.898438 -26.582031 5.046875 -26.78125 C 5.097656 -26.820312 5.210938 -26.847656 5.390625 -26.859375 C 5.578125 -26.867188 5.765625 -26.859375 5.953125 -26.828125 C 6.148438 -26.804688 6.300781 -26.765625 6.40625 -26.703125 C 6.519531 -26.640625 6.535156 -26.535156 6.453125 -26.390625 C 6.347656 -26.234375 6.296875 -26.054688 6.296875 -25.859375 C 6.304688 -25.660156 6.375 -25.492188 6.5 -25.359375 C 6.625 -25.222656 6.800781 -25.15625 7.03125 -25.15625 C 7.269531 -25.164062 7.484375 -25.320312 7.671875 -25.625 C 7.859375 -25.925781 8.019531 -26.316406 8.15625 -26.796875 C 8.300781 -27.273438 8.414062 -27.785156 8.5 -28.328125 C 8.59375 -28.878906 8.640625 -29.40625 8.640625 -29.90625 C 8.640625 -30.414062 8.59375 -30.84375 8.5 -31.1875 C 8.414062 -31.53125 8.285156 -31.734375 8.109375 -31.796875 C 7.691406 -31.953125 7.257812 -31.882812 6.8125 -31.59375 C 6.363281 -31.300781 5.925781 -30.828125 5.5 -30.171875 C 5.070312 -29.523438 4.671875 -28.726562 4.296875 -27.78125 C 3.929688 -26.84375 3.613281 -25.796875 3.34375 -24.640625 C 3.070312 -23.484375 2.867188 -22.269531 2.734375 -21 C 2.503906 -19.695312 2.390625 -18.320312 2.390625 -16.875 C 2.398438 -15.425781 2.398438 -14.023438 2.390625 -12.671875 C 2.390625 -12.617188 2.390625 -12.5625 2.390625 -12.5 C 2.398438 -12.4375 2.40625 -12.378906 2.40625 -12.328125 L 2.390625 -12.328125 C 2.390625 -12.234375 2.382812 -12.140625 2.375 -12.046875 C 2.363281 -11.960938 2.359375 -11.875 2.359375 -11.78125 C 2.347656 -11.519531 2.222656 -11.320312 1.984375 -11.1875 C 1.753906 -11.0625 1.460938 -10.992188 1.109375 -10.984375 C 0.765625 -10.984375 0.414062 -11.035156 0.0625 -11.140625 C -0.289062 -11.242188 -0.585938 -11.390625 -0.828125 -11.578125 C -1.066406 -11.765625 -1.195312 -11.988281 -1.21875 -12.25 C -1.300781 -14.1875 -1.378906 -16.117188 -1.453125 -18.046875 C -1.535156 -19.972656 -1.585938 -21.898438 -1.609375 -23.828125 C -1.609375 -24.796875 -1.59375 -25.765625 -1.5625 -26.734375 C -1.539062 -27.703125 -1.503906 -28.660156 -1.453125 -29.609375 C -1.410156 -30.191406 -1.351562 -30.804688 -1.28125 -31.453125 C -1.21875 -32.097656 -1.117188 -32.707031 -0.984375 -33.28125 C -0.859375 -33.851562 -0.691406 -34.316406 -0.484375 -34.671875 C -0.378906 -34.847656 -0.195312 -34.992188 0.0625 -35.109375 C 0.320312 -35.222656 0.601562 -35.296875 0.90625 -35.328125 C 1.21875 -35.359375 1.507812 -35.34375 1.78125 -35.28125 C 2.0625 -35.226562 2.285156 -35.125 2.453125 -34.96875 C 2.617188 -34.820312 2.675781 -34.625 2.625 -34.375 C 2.425781 -33.375 2.3125 -32.460938 2.28125 -31.640625 C 2.25 -30.816406 2.207031 -29.957031 2.15625 -29.0625 C 2.132812 -28.550781 2.113281 -28.035156 2.09375 -27.515625 C 2.082031 -26.992188 2.066406 -26.472656 2.046875 -25.953125 C 2.117188 -26.148438 2.1875 -26.34375 2.25 -26.53125 C 2.320312 -26.71875 2.398438 -26.910156 2.484375 -27.109375 C 2.816406 -27.972656 3.175781 -28.847656 3.5625 -29.734375 C 3.957031 -30.617188 4.398438 -31.429688 4.890625 -32.171875 C 5.390625 -32.910156 5.945312 -33.5 6.5625 -33.9375 C 7.1875 -34.375 7.894531 -34.570312 8.6875 -34.53125 C 9.226562 -34.507812 9.664062 -34.3125 10 -33.9375 C 10.34375 -33.5625 10.59375 -33.082031 10.75 -32.5 C 10.914062 -31.914062 11 -31.273438 11 -30.578125 C 11.007812 -29.878906 10.945312 -29.175781 10.8125 -28.46875 C 10.675781 -27.769531 10.476562 -27.125 10.21875 -26.53125 C 9.957031 -25.9375 9.640625 -25.457031 9.265625 -25.09375 Z M 9.265625 -25.09375 "/></g></g></g><g fill="#ffffff" fill-opacity="1"><g transform="translate(224.252744, 63.499966)"><g><path d="M 15.640625 -27.5 C 15.660156 -27.5625 15.738281 -27.597656 15.875 -27.609375 C 16.019531 -27.628906 16.164062 -27.625 16.3125 -27.59375 C 16.457031 -27.570312 16.519531 -27.53125 16.5 -27.46875 C 16.3125 -25.832031 16.050781 -24.195312 15.71875 -22.5625 C 15.382812 -20.9375 14.9375 -19.347656 14.375 -17.796875 C 14.164062 -17.210938 13.929688 -16.613281 13.671875 -16 C 13.410156 -15.394531 13.09375 -14.859375 12.71875 -14.390625 C 12.351562 -13.921875 11.894531 -13.585938 11.34375 -13.390625 C 10.800781 -13.191406 10.140625 -13.195312 9.359375 -13.40625 C 8.722656 -13.582031 8.222656 -13.914062 7.859375 -14.40625 C 7.492188 -14.90625 7.222656 -15.492188 7.046875 -16.171875 C 6.867188 -16.847656 6.75 -17.539062 6.6875 -18.25 C 6.550781 -17.832031 6.40625 -17.414062 6.25 -17 C 6.101562 -16.59375 5.941406 -16.191406 5.765625 -15.796875 C 5.523438 -15.265625 5.238281 -14.757812 4.90625 -14.28125 C 4.582031 -13.8125 4.207031 -13.414062 3.78125 -13.09375 C 3.351562 -12.78125 2.875 -12.578125 2.34375 -12.484375 C 1.820312 -12.398438 1.238281 -12.484375 0.59375 -12.734375 C 0.03125 -12.953125 -0.414062 -13.28125 -0.75 -13.71875 C -1.09375 -14.15625 -1.351562 -14.644531 -1.53125 -15.1875 C -1.707031 -15.738281 -1.832031 -16.304688 -1.90625 -16.890625 C -1.976562 -17.484375 -2.023438 -18.039062 -2.046875 -18.5625 C -2.128906 -19.945312 -2.09375 -21.328125 -1.9375 -22.703125 C -1.78125 -24.078125 -1.519531 -25.4375 -1.15625 -26.78125 C -1 -27.351562 -0.816406 -27.96875 -0.609375 -28.625 C -0.410156 -29.28125 -0.175781 -29.929688 0.09375 -30.578125 C 0.375 -31.222656 0.695312 -31.820312 1.0625 -32.375 C 1.425781 -32.9375 1.851562 -33.414062 2.34375 -33.8125 C 2.71875 -34.113281 3.148438 -34.34375 3.640625 -34.5 C 4.140625 -34.664062 4.648438 -34.75 5.171875 -34.75 C 5.691406 -34.75 6.191406 -34.660156 6.671875 -34.484375 C 7.160156 -34.304688 7.570312 -34.03125 7.90625 -33.65625 C 7.9375 -33.625 7.960938 -33.59375 7.984375 -33.5625 C 8.015625 -33.53125 8.039062 -33.492188 8.0625 -33.453125 C 8.445312 -33.554688 8.835938 -33.59375 9.234375 -33.5625 C 9.640625 -33.539062 9.984375 -33.453125 10.265625 -33.296875 C 10.546875 -33.140625 10.671875 -32.921875 10.640625 -32.640625 C 10.515625 -30.828125 10.394531 -29 10.28125 -27.15625 C 10.175781 -25.3125 10.148438 -23.472656 10.203125 -21.640625 C 10.253906 -19.816406 10.453125 -18.007812 10.796875 -16.21875 C 10.816406 -16.082031 10.84375 -15.945312 10.875 -15.8125 C 10.90625 -15.675781 10.941406 -15.539062 10.984375 -15.40625 C 11.117188 -15.582031 11.25 -15.753906 11.375 -15.921875 C 11.5 -16.085938 11.613281 -16.253906 11.71875 -16.421875 C 12.082031 -16.960938 12.410156 -17.507812 12.703125 -18.0625 C 12.992188 -18.625 13.265625 -19.195312 13.515625 -19.78125 C 14.046875 -21.019531 14.484375 -22.28125 14.828125 -23.5625 C 15.179688 -24.84375 15.453125 -26.15625 15.640625 -27.5 Z M 5 -22.46875 C 5.351562 -23.695312 5.640625 -24.941406 5.859375 -26.203125 C 6.078125 -27.460938 6.289062 -28.722656 6.5 -29.984375 C 6.414062 -30.242188 6.300781 -30.5 6.15625 -30.75 C 6.019531 -30.96875 5.894531 -31.1875 5.78125 -31.40625 C 5.664062 -31.625 5.535156 -31.835938 5.390625 -32.046875 C 5.335938 -32.128906 5.28125 -32.207031 5.21875 -32.28125 C 5.164062 -32.363281 5.109375 -32.441406 5.046875 -32.515625 C 4.953125 -32.378906 4.863281 -32.238281 4.78125 -32.09375 C 4.695312 -31.945312 4.613281 -31.800781 4.53125 -31.65625 C 4.40625 -31.4375 4.28125 -31.207031 4.15625 -30.96875 C 4.039062 -30.726562 3.929688 -30.484375 3.828125 -30.234375 C 3.359375 -29.222656 2.96875 -28.1875 2.65625 -27.125 C 2.300781 -25.976562 2.035156 -24.800781 1.859375 -23.59375 C 1.691406 -22.394531 1.609375 -21.195312 1.609375 -20 C 1.609375 -19.46875 1.617188 -18.929688 1.640625 -18.390625 C 1.671875 -17.847656 1.726562 -17.3125 1.8125 -16.78125 C 1.84375 -16.625 1.890625 -16.375 1.953125 -16.03125 C 2.015625 -15.6875 2.109375 -15.359375 2.234375 -15.046875 C 2.460938 -15.367188 2.671875 -15.738281 2.859375 -16.15625 C 3.046875 -16.582031 3.210938 -16.988281 3.359375 -17.375 C 3.515625 -17.757812 3.625 -18.039062 3.6875 -18.21875 C 3.945312 -18.914062 4.179688 -19.617188 4.390625 -20.328125 C 4.597656 -21.035156 4.800781 -21.75 5 -22.46875 Z M 5 -22.46875 "/></g></g></g><g fill="#ffffff" fill-opacity="1"><g transform="translate(240.012928, 63.499966)"><g><path d="M 17.3125 -25.234375 C 17.320312 -25.285156 17.375 -25.3125 17.46875 -25.3125 C 17.570312 -25.3125 17.613281 -25.285156 17.59375 -25.234375 C 17.351562 -23.441406 17.019531 -21.660156 16.59375 -19.890625 C 16.164062 -18.128906 15.679688 -16.382812 15.140625 -14.65625 C 14.941406 -14.03125 14.613281 -13.5625 14.15625 -13.25 C 13.707031 -12.945312 13.203125 -12.785156 12.640625 -12.765625 C 12.078125 -12.753906 11.53125 -12.875 11 -13.125 C 10.46875 -13.382812 10.023438 -13.753906 9.671875 -14.234375 C 9.148438 -14.960938 8.773438 -15.804688 8.546875 -16.765625 C 8.328125 -17.722656 8.179688 -18.695312 8.109375 -19.6875 C 7.972656 -19.226562 7.835938 -18.769531 7.703125 -18.3125 C 7.566406 -17.863281 7.425781 -17.410156 7.28125 -16.953125 C 7.113281 -16.441406 6.9375 -15.9375 6.75 -15.4375 C 6.5625 -14.945312 6.320312 -14.503906 6.03125 -14.109375 C 5.75 -13.710938 5.390625 -13.398438 4.953125 -13.171875 C 4.523438 -12.941406 3.992188 -12.835938 3.359375 -12.859375 C 2.628906 -12.878906 2.015625 -13.078125 1.515625 -13.453125 C 1.015625 -13.835938 0.601562 -14.320312 0.28125 -14.90625 C -0.0390625 -15.488281 -0.285156 -16.097656 -0.453125 -16.734375 C -0.765625 -17.921875 -0.929688 -19.164062 -0.953125 -20.46875 C -0.984375 -21.78125 -0.894531 -23.101562 -0.6875 -24.4375 C -0.488281 -25.78125 -0.191406 -27.078125 0.203125 -28.328125 C 0.597656 -29.585938 1.070312 -30.75 1.625 -31.8125 C 1.9375 -32.414062 2.289062 -32.96875 2.6875 -33.46875 C 3.09375 -33.976562 3.566406 -34.390625 4.109375 -34.703125 C 4.660156 -35.015625 5.3125 -35.164062 6.0625 -35.15625 C 6.300781 -35.15625 6.585938 -35.125 6.921875 -35.0625 C 7.253906 -35 7.566406 -34.894531 7.859375 -34.75 C 8.046875 -37.625 8.394531 -40.472656 8.90625 -43.296875 C 9.164062 -44.785156 9.453125 -46.316406 9.765625 -47.890625 C 10.078125 -49.460938 10.515625 -50.953125 11.078125 -52.359375 C 11.328125 -52.960938 11.660156 -53.476562 12.078125 -53.90625 C 12.503906 -54.332031 12.96875 -54.644531 13.46875 -54.84375 C 13.976562 -55.039062 14.484375 -55.085938 14.984375 -54.984375 C 15.492188 -54.890625 15.941406 -54.609375 16.328125 -54.140625 C 16.597656 -53.816406 16.804688 -53.367188 16.953125 -52.796875 C 17.097656 -52.222656 17.1875 -51.585938 17.21875 -50.890625 C 17.257812 -50.203125 17.269531 -49.507812 17.25 -48.8125 C 17.238281 -48.125 17.203125 -47.492188 17.140625 -46.921875 C 17.078125 -46.347656 17.015625 -45.894531 16.953125 -45.5625 C 16.648438 -43.96875 16.25 -42.332031 15.75 -40.65625 C 15.25 -38.976562 14.640625 -37.34375 13.921875 -35.75 C 13.210938 -34.15625 12.378906 -32.660156 11.421875 -31.265625 C 11.347656 -28.941406 11.359375 -26.582031 11.453125 -24.1875 C 11.554688 -21.789062 11.84375 -19.453125 12.3125 -17.171875 C 12.375 -16.828125 12.457031 -16.484375 12.5625 -16.140625 C 12.664062 -15.804688 12.804688 -15.492188 12.984375 -15.203125 C 13.023438 -15.148438 13.066406 -15.097656 13.109375 -15.046875 C 13.148438 -15.003906 13.195312 -14.957031 13.25 -14.90625 C 13.375 -15.019531 13.492188 -15.148438 13.609375 -15.296875 C 13.734375 -15.441406 13.835938 -15.582031 13.921875 -15.71875 C 14.117188 -16.007812 14.285156 -16.3125 14.421875 -16.625 C 14.554688 -16.945312 14.691406 -17.257812 14.828125 -17.5625 C 15.390625 -18.800781 15.875 -20.050781 16.28125 -21.3125 C 16.6875 -22.582031 17.03125 -23.890625 17.3125 -25.234375 Z M 13.421875 -47.390625 C 12.898438 -45.109375 12.484375 -42.8125 12.171875 -40.5 C 11.859375 -38.1875 11.632812 -35.863281 11.5 -33.53125 C 11.757812 -34 12.007812 -34.472656 12.25 -34.953125 C 12.5 -35.429688 12.726562 -35.914062 12.9375 -36.40625 C 13.488281 -37.707031 13.976562 -39.035156 14.40625 -40.390625 C 14.832031 -41.742188 15.1875 -43.113281 15.46875 -44.5 C 15.738281 -45.851562 15.898438 -47.160156 15.953125 -48.421875 C 16.003906 -49.679688 15.84375 -50.976562 15.46875 -52.3125 C 15.46875 -52.3125 15.4375 -52.363281 15.375 -52.46875 C 15.320312 -52.570312 15.253906 -52.648438 15.171875 -52.703125 C 15.085938 -52.753906 14.992188 -52.691406 14.890625 -52.515625 C 14.753906 -52.304688 14.644531 -52.078125 14.5625 -51.828125 C 14.488281 -51.585938 14.421875 -51.34375 14.359375 -51.09375 C 14.003906 -49.84375 13.691406 -48.609375 13.421875 -47.390625 Z M 7.671875 -27.5625 C 7.660156 -28.25 7.65625 -28.9375 7.65625 -29.625 C 7.664062 -30.320312 7.679688 -31.007812 7.703125 -31.6875 C 7.609375 -32.175781 7.394531 -32.550781 7.0625 -32.8125 C 6.726562 -33.082031 6.425781 -33.179688 6.15625 -33.109375 C 5.945312 -33.046875 5.734375 -32.910156 5.515625 -32.703125 C 5.304688 -32.503906 5.109375 -32.285156 4.921875 -32.046875 C 4.742188 -31.816406 4.609375 -31.609375 4.515625 -31.421875 C 4.109375 -30.640625 3.78125 -29.828125 3.53125 -28.984375 C 3.289062 -28.148438 3.078125 -27.3125 2.890625 -26.46875 C 2.671875 -25.414062 2.488281 -24.289062 2.34375 -23.09375 C 2.195312 -21.894531 2.132812 -20.710938 2.15625 -19.546875 C 2.1875 -18.390625 2.320312 -17.332031 2.5625 -16.375 C 2.613281 -16.175781 2.675781 -15.972656 2.75 -15.765625 C 2.832031 -15.554688 2.929688 -15.367188 3.046875 -15.203125 C 3.234375 -14.921875 3.410156 -14.773438 3.578125 -14.765625 C 3.742188 -14.765625 3.929688 -14.867188 4.140625 -15.078125 C 4.484375 -15.421875 4.722656 -15.769531 4.859375 -16.125 C 4.992188 -16.476562 5.132812 -16.835938 5.28125 -17.203125 C 5.625 -18.140625 5.9375 -19.085938 6.21875 -20.046875 C 6.507812 -21.003906 6.757812 -21.976562 6.96875 -22.96875 C 7.28125 -24.488281 7.515625 -26.019531 7.671875 -27.5625 Z M 7.671875 -27.5625 "/></g></g></g><g fill="#ffffff" fill-opacity="1"><g transform="translate(257.276865, 63.499966)"><g><path d="M 14.109375 -26.5625 C 14.171875 -26.695312 14.269531 -26.773438 14.40625 -26.796875 C 14.550781 -26.828125 14.671875 -26.800781 14.765625 -26.71875 C 14.867188 -26.644531 14.890625 -26.519531 14.828125 -26.34375 C 14.660156 -25.09375 14.171875 -24.0625 13.359375 -23.25 C 12.554688 -22.4375 11.457031 -21.757812 10.0625 -21.21875 C 9.90625 -20.132812 9.679688 -19.0625 9.390625 -18 C 9.109375 -16.945312 8.757812 -15.984375 8.34375 -15.109375 C 7.925781 -14.234375 7.4375 -13.523438 6.875 -12.984375 C 6.3125 -12.441406 5.675781 -12.148438 4.96875 -12.109375 C 4.15625 -12.054688 3.445312 -12.1875 2.84375 -12.5 C 2.238281 -12.820312 1.71875 -13.269531 1.28125 -13.84375 C 0.851562 -14.414062 0.492188 -15.070312 0.203125 -15.8125 C -0.078125 -16.5625 -0.296875 -17.332031 -0.453125 -18.125 C -0.617188 -18.914062 -0.742188 -19.6875 -0.828125 -20.4375 C -0.910156 -21.1875 -0.960938 -21.867188 -0.984375 -22.484375 C -1.003906 -23.097656 -1.007812 -23.578125 -1 -23.921875 C -1 -24.078125 -0.984375 -24.222656 -0.953125 -24.359375 C -0.929688 -24.503906 -0.898438 -24.628906 -0.859375 -24.734375 C -1.097656 -25.628906 -1.160156 -26.5625 -1.046875 -27.53125 C -0.929688 -28.507812 -0.671875 -29.460938 -0.265625 -30.390625 C 0.128906 -31.316406 0.648438 -32.144531 1.296875 -32.875 C 1.921875 -33.570312 2.585938 -34.035156 3.296875 -34.265625 C 4.015625 -34.503906 4.71875 -34.539062 5.40625 -34.375 C 6.101562 -34.21875 6.71875 -33.90625 7.25 -33.4375 C 8.519531 -32.320312 9.394531 -30.921875 9.875 -29.234375 C 10.363281 -27.546875 10.5 -25.5 10.28125 -23.09375 C 10.28125 -23.007812 10.273438 -22.925781 10.265625 -22.84375 C 10.253906 -22.757812 10.242188 -22.671875 10.234375 -22.578125 C 10.910156 -22.796875 11.546875 -23.082031 12.140625 -23.4375 C 12.734375 -23.789062 13.210938 -24.226562 13.578125 -24.75 C 13.941406 -25.269531 14.117188 -25.875 14.109375 -26.5625 Z M 2.03125 -29.890625 C 1.957031 -29.609375 1.863281 -29.21875 1.75 -28.71875 C 1.632812 -28.226562 1.550781 -27.691406 1.5 -27.109375 C 1.445312 -26.523438 1.457031 -25.953125 1.53125 -25.390625 C 1.738281 -25.265625 1.898438 -25.113281 2.015625 -24.9375 C 2.140625 -24.757812 2.210938 -24.5625 2.234375 -24.34375 C 2.234375 -24.257812 2.234375 -24.148438 2.234375 -24.015625 C 2.234375 -23.890625 2.234375 -23.738281 2.234375 -23.5625 C 2.253906 -23.539062 2.269531 -23.519531 2.28125 -23.5 C 2.300781 -23.488281 2.316406 -23.46875 2.328125 -23.4375 C 2.753906 -22.96875 3.410156 -22.609375 4.296875 -22.359375 C 5.179688 -22.117188 6.160156 -22.015625 7.234375 -22.046875 C 7.304688 -22.773438 7.34375 -23.390625 7.34375 -23.890625 C 7.375 -24.710938 7.378906 -25.578125 7.359375 -26.484375 C 7.347656 -27.398438 7.273438 -28.300781 7.140625 -29.1875 C 7.003906 -30.070312 6.75 -30.882812 6.375 -31.625 C 5.988281 -32.394531 5.59375 -32.878906 5.1875 -33.078125 C 4.78125 -33.273438 4.378906 -33.253906 3.984375 -33.015625 C 3.597656 -32.785156 3.234375 -32.390625 2.890625 -31.828125 C 2.554688 -31.273438 2.269531 -30.628906 2.03125 -29.890625 Z M 4.828125 -14.3125 C 5.128906 -14.34375 5.394531 -14.535156 5.625 -14.890625 C 5.863281 -15.253906 6.070312 -15.726562 6.25 -16.3125 C 6.4375 -16.90625 6.59375 -17.554688 6.71875 -18.265625 C 6.851562 -18.984375 6.960938 -19.691406 7.046875 -20.390625 C 6.203125 -20.265625 5.378906 -20.234375 4.578125 -20.296875 C 3.773438 -20.359375 3.050781 -20.535156 2.40625 -20.828125 C 2.46875 -20.078125 2.554688 -19.316406 2.671875 -18.546875 C 2.796875 -17.785156 2.953125 -17.078125 3.140625 -16.421875 C 3.328125 -15.773438 3.554688 -15.253906 3.828125 -14.859375 C 4.097656 -14.472656 4.429688 -14.289062 4.828125 -14.3125 Z M 4.828125 -14.3125 "/></g></g></g><g fill="#ffffff" fill-opacity="1"><g transform="translate(271.201303, 63.499966)"><g><path d="M 10.390625 -23.75 C 10.328125 -23.632812 10.164062 -23.550781 9.90625 -23.5 C 9.65625 -23.445312 9.378906 -23.429688 9.078125 -23.453125 C 8.785156 -23.472656 8.539062 -23.53125 8.34375 -23.625 C 8.144531 -23.71875 8.070312 -23.851562 8.125 -24.03125 C 8.28125 -24.582031 8.429688 -25.207031 8.578125 -25.90625 C 8.722656 -26.601562 8.8125 -27.316406 8.84375 -28.046875 C 8.882812 -28.785156 8.84375 -29.5 8.71875 -30.1875 C 8.59375 -30.882812 8.347656 -31.519531 7.984375 -32.09375 C 7.617188 -32.664062 7.09375 -33.128906 6.40625 -33.484375 C 6 -33.691406 5.675781 -33.773438 5.4375 -33.734375 C 5.195312 -33.703125 4.910156 -33.550781 4.578125 -33.28125 C 4.128906 -32.914062 3.742188 -32.460938 3.421875 -31.921875 C 3.097656 -31.378906 2.835938 -30.835938 2.640625 -30.296875 C 2.191406 -29.015625 2.101562 -27.726562 2.375 -26.4375 C 2.65625 -25.144531 3.234375 -23.988281 4.109375 -22.96875 C 4.503906 -22.5 4.945312 -22.082031 5.4375 -21.71875 C 5.925781 -21.363281 6.425781 -21.023438 6.9375 -20.703125 C 7.457031 -20.390625 7.960938 -20.0625 8.453125 -19.71875 C 8.941406 -19.382812 9.394531 -19 9.8125 -18.5625 C 10.34375 -18 10.695312 -17.390625 10.875 -16.734375 C 11.0625 -16.078125 11.046875 -15.4375 10.828125 -14.8125 C 10.617188 -14.195312 10.1875 -13.660156 9.53125 -13.203125 C 8.9375 -12.785156 8.273438 -12.484375 7.546875 -12.296875 C 6.816406 -12.109375 6.09375 -11.992188 5.375 -11.953125 C 4.21875 -11.898438 3.164062 -12.050781 2.21875 -12.40625 C 1.269531 -12.769531 0.5 -13.34375 -0.09375 -14.125 C -0.6875 -14.90625 -1.046875 -15.894531 -1.171875 -17.09375 C -1.203125 -17.351562 -1.097656 -17.5625 -0.859375 -17.71875 C -0.628906 -17.882812 -0.332031 -18 0.03125 -18.0625 C 0.40625 -18.132812 0.773438 -18.148438 1.140625 -18.109375 C 1.515625 -18.066406 1.832031 -17.96875 2.09375 -17.8125 C 2.363281 -17.65625 2.515625 -17.441406 2.546875 -17.171875 C 2.597656 -16.710938 2.703125 -16.234375 2.859375 -15.734375 C 3.015625 -15.242188 3.25 -14.820312 3.5625 -14.46875 C 3.882812 -14.125 4.316406 -13.925781 4.859375 -13.875 C 5.203125 -13.84375 5.546875 -13.890625 5.890625 -14.015625 C 6.242188 -14.140625 6.546875 -14.320312 6.796875 -14.5625 C 7.054688 -14.8125 7.222656 -15.125 7.296875 -15.5 C 7.367188 -15.875 7.300781 -16.296875 7.09375 -16.765625 C 6.925781 -17.160156 6.679688 -17.5 6.359375 -17.78125 C 6.035156 -18.070312 5.6875 -18.332031 5.3125 -18.5625 C 4.9375 -18.789062 4.570312 -19.015625 4.21875 -19.234375 C 3.726562 -19.546875 3.242188 -19.878906 2.765625 -20.234375 C 2.285156 -20.597656 1.835938 -20.984375 1.421875 -21.390625 C 0.609375 -22.191406 -0.0664062 -23.097656 -0.609375 -24.109375 C -1.148438 -25.128906 -1.445312 -26.226562 -1.5 -27.40625 C -1.539062 -28.34375 -1.425781 -29.265625 -1.15625 -30.171875 C -0.882812 -31.078125 -0.484375 -31.910156 0.046875 -32.671875 C 0.585938 -33.441406 1.222656 -34.085938 1.953125 -34.609375 C 2.691406 -35.128906 3.507812 -35.476562 4.40625 -35.65625 C 5.3125 -35.832031 6.257812 -35.789062 7.25 -35.53125 C 8.34375 -35.238281 9.226562 -34.773438 9.90625 -34.140625 C 10.59375 -33.515625 11.097656 -32.78125 11.421875 -31.9375 C 11.753906 -31.09375 11.921875 -30.191406 11.921875 -29.234375 C 11.929688 -28.285156 11.800781 -27.335938 11.53125 -26.390625 C 11.269531 -25.453125 10.890625 -24.570312 10.390625 -23.75 Z M 10.390625 -23.75 "/></g></g></g></svg>