<svg xmlns="http://www.w3.org/2000/svg" xmlns:xlink="http://www.w3.org/1999/xlink" width="1000" zoomAndPan="magnify" viewBox="0 0 750 74.999997" height="100" preserveAspectRatio="xMidYMid meet" version="1.0"><defs><g/></defs><g fill="#ffffff" fill-opacity="1"><g transform="translate(13.53517, 63.499966)"><g><path d="M 1.234375 -5.3125 C 0.734375 -5.71875 0.414062 -6.203125 0.28125 -6.765625 C 0.144531 -7.335938 0.15625 -7.914062 0.3125 -8.5 C 0.46875 -9.082031 0.722656 -9.601562 1.078125 -10.0625 C 1.515625 -10.632812 2.039062 -11.101562 2.65625 -11.46875 C 3.28125 -11.832031 3.945312 -12.113281 4.65625 -12.3125 C 5.363281 -12.519531 6.066406 -12.640625 6.765625 -12.671875 C 7.078125 -12.703125 7.390625 -12.707031 7.703125 -12.6875 C 8.015625 -12.675781 8.316406 -12.660156 8.609375 -12.640625 C 8.609375 -12.640625 8.625 -12.664062 8.65625 -12.71875 C 9.875 -15.4375 10.828125 -18.238281 11.515625 -21.125 C 12.203125 -24.019531 12.707031 -26.953125 13.03125 -29.921875 C 13.351562 -32.890625 13.585938 -35.847656 13.734375 -38.796875 C 13.835938 -40.960938 13.941406 -43.144531 14.046875 -45.34375 C 14.148438 -47.539062 14.144531 -49.722656 14.03125 -51.890625 C 13.976562 -52.972656 13.878906 -54.101562 13.734375 -55.28125 C 13.597656 -56.457031 13.304688 -57.550781 12.859375 -58.5625 C 12.816406 -58.644531 12.753906 -58.769531 12.671875 -58.9375 C 12.585938 -59.113281 12.492188 -59.28125 12.390625 -59.4375 C 12.296875 -59.601562 12.191406 -59.707031 12.078125 -59.75 C 11.503906 -59.976562 10.945312 -59.972656 10.40625 -59.734375 C 9.863281 -59.492188 9.347656 -59.078125 8.859375 -58.484375 C 8.367188 -57.890625 7.910156 -57.175781 7.484375 -56.34375 C 7.066406 -55.507812 6.679688 -54.609375 6.328125 -53.640625 C 5.972656 -52.679688 5.671875 -51.710938 5.421875 -50.734375 C 5.171875 -49.753906 4.96875 -48.816406 4.8125 -47.921875 C 4.65625 -47.023438 4.5625 -46.234375 4.53125 -45.546875 C 4.53125 -45.390625 4.523438 -45.164062 4.515625 -44.875 C 4.515625 -44.582031 4.53125 -44.257812 4.5625 -43.90625 C 4.59375 -43.550781 4.65625 -43.210938 4.75 -42.890625 C 4.851562 -42.566406 4.992188 -42.289062 5.171875 -42.0625 C 5.359375 -41.84375 5.609375 -41.722656 5.921875 -41.703125 C 6.285156 -41.671875 6.648438 -41.84375 7.015625 -42.21875 C 7.390625 -42.601562 7.753906 -43.101562 8.109375 -43.71875 C 8.472656 -44.34375 8.800781 -45 9.09375 -45.6875 C 9.394531 -46.382812 9.660156 -47.050781 9.890625 -47.6875 C 10.117188 -48.320312 10.285156 -48.832031 10.390625 -49.21875 C 10.429688 -49.363281 10.550781 -49.46875 10.75 -49.53125 C 10.957031 -49.59375 11.175781 -49.613281 11.40625 -49.59375 C 11.644531 -49.582031 11.84375 -49.523438 12 -49.421875 C 12.15625 -49.328125 12.207031 -49.1875 12.15625 -49 C 11.8125 -47.625 11.300781 -46.257812 10.625 -44.90625 C 9.957031 -43.550781 9.117188 -42.375 8.109375 -41.375 C 7.734375 -41.007812 7.273438 -40.75 6.734375 -40.59375 C 6.191406 -40.4375 5.664062 -40.4375 5.15625 -40.59375 C 4.644531 -40.75 4.226562 -41.113281 3.90625 -41.6875 C 3.488281 -42.4375 3.222656 -43.328125 3.109375 -44.359375 C 2.992188 -45.398438 2.992188 -46.515625 3.109375 -47.703125 C 3.234375 -48.898438 3.457031 -50.101562 3.78125 -51.3125 C 4.113281 -52.53125 4.515625 -53.710938 4.984375 -54.859375 C 5.460938 -56.003906 5.988281 -57.050781 6.5625 -58 C 7.144531 -58.945312 7.753906 -59.738281 8.390625 -60.375 C 9.023438 -61.007812 9.660156 -61.425781 10.296875 -61.625 C 10.984375 -61.832031 11.691406 -61.910156 12.421875 -61.859375 C 13.148438 -61.816406 13.832031 -61.632812 14.46875 -61.3125 C 15.113281 -61 15.632812 -60.53125 16.03125 -59.90625 C 16.476562 -59.238281 16.8125 -58.484375 17.03125 -57.640625 C 17.25 -56.796875 17.40625 -55.929688 17.5 -55.046875 C 17.601562 -54.160156 17.679688 -53.328125 17.734375 -52.546875 C 17.835938 -51.117188 17.867188 -49.6875 17.828125 -48.25 C 17.796875 -46.8125 17.742188 -45.378906 17.671875 -43.953125 C 17.585938 -41.253906 17.457031 -38.53125 17.28125 -35.78125 C 17.113281 -33.03125 16.847656 -30.289062 16.484375 -27.5625 C 16.117188 -24.84375 15.582031 -22.160156 14.875 -19.515625 C 14.175781 -16.867188 13.242188 -14.3125 12.078125 -11.84375 C 13.222656 -11.445312 14.347656 -10.96875 15.453125 -10.40625 C 16.554688 -9.851562 17.660156 -9.304688 18.765625 -8.765625 C 19.878906 -8.222656 21 -7.765625 22.125 -7.390625 C 23.144531 -7.054688 24.191406 -6.863281 25.265625 -6.8125 C 26.347656 -6.757812 27.382812 -6.878906 28.375 -7.171875 C 29.363281 -7.472656 30.234375 -7.96875 30.984375 -8.65625 C 31.734375 -9.351562 32.285156 -10.289062 32.640625 -11.46875 C 32.703125 -11.695312 32.878906 -11.875 33.171875 -12 C 33.460938 -12.132812 33.796875 -12.210938 34.171875 -12.234375 C 34.554688 -12.265625 34.921875 -12.238281 35.265625 -12.15625 C 35.609375 -12.070312 35.878906 -11.9375 36.078125 -11.75 C 36.285156 -11.5625 36.34375 -11.316406 36.25 -11.015625 C 35.976562 -10.117188 35.566406 -9.328125 35.015625 -8.640625 C 34.472656 -7.960938 33.828125 -7.367188 33.078125 -6.859375 C 32.335938 -6.359375 31.546875 -5.953125 30.703125 -5.640625 C 29.859375 -5.328125 29.003906 -5.09375 28.140625 -4.9375 C 26.710938 -4.707031 25.300781 -4.6875 23.90625 -4.875 C 22.507812 -5.0625 21.140625 -5.390625 19.796875 -5.859375 C 18.460938 -6.335938 17.15625 -6.878906 15.875 -7.484375 C 15.269531 -7.765625 14.539062 -8.140625 13.6875 -8.609375 C 12.84375 -9.078125 11.957031 -9.507812 11.03125 -9.90625 C 10.582031 -9.113281 10.0625 -8.363281 9.46875 -7.65625 C 8.882812 -6.957031 8.222656 -6.335938 7.484375 -5.796875 C 7.066406 -5.503906 6.585938 -5.242188 6.046875 -5.015625 C 5.515625 -4.796875 4.960938 -4.644531 4.390625 -4.5625 C 3.816406 -4.476562 3.257812 -4.488281 2.71875 -4.59375 C 2.1875 -4.707031 1.691406 -4.945312 1.234375 -5.3125 Z M 3.875 -7.703125 C 3.875 -7.609375 3.890625 -7.472656 3.921875 -7.296875 C 3.953125 -7.117188 4.019531 -6.984375 4.125 -6.890625 C 4.238281 -6.804688 4.40625 -6.847656 4.625 -7.015625 C 4.820312 -7.160156 5.007812 -7.316406 5.1875 -7.484375 C 5.363281 -7.648438 5.535156 -7.816406 5.703125 -7.984375 C 6.109375 -8.398438 6.46875 -8.84375 6.78125 -9.3125 C 7.101562 -9.78125 7.398438 -10.265625 7.671875 -10.765625 C 7.035156 -10.785156 6.441406 -10.6875 5.890625 -10.46875 C 5.335938 -10.25 4.851562 -9.847656 4.4375 -9.265625 C 4.300781 -9.078125 4.175781 -8.835938 4.0625 -8.546875 C 3.957031 -8.265625 3.894531 -7.984375 3.875 -7.703125 Z M 3.875 -7.703125 "/></g></g></g><g fill="#ffffff" fill-opacity="1"><g transform="translate(36.267323, 63.499966)"><g><path d="M 15.640625 -27.5 C 15.660156 -27.5625 15.738281 -27.597656 15.875 -27.609375 C 16.019531 -27.628906 16.164062 -27.625 16.3125 -27.59375 C 16.457031 -27.570312 16.519531 -27.53125 16.5 -27.46875 C 16.3125 -25.832031 16.050781 -24.195312 15.71875 -22.5625 C 15.382812 -20.9375 14.9375 -19.347656 14.375 -17.796875 C 14.164062 -17.210938 13.929688 -16.613281 13.671875 -16 C 13.410156 -15.394531 13.09375 -14.859375 12.71875 -14.390625 C 12.351562 -13.921875 11.894531 -13.585938 11.34375 -13.390625 C 10.800781 -13.191406 10.140625 -13.195312 9.359375 -13.40625 C 8.722656 -13.582031 8.222656 -13.914062 7.859375 -14.40625 C 7.492188 -14.90625 7.222656 -15.492188 7.046875 -16.171875 C 6.867188 -16.847656 6.75 -17.539062 6.6875 -18.25 C 6.550781 -17.832031 6.40625 -17.414062 6.25 -17 C 6.101562 -16.59375 5.941406 -16.191406 5.765625 -15.796875 C 5.523438 -15.265625 5.238281 -14.757812 4.90625 -14.28125 C 4.582031 -13.8125 4.207031 -13.414062 3.78125 -13.09375 C 3.351562 -12.78125 2.875 -12.578125 2.34375 -12.484375 C 1.820312 -12.398438 1.238281 -12.484375 0.59375 -12.734375 C 0.03125 -12.953125 -0.414062 -13.28125 -0.75 -13.71875 C -1.09375 -14.15625 -1.351562 -14.644531 -1.53125 -15.1875 C -1.707031 -15.738281 -1.832031 -16.304688 -1.90625 -16.890625 C -1.976562 -17.484375 -2.023438 -18.039062 -2.046875 -18.5625 C -2.128906 -19.945312 -2.09375 -21.328125 -1.9375 -22.703125 C -1.78125 -24.078125 -1.519531 -25.4375 -1.15625 -26.78125 C -1 -27.351562 -0.816406 -27.96875 -0.609375 -28.625 C -0.410156 -29.28125 -0.175781 -29.929688 0.09375 -30.578125 C 0.375 -31.222656 0.695312 -31.820312 1.0625 -32.375 C 1.425781 -32.9375 1.851562 -33.414062 2.34375 -33.8125 C 2.71875 -34.113281 3.148438 -34.34375 3.640625 -34.5 C 4.140625 -34.664062 4.648438 -34.75 5.171875 -34.75 C 5.691406 -34.75 6.191406 -34.660156 6.671875 -34.484375 C 7.160156 -34.304688 7.570312 -34.03125 7.90625 -33.65625 C 7.9375 -33.625 7.960938 -33.59375 7.984375 -33.5625 C 8.015625 -33.53125 8.039062 -33.492188 8.0625 -33.453125 C 8.445312 -33.554688 8.835938 -33.59375 9.234375 -33.5625 C 9.640625 -33.539062 9.984375 -33.453125 10.265625 -33.296875 C 10.546875 -33.140625 10.671875 -32.921875 10.640625 -32.640625 C 10.515625 -30.828125 10.394531 -29 10.28125 -27.15625 C 10.175781 -25.3125 10.148438 -23.472656 10.203125 -21.640625 C 10.253906 -19.816406 10.453125 -18.007812 10.796875 -16.21875 C 10.816406 -16.082031 10.84375 -15.945312 10.875 -15.8125 C 10.90625 -15.675781 10.941406 -15.539062 10.984375 -15.40625 C 11.117188 -15.582031 11.25 -15.753906 11.375 -15.921875 C 11.5 -16.085938 11.613281 -16.253906 11.71875 -16.421875 C 12.082031 -16.960938 12.410156 -17.507812 12.703125 -18.0625 C 12.992188 -18.625 13.265625 -19.195312 13.515625 -19.78125 C 14.046875 -21.019531 14.484375 -22.28125 14.828125 -23.5625 C 15.179688 -24.84375 15.453125 -26.15625 15.640625 -27.5 Z M 5 -22.46875 C 5.351562 -23.695312 5.640625 -24.941406 5.859375 -26.203125 C 6.078125 -27.460938 6.289062 -28.722656 6.5 -29.984375 C 6.414062 -30.242188 6.300781 -30.5 6.15625 -30.75 C 6.019531 -30.96875 5.894531 -31.1875 5.78125 -31.40625 C 5.664062 -31.625 5.535156 -31.835938 5.390625 -32.046875 C 5.335938 -32.128906 5.28125 -32.207031 5.21875 -32.28125 C 5.164062 -32.363281 5.109375 -32.441406 5.046875 -32.515625 C 4.953125 -32.378906 4.863281 -32.238281 4.78125 -32.09375 C 4.695312 -31.945312 4.613281 -31.800781 4.53125 -31.65625 C 4.40625 -31.4375 4.28125 -31.207031 4.15625 -30.96875 C 4.039062 -30.726562 3.929688 -30.484375 3.828125 -30.234375 C 3.359375 -29.222656 2.96875 -28.1875 2.65625 -27.125 C 2.300781 -25.976562 2.035156 -24.800781 1.859375 -23.59375 C 1.691406 -22.394531 1.609375 -21.195312 1.609375 -20 C 1.609375 -19.46875 1.617188 -18.929688 1.640625 -18.390625 C 1.671875 -17.847656 1.726562 -17.3125 1.8125 -16.78125 C 1.84375 -16.625 1.890625 -16.375 1.953125 -16.03125 C 2.015625 -15.6875 2.109375 -15.359375 2.234375 -15.046875 C 2.460938 -15.367188 2.671875 -15.738281 2.859375 -16.15625 C 3.046875 -16.582031 3.210938 -16.988281 3.359375 -17.375 C 3.515625 -17.757812 3.625 -18.039062 3.6875 -18.21875 C 3.945312 -18.914062 4.179688 -19.617188 4.390625 -20.328125 C 4.597656 -21.035156 4.800781 -21.75 5 -22.46875 Z M 5 -22.46875 "/></g></g></g><g fill="#ffffff" fill-opacity="1"><g transform="translate(52.027507, 63.499966)"><g/></g></g><g fill="#ffffff" fill-opacity="1"><g transform="translate(61.850771, 63.499966)"><g><path d="M 30.453125 -23.953125 C 30.398438 -28.347656 30.492188 -32.742188 30.734375 -37.140625 C 30.984375 -41.535156 31.300781 -45.925781 31.6875 -50.3125 C 31.195312 -48.84375 30.710938 -47.316406 30.234375 -45.734375 C 29.765625 -44.148438 29.304688 -42.578125 28.859375 -41.015625 C 28.410156 -39.460938 27.976562 -37.976562 27.5625 -36.5625 C 27.15625 -35.15625 26.773438 -33.890625 26.421875 -32.765625 C 26.078125 -31.640625 25.765625 -30.710938 25.484375 -29.984375 C 25.203125 -29.253906 24.960938 -28.796875 24.765625 -28.609375 C 24.390625 -28.265625 23.96875 -28.015625 23.5 -27.859375 C 23.03125 -27.710938 22.601562 -27.679688 22.21875 -27.765625 C 21.84375 -27.859375 21.601562 -28.085938 21.5 -28.453125 C 21.125 -29.804688 20.867188 -31.15625 20.734375 -32.5 C 20.597656 -33.851562 20.53125 -35.207031 20.53125 -36.5625 C 20.539062 -37.914062 20.578125 -39.273438 20.640625 -40.640625 C 20.710938 -42.015625 20.753906 -43.390625 20.765625 -44.765625 C 20.648438 -44.171875 20.53125 -43.570312 20.40625 -42.96875 C 20.289062 -42.375 20.175781 -41.769531 20.0625 -41.15625 C 19.65625 -38.988281 19.21875 -36.828125 18.75 -34.671875 C 18.289062 -32.523438 17.796875 -30.382812 17.265625 -28.25 C 16.785156 -26.238281 16.257812 -24.226562 15.6875 -22.21875 C 15.125 -20.207031 14.535156 -18.210938 13.921875 -16.234375 C 13.585938 -15.140625 13.226562 -14.03125 12.84375 -12.90625 C 12.457031 -11.789062 12.007812 -10.707031 11.5 -9.65625 C 11 -8.613281 10.382812 -7.632812 9.65625 -6.71875 C 9.289062 -6.25 8.804688 -5.859375 8.203125 -5.546875 C 7.609375 -5.242188 6.960938 -5.046875 6.265625 -4.953125 C 5.578125 -4.867188 4.90625 -4.90625 4.25 -5.0625 C 3.59375 -5.226562 3.015625 -5.539062 2.515625 -6 C 1.921875 -6.5625 1.429688 -7.34375 1.046875 -8.34375 C 0.660156 -9.34375 0.382812 -10.488281 0.21875 -11.78125 C 0.0625 -13.082031 0 -14.460938 0.03125 -15.921875 C 0.0703125 -17.390625 0.210938 -18.863281 0.453125 -20.34375 C 0.703125 -21.820312 1.039062 -23.242188 1.46875 -24.609375 C 1.894531 -25.972656 2.410156 -27.207031 3.015625 -28.3125 C 3.617188 -29.425781 4.304688 -30.34375 5.078125 -31.0625 C 5.859375 -31.789062 6.71875 -32.238281 7.65625 -32.40625 C 8.539062 -32.570312 9.265625 -32.519531 9.828125 -32.25 C 10.390625 -31.976562 10.8125 -31.539062 11.09375 -30.9375 C 11.382812 -30.34375 11.5625 -29.632812 11.625 -28.8125 C 11.695312 -28 11.6875 -27.132812 11.59375 -26.21875 C 11.507812 -25.300781 11.363281 -24.375 11.15625 -23.4375 C 10.957031 -22.5 10.726562 -21.613281 10.46875 -20.78125 C 10.21875 -19.945312 9.96875 -19.210938 9.71875 -18.578125 C 9.476562 -17.953125 9.265625 -17.484375 9.078125 -17.171875 C 8.890625 -16.929688 8.640625 -16.753906 8.328125 -16.640625 C 8.023438 -16.535156 7.722656 -16.488281 7.421875 -16.5 C 7.117188 -16.519531 6.894531 -16.59375 6.75 -16.71875 C 6.601562 -16.851562 6.585938 -17.035156 6.703125 -17.265625 C 7.546875 -18.878906 8.226562 -20.476562 8.75 -22.0625 C 9.28125 -23.65625 9.613281 -25.3125 9.75 -27.03125 C 9.769531 -27.269531 9.789062 -27.578125 9.8125 -27.953125 C 9.84375 -28.328125 9.847656 -28.71875 9.828125 -29.125 C 9.816406 -29.53125 9.757812 -29.90625 9.65625 -30.25 C 9.550781 -30.59375 9.375 -30.84375 9.125 -31 C 8.914062 -31.144531 8.691406 -31.144531 8.453125 -31 C 8.210938 -30.863281 7.972656 -30.644531 7.734375 -30.34375 C 7.503906 -30.050781 7.285156 -29.722656 7.078125 -29.359375 C 6.867188 -29.003906 6.6875 -28.671875 6.53125 -28.359375 C 6.375 -28.046875 6.253906 -27.804688 6.171875 -27.640625 C 5.734375 -26.710938 5.320312 -25.648438 4.9375 -24.453125 C 4.5625 -23.265625 4.238281 -22.015625 3.96875 -20.703125 C 3.695312 -19.390625 3.484375 -18.066406 3.328125 -16.734375 C 3.179688 -15.410156 3.101562 -14.140625 3.09375 -12.921875 C 3.09375 -11.710938 3.171875 -10.617188 3.328125 -9.640625 C 3.492188 -8.660156 3.753906 -7.851562 4.109375 -7.21875 C 4.472656 -6.582031 4.941406 -6.195312 5.515625 -6.0625 C 6.003906 -5.9375 6.503906 -6.113281 7.015625 -6.59375 C 7.535156 -7.082031 8.054688 -7.8125 8.578125 -8.78125 C 9.109375 -9.75 9.632812 -10.90625 10.15625 -12.25 C 10.675781 -13.601562 11.191406 -15.082031 11.703125 -16.6875 C 12.210938 -18.300781 12.707031 -19.984375 13.1875 -21.734375 C 13.664062 -23.484375 14.125 -25.253906 14.5625 -27.046875 C 15.007812 -28.847656 15.425781 -30.601562 15.8125 -32.3125 C 16.207031 -34.03125 16.5625 -35.648438 16.875 -37.171875 C 17.195312 -38.703125 17.476562 -40.082031 17.71875 -41.3125 C 17.96875 -42.550781 18.171875 -43.578125 18.328125 -44.390625 C 18.484375 -45.203125 18.578125 -45.75 18.609375 -46.03125 C 18.753906 -46.945312 18.875 -47.863281 18.96875 -48.78125 C 19.070312 -49.695312 19.15625 -50.566406 19.21875 -51.390625 C 19.28125 -52.222656 19.332031 -52.96875 19.375 -53.625 C 19.425781 -54.289062 19.476562 -54.820312 19.53125 -55.21875 C 19.5625 -55.488281 19.695312 -55.703125 19.9375 -55.859375 C 20.175781 -56.023438 20.46875 -56.140625 20.8125 -56.203125 C 21.15625 -56.265625 21.5 -56.269531 21.84375 -56.21875 C 22.1875 -56.164062 22.484375 -56.0625 22.734375 -55.90625 C 22.992188 -55.757812 23.148438 -55.554688 23.203125 -55.296875 C 23.523438 -53.835938 23.734375 -52.367188 23.828125 -50.890625 C 23.929688 -49.421875 23.96875 -47.945312 23.9375 -46.46875 C 23.90625 -45 23.859375 -43.519531 23.796875 -42.03125 C 23.742188 -40.550781 23.71875 -39.070312 23.71875 -37.59375 C 23.726562 -36.113281 23.816406 -34.644531 23.984375 -33.1875 C 24.171875 -33.707031 24.332031 -34.226562 24.46875 -34.75 C 24.613281 -35.269531 24.757812 -35.785156 24.90625 -36.296875 C 25.3125 -37.679688 25.710938 -39.070312 26.109375 -40.46875 C 26.503906 -41.863281 26.894531 -43.257812 27.28125 -44.65625 C 27.664062 -45.96875 28.03125 -47.300781 28.375 -48.65625 C 28.71875 -50.007812 29.085938 -51.359375 29.484375 -52.703125 C 29.878906 -54.054688 30.332031 -55.378906 30.84375 -56.671875 C 31.351562 -57.960938 31.953125 -59.203125 32.640625 -60.390625 C 32.742188 -60.554688 32.9375 -60.703125 33.21875 -60.828125 C 33.5 -60.953125 33.816406 -61.039062 34.171875 -61.09375 C 34.523438 -61.144531 34.867188 -61.15625 35.203125 -61.125 C 35.546875 -61.09375 35.820312 -61 36.03125 -60.84375 C 36.238281 -60.695312 36.332031 -60.488281 36.3125 -60.21875 C 35.832031 -55.0625 35.382812 -49.90625 34.96875 -44.75 C 34.550781 -39.59375 34.296875 -34.421875 34.203125 -29.234375 C 34.148438 -26.628906 34.160156 -24.023438 34.234375 -21.421875 C 34.304688 -18.816406 34.445312 -16.210938 34.65625 -13.609375 C 34.757812 -12.460938 34.867188 -11.3125 34.984375 -10.15625 C 35.097656 -9.007812 35.28125 -7.878906 35.53125 -6.765625 C 35.675781 -6.160156 35.835938 -5.5625 36.015625 -4.96875 C 36.203125 -4.375 36.425781 -3.804688 36.6875 -3.265625 C 36.757812 -3.117188 36.867188 -2.910156 37.015625 -2.640625 C 37.171875 -2.378906 37.34375 -2.117188 37.53125 -1.859375 C 37.726562 -1.597656 37.941406 -1.390625 38.171875 -1.234375 C 38.398438 -1.078125 38.625 -1.035156 38.84375 -1.109375 C 39.144531 -1.210938 39.515625 -1.265625 39.953125 -1.265625 C 40.390625 -1.265625 40.738281 -1.15625 41 -0.9375 C 41.21875 -0.769531 41.328125 -0.570312 41.328125 -0.34375 C 41.328125 -0.125 41.175781 0.0546875 40.875 0.203125 C 40.226562 0.492188 39.539062 0.671875 38.8125 0.734375 C 38.082031 0.804688 37.363281 0.742188 36.65625 0.546875 C 35.957031 0.347656 35.320312 0.015625 34.75 -0.453125 C 34.144531 -0.960938 33.65625 -1.5625 33.28125 -2.25 C 32.914062 -2.9375 32.617188 -3.664062 32.390625 -4.4375 C 32.160156 -5.207031 31.960938 -5.957031 31.796875 -6.6875 C 31.390625 -8.539062 31.09375 -10.4375 30.90625 -12.375 C 30.726562 -14.3125 30.613281 -16.25 30.5625 -18.1875 C 30.507812 -20.132812 30.472656 -22.054688 30.453125 -23.953125 Z M 30.453125 -23.953125 "/></g></g></g><g fill="#ffffff" fill-opacity="1"><g transform="translate(101.182864, 63.499966)"><g><path d="M 15.640625 -27.5 C 15.660156 -27.5625 15.738281 -27.597656 15.875 -27.609375 C 16.019531 -27.628906 16.164062 -27.625 16.3125 -27.59375 C 16.457031 -27.570312 16.519531 -27.53125 16.5 -27.46875 C 16.3125 -25.832031 16.050781 -24.195312 15.71875 -22.5625 C 15.382812 -20.9375 14.9375 -19.347656 14.375 -17.796875 C 14.164062 -17.210938 13.929688 -16.613281 13.671875 -16 C 13.410156 -15.394531 13.09375 -14.859375 12.71875 -14.390625 C 12.351562 -13.921875 11.894531 -13.585938 11.34375 -13.390625 C 10.800781 -13.191406 10.140625 -13.195312 9.359375 -13.40625 C 8.722656 -13.582031 8.222656 -13.914062 7.859375 -14.40625 C 7.492188 -14.90625 7.222656 -15.492188 7.046875 -16.171875 C 6.867188 -16.847656 6.75 -17.539062 6.6875 -18.25 C 6.550781 -17.832031 6.40625 -17.414062 6.25 -17 C 6.101562 -16.59375 5.941406 -16.191406 5.765625 -15.796875 C 5.523438 -15.265625 5.238281 -14.757812 4.90625 -14.28125 C 4.582031 -13.8125 4.207031 -13.414062 3.78125 -13.09375 C 3.351562 -12.78125 2.875 -12.578125 2.34375 -12.484375 C 1.820312 -12.398438 1.238281 -12.484375 0.59375 -12.734375 C 0.03125 -12.953125 -0.414062 -13.28125 -0.75 -13.71875 C -1.09375 -14.15625 -1.351562 -14.644531 -1.53125 -15.1875 C -1.707031 -15.738281 -1.832031 -16.304688 -1.90625 -16.890625 C -1.976562 -17.484375 -2.023438 -18.039062 -2.046875 -18.5625 C -2.128906 -19.945312 -2.09375 -21.328125 -1.9375 -22.703125 C -1.78125 -24.078125 -1.519531 -25.4375 -1.15625 -26.78125 C -1 -27.351562 -0.816406 -27.96875 -0.609375 -28.625 C -0.410156 -29.28125 -0.175781 -29.929688 0.09375 -30.578125 C 0.375 -31.222656 0.695312 -31.820312 1.0625 -32.375 C 1.425781 -32.9375 1.851562 -33.414062 2.34375 -33.8125 C 2.71875 -34.113281 3.148438 -34.34375 3.640625 -34.5 C 4.140625 -34.664062 4.648438 -34.75 5.171875 -34.75 C 5.691406 -34.75 6.191406 -34.660156 6.671875 -34.484375 C 7.160156 -34.304688 7.570312 -34.03125 7.90625 -33.65625 C 7.9375 -33.625 7.960938 -33.59375 7.984375 -33.5625 C 8.015625 -33.53125 8.039062 -33.492188 8.0625 -33.453125 C 8.445312 -33.554688 8.835938 -33.59375 9.234375 -33.5625 C 9.640625 -33.539062 9.984375 -33.453125 10.265625 -33.296875 C 10.546875 -33.140625 10.671875 -32.921875 10.640625 -32.640625 C 10.515625 -30.828125 10.394531 -29 10.28125 -27.15625 C 10.175781 -25.3125 10.148438 -23.472656 10.203125 -21.640625 C 10.253906 -19.816406 10.453125 -18.007812 10.796875 -16.21875 C 10.816406 -16.082031 10.84375 -15.945312 10.875 -15.8125 C 10.90625 -15.675781 10.941406 -15.539062 10.984375 -15.40625 C 11.117188 -15.582031 11.25 -15.753906 11.375 -15.921875 C 11.5 -16.085938 11.613281 -16.253906 11.71875 -16.421875 C 12.082031 -16.960938 12.410156 -17.507812 12.703125 -18.0625 C 12.992188 -18.625 13.265625 -19.195312 13.515625 -19.78125 C 14.046875 -21.019531 14.484375 -22.28125 14.828125 -23.5625 C 15.179688 -24.84375 15.453125 -26.15625 15.640625 -27.5 Z M 5 -22.46875 C 5.351562 -23.695312 5.640625 -24.941406 5.859375 -26.203125 C 6.078125 -27.460938 6.289062 -28.722656 6.5 -29.984375 C 6.414062 -30.242188 6.300781 -30.5 6.15625 -30.75 C 6.019531 -30.96875 5.894531 -31.1875 5.78125 -31.40625 C 5.664062 -31.625 5.535156 -31.835938 5.390625 -32.046875 C 5.335938 -32.128906 5.28125 -32.207031 5.21875 -32.28125 C 5.164062 -32.363281 5.109375 -32.441406 5.046875 -32.515625 C 4.953125 -32.378906 4.863281 -32.238281 4.78125 -32.09375 C 4.695312 -31.945312 4.613281 -31.800781 4.53125 -31.65625 C 4.40625 -31.4375 4.28125 -31.207031 4.15625 -30.96875 C 4.039062 -30.726562 3.929688 -30.484375 3.828125 -30.234375 C 3.359375 -29.222656 2.96875 -28.1875 2.65625 -27.125 C 2.300781 -25.976562 2.035156 -24.800781 1.859375 -23.59375 C 1.691406 -22.394531 1.609375 -21.195312 1.609375 -20 C 1.609375 -19.46875 1.617188 -18.929688 1.640625 -18.390625 C 1.671875 -17.847656 1.726562 -17.3125 1.8125 -16.78125 C 1.84375 -16.625 1.890625 -16.375 1.953125 -16.03125 C 2.015625 -15.6875 2.109375 -15.359375 2.234375 -15.046875 C 2.460938 -15.367188 2.671875 -15.738281 2.859375 -16.15625 C 3.046875 -16.582031 3.210938 -16.988281 3.359375 -17.375 C 3.515625 -17.757812 3.625 -18.039062 3.6875 -18.21875 C 3.945312 -18.914062 4.179688 -19.617188 4.390625 -20.328125 C 4.597656 -21.035156 4.800781 -21.75 5 -22.46875 Z M 8.484375 -43.0625 C 8.484375 -43.0625 8.429688 -42.9375 8.328125 -42.6875 C 8.222656 -42.445312 8.082031 -42.132812 7.90625 -41.75 C 7.738281 -41.363281 7.554688 -40.953125 7.359375 -40.515625 C 7.171875 -40.078125 6.988281 -39.664062 6.8125 -39.28125 C 6.644531 -38.90625 6.507812 -38.59375 6.40625 -38.34375 C 6.300781 -38.09375 6.25 -37.96875 6.25 -37.96875 C 6.25 -37.820312 6.179688 -37.742188 6.046875 -37.734375 C 5.910156 -37.734375 5.769531 -37.785156 5.625 -37.890625 C 5.476562 -37.992188 5.398438 -38.117188 5.390625 -38.265625 C 5.335938 -39.035156 5.367188 -39.796875 5.484375 -40.546875 C 5.609375 -41.304688 5.78125 -41.988281 6 -42.59375 C 6.21875 -43.195312 6.46875 -43.671875 6.75 -44.015625 C 7.039062 -44.359375 7.335938 -44.5 7.640625 -44.4375 C 7.890625 -44.382812 8.109375 -44.28125 8.296875 -44.125 C 8.484375 -43.976562 8.617188 -43.816406 8.703125 -43.640625 C 8.796875 -43.460938 8.828125 -43.316406 8.796875 -43.203125 C 8.773438 -43.085938 8.671875 -43.039062 8.484375 -43.0625 Z M 8.484375 -43.0625 "/></g></g></g><g fill="#ffffff" fill-opacity="1"><g transform="translate(116.943048, 63.499966)"><g><path d="M 10.390625 -23.75 C 10.328125 -23.632812 10.164062 -23.550781 9.90625 -23.5 C 9.65625 -23.445312 9.378906 -23.429688 9.078125 -23.453125 C 8.785156 -23.472656 8.539062 -23.53125 8.34375 -23.625 C 8.144531 -23.71875 8.070312 -23.851562 8.125 -24.03125 C 8.28125 -24.582031 8.429688 -25.207031 8.578125 -25.90625 C 8.722656 -26.601562 8.8125 -27.316406 8.84375 -28.046875 C 8.882812 -28.785156 8.84375 -29.5 8.71875 -30.1875 C 8.59375 -30.882812 8.347656 -31.519531 7.984375 -32.09375 C 7.617188 -32.664062 7.09375 -33.128906 6.40625 -33.484375 C 6 -33.691406 5.675781 -33.773438 5.4375 -33.734375 C 5.195312 -33.703125 4.910156 -33.550781 4.578125 -33.28125 C 4.128906 -32.914062 3.742188 -32.460938 3.421875 -31.921875 C 3.097656 -31.378906 2.835938 -30.835938 2.640625 -30.296875 C 2.191406 -29.015625 2.101562 -27.726562 2.375 -26.4375 C 2.65625 -25.144531 3.234375 -23.988281 4.109375 -22.96875 C 4.503906 -22.5 4.945312 -22.082031 5.4375 -21.71875 C 5.925781 -21.363281 6.425781 -21.023438 6.9375 -20.703125 C 7.457031 -20.390625 7.960938 -20.0625 8.453125 -19.71875 C 8.941406 -19.382812 9.394531 -19 9.8125 -18.5625 C 10.34375 -18 10.695312 -17.390625 10.875 -16.734375 C 11.0625 -16.078125 11.046875 -15.4375 10.828125 -14.8125 C 10.617188 -14.195312 10.1875 -13.660156 9.53125 -13.203125 C 8.9375 -12.785156 8.273438 -12.484375 7.546875 -12.296875 C 6.816406 -12.109375 6.09375 -11.992188 5.375 -11.953125 C 4.21875 -11.898438 3.164062 -12.050781 2.21875 -12.40625 C 1.269531 -12.769531 0.5 -13.34375 -0.09375 -14.125 C -0.6875 -14.90625 -1.046875 -15.894531 -1.171875 -17.09375 C -1.203125 -17.351562 -1.097656 -17.5625 -0.859375 -17.71875 C -0.628906 -17.882812 -0.332031 -18 0.03125 -18.0625 C 0.40625 -18.132812 0.773438 -18.148438 1.140625 -18.109375 C 1.515625 -18.066406 1.832031 -17.96875 2.09375 -17.8125 C 2.363281 -17.65625 2.515625 -17.441406 2.546875 -17.171875 C 2.597656 -16.710938 2.703125 -16.234375 2.859375 -15.734375 C 3.015625 -15.242188 3.25 -14.820312 3.5625 -14.46875 C 3.882812 -14.125 4.316406 -13.925781 4.859375 -13.875 C 5.203125 -13.84375 5.546875 -13.890625 5.890625 -14.015625 C 6.242188 -14.140625 6.546875 -14.320312 6.796875 -14.5625 C 7.054688 -14.8125 7.222656 -15.125 7.296875 -15.5 C 7.367188 -15.875 7.300781 -16.296875 7.09375 -16.765625 C 6.925781 -17.160156 6.679688 -17.5 6.359375 -17.78125 C 6.035156 -18.070312 5.6875 -18.332031 5.3125 -18.5625 C 4.9375 -18.789062 4.570312 -19.015625 4.21875 -19.234375 C 3.726562 -19.546875 3.242188 -19.878906 2.765625 -20.234375 C 2.285156 -20.597656 1.835938 -20.984375 1.421875 -21.390625 C 0.609375 -22.191406 -0.0664062 -23.097656 -0.609375 -24.109375 C -1.148438 -25.128906 -1.445312 -26.226562 -1.5 -27.40625 C -1.539062 -28.34375 -1.425781 -29.265625 -1.15625 -30.171875 C -0.882812 -31.078125 -0.484375 -31.910156 0.046875 -32.671875 C 0.585938 -33.441406 1.222656 -34.085938 1.953125 -34.609375 C 2.691406 -35.128906 3.507812 -35.476562 4.40625 -35.65625 C 5.3125 -35.832031 6.257812 -35.789062 7.25 -35.53125 C 8.34375 -35.238281 9.226562 -34.773438 9.90625 -34.140625 C 10.59375 -33.515625 11.097656 -32.78125 11.421875 -31.9375 C 11.753906 -31.09375 11.921875 -30.191406 11.921875 -29.234375 C 11.929688 -28.285156 11.800781 -27.335938 11.53125 -26.390625 C 11.269531 -25.453125 10.890625 -24.570312 10.390625 -23.75 Z M 10.390625 -23.75 "/></g></g></g><g fill="#ffffff" fill-opacity="1"><g transform="translate(130.652646, 63.499966)"><g/></g></g><g fill="#ffffff" fill-opacity="1"><g transform="translate(140.47591, 63.499966)"><g><path d="M 30.453125 -23.953125 C 30.398438 -28.347656 30.492188 -32.742188 30.734375 -37.140625 C 30.984375 -41.535156 31.300781 -45.925781 31.6875 -50.3125 C 31.195312 -48.84375 30.710938 -47.316406 30.234375 -45.734375 C 29.765625 -44.148438 29.304688 -42.578125 28.859375 -41.015625 C 28.410156 -39.460938 27.976562 -37.976562 27.5625 -36.5625 C 27.15625 -35.15625 26.773438 -33.890625 26.421875 -32.765625 C 26.078125 -31.640625 25.765625 -30.710938 25.484375 -29.984375 C 25.203125 -29.253906 24.960938 -28.796875 24.765625 -28.609375 C 24.390625 -28.265625 23.96875 -28.015625 23.5 -27.859375 C 23.03125 -27.710938 22.601562 -27.679688 22.21875 -27.765625 C 21.84375 -27.859375 21.601562 -28.085938 21.5 -28.453125 C 21.125 -29.804688 20.867188 -31.15625 20.734375 -32.5 C 20.597656 -33.851562 20.53125 -35.207031 20.53125 -36.5625 C 20.539062 -37.914062 20.578125 -39.273438 20.640625 -40.640625 C 20.710938 -42.015625 20.753906 -43.390625 20.765625 -44.765625 C 20.648438 -44.171875 20.53125 -43.570312 20.40625 -42.96875 C 20.289062 -42.375 20.175781 -41.769531 20.0625 -41.15625 C 19.65625 -38.988281 19.21875 -36.828125 18.75 -34.671875 C 18.289062 -32.523438 17.796875 -30.382812 17.265625 -28.25 C 16.785156 -26.238281 16.257812 -24.226562 15.6875 -22.21875 C 15.125 -20.207031 14.535156 -18.210938 13.921875 -16.234375 C 13.585938 -15.140625 13.226562 -14.03125 12.84375 -12.90625 C 12.457031 -11.789062 12.007812 -10.707031 11.5 -9.65625 C 11 -8.613281 10.382812 -7.632812 9.65625 -6.71875 C 9.289062 -6.25 8.804688 -5.859375 8.203125 -5.546875 C 7.609375 -5.242188 6.960938 -5.046875 6.265625 -4.953125 C 5.578125 -4.867188 4.90625 -4.90625 4.25 -5.0625 C 3.59375 -5.226562 3.015625 -5.539062 2.515625 -6 C 1.921875 -6.5625 1.429688 -7.34375 1.046875 -8.34375 C 0.660156 -9.34375 0.382812 -10.488281 0.21875 -11.78125 C 0.0625 -13.082031 0 -14.460938 0.03125 -15.921875 C 0.0703125 -17.390625 0.210938 -18.863281 0.453125 -20.34375 C 0.703125 -21.820312 1.039062 -23.242188 1.46875 -24.609375 C 1.894531 -25.972656 2.410156 -27.207031 3.015625 -28.3125 C 3.617188 -29.425781 4.304688 -30.34375 5.078125 -31.0625 C 5.859375 -31.789062 6.71875 -32.238281 7.65625 -32.40625 C 8.539062 -32.570312 9.265625 -32.519531 9.828125 -32.25 C 10.390625 -31.976562 10.8125 -31.539062 11.09375 -30.9375 C 11.382812 -30.34375 11.5625 -29.632812 11.625 -28.8125 C 11.695312 -28 11.6875 -27.132812 11.59375 -26.21875 C 11.507812 -25.300781 11.363281 -24.375 11.15625 -23.4375 C 10.957031 -22.5 10.726562 -21.613281 10.46875 -20.78125 C 10.21875 -19.945312 9.96875 -19.210938 9.71875 -18.578125 C 9.476562 -17.953125 9.265625 -17.484375 9.078125 -17.171875 C 8.890625 -16.929688 8.640625 -16.753906 8.328125 -16.640625 C 8.023438 -16.535156 7.722656 -16.488281 7.421875 -16.5 C 7.117188 -16.519531 6.894531 -16.59375 6.75 -16.71875 C 6.601562 -16.851562 6.585938 -17.035156 6.703125 -17.265625 C 7.546875 -18.878906 8.226562 -20.476562 8.75 -22.0625 C 9.28125 -23.65625 9.613281 -25.3125 9.75 -27.03125 C 9.769531 -27.269531 9.789062 -27.578125 9.8125 -27.953125 C 9.84375 -28.328125 9.847656 -28.71875 9.828125 -29.125 C 9.816406 -29.53125 9.757812 -29.90625 9.65625 -30.25 C 9.550781 -30.59375 9.375 -30.84375 9.125 -31 C 8.914062 -31.144531 8.691406 -31.144531 8.453125 -31 C 8.210938 -30.863281 7.972656 -30.644531 7.734375 -30.34375 C 7.503906 -30.050781 7.285156 -29.722656 7.078125 -29.359375 C 6.867188 -29.003906 6.6875 -28.671875 6.53125 -28.359375 C 6.375 -28.046875 6.253906 -27.804688 6.171875 -27.640625 C 5.734375 -26.710938 5.320312 -25.648438 4.9375 -24.453125 C 4.5625 -23.265625 4.238281 -22.015625 3.96875 -20.703125 C 3.695312 -19.390625 3.484375 -18.066406 3.328125 -16.734375 C 3.179688 -15.410156 3.101562 -14.140625 3.09375 -12.921875 C 3.09375 -11.710938 3.171875 -10.617188 3.328125 -9.640625 C 3.492188 -8.660156 3.753906 -7.851562 4.109375 -7.21875 C 4.472656 -6.582031 4.941406 -6.195312 5.515625 -6.0625 C 6.003906 -5.9375 6.503906 -6.113281 7.015625 -6.59375 C 7.535156 -7.082031 8.054688 -7.8125 8.578125 -8.78125 C 9.109375 -9.75 9.632812 -10.90625 10.15625 -12.25 C 10.675781 -13.601562 11.191406 -15.082031 11.703125 -16.6875 C 12.210938 -18.300781 12.707031 -19.984375 13.1875 -21.734375 C 13.664062 -23.484375 14.125 -25.253906 14.5625 -27.046875 C 15.007812 -28.847656 15.425781 -30.601562 15.8125 -32.3125 C 16.207031 -34.03125 16.5625 -35.648438 16.875 -37.171875 C 17.195312 -38.703125 17.476562 -40.082031 17.71875 -41.3125 C 17.96875 -42.550781 18.171875 -43.578125 18.328125 -44.390625 C 18.484375 -45.203125 18.578125 -45.75 18.609375 -46.03125 C 18.753906 -46.945312 18.875 -47.863281 18.96875 -48.78125 C 19.070312 -49.695312 19.15625 -50.566406 19.21875 -51.390625 C 19.28125 -52.222656 19.332031 -52.96875 19.375 -53.625 C 19.425781 -54.289062 19.476562 -54.820312 19.53125 -55.21875 C 19.5625 -55.488281 19.695312 -55.703125 19.9375 -55.859375 C 20.175781 -56.023438 20.46875 -56.140625 20.8125 -56.203125 C 21.15625 -56.265625 21.5 -56.269531 21.84375 -56.21875 C 22.1875 -56.164062 22.484375 -56.0625 22.734375 -55.90625 C 22.992188 -55.757812 23.148438 -55.554688 23.203125 -55.296875 C 23.523438 -53.835938 23.734375 -52.367188 23.828125 -50.890625 C 23.929688 -49.421875 23.96875 -47.945312 23.9375 -46.46875 C 23.90625 -45 23.859375 -43.519531 23.796875 -42.03125 C 23.742188 -40.550781 23.71875 -39.070312 23.71875 -37.59375 C 23.726562 -36.113281 23.816406 -34.644531 23.984375 -33.1875 C 24.171875 -33.707031 24.332031 -34.226562 24.46875 -34.75 C 24.613281 -35.269531 24.757812 -35.785156 24.90625 -36.296875 C 25.3125 -37.679688 25.710938 -39.070312 26.109375 -40.46875 C 26.503906 -41.863281 26.894531 -43.257812 27.28125 -44.65625 C 27.664062 -45.96875 28.03125 -47.300781 28.375 -48.65625 C 28.71875 -50.007812 29.085938 -51.359375 29.484375 -52.703125 C 29.878906 -54.054688 30.332031 -55.378906 30.84375 -56.671875 C 31.351562 -57.960938 31.953125 -59.203125 32.640625 -60.390625 C 32.742188 -60.554688 32.9375 -60.703125 33.21875 -60.828125 C 33.5 -60.953125 33.816406 -61.039062 34.171875 -61.09375 C 34.523438 -61.144531 34.867188 -61.15625 35.203125 -61.125 C 35.546875 -61.09375 35.820312 -61 36.03125 -60.84375 C 36.238281 -60.695312 36.332031 -60.488281 36.3125 -60.21875 C 35.832031 -55.0625 35.382812 -49.90625 34.96875 -44.75 C 34.550781 -39.59375 34.296875 -34.421875 34.203125 -29.234375 C 34.148438 -26.628906 34.160156 -24.023438 34.234375 -21.421875 C 34.304688 -18.816406 34.445312 -16.210938 34.65625 -13.609375 C 34.757812 -12.460938 34.867188 -11.3125 34.984375 -10.15625 C 35.097656 -9.007812 35.28125 -7.878906 35.53125 -6.765625 C 35.675781 -6.160156 35.835938 -5.5625 36.015625 -4.96875 C 36.203125 -4.375 36.425781 -3.804688 36.6875 -3.265625 C 36.757812 -3.117188 36.867188 -2.910156 37.015625 -2.640625 C 37.171875 -2.378906 37.34375 -2.117188 37.53125 -1.859375 C 37.726562 -1.597656 37.941406 -1.390625 38.171875 -1.234375 C 38.398438 -1.078125 38.625 -1.035156 38.84375 -1.109375 C 39.144531 -1.210938 39.515625 -1.265625 39.953125 -1.265625 C 40.390625 -1.265625 40.738281 -1.15625 41 -0.9375 C 41.21875 -0.769531 41.328125 -0.570312 41.328125 -0.34375 C 41.328125 -0.125 41.175781 0.0546875 40.875 0.203125 C 40.226562 0.492188 39.539062 0.671875 38.8125 0.734375 C 38.082031 0.804688 37.363281 0.742188 36.65625 0.546875 C 35.957031 0.347656 35.320312 0.015625 34.75 -0.453125 C 34.144531 -0.960938 33.65625 -1.5625 33.28125 -2.25 C 32.914062 -2.9375 32.617188 -3.664062 32.390625 -4.4375 C 32.160156 -5.207031 31.960938 -5.957031 31.796875 -6.6875 C 31.390625 -8.539062 31.09375 -10.4375 30.90625 -12.375 C 30.726562 -14.3125 30.613281 -16.25 30.5625 -18.1875 C 30.507812 -20.132812 30.472656 -22.054688 30.453125 -23.953125 Z M 30.453125 -23.953125 "/></g></g></g><g fill="#ffffff" fill-opacity="1"><g transform="translate(179.808003, 63.499966)"><g><path d="M 7.9375 -24.203125 C 7.570312 -23.585938 7.140625 -23.019531 6.640625 -22.5 C 6.148438 -21.988281 5.59375 -21.585938 4.96875 -21.296875 C 4.351562 -21.015625 3.660156 -20.910156 2.890625 -20.984375 C 2.816406 -20.984375 2.738281 -20.988281 2.65625 -21 C 2.582031 -21.007812 2.503906 -21.019531 2.421875 -21.03125 C 2.472656 -20.320312 2.570312 -19.628906 2.71875 -18.953125 C 2.875 -18.273438 3.097656 -17.664062 3.390625 -17.125 C 3.691406 -16.582031 4.085938 -16.140625 4.578125 -15.796875 C 5.078125 -15.460938 5.6875 -15.28125 6.40625 -15.25 C 7.03125 -15.226562 7.617188 -15.375 8.171875 -15.6875 C 8.722656 -16 9.234375 -16.410156 9.703125 -16.921875 C 10.171875 -17.441406 10.597656 -17.988281 10.984375 -18.5625 C 11.378906 -19.132812 11.734375 -19.671875 12.046875 -20.171875 C 12.148438 -20.347656 12.296875 -20.628906 12.484375 -21.015625 C 12.679688 -21.410156 12.890625 -21.863281 13.109375 -22.375 C 13.328125 -22.882812 13.539062 -23.414062 13.75 -23.96875 C 13.96875 -24.53125 14.160156 -25.078125 14.328125 -25.609375 C 14.492188 -26.140625 14.613281 -26.609375 14.6875 -27.015625 C 14.738281 -27.285156 14.851562 -27.457031 15.03125 -27.53125 C 15.207031 -27.613281 15.367188 -27.609375 15.515625 -27.515625 C 15.671875 -27.429688 15.710938 -27.257812 15.640625 -27 C 15.484375 -26.300781 15.257812 -25.507812 14.96875 -24.625 C 14.675781 -23.738281 14.34375 -22.832031 13.96875 -21.90625 C 13.59375 -20.976562 13.195312 -20.078125 12.78125 -19.203125 C 12.257812 -18.097656 11.648438 -17.09375 10.953125 -16.1875 C 10.253906 -15.28125 9.488281 -14.550781 8.65625 -14 C 7.832031 -13.457031 6.953125 -13.15625 6.015625 -13.09375 C 5.140625 -13.019531 4.296875 -13.097656 3.484375 -13.328125 C 2.671875 -13.566406 1.945312 -13.953125 1.3125 -14.484375 C 0.675781 -15.023438 0.160156 -15.707031 -0.234375 -16.53125 C -0.597656 -17.332031 -0.859375 -18.1875 -1.015625 -19.09375 C -1.171875 -20.007812 -1.25 -20.9375 -1.25 -21.875 C -1.257812 -22.820312 -1.238281 -23.726562 -1.1875 -24.59375 C -1.15625 -25.289062 -1.0625 -26.0625 -0.90625 -26.90625 C -0.757812 -27.75 -0.546875 -28.601562 -0.265625 -29.46875 C 0.00390625 -30.34375 0.34375 -31.179688 0.75 -31.984375 C 1.164062 -32.796875 1.648438 -33.519531 2.203125 -34.15625 C 2.765625 -34.800781 3.40625 -35.3125 4.125 -35.6875 C 4.84375 -36.0625 5.644531 -36.25 6.53125 -36.25 C 7.382812 -36.25 8.070312 -36.082031 8.59375 -35.75 C 9.113281 -35.414062 9.492188 -34.957031 9.734375 -34.375 C 9.972656 -33.800781 10.109375 -33.148438 10.140625 -32.421875 C 10.179688 -31.703125 10.132812 -30.945312 10 -30.15625 C 9.875 -29.375 9.691406 -28.601562 9.453125 -27.84375 C 9.222656 -27.09375 8.972656 -26.398438 8.703125 -25.765625 C 8.429688 -25.140625 8.175781 -24.617188 7.9375 -24.203125 Z M 2.390625 -22.5 C 2.421875 -22.476562 2.457031 -22.453125 2.5 -22.421875 C 2.539062 -22.398438 2.585938 -22.375 2.640625 -22.34375 C 3.023438 -22.144531 3.382812 -22.101562 3.71875 -22.21875 C 4.0625 -22.332031 4.375 -22.53125 4.65625 -22.8125 C 4.945312 -23.101562 5.203125 -23.421875 5.421875 -23.765625 C 5.648438 -24.109375 5.84375 -24.410156 6 -24.671875 C 6.570312 -25.703125 7.03125 -26.789062 7.375 -27.9375 C 7.71875 -29.082031 7.894531 -30.238281 7.90625 -31.40625 C 7.925781 -31.707031 7.914062 -32.078125 7.875 -32.515625 C 7.84375 -32.960938 7.757812 -33.390625 7.625 -33.796875 C 7.5 -34.210938 7.28125 -34.503906 6.96875 -34.671875 C 6.6875 -34.835938 6.328125 -34.757812 5.890625 -34.4375 C 5.453125 -34.125 5.007812 -33.597656 4.5625 -32.859375 C 4.113281 -32.128906 3.710938 -31.210938 3.359375 -30.109375 C 3.003906 -29.003906 2.757812 -27.757812 2.625 -26.375 C 2.582031 -25.957031 2.53125 -25.40625 2.46875 -24.71875 C 2.414062 -24.03125 2.390625 -23.289062 2.390625 -22.5 Z M 2.390625 -22.5 "/></g></g></g><g fill="#ffffff" fill-opacity="1"><g transform="translate(194.650302, 63.499966)"><g><path d="M 17.640625 -27.28125 C 17.640625 -27.375 17.71875 -27.429688 17.875 -27.453125 C 18.039062 -27.472656 18.203125 -27.46875 18.359375 -27.4375 C 18.515625 -27.414062 18.59375 -27.363281 18.59375 -27.28125 C 18.476562 -25.238281 18.238281 -23.390625 17.875 -21.734375 C 17.507812 -20.085938 17.078125 -18.625 16.578125 -17.34375 C 16.078125 -16.070312 15.546875 -14.984375 14.984375 -14.078125 C 14.429688 -13.179688 13.898438 -12.46875 13.390625 -11.9375 C 12.878906 -11.414062 12.429688 -11.078125 12.046875 -10.921875 C 11.546875 -10.710938 11 -10.582031 10.40625 -10.53125 C 9.820312 -10.488281 9.207031 -10.691406 8.5625 -11.140625 C 7.90625 -11.578125 7.40625 -12.144531 7.0625 -12.84375 C 6.71875 -13.550781 6.445312 -14.273438 6.25 -15.015625 C 5.96875 -16.097656 5.75 -17.195312 5.59375 -18.3125 C 5.4375 -19.4375 5.269531 -20.550781 5.09375 -21.65625 C 5.082031 -21.695312 5.078125 -21.738281 5.078125 -21.78125 C 5.078125 -21.820312 5.070312 -21.851562 5.0625 -21.875 C 4.65625 -21.09375 4.242188 -20.3125 3.828125 -19.53125 C 3.410156 -18.757812 2.992188 -17.984375 2.578125 -17.203125 C 2.296875 -16.671875 2.023438 -16.128906 1.765625 -15.578125 C 1.515625 -15.035156 1.234375 -14.503906 0.921875 -13.984375 C 0.617188 -13.472656 0.238281 -13.007812 -0.21875 -12.59375 C -0.28125 -12.53125 -0.40625 -12.476562 -0.59375 -12.4375 C -0.78125 -12.40625 -0.976562 -12.390625 -1.1875 -12.390625 C -1.394531 -12.398438 -1.5625 -12.441406 -1.6875 -12.515625 C -1.820312 -12.585938 -1.863281 -12.707031 -1.8125 -12.875 C -1.519531 -13.757812 -1.128906 -14.628906 -0.640625 -15.484375 C -0.148438 -16.347656 0.300781 -17.195312 0.71875 -18.03125 C 1.132812 -18.863281 1.550781 -19.691406 1.96875 -20.515625 C 2.382812 -21.347656 2.8125 -22.171875 3.25 -22.984375 C 3.4375 -23.390625 3.628906 -23.785156 3.828125 -24.171875 C 4.035156 -24.566406 4.242188 -24.96875 4.453125 -25.375 C 4.347656 -25.894531 4.234375 -26.414062 4.109375 -26.9375 C 3.984375 -27.457031 3.84375 -27.972656 3.6875 -28.484375 C 3.53125 -29.023438 3.351562 -29.585938 3.15625 -30.171875 C 2.96875 -30.765625 2.726562 -31.328125 2.4375 -31.859375 C 2.144531 -32.390625 1.769531 -32.835938 1.3125 -33.203125 C 1 -33.109375 0.65625 -33.054688 0.28125 -33.046875 C -0.09375 -33.046875 -0.425781 -33.101562 -0.71875 -33.21875 C -1.019531 -33.34375 -1.222656 -33.523438 -1.328125 -33.765625 C -1.460938 -34.078125 -1.429688 -34.320312 -1.234375 -34.5 C -1.035156 -34.675781 -0.757812 -34.800781 -0.40625 -34.875 C -0.0507812 -34.945312 0.296875 -34.984375 0.640625 -34.984375 C 0.984375 -34.984375 1.234375 -34.960938 1.390625 -34.921875 C 1.503906 -34.898438 1.675781 -34.878906 1.90625 -34.859375 C 2.132812 -34.835938 2.378906 -34.8125 2.640625 -34.78125 C 2.910156 -34.757812 3.144531 -34.71875 3.34375 -34.65625 C 4.03125 -34.414062 4.625 -34.050781 5.125 -33.5625 C 5.570312 -33.09375 5.9375 -32.550781 6.21875 -31.9375 C 6.507812 -31.332031 6.757812 -30.71875 6.96875 -30.09375 C 7.320312 -30.707031 7.65625 -31.332031 7.96875 -31.96875 C 8.28125 -32.613281 8.484375 -33.25 8.578125 -33.875 C 8.628906 -34.164062 8.785156 -34.375 9.046875 -34.5 C 9.304688 -34.632812 9.601562 -34.695312 9.9375 -34.6875 C 10.28125 -34.6875 10.597656 -34.628906 10.890625 -34.515625 C 11.179688 -34.410156 11.382812 -34.269531 11.5 -34.09375 C 11.625 -33.914062 11.59375 -33.722656 11.40625 -33.515625 C 10.925781 -32.992188 10.492188 -32.398438 10.109375 -31.734375 C 9.734375 -31.078125 9.382812 -30.394531 9.0625 -29.6875 C 8.738281 -28.988281 8.414062 -28.316406 8.09375 -27.671875 C 8.039062 -27.585938 7.992188 -27.5 7.953125 -27.40625 C 7.910156 -27.320312 7.863281 -27.238281 7.8125 -27.15625 C 8.1875 -25.539062 8.488281 -23.90625 8.71875 -22.25 C 8.945312 -20.59375 9.207031 -18.945312 9.5 -17.3125 C 9.582031 -16.789062 9.679688 -16.242188 9.796875 -15.671875 C 9.910156 -15.097656 10.070312 -14.546875 10.28125 -14.015625 C 10.488281 -13.484375 10.78125 -13.007812 11.15625 -12.59375 C 11.300781 -12.46875 11.378906 -12.382812 11.390625 -12.34375 C 11.398438 -12.300781 11.472656 -12.28125 11.609375 -12.28125 C 11.785156 -12.28125 11.96875 -12.363281 12.15625 -12.53125 C 12.34375 -12.695312 12.503906 -12.835938 12.640625 -12.953125 C 13.015625 -13.253906 13.332031 -13.585938 13.59375 -13.953125 C 13.851562 -14.328125 14.085938 -14.726562 14.296875 -15.15625 C 14.898438 -16.363281 15.441406 -17.648438 15.921875 -19.015625 C 16.398438 -20.378906 16.789062 -21.765625 17.09375 -23.171875 C 17.394531 -24.578125 17.578125 -25.945312 17.640625 -27.28125 Z M 17.640625 -27.28125 "/></g></g></g><g fill="#ffffff" fill-opacity="1"><g transform="translate(212.675901, 63.499966)"><g><path d="M -0.546875 -27.890625 C -0.535156 -28.234375 -0.515625 -28.644531 -0.484375 -29.125 C -0.453125 -29.601562 -0.421875 -30.085938 -0.390625 -30.578125 C -0.367188 -31.066406 -0.359375 -31.472656 -0.359375 -31.796875 C -0.359375 -31.828125 -0.351562 -31.859375 -0.34375 -31.890625 C -0.332031 -31.929688 -0.328125 -31.96875 -0.328125 -32 C -0.671875 -32.007812 -0.976562 -32.066406 -1.25 -32.171875 C -1.519531 -32.285156 -1.65625 -32.46875 -1.65625 -32.71875 C -1.65625 -32.988281 -1.519531 -33.1875 -1.25 -33.3125 C -0.976562 -33.4375 -0.609375 -33.515625 -0.140625 -33.546875 C 0.316406 -33.578125 0.828125 -33.59375 1.390625 -33.59375 C 2.234375 -33.59375 2.941406 -33.519531 3.515625 -33.375 C 4.097656 -33.238281 4.398438 -33.019531 4.421875 -32.71875 C 4.429688 -32.5 4.34375 -32.335938 4.15625 -32.234375 C 3.96875 -32.128906 3.664062 -32.0625 3.25 -32.03125 C 3.25 -32.007812 3.25 -31.976562 3.25 -31.9375 C 3.25 -31.894531 3.25 -31.863281 3.25 -31.84375 C 3.257812 -31.488281 3.253906 -31.015625 3.234375 -30.421875 C 3.222656 -29.828125 3.203125 -29.203125 3.171875 -28.546875 C 3.140625 -27.890625 3.109375 -27.265625 3.078125 -26.671875 C 3.054688 -26.085938 3.039062 -25.625 3.03125 -25.28125 C 2.976562 -23.90625 2.914062 -22.519531 2.84375 -21.125 C 2.78125 -19.726562 2.863281 -18.351562 3.09375 -17 C 3.113281 -16.8125 3.160156 -16.546875 3.234375 -16.203125 C 3.304688 -15.859375 3.40625 -15.5 3.53125 -15.125 C 3.65625 -14.757812 3.8125 -14.441406 4 -14.171875 C 4.1875 -13.898438 4.40625 -13.765625 4.65625 -13.765625 C 5.09375 -13.753906 5.507812 -13.957031 5.90625 -14.375 C 6.300781 -14.800781 6.671875 -15.367188 7.015625 -16.078125 C 7.367188 -16.796875 7.691406 -17.578125 7.984375 -18.421875 C 8.273438 -19.273438 8.535156 -20.132812 8.765625 -21 C 9.003906 -21.875 9.203125 -22.675781 9.359375 -23.40625 C 9.515625 -24.144531 9.628906 -24.75 9.703125 -25.21875 C 9.734375 -25.363281 9.816406 -25.445312 9.953125 -25.46875 C 10.097656 -25.5 10.234375 -25.484375 10.359375 -25.421875 C 10.492188 -25.359375 10.550781 -25.257812 10.53125 -25.125 C 10.414062 -24.414062 10.265625 -23.601562 10.078125 -22.6875 C 9.898438 -21.78125 9.679688 -20.835938 9.421875 -19.859375 C 9.171875 -18.890625 8.863281 -17.9375 8.5 -17 C 8.144531 -16.070312 7.734375 -15.234375 7.265625 -14.484375 C 6.796875 -13.734375 6.257812 -13.132812 5.65625 -12.6875 C 5.0625 -12.25 4.378906 -12.03125 3.609375 -12.03125 C 2.859375 -12.03125 2.148438 -12.269531 1.484375 -12.75 C 0.835938 -13.25 0.347656 -13.867188 0.015625 -14.609375 C -0.304688 -15.347656 -0.519531 -16.144531 -0.625 -17 C -0.738281 -17.851562 -0.789062 -18.707031 -0.78125 -19.5625 C -0.78125 -20.425781 -0.769531 -21.21875 -0.75 -21.9375 C -0.71875 -22.925781 -0.679688 -23.914062 -0.640625 -24.90625 C -0.609375 -25.90625 -0.578125 -26.898438 -0.546875 -27.890625 Z M 4.6875 -36.875 C 4.675781 -36.488281 4.410156 -36.160156 3.890625 -35.890625 C 3.367188 -35.617188 2.742188 -35.492188 2.015625 -35.515625 C 1.273438 -35.523438 0.644531 -35.671875 0.125 -35.953125 C -0.382812 -36.234375 -0.632812 -36.566406 -0.625 -36.953125 C -0.625 -37.210938 -0.503906 -37.445312 -0.265625 -37.65625 C -0.0234375 -37.863281 0.296875 -38.03125 0.703125 -38.15625 C 1.117188 -38.28125 1.566406 -38.335938 2.046875 -38.328125 C 2.773438 -38.304688 3.394531 -38.148438 3.90625 -37.859375 C 4.425781 -37.578125 4.6875 -37.25 4.6875 -36.875 Z M 4.6875 -36.875 "/></g></g></g><g fill="#ffffff" fill-opacity="1"><g transform="translate(222.61633, 63.499966)"><g><path d="M 13.65625 -26.890625 C 13.675781 -27.023438 13.734375 -27.097656 13.828125 -27.109375 C 13.921875 -27.117188 14.003906 -27.101562 14.078125 -27.0625 C 14.160156 -27.03125 14.203125 -26.992188 14.203125 -26.953125 C 14.097656 -24.972656 13.847656 -23.117188 13.453125 -21.390625 C 13.054688 -19.660156 12.535156 -18.125 11.890625 -16.78125 C 11.242188 -15.4375 10.5 -14.347656 9.65625 -13.515625 C 8.820312 -12.679688 7.914062 -12.164062 6.9375 -11.96875 C 6.269531 -11.84375 5.546875 -11.796875 4.765625 -11.828125 C 3.992188 -11.867188 3.25 -12.007812 2.53125 -12.25 C 1.820312 -12.5 1.210938 -12.863281 0.703125 -13.34375 C 0.117188 -13.90625 -0.347656 -14.539062 -0.703125 -15.25 C -1.054688 -15.957031 -1.3125 -16.707031 -1.46875 -17.5 C -1.625 -18.289062 -1.710938 -19.078125 -1.734375 -19.859375 C -1.835938 -22.515625 -1.550781 -25.128906 -0.875 -27.703125 C -0.71875 -28.285156 -0.53125 -28.898438 -0.3125 -29.546875 C -0.09375 -30.191406 0.171875 -30.816406 0.484375 -31.421875 C 0.796875 -32.035156 1.164062 -32.59375 1.59375 -33.09375 C 2.03125 -33.59375 2.535156 -34 3.109375 -34.3125 C 3.703125 -34.644531 4.351562 -34.828125 5.0625 -34.859375 C 5.78125 -34.898438 6.460938 -34.789062 7.109375 -34.53125 C 7.765625 -34.28125 8.289062 -33.867188 8.6875 -33.296875 C 9.039062 -32.816406 9.28125 -32.242188 9.40625 -31.578125 C 9.539062 -30.921875 9.609375 -30.253906 9.609375 -29.578125 C 9.609375 -28.898438 9.570312 -28.273438 9.5 -27.703125 C 9.425781 -27.140625 9.363281 -26.707031 9.3125 -26.40625 C 9.28125 -26.226562 9.148438 -26.0625 8.921875 -25.90625 C 8.691406 -25.75 8.410156 -25.613281 8.078125 -25.5 C 7.753906 -25.382812 7.4375 -25.316406 7.125 -25.296875 C 6.8125 -25.285156 6.550781 -25.320312 6.34375 -25.40625 C 6.132812 -25.5 6.03125 -25.664062 6.03125 -25.90625 C 6.019531 -26.5625 6.039062 -27.207031 6.09375 -27.84375 C 6.144531 -28.476562 6.15625 -29.109375 6.125 -29.734375 C 6.101562 -30.367188 5.976562 -31.007812 5.75 -31.65625 C 5.644531 -31.957031 5.554688 -32.195312 5.484375 -32.375 C 5.421875 -32.550781 5.335938 -32.628906 5.234375 -32.609375 C 5.140625 -32.585938 4.984375 -32.4375 4.765625 -32.15625 C 4.535156 -31.84375 4.328125 -31.503906 4.140625 -31.140625 C 3.960938 -30.785156 3.796875 -30.425781 3.640625 -30.0625 C 2.921875 -28.46875 2.429688 -26.769531 2.171875 -24.96875 C 1.910156 -23.175781 1.828125 -21.410156 1.921875 -19.671875 C 1.953125 -18.828125 2.039062 -18.050781 2.1875 -17.34375 C 2.332031 -16.644531 2.6875 -15.957031 3.25 -15.28125 C 3.363281 -15.132812 3.578125 -14.957031 3.890625 -14.75 C 4.210938 -14.550781 4.609375 -14.394531 5.078125 -14.28125 C 5.546875 -14.175781 6.0625 -14.175781 6.625 -14.28125 C 7.1875 -14.382812 7.773438 -14.664062 8.390625 -15.125 C 9.003906 -15.59375 9.617188 -16.300781 10.234375 -17.25 C 10.859375 -18.195312 11.460938 -19.457031 12.046875 -21.03125 C 12.640625 -22.613281 13.175781 -24.566406 13.65625 -26.890625 Z M 13.65625 -26.890625 "/></g></g></g><g fill="#ffffff" fill-opacity="1"><g transform="translate(236.169704, 63.499966)"><g><path d="M 15.640625 -27.5 C 15.660156 -27.5625 15.738281 -27.597656 15.875 -27.609375 C 16.019531 -27.628906 16.164062 -27.625 16.3125 -27.59375 C 16.457031 -27.570312 16.519531 -27.53125 16.5 -27.46875 C 16.3125 -25.832031 16.050781 -24.195312 15.71875 -22.5625 C 15.382812 -20.9375 14.9375 -19.347656 14.375 -17.796875 C 14.164062 -17.210938 13.929688 -16.613281 13.671875 -16 C 13.410156 -15.394531 13.09375 -14.859375 12.71875 -14.390625 C 12.351562 -13.921875 11.894531 -13.585938 11.34375 -13.390625 C 10.800781 -13.191406 10.140625 -13.195312 9.359375 -13.40625 C 8.722656 -13.582031 8.222656 -13.914062 7.859375 -14.40625 C 7.492188 -14.90625 7.222656 -15.492188 7.046875 -16.171875 C 6.867188 -16.847656 6.75 -17.539062 6.6875 -18.25 C 6.550781 -17.832031 6.40625 -17.414062 6.25 -17 C 6.101562 -16.59375 5.941406 -16.191406 5.765625 -15.796875 C 5.523438 -15.265625 5.238281 -14.757812 4.90625 -14.28125 C 4.582031 -13.8125 4.207031 -13.414062 3.78125 -13.09375 C 3.351562 -12.78125 2.875 -12.578125 2.34375 -12.484375 C 1.820312 -12.398438 1.238281 -12.484375 0.59375 -12.734375 C 0.03125 -12.953125 -0.414062 -13.28125 -0.75 -13.71875 C -1.09375 -14.15625 -1.351562 -14.644531 -1.53125 -15.1875 C -1.707031 -15.738281 -1.832031 -16.304688 -1.90625 -16.890625 C -1.976562 -17.484375 -2.023438 -18.039062 -2.046875 -18.5625 C -2.128906 -19.945312 -2.09375 -21.328125 -1.9375 -22.703125 C -1.78125 -24.078125 -1.519531 -25.4375 -1.15625 -26.78125 C -1 -27.351562 -0.816406 -27.96875 -0.609375 -28.625 C -0.410156 -29.28125 -0.175781 -29.929688 0.09375 -30.578125 C 0.375 -31.222656 0.695312 -31.820312 1.0625 -32.375 C 1.425781 -32.9375 1.851562 -33.414062 2.34375 -33.8125 C 2.71875 -34.113281 3.148438 -34.34375 3.640625 -34.5 C 4.140625 -34.664062 4.648438 -34.75 5.171875 -34.75 C 5.691406 -34.75 6.191406 -34.660156 6.671875 -34.484375 C 7.160156 -34.304688 7.570312 -34.03125 7.90625 -33.65625 C 7.9375 -33.625 7.960938 -33.59375 7.984375 -33.5625 C 8.015625 -33.53125 8.039062 -33.492188 8.0625 -33.453125 C 8.445312 -33.554688 8.835938 -33.59375 9.234375 -33.5625 C 9.640625 -33.539062 9.984375 -33.453125 10.265625 -33.296875 C 10.546875 -33.140625 10.671875 -32.921875 10.640625 -32.640625 C 10.515625 -30.828125 10.394531 -29 10.28125 -27.15625 C 10.175781 -25.3125 10.148438 -23.472656 10.203125 -21.640625 C 10.253906 -19.816406 10.453125 -18.007812 10.796875 -16.21875 C 10.816406 -16.082031 10.84375 -15.945312 10.875 -15.8125 C 10.90625 -15.675781 10.941406 -15.539062 10.984375 -15.40625 C 11.117188 -15.582031 11.25 -15.753906 11.375 -15.921875 C 11.5 -16.085938 11.613281 -16.253906 11.71875 -16.421875 C 12.082031 -16.960938 12.410156 -17.507812 12.703125 -18.0625 C 12.992188 -18.625 13.265625 -19.195312 13.515625 -19.78125 C 14.046875 -21.019531 14.484375 -22.28125 14.828125 -23.5625 C 15.179688 -24.84375 15.453125 -26.15625 15.640625 -27.5 Z M 5 -22.46875 C 5.351562 -23.695312 5.640625 -24.941406 5.859375 -26.203125 C 6.078125 -27.460938 6.289062 -28.722656 6.5 -29.984375 C 6.414062 -30.242188 6.300781 -30.5 6.15625 -30.75 C 6.019531 -30.96875 5.894531 -31.1875 5.78125 -31.40625 C 5.664062 -31.625 5.535156 -31.835938 5.390625 -32.046875 C 5.335938 -32.128906 5.28125 -32.207031 5.21875 -32.28125 C 5.164062 -32.363281 5.109375 -32.441406 5.046875 -32.515625 C 4.953125 -32.378906 4.863281 -32.238281 4.78125 -32.09375 C 4.695312 -31.945312 4.613281 -31.800781 4.53125 -31.65625 C 4.40625 -31.4375 4.28125 -31.207031 4.15625 -30.96875 C 4.039062 -30.726562 3.929688 -30.484375 3.828125 -30.234375 C 3.359375 -29.222656 2.96875 -28.1875 2.65625 -27.125 C 2.300781 -25.976562 2.035156 -24.800781 1.859375 -23.59375 C 1.691406 -22.394531 1.609375 -21.195312 1.609375 -20 C 1.609375 -19.46875 1.617188 -18.929688 1.640625 -18.390625 C 1.671875 -17.847656 1.726562 -17.3125 1.8125 -16.78125 C 1.84375 -16.625 1.890625 -16.375 1.953125 -16.03125 C 2.015625 -15.6875 2.109375 -15.359375 2.234375 -15.046875 C 2.460938 -15.367188 2.671875 -15.738281 2.859375 -16.15625 C 3.046875 -16.582031 3.210938 -16.988281 3.359375 -17.375 C 3.515625 -17.757812 3.625 -18.039062 3.6875 -18.21875 C 3.945312 -18.914062 4.179688 -19.617188 4.390625 -20.328125 C 4.597656 -21.035156 4.800781 -21.75 5 -22.46875 Z M 5 -22.46875 "/></g></g></g><g fill="#ffffff" fill-opacity="1"><g transform="translate(251.929888, 63.499966)"><g><path d="M 14.8125 -7.890625 C 14.914062 -7.921875 15.070312 -7.9375 15.28125 -7.9375 C 15.5 -7.9375 15.617188 -7.84375 15.640625 -7.65625 C 15.691406 -7.332031 15.625 -7.078125 15.4375 -6.890625 C 15.257812 -6.703125 15.023438 -6.5625 14.734375 -6.46875 C 14.453125 -6.382812 14.175781 -6.328125 13.90625 -6.296875 C 13.21875 -6.203125 12.539062 -6.265625 11.875 -6.484375 C 11.207031 -6.703125 10.648438 -7.082031 10.203125 -7.625 C 9.804688 -8.207031 9.488281 -8.960938 9.25 -9.890625 C 9.007812 -10.828125 8.851562 -11.988281 8.78125 -13.375 C 8.707031 -14.769531 8.726562 -16.4375 8.84375 -18.375 C 8.96875 -20.320312 9.1875 -22.585938 9.5 -25.171875 C 9.820312 -27.765625 10.25 -30.726562 10.78125 -34.0625 C 10.78125 -34.5625 10.773438 -35.0625 10.765625 -35.5625 C 10.765625 -36.0625 10.75 -36.550781 10.71875 -37.03125 C 10.707031 -37.070312 10.703125 -37.109375 10.703125 -37.140625 C 10.703125 -37.179688 10.703125 -37.222656 10.703125 -37.265625 C 10.492188 -36.898438 10.316406 -36.601562 10.171875 -36.375 C 9.890625 -35.925781 9.640625 -35.46875 9.421875 -35 C 9.210938 -34.53125 9.003906 -34.054688 8.796875 -33.578125 C 8.347656 -32.546875 7.953125 -31.488281 7.609375 -30.40625 C 7.273438 -29.332031 6.957031 -28.253906 6.65625 -27.171875 C 6.0625 -24.941406 5.476562 -22.691406 4.90625 -20.421875 C 4.332031 -18.160156 3.785156 -15.90625 3.265625 -13.65625 C 3.210938 -13.4375 3.070312 -13.265625 2.84375 -13.140625 C 2.625 -13.015625 2.367188 -12.941406 2.078125 -12.921875 C 1.796875 -12.898438 1.53125 -12.929688 1.28125 -13.015625 C 1.039062 -13.097656 0.867188 -13.234375 0.765625 -13.421875 C 0.253906 -14.347656 -0.113281 -15.335938 -0.34375 -16.390625 C -0.582031 -17.441406 -0.734375 -18.515625 -0.796875 -19.609375 C -0.867188 -20.703125 -0.910156 -21.757812 -0.921875 -22.78125 C -0.921875 -23.738281 -0.890625 -24.695312 -0.828125 -25.65625 C -0.773438 -26.625 -0.695312 -27.546875 -0.59375 -28.421875 C -0.488281 -29.304688 -0.367188 -30.09375 -0.234375 -30.78125 C -0.109375 -31.46875 0.0234375 -32.015625 0.171875 -32.421875 C 0.242188 -32.617188 0.425781 -32.785156 0.71875 -32.921875 C 1.007812 -33.066406 1.328125 -33.15625 1.671875 -33.1875 C 2.023438 -33.226562 2.328125 -33.1875 2.578125 -33.0625 C 2.835938 -32.945312 2.957031 -32.722656 2.9375 -32.390625 C 2.832031 -30.640625 2.773438 -28.984375 2.765625 -27.421875 C 2.753906 -25.859375 2.796875 -24.269531 2.890625 -22.65625 C 2.898438 -22.425781 2.910156 -22.191406 2.921875 -21.953125 C 2.941406 -21.722656 2.957031 -21.488281 2.96875 -21.25 C 3.3125 -22.71875 3.648438 -24.179688 3.984375 -25.640625 C 4.328125 -27.097656 4.71875 -28.539062 5.15625 -29.96875 C 5.570312 -31.269531 6.035156 -32.550781 6.546875 -33.8125 C 7.054688 -35.070312 7.582031 -36.328125 8.125 -37.578125 C 8.332031 -38.046875 8.578125 -38.507812 8.859375 -38.96875 C 9.140625 -39.4375 9.460938 -39.835938 9.828125 -40.171875 C 10.203125 -40.503906 10.625 -40.710938 11.09375 -40.796875 C 11.3125 -40.835938 11.578125 -40.800781 11.890625 -40.6875 C 12.203125 -40.582031 12.519531 -40.429688 12.84375 -40.234375 C 13.164062 -40.035156 13.445312 -39.832031 13.6875 -39.625 C 13.925781 -39.414062 14.078125 -39.234375 14.140625 -39.078125 C 14.359375 -38.523438 14.5 -37.898438 14.5625 -37.203125 C 14.632812 -36.515625 14.65625 -35.84375 14.625 -35.1875 C 14.601562 -34.539062 14.566406 -34 14.515625 -33.5625 C 14.410156 -32.644531 14.265625 -31.609375 14.078125 -30.453125 C 13.898438 -29.304688 13.707031 -28.082031 13.5 -26.78125 C 13.289062 -25.476562 13.09375 -24.148438 12.90625 -22.796875 C 12.726562 -21.441406 12.582031 -20.101562 12.46875 -18.78125 C 12.363281 -17.457031 12.3125 -16.195312 12.3125 -15 C 12.3125 -13.8125 12.390625 -12.726562 12.546875 -11.75 C 12.710938 -10.78125 12.976562 -9.957031 13.34375 -9.28125 C 13.707031 -8.613281 14.195312 -8.148438 14.8125 -7.890625 Z M 14.8125 -7.890625 "/></g></g></g><g fill="#ffffff" fill-opacity="1"><g transform="translate(268.725121, 63.499966)"><g><path d="M 15.640625 -27.5 C 15.660156 -27.5625 15.738281 -27.597656 15.875 -27.609375 C 16.019531 -27.628906 16.164062 -27.625 16.3125 -27.59375 C 16.457031 -27.570312 16.519531 -27.53125 16.5 -27.46875 C 16.3125 -25.832031 16.050781 -24.195312 15.71875 -22.5625 C 15.382812 -20.9375 14.9375 -19.347656 14.375 -17.796875 C 14.164062 -17.210938 13.929688 -16.613281 13.671875 -16 C 13.410156 -15.394531 13.09375 -14.859375 12.71875 -14.390625 C 12.351562 -13.921875 11.894531 -13.585938 11.34375 -13.390625 C 10.800781 -13.191406 10.140625 -13.195312 9.359375 -13.40625 C 8.722656 -13.582031 8.222656 -13.914062 7.859375 -14.40625 C 7.492188 -14.90625 7.222656 -15.492188 7.046875 -16.171875 C 6.867188 -16.847656 6.75 -17.539062 6.6875 -18.25 C 6.550781 -17.832031 6.40625 -17.414062 6.25 -17 C 6.101562 -16.59375 5.941406 -16.191406 5.765625 -15.796875 C 5.523438 -15.265625 5.238281 -14.757812 4.90625 -14.28125 C 4.582031 -13.8125 4.207031 -13.414062 3.78125 -13.09375 C 3.351562 -12.78125 2.875 -12.578125 2.34375 -12.484375 C 1.820312 -12.398438 1.238281 -12.484375 0.59375 -12.734375 C 0.03125 -12.953125 -0.414062 -13.28125 -0.75 -13.71875 C -1.09375 -14.15625 -1.351562 -14.644531 -1.53125 -15.1875 C -1.707031 -15.738281 -1.832031 -16.304688 -1.90625 -16.890625 C -1.976562 -17.484375 -2.023438 -18.039062 -2.046875 -18.5625 C -2.128906 -19.945312 -2.09375 -21.328125 -1.9375 -22.703125 C -1.78125 -24.078125 -1.519531 -25.4375 -1.15625 -26.78125 C -1 -27.351562 -0.816406 -27.96875 -0.609375 -28.625 C -0.410156 -29.28125 -0.175781 -29.929688 0.09375 -30.578125 C 0.375 -31.222656 0.695312 -31.820312 1.0625 -32.375 C 1.425781 -32.9375 1.851562 -33.414062 2.34375 -33.8125 C 2.71875 -34.113281 3.148438 -34.34375 3.640625 -34.5 C 4.140625 -34.664062 4.648438 -34.75 5.171875 -34.75 C 5.691406 -34.75 6.191406 -34.660156 6.671875 -34.484375 C 7.160156 -34.304688 7.570312 -34.03125 7.90625 -33.65625 C 7.9375 -33.625 7.960938 -33.59375 7.984375 -33.5625 C 8.015625 -33.53125 8.039062 -33.492188 8.0625 -33.453125 C 8.445312 -33.554688 8.835938 -33.59375 9.234375 -33.5625 C 9.640625 -33.539062 9.984375 -33.453125 10.265625 -33.296875 C 10.546875 -33.140625 10.671875 -32.921875 10.640625 -32.640625 C 10.515625 -30.828125 10.394531 -29 10.28125 -27.15625 C 10.175781 -25.3125 10.148438 -23.472656 10.203125 -21.640625 C 10.253906 -19.816406 10.453125 -18.007812 10.796875 -16.21875 C 10.816406 -16.082031 10.84375 -15.945312 10.875 -15.8125 C 10.90625 -15.675781 10.941406 -15.539062 10.984375 -15.40625 C 11.117188 -15.582031 11.25 -15.753906 11.375 -15.921875 C 11.5 -16.085938 11.613281 -16.253906 11.71875 -16.421875 C 12.082031 -16.960938 12.410156 -17.507812 12.703125 -18.0625 C 12.992188 -18.625 13.265625 -19.195312 13.515625 -19.78125 C 14.046875 -21.019531 14.484375 -22.28125 14.828125 -23.5625 C 15.179688 -24.84375 15.453125 -26.15625 15.640625 -27.5 Z M 5 -22.46875 C 5.351562 -23.695312 5.640625 -24.941406 5.859375 -26.203125 C 6.078125 -27.460938 6.289062 -28.722656 6.5 -29.984375 C 6.414062 -30.242188 6.300781 -30.5 6.15625 -30.75 C 6.019531 -30.96875 5.894531 -31.1875 5.78125 -31.40625 C 5.664062 -31.625 5.535156 -31.835938 5.390625 -32.046875 C 5.335938 -32.128906 5.28125 -32.207031 5.21875 -32.28125 C 5.164062 -32.363281 5.109375 -32.441406 5.046875 -32.515625 C 4.953125 -32.378906 4.863281 -32.238281 4.78125 -32.09375 C 4.695312 -31.945312 4.613281 -31.800781 4.53125 -31.65625 C 4.40625 -31.4375 4.28125 -31.207031 4.15625 -30.96875 C 4.039062 -30.726562 3.929688 -30.484375 3.828125 -30.234375 C 3.359375 -29.222656 2.96875 -28.1875 2.65625 -27.125 C 2.300781 -25.976562 2.035156 -24.800781 1.859375 -23.59375 C 1.691406 -22.394531 1.609375 -21.195312 1.609375 -20 C 1.609375 -19.46875 1.617188 -18.929688 1.640625 -18.390625 C 1.671875 -17.847656 1.726562 -17.3125 1.8125 -16.78125 C 1.84375 -16.625 1.890625 -16.375 1.953125 -16.03125 C 2.015625 -15.6875 2.109375 -15.359375 2.234375 -15.046875 C 2.460938 -15.367188 2.671875 -15.738281 2.859375 -16.15625 C 3.046875 -16.582031 3.210938 -16.988281 3.359375 -17.375 C 3.515625 -17.757812 3.625 -18.039062 3.6875 -18.21875 C 3.945312 -18.914062 4.179688 -19.617188 4.390625 -20.328125 C 4.597656 -21.035156 4.800781 -21.75 5 -22.46875 Z M 5 -22.46875 "/></g></g></g></svg>