<svg xmlns="http://www.w3.org/2000/svg" xmlns:xlink="http://www.w3.org/1999/xlink" width="1000" zoomAndPan="magnify" viewBox="0 0 750 74.999997" height="100" preserveAspectRatio="xMidYMid meet" version="1.0"><defs><g/></defs><g fill="#ffffff" fill-opacity="1"><g transform="translate(18.210951, 63.499974)"><g><path d="M 1.796875 -51.78125 C 2.296875 -53.070312 2.835938 -54.109375 3.421875 -54.890625 C 4.003906 -55.671875 4.597656 -56.253906 5.203125 -56.640625 C 5.804688 -57.035156 6.375 -57.285156 6.90625 -57.390625 C 7.445312 -57.492188 7.90625 -57.507812 8.28125 -57.4375 C 9.257812 -57.28125 10.070312 -56.953125 10.71875 -56.453125 C 11.363281 -55.953125 11.890625 -55.335938 12.296875 -54.609375 C 12.703125 -53.890625 13.03125 -53.113281 13.28125 -52.28125 C 13.53125 -51.445312 13.738281 -50.609375 13.90625 -49.765625 C 14.164062 -48.472656 14.375 -47.175781 14.53125 -45.875 C 14.6875 -44.570312 14.804688 -43.265625 14.890625 -41.953125 C 14.992188 -42.242188 15.09375 -42.523438 15.1875 -42.796875 C 15.28125 -43.078125 15.390625 -43.359375 15.515625 -43.640625 C 16.148438 -45.222656 16.925781 -46.734375 17.84375 -48.171875 C 18.757812 -49.609375 19.84375 -50.882812 21.09375 -52 C 22.34375 -53.125 23.796875 -53.992188 25.453125 -54.609375 C 26.148438 -54.867188 26.894531 -55.070312 27.6875 -55.21875 C 28.488281 -55.375 29.285156 -55.429688 30.078125 -55.390625 C 30.867188 -55.347656 31.613281 -55.171875 32.3125 -54.859375 C 32.90625 -54.585938 33.347656 -54.25 33.640625 -53.84375 C 33.929688 -53.445312 34.113281 -52.992188 34.1875 -52.484375 C 34.257812 -51.984375 34.265625 -51.460938 34.203125 -50.921875 C 34.140625 -50.390625 34.046875 -49.851562 33.921875 -49.3125 C 33.523438 -47.476562 33.046875 -45.65625 32.484375 -43.84375 C 31.921875 -42.039062 31.25 -40.28125 30.46875 -38.5625 C 29.695312 -36.84375 28.765625 -35.203125 27.671875 -33.640625 C 27.140625 -32.878906 26.539062 -32.097656 25.875 -31.296875 C 25.21875 -30.492188 24.5 -29.722656 23.71875 -28.984375 C 22.9375 -28.242188 22.109375 -27.582031 21.234375 -27 C 21.503906 -26.84375 21.765625 -26.660156 22.015625 -26.453125 C 22.753906 -25.828125 23.351562 -25.101562 23.8125 -24.28125 C 24.28125 -23.457031 24.648438 -22.582031 24.921875 -21.65625 C 25.191406 -20.738281 25.398438 -19.800781 25.546875 -18.84375 C 25.691406 -17.882812 25.8125 -16.957031 25.90625 -16.0625 C 26.007812 -15 26.09375 -13.9375 26.15625 -12.875 C 26.226562 -11.820312 26.273438 -10.765625 26.296875 -9.703125 C 26.304688 -9.066406 26.320312 -8.4375 26.34375 -7.8125 C 26.363281 -7.195312 26.445312 -6.59375 26.59375 -6 C 26.738281 -5.414062 27.003906 -4.84375 27.390625 -4.28125 C 27.628906 -3.9375 27.910156 -3.617188 28.234375 -3.328125 C 28.554688 -3.046875 28.910156 -2.835938 29.296875 -2.703125 C 29.691406 -2.566406 30.101562 -2.550781 30.53125 -2.65625 C 31.113281 -2.800781 31.609375 -3.117188 32.015625 -3.609375 C 32.421875 -4.097656 32.726562 -4.609375 32.9375 -5.140625 C 33.039062 -5.421875 33.113281 -5.796875 33.15625 -6.265625 C 33.195312 -6.734375 33.191406 -7.210938 33.140625 -7.703125 C 33.085938 -8.191406 32.972656 -8.613281 32.796875 -8.96875 C 32.628906 -9.320312 32.378906 -9.535156 32.046875 -9.609375 C 31.722656 -9.691406 31.304688 -9.550781 30.796875 -9.1875 C 30.691406 -9.113281 30.53125 -9.082031 30.3125 -9.09375 C 30.101562 -9.113281 29.976562 -9.203125 29.9375 -9.359375 C 29.863281 -9.691406 29.921875 -9.957031 30.109375 -10.15625 C 30.296875 -10.363281 30.550781 -10.515625 30.875 -10.609375 C 31.207031 -10.703125 31.539062 -10.75 31.875 -10.75 C 32.21875 -10.757812 32.5 -10.738281 32.71875 -10.6875 C 33.300781 -10.570312 33.773438 -10.320312 34.140625 -9.9375 C 34.515625 -9.550781 34.796875 -9.097656 34.984375 -8.578125 C 35.179688 -8.054688 35.289062 -7.519531 35.3125 -6.96875 C 35.363281 -5.957031 35.179688 -5.046875 34.765625 -4.234375 C 34.347656 -3.421875 33.773438 -2.753906 33.046875 -2.234375 C 32.316406 -1.710938 31.492188 -1.390625 30.578125 -1.265625 C 29.671875 -1.140625 28.742188 -1.253906 27.796875 -1.609375 C 26.953125 -1.929688 26.226562 -2.394531 25.625 -3 C 25.03125 -3.601562 24.53125 -4.300781 24.125 -5.09375 C 23.726562 -5.894531 23.40625 -6.738281 23.15625 -7.625 C 22.914062 -8.507812 22.734375 -9.394531 22.609375 -10.28125 C 22.484375 -11.175781 22.390625 -12.015625 22.328125 -12.796875 C 22.222656 -14.148438 22.101562 -15.492188 21.96875 -16.828125 C 21.84375 -18.160156 21.644531 -19.484375 21.375 -20.796875 C 21.289062 -21.210938 21.207031 -21.664062 21.125 -22.15625 C 21.039062 -22.65625 20.9375 -23.15625 20.8125 -23.65625 C 20.6875 -24.164062 20.53125 -24.628906 20.34375 -25.046875 C 20.15625 -25.460938 19.910156 -25.800781 19.609375 -26.0625 C 19.085938 -25.8125 18.5625 -25.597656 18.03125 -25.421875 C 17.5 -25.253906 16.957031 -25.144531 16.40625 -25.09375 C 16.050781 -25.0625 15.738281 -25.035156 15.46875 -25.015625 C 15.207031 -25.003906 14.988281 -25.003906 14.8125 -25.015625 C 14.65625 -22.566406 14.398438 -20.125 14.046875 -17.6875 C 13.703125 -15.257812 13.21875 -12.847656 12.59375 -10.453125 C 12.382812 -9.628906 12.144531 -8.773438 11.875 -7.890625 C 11.613281 -7.015625 11.296875 -6.160156 10.921875 -5.328125 C 10.554688 -4.492188 10.097656 -3.734375 9.546875 -3.046875 C 8.992188 -2.359375 8.3125 -1.789062 7.5 -1.34375 C 7.269531 -1.21875 6.921875 -1.085938 6.453125 -0.953125 C 5.992188 -0.816406 5.472656 -0.695312 4.890625 -0.59375 C 4.316406 -0.5 3.738281 -0.441406 3.15625 -0.421875 C 2.570312 -0.410156 2.039062 -0.460938 1.5625 -0.578125 C 1.09375 -0.703125 0.726562 -0.910156 0.46875 -1.203125 C 0.21875 -1.492188 0.140625 -1.894531 0.234375 -2.40625 C 0.273438 -2.601562 0.378906 -2.734375 0.546875 -2.796875 C 0.710938 -2.867188 0.90625 -2.90625 1.125 -2.90625 C 1.34375 -2.90625 1.515625 -2.890625 1.640625 -2.859375 C 2.054688 -2.753906 2.460938 -2.65625 2.859375 -2.5625 C 3.253906 -2.46875 3.644531 -2.441406 4.03125 -2.484375 C 4.414062 -2.523438 4.796875 -2.679688 5.171875 -2.953125 C 5.773438 -3.390625 6.257812 -3.945312 6.625 -4.625 C 7 -5.300781 7.316406 -5.976562 7.578125 -6.65625 C 8.210938 -8.289062 8.722656 -9.960938 9.109375 -11.671875 C 9.503906 -13.378906 9.84375 -15.085938 10.125 -16.796875 C 10.613281 -19.921875 10.921875 -23.066406 11.046875 -26.234375 C 11.179688 -29.410156 11.242188 -32.570312 11.234375 -35.71875 C 11.222656 -37.3125 11.191406 -38.890625 11.140625 -40.453125 C 11.085938 -42.023438 10.96875 -43.597656 10.78125 -45.171875 C 10.675781 -46.128906 10.554688 -47.128906 10.421875 -48.171875 C 10.296875 -49.210938 10.101562 -50.234375 9.84375 -51.234375 C 9.59375 -52.242188 9.222656 -53.164062 8.734375 -54 C 8.628906 -54.1875 8.492188 -54.394531 8.328125 -54.625 C 8.171875 -54.851562 7.992188 -55.050781 7.796875 -55.21875 C 7.597656 -55.394531 7.382812 -55.484375 7.15625 -55.484375 C 6.945312 -55.484375 6.691406 -55.421875 6.390625 -55.296875 C 6.085938 -55.179688 5.765625 -54.945312 5.421875 -54.59375 C 5.078125 -54.238281 4.722656 -53.734375 4.359375 -53.078125 C 4.003906 -52.421875 3.660156 -51.566406 3.328125 -50.515625 C 2.835938 -48.972656 2.472656 -47.394531 2.234375 -45.78125 C 1.992188 -44.175781 1.835938 -42.578125 1.765625 -40.984375 C 1.742188 -40.671875 1.734375 -40.234375 1.734375 -39.671875 C 1.734375 -39.117188 1.753906 -38.523438 1.796875 -37.890625 C 1.847656 -37.265625 1.925781 -36.660156 2.03125 -36.078125 C 2.144531 -35.503906 2.300781 -35.023438 2.5 -34.640625 C 2.695312 -34.253906 2.953125 -34.050781 3.265625 -34.03125 C 3.578125 -34 3.851562 -34.148438 4.09375 -34.484375 C 4.34375 -34.828125 4.5625 -35.296875 4.75 -35.890625 C 4.945312 -36.484375 5.113281 -37.148438 5.25 -37.890625 C 5.394531 -38.628906 5.519531 -39.394531 5.625 -40.1875 C 5.738281 -40.976562 5.835938 -41.738281 5.921875 -42.46875 C 6.015625 -43.195312 6.097656 -43.832031 6.171875 -44.375 C 6.203125 -44.519531 6.296875 -44.628906 6.453125 -44.703125 C 6.609375 -44.785156 6.789062 -44.828125 7 -44.828125 C 7.207031 -44.828125 7.390625 -44.789062 7.546875 -44.71875 C 7.703125 -44.65625 7.785156 -44.546875 7.796875 -44.390625 C 7.910156 -43.109375 7.90625 -41.820312 7.78125 -40.53125 C 7.65625 -39.25 7.472656 -37.972656 7.234375 -36.703125 C 7.148438 -36.296875 7.015625 -35.835938 6.828125 -35.328125 C 6.640625 -34.828125 6.394531 -34.335938 6.09375 -33.859375 C 5.789062 -33.378906 5.4375 -32.984375 5.03125 -32.671875 C 4.625 -32.359375 4.144531 -32.191406 3.59375 -32.171875 C 2.96875 -32.140625 2.429688 -32.265625 1.984375 -32.546875 C 1.535156 -32.835938 1.160156 -33.238281 0.859375 -33.75 C 0.554688 -34.257812 0.316406 -34.832031 0.140625 -35.46875 C -0.0351562 -36.101562 -0.160156 -36.765625 -0.234375 -37.453125 C -0.316406 -38.148438 -0.359375 -38.816406 -0.359375 -39.453125 C -0.335938 -41.515625 -0.15625 -43.601562 0.1875 -45.71875 C 0.539062 -47.832031 1.078125 -49.851562 1.796875 -51.78125 Z M 15 -29.65625 C 14.976562 -28.664062 14.941406 -27.679688 14.890625 -26.703125 C 15.328125 -26.953125 15.816406 -27.164062 16.359375 -27.34375 C 16.910156 -27.53125 17.347656 -27.726562 17.671875 -27.9375 C 18.265625 -28.3125 18.828125 -28.710938 19.359375 -29.140625 C 19.898438 -29.566406 20.414062 -30.023438 20.90625 -30.515625 C 21.851562 -31.421875 22.71875 -32.394531 23.5 -33.4375 C 24.28125 -34.476562 24.988281 -35.570312 25.625 -36.71875 C 26.382812 -38.070312 27.046875 -39.46875 27.609375 -40.90625 C 28.171875 -42.34375 28.671875 -43.800781 29.109375 -45.28125 C 29.316406 -45.976562 29.503906 -46.675781 29.671875 -47.375 C 29.847656 -48.082031 30.015625 -48.796875 30.171875 -49.515625 C 30.222656 -49.742188 30.285156 -50.046875 30.359375 -50.421875 C 30.441406 -50.796875 30.5 -51.175781 30.53125 -51.5625 C 30.570312 -51.957031 30.539062 -52.316406 30.4375 -52.640625 C 30.34375 -52.960938 30.140625 -53.195312 29.828125 -53.34375 C 29.503906 -53.488281 29.113281 -53.507812 28.65625 -53.40625 C 28.207031 -53.300781 27.765625 -53.144531 27.328125 -52.9375 C 26.898438 -52.738281 26.539062 -52.5625 26.25 -52.40625 C 25.726562 -52.113281 25.234375 -51.78125 24.765625 -51.40625 C 24.296875 -51.039062 23.851562 -50.648438 23.4375 -50.234375 C 23.070312 -49.859375 22.617188 -49.34375 22.078125 -48.6875 C 21.535156 -48.039062 20.945312 -47.195312 20.3125 -46.15625 C 19.6875 -45.125 19.050781 -43.847656 18.40625 -42.328125 C 17.757812 -40.816406 17.144531 -39.019531 16.5625 -36.9375 C 15.976562 -34.851562 15.457031 -32.425781 15 -29.65625 Z M 15 -29.65625 "/></g></g></g><g fill="#ffffff" fill-opacity="1"><g transform="translate(48.891552, 63.499974)"><g><path d="M 7.9375 -24.203125 C 7.570312 -23.585938 7.140625 -23.019531 6.640625 -22.5 C 6.148438 -21.988281 5.59375 -21.585938 4.96875 -21.296875 C 4.351562 -21.015625 3.660156 -20.910156 2.890625 -20.984375 C 2.816406 -20.984375 2.738281 -20.988281 2.65625 -21 C 2.582031 -21.007812 2.503906 -21.019531 2.421875 -21.03125 C 2.472656 -20.320312 2.570312 -19.628906 2.71875 -18.953125 C 2.875 -18.273438 3.097656 -17.664062 3.390625 -17.125 C 3.691406 -16.582031 4.085938 -16.140625 4.578125 -15.796875 C 5.078125 -15.460938 5.6875 -15.28125 6.40625 -15.25 C 7.03125 -15.226562 7.617188 -15.375 8.171875 -15.6875 C 8.722656 -16 9.234375 -16.410156 9.703125 -16.921875 C 10.171875 -17.441406 10.597656 -17.988281 10.984375 -18.5625 C 11.378906 -19.132812 11.734375 -19.671875 12.046875 -20.171875 C 12.148438 -20.347656 12.296875 -20.628906 12.484375 -21.015625 C 12.679688 -21.410156 12.890625 -21.863281 13.109375 -22.375 C 13.328125 -22.882812 13.539062 -23.414062 13.75 -23.96875 C 13.96875 -24.53125 14.160156 -25.078125 14.328125 -25.609375 C 14.492188 -26.140625 14.613281 -26.609375 14.6875 -27.015625 C 14.738281 -27.285156 14.851562 -27.457031 15.03125 -27.53125 C 15.207031 -27.613281 15.367188 -27.609375 15.515625 -27.515625 C 15.671875 -27.429688 15.710938 -27.257812 15.640625 -27 C 15.484375 -26.300781 15.257812 -25.507812 14.96875 -24.625 C 14.675781 -23.738281 14.34375 -22.832031 13.96875 -21.90625 C 13.59375 -20.976562 13.195312 -20.078125 12.78125 -19.203125 C 12.257812 -18.097656 11.648438 -17.09375 10.953125 -16.1875 C 10.253906 -15.28125 9.488281 -14.550781 8.65625 -14 C 7.832031 -13.457031 6.953125 -13.15625 6.015625 -13.09375 C 5.140625 -13.019531 4.296875 -13.097656 3.484375 -13.328125 C 2.671875 -13.566406 1.945312 -13.953125 1.3125 -14.484375 C 0.675781 -15.023438 0.160156 -15.707031 -0.234375 -16.53125 C -0.597656 -17.332031 -0.859375 -18.1875 -1.015625 -19.09375 C -1.171875 -20.007812 -1.25 -20.9375 -1.25 -21.875 C -1.257812 -22.820312 -1.238281 -23.726562 -1.1875 -24.59375 C -1.15625 -25.289062 -1.0625 -26.0625 -0.90625 -26.90625 C -0.757812 -27.75 -0.546875 -28.601562 -0.265625 -29.46875 C 0.00390625 -30.34375 0.34375 -31.179688 0.75 -31.984375 C 1.164062 -32.796875 1.648438 -33.519531 2.203125 -34.15625 C 2.765625 -34.800781 3.40625 -35.3125 4.125 -35.6875 C 4.84375 -36.0625 5.644531 -36.25 6.53125 -36.25 C 7.382812 -36.25 8.070312 -36.082031 8.59375 -35.75 C 9.113281 -35.414062 9.492188 -34.957031 9.734375 -34.375 C 9.972656 -33.800781 10.109375 -33.148438 10.140625 -32.421875 C 10.179688 -31.703125 10.132812 -30.945312 10 -30.15625 C 9.875 -29.375 9.691406 -28.601562 9.453125 -27.84375 C 9.222656 -27.09375 8.972656 -26.398438 8.703125 -25.765625 C 8.429688 -25.140625 8.175781 -24.617188 7.9375 -24.203125 Z M 2.390625 -22.5 C 2.421875 -22.476562 2.457031 -22.453125 2.5 -22.421875 C 2.539062 -22.398438 2.585938 -22.375 2.640625 -22.34375 C 3.023438 -22.144531 3.382812 -22.101562 3.71875 -22.21875 C 4.0625 -22.332031 4.375 -22.53125 4.65625 -22.8125 C 4.945312 -23.101562 5.203125 -23.421875 5.421875 -23.765625 C 5.648438 -24.109375 5.84375 -24.410156 6 -24.671875 C 6.570312 -25.703125 7.03125 -26.789062 7.375 -27.9375 C 7.71875 -29.082031 7.894531 -30.238281 7.90625 -31.40625 C 7.925781 -31.707031 7.914062 -32.078125 7.875 -32.515625 C 7.84375 -32.960938 7.757812 -33.390625 7.625 -33.796875 C 7.5 -34.210938 7.28125 -34.503906 6.96875 -34.671875 C 6.6875 -34.835938 6.328125 -34.757812 5.890625 -34.4375 C 5.453125 -34.125 5.007812 -33.597656 4.5625 -32.859375 C 4.113281 -32.128906 3.710938 -31.210938 3.359375 -30.109375 C 3.003906 -29.003906 2.757812 -27.757812 2.625 -26.375 C 2.582031 -25.957031 2.53125 -25.40625 2.46875 -24.71875 C 2.414062 -24.03125 2.390625 -23.289062 2.390625 -22.5 Z M 2.390625 -22.5 "/></g></g></g><g fill="#ffffff" fill-opacity="1"><g transform="translate(63.733851, 63.499974)"><g><path d="M 14.75 -25.140625 C 14.800781 -25.265625 14.914062 -25.347656 15.09375 -25.390625 C 15.269531 -25.441406 15.453125 -25.453125 15.640625 -25.421875 C 15.835938 -25.390625 16 -25.328125 16.125 -25.234375 C 16.25 -25.140625 16.285156 -25.015625 16.234375 -24.859375 C 15.578125 -23.054688 14.804688 -21.53125 13.921875 -20.28125 C 13.035156 -19.039062 12.050781 -18.03125 10.96875 -17.25 C 9.894531 -16.46875 8.71875 -15.863281 7.4375 -15.4375 C 7.894531 -15.050781 8.296875 -14.59375 8.640625 -14.0625 C 9.023438 -13.425781 9.320312 -12.828125 9.53125 -12.265625 C 9.738281 -11.703125 9.878906 -11.128906 9.953125 -10.546875 C 10.023438 -9.960938 10.035156 -9.304688 9.984375 -8.578125 C 9.785156 -5.609375 9.160156 -3.351562 8.109375 -1.8125 C 7.054688 -0.28125 5.554688 0.476562 3.609375 0.46875 C 3.023438 0.457031 2.519531 0.273438 2.09375 -0.078125 C 1.675781 -0.429688 1.332031 -0.875 1.0625 -1.40625 C 0.800781 -1.9375 0.59375 -2.476562 0.4375 -3.03125 C 0.101562 -4.175781 -0.125 -5.351562 -0.25 -6.5625 C -0.375 -7.769531 -0.492188 -8.96875 -0.609375 -10.15625 C -0.722656 -11.4375 -0.816406 -12.71875 -0.890625 -14 C -0.960938 -15.289062 -1.007812 -16.582031 -1.03125 -17.875 C -1.070312 -20.394531 -1.007812 -22.914062 -0.84375 -25.4375 C -0.6875 -27.957031 -0.429688 -30.46875 -0.078125 -32.96875 C 0.242188 -35.257812 0.632812 -37.5625 1.09375 -39.875 C 1.5625 -42.1875 2.207031 -44.421875 3.03125 -46.578125 C 3.289062 -47.273438 3.601562 -48.039062 3.96875 -48.875 C 4.332031 -49.707031 4.742188 -50.519531 5.203125 -51.3125 C 5.671875 -52.113281 6.191406 -52.820312 6.765625 -53.4375 C 7.335938 -54.050781 7.96875 -54.492188 8.65625 -54.765625 C 9.351562 -55.035156 10.113281 -55.050781 10.9375 -54.8125 C 11.757812 -54.5625 12.394531 -54.007812 12.84375 -53.15625 C 13.300781 -52.300781 13.578125 -51.207031 13.671875 -49.875 C 13.773438 -48.550781 13.707031 -47.050781 13.46875 -45.375 C 13.226562 -43.695312 12.820312 -41.898438 12.25 -39.984375 C 11.675781 -38.066406 10.945312 -36.097656 10.0625 -34.078125 C 9.175781 -32.066406 8.132812 -30.054688 6.9375 -28.046875 C 5.75 -26.046875 4.421875 -24.113281 2.953125 -22.25 C 2.910156 -22.238281 2.847656 -22.179688 2.765625 -22.078125 C 2.679688 -21.984375 2.640625 -21.910156 2.640625 -21.859375 C 2.628906 -20.867188 2.625 -19.878906 2.625 -18.890625 C 2.625 -17.910156 2.640625 -16.925781 2.671875 -15.9375 C 3.179688 -16.25 3.71875 -16.425781 4.28125 -16.46875 C 4.851562 -16.507812 5.410156 -16.4375 5.953125 -16.25 C 7.953125 -17.0625 9.710938 -18.210938 11.234375 -19.703125 C 12.753906 -21.191406 13.925781 -23.003906 14.75 -25.140625 Z M 6.390625 -45.640625 C 5.617188 -43.503906 4.992188 -41.300781 4.515625 -39.03125 C 4.035156 -36.769531 3.660156 -34.484375 3.390625 -32.171875 C 3.117188 -29.867188 2.921875 -27.582031 2.796875 -25.3125 C 3.179688 -25.882812 3.59375 -26.453125 4.03125 -27.015625 C 4.550781 -27.703125 5.039062 -28.40625 5.5 -29.125 C 5.957031 -29.84375 6.394531 -30.570312 6.8125 -31.3125 C 7.695312 -32.875 8.476562 -34.488281 9.15625 -36.15625 C 9.832031 -37.832031 10.394531 -39.535156 10.84375 -41.265625 C 11.050781 -42.078125 11.25 -42.9375 11.4375 -43.84375 C 11.625 -44.75 11.765625 -45.671875 11.859375 -46.609375 C 11.953125 -47.546875 11.960938 -48.460938 11.890625 -49.359375 C 11.828125 -50.265625 11.644531 -51.125 11.34375 -51.9375 C 11.1875 -52.363281 11.039062 -52.617188 10.90625 -52.703125 C 10.769531 -52.785156 10.617188 -52.75 10.453125 -52.59375 C 10.296875 -52.4375 10.082031 -52.210938 9.8125 -51.921875 C 9.53125 -51.609375 9.269531 -51.28125 9.03125 -50.9375 C 8.800781 -50.601562 8.578125 -50.257812 8.359375 -49.90625 C 7.953125 -49.226562 7.585938 -48.535156 7.265625 -47.828125 C 6.941406 -47.117188 6.648438 -46.390625 6.390625 -45.640625 Z M 8.25 -8.5 C 8.28125 -9.375 8.242188 -10.25 8.140625 -11.125 C 8.035156 -12 7.796875 -12.835938 7.421875 -13.640625 C 7.140625 -14.222656 6.742188 -14.695312 6.234375 -15.0625 C 5.679688 -14.925781 5.113281 -14.8125 4.53125 -14.71875 C 3.945312 -14.625 3.347656 -14.550781 2.734375 -14.5 C 2.742188 -14.375 2.75 -14.25 2.75 -14.125 C 2.75 -14.007812 2.757812 -13.890625 2.78125 -13.765625 C 2.894531 -11.804688 3.066406 -9.835938 3.296875 -7.859375 C 3.398438 -7.054688 3.492188 -6.222656 3.578125 -5.359375 C 3.671875 -4.503906 3.859375 -3.695312 4.140625 -2.9375 C 4.203125 -2.78125 4.289062 -2.566406 4.40625 -2.296875 C 4.53125 -2.023438 4.675781 -1.785156 4.84375 -1.578125 C 5.007812 -1.367188 5.195312 -1.273438 5.40625 -1.296875 C 5.59375 -1.304688 5.773438 -1.398438 5.953125 -1.578125 C 6.128906 -1.765625 6.296875 -1.984375 6.453125 -2.234375 C 6.609375 -2.492188 6.742188 -2.738281 6.859375 -2.96875 C 6.972656 -3.207031 7.054688 -3.390625 7.109375 -3.515625 C 7.460938 -4.296875 7.726562 -5.109375 7.90625 -5.953125 C 8.09375 -6.804688 8.207031 -7.65625 8.25 -8.5 Z M 8.25 -8.5 "/></g></g></g><g fill="#ffffff" fill-opacity="1"><g transform="translate(79.122972, 63.499974)"><g><path d="M 9.265625 -25.09375 C 8.660156 -24.5 8.054688 -24.109375 7.453125 -23.921875 C 6.847656 -23.742188 6.210938 -23.875 5.546875 -24.3125 C 5.265625 -24.507812 5.0625 -24.765625 4.9375 -25.078125 C 4.8125 -25.390625 4.757812 -25.703125 4.78125 -26.015625 C 4.8125 -26.328125 4.898438 -26.582031 5.046875 -26.78125 C 5.097656 -26.820312 5.210938 -26.847656 5.390625 -26.859375 C 5.578125 -26.867188 5.765625 -26.859375 5.953125 -26.828125 C 6.148438 -26.804688 6.300781 -26.765625 6.40625 -26.703125 C 6.519531 -26.640625 6.535156 -26.535156 6.453125 -26.390625 C 6.347656 -26.234375 6.296875 -26.054688 6.296875 -25.859375 C 6.304688 -25.660156 6.375 -25.492188 6.5 -25.359375 C 6.625 -25.222656 6.800781 -25.15625 7.03125 -25.15625 C 7.269531 -25.164062 7.484375 -25.320312 7.671875 -25.625 C 7.859375 -25.925781 8.019531 -26.316406 8.15625 -26.796875 C 8.300781 -27.273438 8.414062 -27.785156 8.5 -28.328125 C 8.59375 -28.878906 8.640625 -29.40625 8.640625 -29.90625 C 8.640625 -30.414062 8.59375 -30.84375 8.5 -31.1875 C 8.414062 -31.53125 8.285156 -31.734375 8.109375 -31.796875 C 7.691406 -31.953125 7.257812 -31.882812 6.8125 -31.59375 C 6.363281 -31.300781 5.925781 -30.828125 5.5 -30.171875 C 5.070312 -29.523438 4.671875 -28.726562 4.296875 -27.78125 C 3.929688 -26.84375 3.613281 -25.796875 3.34375 -24.640625 C 3.070312 -23.484375 2.867188 -22.269531 2.734375 -21 C 2.503906 -19.695312 2.390625 -18.320312 2.390625 -16.875 C 2.398438 -15.425781 2.398438 -14.023438 2.390625 -12.671875 C 2.390625 -12.617188 2.390625 -12.5625 2.390625 -12.5 C 2.398438 -12.4375 2.40625 -12.378906 2.40625 -12.328125 L 2.390625 -12.328125 C 2.390625 -12.234375 2.382812 -12.140625 2.375 -12.046875 C 2.363281 -11.960938 2.359375 -11.875 2.359375 -11.78125 C 2.347656 -11.519531 2.222656 -11.320312 1.984375 -11.1875 C 1.753906 -11.0625 1.460938 -10.992188 1.109375 -10.984375 C 0.765625 -10.984375 0.414062 -11.035156 0.0625 -11.140625 C -0.289062 -11.242188 -0.585938 -11.390625 -0.828125 -11.578125 C -1.066406 -11.765625 -1.195312 -11.988281 -1.21875 -12.25 C -1.300781 -14.1875 -1.378906 -16.117188 -1.453125 -18.046875 C -1.535156 -19.972656 -1.585938 -21.898438 -1.609375 -23.828125 C -1.609375 -24.796875 -1.59375 -25.765625 -1.5625 -26.734375 C -1.539062 -27.703125 -1.503906 -28.660156 -1.453125 -29.609375 C -1.410156 -30.191406 -1.351562 -30.804688 -1.28125 -31.453125 C -1.21875 -32.097656 -1.117188 -32.707031 -0.984375 -33.28125 C -0.859375 -33.851562 -0.691406 -34.316406 -0.484375 -34.671875 C -0.378906 -34.847656 -0.195312 -34.992188 0.0625 -35.109375 C 0.320312 -35.222656 0.601562 -35.296875 0.90625 -35.328125 C 1.21875 -35.359375 1.507812 -35.34375 1.78125 -35.28125 C 2.0625 -35.226562 2.285156 -35.125 2.453125 -34.96875 C 2.617188 -34.820312 2.675781 -34.625 2.625 -34.375 C 2.425781 -33.375 2.3125 -32.460938 2.28125 -31.640625 C 2.25 -30.816406 2.207031 -29.957031 2.15625 -29.0625 C 2.132812 -28.550781 2.113281 -28.035156 2.09375 -27.515625 C 2.082031 -26.992188 2.066406 -26.472656 2.046875 -25.953125 C 2.117188 -26.148438 2.1875 -26.34375 2.25 -26.53125 C 2.320312 -26.71875 2.398438 -26.910156 2.484375 -27.109375 C 2.816406 -27.972656 3.175781 -28.847656 3.5625 -29.734375 C 3.957031 -30.617188 4.398438 -31.429688 4.890625 -32.171875 C 5.390625 -32.910156 5.945312 -33.5 6.5625 -33.9375 C 7.1875 -34.375 7.894531 -34.570312 8.6875 -34.53125 C 9.226562 -34.507812 9.664062 -34.3125 10 -33.9375 C 10.34375 -33.5625 10.59375 -33.082031 10.75 -32.5 C 10.914062 -31.914062 11 -31.273438 11 -30.578125 C 11.007812 -29.878906 10.945312 -29.175781 10.8125 -28.46875 C 10.675781 -27.769531 10.476562 -27.125 10.21875 -26.53125 C 9.957031 -25.9375 9.640625 -25.457031 9.265625 -25.09375 Z M 9.265625 -25.09375 "/></g></g></g><g fill="#ffffff" fill-opacity="1"><g transform="translate(92.051395, 63.499974)"><g><path d="M 7.9375 -24.203125 C 7.570312 -23.585938 7.140625 -23.019531 6.640625 -22.5 C 6.148438 -21.988281 5.59375 -21.585938 4.96875 -21.296875 C 4.351562 -21.015625 3.660156 -20.910156 2.890625 -20.984375 C 2.816406 -20.984375 2.738281 -20.988281 2.65625 -21 C 2.582031 -21.007812 2.503906 -21.019531 2.421875 -21.03125 C 2.472656 -20.320312 2.570312 -19.628906 2.71875 -18.953125 C 2.875 -18.273438 3.097656 -17.664062 3.390625 -17.125 C 3.691406 -16.582031 4.085938 -16.140625 4.578125 -15.796875 C 5.078125 -15.460938 5.6875 -15.28125 6.40625 -15.25 C 7.03125 -15.226562 7.617188 -15.375 8.171875 -15.6875 C 8.722656 -16 9.234375 -16.410156 9.703125 -16.921875 C 10.171875 -17.441406 10.597656 -17.988281 10.984375 -18.5625 C 11.378906 -19.132812 11.734375 -19.671875 12.046875 -20.171875 C 12.148438 -20.347656 12.296875 -20.628906 12.484375 -21.015625 C 12.679688 -21.410156 12.890625 -21.863281 13.109375 -22.375 C 13.328125 -22.882812 13.539062 -23.414062 13.75 -23.96875 C 13.96875 -24.53125 14.160156 -25.078125 14.328125 -25.609375 C 14.492188 -26.140625 14.613281 -26.609375 14.6875 -27.015625 C 14.738281 -27.285156 14.851562 -27.457031 15.03125 -27.53125 C 15.207031 -27.613281 15.367188 -27.609375 15.515625 -27.515625 C 15.671875 -27.429688 15.710938 -27.257812 15.640625 -27 C 15.484375 -26.300781 15.257812 -25.507812 14.96875 -24.625 C 14.675781 -23.738281 14.34375 -22.832031 13.96875 -21.90625 C 13.59375 -20.976562 13.195312 -20.078125 12.78125 -19.203125 C 12.257812 -18.097656 11.648438 -17.09375 10.953125 -16.1875 C 10.253906 -15.28125 9.488281 -14.550781 8.65625 -14 C 7.832031 -13.457031 6.953125 -13.15625 6.015625 -13.09375 C 5.140625 -13.019531 4.296875 -13.097656 3.484375 -13.328125 C 2.671875 -13.566406 1.945312 -13.953125 1.3125 -14.484375 C 0.675781 -15.023438 0.160156 -15.707031 -0.234375 -16.53125 C -0.597656 -17.332031 -0.859375 -18.1875 -1.015625 -19.09375 C -1.171875 -20.007812 -1.25 -20.9375 -1.25 -21.875 C -1.257812 -22.820312 -1.238281 -23.726562 -1.1875 -24.59375 C -1.15625 -25.289062 -1.0625 -26.0625 -0.90625 -26.90625 C -0.757812 -27.75 -0.546875 -28.601562 -0.265625 -29.46875 C 0.00390625 -30.34375 0.34375 -31.179688 0.75 -31.984375 C 1.164062 -32.796875 1.648438 -33.519531 2.203125 -34.15625 C 2.765625 -34.800781 3.40625 -35.3125 4.125 -35.6875 C 4.84375 -36.0625 5.644531 -36.25 6.53125 -36.25 C 7.382812 -36.25 8.070312 -36.082031 8.59375 -35.75 C 9.113281 -35.414062 9.492188 -34.957031 9.734375 -34.375 C 9.972656 -33.800781 10.109375 -33.148438 10.140625 -32.421875 C 10.179688 -31.703125 10.132812 -30.945312 10 -30.15625 C 9.875 -29.375 9.691406 -28.601562 9.453125 -27.84375 C 9.222656 -27.09375 8.972656 -26.398438 8.703125 -25.765625 C 8.429688 -25.140625 8.175781 -24.617188 7.9375 -24.203125 Z M 2.390625 -22.5 C 2.421875 -22.476562 2.457031 -22.453125 2.5 -22.421875 C 2.539062 -22.398438 2.585938 -22.375 2.640625 -22.34375 C 3.023438 -22.144531 3.382812 -22.101562 3.71875 -22.21875 C 4.0625 -22.332031 4.375 -22.53125 4.65625 -22.8125 C 4.945312 -23.101562 5.203125 -23.421875 5.421875 -23.765625 C 5.648438 -24.109375 5.84375 -24.410156 6 -24.671875 C 6.570312 -25.703125 7.03125 -26.789062 7.375 -27.9375 C 7.71875 -29.082031 7.894531 -30.238281 7.90625 -31.40625 C 7.925781 -31.707031 7.914062 -32.078125 7.875 -32.515625 C 7.84375 -32.960938 7.757812 -33.390625 7.625 -33.796875 C 7.5 -34.210938 7.28125 -34.503906 6.96875 -34.671875 C 6.6875 -34.835938 6.328125 -34.757812 5.890625 -34.4375 C 5.453125 -34.125 5.007812 -33.597656 4.5625 -32.859375 C 4.113281 -32.128906 3.710938 -31.210938 3.359375 -30.109375 C 3.003906 -29.003906 2.757812 -27.757812 2.625 -26.375 C 2.582031 -25.957031 2.53125 -25.40625 2.46875 -24.71875 C 2.414062 -24.03125 2.390625 -23.289062 2.390625 -22.5 Z M 2.390625 -22.5 "/></g></g></g><g fill="#ffffff" fill-opacity="1"><g transform="translate(106.893695, 63.499974)"><g><path d="M 10.390625 -23.75 C 10.328125 -23.632812 10.164062 -23.550781 9.90625 -23.5 C 9.65625 -23.445312 9.378906 -23.429688 9.078125 -23.453125 C 8.785156 -23.472656 8.539062 -23.53125 8.34375 -23.625 C 8.144531 -23.71875 8.070312 -23.851562 8.125 -24.03125 C 8.28125 -24.582031 8.429688 -25.207031 8.578125 -25.90625 C 8.722656 -26.601562 8.8125 -27.316406 8.84375 -28.046875 C 8.882812 -28.785156 8.84375 -29.5 8.71875 -30.1875 C 8.59375 -30.882812 8.347656 -31.519531 7.984375 -32.09375 C 7.617188 -32.664062 7.09375 -33.128906 6.40625 -33.484375 C 6 -33.691406 5.675781 -33.773438 5.4375 -33.734375 C 5.195312 -33.703125 4.910156 -33.550781 4.578125 -33.28125 C 4.128906 -32.914062 3.742188 -32.460938 3.421875 -31.921875 C 3.097656 -31.378906 2.835938 -30.835938 2.640625 -30.296875 C 2.191406 -29.015625 2.101562 -27.726562 2.375 -26.4375 C 2.65625 -25.144531 3.234375 -23.988281 4.109375 -22.96875 C 4.503906 -22.5 4.945312 -22.082031 5.4375 -21.71875 C 5.925781 -21.363281 6.425781 -21.023438 6.9375 -20.703125 C 7.457031 -20.390625 7.960938 -20.0625 8.453125 -19.71875 C 8.941406 -19.382812 9.394531 -19 9.8125 -18.5625 C 10.34375 -18 10.695312 -17.390625 10.875 -16.734375 C 11.0625 -16.078125 11.046875 -15.4375 10.828125 -14.8125 C 10.617188 -14.195312 10.1875 -13.660156 9.53125 -13.203125 C 8.9375 -12.785156 8.273438 -12.484375 7.546875 -12.296875 C 6.816406 -12.109375 6.09375 -11.992188 5.375 -11.953125 C 4.21875 -11.898438 3.164062 -12.050781 2.21875 -12.40625 C 1.269531 -12.769531 0.5 -13.34375 -0.09375 -14.125 C -0.6875 -14.90625 -1.046875 -15.894531 -1.171875 -17.09375 C -1.203125 -17.351562 -1.097656 -17.5625 -0.859375 -17.71875 C -0.628906 -17.882812 -0.332031 -18 0.03125 -18.0625 C 0.40625 -18.132812 0.773438 -18.148438 1.140625 -18.109375 C 1.515625 -18.066406 1.832031 -17.96875 2.09375 -17.8125 C 2.363281 -17.65625 2.515625 -17.441406 2.546875 -17.171875 C 2.597656 -16.710938 2.703125 -16.234375 2.859375 -15.734375 C 3.015625 -15.242188 3.25 -14.820312 3.5625 -14.46875 C 3.882812 -14.125 4.316406 -13.925781 4.859375 -13.875 C 5.203125 -13.84375 5.546875 -13.890625 5.890625 -14.015625 C 6.242188 -14.140625 6.546875 -14.320312 6.796875 -14.5625 C 7.054688 -14.8125 7.222656 -15.125 7.296875 -15.5 C 7.367188 -15.875 7.300781 -16.296875 7.09375 -16.765625 C 6.925781 -17.160156 6.679688 -17.5 6.359375 -17.78125 C 6.035156 -18.070312 5.6875 -18.332031 5.3125 -18.5625 C 4.9375 -18.789062 4.570312 -19.015625 4.21875 -19.234375 C 3.726562 -19.546875 3.242188 -19.878906 2.765625 -20.234375 C 2.285156 -20.597656 1.835938 -20.984375 1.421875 -21.390625 C 0.609375 -22.191406 -0.0664062 -23.097656 -0.609375 -24.109375 C -1.148438 -25.128906 -1.445312 -26.226562 -1.5 -27.40625 C -1.539062 -28.34375 -1.425781 -29.265625 -1.15625 -30.171875 C -0.882812 -31.078125 -0.484375 -31.910156 0.046875 -32.671875 C 0.585938 -33.441406 1.222656 -34.085938 1.953125 -34.609375 C 2.691406 -35.128906 3.507812 -35.476562 4.40625 -35.65625 C 5.3125 -35.832031 6.257812 -35.789062 7.25 -35.53125 C 8.34375 -35.238281 9.226562 -34.773438 9.90625 -34.140625 C 10.59375 -33.515625 11.097656 -32.78125 11.421875 -31.9375 C 11.753906 -31.09375 11.921875 -30.191406 11.921875 -29.234375 C 11.929688 -28.285156 11.800781 -27.335938 11.53125 -26.390625 C 11.269531 -25.453125 10.890625 -24.570312 10.390625 -23.75 Z M 10.390625 -23.75 "/></g></g></g><g fill="#ffffff" fill-opacity="1"><g transform="translate(120.603292, 63.499974)"><g><path d="M 13.65625 -26.890625 C 13.675781 -27.023438 13.734375 -27.097656 13.828125 -27.109375 C 13.921875 -27.117188 14.003906 -27.101562 14.078125 -27.0625 C 14.160156 -27.03125 14.203125 -26.992188 14.203125 -26.953125 C 14.097656 -24.972656 13.847656 -23.117188 13.453125 -21.390625 C 13.054688 -19.660156 12.535156 -18.125 11.890625 -16.78125 C 11.242188 -15.4375 10.5 -14.347656 9.65625 -13.515625 C 8.820312 -12.679688 7.914062 -12.164062 6.9375 -11.96875 C 6.269531 -11.84375 5.546875 -11.796875 4.765625 -11.828125 C 3.992188 -11.867188 3.25 -12.007812 2.53125 -12.25 C 1.820312 -12.5 1.210938 -12.863281 0.703125 -13.34375 C 0.117188 -13.90625 -0.347656 -14.539062 -0.703125 -15.25 C -1.054688 -15.957031 -1.3125 -16.707031 -1.46875 -17.5 C -1.625 -18.289062 -1.710938 -19.078125 -1.734375 -19.859375 C -1.835938 -22.515625 -1.550781 -25.128906 -0.875 -27.703125 C -0.71875 -28.285156 -0.53125 -28.898438 -0.3125 -29.546875 C -0.09375 -30.191406 0.171875 -30.816406 0.484375 -31.421875 C 0.796875 -32.035156 1.164062 -32.59375 1.59375 -33.09375 C 2.03125 -33.59375 2.535156 -34 3.109375 -34.3125 C 3.703125 -34.644531 4.351562 -34.828125 5.0625 -34.859375 C 5.78125 -34.898438 6.460938 -34.789062 7.109375 -34.53125 C 7.765625 -34.28125 8.289062 -33.867188 8.6875 -33.296875 C 9.039062 -32.816406 9.28125 -32.242188 9.40625 -31.578125 C 9.539062 -30.921875 9.609375 -30.253906 9.609375 -29.578125 C 9.609375 -28.898438 9.570312 -28.273438 9.5 -27.703125 C 9.425781 -27.140625 9.363281 -26.707031 9.3125 -26.40625 C 9.28125 -26.226562 9.148438 -26.0625 8.921875 -25.90625 C 8.691406 -25.75 8.410156 -25.613281 8.078125 -25.5 C 7.753906 -25.382812 7.4375 -25.316406 7.125 -25.296875 C 6.8125 -25.285156 6.550781 -25.320312 6.34375 -25.40625 C 6.132812 -25.5 6.03125 -25.664062 6.03125 -25.90625 C 6.019531 -26.5625 6.039062 -27.207031 6.09375 -27.84375 C 6.144531 -28.476562 6.15625 -29.109375 6.125 -29.734375 C 6.101562 -30.367188 5.976562 -31.007812 5.75 -31.65625 C 5.644531 -31.957031 5.554688 -32.195312 5.484375 -32.375 C 5.421875 -32.550781 5.335938 -32.628906 5.234375 -32.609375 C 5.140625 -32.585938 4.984375 -32.4375 4.765625 -32.15625 C 4.535156 -31.84375 4.328125 -31.503906 4.140625 -31.140625 C 3.960938 -30.785156 3.796875 -30.425781 3.640625 -30.0625 C 2.921875 -28.46875 2.429688 -26.769531 2.171875 -24.96875 C 1.910156 -23.175781 1.828125 -21.410156 1.921875 -19.671875 C 1.953125 -18.828125 2.039062 -18.050781 2.1875 -17.34375 C 2.332031 -16.644531 2.6875 -15.957031 3.25 -15.28125 C 3.363281 -15.132812 3.578125 -14.957031 3.890625 -14.75 C 4.210938 -14.550781 4.609375 -14.394531 5.078125 -14.28125 C 5.546875 -14.175781 6.0625 -14.175781 6.625 -14.28125 C 7.1875 -14.382812 7.773438 -14.664062 8.390625 -15.125 C 9.003906 -15.59375 9.617188 -16.300781 10.234375 -17.25 C 10.859375 -18.195312 11.460938 -19.457031 12.046875 -21.03125 C 12.640625 -22.613281 13.175781 -24.566406 13.65625 -26.890625 Z M 13.65625 -26.890625 "/></g></g></g><g fill="#ffffff" fill-opacity="1"><g transform="translate(134.156655, 63.499974)"><g><path d="M 14.109375 -26.5625 C 14.171875 -26.695312 14.269531 -26.773438 14.40625 -26.796875 C 14.550781 -26.828125 14.671875 -26.800781 14.765625 -26.71875 C 14.867188 -26.644531 14.890625 -26.519531 14.828125 -26.34375 C 14.660156 -25.09375 14.171875 -24.0625 13.359375 -23.25 C 12.554688 -22.4375 11.457031 -21.757812 10.0625 -21.21875 C 9.90625 -20.132812 9.679688 -19.0625 9.390625 -18 C 9.109375 -16.945312 8.757812 -15.984375 8.34375 -15.109375 C 7.925781 -14.234375 7.4375 -13.523438 6.875 -12.984375 C 6.3125 -12.441406 5.675781 -12.148438 4.96875 -12.109375 C 4.15625 -12.054688 3.445312 -12.1875 2.84375 -12.5 C 2.238281 -12.820312 1.71875 -13.269531 1.28125 -13.84375 C 0.851562 -14.414062 0.492188 -15.070312 0.203125 -15.8125 C -0.078125 -16.5625 -0.296875 -17.332031 -0.453125 -18.125 C -0.617188 -18.914062 -0.742188 -19.6875 -0.828125 -20.4375 C -0.910156 -21.1875 -0.960938 -21.867188 -0.984375 -22.484375 C -1.003906 -23.097656 -1.007812 -23.578125 -1 -23.921875 C -1 -24.078125 -0.984375 -24.222656 -0.953125 -24.359375 C -0.929688 -24.503906 -0.898438 -24.628906 -0.859375 -24.734375 C -1.097656 -25.628906 -1.160156 -26.5625 -1.046875 -27.53125 C -0.929688 -28.507812 -0.671875 -29.460938 -0.265625 -30.390625 C 0.128906 -31.316406 0.648438 -32.144531 1.296875 -32.875 C 1.921875 -33.570312 2.585938 -34.035156 3.296875 -34.265625 C 4.015625 -34.503906 4.71875 -34.539062 5.40625 -34.375 C 6.101562 -34.21875 6.71875 -33.90625 7.25 -33.4375 C 8.519531 -32.320312 9.394531 -30.921875 9.875 -29.234375 C 10.363281 -27.546875 10.5 -25.5 10.28125 -23.09375 C 10.28125 -23.007812 10.273438 -22.925781 10.265625 -22.84375 C 10.253906 -22.757812 10.242188 -22.671875 10.234375 -22.578125 C 10.910156 -22.796875 11.546875 -23.082031 12.140625 -23.4375 C 12.734375 -23.789062 13.210938 -24.226562 13.578125 -24.75 C 13.941406 -25.269531 14.117188 -25.875 14.109375 -26.5625 Z M 2.03125 -29.890625 C 1.957031 -29.609375 1.863281 -29.21875 1.75 -28.71875 C 1.632812 -28.226562 1.550781 -27.691406 1.5 -27.109375 C 1.445312 -26.523438 1.457031 -25.953125 1.53125 -25.390625 C 1.738281 -25.265625 1.898438 -25.113281 2.015625 -24.9375 C 2.140625 -24.757812 2.210938 -24.5625 2.234375 -24.34375 C 2.234375 -24.257812 2.234375 -24.148438 2.234375 -24.015625 C 2.234375 -23.890625 2.234375 -23.738281 2.234375 -23.5625 C 2.253906 -23.539062 2.269531 -23.519531 2.28125 -23.5 C 2.300781 -23.488281 2.316406 -23.46875 2.328125 -23.4375 C 2.753906 -22.96875 3.410156 -22.609375 4.296875 -22.359375 C 5.179688 -22.117188 6.160156 -22.015625 7.234375 -22.046875 C 7.304688 -22.773438 7.34375 -23.390625 7.34375 -23.890625 C 7.375 -24.710938 7.378906 -25.578125 7.359375 -26.484375 C 7.347656 -27.398438 7.273438 -28.300781 7.140625 -29.1875 C 7.003906 -30.070312 6.75 -30.882812 6.375 -31.625 C 5.988281 -32.394531 5.59375 -32.878906 5.1875 -33.078125 C 4.78125 -33.273438 4.378906 -33.253906 3.984375 -33.015625 C 3.597656 -32.785156 3.234375 -32.390625 2.890625 -31.828125 C 2.554688 -31.273438 2.269531 -30.628906 2.03125 -29.890625 Z M 4.828125 -14.3125 C 5.128906 -14.34375 5.394531 -14.535156 5.625 -14.890625 C 5.863281 -15.253906 6.070312 -15.726562 6.25 -16.3125 C 6.4375 -16.90625 6.59375 -17.554688 6.71875 -18.265625 C 6.851562 -18.984375 6.960938 -19.691406 7.046875 -20.390625 C 6.203125 -20.265625 5.378906 -20.234375 4.578125 -20.296875 C 3.773438 -20.359375 3.050781 -20.535156 2.40625 -20.828125 C 2.46875 -20.078125 2.554688 -19.316406 2.671875 -18.546875 C 2.796875 -17.785156 2.953125 -17.078125 3.140625 -16.421875 C 3.328125 -15.773438 3.554688 -15.253906 3.828125 -14.859375 C 4.097656 -14.472656 4.429688 -14.289062 4.828125 -14.3125 Z M 4.828125 -14.3125 "/></g></g></g><g fill="#ffffff" fill-opacity="1"><g transform="translate(148.081081, 63.499974)"><g><path d="M 10.390625 -23.75 C 10.328125 -23.632812 10.164062 -23.550781 9.90625 -23.5 C 9.65625 -23.445312 9.378906 -23.429688 9.078125 -23.453125 C 8.785156 -23.472656 8.539062 -23.53125 8.34375 -23.625 C 8.144531 -23.71875 8.070312 -23.851562 8.125 -24.03125 C 8.28125 -24.582031 8.429688 -25.207031 8.578125 -25.90625 C 8.722656 -26.601562 8.8125 -27.316406 8.84375 -28.046875 C 8.882812 -28.785156 8.84375 -29.5 8.71875 -30.1875 C 8.59375 -30.882812 8.347656 -31.519531 7.984375 -32.09375 C 7.617188 -32.664062 7.09375 -33.128906 6.40625 -33.484375 C 6 -33.691406 5.675781 -33.773438 5.4375 -33.734375 C 5.195312 -33.703125 4.910156 -33.550781 4.578125 -33.28125 C 4.128906 -32.914062 3.742188 -32.460938 3.421875 -31.921875 C 3.097656 -31.378906 2.835938 -30.835938 2.640625 -30.296875 C 2.191406 -29.015625 2.101562 -27.726562 2.375 -26.4375 C 2.65625 -25.144531 3.234375 -23.988281 4.109375 -22.96875 C 4.503906 -22.5 4.945312 -22.082031 5.4375 -21.71875 C 5.925781 -21.363281 6.425781 -21.023438 6.9375 -20.703125 C 7.457031 -20.390625 7.960938 -20.0625 8.453125 -19.71875 C 8.941406 -19.382812 9.394531 -19 9.8125 -18.5625 C 10.34375 -18 10.695312 -17.390625 10.875 -16.734375 C 11.0625 -16.078125 11.046875 -15.4375 10.828125 -14.8125 C 10.617188 -14.195312 10.1875 -13.660156 9.53125 -13.203125 C 8.9375 -12.785156 8.273438 -12.484375 7.546875 -12.296875 C 6.816406 -12.109375 6.09375 -11.992188 5.375 -11.953125 C 4.21875 -11.898438 3.164062 -12.050781 2.21875 -12.40625 C 1.269531 -12.769531 0.5 -13.34375 -0.09375 -14.125 C -0.6875 -14.90625 -1.046875 -15.894531 -1.171875 -17.09375 C -1.203125 -17.351562 -1.097656 -17.5625 -0.859375 -17.71875 C -0.628906 -17.882812 -0.332031 -18 0.03125 -18.0625 C 0.40625 -18.132812 0.773438 -18.148438 1.140625 -18.109375 C 1.515625 -18.066406 1.832031 -17.96875 2.09375 -17.8125 C 2.363281 -17.65625 2.515625 -17.441406 2.546875 -17.171875 C 2.597656 -16.710938 2.703125 -16.234375 2.859375 -15.734375 C 3.015625 -15.242188 3.25 -14.820312 3.5625 -14.46875 C 3.882812 -14.125 4.316406 -13.925781 4.859375 -13.875 C 5.203125 -13.84375 5.546875 -13.890625 5.890625 -14.015625 C 6.242188 -14.140625 6.546875 -14.320312 6.796875 -14.5625 C 7.054688 -14.8125 7.222656 -15.125 7.296875 -15.5 C 7.367188 -15.875 7.300781 -16.296875 7.09375 -16.765625 C 6.925781 -17.160156 6.679688 -17.5 6.359375 -17.78125 C 6.035156 -18.070312 5.6875 -18.332031 5.3125 -18.5625 C 4.9375 -18.789062 4.570312 -19.015625 4.21875 -19.234375 C 3.726562 -19.546875 3.242188 -19.878906 2.765625 -20.234375 C 2.285156 -20.597656 1.835938 -20.984375 1.421875 -21.390625 C 0.609375 -22.191406 -0.0664062 -23.097656 -0.609375 -24.109375 C -1.148438 -25.128906 -1.445312 -26.226562 -1.5 -27.40625 C -1.539062 -28.34375 -1.425781 -29.265625 -1.15625 -30.171875 C -0.882812 -31.078125 -0.484375 -31.910156 0.046875 -32.671875 C 0.585938 -33.441406 1.222656 -34.085938 1.953125 -34.609375 C 2.691406 -35.128906 3.507812 -35.476562 4.40625 -35.65625 C 5.3125 -35.832031 6.257812 -35.789062 7.25 -35.53125 C 8.34375 -35.238281 9.226562 -34.773438 9.90625 -34.140625 C 10.59375 -33.515625 11.097656 -32.78125 11.421875 -31.9375 C 11.753906 -31.09375 11.921875 -30.191406 11.921875 -29.234375 C 11.929688 -28.285156 11.800781 -27.335938 11.53125 -26.390625 C 11.269531 -25.453125 10.890625 -24.570312 10.390625 -23.75 Z M 10.390625 -23.75 "/></g></g></g></svg>