<svg xmlns="http://www.w3.org/2000/svg" xmlns:xlink="http://www.w3.org/1999/xlink" width="1000" zoomAndPan="magnify" viewBox="0 0 750 74.999997" height="100" preserveAspectRatio="xMidYMid meet" version="1.0"><defs><g/></defs><g fill="#ffffff" fill-opacity="1"><g transform="translate(11.531264, 63.499974)"><g><path d="M 45.6875 -5.90625 C 45.832031 -6.144531 46 -6.296875 46.1875 -6.359375 C 46.382812 -6.421875 46.570312 -6.40625 46.75 -6.3125 C 46.925781 -6.226562 47.054688 -6.09375 47.140625 -5.90625 C 47.234375 -5.726562 47.242188 -5.519531 47.171875 -5.28125 C 46.878906 -4.25 46.394531 -3.398438 45.71875 -2.734375 C 45.039062 -2.066406 44.257812 -1.570312 43.375 -1.25 C 42.488281 -0.9375 41.578125 -0.796875 40.640625 -0.828125 C 39.703125 -0.859375 38.828125 -1.066406 38.015625 -1.453125 C 37.003906 -1.898438 36.144531 -2.5 35.4375 -3.25 C 34.726562 -4 34.132812 -4.835938 33.65625 -5.765625 C 33.175781 -6.703125 32.765625 -7.675781 32.421875 -8.6875 C 32.085938 -9.695312 31.78125 -10.695312 31.5 -11.6875 C 30.84375 -14.132812 30.320312 -16.613281 29.9375 -19.125 C 29.550781 -21.632812 29.273438 -24.15625 29.109375 -26.6875 C 29.109375 -26.707031 29.109375 -26.726562 29.109375 -26.75 C 29.109375 -26.769531 29.109375 -26.785156 29.109375 -26.796875 C 28.484375 -26.679688 27.875 -26.582031 27.28125 -26.5 C 26.445312 -26.382812 25.609375 -26.273438 24.765625 -26.171875 C 23.929688 -26.066406 23.097656 -25.929688 22.265625 -25.765625 C 21.265625 -23.210938 20.140625 -20.710938 18.890625 -18.265625 C 17.640625 -15.828125 16.207031 -13.507812 14.59375 -11.3125 C 14.132812 -10.6875 13.644531 -10.050781 13.125 -9.40625 C 12.601562 -8.757812 12.046875 -8.15625 11.453125 -7.59375 C 10.859375 -7.039062 10.207031 -6.570312 9.5 -6.1875 C 8.800781 -5.8125 8.046875 -5.570312 7.234375 -5.46875 C 6.117188 -5.34375 5.128906 -5.457031 4.265625 -5.8125 C 3.410156 -6.164062 2.707031 -6.722656 2.15625 -7.484375 C 1.601562 -8.253906 1.222656 -9.164062 1.015625 -10.21875 C 0.691406 -11.925781 0.625 -13.671875 0.8125 -15.453125 C 1 -17.242188 1.328125 -18.960938 1.796875 -20.609375 C 2.015625 -21.390625 2.28125 -22.195312 2.59375 -23.03125 C 2.90625 -23.875 3.269531 -24.707031 3.6875 -25.53125 C 4.101562 -26.351562 4.578125 -27.117188 5.109375 -27.828125 C 5.640625 -28.535156 6.226562 -29.148438 6.875 -29.671875 C 7.40625 -30.085938 8.015625 -30.398438 8.703125 -30.609375 C 9.398438 -30.816406 10.101562 -30.894531 10.8125 -30.84375 C 11.519531 -30.789062 12.171875 -30.585938 12.765625 -30.234375 C 13.359375 -29.878906 13.816406 -29.359375 14.140625 -28.671875 C 14.398438 -28.109375 14.554688 -27.515625 14.609375 -26.890625 C 14.671875 -26.265625 14.660156 -25.640625 14.578125 -25.015625 C 14.628906 -25.046875 14.675781 -25.078125 14.71875 -25.109375 C 14.757812 -25.148438 14.804688 -25.191406 14.859375 -25.234375 C 15.742188 -25.847656 16.691406 -26.328125 17.703125 -26.671875 C 18.722656 -27.023438 19.765625 -27.304688 20.828125 -27.515625 C 21.679688 -29.742188 22.5 -31.992188 23.28125 -34.265625 C 24.0625 -36.535156 24.789062 -38.753906 25.46875 -40.921875 C 26.144531 -43.097656 26.765625 -45.140625 27.328125 -47.046875 C 27.890625 -48.960938 28.378906 -50.679688 28.796875 -52.203125 C 29.210938 -53.734375 29.550781 -54.984375 29.8125 -55.953125 C 30.082031 -56.929688 30.253906 -57.554688 30.328125 -57.828125 C 30.398438 -58.035156 30.566406 -58.203125 30.828125 -58.328125 C 31.085938 -58.453125 31.390625 -58.53125 31.734375 -58.5625 C 32.078125 -58.59375 32.414062 -58.582031 32.75 -58.53125 C 33.09375 -58.476562 33.367188 -58.378906 33.578125 -58.234375 C 33.796875 -58.097656 33.898438 -57.90625 33.890625 -57.65625 C 33.753906 -54.882812 33.550781 -52.109375 33.28125 -49.328125 C 33.007812 -46.554688 32.816406 -43.785156 32.703125 -41.015625 C 32.617188 -39.191406 32.566406 -37.367188 32.546875 -35.546875 C 32.523438 -33.722656 32.550781 -31.898438 32.625 -30.078125 C 33.726562 -30.628906 34.664062 -31.363281 35.4375 -32.28125 C 36.21875 -33.207031 36.710938 -34.421875 36.921875 -35.921875 C 36.953125 -36.191406 36.972656 -36.503906 36.984375 -36.859375 C 36.992188 -37.210938 37.019531 -37.554688 37.0625 -37.890625 C 37.101562 -38.234375 37.1875 -38.535156 37.3125 -38.796875 C 37.4375 -39.066406 37.628906 -39.253906 37.890625 -39.359375 C 38.160156 -39.472656 38.523438 -39.472656 38.984375 -39.359375 C 39.597656 -39.203125 40.03125 -38.898438 40.28125 -38.453125 C 40.539062 -38.015625 40.671875 -37.507812 40.671875 -36.9375 C 40.679688 -36.375 40.613281 -35.800781 40.46875 -35.21875 C 40.320312 -34.644531 40.164062 -34.144531 40 -33.71875 C 39.570312 -32.632812 38.984375 -31.703125 38.234375 -30.921875 C 37.492188 -30.148438 36.648438 -29.5 35.703125 -28.96875 C 34.765625 -28.445312 33.769531 -28.015625 32.71875 -27.671875 C 32.738281 -27.191406 32.769531 -26.707031 32.8125 -26.21875 C 32.851562 -25.726562 32.894531 -25.238281 32.9375 -24.75 C 33.175781 -22.050781 33.535156 -19.335938 34.015625 -16.609375 C 34.503906 -13.878906 35.210938 -11.238281 36.140625 -8.6875 C 36.398438 -7.976562 36.707031 -7.257812 37.0625 -6.53125 C 37.414062 -5.8125 37.847656 -5.144531 38.359375 -4.53125 C 38.878906 -3.914062 39.492188 -3.421875 40.203125 -3.046875 C 40.773438 -2.742188 41.328125 -2.628906 41.859375 -2.703125 C 42.398438 -2.773438 42.910156 -2.96875 43.390625 -3.28125 C 43.878906 -3.601562 44.316406 -4 44.703125 -4.46875 C 45.097656 -4.9375 45.425781 -5.414062 45.6875 -5.90625 Z M 7.046875 -7.484375 C 7.929688 -7.546875 8.820312 -7.890625 9.71875 -8.515625 C 10.613281 -9.148438 11.5 -10.015625 12.375 -11.109375 C 13.25 -12.203125 14.113281 -13.476562 14.96875 -14.9375 C 15.820312 -16.394531 16.660156 -17.988281 17.484375 -19.71875 C 18.316406 -21.445312 19.117188 -23.253906 19.890625 -25.140625 C 19.640625 -25.054688 19.394531 -24.96875 19.15625 -24.875 C 18.925781 -24.789062 18.691406 -24.695312 18.453125 -24.59375 C 17.203125 -24.03125 16.128906 -23.363281 15.234375 -22.59375 C 14.347656 -21.832031 13.488281 -20.941406 12.65625 -19.921875 C 12.382812 -19.484375 12.171875 -19.210938 12.015625 -19.109375 C 11.953125 -18.984375 11.816406 -18.894531 11.609375 -18.84375 C 11.410156 -18.789062 11.195312 -18.769531 10.96875 -18.78125 C 10.738281 -18.800781 10.554688 -18.851562 10.421875 -18.9375 C 10.296875 -19.019531 10.265625 -19.144531 10.328125 -19.3125 C 10.378906 -19.445312 10.484375 -19.722656 10.640625 -20.140625 C 10.796875 -20.566406 10.972656 -21.082031 11.171875 -21.6875 C 11.378906 -22.289062 11.570312 -22.929688 11.75 -23.609375 C 11.925781 -24.285156 12.054688 -24.945312 12.140625 -25.59375 C 12.234375 -26.238281 12.253906 -26.8125 12.203125 -27.3125 C 12.148438 -27.8125 11.988281 -28.1875 11.71875 -28.4375 C 11.445312 -28.695312 11.035156 -28.769531 10.484375 -28.65625 C 10.148438 -28.59375 9.828125 -28.421875 9.515625 -28.140625 C 9.203125 -27.867188 8.910156 -27.550781 8.640625 -27.1875 C 8.378906 -26.832031 8.148438 -26.5 7.953125 -26.1875 C 7.765625 -25.875 7.628906 -25.640625 7.546875 -25.484375 C 7.160156 -24.804688 6.8125 -24.109375 6.5 -23.390625 C 6.1875 -22.671875 5.898438 -21.929688 5.640625 -21.171875 C 4.734375 -18.398438 4.335938 -15.5625 4.453125 -12.65625 C 4.484375 -11.976562 4.539062 -11.296875 4.625 -10.609375 C 4.71875 -9.929688 4.921875 -9.285156 5.234375 -8.671875 C 5.472656 -8.203125 5.753906 -7.882812 6.078125 -7.71875 C 6.398438 -7.550781 6.722656 -7.472656 7.046875 -7.484375 Z M 29.078125 -42.109375 C 29.160156 -44.015625 29.257812 -45.90625 29.375 -47.78125 C 29.164062 -47.15625 28.960938 -46.53125 28.765625 -45.90625 C 28.578125 -45.28125 28.390625 -44.644531 28.203125 -44 C 27.566406 -41.84375 26.925781 -39.679688 26.28125 -37.515625 C 25.644531 -35.359375 24.957031 -33.210938 24.21875 -31.078125 C 24.050781 -30.554688 23.867188 -30.03125 23.671875 -29.5 C 23.472656 -28.976562 23.28125 -28.445312 23.09375 -27.90625 C 23.144531 -27.925781 23.1875 -27.9375 23.21875 -27.9375 C 23.257812 -27.945312 23.300781 -27.953125 23.34375 -27.953125 C 24.226562 -28.078125 25.148438 -28.207031 26.109375 -28.34375 C 27.078125 -28.488281 28.035156 -28.664062 28.984375 -28.875 C 28.890625 -31.082031 28.851562 -33.289062 28.875 -35.5 C 28.894531 -37.707031 28.960938 -39.910156 29.078125 -42.109375 Z M 29.078125 -42.109375 "/></g></g></g><g fill="#ffffff" fill-opacity="1"><g transform="translate(54.33958, 63.499974)"><g><path d="M 16.65625 -26.96875 C 16.6875 -27.007812 16.753906 -27.023438 16.859375 -27.015625 C 16.972656 -27.003906 17.082031 -26.976562 17.1875 -26.9375 C 17.289062 -26.894531 17.335938 -26.847656 17.328125 -26.796875 C 17.140625 -26.015625 16.8125 -25.066406 16.34375 -23.953125 C 15.875 -22.835938 15.21875 -21.5625 14.375 -20.125 C 13.53125 -18.695312 12.441406 -17.109375 11.109375 -15.359375 C 11.097656 -14.648438 11.082031 -13.941406 11.0625 -13.234375 C 11.039062 -12.535156 11.019531 -11.835938 11 -11.140625 C 10.9375 -9.597656 10.867188 -8.046875 10.796875 -6.484375 C 10.722656 -4.929688 10.585938 -3.390625 10.390625 -1.859375 C 10.285156 -1.023438 10.140625 -0.164062 9.953125 0.71875 C 9.765625 1.601562 9.5 2.457031 9.15625 3.28125 C 8.820312 4.101562 8.363281 4.835938 7.78125 5.484375 C 7.3125 6.003906 6.71875 6.429688 6 6.765625 C 5.28125 7.109375 4.535156 7.304688 3.765625 7.359375 C 3.003906 7.410156 2.289062 7.269531 1.625 6.9375 C 1.019531 6.613281 0.5 6.191406 0.0625 5.671875 C -0.375 5.148438 -0.710938 4.566406 -0.953125 3.921875 C -1.191406 3.273438 -1.320312 2.617188 -1.34375 1.953125 C -1.375 1.054688 -1.257812 0.1875 -1 -0.65625 C -0.738281 -1.5 -0.390625 -2.3125 0.046875 -3.09375 C 0.484375 -3.875 0.941406 -4.613281 1.421875 -5.3125 C 2.222656 -6.46875 3.066406 -7.578125 3.953125 -8.640625 C 4.847656 -9.710938 5.75 -10.785156 6.65625 -11.859375 C 6.78125 -12.003906 6.898438 -12.144531 7.015625 -12.28125 C 7.128906 -12.414062 7.242188 -12.546875 7.359375 -12.671875 C 7.378906 -13.378906 7.394531 -14.082031 7.40625 -14.78125 C 7.414062 -15.476562 7.425781 -16.171875 7.4375 -16.859375 C 7.457031 -17.453125 7.46875 -18.046875 7.46875 -18.640625 C 7.476562 -19.234375 7.488281 -19.832031 7.5 -20.4375 C 7.28125 -19.738281 7.03125 -19.050781 6.75 -18.375 C 6.476562 -17.695312 6.171875 -17.046875 5.828125 -16.421875 C 5.378906 -15.628906 4.757812 -15.0625 3.96875 -14.71875 C 3.175781 -14.382812 2.320312 -14.34375 1.40625 -14.59375 C 0.738281 -14.789062 0.234375 -15.109375 -0.109375 -15.546875 C -0.460938 -15.992188 -0.710938 -16.507812 -0.859375 -17.09375 C -1.003906 -17.675781 -1.101562 -18.269531 -1.15625 -18.875 C -1.269531 -20.1875 -1.289062 -21.492188 -1.21875 -22.796875 C -1.144531 -24.109375 -0.988281 -25.410156 -0.75 -26.703125 C -0.601562 -27.398438 -0.441406 -28.132812 -0.265625 -28.90625 C -0.0859375 -29.6875 0.148438 -30.441406 0.453125 -31.171875 C 0.753906 -31.898438 1.144531 -32.539062 1.625 -33.09375 C 2.21875 -33.738281 2.957031 -34.179688 3.84375 -34.421875 C 4.726562 -34.660156 5.585938 -34.664062 6.421875 -34.4375 C 6.753906 -34.34375 7.039062 -34.226562 7.28125 -34.09375 C 7.519531 -33.957031 7.726562 -33.796875 7.90625 -33.609375 C 8.101562 -33.816406 8.390625 -33.960938 8.765625 -34.046875 C 9.148438 -34.140625 9.535156 -34.164062 9.921875 -34.125 C 10.316406 -34.082031 10.648438 -33.984375 10.921875 -33.828125 C 11.203125 -33.671875 11.34375 -33.457031 11.34375 -33.1875 C 11.34375 -30.519531 11.328125 -27.835938 11.296875 -25.140625 C 11.273438 -22.453125 11.234375 -19.769531 11.171875 -17.09375 C 11.410156 -17.394531 11.640625 -17.703125 11.859375 -18.015625 C 12.078125 -18.328125 12.289062 -18.644531 12.5 -18.96875 C 13.320312 -20.238281 14.082031 -21.519531 14.78125 -22.8125 C 15.476562 -24.101562 16.101562 -25.488281 16.65625 -26.96875 Z M 6.8125 -26.1875 C 6.914062 -26.726562 6.992188 -27.273438 7.046875 -27.828125 C 7.097656 -28.378906 7.195312 -28.914062 7.34375 -29.4375 C 7.238281 -29.5 7.175781 -29.582031 7.15625 -29.6875 C 7.082031 -30.007812 6.972656 -30.359375 6.828125 -30.734375 C 6.679688 -31.117188 6.5 -31.472656 6.28125 -31.796875 C 6.0625 -32.117188 5.820312 -32.359375 5.5625 -32.515625 C 5.300781 -32.671875 5.023438 -32.691406 4.734375 -32.578125 C 4.453125 -32.460938 4.171875 -32.15625 3.890625 -31.65625 C 3.492188 -30.976562 3.1875 -30.226562 2.96875 -29.40625 C 2.75 -28.59375 2.5625 -27.804688 2.40625 -27.046875 C 2.101562 -25.609375 1.90625 -24.125 1.8125 -22.59375 C 1.726562 -21.0625 1.796875 -19.5625 2.015625 -18.09375 C 2.023438 -18.039062 2.050781 -17.910156 2.09375 -17.703125 C 2.132812 -17.492188 2.1875 -17.265625 2.25 -17.015625 C 2.3125 -16.765625 2.390625 -16.550781 2.484375 -16.375 C 2.585938 -16.195312 2.695312 -16.117188 2.8125 -16.140625 C 3.207031 -16.296875 3.566406 -16.613281 3.890625 -17.09375 C 4.222656 -17.570312 4.53125 -18.144531 4.8125 -18.8125 C 5.09375 -19.476562 5.34375 -20.179688 5.5625 -20.921875 C 5.789062 -21.671875 5.988281 -22.394531 6.15625 -23.09375 C 6.320312 -23.800781 6.457031 -24.425781 6.5625 -24.96875 C 6.675781 -25.519531 6.757812 -25.925781 6.8125 -26.1875 Z M 6.5 -0.625 C 6.78125 -2.28125 6.976562 -3.953125 7.09375 -5.640625 C 7.207031 -7.328125 7.285156 -9.015625 7.328125 -10.703125 C 6.492188 -9.722656 5.671875 -8.722656 4.859375 -7.703125 C 4.054688 -6.679688 3.328125 -5.625 2.671875 -4.53125 C 2.023438 -3.4375 1.503906 -2.269531 1.109375 -1.03125 C 0.921875 -0.394531 0.789062 0.257812 0.71875 0.9375 C 0.65625 1.625 0.703125 2.296875 0.859375 2.953125 C 0.921875 3.222656 1.019531 3.515625 1.15625 3.828125 C 1.300781 4.148438 1.476562 4.445312 1.6875 4.71875 C 1.894531 4.988281 2.132812 5.195312 2.40625 5.34375 C 2.675781 5.488281 2.984375 5.523438 3.328125 5.453125 C 3.753906 5.347656 4.128906 5.128906 4.453125 4.796875 C 4.773438 4.472656 5.050781 4.070312 5.28125 3.59375 C 5.519531 3.125 5.71875 2.628906 5.875 2.109375 C 6.03125 1.597656 6.15625 1.101562 6.25 0.625 C 6.351562 0.144531 6.4375 -0.269531 6.5 -0.625 Z M 6.5 -0.625 "/></g></g></g><g fill="#ffffff" fill-opacity="1"><g transform="translate(71.134813, 63.499974)"><g><path d="M 16.9375 -24.921875 C 16.945312 -24.960938 17.003906 -24.988281 17.109375 -25 C 17.210938 -25.007812 17.316406 -25.007812 17.421875 -25 C 17.535156 -25 17.59375 -24.976562 17.59375 -24.9375 C 17.664062 -23.582031 17.597656 -22.25 17.390625 -20.9375 C 17.179688 -19.632812 16.890625 -18.34375 16.515625 -17.0625 C 16.140625 -15.78125 15.738281 -14.488281 15.3125 -13.1875 C 15.113281 -12.582031 14.859375 -12.015625 14.546875 -11.484375 C 14.234375 -10.960938 13.859375 -10.535156 13.421875 -10.203125 C 12.992188 -9.867188 12.507812 -9.6875 11.96875 -9.65625 C 11.425781 -9.625 10.828125 -9.804688 10.171875 -10.203125 C 9.734375 -10.472656 9.394531 -10.828125 9.15625 -11.265625 C 8.925781 -11.703125 8.75 -12.171875 8.625 -12.671875 C 8.507812 -13.171875 8.410156 -13.65625 8.328125 -14.125 C 8.140625 -15.125 8.019531 -16.128906 7.96875 -17.140625 C 7.925781 -18.160156 7.921875 -19.179688 7.953125 -20.203125 C 7.960938 -20.523438 7.976562 -20.84375 8 -21.15625 C 8.019531 -21.476562 8.035156 -21.796875 8.046875 -22.109375 C 7.765625 -21.203125 7.503906 -20.3125 7.265625 -19.4375 C 7.035156 -18.5625 6.789062 -17.757812 6.53125 -17.03125 C 6.28125 -16.300781 5.972656 -15.6875 5.609375 -15.1875 C 5.253906 -14.6875 4.796875 -14.34375 4.234375 -14.15625 C 3.472656 -13.914062 2.804688 -13.878906 2.234375 -14.046875 C 1.660156 -14.222656 1.164062 -14.550781 0.75 -15.03125 C 0.34375 -15.507812 0.00390625 -16.070312 -0.265625 -16.71875 C -0.535156 -17.375 -0.75 -18.050781 -0.90625 -18.75 C -1.0625 -19.457031 -1.171875 -20.113281 -1.234375 -20.71875 C -1.347656 -21.75 -1.414062 -22.785156 -1.4375 -23.828125 C -1.46875 -24.878906 -1.476562 -25.921875 -1.46875 -26.953125 C -1.46875 -27.535156 -1.457031 -28.144531 -1.4375 -28.78125 C -1.425781 -29.414062 -1.398438 -30.023438 -1.359375 -30.609375 C -1.328125 -31.191406 -1.257812 -31.710938 -1.15625 -32.171875 C -1.050781 -32.628906 -0.898438 -32.972656 -0.703125 -33.203125 C -0.554688 -33.367188 -0.335938 -33.519531 -0.046875 -33.65625 C 0.242188 -33.800781 0.554688 -33.882812 0.890625 -33.90625 C 1.222656 -33.9375 1.503906 -33.882812 1.734375 -33.75 C 1.972656 -33.625 2.09375 -33.382812 2.09375 -33.03125 C 2.101562 -32.757812 2.109375 -32.359375 2.109375 -31.828125 C 2.109375 -31.296875 2.109375 -30.695312 2.109375 -30.03125 C 2.109375 -29.363281 2.109375 -28.671875 2.109375 -27.953125 C 2.117188 -27.234375 2.128906 -26.539062 2.140625 -25.875 C 2.148438 -25.21875 2.160156 -24.625 2.171875 -24.09375 C 2.179688 -23.5625 2.191406 -23.160156 2.203125 -22.890625 C 2.242188 -22.148438 2.3125 -21.40625 2.40625 -20.65625 C 2.5 -19.914062 2.628906 -19.179688 2.796875 -18.453125 C 2.796875 -18.453125 2.8125 -18.351562 2.84375 -18.15625 C 2.882812 -17.96875 2.953125 -17.734375 3.046875 -17.453125 C 3.140625 -17.179688 3.253906 -16.914062 3.390625 -16.65625 C 3.535156 -16.394531 3.707031 -16.195312 3.90625 -16.0625 C 4.113281 -15.9375 4.351562 -15.921875 4.625 -16.015625 C 4.8125 -16.078125 5.015625 -16.351562 5.234375 -16.84375 C 5.453125 -17.332031 5.679688 -17.972656 5.921875 -18.765625 C 6.171875 -19.566406 6.414062 -20.445312 6.65625 -21.40625 C 6.894531 -22.375 7.125 -23.375 7.34375 -24.40625 C 7.5625 -25.4375 7.753906 -26.4375 7.921875 -27.40625 C 8.097656 -28.382812 8.238281 -29.273438 8.34375 -30.078125 C 8.445312 -30.890625 8.5 -31.539062 8.5 -32.03125 C 8.5 -32.125 8.5 -32.207031 8.5 -32.28125 C 8.5 -32.363281 8.492188 -32.453125 8.484375 -32.546875 C 8.453125 -32.785156 8.550781 -33.003906 8.78125 -33.203125 C 9.007812 -33.398438 9.296875 -33.550781 9.640625 -33.65625 C 9.992188 -33.769531 10.347656 -33.832031 10.703125 -33.84375 C 11.066406 -33.863281 11.375 -33.816406 11.625 -33.703125 C 11.882812 -33.585938 12.019531 -33.398438 12.03125 -33.140625 C 12.113281 -31.609375 12.101562 -30.046875 12 -28.453125 C 11.90625 -26.867188 11.800781 -25.269531 11.6875 -23.65625 C 11.582031 -22.050781 11.53125 -20.453125 11.53125 -18.859375 C 11.539062 -17.273438 11.675781 -15.722656 11.9375 -14.203125 C 12 -13.859375 12.0625 -13.515625 12.125 -13.171875 C 12.195312 -12.828125 12.296875 -12.5 12.421875 -12.1875 C 12.515625 -11.9375 12.644531 -11.691406 12.8125 -11.453125 C 12.820312 -11.429688 12.828125 -11.414062 12.828125 -11.40625 C 13.242188 -12.03125 13.585938 -12.648438 13.859375 -13.265625 C 14.140625 -13.890625 14.394531 -14.5625 14.625 -15.28125 C 15.132812 -16.84375 15.601562 -18.429688 16.03125 -20.046875 C 16.46875 -21.671875 16.769531 -23.296875 16.9375 -24.921875 Z M 16.9375 -24.921875 "/></g></g></g><g fill="#ffffff" fill-opacity="1"><g transform="translate(88.047222, 63.499974)"><g><path d="M 15.640625 -27.5 C 15.660156 -27.5625 15.738281 -27.597656 15.875 -27.609375 C 16.019531 -27.628906 16.164062 -27.625 16.3125 -27.59375 C 16.457031 -27.570312 16.519531 -27.53125 16.5 -27.46875 C 16.3125 -25.832031 16.050781 -24.195312 15.71875 -22.5625 C 15.382812 -20.9375 14.9375 -19.347656 14.375 -17.796875 C 14.164062 -17.210938 13.929688 -16.613281 13.671875 -16 C 13.410156 -15.394531 13.09375 -14.859375 12.71875 -14.390625 C 12.351562 -13.921875 11.894531 -13.585938 11.34375 -13.390625 C 10.800781 -13.191406 10.140625 -13.195312 9.359375 -13.40625 C 8.722656 -13.582031 8.222656 -13.914062 7.859375 -14.40625 C 7.492188 -14.90625 7.222656 -15.492188 7.046875 -16.171875 C 6.867188 -16.847656 6.75 -17.539062 6.6875 -18.25 C 6.550781 -17.832031 6.40625 -17.414062 6.25 -17 C 6.101562 -16.59375 5.941406 -16.191406 5.765625 -15.796875 C 5.523438 -15.265625 5.238281 -14.757812 4.90625 -14.28125 C 4.582031 -13.8125 4.207031 -13.414062 3.78125 -13.09375 C 3.351562 -12.78125 2.875 -12.578125 2.34375 -12.484375 C 1.820312 -12.398438 1.238281 -12.484375 0.59375 -12.734375 C 0.03125 -12.953125 -0.414062 -13.28125 -0.75 -13.71875 C -1.09375 -14.15625 -1.351562 -14.644531 -1.53125 -15.1875 C -1.707031 -15.738281 -1.832031 -16.304688 -1.90625 -16.890625 C -1.976562 -17.484375 -2.023438 -18.039062 -2.046875 -18.5625 C -2.128906 -19.945312 -2.09375 -21.328125 -1.9375 -22.703125 C -1.78125 -24.078125 -1.519531 -25.4375 -1.15625 -26.78125 C -1 -27.351562 -0.816406 -27.96875 -0.609375 -28.625 C -0.410156 -29.28125 -0.175781 -29.929688 0.09375 -30.578125 C 0.375 -31.222656 0.695312 -31.820312 1.0625 -32.375 C 1.425781 -32.9375 1.851562 -33.414062 2.34375 -33.8125 C 2.71875 -34.113281 3.148438 -34.34375 3.640625 -34.5 C 4.140625 -34.664062 4.648438 -34.75 5.171875 -34.75 C 5.691406 -34.75 6.191406 -34.660156 6.671875 -34.484375 C 7.160156 -34.304688 7.570312 -34.03125 7.90625 -33.65625 C 7.9375 -33.625 7.960938 -33.59375 7.984375 -33.5625 C 8.015625 -33.53125 8.039062 -33.492188 8.0625 -33.453125 C 8.445312 -33.554688 8.835938 -33.59375 9.234375 -33.5625 C 9.640625 -33.539062 9.984375 -33.453125 10.265625 -33.296875 C 10.546875 -33.140625 10.671875 -32.921875 10.640625 -32.640625 C 10.515625 -30.828125 10.394531 -29 10.28125 -27.15625 C 10.175781 -25.3125 10.148438 -23.472656 10.203125 -21.640625 C 10.253906 -19.816406 10.453125 -18.007812 10.796875 -16.21875 C 10.816406 -16.082031 10.84375 -15.945312 10.875 -15.8125 C 10.90625 -15.675781 10.941406 -15.539062 10.984375 -15.40625 C 11.117188 -15.582031 11.25 -15.753906 11.375 -15.921875 C 11.5 -16.085938 11.613281 -16.253906 11.71875 -16.421875 C 12.082031 -16.960938 12.410156 -17.507812 12.703125 -18.0625 C 12.992188 -18.625 13.265625 -19.195312 13.515625 -19.78125 C 14.046875 -21.019531 14.484375 -22.28125 14.828125 -23.5625 C 15.179688 -24.84375 15.453125 -26.15625 15.640625 -27.5 Z M 5 -22.46875 C 5.351562 -23.695312 5.640625 -24.941406 5.859375 -26.203125 C 6.078125 -27.460938 6.289062 -28.722656 6.5 -29.984375 C 6.414062 -30.242188 6.300781 -30.5 6.15625 -30.75 C 6.019531 -30.96875 5.894531 -31.1875 5.78125 -31.40625 C 5.664062 -31.625 5.535156 -31.835938 5.390625 -32.046875 C 5.335938 -32.128906 5.28125 -32.207031 5.21875 -32.28125 C 5.164062 -32.363281 5.109375 -32.441406 5.046875 -32.515625 C 4.953125 -32.378906 4.863281 -32.238281 4.78125 -32.09375 C 4.695312 -31.945312 4.613281 -31.800781 4.53125 -31.65625 C 4.40625 -31.4375 4.28125 -31.207031 4.15625 -30.96875 C 4.039062 -30.726562 3.929688 -30.484375 3.828125 -30.234375 C 3.359375 -29.222656 2.96875 -28.1875 2.65625 -27.125 C 2.300781 -25.976562 2.035156 -24.800781 1.859375 -23.59375 C 1.691406 -22.394531 1.609375 -21.195312 1.609375 -20 C 1.609375 -19.46875 1.617188 -18.929688 1.640625 -18.390625 C 1.671875 -17.847656 1.726562 -17.3125 1.8125 -16.78125 C 1.84375 -16.625 1.890625 -16.375 1.953125 -16.03125 C 2.015625 -15.6875 2.109375 -15.359375 2.234375 -15.046875 C 2.460938 -15.367188 2.671875 -15.738281 2.859375 -16.15625 C 3.046875 -16.582031 3.210938 -16.988281 3.359375 -17.375 C 3.515625 -17.757812 3.625 -18.039062 3.6875 -18.21875 C 3.945312 -18.914062 4.179688 -19.617188 4.390625 -20.328125 C 4.597656 -21.035156 4.800781 -21.75 5 -22.46875 Z M 5 -22.46875 "/></g></g></g><g fill="#ffffff" fill-opacity="1"><g transform="translate(103.807406, 63.499974)"><g><path d="M 10.390625 -23.75 C 10.328125 -23.632812 10.164062 -23.550781 9.90625 -23.5 C 9.65625 -23.445312 9.378906 -23.429688 9.078125 -23.453125 C 8.785156 -23.472656 8.539062 -23.53125 8.34375 -23.625 C 8.144531 -23.71875 8.070312 -23.851562 8.125 -24.03125 C 8.28125 -24.582031 8.429688 -25.207031 8.578125 -25.90625 C 8.722656 -26.601562 8.8125 -27.316406 8.84375 -28.046875 C 8.882812 -28.785156 8.84375 -29.5 8.71875 -30.1875 C 8.59375 -30.882812 8.347656 -31.519531 7.984375 -32.09375 C 7.617188 -32.664062 7.09375 -33.128906 6.40625 -33.484375 C 6 -33.691406 5.675781 -33.773438 5.4375 -33.734375 C 5.195312 -33.703125 4.910156 -33.550781 4.578125 -33.28125 C 4.128906 -32.914062 3.742188 -32.460938 3.421875 -31.921875 C 3.097656 -31.378906 2.835938 -30.835938 2.640625 -30.296875 C 2.191406 -29.015625 2.101562 -27.726562 2.375 -26.4375 C 2.65625 -25.144531 3.234375 -23.988281 4.109375 -22.96875 C 4.503906 -22.5 4.945312 -22.082031 5.4375 -21.71875 C 5.925781 -21.363281 6.425781 -21.023438 6.9375 -20.703125 C 7.457031 -20.390625 7.960938 -20.0625 8.453125 -19.71875 C 8.941406 -19.382812 9.394531 -19 9.8125 -18.5625 C 10.34375 -18 10.695312 -17.390625 10.875 -16.734375 C 11.0625 -16.078125 11.046875 -15.4375 10.828125 -14.8125 C 10.617188 -14.195312 10.1875 -13.660156 9.53125 -13.203125 C 8.9375 -12.785156 8.273438 -12.484375 7.546875 -12.296875 C 6.816406 -12.109375 6.09375 -11.992188 5.375 -11.953125 C 4.21875 -11.898438 3.164062 -12.050781 2.21875 -12.40625 C 1.269531 -12.769531 0.5 -13.34375 -0.09375 -14.125 C -0.6875 -14.90625 -1.046875 -15.894531 -1.171875 -17.09375 C -1.203125 -17.351562 -1.097656 -17.5625 -0.859375 -17.71875 C -0.628906 -17.882812 -0.332031 -18 0.03125 -18.0625 C 0.40625 -18.132812 0.773438 -18.148438 1.140625 -18.109375 C 1.515625 -18.066406 1.832031 -17.96875 2.09375 -17.8125 C 2.363281 -17.65625 2.515625 -17.441406 2.546875 -17.171875 C 2.597656 -16.710938 2.703125 -16.234375 2.859375 -15.734375 C 3.015625 -15.242188 3.25 -14.820312 3.5625 -14.46875 C 3.882812 -14.125 4.316406 -13.925781 4.859375 -13.875 C 5.203125 -13.84375 5.546875 -13.890625 5.890625 -14.015625 C 6.242188 -14.140625 6.546875 -14.320312 6.796875 -14.5625 C 7.054688 -14.8125 7.222656 -15.125 7.296875 -15.5 C 7.367188 -15.875 7.300781 -16.296875 7.09375 -16.765625 C 6.925781 -17.160156 6.679688 -17.5 6.359375 -17.78125 C 6.035156 -18.070312 5.6875 -18.332031 5.3125 -18.5625 C 4.9375 -18.789062 4.570312 -19.015625 4.21875 -19.234375 C 3.726562 -19.546875 3.242188 -19.878906 2.765625 -20.234375 C 2.285156 -20.597656 1.835938 -20.984375 1.421875 -21.390625 C 0.609375 -22.191406 -0.0664062 -23.097656 -0.609375 -24.109375 C -1.148438 -25.128906 -1.445312 -26.226562 -1.5 -27.40625 C -1.539062 -28.34375 -1.425781 -29.265625 -1.15625 -30.171875 C -0.882812 -31.078125 -0.484375 -31.910156 0.046875 -32.671875 C 0.585938 -33.441406 1.222656 -34.085938 1.953125 -34.609375 C 2.691406 -35.128906 3.507812 -35.476562 4.40625 -35.65625 C 5.3125 -35.832031 6.257812 -35.789062 7.25 -35.53125 C 8.34375 -35.238281 9.226562 -34.773438 9.90625 -34.140625 C 10.59375 -33.515625 11.097656 -32.78125 11.421875 -31.9375 C 11.753906 -31.09375 11.921875 -30.191406 11.921875 -29.234375 C 11.929688 -28.285156 11.800781 -27.335938 11.53125 -26.390625 C 11.269531 -25.453125 10.890625 -24.570312 10.390625 -23.75 Z M 10.390625 -23.75 "/></g></g></g><g fill="#ffffff" fill-opacity="1"><g transform="translate(117.517004, 63.499974)"><g/></g></g><g fill="#ffffff" fill-opacity="1"><g transform="translate(127.340268, 63.499974)"><g><path d="M 11.390625 -36.34375 C 10.492188 -35.757812 9.570312 -35.410156 8.625 -35.296875 C 7.675781 -35.191406 6.765625 -35.273438 5.890625 -35.546875 C 5.015625 -35.816406 4.21875 -36.25 3.5 -36.84375 C 2.78125 -37.445312 2.195312 -38.171875 1.75 -39.015625 C 1.300781 -39.867188 1.035156 -40.8125 0.953125 -41.84375 C 0.847656 -43.257812 1.023438 -44.582031 1.484375 -45.8125 C 1.941406 -47.039062 2.601562 -48.148438 3.46875 -49.140625 C 4.34375 -50.140625 5.347656 -50.992188 6.484375 -51.703125 C 7.628906 -52.421875 8.828125 -52.960938 10.078125 -53.328125 C 11.046875 -53.609375 12.113281 -53.789062 13.28125 -53.875 C 14.457031 -53.957031 15.6875 -53.976562 16.96875 -53.9375 C 18.257812 -53.90625 19.570312 -53.84375 20.90625 -53.75 C 22.238281 -53.65625 23.550781 -53.570312 24.84375 -53.5 C 26.144531 -53.4375 27.390625 -53.414062 28.578125 -53.4375 C 29.773438 -53.46875 30.875 -53.570312 31.875 -53.75 C 32.875 -53.9375 33.742188 -54.234375 34.484375 -54.640625 C 35.222656 -55.046875 35.785156 -55.613281 36.171875 -56.34375 C 36.535156 -57.019531 36.742188 -57.753906 36.796875 -58.546875 C 36.847656 -59.347656 36.707031 -60.097656 36.375 -60.796875 C 36.132812 -61.285156 35.820312 -61.660156 35.4375 -61.921875 C 35.050781 -62.191406 34.648438 -62.46875 34.234375 -62.75 C 34.066406 -62.875 34.003906 -63.003906 34.046875 -63.140625 C 34.085938 -63.273438 34.175781 -63.394531 34.3125 -63.5 C 34.445312 -63.613281 34.570312 -63.6875 34.6875 -63.71875 C 35.414062 -63.9375 36.128906 -63.96875 36.828125 -63.8125 C 37.523438 -63.664062 38.148438 -63.363281 38.703125 -62.90625 C 39.265625 -62.457031 39.695312 -61.878906 40 -61.171875 C 40.3125 -60.472656 40.460938 -59.710938 40.453125 -58.890625 C 40.441406 -58.066406 40.285156 -57.273438 39.984375 -56.515625 C 39.691406 -55.753906 39.273438 -55.085938 38.734375 -54.515625 C 38.273438 -54.046875 37.710938 -53.628906 37.046875 -53.265625 C 36.390625 -52.898438 35.703125 -52.59375 34.984375 -52.34375 C 34.265625 -52.09375 33.585938 -51.898438 32.953125 -51.765625 C 31.691406 -51.472656 30.441406 -51.359375 29.203125 -51.421875 C 27.960938 -51.492188 26.707031 -51.582031 25.4375 -51.6875 C 24.875 -51.738281 24.304688 -51.796875 23.734375 -51.859375 C 23.171875 -51.921875 22.609375 -51.976562 22.046875 -52.03125 C 21.835938 -51.757812 21.597656 -51.289062 21.328125 -50.625 C 21.054688 -49.957031 20.816406 -49.039062 20.609375 -47.875 C 20.398438 -46.71875 20.273438 -45.238281 20.234375 -43.4375 C 20.179688 -40.5625 20.085938 -37.679688 19.953125 -34.796875 C 19.828125 -31.921875 19.757812 -29.046875 19.75 -26.171875 C 20.394531 -26.015625 21.046875 -25.878906 21.703125 -25.765625 C 22.367188 -25.660156 23.003906 -25.675781 23.609375 -25.8125 C 24.210938 -25.957031 24.75 -26.316406 25.21875 -26.890625 C 25.695312 -27.460938 25.972656 -28.082031 26.046875 -28.75 C 26.128906 -29.425781 26.015625 -30.050781 25.703125 -30.625 C 25.398438 -31.195312 24.898438 -31.613281 24.203125 -31.875 C 23.898438 -31.988281 23.734375 -32.125 23.703125 -32.28125 C 23.671875 -32.4375 23.722656 -32.585938 23.859375 -32.734375 C 23.992188 -32.890625 24.160156 -33.019531 24.359375 -33.125 C 24.566406 -33.238281 24.753906 -33.3125 24.921875 -33.34375 C 25.679688 -33.457031 26.394531 -33.394531 27.0625 -33.15625 C 27.726562 -32.914062 28.296875 -32.523438 28.765625 -31.984375 C 29.234375 -31.453125 29.539062 -30.796875 29.6875 -30.015625 C 29.832031 -29.304688 29.789062 -28.613281 29.5625 -27.9375 C 29.332031 -27.257812 28.976562 -26.644531 28.5 -26.09375 C 28.019531 -25.550781 27.472656 -25.109375 26.859375 -24.765625 C 26.128906 -24.359375 25.363281 -24.082031 24.5625 -23.9375 C 23.769531 -23.800781 22.96875 -23.757812 22.15625 -23.8125 C 21.34375 -23.863281 20.539062 -23.960938 19.75 -24.109375 C 19.769531 -22.296875 19.785156 -20.453125 19.796875 -18.578125 C 19.804688 -16.703125 19.734375 -14.84375 19.578125 -13 C 19.429688 -11.15625 19.117188 -9.363281 18.640625 -7.625 C 18.390625 -6.71875 18.039062 -5.851562 17.59375 -5.03125 C 17.144531 -4.207031 16.609375 -3.457031 15.984375 -2.78125 C 15.359375 -2.113281 14.65625 -1.566406 13.875 -1.140625 C 13.09375 -0.722656 12.25 -0.460938 11.34375 -0.359375 C 10.4375 -0.253906 9.484375 -0.363281 8.484375 -0.6875 C 7.785156 -0.90625 7.1875 -1.25 6.6875 -1.71875 C 6.195312 -2.1875 5.804688 -2.734375 5.515625 -3.359375 C 5.234375 -3.984375 5.054688 -4.640625 4.984375 -5.328125 C 4.921875 -6.023438 4.96875 -6.695312 5.125 -7.34375 C 5.332031 -8.15625 5.632812 -8.785156 6.03125 -9.234375 C 6.425781 -9.691406 6.847656 -9.992188 7.296875 -10.140625 C 7.742188 -10.285156 8.144531 -10.289062 8.5 -10.15625 C 8.863281 -10.03125 9.109375 -9.769531 9.234375 -9.375 C 9.367188 -8.988281 9.304688 -8.492188 9.046875 -7.890625 C 8.796875 -7.328125 8.664062 -6.742188 8.65625 -6.140625 C 8.644531 -5.535156 8.722656 -4.941406 8.890625 -4.359375 C 8.992188 -4.046875 9.132812 -3.71875 9.3125 -3.375 C 9.5 -3.039062 9.734375 -2.769531 10.015625 -2.5625 C 10.304688 -2.351562 10.640625 -2.28125 11.015625 -2.34375 C 11.378906 -2.425781 11.722656 -2.59375 12.046875 -2.84375 C 12.378906 -3.09375 12.675781 -3.378906 12.9375 -3.703125 C 13.195312 -4.035156 13.414062 -4.34375 13.59375 -4.625 C 14.300781 -5.75 14.828125 -6.960938 15.171875 -8.265625 C 15.515625 -9.578125 15.738281 -10.929688 15.84375 -12.328125 C 15.957031 -13.722656 16.007812 -15.109375 16 -16.484375 C 16 -17.867188 16.003906 -19.191406 16.015625 -20.453125 C 16.023438 -21.191406 16.03125 -21.929688 16.03125 -22.671875 C 16.03125 -23.421875 16.03125 -24.171875 16.03125 -24.921875 C 15.6875 -24.972656 15.34375 -25 15 -25 C 14.664062 -25 14.328125 -24.960938 13.984375 -24.890625 C 13.578125 -24.796875 13.207031 -24.628906 12.875 -24.390625 C 12.550781 -24.148438 12.25 -23.898438 11.96875 -23.640625 C 11.695312 -23.378906 11.441406 -23.144531 11.203125 -22.9375 C 10.972656 -22.738281 10.753906 -22.617188 10.546875 -22.578125 C 10.335938 -22.535156 10.132812 -22.632812 9.9375 -22.875 C 9.707031 -23.144531 9.65625 -23.445312 9.78125 -23.78125 C 9.914062 -24.113281 10.148438 -24.4375 10.484375 -24.75 C 10.816406 -25.070312 11.171875 -25.359375 11.546875 -25.609375 C 11.921875 -25.859375 12.238281 -26.039062 12.5 -26.15625 C 13.050781 -26.414062 13.625 -26.585938 14.21875 -26.671875 C 14.820312 -26.765625 15.421875 -26.800781 16.015625 -26.78125 C 16.003906 -28.5625 16.007812 -30.34375 16.03125 -32.125 C 16.0625 -33.914062 16.148438 -35.703125 16.296875 -37.484375 C 16.484375 -39.890625 16.738281 -41.96875 17.0625 -43.71875 C 17.382812 -45.46875 17.710938 -46.925781 18.046875 -48.09375 C 18.390625 -49.269531 18.695312 -50.195312 18.96875 -50.875 C 19.25 -51.550781 19.457031 -52.019531 19.59375 -52.28125 C 18.4375 -52.382812 17.285156 -52.421875 16.140625 -52.390625 C 15.003906 -52.359375 13.875 -52.207031 12.75 -51.9375 C 11.632812 -51.664062 10.53125 -51.203125 9.4375 -50.546875 C 8.300781 -49.867188 7.34375 -49.082031 6.5625 -48.1875 C 5.789062 -47.289062 5.191406 -46.351562 4.765625 -45.375 C 4.347656 -44.394531 4.097656 -43.4375 4.015625 -42.5 C 3.941406 -41.570312 4.03125 -40.722656 4.28125 -39.953125 C 4.53125 -39.191406 4.941406 -38.566406 5.515625 -38.078125 C 6.085938 -37.597656 6.816406 -37.332031 7.703125 -37.28125 C 8.347656 -37.25 8.96875 -37.351562 9.5625 -37.59375 C 10.15625 -37.84375 10.671875 -38.203125 11.109375 -38.671875 C 11.546875 -39.140625 11.863281 -39.691406 12.0625 -40.328125 C 12.257812 -40.972656 12.296875 -41.675781 12.171875 -42.4375 C 12.054688 -43.195312 11.722656 -43.992188 11.171875 -44.828125 C 11.046875 -45.046875 10.875 -45.226562 10.65625 -45.375 C 10.4375 -45.519531 10.242188 -45.65625 10.078125 -45.78125 C 9.910156 -45.914062 9.828125 -46.066406 9.828125 -46.234375 C 9.828125 -46.460938 9.890625 -46.648438 10.015625 -46.796875 C 10.148438 -46.941406 10.296875 -47.050781 10.453125 -47.125 C 10.609375 -47.207031 10.722656 -47.257812 10.796875 -47.28125 C 11.304688 -47.488281 11.800781 -47.539062 12.28125 -47.4375 C 12.769531 -47.332031 13.210938 -47.117188 13.609375 -46.796875 C 14.003906 -46.472656 14.332031 -46.0625 14.59375 -45.5625 C 14.863281 -45.0625 15.039062 -44.507812 15.125 -43.90625 C 15.226562 -43.207031 15.203125 -42.492188 15.046875 -41.765625 C 14.890625 -41.046875 14.628906 -40.34375 14.265625 -39.65625 C 13.910156 -38.976562 13.484375 -38.351562 12.984375 -37.78125 C 12.492188 -37.207031 11.960938 -36.726562 11.390625 -36.34375 Z M 11.390625 -36.34375 "/></g></g></g><g fill="#ffffff" fill-opacity="1"><g transform="translate(159.915209, 63.499974)"><g><path d="M 9.265625 -25.09375 C 8.660156 -24.5 8.054688 -24.109375 7.453125 -23.921875 C 6.847656 -23.742188 6.210938 -23.875 5.546875 -24.3125 C 5.265625 -24.507812 5.0625 -24.765625 4.9375 -25.078125 C 4.8125 -25.390625 4.757812 -25.703125 4.78125 -26.015625 C 4.8125 -26.328125 4.898438 -26.582031 5.046875 -26.78125 C 5.097656 -26.820312 5.210938 -26.847656 5.390625 -26.859375 C 5.578125 -26.867188 5.765625 -26.859375 5.953125 -26.828125 C 6.148438 -26.804688 6.300781 -26.765625 6.40625 -26.703125 C 6.519531 -26.640625 6.535156 -26.535156 6.453125 -26.390625 C 6.347656 -26.234375 6.296875 -26.054688 6.296875 -25.859375 C 6.304688 -25.660156 6.375 -25.492188 6.5 -25.359375 C 6.625 -25.222656 6.800781 -25.15625 7.03125 -25.15625 C 7.269531 -25.164062 7.484375 -25.320312 7.671875 -25.625 C 7.859375 -25.925781 8.019531 -26.316406 8.15625 -26.796875 C 8.300781 -27.273438 8.414062 -27.785156 8.5 -28.328125 C 8.59375 -28.878906 8.640625 -29.40625 8.640625 -29.90625 C 8.640625 -30.414062 8.59375 -30.84375 8.5 -31.1875 C 8.414062 -31.53125 8.285156 -31.734375 8.109375 -31.796875 C 7.691406 -31.953125 7.257812 -31.882812 6.8125 -31.59375 C 6.363281 -31.300781 5.925781 -30.828125 5.5 -30.171875 C 5.070312 -29.523438 4.671875 -28.726562 4.296875 -27.78125 C 3.929688 -26.84375 3.613281 -25.796875 3.34375 -24.640625 C 3.070312 -23.484375 2.867188 -22.269531 2.734375 -21 C 2.503906 -19.695312 2.390625 -18.320312 2.390625 -16.875 C 2.398438 -15.425781 2.398438 -14.023438 2.390625 -12.671875 C 2.390625 -12.617188 2.390625 -12.5625 2.390625 -12.5 C 2.398438 -12.4375 2.40625 -12.378906 2.40625 -12.328125 L 2.390625 -12.328125 C 2.390625 -12.234375 2.382812 -12.140625 2.375 -12.046875 C 2.363281 -11.960938 2.359375 -11.875 2.359375 -11.78125 C 2.347656 -11.519531 2.222656 -11.320312 1.984375 -11.1875 C 1.753906 -11.0625 1.460938 -10.992188 1.109375 -10.984375 C 0.765625 -10.984375 0.414062 -11.035156 0.0625 -11.140625 C -0.289062 -11.242188 -0.585938 -11.390625 -0.828125 -11.578125 C -1.066406 -11.765625 -1.195312 -11.988281 -1.21875 -12.25 C -1.300781 -14.1875 -1.378906 -16.117188 -1.453125 -18.046875 C -1.535156 -19.972656 -1.585938 -21.898438 -1.609375 -23.828125 C -1.609375 -24.796875 -1.59375 -25.765625 -1.5625 -26.734375 C -1.539062 -27.703125 -1.503906 -28.660156 -1.453125 -29.609375 C -1.410156 -30.191406 -1.351562 -30.804688 -1.28125 -31.453125 C -1.21875 -32.097656 -1.117188 -32.707031 -0.984375 -33.28125 C -0.859375 -33.851562 -0.691406 -34.316406 -0.484375 -34.671875 C -0.378906 -34.847656 -0.195312 -34.992188 0.0625 -35.109375 C 0.320312 -35.222656 0.601562 -35.296875 0.90625 -35.328125 C 1.21875 -35.359375 1.507812 -35.34375 1.78125 -35.28125 C 2.0625 -35.226562 2.285156 -35.125 2.453125 -34.96875 C 2.617188 -34.820312 2.675781 -34.625 2.625 -34.375 C 2.425781 -33.375 2.3125 -32.460938 2.28125 -31.640625 C 2.25 -30.816406 2.207031 -29.957031 2.15625 -29.0625 C 2.132812 -28.550781 2.113281 -28.035156 2.09375 -27.515625 C 2.082031 -26.992188 2.066406 -26.472656 2.046875 -25.953125 C 2.117188 -26.148438 2.1875 -26.34375 2.25 -26.53125 C 2.320312 -26.71875 2.398438 -26.910156 2.484375 -27.109375 C 2.816406 -27.972656 3.175781 -28.847656 3.5625 -29.734375 C 3.957031 -30.617188 4.398438 -31.429688 4.890625 -32.171875 C 5.390625 -32.910156 5.945312 -33.5 6.5625 -33.9375 C 7.1875 -34.375 7.894531 -34.570312 8.6875 -34.53125 C 9.226562 -34.507812 9.664062 -34.3125 10 -33.9375 C 10.34375 -33.5625 10.59375 -33.082031 10.75 -32.5 C 10.914062 -31.914062 11 -31.273438 11 -30.578125 C 11.007812 -29.878906 10.945312 -29.175781 10.8125 -28.46875 C 10.675781 -27.769531 10.476562 -27.125 10.21875 -26.53125 C 9.957031 -25.9375 9.640625 -25.457031 9.265625 -25.09375 Z M 9.265625 -25.09375 "/></g></g></g><g fill="#ffffff" fill-opacity="1"><g transform="translate(172.843633, 63.499974)"><g><path d="M 7.9375 -24.203125 C 7.570312 -23.585938 7.140625 -23.019531 6.640625 -22.5 C 6.148438 -21.988281 5.59375 -21.585938 4.96875 -21.296875 C 4.351562 -21.015625 3.660156 -20.910156 2.890625 -20.984375 C 2.816406 -20.984375 2.738281 -20.988281 2.65625 -21 C 2.582031 -21.007812 2.503906 -21.019531 2.421875 -21.03125 C 2.472656 -20.320312 2.570312 -19.628906 2.71875 -18.953125 C 2.875 -18.273438 3.097656 -17.664062 3.390625 -17.125 C 3.691406 -16.582031 4.085938 -16.140625 4.578125 -15.796875 C 5.078125 -15.460938 5.6875 -15.28125 6.40625 -15.25 C 7.03125 -15.226562 7.617188 -15.375 8.171875 -15.6875 C 8.722656 -16 9.234375 -16.410156 9.703125 -16.921875 C 10.171875 -17.441406 10.597656 -17.988281 10.984375 -18.5625 C 11.378906 -19.132812 11.734375 -19.671875 12.046875 -20.171875 C 12.148438 -20.347656 12.296875 -20.628906 12.484375 -21.015625 C 12.679688 -21.410156 12.890625 -21.863281 13.109375 -22.375 C 13.328125 -22.882812 13.539062 -23.414062 13.75 -23.96875 C 13.96875 -24.53125 14.160156 -25.078125 14.328125 -25.609375 C 14.492188 -26.140625 14.613281 -26.609375 14.6875 -27.015625 C 14.738281 -27.285156 14.851562 -27.457031 15.03125 -27.53125 C 15.207031 -27.613281 15.367188 -27.609375 15.515625 -27.515625 C 15.671875 -27.429688 15.710938 -27.257812 15.640625 -27 C 15.484375 -26.300781 15.257812 -25.507812 14.96875 -24.625 C 14.675781 -23.738281 14.34375 -22.832031 13.96875 -21.90625 C 13.59375 -20.976562 13.195312 -20.078125 12.78125 -19.203125 C 12.257812 -18.097656 11.648438 -17.09375 10.953125 -16.1875 C 10.253906 -15.28125 9.488281 -14.550781 8.65625 -14 C 7.832031 -13.457031 6.953125 -13.15625 6.015625 -13.09375 C 5.140625 -13.019531 4.296875 -13.097656 3.484375 -13.328125 C 2.671875 -13.566406 1.945312 -13.953125 1.3125 -14.484375 C 0.675781 -15.023438 0.160156 -15.707031 -0.234375 -16.53125 C -0.597656 -17.332031 -0.859375 -18.1875 -1.015625 -19.09375 C -1.171875 -20.007812 -1.25 -20.9375 -1.25 -21.875 C -1.257812 -22.820312 -1.238281 -23.726562 -1.1875 -24.59375 C -1.15625 -25.289062 -1.0625 -26.0625 -0.90625 -26.90625 C -0.757812 -27.75 -0.546875 -28.601562 -0.265625 -29.46875 C 0.00390625 -30.34375 0.34375 -31.179688 0.75 -31.984375 C 1.164062 -32.796875 1.648438 -33.519531 2.203125 -34.15625 C 2.765625 -34.800781 3.40625 -35.3125 4.125 -35.6875 C 4.84375 -36.0625 5.644531 -36.25 6.53125 -36.25 C 7.382812 -36.25 8.070312 -36.082031 8.59375 -35.75 C 9.113281 -35.414062 9.492188 -34.957031 9.734375 -34.375 C 9.972656 -33.800781 10.109375 -33.148438 10.140625 -32.421875 C 10.179688 -31.703125 10.132812 -30.945312 10 -30.15625 C 9.875 -29.375 9.691406 -28.601562 9.453125 -27.84375 C 9.222656 -27.09375 8.972656 -26.398438 8.703125 -25.765625 C 8.429688 -25.140625 8.175781 -24.617188 7.9375 -24.203125 Z M 2.390625 -22.5 C 2.421875 -22.476562 2.457031 -22.453125 2.5 -22.421875 C 2.539062 -22.398438 2.585938 -22.375 2.640625 -22.34375 C 3.023438 -22.144531 3.382812 -22.101562 3.71875 -22.21875 C 4.0625 -22.332031 4.375 -22.53125 4.65625 -22.8125 C 4.945312 -23.101562 5.203125 -23.421875 5.421875 -23.765625 C 5.648438 -24.109375 5.84375 -24.410156 6 -24.671875 C 6.570312 -25.703125 7.03125 -26.789062 7.375 -27.9375 C 7.71875 -29.082031 7.894531 -30.238281 7.90625 -31.40625 C 7.925781 -31.707031 7.914062 -32.078125 7.875 -32.515625 C 7.84375 -32.960938 7.757812 -33.390625 7.625 -33.796875 C 7.5 -34.210938 7.28125 -34.503906 6.96875 -34.671875 C 6.6875 -34.835938 6.328125 -34.757812 5.890625 -34.4375 C 5.453125 -34.125 5.007812 -33.597656 4.5625 -32.859375 C 4.113281 -32.128906 3.710938 -31.210938 3.359375 -30.109375 C 3.003906 -29.003906 2.757812 -27.757812 2.625 -26.375 C 2.582031 -25.957031 2.53125 -25.40625 2.46875 -24.71875 C 2.414062 -24.03125 2.390625 -23.289062 2.390625 -22.5 Z M 2.390625 -22.5 "/></g></g></g><g fill="#ffffff" fill-opacity="1"><g transform="translate(187.685932, 63.499974)"><g><path d="M 10.390625 -23.75 C 10.328125 -23.632812 10.164062 -23.550781 9.90625 -23.5 C 9.65625 -23.445312 9.378906 -23.429688 9.078125 -23.453125 C 8.785156 -23.472656 8.539062 -23.53125 8.34375 -23.625 C 8.144531 -23.71875 8.070312 -23.851562 8.125 -24.03125 C 8.28125 -24.582031 8.429688 -25.207031 8.578125 -25.90625 C 8.722656 -26.601562 8.8125 -27.316406 8.84375 -28.046875 C 8.882812 -28.785156 8.84375 -29.5 8.71875 -30.1875 C 8.59375 -30.882812 8.347656 -31.519531 7.984375 -32.09375 C 7.617188 -32.664062 7.09375 -33.128906 6.40625 -33.484375 C 6 -33.691406 5.675781 -33.773438 5.4375 -33.734375 C 5.195312 -33.703125 4.910156 -33.550781 4.578125 -33.28125 C 4.128906 -32.914062 3.742188 -32.460938 3.421875 -31.921875 C 3.097656 -31.378906 2.835938 -30.835938 2.640625 -30.296875 C 2.191406 -29.015625 2.101562 -27.726562 2.375 -26.4375 C 2.65625 -25.144531 3.234375 -23.988281 4.109375 -22.96875 C 4.503906 -22.5 4.945312 -22.082031 5.4375 -21.71875 C 5.925781 -21.363281 6.425781 -21.023438 6.9375 -20.703125 C 7.457031 -20.390625 7.960938 -20.0625 8.453125 -19.71875 C 8.941406 -19.382812 9.394531 -19 9.8125 -18.5625 C 10.34375 -18 10.695312 -17.390625 10.875 -16.734375 C 11.0625 -16.078125 11.046875 -15.4375 10.828125 -14.8125 C 10.617188 -14.195312 10.1875 -13.660156 9.53125 -13.203125 C 8.9375 -12.785156 8.273438 -12.484375 7.546875 -12.296875 C 6.816406 -12.109375 6.09375 -11.992188 5.375 -11.953125 C 4.21875 -11.898438 3.164062 -12.050781 2.21875 -12.40625 C 1.269531 -12.769531 0.5 -13.34375 -0.09375 -14.125 C -0.6875 -14.90625 -1.046875 -15.894531 -1.171875 -17.09375 C -1.203125 -17.351562 -1.097656 -17.5625 -0.859375 -17.71875 C -0.628906 -17.882812 -0.332031 -18 0.03125 -18.0625 C 0.40625 -18.132812 0.773438 -18.148438 1.140625 -18.109375 C 1.515625 -18.066406 1.832031 -17.96875 2.09375 -17.8125 C 2.363281 -17.65625 2.515625 -17.441406 2.546875 -17.171875 C 2.597656 -16.710938 2.703125 -16.234375 2.859375 -15.734375 C 3.015625 -15.242188 3.25 -14.820312 3.5625 -14.46875 C 3.882812 -14.125 4.316406 -13.925781 4.859375 -13.875 C 5.203125 -13.84375 5.546875 -13.890625 5.890625 -14.015625 C 6.242188 -14.140625 6.546875 -14.320312 6.796875 -14.5625 C 7.054688 -14.8125 7.222656 -15.125 7.296875 -15.5 C 7.367188 -15.875 7.300781 -16.296875 7.09375 -16.765625 C 6.925781 -17.160156 6.679688 -17.5 6.359375 -17.78125 C 6.035156 -18.070312 5.6875 -18.332031 5.3125 -18.5625 C 4.9375 -18.789062 4.570312 -19.015625 4.21875 -19.234375 C 3.726562 -19.546875 3.242188 -19.878906 2.765625 -20.234375 C 2.285156 -20.597656 1.835938 -20.984375 1.421875 -21.390625 C 0.609375 -22.191406 -0.0664062 -23.097656 -0.609375 -24.109375 C -1.148438 -25.128906 -1.445312 -26.226562 -1.5 -27.40625 C -1.539062 -28.34375 -1.425781 -29.265625 -1.15625 -30.171875 C -0.882812 -31.078125 -0.484375 -31.910156 0.046875 -32.671875 C 0.585938 -33.441406 1.222656 -34.085938 1.953125 -34.609375 C 2.691406 -35.128906 3.507812 -35.476562 4.40625 -35.65625 C 5.3125 -35.832031 6.257812 -35.789062 7.25 -35.53125 C 8.34375 -35.238281 9.226562 -34.773438 9.90625 -34.140625 C 10.59375 -33.515625 11.097656 -32.78125 11.421875 -31.9375 C 11.753906 -31.09375 11.921875 -30.191406 11.921875 -29.234375 C 11.929688 -28.285156 11.800781 -27.335938 11.53125 -26.390625 C 11.269531 -25.453125 10.890625 -24.570312 10.390625 -23.75 Z M 10.390625 -23.75 "/></g></g></g><g fill="#ffffff" fill-opacity="1"><g transform="translate(201.39553, 63.499974)"><g><path d="M 13.65625 -26.890625 C 13.675781 -27.023438 13.734375 -27.097656 13.828125 -27.109375 C 13.921875 -27.117188 14.003906 -27.101562 14.078125 -27.0625 C 14.160156 -27.03125 14.203125 -26.992188 14.203125 -26.953125 C 14.097656 -24.972656 13.847656 -23.117188 13.453125 -21.390625 C 13.054688 -19.660156 12.535156 -18.125 11.890625 -16.78125 C 11.242188 -15.4375 10.5 -14.347656 9.65625 -13.515625 C 8.820312 -12.679688 7.914062 -12.164062 6.9375 -11.96875 C 6.269531 -11.84375 5.546875 -11.796875 4.765625 -11.828125 C 3.992188 -11.867188 3.25 -12.007812 2.53125 -12.25 C 1.820312 -12.5 1.210938 -12.863281 0.703125 -13.34375 C 0.117188 -13.90625 -0.347656 -14.539062 -0.703125 -15.25 C -1.054688 -15.957031 -1.3125 -16.707031 -1.46875 -17.5 C -1.625 -18.289062 -1.710938 -19.078125 -1.734375 -19.859375 C -1.835938 -22.515625 -1.550781 -25.128906 -0.875 -27.703125 C -0.71875 -28.285156 -0.53125 -28.898438 -0.3125 -29.546875 C -0.09375 -30.191406 0.171875 -30.816406 0.484375 -31.421875 C 0.796875 -32.035156 1.164062 -32.59375 1.59375 -33.09375 C 2.03125 -33.59375 2.535156 -34 3.109375 -34.3125 C 3.703125 -34.644531 4.351562 -34.828125 5.0625 -34.859375 C 5.78125 -34.898438 6.460938 -34.789062 7.109375 -34.53125 C 7.765625 -34.28125 8.289062 -33.867188 8.6875 -33.296875 C 9.039062 -32.816406 9.28125 -32.242188 9.40625 -31.578125 C 9.539062 -30.921875 9.609375 -30.253906 9.609375 -29.578125 C 9.609375 -28.898438 9.570312 -28.273438 9.5 -27.703125 C 9.425781 -27.140625 9.363281 -26.707031 9.3125 -26.40625 C 9.28125 -26.226562 9.148438 -26.0625 8.921875 -25.90625 C 8.691406 -25.75 8.410156 -25.613281 8.078125 -25.5 C 7.753906 -25.382812 7.4375 -25.316406 7.125 -25.296875 C 6.8125 -25.285156 6.550781 -25.320312 6.34375 -25.40625 C 6.132812 -25.5 6.03125 -25.664062 6.03125 -25.90625 C 6.019531 -26.5625 6.039062 -27.207031 6.09375 -27.84375 C 6.144531 -28.476562 6.15625 -29.109375 6.125 -29.734375 C 6.101562 -30.367188 5.976562 -31.007812 5.75 -31.65625 C 5.644531 -31.957031 5.554688 -32.195312 5.484375 -32.375 C 5.421875 -32.550781 5.335938 -32.628906 5.234375 -32.609375 C 5.140625 -32.585938 4.984375 -32.4375 4.765625 -32.15625 C 4.535156 -31.84375 4.328125 -31.503906 4.140625 -31.140625 C 3.960938 -30.785156 3.796875 -30.425781 3.640625 -30.0625 C 2.921875 -28.46875 2.429688 -26.769531 2.171875 -24.96875 C 1.910156 -23.175781 1.828125 -21.410156 1.921875 -19.671875 C 1.953125 -18.828125 2.039062 -18.050781 2.1875 -17.34375 C 2.332031 -16.644531 2.6875 -15.957031 3.25 -15.28125 C 3.363281 -15.132812 3.578125 -14.957031 3.890625 -14.75 C 4.210938 -14.550781 4.609375 -14.394531 5.078125 -14.28125 C 5.546875 -14.175781 6.0625 -14.175781 6.625 -14.28125 C 7.1875 -14.382812 7.773438 -14.664062 8.390625 -15.125 C 9.003906 -15.59375 9.617188 -16.300781 10.234375 -17.25 C 10.859375 -18.195312 11.460938 -19.457031 12.046875 -21.03125 C 12.640625 -22.613281 13.175781 -24.566406 13.65625 -26.890625 Z M 13.65625 -26.890625 "/></g></g></g><g fill="#ffffff" fill-opacity="1"><g transform="translate(214.948881, 63.499974)"><g><path d="M 15.640625 -27.5 C 15.660156 -27.5625 15.738281 -27.597656 15.875 -27.609375 C 16.019531 -27.628906 16.164062 -27.625 16.3125 -27.59375 C 16.457031 -27.570312 16.519531 -27.53125 16.5 -27.46875 C 16.3125 -25.832031 16.050781 -24.195312 15.71875 -22.5625 C 15.382812 -20.9375 14.9375 -19.347656 14.375 -17.796875 C 14.164062 -17.210938 13.929688 -16.613281 13.671875 -16 C 13.410156 -15.394531 13.09375 -14.859375 12.71875 -14.390625 C 12.351562 -13.921875 11.894531 -13.585938 11.34375 -13.390625 C 10.800781 -13.191406 10.140625 -13.195312 9.359375 -13.40625 C 8.722656 -13.582031 8.222656 -13.914062 7.859375 -14.40625 C 7.492188 -14.90625 7.222656 -15.492188 7.046875 -16.171875 C 6.867188 -16.847656 6.75 -17.539062 6.6875 -18.25 C 6.550781 -17.832031 6.40625 -17.414062 6.25 -17 C 6.101562 -16.59375 5.941406 -16.191406 5.765625 -15.796875 C 5.523438 -15.265625 5.238281 -14.757812 4.90625 -14.28125 C 4.582031 -13.8125 4.207031 -13.414062 3.78125 -13.09375 C 3.351562 -12.78125 2.875 -12.578125 2.34375 -12.484375 C 1.820312 -12.398438 1.238281 -12.484375 0.59375 -12.734375 C 0.03125 -12.953125 -0.414062 -13.28125 -0.75 -13.71875 C -1.09375 -14.15625 -1.351562 -14.644531 -1.53125 -15.1875 C -1.707031 -15.738281 -1.832031 -16.304688 -1.90625 -16.890625 C -1.976562 -17.484375 -2.023438 -18.039062 -2.046875 -18.5625 C -2.128906 -19.945312 -2.09375 -21.328125 -1.9375 -22.703125 C -1.78125 -24.078125 -1.519531 -25.4375 -1.15625 -26.78125 C -1 -27.351562 -0.816406 -27.96875 -0.609375 -28.625 C -0.410156 -29.28125 -0.175781 -29.929688 0.09375 -30.578125 C 0.375 -31.222656 0.695312 -31.820312 1.0625 -32.375 C 1.425781 -32.9375 1.851562 -33.414062 2.34375 -33.8125 C 2.71875 -34.113281 3.148438 -34.34375 3.640625 -34.5 C 4.140625 -34.664062 4.648438 -34.75 5.171875 -34.75 C 5.691406 -34.75 6.191406 -34.660156 6.671875 -34.484375 C 7.160156 -34.304688 7.570312 -34.03125 7.90625 -33.65625 C 7.9375 -33.625 7.960938 -33.59375 7.984375 -33.5625 C 8.015625 -33.53125 8.039062 -33.492188 8.0625 -33.453125 C 8.445312 -33.554688 8.835938 -33.59375 9.234375 -33.5625 C 9.640625 -33.539062 9.984375 -33.453125 10.265625 -33.296875 C 10.546875 -33.140625 10.671875 -32.921875 10.640625 -32.640625 C 10.515625 -30.828125 10.394531 -29 10.28125 -27.15625 C 10.175781 -25.3125 10.148438 -23.472656 10.203125 -21.640625 C 10.253906 -19.816406 10.453125 -18.007812 10.796875 -16.21875 C 10.816406 -16.082031 10.84375 -15.945312 10.875 -15.8125 C 10.90625 -15.675781 10.941406 -15.539062 10.984375 -15.40625 C 11.117188 -15.582031 11.25 -15.753906 11.375 -15.921875 C 11.5 -16.085938 11.613281 -16.253906 11.71875 -16.421875 C 12.082031 -16.960938 12.410156 -17.507812 12.703125 -18.0625 C 12.992188 -18.625 13.265625 -19.195312 13.515625 -19.78125 C 14.046875 -21.019531 14.484375 -22.28125 14.828125 -23.5625 C 15.179688 -24.84375 15.453125 -26.15625 15.640625 -27.5 Z M 5 -22.46875 C 5.351562 -23.695312 5.640625 -24.941406 5.859375 -26.203125 C 6.078125 -27.460938 6.289062 -28.722656 6.5 -29.984375 C 6.414062 -30.242188 6.300781 -30.5 6.15625 -30.75 C 6.019531 -30.96875 5.894531 -31.1875 5.78125 -31.40625 C 5.664062 -31.625 5.535156 -31.835938 5.390625 -32.046875 C 5.335938 -32.128906 5.28125 -32.207031 5.21875 -32.28125 C 5.164062 -32.363281 5.109375 -32.441406 5.046875 -32.515625 C 4.953125 -32.378906 4.863281 -32.238281 4.78125 -32.09375 C 4.695312 -31.945312 4.613281 -31.800781 4.53125 -31.65625 C 4.40625 -31.4375 4.28125 -31.207031 4.15625 -30.96875 C 4.039062 -30.726562 3.929688 -30.484375 3.828125 -30.234375 C 3.359375 -29.222656 2.96875 -28.1875 2.65625 -27.125 C 2.300781 -25.976562 2.035156 -24.800781 1.859375 -23.59375 C 1.691406 -22.394531 1.609375 -21.195312 1.609375 -20 C 1.609375 -19.46875 1.617188 -18.929688 1.640625 -18.390625 C 1.671875 -17.847656 1.726562 -17.3125 1.8125 -16.78125 C 1.84375 -16.625 1.890625 -16.375 1.953125 -16.03125 C 2.015625 -15.6875 2.109375 -15.359375 2.234375 -15.046875 C 2.460938 -15.367188 2.671875 -15.738281 2.859375 -16.15625 C 3.046875 -16.582031 3.210938 -16.988281 3.359375 -17.375 C 3.515625 -17.757812 3.625 -18.039062 3.6875 -18.21875 C 3.945312 -18.914062 4.179688 -19.617188 4.390625 -20.328125 C 4.597656 -21.035156 4.800781 -21.75 5 -22.46875 Z M 5 -22.46875 "/></g></g></g><g fill="#ffffff" fill-opacity="1"><g transform="translate(230.709064, 63.499974)"><g><path d="M 10.390625 -23.75 C 10.328125 -23.632812 10.164062 -23.550781 9.90625 -23.5 C 9.65625 -23.445312 9.378906 -23.429688 9.078125 -23.453125 C 8.785156 -23.472656 8.539062 -23.53125 8.34375 -23.625 C 8.144531 -23.71875 8.070312 -23.851562 8.125 -24.03125 C 8.28125 -24.582031 8.429688 -25.207031 8.578125 -25.90625 C 8.722656 -26.601562 8.8125 -27.316406 8.84375 -28.046875 C 8.882812 -28.785156 8.84375 -29.5 8.71875 -30.1875 C 8.59375 -30.882812 8.347656 -31.519531 7.984375 -32.09375 C 7.617188 -32.664062 7.09375 -33.128906 6.40625 -33.484375 C 6 -33.691406 5.675781 -33.773438 5.4375 -33.734375 C 5.195312 -33.703125 4.910156 -33.550781 4.578125 -33.28125 C 4.128906 -32.914062 3.742188 -32.460938 3.421875 -31.921875 C 3.097656 -31.378906 2.835938 -30.835938 2.640625 -30.296875 C 2.191406 -29.015625 2.101562 -27.726562 2.375 -26.4375 C 2.65625 -25.144531 3.234375 -23.988281 4.109375 -22.96875 C 4.503906 -22.5 4.945312 -22.082031 5.4375 -21.71875 C 5.925781 -21.363281 6.425781 -21.023438 6.9375 -20.703125 C 7.457031 -20.390625 7.960938 -20.0625 8.453125 -19.71875 C 8.941406 -19.382812 9.394531 -19 9.8125 -18.5625 C 10.34375 -18 10.695312 -17.390625 10.875 -16.734375 C 11.0625 -16.078125 11.046875 -15.4375 10.828125 -14.8125 C 10.617188 -14.195312 10.1875 -13.660156 9.53125 -13.203125 C 8.9375 -12.785156 8.273438 -12.484375 7.546875 -12.296875 C 6.816406 -12.109375 6.09375 -11.992188 5.375 -11.953125 C 4.21875 -11.898438 3.164062 -12.050781 2.21875 -12.40625 C 1.269531 -12.769531 0.5 -13.34375 -0.09375 -14.125 C -0.6875 -14.90625 -1.046875 -15.894531 -1.171875 -17.09375 C -1.203125 -17.351562 -1.097656 -17.5625 -0.859375 -17.71875 C -0.628906 -17.882812 -0.332031 -18 0.03125 -18.0625 C 0.40625 -18.132812 0.773438 -18.148438 1.140625 -18.109375 C 1.515625 -18.066406 1.832031 -17.96875 2.09375 -17.8125 C 2.363281 -17.65625 2.515625 -17.441406 2.546875 -17.171875 C 2.597656 -16.710938 2.703125 -16.234375 2.859375 -15.734375 C 3.015625 -15.242188 3.25 -14.820312 3.5625 -14.46875 C 3.882812 -14.125 4.316406 -13.925781 4.859375 -13.875 C 5.203125 -13.84375 5.546875 -13.890625 5.890625 -14.015625 C 6.242188 -14.140625 6.546875 -14.320312 6.796875 -14.5625 C 7.054688 -14.8125 7.222656 -15.125 7.296875 -15.5 C 7.367188 -15.875 7.300781 -16.296875 7.09375 -16.765625 C 6.925781 -17.160156 6.679688 -17.5 6.359375 -17.78125 C 6.035156 -18.070312 5.6875 -18.332031 5.3125 -18.5625 C 4.9375 -18.789062 4.570312 -19.015625 4.21875 -19.234375 C 3.726562 -19.546875 3.242188 -19.878906 2.765625 -20.234375 C 2.285156 -20.597656 1.835938 -20.984375 1.421875 -21.390625 C 0.609375 -22.191406 -0.0664062 -23.097656 -0.609375 -24.109375 C -1.148438 -25.128906 -1.445312 -26.226562 -1.5 -27.40625 C -1.539062 -28.34375 -1.425781 -29.265625 -1.15625 -30.171875 C -0.882812 -31.078125 -0.484375 -31.910156 0.046875 -32.671875 C 0.585938 -33.441406 1.222656 -34.085938 1.953125 -34.609375 C 2.691406 -35.128906 3.507812 -35.476562 4.40625 -35.65625 C 5.3125 -35.832031 6.257812 -35.789062 7.25 -35.53125 C 8.34375 -35.238281 9.226562 -34.773438 9.90625 -34.140625 C 10.59375 -33.515625 11.097656 -32.78125 11.421875 -31.9375 C 11.753906 -31.09375 11.921875 -30.191406 11.921875 -29.234375 C 11.929688 -28.285156 11.800781 -27.335938 11.53125 -26.390625 C 11.269531 -25.453125 10.890625 -24.570312 10.390625 -23.75 Z M 10.390625 -23.75 "/></g></g></g></svg>