<svg xmlns="http://www.w3.org/2000/svg" xmlns:xlink="http://www.w3.org/1999/xlink" width="1000" zoomAndPan="magnify" viewBox="0 0 750 74.999997" height="100" preserveAspectRatio="xMidYMid meet" version="1.0"><defs><g/></defs><g fill="#ffffff" fill-opacity="1"><g transform="translate(10.277358, 63.49996)"><g><path d="M 1.796875 -51.78125 C 2.296875 -53.070312 2.835938 -54.109375 3.421875 -54.890625 C 4.003906 -55.671875 4.597656 -56.253906 5.203125 -56.640625 C 5.804688 -57.035156 6.375 -57.285156 6.90625 -57.390625 C 7.445312 -57.492188 7.90625 -57.507812 8.28125 -57.4375 C 9.257812 -57.28125 10.070312 -56.953125 10.71875 -56.453125 C 11.363281 -55.953125 11.890625 -55.335938 12.296875 -54.609375 C 12.703125 -53.890625 13.03125 -53.113281 13.28125 -52.28125 C 13.53125 -51.445312 13.738281 -50.609375 13.90625 -49.765625 C 14.164062 -48.472656 14.375 -47.175781 14.53125 -45.875 C 14.6875 -44.570312 14.804688 -43.265625 14.890625 -41.953125 C 14.992188 -42.242188 15.09375 -42.523438 15.1875 -42.796875 C 15.28125 -43.078125 15.390625 -43.359375 15.515625 -43.640625 C 16.148438 -45.222656 16.925781 -46.734375 17.84375 -48.171875 C 18.757812 -49.609375 19.84375 -50.882812 21.09375 -52 C 22.34375 -53.125 23.796875 -53.992188 25.453125 -54.609375 C 26.148438 -54.867188 26.894531 -55.070312 27.6875 -55.21875 C 28.488281 -55.375 29.285156 -55.429688 30.078125 -55.390625 C 30.867188 -55.347656 31.613281 -55.171875 32.3125 -54.859375 C 32.90625 -54.585938 33.347656 -54.25 33.640625 -53.84375 C 33.929688 -53.445312 34.113281 -52.992188 34.1875 -52.484375 C 34.257812 -51.984375 34.265625 -51.460938 34.203125 -50.921875 C 34.140625 -50.390625 34.046875 -49.851562 33.921875 -49.3125 C 33.523438 -47.476562 33.046875 -45.65625 32.484375 -43.84375 C 31.921875 -42.039062 31.25 -40.28125 30.46875 -38.5625 C 29.695312 -36.84375 28.765625 -35.203125 27.671875 -33.640625 C 27.140625 -32.878906 26.539062 -32.097656 25.875 -31.296875 C 25.21875 -30.492188 24.5 -29.722656 23.71875 -28.984375 C 22.9375 -28.242188 22.109375 -27.582031 21.234375 -27 C 21.503906 -26.84375 21.765625 -26.660156 22.015625 -26.453125 C 22.753906 -25.828125 23.351562 -25.101562 23.8125 -24.28125 C 24.28125 -23.457031 24.648438 -22.582031 24.921875 -21.65625 C 25.191406 -20.738281 25.398438 -19.800781 25.546875 -18.84375 C 25.691406 -17.882812 25.8125 -16.957031 25.90625 -16.0625 C 26.007812 -15 26.09375 -13.9375 26.15625 -12.875 C 26.226562 -11.820312 26.273438 -10.765625 26.296875 -9.703125 C 26.304688 -9.066406 26.320312 -8.4375 26.34375 -7.8125 C 26.363281 -7.195312 26.445312 -6.59375 26.59375 -6 C 26.738281 -5.414062 27.003906 -4.84375 27.390625 -4.28125 C 27.628906 -3.9375 27.910156 -3.617188 28.234375 -3.328125 C 28.554688 -3.046875 28.910156 -2.835938 29.296875 -2.703125 C 29.691406 -2.566406 30.101562 -2.550781 30.53125 -2.65625 C 31.113281 -2.800781 31.609375 -3.117188 32.015625 -3.609375 C 32.421875 -4.097656 32.726562 -4.609375 32.9375 -5.140625 C 33.039062 -5.421875 33.113281 -5.796875 33.15625 -6.265625 C 33.195312 -6.734375 33.191406 -7.210938 33.140625 -7.703125 C 33.085938 -8.191406 32.972656 -8.613281 32.796875 -8.96875 C 32.628906 -9.320312 32.378906 -9.535156 32.046875 -9.609375 C 31.722656 -9.691406 31.304688 -9.550781 30.796875 -9.1875 C 30.691406 -9.113281 30.53125 -9.082031 30.3125 -9.09375 C 30.101562 -9.113281 29.976562 -9.203125 29.9375 -9.359375 C 29.863281 -9.691406 29.921875 -9.957031 30.109375 -10.15625 C 30.296875 -10.363281 30.550781 -10.515625 30.875 -10.609375 C 31.207031 -10.703125 31.539062 -10.75 31.875 -10.75 C 32.21875 -10.757812 32.5 -10.738281 32.71875 -10.6875 C 33.300781 -10.570312 33.773438 -10.320312 34.140625 -9.9375 C 34.515625 -9.550781 34.796875 -9.097656 34.984375 -8.578125 C 35.179688 -8.054688 35.289062 -7.519531 35.3125 -6.96875 C 35.363281 -5.957031 35.179688 -5.046875 34.765625 -4.234375 C 34.347656 -3.421875 33.773438 -2.753906 33.046875 -2.234375 C 32.316406 -1.710938 31.492188 -1.390625 30.578125 -1.265625 C 29.671875 -1.140625 28.742188 -1.253906 27.796875 -1.609375 C 26.953125 -1.929688 26.226562 -2.394531 25.625 -3 C 25.03125 -3.601562 24.53125 -4.300781 24.125 -5.09375 C 23.726562 -5.894531 23.40625 -6.738281 23.15625 -7.625 C 22.914062 -8.507812 22.734375 -9.394531 22.609375 -10.28125 C 22.484375 -11.175781 22.390625 -12.015625 22.328125 -12.796875 C 22.222656 -14.148438 22.101562 -15.492188 21.96875 -16.828125 C 21.84375 -18.160156 21.644531 -19.484375 21.375 -20.796875 C 21.289062 -21.210938 21.207031 -21.664062 21.125 -22.15625 C 21.039062 -22.65625 20.9375 -23.15625 20.8125 -23.65625 C 20.6875 -24.164062 20.53125 -24.628906 20.34375 -25.046875 C 20.15625 -25.460938 19.910156 -25.800781 19.609375 -26.0625 C 19.085938 -25.8125 18.5625 -25.597656 18.03125 -25.421875 C 17.5 -25.253906 16.957031 -25.144531 16.40625 -25.09375 C 16.050781 -25.0625 15.738281 -25.035156 15.46875 -25.015625 C 15.207031 -25.003906 14.988281 -25.003906 14.8125 -25.015625 C 14.65625 -22.566406 14.398438 -20.125 14.046875 -17.6875 C 13.703125 -15.257812 13.21875 -12.847656 12.59375 -10.453125 C 12.382812 -9.628906 12.144531 -8.773438 11.875 -7.890625 C 11.613281 -7.015625 11.296875 -6.160156 10.921875 -5.328125 C 10.554688 -4.492188 10.097656 -3.734375 9.546875 -3.046875 C 8.992188 -2.359375 8.3125 -1.789062 7.5 -1.34375 C 7.269531 -1.21875 6.921875 -1.085938 6.453125 -0.953125 C 5.992188 -0.816406 5.472656 -0.695312 4.890625 -0.59375 C 4.316406 -0.5 3.738281 -0.441406 3.15625 -0.421875 C 2.570312 -0.410156 2.039062 -0.460938 1.5625 -0.578125 C 1.09375 -0.703125 0.726562 -0.910156 0.46875 -1.203125 C 0.21875 -1.492188 0.140625 -1.894531 0.234375 -2.40625 C 0.273438 -2.601562 0.378906 -2.734375 0.546875 -2.796875 C 0.710938 -2.867188 0.90625 -2.90625 1.125 -2.90625 C 1.34375 -2.90625 1.515625 -2.890625 1.640625 -2.859375 C 2.054688 -2.753906 2.460938 -2.65625 2.859375 -2.5625 C 3.253906 -2.46875 3.644531 -2.441406 4.03125 -2.484375 C 4.414062 -2.523438 4.796875 -2.679688 5.171875 -2.953125 C 5.773438 -3.390625 6.257812 -3.945312 6.625 -4.625 C 7 -5.300781 7.316406 -5.976562 7.578125 -6.65625 C 8.210938 -8.289062 8.722656 -9.960938 9.109375 -11.671875 C 9.503906 -13.378906 9.84375 -15.085938 10.125 -16.796875 C 10.613281 -19.921875 10.921875 -23.066406 11.046875 -26.234375 C 11.179688 -29.410156 11.242188 -32.570312 11.234375 -35.71875 C 11.222656 -37.3125 11.191406 -38.890625 11.140625 -40.453125 C 11.085938 -42.023438 10.96875 -43.597656 10.78125 -45.171875 C 10.675781 -46.128906 10.554688 -47.128906 10.421875 -48.171875 C 10.296875 -49.210938 10.101562 -50.234375 9.84375 -51.234375 C 9.59375 -52.242188 9.222656 -53.164062 8.734375 -54 C 8.628906 -54.1875 8.492188 -54.394531 8.328125 -54.625 C 8.171875 -54.851562 7.992188 -55.050781 7.796875 -55.21875 C 7.597656 -55.394531 7.382812 -55.484375 7.15625 -55.484375 C 6.945312 -55.484375 6.691406 -55.421875 6.390625 -55.296875 C 6.085938 -55.179688 5.765625 -54.945312 5.421875 -54.59375 C 5.078125 -54.238281 4.722656 -53.734375 4.359375 -53.078125 C 4.003906 -52.421875 3.660156 -51.566406 3.328125 -50.515625 C 2.835938 -48.972656 2.472656 -47.394531 2.234375 -45.78125 C 1.992188 -44.175781 1.835938 -42.578125 1.765625 -40.984375 C 1.742188 -40.671875 1.734375 -40.234375 1.734375 -39.671875 C 1.734375 -39.117188 1.753906 -38.523438 1.796875 -37.890625 C 1.847656 -37.265625 1.925781 -36.660156 2.03125 -36.078125 C 2.144531 -35.503906 2.300781 -35.023438 2.5 -34.640625 C 2.695312 -34.253906 2.953125 -34.050781 3.265625 -34.03125 C 3.578125 -34 3.851562 -34.148438 4.09375 -34.484375 C 4.34375 -34.828125 4.5625 -35.296875 4.75 -35.890625 C 4.945312 -36.484375 5.113281 -37.148438 5.25 -37.890625 C 5.394531 -38.628906 5.519531 -39.394531 5.625 -40.1875 C 5.738281 -40.976562 5.835938 -41.738281 5.921875 -42.46875 C 6.015625 -43.195312 6.097656 -43.832031 6.171875 -44.375 C 6.203125 -44.519531 6.296875 -44.628906 6.453125 -44.703125 C 6.609375 -44.785156 6.789062 -44.828125 7 -44.828125 C 7.207031 -44.828125 7.390625 -44.789062 7.546875 -44.71875 C 7.703125 -44.65625 7.785156 -44.546875 7.796875 -44.390625 C 7.910156 -43.109375 7.90625 -41.820312 7.78125 -40.53125 C 7.65625 -39.25 7.472656 -37.972656 7.234375 -36.703125 C 7.148438 -36.296875 7.015625 -35.835938 6.828125 -35.328125 C 6.640625 -34.828125 6.394531 -34.335938 6.09375 -33.859375 C 5.789062 -33.378906 5.4375 -32.984375 5.03125 -32.671875 C 4.625 -32.359375 4.144531 -32.191406 3.59375 -32.171875 C 2.96875 -32.140625 2.429688 -32.265625 1.984375 -32.546875 C 1.535156 -32.835938 1.160156 -33.238281 0.859375 -33.75 C 0.554688 -34.257812 0.316406 -34.832031 0.140625 -35.46875 C -0.0351562 -36.101562 -0.160156 -36.765625 -0.234375 -37.453125 C -0.316406 -38.148438 -0.359375 -38.816406 -0.359375 -39.453125 C -0.335938 -41.515625 -0.15625 -43.601562 0.1875 -45.71875 C 0.539062 -47.832031 1.078125 -49.851562 1.796875 -51.78125 Z M 15 -29.65625 C 14.976562 -28.664062 14.941406 -27.679688 14.890625 -26.703125 C 15.328125 -26.953125 15.816406 -27.164062 16.359375 -27.34375 C 16.910156 -27.53125 17.347656 -27.726562 17.671875 -27.9375 C 18.265625 -28.3125 18.828125 -28.710938 19.359375 -29.140625 C 19.898438 -29.566406 20.414062 -30.023438 20.90625 -30.515625 C 21.851562 -31.421875 22.71875 -32.394531 23.5 -33.4375 C 24.28125 -34.476562 24.988281 -35.570312 25.625 -36.71875 C 26.382812 -38.070312 27.046875 -39.46875 27.609375 -40.90625 C 28.171875 -42.34375 28.671875 -43.800781 29.109375 -45.28125 C 29.316406 -45.976562 29.503906 -46.675781 29.671875 -47.375 C 29.847656 -48.082031 30.015625 -48.796875 30.171875 -49.515625 C 30.222656 -49.742188 30.285156 -50.046875 30.359375 -50.421875 C 30.441406 -50.796875 30.5 -51.175781 30.53125 -51.5625 C 30.570312 -51.957031 30.539062 -52.316406 30.4375 -52.640625 C 30.34375 -52.960938 30.140625 -53.195312 29.828125 -53.34375 C 29.503906 -53.488281 29.113281 -53.507812 28.65625 -53.40625 C 28.207031 -53.300781 27.765625 -53.144531 27.328125 -52.9375 C 26.898438 -52.738281 26.539062 -52.5625 26.25 -52.40625 C 25.726562 -52.113281 25.234375 -51.78125 24.765625 -51.40625 C 24.296875 -51.039062 23.851562 -50.648438 23.4375 -50.234375 C 23.070312 -49.859375 22.617188 -49.34375 22.078125 -48.6875 C 21.535156 -48.039062 20.945312 -47.195312 20.3125 -46.15625 C 19.6875 -45.125 19.050781 -43.847656 18.40625 -42.328125 C 17.757812 -40.816406 17.144531 -39.019531 16.5625 -36.9375 C 15.976562 -34.851562 15.457031 -32.425781 15 -29.65625 Z M 15 -29.65625 "/></g></g></g><g fill="#ffffff" fill-opacity="1"><g transform="translate(40.957959, 63.49996)"><g><path d="M -0.546875 -27.890625 C -0.535156 -28.234375 -0.515625 -28.644531 -0.484375 -29.125 C -0.453125 -29.601562 -0.421875 -30.085938 -0.390625 -30.578125 C -0.367188 -31.066406 -0.359375 -31.472656 -0.359375 -31.796875 C -0.359375 -31.828125 -0.351562 -31.859375 -0.34375 -31.890625 C -0.332031 -31.929688 -0.328125 -31.96875 -0.328125 -32 C -0.671875 -32.007812 -0.976562 -32.066406 -1.25 -32.171875 C -1.519531 -32.285156 -1.65625 -32.46875 -1.65625 -32.71875 C -1.65625 -32.988281 -1.519531 -33.1875 -1.25 -33.3125 C -0.976562 -33.4375 -0.609375 -33.515625 -0.140625 -33.546875 C 0.316406 -33.578125 0.828125 -33.59375 1.390625 -33.59375 C 2.234375 -33.59375 2.941406 -33.519531 3.515625 -33.375 C 4.097656 -33.238281 4.398438 -33.019531 4.421875 -32.71875 C 4.429688 -32.5 4.34375 -32.335938 4.15625 -32.234375 C 3.96875 -32.128906 3.664062 -32.0625 3.25 -32.03125 C 3.25 -32.007812 3.25 -31.976562 3.25 -31.9375 C 3.25 -31.894531 3.25 -31.863281 3.25 -31.84375 C 3.257812 -31.488281 3.253906 -31.015625 3.234375 -30.421875 C 3.222656 -29.828125 3.203125 -29.203125 3.171875 -28.546875 C 3.140625 -27.890625 3.109375 -27.265625 3.078125 -26.671875 C 3.054688 -26.085938 3.039062 -25.625 3.03125 -25.28125 C 2.976562 -23.90625 2.914062 -22.519531 2.84375 -21.125 C 2.78125 -19.726562 2.863281 -18.351562 3.09375 -17 C 3.113281 -16.8125 3.160156 -16.546875 3.234375 -16.203125 C 3.304688 -15.859375 3.40625 -15.5 3.53125 -15.125 C 3.65625 -14.757812 3.8125 -14.441406 4 -14.171875 C 4.1875 -13.898438 4.40625 -13.765625 4.65625 -13.765625 C 5.09375 -13.753906 5.507812 -13.957031 5.90625 -14.375 C 6.300781 -14.800781 6.671875 -15.367188 7.015625 -16.078125 C 7.367188 -16.796875 7.691406 -17.578125 7.984375 -18.421875 C 8.273438 -19.273438 8.535156 -20.132812 8.765625 -21 C 9.003906 -21.875 9.203125 -22.675781 9.359375 -23.40625 C 9.515625 -24.144531 9.628906 -24.75 9.703125 -25.21875 C 9.734375 -25.363281 9.816406 -25.445312 9.953125 -25.46875 C 10.097656 -25.5 10.234375 -25.484375 10.359375 -25.421875 C 10.492188 -25.359375 10.550781 -25.257812 10.53125 -25.125 C 10.414062 -24.414062 10.265625 -23.601562 10.078125 -22.6875 C 9.898438 -21.78125 9.679688 -20.835938 9.421875 -19.859375 C 9.171875 -18.890625 8.863281 -17.9375 8.5 -17 C 8.144531 -16.070312 7.734375 -15.234375 7.265625 -14.484375 C 6.796875 -13.734375 6.257812 -13.132812 5.65625 -12.6875 C 5.0625 -12.25 4.378906 -12.03125 3.609375 -12.03125 C 2.859375 -12.03125 2.148438 -12.269531 1.484375 -12.75 C 0.835938 -13.25 0.347656 -13.867188 0.015625 -14.609375 C -0.304688 -15.347656 -0.519531 -16.144531 -0.625 -17 C -0.738281 -17.851562 -0.789062 -18.707031 -0.78125 -19.5625 C -0.78125 -20.425781 -0.769531 -21.21875 -0.75 -21.9375 C -0.71875 -22.925781 -0.679688 -23.914062 -0.640625 -24.90625 C -0.609375 -25.90625 -0.578125 -26.898438 -0.546875 -27.890625 Z M 4.6875 -36.875 C 4.675781 -36.488281 4.410156 -36.160156 3.890625 -35.890625 C 3.367188 -35.617188 2.742188 -35.492188 2.015625 -35.515625 C 1.273438 -35.523438 0.644531 -35.671875 0.125 -35.953125 C -0.382812 -36.234375 -0.632812 -36.566406 -0.625 -36.953125 C -0.625 -37.210938 -0.503906 -37.445312 -0.265625 -37.65625 C -0.0234375 -37.863281 0.296875 -38.03125 0.703125 -38.15625 C 1.117188 -38.28125 1.566406 -38.335938 2.046875 -38.328125 C 2.773438 -38.304688 3.394531 -38.148438 3.90625 -37.859375 C 4.425781 -37.578125 4.6875 -37.25 4.6875 -36.875 Z M 4.6875 -36.875 "/></g></g></g><g fill="#ffffff" fill-opacity="1"><g transform="translate(50.898399, 63.49996)"><g><path d="M 21.703125 -24.15625 C 20.703125 -24.03125 19.722656 -23.773438 18.765625 -23.390625 C 17.804688 -23.015625 16.894531 -22.539062 16.03125 -21.96875 C 16.019531 -20.976562 15.953125 -19.992188 15.828125 -19.015625 C 15.703125 -18.046875 15.53125 -17.09375 15.3125 -16.15625 C 15.164062 -15.53125 15 -14.828125 14.8125 -14.046875 C 14.625 -13.273438 14.382812 -12.503906 14.09375 -11.734375 C 13.800781 -10.972656 13.441406 -10.273438 13.015625 -9.640625 C 12.597656 -9.003906 12.082031 -8.515625 11.46875 -8.171875 C 10.9375 -7.867188 10.390625 -7.695312 9.828125 -7.65625 C 9.273438 -7.613281 8.769531 -7.703125 8.3125 -7.921875 C 7.851562 -8.140625 7.476562 -8.460938 7.1875 -8.890625 C 6.90625 -9.316406 6.75 -9.847656 6.71875 -10.484375 C 6.695312 -11.441406 6.820312 -12.382812 7.09375 -13.3125 C 7.363281 -14.238281 7.742188 -15.128906 8.234375 -15.984375 C 8.722656 -16.847656 9.253906 -17.640625 9.828125 -18.359375 C 10.203125 -18.828125 10.597656 -19.289062 11.015625 -19.75 C 11.441406 -20.207031 11.898438 -20.644531 12.390625 -21.0625 C 12.398438 -21.25 12.40625 -21.441406 12.40625 -21.640625 C 12.414062 -21.835938 12.421875 -22.023438 12.421875 -22.203125 C 12.429688 -22.898438 12.429688 -23.628906 12.421875 -24.390625 C 12.410156 -25.160156 12.34375 -25.914062 12.21875 -26.65625 C 12.09375 -27.40625 11.851562 -28.082031 11.5 -28.6875 C 11.476562 -28.757812 11.425781 -28.863281 11.34375 -29 C 11.257812 -29.144531 11.171875 -29.28125 11.078125 -29.40625 C 10.984375 -29.539062 10.90625 -29.613281 10.84375 -29.625 C 10.695312 -29.664062 10.515625 -29.601562 10.296875 -29.4375 C 10.078125 -29.28125 9.867188 -29.097656 9.671875 -28.890625 C 9.484375 -28.679688 9.351562 -28.535156 9.28125 -28.453125 C 8.914062 -28.054688 8.585938 -27.625 8.296875 -27.15625 C 8.003906 -26.695312 7.734375 -26.21875 7.484375 -25.71875 C 6.960938 -24.71875 6.519531 -23.679688 6.15625 -22.609375 C 5.800781 -21.535156 5.515625 -20.4375 5.296875 -19.3125 C 5.085938 -18.1875 4.929688 -17.050781 4.828125 -15.90625 C 4.722656 -14.769531 4.648438 -13.628906 4.609375 -12.484375 C 4.566406 -11.378906 4.539062 -10.257812 4.53125 -9.125 C 4.53125 -8 4.660156 -6.898438 4.921875 -5.828125 C 4.972656 -5.597656 4.914062 -5.414062 4.75 -5.28125 C 4.59375 -5.15625 4.367188 -5.070312 4.078125 -5.03125 C 3.796875 -4.988281 3.5 -4.972656 3.1875 -4.984375 C 2.875 -4.992188 2.585938 -5.03125 2.328125 -5.09375 C 2.078125 -5.164062 1.90625 -5.253906 1.8125 -5.359375 C 1.21875 -6.035156 0.765625 -6.804688 0.453125 -7.671875 C 0.140625 -8.546875 -0.0859375 -9.453125 -0.234375 -10.390625 C -0.378906 -11.328125 -0.5 -12.226562 -0.59375 -13.09375 C -0.75 -14.707031 -0.859375 -16.328125 -0.921875 -17.953125 C -0.984375 -19.578125 -1.007812 -21.195312 -1 -22.8125 C -0.988281 -25.625 -0.875 -28.460938 -0.65625 -31.328125 C -0.4375 -34.191406 -0.0078125 -37 0.625 -39.75 C 0.914062 -40.9375 1.242188 -42.128906 1.609375 -43.328125 C 1.984375 -44.535156 2.46875 -45.671875 3.0625 -46.734375 C 3.351562 -47.242188 3.695312 -47.765625 4.09375 -48.296875 C 4.5 -48.835938 4.960938 -49.300781 5.484375 -49.6875 C 6.003906 -50.082031 6.578125 -50.316406 7.203125 -50.390625 C 7.566406 -50.429688 7.945312 -50.414062 8.34375 -50.34375 C 8.75 -50.269531 9.066406 -50.082031 9.296875 -49.78125 C 9.515625 -49.507812 9.644531 -49.078125 9.6875 -48.484375 C 9.726562 -47.890625 9.707031 -47.210938 9.625 -46.453125 C 9.539062 -45.691406 9.421875 -44.910156 9.265625 -44.109375 C 9.109375 -43.304688 8.941406 -42.5625 8.765625 -41.875 C 8.597656 -41.1875 8.453125 -40.613281 8.328125 -40.15625 C 7.710938 -38.101562 6.945312 -36.050781 6.03125 -34 C 5.113281 -31.945312 4.019531 -30.03125 2.75 -28.25 C 2.71875 -27.394531 2.691406 -26.539062 2.671875 -25.6875 C 2.648438 -24.84375 2.632812 -23.992188 2.625 -23.140625 C 2.601562 -22.429688 2.597656 -21.71875 2.609375 -21 C 2.628906 -20.28125 2.644531 -19.554688 2.65625 -18.828125 C 2.914062 -20.210938 3.253906 -21.566406 3.671875 -22.890625 C 4.097656 -24.222656 4.648438 -25.5 5.328125 -26.71875 C 5.660156 -27.320312 6.015625 -27.90625 6.390625 -28.46875 C 6.773438 -29.03125 7.203125 -29.53125 7.671875 -29.96875 C 8.140625 -30.414062 8.671875 -30.765625 9.265625 -31.015625 C 9.867188 -31.265625 10.550781 -31.367188 11.3125 -31.328125 C 12.21875 -31.273438 12.96875 -31.023438 13.5625 -30.578125 C 14.15625 -30.140625 14.617188 -29.578125 14.953125 -28.890625 C 15.296875 -28.203125 15.539062 -27.445312 15.6875 -26.625 C 15.78125 -26.125 15.851562 -25.617188 15.90625 -25.109375 C 15.957031 -24.609375 15.992188 -24.109375 16.015625 -23.609375 C 16.890625 -24.078125 17.785156 -24.453125 18.703125 -24.734375 C 19.628906 -25.023438 20.570312 -25.1875 21.53125 -25.21875 C 21.894531 -25.226562 22.132812 -25.148438 22.25 -24.984375 C 22.363281 -24.828125 22.367188 -24.660156 22.265625 -24.484375 C 22.171875 -24.304688 21.984375 -24.195312 21.703125 -24.15625 Z M 4.421875 -40.84375 C 4.054688 -39.289062 3.757812 -37.71875 3.53125 -36.125 C 3.300781 -34.539062 3.113281 -32.945312 2.96875 -31.34375 C 3.832031 -33.050781 4.617188 -34.785156 5.328125 -36.546875 C 6.035156 -38.304688 6.59375 -40.148438 7 -42.078125 C 7.132812 -42.765625 7.253906 -43.445312 7.359375 -44.125 C 7.460938 -44.8125 7.539062 -45.5 7.59375 -46.1875 C 7.625 -46.445312 7.648438 -46.710938 7.671875 -46.984375 C 7.691406 -47.253906 7.710938 -47.519531 7.734375 -47.78125 C 7.734375 -48 7.738281 -48.195312 7.75 -48.375 C 7.769531 -48.5625 7.765625 -48.71875 7.734375 -48.84375 C 7.679688 -48.789062 7.613281 -48.71875 7.53125 -48.625 C 7.445312 -48.539062 7.359375 -48.429688 7.265625 -48.296875 C 6.753906 -47.617188 6.320312 -46.859375 5.96875 -46.015625 C 5.613281 -45.171875 5.3125 -44.300781 5.0625 -43.40625 C 4.820312 -42.519531 4.609375 -41.664062 4.421875 -40.84375 Z M 11.546875 -14.765625 C 11.816406 -16.003906 12.03125 -17.234375 12.1875 -18.453125 C 11.625 -17.773438 11.125 -17.066406 10.6875 -16.328125 C 10.425781 -15.890625 10.164062 -15.367188 9.90625 -14.765625 C 9.644531 -14.171875 9.425781 -13.550781 9.25 -12.90625 C 9.082031 -12.257812 8.992188 -11.644531 8.984375 -11.0625 C 8.972656 -10.488281 9.078125 -10 9.296875 -9.59375 C 9.328125 -9.539062 9.410156 -9.578125 9.546875 -9.703125 C 9.691406 -9.828125 9.851562 -10.023438 10.03125 -10.296875 C 10.207031 -10.566406 10.359375 -10.890625 10.484375 -11.265625 C 10.671875 -11.835938 10.859375 -12.414062 11.046875 -13 C 11.242188 -13.582031 11.410156 -14.171875 11.546875 -14.765625 Z M 11.546875 -14.765625 "/></g></g></g><g fill="#ffffff" fill-opacity="1"><g transform="translate(72.419733, 63.49996)"><g/></g></g><g fill="#ffffff" fill-opacity="1"><g transform="translate(82.242997, 63.49996)"><g><path d="M 22.734375 -26.53125 C 23.867188 -26.820312 24.847656 -26.867188 25.671875 -26.671875 C 26.503906 -26.484375 27.207031 -26.101562 27.78125 -25.53125 C 28.351562 -24.96875 28.8125 -24.273438 29.15625 -23.453125 C 29.507812 -22.640625 29.765625 -21.75 29.921875 -20.78125 C 30.078125 -19.820312 30.160156 -18.84375 30.171875 -17.84375 C 30.191406 -16.84375 30.144531 -15.882812 30.03125 -14.96875 C 29.914062 -14.050781 29.765625 -13.242188 29.578125 -12.546875 C 29.210938 -11.191406 28.679688 -9.894531 27.984375 -8.65625 C 27.285156 -7.425781 26.441406 -6.3125 25.453125 -5.3125 C 24.460938 -4.320312 23.351562 -3.507812 22.125 -2.875 C 20.894531 -2.238281 19.554688 -1.84375 18.109375 -1.6875 C 16.722656 -1.53125 15.332031 -1.582031 13.9375 -1.84375 C 12.550781 -2.113281 11.222656 -2.570312 9.953125 -3.21875 C 8.691406 -3.875 7.546875 -4.679688 6.515625 -5.640625 C 5.484375 -6.609375 4.632812 -7.703125 3.96875 -8.921875 C 3.144531 -10.429688 2.546875 -12.03125 2.171875 -13.71875 C 1.796875 -15.414062 1.625 -17.140625 1.65625 -18.890625 C 1.6875 -20.648438 1.90625 -22.378906 2.3125 -24.078125 C 2.726562 -25.773438 3.304688 -27.375 4.046875 -28.875 C 4.554688 -29.875 5.140625 -30.832031 5.796875 -31.75 C 6.460938 -32.664062 7.222656 -33.492188 8.078125 -34.234375 C 8.929688 -34.984375 9.875 -35.578125 10.90625 -36.015625 C 11.695312 -36.367188 12.507812 -36.609375 13.34375 -36.734375 C 12.65625 -37.703125 12.0625 -38.722656 11.5625 -39.796875 C 11.070312 -40.878906 10.671875 -42.003906 10.359375 -43.171875 C 10.097656 -44.128906 9.910156 -45.101562 9.796875 -46.09375 C 9.679688 -47.09375 9.691406 -48.085938 9.828125 -49.078125 C 10.035156 -50.765625 10.4375 -52.207031 11.03125 -53.40625 C 11.632812 -54.601562 12.347656 -55.578125 13.171875 -56.328125 C 14.003906 -57.085938 14.878906 -57.640625 15.796875 -57.984375 C 16.710938 -58.335938 17.597656 -58.503906 18.453125 -58.484375 C 19.015625 -58.460938 19.632812 -58.382812 20.3125 -58.25 C 21 -58.113281 21.78125 -57.785156 22.65625 -57.265625 C 23.4375 -56.796875 24.203125 -56.140625 24.953125 -55.296875 C 25.710938 -54.460938 26.390625 -53.484375 26.984375 -52.359375 C 27.578125 -51.234375 28.023438 -50.007812 28.328125 -48.6875 C 28.640625 -47.375 28.734375 -46.019531 28.609375 -44.625 C 28.546875 -43.832031 28.382812 -43.082031 28.125 -42.375 C 27.875 -41.664062 27.519531 -41.097656 27.0625 -40.671875 C 26.613281 -40.253906 26.050781 -40.0625 25.375 -40.09375 C 24.695312 -40.132812 24.0625 -40.34375 23.46875 -40.71875 C 22.875 -41.101562 22.34375 -41.582031 21.875 -42.15625 C 21.414062 -42.738281 21.035156 -43.363281 20.734375 -44.03125 C 20.441406 -44.707031 20.242188 -45.367188 20.140625 -46.015625 C 20.046875 -46.671875 20.066406 -47.25 20.203125 -47.75 C 20.222656 -47.832031 20.316406 -47.875 20.484375 -47.875 C 20.660156 -47.882812 20.859375 -47.863281 21.078125 -47.8125 C 21.296875 -47.757812 21.492188 -47.675781 21.671875 -47.5625 C 21.847656 -47.457031 21.957031 -47.332031 22 -47.1875 C 21.976562 -47.03125 22.003906 -46.769531 22.078125 -46.40625 C 22.160156 -46.039062 22.285156 -45.632812 22.453125 -45.1875 C 22.617188 -44.738281 22.8125 -44.285156 23.03125 -43.828125 C 23.25 -43.367188 23.492188 -42.960938 23.765625 -42.609375 C 24.046875 -42.253906 24.34375 -41.988281 24.65625 -41.8125 C 24.96875 -41.644531 25.285156 -41.617188 25.609375 -41.734375 C 26.046875 -41.890625 26.375 -42.242188 26.59375 -42.796875 C 26.820312 -43.359375 26.941406 -44.046875 26.953125 -44.859375 C 26.960938 -45.671875 26.875 -46.550781 26.6875 -47.5 C 26.5 -48.445312 26.21875 -49.398438 25.84375 -50.359375 C 25.476562 -51.328125 25.019531 -52.238281 24.46875 -53.09375 C 23.914062 -53.957031 23.273438 -54.707031 22.546875 -55.34375 C 21.828125 -55.976562 21.023438 -56.429688 20.140625 -56.703125 C 19.265625 -56.984375 18.3125 -57.019531 17.28125 -56.8125 C 16.601562 -56.6875 15.945312 -56.332031 15.3125 -55.75 C 14.675781 -55.175781 14.132812 -54.410156 13.6875 -53.453125 C 13.25 -52.503906 12.972656 -51.390625 12.859375 -50.109375 C 12.753906 -48.828125 12.882812 -47.398438 13.25 -45.828125 C 13.613281 -44.265625 14.28125 -42.585938 15.25 -40.796875 C 16.226562 -39.003906 17.59375 -37.125 19.34375 -35.15625 C 19.613281 -34.882812 19.695312 -34.644531 19.59375 -34.4375 C 19.5 -34.226562 19.289062 -34.054688 18.96875 -33.921875 C 18.65625 -33.796875 18.289062 -33.707031 17.875 -33.65625 C 17.457031 -33.613281 17.054688 -33.617188 16.671875 -33.671875 C 16.296875 -33.722656 16.015625 -33.832031 15.828125 -34 C 15.429688 -34.382812 15.019531 -34.59375 14.59375 -34.625 C 14.164062 -34.664062 13.726562 -34.585938 13.28125 -34.390625 C 12.84375 -34.203125 12.414062 -33.9375 12 -33.59375 C 11.582031 -33.257812 11.195312 -32.90625 10.84375 -32.53125 C 10.488281 -32.15625 10.1875 -31.8125 9.9375 -31.5 C 9.03125 -30.351562 8.257812 -29.070312 7.625 -27.65625 C 7 -26.25 6.535156 -24.820312 6.234375 -23.375 C 5.972656 -22.164062 5.8125 -20.90625 5.75 -19.59375 C 5.695312 -18.289062 5.753906 -16.988281 5.921875 -15.6875 C 6.085938 -14.382812 6.382812 -13.125 6.8125 -11.90625 C 7.25 -10.6875 7.820312 -9.550781 8.53125 -8.5 C 9 -7.789062 9.59375 -7.113281 10.3125 -6.46875 C 11.03125 -5.832031 11.816406 -5.273438 12.671875 -4.796875 C 13.523438 -4.316406 14.410156 -3.984375 15.328125 -3.796875 C 16.242188 -3.617188 17.144531 -3.644531 18.03125 -3.875 C 19.019531 -4.113281 19.925781 -4.550781 20.75 -5.1875 C 21.582031 -5.820312 22.316406 -6.570312 22.953125 -7.4375 C 23.597656 -8.300781 24.144531 -9.21875 24.59375 -10.1875 C 25.050781 -11.15625 25.394531 -12.101562 25.625 -13.03125 C 25.882812 -14.082031 26.050781 -15.175781 26.125 -16.3125 C 26.195312 -17.445312 26.179688 -18.546875 26.078125 -19.609375 C 25.972656 -20.703125 25.710938 -21.738281 25.296875 -22.71875 C 25.234375 -22.875 25.140625 -23.066406 25.015625 -23.296875 C 24.898438 -23.523438 24.773438 -23.75 24.640625 -23.96875 C 24.515625 -24.1875 24.40625 -24.363281 24.3125 -24.5 C 24.15625 -24.457031 23.914062 -24.457031 23.59375 -24.5 C 23.28125 -24.550781 22.96875 -24.644531 22.65625 -24.78125 C 22.34375 -24.914062 22.125 -25.085938 22 -25.296875 C 21.8125 -25.597656 21.8125 -25.859375 22 -26.078125 C 22.1875 -26.296875 22.429688 -26.445312 22.734375 -26.53125 Z M 22.734375 -26.53125 "/></g></g></g><g fill="#ffffff" fill-opacity="1"><g transform="translate(114.603121, 63.49996)"><g><path d="M 17.953125 -27.71875 C 17.992188 -27.875 18.125 -27.984375 18.34375 -28.046875 C 18.5625 -28.109375 18.796875 -28.128906 19.046875 -28.109375 C 19.296875 -28.097656 19.5 -28.039062 19.65625 -27.9375 C 19.820312 -27.832031 19.875 -27.6875 19.8125 -27.5 C 19.164062 -25.707031 18.503906 -23.972656 17.828125 -22.296875 C 17.148438 -20.617188 16.351562 -19.023438 15.4375 -17.515625 C 14.53125 -16.003906 13.398438 -14.59375 12.046875 -13.28125 C 12.015625 -11.9375 11.976562 -10.59375 11.9375 -9.25 C 11.894531 -7.90625 11.851562 -6.554688 11.8125 -5.203125 C 11.789062 -4.078125 11.753906 -2.941406 11.703125 -1.796875 C 11.660156 -0.660156 11.5625 0.46875 11.40625 1.59375 C 11.25 2.71875 10.96875 3.816406 10.5625 4.890625 C 9.96875 6.503906 9.097656 7.785156 7.953125 8.734375 C 6.804688 9.679688 5.378906 10.265625 3.671875 10.484375 C 2.828125 10.585938 1.992188 10.554688 1.171875 10.390625 C 0.359375 10.234375 -0.375 9.921875 -1.03125 9.453125 C -1.695312 8.984375 -2.238281 8.351562 -2.65625 7.5625 C -3.132812 6.632812 -3.390625 5.675781 -3.421875 4.6875 C -3.460938 3.695312 -3.335938 2.710938 -3.046875 1.734375 C -2.765625 0.765625 -2.390625 -0.148438 -1.921875 -1.015625 C -1.109375 -2.472656 -0.140625 -3.800781 0.984375 -5 C 2.109375 -6.207031 3.304688 -7.34375 4.578125 -8.40625 C 5.847656 -9.476562 7.109375 -10.546875 8.359375 -11.609375 C 8.390625 -12.722656 8.414062 -13.84375 8.4375 -14.96875 C 8.46875 -16.09375 8.488281 -17.222656 8.5 -18.359375 C 8.175781 -17.640625 7.8125 -16.9375 7.40625 -16.25 C 7.007812 -15.5625 6.585938 -14.941406 6.140625 -14.390625 C 5.691406 -13.835938 5.234375 -13.414062 4.765625 -13.125 C 4.304688 -12.84375 3.859375 -12.753906 3.421875 -12.859375 C 2.546875 -12.941406 1.820312 -13.171875 1.25 -13.546875 C 0.675781 -13.929688 0.222656 -14.414062 -0.109375 -15 C -0.453125 -15.582031 -0.703125 -16.222656 -0.859375 -16.921875 C -1.023438 -17.628906 -1.132812 -18.359375 -1.1875 -19.109375 C -1.238281 -19.859375 -1.28125 -20.578125 -1.3125 -21.265625 C -1.382812 -23.753906 -1.382812 -26.238281 -1.3125 -28.71875 C -1.28125 -29.375 -1.242188 -30.085938 -1.203125 -30.859375 C -1.171875 -31.628906 -1.117188 -32.363281 -1.046875 -33.0625 C -0.972656 -33.769531 -0.878906 -34.363281 -0.765625 -34.84375 C -0.703125 -35.15625 -0.539062 -35.382812 -0.28125 -35.53125 C -0.03125 -35.675781 0.257812 -35.734375 0.59375 -35.703125 C 0.9375 -35.679688 1.265625 -35.582031 1.578125 -35.40625 C 1.890625 -35.226562 2.144531 -34.984375 2.34375 -34.671875 C 2.550781 -34.367188 2.648438 -34.003906 2.640625 -33.578125 C 2.628906 -33.210938 2.609375 -32.722656 2.578125 -32.109375 C 2.554688 -31.492188 2.523438 -30.828125 2.484375 -30.109375 C 2.453125 -29.390625 2.421875 -28.664062 2.390625 -27.9375 C 2.359375 -27.207031 2.332031 -26.535156 2.3125 -25.921875 C 2.289062 -25.316406 2.28125 -24.828125 2.28125 -24.453125 C 2.28125 -22.710938 2.320312 -20.96875 2.40625 -19.21875 C 2.425781 -18.789062 2.46875 -18.300781 2.53125 -17.75 C 2.59375 -17.195312 2.710938 -16.664062 2.890625 -16.15625 C 3.078125 -15.65625 3.378906 -15.269531 3.796875 -15 C 3.859375 -14.988281 3.96875 -15.070312 4.125 -15.25 C 4.289062 -15.4375 4.476562 -15.671875 4.6875 -15.953125 C 4.894531 -16.242188 5.101562 -16.546875 5.3125 -16.859375 C 5.519531 -17.179688 5.695312 -17.46875 5.84375 -17.71875 C 6.21875 -18.351562 6.546875 -19.015625 6.828125 -19.703125 C 7.117188 -20.398438 7.390625 -21.09375 7.640625 -21.78125 C 7.847656 -22.375 8.03125 -22.976562 8.1875 -23.59375 C 8.351562 -24.207031 8.503906 -24.828125 8.640625 -25.453125 C 8.671875 -27.003906 8.726562 -28.550781 8.8125 -30.09375 C 8.90625 -31.644531 9.015625 -33.191406 9.140625 -34.734375 C 9.171875 -34.972656 9.300781 -35.148438 9.53125 -35.265625 C 9.769531 -35.378906 10.0625 -35.425781 10.40625 -35.40625 C 10.75 -35.382812 11.085938 -35.316406 11.421875 -35.203125 C 11.753906 -35.097656 12.03125 -34.945312 12.25 -34.75 C 12.476562 -34.550781 12.601562 -34.328125 12.625 -34.078125 C 12.675781 -32.441406 12.675781 -30.859375 12.625 -29.328125 C 12.582031 -27.804688 12.523438 -26.28125 12.453125 -24.75 C 12.378906 -23.226562 12.316406 -21.644531 12.265625 -20 C 12.242188 -19.21875 12.21875 -18.4375 12.1875 -17.65625 C 12.164062 -16.882812 12.140625 -16.109375 12.109375 -15.328125 C 13.566406 -17.097656 14.753906 -19.015625 15.671875 -21.078125 C 16.585938 -23.148438 17.347656 -25.363281 17.953125 -27.71875 Z M 8.015625 -0.875 C 8.117188 -2.40625 8.1875 -3.929688 8.21875 -5.453125 C 8.25 -6.972656 8.273438 -8.492188 8.296875 -10.015625 C 7.117188 -9.023438 5.945312 -8.015625 4.78125 -6.984375 C 3.613281 -5.953125 2.53125 -4.835938 1.53125 -3.640625 C 1.019531 -3.015625 0.53125 -2.34375 0.0625 -1.625 C -0.394531 -0.914062 -0.789062 -0.171875 -1.125 0.609375 C -1.457031 1.390625 -1.6875 2.1875 -1.8125 3 C -1.945312 3.820312 -1.9375 4.648438 -1.78125 5.484375 C -1.632812 6.203125 -1.363281 6.898438 -0.96875 7.578125 C -0.570312 8.265625 -0.046875 8.800781 0.609375 9.1875 C 1.085938 9.457031 1.535156 9.582031 1.953125 9.5625 C 2.367188 9.550781 2.765625 9.445312 3.140625 9.25 C 3.523438 9.0625 3.882812 8.8125 4.21875 8.5 C 4.5625 8.195312 4.890625 7.882812 5.203125 7.5625 C 5.898438 6.820312 6.441406 5.984375 6.828125 5.046875 C 7.210938 4.109375 7.488281 3.128906 7.65625 2.109375 C 7.820312 1.097656 7.941406 0.101562 8.015625 -0.875 Z M 8.015625 -0.875 "/></g></g></g><g fill="#ffffff" fill-opacity="1"><g transform="translate(133.351288, 63.49996)"><g><path d="M 7.9375 -24.203125 C 7.570312 -23.585938 7.140625 -23.019531 6.640625 -22.5 C 6.148438 -21.988281 5.59375 -21.585938 4.96875 -21.296875 C 4.351562 -21.015625 3.660156 -20.910156 2.890625 -20.984375 C 2.816406 -20.984375 2.738281 -20.988281 2.65625 -21 C 2.582031 -21.007812 2.503906 -21.019531 2.421875 -21.03125 C 2.472656 -20.320312 2.570312 -19.628906 2.71875 -18.953125 C 2.875 -18.273438 3.097656 -17.664062 3.390625 -17.125 C 3.691406 -16.582031 4.085938 -16.140625 4.578125 -15.796875 C 5.078125 -15.460938 5.6875 -15.28125 6.40625 -15.25 C 7.03125 -15.226562 7.617188 -15.375 8.171875 -15.6875 C 8.722656 -16 9.234375 -16.410156 9.703125 -16.921875 C 10.171875 -17.441406 10.597656 -17.988281 10.984375 -18.5625 C 11.378906 -19.132812 11.734375 -19.671875 12.046875 -20.171875 C 12.148438 -20.347656 12.296875 -20.628906 12.484375 -21.015625 C 12.679688 -21.410156 12.890625 -21.863281 13.109375 -22.375 C 13.328125 -22.882812 13.539062 -23.414062 13.75 -23.96875 C 13.96875 -24.53125 14.160156 -25.078125 14.328125 -25.609375 C 14.492188 -26.140625 14.613281 -26.609375 14.6875 -27.015625 C 14.738281 -27.285156 14.851562 -27.457031 15.03125 -27.53125 C 15.207031 -27.613281 15.367188 -27.609375 15.515625 -27.515625 C 15.671875 -27.429688 15.710938 -27.257812 15.640625 -27 C 15.484375 -26.300781 15.257812 -25.507812 14.96875 -24.625 C 14.675781 -23.738281 14.34375 -22.832031 13.96875 -21.90625 C 13.59375 -20.976562 13.195312 -20.078125 12.78125 -19.203125 C 12.257812 -18.097656 11.648438 -17.09375 10.953125 -16.1875 C 10.253906 -15.28125 9.488281 -14.550781 8.65625 -14 C 7.832031 -13.457031 6.953125 -13.15625 6.015625 -13.09375 C 5.140625 -13.019531 4.296875 -13.097656 3.484375 -13.328125 C 2.671875 -13.566406 1.945312 -13.953125 1.3125 -14.484375 C 0.675781 -15.023438 0.160156 -15.707031 -0.234375 -16.53125 C -0.597656 -17.332031 -0.859375 -18.1875 -1.015625 -19.09375 C -1.171875 -20.007812 -1.25 -20.9375 -1.25 -21.875 C -1.257812 -22.820312 -1.238281 -23.726562 -1.1875 -24.59375 C -1.15625 -25.289062 -1.0625 -26.0625 -0.90625 -26.90625 C -0.757812 -27.75 -0.546875 -28.601562 -0.265625 -29.46875 C 0.00390625 -30.34375 0.34375 -31.179688 0.75 -31.984375 C 1.164062 -32.796875 1.648438 -33.519531 2.203125 -34.15625 C 2.765625 -34.800781 3.40625 -35.3125 4.125 -35.6875 C 4.84375 -36.0625 5.644531 -36.25 6.53125 -36.25 C 7.382812 -36.25 8.070312 -36.082031 8.59375 -35.75 C 9.113281 -35.414062 9.492188 -34.957031 9.734375 -34.375 C 9.972656 -33.800781 10.109375 -33.148438 10.140625 -32.421875 C 10.179688 -31.703125 10.132812 -30.945312 10 -30.15625 C 9.875 -29.375 9.691406 -28.601562 9.453125 -27.84375 C 9.222656 -27.09375 8.972656 -26.398438 8.703125 -25.765625 C 8.429688 -25.140625 8.175781 -24.617188 7.9375 -24.203125 Z M 2.390625 -22.5 C 2.421875 -22.476562 2.457031 -22.453125 2.5 -22.421875 C 2.539062 -22.398438 2.585938 -22.375 2.640625 -22.34375 C 3.023438 -22.144531 3.382812 -22.101562 3.71875 -22.21875 C 4.0625 -22.332031 4.375 -22.53125 4.65625 -22.8125 C 4.945312 -23.101562 5.203125 -23.421875 5.421875 -23.765625 C 5.648438 -24.109375 5.84375 -24.410156 6 -24.671875 C 6.570312 -25.703125 7.03125 -26.789062 7.375 -27.9375 C 7.71875 -29.082031 7.894531 -30.238281 7.90625 -31.40625 C 7.925781 -31.707031 7.914062 -32.078125 7.875 -32.515625 C 7.84375 -32.960938 7.757812 -33.390625 7.625 -33.796875 C 7.5 -34.210938 7.28125 -34.503906 6.96875 -34.671875 C 6.6875 -34.835938 6.328125 -34.757812 5.890625 -34.4375 C 5.453125 -34.125 5.007812 -33.597656 4.5625 -32.859375 C 4.113281 -32.128906 3.710938 -31.210938 3.359375 -30.109375 C 3.003906 -29.003906 2.757812 -27.757812 2.625 -26.375 C 2.582031 -25.957031 2.53125 -25.40625 2.46875 -24.71875 C 2.414062 -24.03125 2.390625 -23.289062 2.390625 -22.5 Z M 2.390625 -22.5 "/></g></g></g></svg>