<svg xmlns="http://www.w3.org/2000/svg" xmlns:xlink="http://www.w3.org/1999/xlink" width="1000" zoomAndPan="magnify" viewBox="0 0 750 74.999997" height="100" preserveAspectRatio="xMidYMid meet" version="1.0"><defs><g/></defs><g fill="#ffffff" fill-opacity="1"><g transform="translate(9.152358, 69.749993)"><g><path d="M 24.546875 -61.0625 C 25.796875 -61.0625 26.925781 -60.734375 27.9375 -60.078125 C 28.957031 -59.429688 29.710938 -58.535156 30.203125 -57.390625 C 30.597656 -56.453125 30.867188 -55.460938 31.015625 -54.421875 C 31.160156 -53.378906 31.234375 -52.328125 31.234375 -51.265625 C 31.242188 -50.210938 31.238281 -49.191406 31.21875 -48.203125 C 31.132812 -44.878906 30.75 -41.585938 30.0625 -38.328125 C 29.90625 -37.578125 29.722656 -36.773438 29.515625 -35.921875 C 29.316406 -35.078125 29.066406 -34.21875 28.765625 -33.34375 C 28.472656 -32.476562 28.113281 -31.664062 27.6875 -30.90625 C 27.257812 -30.144531 26.75 -29.476562 26.15625 -28.90625 C 25.570312 -28.34375 24.878906 -27.929688 24.078125 -27.671875 C 23.285156 -27.410156 22.375 -27.359375 21.34375 -27.515625 C 20.65625 -27.617188 20.070312 -27.910156 19.59375 -28.390625 C 19.125 -28.878906 18.769531 -29.484375 18.53125 -30.203125 C 18.300781 -30.929688 18.1875 -31.703125 18.1875 -32.515625 C 18.195312 -33.953125 18.351562 -35.296875 18.65625 -36.546875 C 18.957031 -37.796875 19.484375 -38.804688 20.234375 -39.578125 C 20.285156 -39.628906 20.390625 -39.660156 20.546875 -39.671875 C 20.703125 -39.691406 20.847656 -39.6875 20.984375 -39.65625 C 21.117188 -39.632812 21.175781 -39.566406 21.15625 -39.453125 C 21.0625 -38.984375 20.945312 -38.394531 20.8125 -37.6875 C 20.675781 -36.988281 20.550781 -36.238281 20.4375 -35.4375 C 20.332031 -34.632812 20.265625 -33.84375 20.234375 -33.0625 C 20.210938 -32.28125 20.257812 -31.570312 20.375 -30.9375 C 20.5 -30.300781 20.722656 -29.789062 21.046875 -29.40625 C 21.378906 -29.03125 21.835938 -28.859375 22.421875 -28.890625 C 22.921875 -28.910156 23.378906 -29.210938 23.796875 -29.796875 C 24.222656 -30.378906 24.609375 -31.164062 24.953125 -32.15625 C 25.304688 -33.144531 25.625 -34.257812 25.90625 -35.5 C 26.1875 -36.738281 26.429688 -38.039062 26.640625 -39.40625 C 26.847656 -40.78125 27.015625 -42.132812 27.140625 -43.46875 C 27.273438 -44.800781 27.375 -46.050781 27.4375 -47.21875 C 27.507812 -48.394531 27.535156 -49.398438 27.515625 -50.234375 C 27.503906 -50.890625 27.488281 -51.582031 27.46875 -52.3125 C 27.445312 -53.039062 27.390625 -53.769531 27.296875 -54.5 C 27.203125 -55.238281 27.023438 -55.9375 26.765625 -56.59375 C 26.515625 -57.257812 26.148438 -57.847656 25.671875 -58.359375 C 25.421875 -58.617188 25.191406 -58.796875 24.984375 -58.890625 C 24.773438 -58.984375 24.492188 -59.003906 24.140625 -58.953125 C 24.046875 -58.929688 23.820312 -58.832031 23.46875 -58.65625 C 23.113281 -58.488281 22.664062 -58.164062 22.125 -57.6875 C 21.582031 -57.207031 20.992188 -56.53125 20.359375 -55.65625 C 19.734375 -54.789062 19.097656 -53.664062 18.453125 -52.28125 C 17.816406 -50.894531 17.226562 -49.1875 16.6875 -47.15625 C 16.507812 -46.53125 16.351562 -45.898438 16.21875 -45.265625 C 16.09375 -44.628906 15.972656 -43.992188 15.859375 -43.359375 C 15.992188 -39.910156 16 -36.457031 15.875 -33 C 15.757812 -29.539062 15.484375 -26.097656 15.046875 -22.671875 C 14.804688 -20.847656 14.519531 -19.035156 14.1875 -17.234375 C 13.851562 -15.429688 13.46875 -13.640625 13.03125 -11.859375 C 12.789062 -10.941406 12.546875 -10.03125 12.296875 -9.125 C 12.046875 -8.226562 11.769531 -7.328125 11.46875 -6.421875 C 11.269531 -5.835938 11.078125 -5.253906 10.890625 -4.671875 C 10.703125 -4.085938 10.46875 -3.53125 10.1875 -3 C 9.914062 -2.46875 9.546875 -1.984375 9.078125 -1.546875 C 8.953125 -1.410156 8.765625 -1.300781 8.515625 -1.21875 C 8.265625 -1.144531 7.992188 -1.101562 7.703125 -1.09375 C 7.421875 -1.09375 7.160156 -1.132812 6.921875 -1.21875 C 6.679688 -1.300781 6.507812 -1.441406 6.40625 -1.640625 C 6.28125 -1.878906 6.25 -2.1875 6.3125 -2.5625 C 6.375 -2.945312 6.488281 -3.359375 6.65625 -3.796875 C 6.832031 -4.242188 7.015625 -4.6875 7.203125 -5.125 C 7.398438 -5.570312 7.554688 -5.976562 7.671875 -6.34375 C 7.929688 -7.15625 8.1875 -7.960938 8.4375 -8.765625 C 8.6875 -9.578125 8.914062 -10.394531 9.125 -11.21875 C 9.5625 -12.851562 9.941406 -14.503906 10.265625 -16.171875 C 10.597656 -17.835938 10.878906 -19.507812 11.109375 -21.1875 C 11.523438 -24.101562 11.820312 -27.023438 12 -29.953125 C 12.175781 -32.890625 12.253906 -35.820312 12.234375 -38.75 C 12.210938 -40.65625 12.1875 -42.585938 12.15625 -44.546875 C 12.125 -46.503906 12.003906 -48.457031 11.796875 -50.40625 C 11.585938 -52.351562 11.222656 -54.242188 10.703125 -56.078125 C 10.640625 -56.296875 10.546875 -56.609375 10.421875 -57.015625 C 10.296875 -57.421875 10.128906 -57.84375 9.921875 -58.28125 C 9.722656 -58.726562 9.488281 -59.109375 9.21875 -59.421875 C 8.945312 -59.734375 8.625 -59.898438 8.25 -59.921875 C 7.757812 -59.960938 7.316406 -59.828125 6.921875 -59.515625 C 6.535156 -59.203125 6.179688 -58.785156 5.859375 -58.265625 C 5.546875 -57.753906 5.238281 -57.203125 4.9375 -56.609375 C 4.675781 -56.054688 4.398438 -55.398438 4.109375 -54.640625 C 3.816406 -53.878906 3.523438 -53.054688 3.234375 -52.171875 C 2.953125 -51.296875 2.695312 -50.40625 2.46875 -49.5 C 2.238281 -48.59375 2.050781 -47.726562 1.90625 -46.90625 C 1.769531 -46.082031 1.695312 -45.335938 1.6875 -44.671875 C 1.6875 -44.003906 1.765625 -43.46875 1.921875 -43.0625 C 2.085938 -42.664062 2.359375 -42.445312 2.734375 -42.40625 C 3.035156 -42.375 3.351562 -42.5 3.6875 -42.78125 C 4.03125 -43.0625 4.378906 -43.445312 4.734375 -43.9375 C 5.097656 -44.4375 5.453125 -44.992188 5.796875 -45.609375 C 6.148438 -46.222656 6.484375 -46.847656 6.796875 -47.484375 C 7.117188 -48.117188 7.410156 -48.722656 7.671875 -49.296875 C 7.929688 -49.878906 8.148438 -50.375 8.328125 -50.78125 C 8.378906 -50.863281 8.488281 -50.921875 8.65625 -50.953125 C 8.820312 -50.992188 8.976562 -51 9.125 -50.96875 C 9.28125 -50.945312 9.351562 -50.863281 9.34375 -50.71875 C 9.3125 -50.394531 9.1875 -49.941406 8.96875 -49.359375 C 8.757812 -48.785156 8.484375 -48.144531 8.140625 -47.4375 C 7.796875 -46.738281 7.40625 -46.035156 6.96875 -45.328125 C 6.539062 -44.617188 6.085938 -43.96875 5.609375 -43.375 C 5.140625 -42.78125 4.664062 -42.300781 4.1875 -41.9375 C 3.71875 -41.570312 3.265625 -41.390625 2.828125 -41.390625 C 2.273438 -41.390625 1.816406 -41.53125 1.453125 -41.8125 C 1.085938 -42.101562 0.804688 -42.5 0.609375 -43 C 0.410156 -43.5 0.269531 -44.066406 0.1875 -44.703125 C 0.113281 -45.347656 0.078125 -46.023438 0.078125 -46.734375 C 0.078125 -47.390625 0.128906 -48.144531 0.234375 -49 C 0.347656 -49.863281 0.515625 -50.773438 0.734375 -51.734375 C 0.960938 -52.703125 1.242188 -53.664062 1.578125 -54.625 C 1.910156 -55.59375 2.300781 -56.507812 2.75 -57.375 C 3.195312 -58.25 3.695312 -59.023438 4.25 -59.703125 C 4.8125 -60.378906 5.4375 -60.910156 6.125 -61.296875 C 6.8125 -61.691406 7.550781 -61.890625 8.34375 -61.890625 C 9.28125 -61.890625 10.082031 -61.75 10.75 -61.46875 C 11.425781 -61.195312 11.988281 -60.8125 12.4375 -60.3125 C 12.894531 -59.820312 13.273438 -59.242188 13.578125 -58.578125 C 13.890625 -57.910156 14.15625 -57.1875 14.375 -56.40625 C 14.71875 -55.21875 14.972656 -54.019531 15.140625 -52.8125 C 15.316406 -51.613281 15.453125 -50.40625 15.546875 -49.1875 C 15.953125 -50.394531 16.410156 -51.578125 16.921875 -52.734375 C 17.441406 -53.890625 18 -54.96875 18.59375 -55.96875 C 19.195312 -56.976562 19.828125 -57.863281 20.484375 -58.625 C 21.140625 -59.382812 21.8125 -59.976562 22.5 -60.40625 C 23.1875 -60.84375 23.867188 -61.0625 24.546875 -61.0625 Z M 24.546875 -61.0625 "/></g></g></g><g fill="#ffffff" fill-opacity="1"><g transform="translate(39.520489, 69.749993)"><g><path d="M -0.546875 -27.890625 C -0.535156 -28.234375 -0.515625 -28.644531 -0.484375 -29.125 C -0.453125 -29.601562 -0.421875 -30.085938 -0.390625 -30.578125 C -0.367188 -31.066406 -0.359375 -31.472656 -0.359375 -31.796875 C -0.359375 -31.828125 -0.351562 -31.859375 -0.34375 -31.890625 C -0.332031 -31.929688 -0.328125 -31.96875 -0.328125 -32 C -0.671875 -32.007812 -0.976562 -32.066406 -1.25 -32.171875 C -1.519531 -32.285156 -1.65625 -32.46875 -1.65625 -32.71875 C -1.65625 -32.988281 -1.519531 -33.1875 -1.25 -33.3125 C -0.976562 -33.4375 -0.609375 -33.515625 -0.140625 -33.546875 C 0.316406 -33.578125 0.828125 -33.59375 1.390625 -33.59375 C 2.234375 -33.59375 2.941406 -33.519531 3.515625 -33.375 C 4.097656 -33.238281 4.398438 -33.019531 4.421875 -32.71875 C 4.429688 -32.5 4.34375 -32.335938 4.15625 -32.234375 C 3.96875 -32.128906 3.664062 -32.0625 3.25 -32.03125 C 3.25 -32.007812 3.25 -31.976562 3.25 -31.9375 C 3.25 -31.894531 3.25 -31.863281 3.25 -31.84375 C 3.257812 -31.488281 3.253906 -31.015625 3.234375 -30.421875 C 3.222656 -29.828125 3.203125 -29.203125 3.171875 -28.546875 C 3.140625 -27.890625 3.109375 -27.265625 3.078125 -26.671875 C 3.054688 -26.085938 3.039062 -25.625 3.03125 -25.28125 C 2.976562 -23.90625 2.914062 -22.519531 2.84375 -21.125 C 2.78125 -19.726562 2.863281 -18.351562 3.09375 -17 C 3.113281 -16.8125 3.160156 -16.546875 3.234375 -16.203125 C 3.304688 -15.859375 3.40625 -15.5 3.53125 -15.125 C 3.65625 -14.757812 3.8125 -14.441406 4 -14.171875 C 4.1875 -13.898438 4.40625 -13.765625 4.65625 -13.765625 C 5.09375 -13.753906 5.507812 -13.957031 5.90625 -14.375 C 6.300781 -14.800781 6.671875 -15.367188 7.015625 -16.078125 C 7.367188 -16.796875 7.691406 -17.578125 7.984375 -18.421875 C 8.273438 -19.273438 8.535156 -20.132812 8.765625 -21 C 9.003906 -21.875 9.203125 -22.675781 9.359375 -23.40625 C 9.515625 -24.144531 9.628906 -24.75 9.703125 -25.21875 C 9.734375 -25.363281 9.816406 -25.445312 9.953125 -25.46875 C 10.097656 -25.5 10.234375 -25.484375 10.359375 -25.421875 C 10.492188 -25.359375 10.550781 -25.257812 10.53125 -25.125 C 10.414062 -24.414062 10.265625 -23.601562 10.078125 -22.6875 C 9.898438 -21.78125 9.679688 -20.835938 9.421875 -19.859375 C 9.171875 -18.890625 8.863281 -17.9375 8.5 -17 C 8.144531 -16.070312 7.734375 -15.234375 7.265625 -14.484375 C 6.796875 -13.734375 6.257812 -13.132812 5.65625 -12.6875 C 5.0625 -12.25 4.378906 -12.03125 3.609375 -12.03125 C 2.859375 -12.03125 2.148438 -12.269531 1.484375 -12.75 C 0.835938 -13.25 0.347656 -13.867188 0.015625 -14.609375 C -0.304688 -15.347656 -0.519531 -16.144531 -0.625 -17 C -0.738281 -17.851562 -0.789062 -18.707031 -0.78125 -19.5625 C -0.78125 -20.425781 -0.769531 -21.21875 -0.75 -21.9375 C -0.71875 -22.925781 -0.679688 -23.914062 -0.640625 -24.90625 C -0.609375 -25.90625 -0.578125 -26.898438 -0.546875 -27.890625 Z M 4.6875 -36.875 C 4.675781 -36.488281 4.410156 -36.160156 3.890625 -35.890625 C 3.367188 -35.617188 2.742188 -35.492188 2.015625 -35.515625 C 1.273438 -35.523438 0.644531 -35.671875 0.125 -35.953125 C -0.382812 -36.234375 -0.632812 -36.566406 -0.625 -36.953125 C -0.625 -37.210938 -0.503906 -37.445312 -0.265625 -37.65625 C -0.0234375 -37.863281 0.296875 -38.03125 0.703125 -38.15625 C 1.117188 -38.28125 1.566406 -38.335938 2.046875 -38.328125 C 2.773438 -38.304688 3.394531 -38.148438 3.90625 -37.859375 C 4.425781 -37.578125 4.6875 -37.25 4.6875 -36.875 Z M 4.6875 -36.875 "/></g></g></g><g fill="#ffffff" fill-opacity="1"><g transform="translate(49.46093, 69.749993)"><g><path d="M 13.65625 -26.890625 C 13.675781 -27.023438 13.734375 -27.097656 13.828125 -27.109375 C 13.921875 -27.117188 14.003906 -27.101562 14.078125 -27.0625 C 14.160156 -27.03125 14.203125 -26.992188 14.203125 -26.953125 C 14.097656 -24.972656 13.847656 -23.117188 13.453125 -21.390625 C 13.054688 -19.660156 12.535156 -18.125 11.890625 -16.78125 C 11.242188 -15.4375 10.5 -14.347656 9.65625 -13.515625 C 8.820312 -12.679688 7.914062 -12.164062 6.9375 -11.96875 C 6.269531 -11.84375 5.546875 -11.796875 4.765625 -11.828125 C 3.992188 -11.867188 3.25 -12.007812 2.53125 -12.25 C 1.820312 -12.5 1.210938 -12.863281 0.703125 -13.34375 C 0.117188 -13.90625 -0.347656 -14.539062 -0.703125 -15.25 C -1.054688 -15.957031 -1.3125 -16.707031 -1.46875 -17.5 C -1.625 -18.289062 -1.710938 -19.078125 -1.734375 -19.859375 C -1.835938 -22.515625 -1.550781 -25.128906 -0.875 -27.703125 C -0.71875 -28.285156 -0.53125 -28.898438 -0.3125 -29.546875 C -0.09375 -30.191406 0.171875 -30.816406 0.484375 -31.421875 C 0.796875 -32.035156 1.164062 -32.59375 1.59375 -33.09375 C 2.03125 -33.59375 2.535156 -34 3.109375 -34.3125 C 3.703125 -34.644531 4.351562 -34.828125 5.0625 -34.859375 C 5.78125 -34.898438 6.460938 -34.789062 7.109375 -34.53125 C 7.765625 -34.28125 8.289062 -33.867188 8.6875 -33.296875 C 9.039062 -32.816406 9.28125 -32.242188 9.40625 -31.578125 C 9.539062 -30.921875 9.609375 -30.253906 9.609375 -29.578125 C 9.609375 -28.898438 9.570312 -28.273438 9.5 -27.703125 C 9.425781 -27.140625 9.363281 -26.707031 9.3125 -26.40625 C 9.28125 -26.226562 9.148438 -26.0625 8.921875 -25.90625 C 8.691406 -25.75 8.410156 -25.613281 8.078125 -25.5 C 7.753906 -25.382812 7.4375 -25.316406 7.125 -25.296875 C 6.8125 -25.285156 6.550781 -25.320312 6.34375 -25.40625 C 6.132812 -25.5 6.03125 -25.664062 6.03125 -25.90625 C 6.019531 -26.5625 6.039062 -27.207031 6.09375 -27.84375 C 6.144531 -28.476562 6.15625 -29.109375 6.125 -29.734375 C 6.101562 -30.367188 5.976562 -31.007812 5.75 -31.65625 C 5.644531 -31.957031 5.554688 -32.195312 5.484375 -32.375 C 5.421875 -32.550781 5.335938 -32.628906 5.234375 -32.609375 C 5.140625 -32.585938 4.984375 -32.4375 4.765625 -32.15625 C 4.535156 -31.84375 4.328125 -31.503906 4.140625 -31.140625 C 3.960938 -30.785156 3.796875 -30.425781 3.640625 -30.0625 C 2.921875 -28.46875 2.429688 -26.769531 2.171875 -24.96875 C 1.910156 -23.175781 1.828125 -21.410156 1.921875 -19.671875 C 1.953125 -18.828125 2.039062 -18.050781 2.1875 -17.34375 C 2.332031 -16.644531 2.6875 -15.957031 3.25 -15.28125 C 3.363281 -15.132812 3.578125 -14.957031 3.890625 -14.75 C 4.210938 -14.550781 4.609375 -14.394531 5.078125 -14.28125 C 5.546875 -14.175781 6.0625 -14.175781 6.625 -14.28125 C 7.1875 -14.382812 7.773438 -14.664062 8.390625 -15.125 C 9.003906 -15.59375 9.617188 -16.300781 10.234375 -17.25 C 10.859375 -18.195312 11.460938 -19.457031 12.046875 -21.03125 C 12.640625 -22.613281 13.175781 -24.566406 13.65625 -26.890625 Z M 13.65625 -26.890625 "/></g></g></g><g fill="#ffffff" fill-opacity="1"><g transform="translate(63.014292, 69.749993)"><g><path d="M 15.640625 -27.5 C 15.660156 -27.5625 15.738281 -27.597656 15.875 -27.609375 C 16.019531 -27.628906 16.164062 -27.625 16.3125 -27.59375 C 16.457031 -27.570312 16.519531 -27.53125 16.5 -27.46875 C 16.3125 -25.832031 16.050781 -24.195312 15.71875 -22.5625 C 15.382812 -20.9375 14.9375 -19.347656 14.375 -17.796875 C 14.164062 -17.210938 13.929688 -16.613281 13.671875 -16 C 13.410156 -15.394531 13.09375 -14.859375 12.71875 -14.390625 C 12.351562 -13.921875 11.894531 -13.585938 11.34375 -13.390625 C 10.800781 -13.191406 10.140625 -13.195312 9.359375 -13.40625 C 8.722656 -13.582031 8.222656 -13.914062 7.859375 -14.40625 C 7.492188 -14.90625 7.222656 -15.492188 7.046875 -16.171875 C 6.867188 -16.847656 6.75 -17.539062 6.6875 -18.25 C 6.550781 -17.832031 6.40625 -17.414062 6.25 -17 C 6.101562 -16.59375 5.941406 -16.191406 5.765625 -15.796875 C 5.523438 -15.265625 5.238281 -14.757812 4.90625 -14.28125 C 4.582031 -13.8125 4.207031 -13.414062 3.78125 -13.09375 C 3.351562 -12.78125 2.875 -12.578125 2.34375 -12.484375 C 1.820312 -12.398438 1.238281 -12.484375 0.59375 -12.734375 C 0.03125 -12.953125 -0.414062 -13.28125 -0.75 -13.71875 C -1.09375 -14.15625 -1.351562 -14.644531 -1.53125 -15.1875 C -1.707031 -15.738281 -1.832031 -16.304688 -1.90625 -16.890625 C -1.976562 -17.484375 -2.023438 -18.039062 -2.046875 -18.5625 C -2.128906 -19.945312 -2.09375 -21.328125 -1.9375 -22.703125 C -1.78125 -24.078125 -1.519531 -25.4375 -1.15625 -26.78125 C -1 -27.351562 -0.816406 -27.96875 -0.609375 -28.625 C -0.410156 -29.28125 -0.175781 -29.929688 0.09375 -30.578125 C 0.375 -31.222656 0.695312 -31.820312 1.0625 -32.375 C 1.425781 -32.9375 1.851562 -33.414062 2.34375 -33.8125 C 2.71875 -34.113281 3.148438 -34.34375 3.640625 -34.5 C 4.140625 -34.664062 4.648438 -34.75 5.171875 -34.75 C 5.691406 -34.75 6.191406 -34.660156 6.671875 -34.484375 C 7.160156 -34.304688 7.570312 -34.03125 7.90625 -33.65625 C 7.9375 -33.625 7.960938 -33.59375 7.984375 -33.5625 C 8.015625 -33.53125 8.039062 -33.492188 8.0625 -33.453125 C 8.445312 -33.554688 8.835938 -33.59375 9.234375 -33.5625 C 9.640625 -33.539062 9.984375 -33.453125 10.265625 -33.296875 C 10.546875 -33.140625 10.671875 -32.921875 10.640625 -32.640625 C 10.515625 -30.828125 10.394531 -29 10.28125 -27.15625 C 10.175781 -25.3125 10.148438 -23.472656 10.203125 -21.640625 C 10.253906 -19.816406 10.453125 -18.007812 10.796875 -16.21875 C 10.816406 -16.082031 10.84375 -15.945312 10.875 -15.8125 C 10.90625 -15.675781 10.941406 -15.539062 10.984375 -15.40625 C 11.117188 -15.582031 11.25 -15.753906 11.375 -15.921875 C 11.5 -16.085938 11.613281 -16.253906 11.71875 -16.421875 C 12.082031 -16.960938 12.410156 -17.507812 12.703125 -18.0625 C 12.992188 -18.625 13.265625 -19.195312 13.515625 -19.78125 C 14.046875 -21.019531 14.484375 -22.28125 14.828125 -23.5625 C 15.179688 -24.84375 15.453125 -26.15625 15.640625 -27.5 Z M 5 -22.46875 C 5.351562 -23.695312 5.640625 -24.941406 5.859375 -26.203125 C 6.078125 -27.460938 6.289062 -28.722656 6.5 -29.984375 C 6.414062 -30.242188 6.300781 -30.5 6.15625 -30.75 C 6.019531 -30.96875 5.894531 -31.1875 5.78125 -31.40625 C 5.664062 -31.625 5.535156 -31.835938 5.390625 -32.046875 C 5.335938 -32.128906 5.28125 -32.207031 5.21875 -32.28125 C 5.164062 -32.363281 5.109375 -32.441406 5.046875 -32.515625 C 4.953125 -32.378906 4.863281 -32.238281 4.78125 -32.09375 C 4.695312 -31.945312 4.613281 -31.800781 4.53125 -31.65625 C 4.40625 -31.4375 4.28125 -31.207031 4.15625 -30.96875 C 4.039062 -30.726562 3.929688 -30.484375 3.828125 -30.234375 C 3.359375 -29.222656 2.96875 -28.1875 2.65625 -27.125 C 2.300781 -25.976562 2.035156 -24.800781 1.859375 -23.59375 C 1.691406 -22.394531 1.609375 -21.195312 1.609375 -20 C 1.609375 -19.46875 1.617188 -18.929688 1.640625 -18.390625 C 1.671875 -17.847656 1.726562 -17.3125 1.8125 -16.78125 C 1.84375 -16.625 1.890625 -16.375 1.953125 -16.03125 C 2.015625 -15.6875 2.109375 -15.359375 2.234375 -15.046875 C 2.460938 -15.367188 2.671875 -15.738281 2.859375 -16.15625 C 3.046875 -16.582031 3.210938 -16.988281 3.359375 -17.375 C 3.515625 -17.757812 3.625 -18.039062 3.6875 -18.21875 C 3.945312 -18.914062 4.179688 -19.617188 4.390625 -20.328125 C 4.597656 -21.035156 4.800781 -21.75 5 -22.46875 Z M 5 -22.46875 "/></g></g></g><g fill="#ffffff" fill-opacity="1"><g transform="translate(78.774476, 69.749993)"><g><path d="M 14.8125 -7.890625 C 14.914062 -7.921875 15.070312 -7.9375 15.28125 -7.9375 C 15.5 -7.9375 15.617188 -7.84375 15.640625 -7.65625 C 15.691406 -7.332031 15.625 -7.078125 15.4375 -6.890625 C 15.257812 -6.703125 15.023438 -6.5625 14.734375 -6.46875 C 14.453125 -6.382812 14.175781 -6.328125 13.90625 -6.296875 C 13.21875 -6.203125 12.539062 -6.265625 11.875 -6.484375 C 11.207031 -6.703125 10.648438 -7.082031 10.203125 -7.625 C 9.804688 -8.207031 9.488281 -8.960938 9.25 -9.890625 C 9.007812 -10.828125 8.851562 -11.988281 8.78125 -13.375 C 8.707031 -14.769531 8.726562 -16.4375 8.84375 -18.375 C 8.96875 -20.320312 9.1875 -22.585938 9.5 -25.171875 C 9.820312 -27.765625 10.25 -30.726562 10.78125 -34.0625 C 10.78125 -34.5625 10.773438 -35.0625 10.765625 -35.5625 C 10.765625 -36.0625 10.75 -36.550781 10.71875 -37.03125 C 10.707031 -37.070312 10.703125 -37.109375 10.703125 -37.140625 C 10.703125 -37.179688 10.703125 -37.222656 10.703125 -37.265625 C 10.492188 -36.898438 10.316406 -36.601562 10.171875 -36.375 C 9.890625 -35.925781 9.640625 -35.46875 9.421875 -35 C 9.210938 -34.53125 9.003906 -34.054688 8.796875 -33.578125 C 8.347656 -32.546875 7.953125 -31.488281 7.609375 -30.40625 C 7.273438 -29.332031 6.957031 -28.253906 6.65625 -27.171875 C 6.0625 -24.941406 5.476562 -22.691406 4.90625 -20.421875 C 4.332031 -18.160156 3.785156 -15.90625 3.265625 -13.65625 C 3.210938 -13.4375 3.070312 -13.265625 2.84375 -13.140625 C 2.625 -13.015625 2.367188 -12.941406 2.078125 -12.921875 C 1.796875 -12.898438 1.53125 -12.929688 1.28125 -13.015625 C 1.039062 -13.097656 0.867188 -13.234375 0.765625 -13.421875 C 0.253906 -14.347656 -0.113281 -15.335938 -0.34375 -16.390625 C -0.582031 -17.441406 -0.734375 -18.515625 -0.796875 -19.609375 C -0.867188 -20.703125 -0.910156 -21.757812 -0.921875 -22.78125 C -0.921875 -23.738281 -0.890625 -24.695312 -0.828125 -25.65625 C -0.773438 -26.625 -0.695312 -27.546875 -0.59375 -28.421875 C -0.488281 -29.304688 -0.367188 -30.09375 -0.234375 -30.78125 C -0.109375 -31.46875 0.0234375 -32.015625 0.171875 -32.421875 C 0.242188 -32.617188 0.425781 -32.785156 0.71875 -32.921875 C 1.007812 -33.066406 1.328125 -33.15625 1.671875 -33.1875 C 2.023438 -33.226562 2.328125 -33.1875 2.578125 -33.0625 C 2.835938 -32.945312 2.957031 -32.722656 2.9375 -32.390625 C 2.832031 -30.640625 2.773438 -28.984375 2.765625 -27.421875 C 2.753906 -25.859375 2.796875 -24.269531 2.890625 -22.65625 C 2.898438 -22.425781 2.910156 -22.191406 2.921875 -21.953125 C 2.941406 -21.722656 2.957031 -21.488281 2.96875 -21.25 C 3.3125 -22.71875 3.648438 -24.179688 3.984375 -25.640625 C 4.328125 -27.097656 4.71875 -28.539062 5.15625 -29.96875 C 5.570312 -31.269531 6.035156 -32.550781 6.546875 -33.8125 C 7.054688 -35.070312 7.582031 -36.328125 8.125 -37.578125 C 8.332031 -38.046875 8.578125 -38.507812 8.859375 -38.96875 C 9.140625 -39.4375 9.460938 -39.835938 9.828125 -40.171875 C 10.203125 -40.503906 10.625 -40.710938 11.09375 -40.796875 C 11.3125 -40.835938 11.578125 -40.800781 11.890625 -40.6875 C 12.203125 -40.582031 12.519531 -40.429688 12.84375 -40.234375 C 13.164062 -40.035156 13.445312 -39.832031 13.6875 -39.625 C 13.925781 -39.414062 14.078125 -39.234375 14.140625 -39.078125 C 14.359375 -38.523438 14.5 -37.898438 14.5625 -37.203125 C 14.632812 -36.515625 14.65625 -35.84375 14.625 -35.1875 C 14.601562 -34.539062 14.566406 -34 14.515625 -33.5625 C 14.410156 -32.644531 14.265625 -31.609375 14.078125 -30.453125 C 13.898438 -29.304688 13.707031 -28.082031 13.5 -26.78125 C 13.289062 -25.476562 13.09375 -24.148438 12.90625 -22.796875 C 12.726562 -21.441406 12.582031 -20.101562 12.46875 -18.78125 C 12.363281 -17.457031 12.3125 -16.195312 12.3125 -15 C 12.3125 -13.8125 12.390625 -12.726562 12.546875 -11.75 C 12.710938 -10.78125 12.976562 -9.957031 13.34375 -9.28125 C 13.707031 -8.613281 14.195312 -8.148438 14.8125 -7.890625 Z M 10.234375 -41.65625 C 9.847656 -41.445312 9.421875 -41.320312 8.953125 -41.28125 C 8.484375 -41.25 8.039062 -41.285156 7.625 -41.390625 C 7.132812 -41.503906 6.71875 -41.703125 6.375 -41.984375 C 6.039062 -42.273438 5.703125 -42.570312 5.359375 -42.875 C 5.179688 -43.019531 4.976562 -43.15625 4.75 -43.28125 C 4.53125 -43.414062 4.304688 -43.445312 4.078125 -43.375 C 3.898438 -43.320312 3.703125 -43.203125 3.484375 -43.015625 C 3.273438 -42.828125 3.078125 -42.679688 2.890625 -42.578125 C 2.878906 -42.566406 2.84375 -42.5625 2.78125 -42.5625 C 2.726562 -42.5625 2.707031 -42.582031 2.71875 -42.625 C 2.8125 -43.113281 3.046875 -43.476562 3.421875 -43.71875 C 3.804688 -43.957031 4.238281 -44.085938 4.71875 -44.109375 C 5.195312 -44.128906 5.625 -44.035156 6 -43.828125 C 6.269531 -43.679688 6.519531 -43.488281 6.75 -43.25 C 6.988281 -43.019531 7.234375 -42.800781 7.484375 -42.59375 C 7.734375 -42.382812 8.003906 -42.242188 8.296875 -42.171875 C 8.578125 -42.085938 8.8125 -42.09375 9 -42.1875 C 9.1875 -42.28125 9.347656 -42.410156 9.484375 -42.578125 C 9.617188 -42.742188 9.757812 -42.914062 9.90625 -43.09375 C 10.050781 -43.269531 10.207031 -43.414062 10.375 -43.53125 C 10.519531 -43.613281 10.710938 -43.648438 10.953125 -43.640625 C 11.191406 -43.640625 11.359375 -43.5625 11.453125 -43.40625 C 11.578125 -43.195312 11.566406 -42.972656 11.421875 -42.734375 C 11.285156 -42.503906 11.09375 -42.289062 10.84375 -42.09375 C 10.601562 -41.894531 10.398438 -41.75 10.234375 -41.65625 Z M 10.234375 -41.65625 "/></g></g></g><g fill="#ffffff" fill-opacity="1"><g transform="translate(95.569709, 69.749993)"><g><path d="M 15.640625 -27.5 C 15.660156 -27.5625 15.738281 -27.597656 15.875 -27.609375 C 16.019531 -27.628906 16.164062 -27.625 16.3125 -27.59375 C 16.457031 -27.570312 16.519531 -27.53125 16.5 -27.46875 C 16.3125 -25.832031 16.050781 -24.195312 15.71875 -22.5625 C 15.382812 -20.9375 14.9375 -19.347656 14.375 -17.796875 C 14.164062 -17.210938 13.929688 -16.613281 13.671875 -16 C 13.410156 -15.394531 13.09375 -14.859375 12.71875 -14.390625 C 12.351562 -13.921875 11.894531 -13.585938 11.34375 -13.390625 C 10.800781 -13.191406 10.140625 -13.195312 9.359375 -13.40625 C 8.722656 -13.582031 8.222656 -13.914062 7.859375 -14.40625 C 7.492188 -14.90625 7.222656 -15.492188 7.046875 -16.171875 C 6.867188 -16.847656 6.75 -17.539062 6.6875 -18.25 C 6.550781 -17.832031 6.40625 -17.414062 6.25 -17 C 6.101562 -16.59375 5.941406 -16.191406 5.765625 -15.796875 C 5.523438 -15.265625 5.238281 -14.757812 4.90625 -14.28125 C 4.582031 -13.8125 4.207031 -13.414062 3.78125 -13.09375 C 3.351562 -12.78125 2.875 -12.578125 2.34375 -12.484375 C 1.820312 -12.398438 1.238281 -12.484375 0.59375 -12.734375 C 0.03125 -12.953125 -0.414062 -13.28125 -0.75 -13.71875 C -1.09375 -14.15625 -1.351562 -14.644531 -1.53125 -15.1875 C -1.707031 -15.738281 -1.832031 -16.304688 -1.90625 -16.890625 C -1.976562 -17.484375 -2.023438 -18.039062 -2.046875 -18.5625 C -2.128906 -19.945312 -2.09375 -21.328125 -1.9375 -22.703125 C -1.78125 -24.078125 -1.519531 -25.4375 -1.15625 -26.78125 C -1 -27.351562 -0.816406 -27.96875 -0.609375 -28.625 C -0.410156 -29.28125 -0.175781 -29.929688 0.09375 -30.578125 C 0.375 -31.222656 0.695312 -31.820312 1.0625 -32.375 C 1.425781 -32.9375 1.851562 -33.414062 2.34375 -33.8125 C 2.71875 -34.113281 3.148438 -34.34375 3.640625 -34.5 C 4.140625 -34.664062 4.648438 -34.75 5.171875 -34.75 C 5.691406 -34.75 6.191406 -34.660156 6.671875 -34.484375 C 7.160156 -34.304688 7.570312 -34.03125 7.90625 -33.65625 C 7.9375 -33.625 7.960938 -33.59375 7.984375 -33.5625 C 8.015625 -33.53125 8.039062 -33.492188 8.0625 -33.453125 C 8.445312 -33.554688 8.835938 -33.59375 9.234375 -33.5625 C 9.640625 -33.539062 9.984375 -33.453125 10.265625 -33.296875 C 10.546875 -33.140625 10.671875 -32.921875 10.640625 -32.640625 C 10.515625 -30.828125 10.394531 -29 10.28125 -27.15625 C 10.175781 -25.3125 10.148438 -23.472656 10.203125 -21.640625 C 10.253906 -19.816406 10.453125 -18.007812 10.796875 -16.21875 C 10.816406 -16.082031 10.84375 -15.945312 10.875 -15.8125 C 10.90625 -15.675781 10.941406 -15.539062 10.984375 -15.40625 C 11.117188 -15.582031 11.25 -15.753906 11.375 -15.921875 C 11.5 -16.085938 11.613281 -16.253906 11.71875 -16.421875 C 12.082031 -16.960938 12.410156 -17.507812 12.703125 -18.0625 C 12.992188 -18.625 13.265625 -19.195312 13.515625 -19.78125 C 14.046875 -21.019531 14.484375 -22.28125 14.828125 -23.5625 C 15.179688 -24.84375 15.453125 -26.15625 15.640625 -27.5 Z M 5 -22.46875 C 5.351562 -23.695312 5.640625 -24.941406 5.859375 -26.203125 C 6.078125 -27.460938 6.289062 -28.722656 6.5 -29.984375 C 6.414062 -30.242188 6.300781 -30.5 6.15625 -30.75 C 6.019531 -30.96875 5.894531 -31.1875 5.78125 -31.40625 C 5.664062 -31.625 5.535156 -31.835938 5.390625 -32.046875 C 5.335938 -32.128906 5.28125 -32.207031 5.21875 -32.28125 C 5.164062 -32.363281 5.109375 -32.441406 5.046875 -32.515625 C 4.953125 -32.378906 4.863281 -32.238281 4.78125 -32.09375 C 4.695312 -31.945312 4.613281 -31.800781 4.53125 -31.65625 C 4.40625 -31.4375 4.28125 -31.207031 4.15625 -30.96875 C 4.039062 -30.726562 3.929688 -30.484375 3.828125 -30.234375 C 3.359375 -29.222656 2.96875 -28.1875 2.65625 -27.125 C 2.300781 -25.976562 2.035156 -24.800781 1.859375 -23.59375 C 1.691406 -22.394531 1.609375 -21.195312 1.609375 -20 C 1.609375 -19.46875 1.617188 -18.929688 1.640625 -18.390625 C 1.671875 -17.847656 1.726562 -17.3125 1.8125 -16.78125 C 1.84375 -16.625 1.890625 -16.375 1.953125 -16.03125 C 2.015625 -15.6875 2.109375 -15.359375 2.234375 -15.046875 C 2.460938 -15.367188 2.671875 -15.738281 2.859375 -16.15625 C 3.046875 -16.582031 3.210938 -16.988281 3.359375 -17.375 C 3.515625 -17.757812 3.625 -18.039062 3.6875 -18.21875 C 3.945312 -18.914062 4.179688 -19.617188 4.390625 -20.328125 C 4.597656 -21.035156 4.800781 -21.75 5 -22.46875 Z M 5 -22.46875 "/></g></g></g></svg>