<svg xmlns="http://www.w3.org/2000/svg" xmlns:xlink="http://www.w3.org/1999/xlink" width="1000" zoomAndPan="magnify" viewBox="0 0 750 74.999997" height="100" preserveAspectRatio="xMidYMid meet" version="1.0"><defs><g/></defs><g fill="#ffffff" fill-opacity="1"><g transform="translate(8.589858, 63.499966)"><g><path d="M 45.6875 -5.90625 C 45.832031 -6.144531 46 -6.296875 46.1875 -6.359375 C 46.382812 -6.421875 46.570312 -6.40625 46.75 -6.3125 C 46.925781 -6.226562 47.054688 -6.09375 47.140625 -5.90625 C 47.234375 -5.726562 47.242188 -5.519531 47.171875 -5.28125 C 46.878906 -4.25 46.394531 -3.398438 45.71875 -2.734375 C 45.039062 -2.066406 44.257812 -1.570312 43.375 -1.25 C 42.488281 -0.9375 41.578125 -0.796875 40.640625 -0.828125 C 39.703125 -0.859375 38.828125 -1.066406 38.015625 -1.453125 C 37.003906 -1.898438 36.144531 -2.5 35.4375 -3.25 C 34.726562 -4 34.132812 -4.835938 33.65625 -5.765625 C 33.175781 -6.703125 32.765625 -7.675781 32.421875 -8.6875 C 32.085938 -9.695312 31.78125 -10.695312 31.5 -11.6875 C 30.84375 -14.132812 30.320312 -16.613281 29.9375 -19.125 C 29.550781 -21.632812 29.273438 -24.15625 29.109375 -26.6875 C 29.109375 -26.707031 29.109375 -26.726562 29.109375 -26.75 C 29.109375 -26.769531 29.109375 -26.785156 29.109375 -26.796875 C 28.484375 -26.679688 27.875 -26.582031 27.28125 -26.5 C 26.445312 -26.382812 25.609375 -26.273438 24.765625 -26.171875 C 23.929688 -26.066406 23.097656 -25.929688 22.265625 -25.765625 C 21.265625 -23.210938 20.140625 -20.710938 18.890625 -18.265625 C 17.640625 -15.828125 16.207031 -13.507812 14.59375 -11.3125 C 14.132812 -10.6875 13.644531 -10.050781 13.125 -9.40625 C 12.601562 -8.757812 12.046875 -8.15625 11.453125 -7.59375 C 10.859375 -7.039062 10.207031 -6.570312 9.5 -6.1875 C 8.800781 -5.8125 8.046875 -5.570312 7.234375 -5.46875 C 6.117188 -5.34375 5.128906 -5.457031 4.265625 -5.8125 C 3.410156 -6.164062 2.707031 -6.722656 2.15625 -7.484375 C 1.601562 -8.253906 1.222656 -9.164062 1.015625 -10.21875 C 0.691406 -11.925781 0.625 -13.671875 0.8125 -15.453125 C 1 -17.242188 1.328125 -18.960938 1.796875 -20.609375 C 2.015625 -21.390625 2.28125 -22.195312 2.59375 -23.03125 C 2.90625 -23.875 3.269531 -24.707031 3.6875 -25.53125 C 4.101562 -26.351562 4.578125 -27.117188 5.109375 -27.828125 C 5.640625 -28.535156 6.226562 -29.148438 6.875 -29.671875 C 7.40625 -30.085938 8.015625 -30.398438 8.703125 -30.609375 C 9.398438 -30.816406 10.101562 -30.894531 10.8125 -30.84375 C 11.519531 -30.789062 12.171875 -30.585938 12.765625 -30.234375 C 13.359375 -29.878906 13.816406 -29.359375 14.140625 -28.671875 C 14.398438 -28.109375 14.554688 -27.515625 14.609375 -26.890625 C 14.671875 -26.265625 14.660156 -25.640625 14.578125 -25.015625 C 14.628906 -25.046875 14.675781 -25.078125 14.71875 -25.109375 C 14.757812 -25.148438 14.804688 -25.191406 14.859375 -25.234375 C 15.742188 -25.847656 16.691406 -26.328125 17.703125 -26.671875 C 18.722656 -27.023438 19.765625 -27.304688 20.828125 -27.515625 C 21.679688 -29.742188 22.5 -31.992188 23.28125 -34.265625 C 24.0625 -36.535156 24.789062 -38.753906 25.46875 -40.921875 C 26.144531 -43.097656 26.765625 -45.140625 27.328125 -47.046875 C 27.890625 -48.960938 28.378906 -50.679688 28.796875 -52.203125 C 29.210938 -53.734375 29.550781 -54.984375 29.8125 -55.953125 C 30.082031 -56.929688 30.253906 -57.554688 30.328125 -57.828125 C 30.398438 -58.035156 30.566406 -58.203125 30.828125 -58.328125 C 31.085938 -58.453125 31.390625 -58.53125 31.734375 -58.5625 C 32.078125 -58.59375 32.414062 -58.582031 32.75 -58.53125 C 33.09375 -58.476562 33.367188 -58.378906 33.578125 -58.234375 C 33.796875 -58.097656 33.898438 -57.90625 33.890625 -57.65625 C 33.753906 -54.882812 33.550781 -52.109375 33.28125 -49.328125 C 33.007812 -46.554688 32.816406 -43.785156 32.703125 -41.015625 C 32.617188 -39.191406 32.566406 -37.367188 32.546875 -35.546875 C 32.523438 -33.722656 32.550781 -31.898438 32.625 -30.078125 C 33.726562 -30.628906 34.664062 -31.363281 35.4375 -32.28125 C 36.21875 -33.207031 36.710938 -34.421875 36.921875 -35.921875 C 36.953125 -36.191406 36.972656 -36.503906 36.984375 -36.859375 C 36.992188 -37.210938 37.019531 -37.554688 37.0625 -37.890625 C 37.101562 -38.234375 37.1875 -38.535156 37.3125 -38.796875 C 37.4375 -39.066406 37.628906 -39.253906 37.890625 -39.359375 C 38.160156 -39.472656 38.523438 -39.472656 38.984375 -39.359375 C 39.597656 -39.203125 40.03125 -38.898438 40.28125 -38.453125 C 40.539062 -38.015625 40.671875 -37.507812 40.671875 -36.9375 C 40.679688 -36.375 40.613281 -35.800781 40.46875 -35.21875 C 40.320312 -34.644531 40.164062 -34.144531 40 -33.71875 C 39.570312 -32.632812 38.984375 -31.703125 38.234375 -30.921875 C 37.492188 -30.148438 36.648438 -29.5 35.703125 -28.96875 C 34.765625 -28.445312 33.769531 -28.015625 32.71875 -27.671875 C 32.738281 -27.191406 32.769531 -26.707031 32.8125 -26.21875 C 32.851562 -25.726562 32.894531 -25.238281 32.9375 -24.75 C 33.175781 -22.050781 33.535156 -19.335938 34.015625 -16.609375 C 34.503906 -13.878906 35.210938 -11.238281 36.140625 -8.6875 C 36.398438 -7.976562 36.707031 -7.257812 37.0625 -6.53125 C 37.414062 -5.8125 37.847656 -5.144531 38.359375 -4.53125 C 38.878906 -3.914062 39.492188 -3.421875 40.203125 -3.046875 C 40.773438 -2.742188 41.328125 -2.628906 41.859375 -2.703125 C 42.398438 -2.773438 42.910156 -2.96875 43.390625 -3.28125 C 43.878906 -3.601562 44.316406 -4 44.703125 -4.46875 C 45.097656 -4.9375 45.425781 -5.414062 45.6875 -5.90625 Z M 7.046875 -7.484375 C 7.929688 -7.546875 8.820312 -7.890625 9.71875 -8.515625 C 10.613281 -9.148438 11.5 -10.015625 12.375 -11.109375 C 13.25 -12.203125 14.113281 -13.476562 14.96875 -14.9375 C 15.820312 -16.394531 16.660156 -17.988281 17.484375 -19.71875 C 18.316406 -21.445312 19.117188 -23.253906 19.890625 -25.140625 C 19.640625 -25.054688 19.394531 -24.96875 19.15625 -24.875 C 18.925781 -24.789062 18.691406 -24.695312 18.453125 -24.59375 C 17.203125 -24.03125 16.128906 -23.363281 15.234375 -22.59375 C 14.347656 -21.832031 13.488281 -20.941406 12.65625 -19.921875 C 12.382812 -19.484375 12.171875 -19.210938 12.015625 -19.109375 C 11.953125 -18.984375 11.816406 -18.894531 11.609375 -18.84375 C 11.410156 -18.789062 11.195312 -18.769531 10.96875 -18.78125 C 10.738281 -18.800781 10.554688 -18.851562 10.421875 -18.9375 C 10.296875 -19.019531 10.265625 -19.144531 10.328125 -19.3125 C 10.378906 -19.445312 10.484375 -19.722656 10.640625 -20.140625 C 10.796875 -20.566406 10.972656 -21.082031 11.171875 -21.6875 C 11.378906 -22.289062 11.570312 -22.929688 11.75 -23.609375 C 11.925781 -24.285156 12.054688 -24.945312 12.140625 -25.59375 C 12.234375 -26.238281 12.253906 -26.8125 12.203125 -27.3125 C 12.148438 -27.8125 11.988281 -28.1875 11.71875 -28.4375 C 11.445312 -28.695312 11.035156 -28.769531 10.484375 -28.65625 C 10.148438 -28.59375 9.828125 -28.421875 9.515625 -28.140625 C 9.203125 -27.867188 8.910156 -27.550781 8.640625 -27.1875 C 8.378906 -26.832031 8.148438 -26.5 7.953125 -26.1875 C 7.765625 -25.875 7.628906 -25.640625 7.546875 -25.484375 C 7.160156 -24.804688 6.8125 -24.109375 6.5 -23.390625 C 6.1875 -22.671875 5.898438 -21.929688 5.640625 -21.171875 C 4.734375 -18.398438 4.335938 -15.5625 4.453125 -12.65625 C 4.484375 -11.976562 4.539062 -11.296875 4.625 -10.609375 C 4.71875 -9.929688 4.921875 -9.285156 5.234375 -8.671875 C 5.472656 -8.203125 5.753906 -7.882812 6.078125 -7.71875 C 6.398438 -7.550781 6.722656 -7.472656 7.046875 -7.484375 Z M 29.078125 -42.109375 C 29.160156 -44.015625 29.257812 -45.90625 29.375 -47.78125 C 29.164062 -47.15625 28.960938 -46.53125 28.765625 -45.90625 C 28.578125 -45.28125 28.390625 -44.644531 28.203125 -44 C 27.566406 -41.84375 26.925781 -39.679688 26.28125 -37.515625 C 25.644531 -35.359375 24.957031 -33.210938 24.21875 -31.078125 C 24.050781 -30.554688 23.867188 -30.03125 23.671875 -29.5 C 23.472656 -28.976562 23.28125 -28.445312 23.09375 -27.90625 C 23.144531 -27.925781 23.1875 -27.9375 23.21875 -27.9375 C 23.257812 -27.945312 23.300781 -27.953125 23.34375 -27.953125 C 24.226562 -28.078125 25.148438 -28.207031 26.109375 -28.34375 C 27.078125 -28.488281 28.035156 -28.664062 28.984375 -28.875 C 28.890625 -31.082031 28.851562 -33.289062 28.875 -35.5 C 28.894531 -37.707031 28.960938 -39.910156 29.078125 -42.109375 Z M 29.078125 -42.109375 "/></g></g></g><g fill="#ffffff" fill-opacity="1"><g transform="translate(51.398174, 63.499966)"><g><path d="M 12.171875 -25.859375 C 11.867188 -24.515625 11.570312 -23.175781 11.28125 -21.84375 C 11 -20.519531 10.695312 -19.265625 10.375 -18.078125 C 10.0625 -16.890625 9.710938 -15.820312 9.328125 -14.875 C 8.941406 -13.925781 8.503906 -13.164062 8.015625 -12.59375 C 7.523438 -12.019531 6.96875 -11.691406 6.34375 -11.609375 C 5.351562 -11.460938 4.488281 -11.550781 3.75 -11.875 C 3.007812 -12.195312 2.375 -12.691406 1.84375 -13.359375 C 1.320312 -14.035156 0.878906 -14.820312 0.515625 -15.71875 C 0.160156 -16.625 -0.125 -17.578125 -0.34375 -18.578125 C -0.5625 -19.578125 -0.722656 -20.578125 -0.828125 -21.578125 C -0.941406 -22.585938 -1.019531 -23.53125 -1.0625 -24.40625 C -1.113281 -25.28125 -1.144531 -26.03125 -1.15625 -26.65625 C -1.195312 -28.976562 -1.125 -31.335938 -0.9375 -33.734375 C -0.757812 -36.140625 -0.441406 -38.523438 0.015625 -40.890625 C 0.472656 -43.265625 1.085938 -45.546875 1.859375 -47.734375 C 2.335938 -49.097656 2.796875 -50.234375 3.234375 -51.140625 C 3.671875 -52.046875 4.082031 -52.769531 4.46875 -53.3125 C 4.851562 -53.863281 5.210938 -54.273438 5.546875 -54.546875 C 5.890625 -54.828125 6.203125 -55.007812 6.484375 -55.09375 C 7.523438 -55.457031 8.4375 -55.210938 9.21875 -54.359375 C 9.632812 -53.898438 9.890625 -53.207031 9.984375 -52.28125 C 10.085938 -51.363281 10.050781 -50.273438 9.875 -49.015625 C 9.707031 -47.753906 9.421875 -46.398438 9.015625 -44.953125 C 8.609375 -43.503906 8.085938 -42.015625 7.453125 -40.484375 C 6.816406 -38.960938 6.09375 -37.46875 5.28125 -36 C 4.46875 -34.53125 3.582031 -33.160156 2.625 -31.890625 C 2.59375 -31.441406 2.570312 -30.898438 2.5625 -30.265625 C 2.550781 -29.628906 2.546875 -28.992188 2.546875 -28.359375 C 2.546875 -27.734375 2.546875 -27.191406 2.546875 -26.734375 C 2.566406 -25.347656 2.640625 -23.9375 2.765625 -22.5 C 2.890625 -21.070312 3.117188 -19.671875 3.453125 -18.296875 C 3.628906 -17.691406 3.828125 -17.082031 4.046875 -16.46875 C 4.273438 -15.851562 4.554688 -15.273438 4.890625 -14.734375 C 5.097656 -14.398438 5.300781 -14.140625 5.5 -13.953125 C 5.695312 -13.773438 6 -13.695312 6.40625 -13.71875 C 6.75 -13.726562 7.082031 -13.941406 7.40625 -14.359375 C 7.726562 -14.773438 8.035156 -15.320312 8.328125 -16 C 8.617188 -16.675781 8.894531 -17.421875 9.15625 -18.234375 C 9.414062 -19.054688 9.65625 -19.890625 9.875 -20.734375 C 10.101562 -21.585938 10.304688 -22.394531 10.484375 -23.15625 C 10.660156 -23.914062 10.8125 -24.566406 10.9375 -25.109375 C 11.070312 -25.648438 11.171875 -26.023438 11.234375 -26.234375 C 11.335938 -26.546875 11.476562 -26.710938 11.65625 -26.734375 C 11.832031 -26.765625 11.976562 -26.691406 12.09375 -26.515625 C 12.207031 -26.347656 12.234375 -26.128906 12.171875 -25.859375 Z M 4.34375 -43.640625 C 4.0625 -42.242188 3.804688 -40.84375 3.578125 -39.4375 C 3.359375 -38.03125 3.160156 -36.617188 2.984375 -35.203125 C 3.160156 -35.359375 3.394531 -35.6875 3.6875 -36.1875 C 3.988281 -36.695312 4.328125 -37.335938 4.703125 -38.109375 C 5.085938 -38.890625 5.476562 -39.75 5.875 -40.6875 C 6.269531 -41.625 6.648438 -42.601562 7.015625 -43.625 C 7.390625 -44.65625 7.71875 -45.675781 8 -46.6875 C 8.289062 -47.695312 8.507812 -48.660156 8.65625 -49.578125 C 8.800781 -50.492188 8.847656 -51.3125 8.796875 -52.03125 C 8.753906 -52.757812 8.582031 -53.335938 8.28125 -53.765625 C 8.019531 -53.691406 7.753906 -53.453125 7.484375 -53.046875 C 7.210938 -52.640625 6.941406 -52.128906 6.671875 -51.515625 C 6.398438 -50.898438 6.144531 -50.226562 5.90625 -49.5 C 5.664062 -48.78125 5.441406 -48.050781 5.234375 -47.3125 C 5.023438 -46.582031 4.84375 -45.894531 4.6875 -45.25 C 4.539062 -44.613281 4.425781 -44.078125 4.34375 -43.640625 Z M 4.34375 -43.640625 "/></g></g></g><g fill="#ffffff" fill-opacity="1"><g transform="translate(62.588492, 63.499966)"><g><path d="M 4.421875 -43.609375 C 4.140625 -42.234375 3.890625 -40.84375 3.671875 -39.4375 C 3.453125 -38.039062 3.257812 -36.640625 3.09375 -35.234375 C 2.988281 -34.640625 2.898438 -33.640625 2.828125 -32.234375 C 2.753906 -30.835938 2.691406 -29.03125 2.640625 -26.8125 C 2.609375 -25.394531 2.664062 -23.988281 2.8125 -22.59375 C 2.96875 -21.207031 3.207031 -19.816406 3.53125 -18.421875 C 3.6875 -17.796875 3.878906 -17.1875 4.109375 -16.59375 C 4.347656 -16 4.632812 -15.421875 4.96875 -14.859375 C 5.15625 -14.523438 5.351562 -14.273438 5.5625 -14.109375 C 5.800781 -13.921875 6.109375 -13.832031 6.484375 -13.84375 C 7.109375 -13.9375 7.707031 -14.601562 8.28125 -15.84375 C 8.832031 -17.082031 9.320312 -18.507812 9.75 -20.125 C 9.96875 -20.925781 10.164062 -21.6875 10.34375 -22.40625 C 10.519531 -23.125 10.671875 -23.796875 10.796875 -24.421875 C 10.898438 -24.890625 10.992188 -25.28125 11.078125 -25.59375 C 11.171875 -25.90625 11.242188 -26.144531 11.296875 -26.3125 C 11.398438 -26.625 11.535156 -26.785156 11.703125 -26.796875 C 11.867188 -26.804688 12.007812 -26.742188 12.125 -26.609375 C 12.25 -26.429688 12.273438 -26.207031 12.203125 -25.9375 C 12.128906 -25.570312 12.050781 -25.207031 11.96875 -24.84375 C 11.894531 -24.488281 11.816406 -24.128906 11.734375 -23.765625 C 11.523438 -22.765625 11.3125 -21.789062 11.09375 -20.84375 C 10.875 -19.90625 10.644531 -18.992188 10.40625 -18.109375 C 9.9375 -16.335938 9.382812 -14.878906 8.75 -13.734375 C 8.101562 -12.578125 7.328125 -11.921875 6.421875 -11.765625 C 4.703125 -11.566406 3.347656 -12 2.359375 -13.0625 C 1.359375 -14.144531 0.617188 -15.539062 0.140625 -17.25 C -0.347656 -18.9375 -0.660156 -20.660156 -0.796875 -22.421875 C -0.953125 -24.171875 -1.03125 -25.609375 -1.03125 -26.734375 C -1.113281 -30.210938 -0.921875 -33.753906 -0.453125 -37.359375 C -0.304688 -38.484375 -0.128906 -39.585938 0.078125 -40.671875 C 0.285156 -41.765625 0.523438 -42.84375 0.796875 -43.90625 C 0.765625 -43.914062 0.722656 -43.921875 0.671875 -43.921875 C 0.628906 -43.921875 0.585938 -43.921875 0.546875 -43.921875 C -0.867188 -43.972656 -1.929688 -43.859375 -2.640625 -43.578125 C -2.679688 -43.566406 -2.710938 -43.628906 -2.734375 -43.765625 C -2.742188 -43.890625 -2.734375 -44.0625 -2.703125 -44.28125 C -2.679688 -44.445312 -2.613281 -44.609375 -2.5 -44.765625 C -2.164062 -45.085938 -1.488281 -45.25 -0.46875 -45.25 C -0.21875 -45.238281 0.0390625 -45.226562 0.3125 -45.21875 C 0.582031 -45.21875 0.863281 -45.210938 1.15625 -45.203125 C 1.28125 -45.617188 1.40625 -46.035156 1.53125 -46.453125 C 1.664062 -46.878906 1.804688 -47.300781 1.953125 -47.71875 C 2.828125 -50.113281 3.597656 -51.789062 4.265625 -52.75 C 4.953125 -53.738281 5.566406 -54.347656 6.109375 -54.578125 C 6.296875 -54.640625 6.484375 -54.675781 6.671875 -54.6875 C 6.867188 -54.695312 7.0625 -54.691406 7.25 -54.671875 C 7.625 -54.585938 7.9375 -54.429688 8.1875 -54.203125 C 8.25 -54.109375 8.28125 -54.023438 8.28125 -53.953125 C 8.257812 -53.828125 8.210938 -53.738281 8.140625 -53.6875 C 7.617188 -53.25 7.109375 -52.390625 6.609375 -51.109375 C 6.097656 -49.847656 5.644531 -48.503906 5.25 -47.078125 C 5.144531 -46.671875 5.046875 -46.285156 4.953125 -45.921875 C 4.859375 -45.566406 4.769531 -45.234375 4.6875 -44.921875 C 5.1875 -44.898438 5.671875 -44.878906 6.140625 -44.859375 C 6.617188 -44.835938 7.09375 -44.832031 7.5625 -44.84375 C 9.039062 -44.84375 10.191406 -45.117188 11.015625 -45.671875 C 11.015625 -45.648438 11.019531 -45.640625 11.03125 -45.640625 C 11.03125 -45.640625 11.03125 -45.632812 11.03125 -45.625 C 11.03125 -45.625 11.039062 -45.625 11.0625 -45.625 C 11.0625 -45.601562 11.070312 -45.578125 11.09375 -45.546875 C 11.125 -45.492188 11.148438 -45.441406 11.171875 -45.390625 C 11.203125 -45.335938 11.226562 -45.28125 11.25 -45.21875 C 11.289062 -45.0625 11.304688 -44.898438 11.296875 -44.734375 C 11.273438 -44.535156 11.210938 -44.335938 11.109375 -44.140625 C 11.023438 -43.941406 10.84375 -43.726562 10.5625 -43.5 C 10.21875 -43.28125 9.539062 -43.195312 8.53125 -43.25 C 8.007812 -43.269531 7.457031 -43.304688 6.875 -43.359375 C 6.289062 -43.410156 5.660156 -43.476562 4.984375 -43.5625 C 4.890625 -43.570312 4.796875 -43.578125 4.703125 -43.578125 C 4.617188 -43.585938 4.523438 -43.597656 4.421875 -43.609375 Z M 4.421875 -43.609375 "/></g></g></g><g fill="#ffffff" fill-opacity="1"><g transform="translate(73.77881, 63.499966)"><g><path d="M 15.640625 -27.5 C 15.660156 -27.5625 15.738281 -27.597656 15.875 -27.609375 C 16.019531 -27.628906 16.164062 -27.625 16.3125 -27.59375 C 16.457031 -27.570312 16.519531 -27.53125 16.5 -27.46875 C 16.3125 -25.832031 16.050781 -24.195312 15.71875 -22.5625 C 15.382812 -20.9375 14.9375 -19.347656 14.375 -17.796875 C 14.164062 -17.210938 13.929688 -16.613281 13.671875 -16 C 13.410156 -15.394531 13.09375 -14.859375 12.71875 -14.390625 C 12.351562 -13.921875 11.894531 -13.585938 11.34375 -13.390625 C 10.800781 -13.191406 10.140625 -13.195312 9.359375 -13.40625 C 8.722656 -13.582031 8.222656 -13.914062 7.859375 -14.40625 C 7.492188 -14.90625 7.222656 -15.492188 7.046875 -16.171875 C 6.867188 -16.847656 6.75 -17.539062 6.6875 -18.25 C 6.550781 -17.832031 6.40625 -17.414062 6.25 -17 C 6.101562 -16.59375 5.941406 -16.191406 5.765625 -15.796875 C 5.523438 -15.265625 5.238281 -14.757812 4.90625 -14.28125 C 4.582031 -13.8125 4.207031 -13.414062 3.78125 -13.09375 C 3.351562 -12.78125 2.875 -12.578125 2.34375 -12.484375 C 1.820312 -12.398438 1.238281 -12.484375 0.59375 -12.734375 C 0.03125 -12.953125 -0.414062 -13.28125 -0.75 -13.71875 C -1.09375 -14.15625 -1.351562 -14.644531 -1.53125 -15.1875 C -1.707031 -15.738281 -1.832031 -16.304688 -1.90625 -16.890625 C -1.976562 -17.484375 -2.023438 -18.039062 -2.046875 -18.5625 C -2.128906 -19.945312 -2.09375 -21.328125 -1.9375 -22.703125 C -1.78125 -24.078125 -1.519531 -25.4375 -1.15625 -26.78125 C -1 -27.351562 -0.816406 -27.96875 -0.609375 -28.625 C -0.410156 -29.28125 -0.175781 -29.929688 0.09375 -30.578125 C 0.375 -31.222656 0.695312 -31.820312 1.0625 -32.375 C 1.425781 -32.9375 1.851562 -33.414062 2.34375 -33.8125 C 2.71875 -34.113281 3.148438 -34.34375 3.640625 -34.5 C 4.140625 -34.664062 4.648438 -34.75 5.171875 -34.75 C 5.691406 -34.75 6.191406 -34.660156 6.671875 -34.484375 C 7.160156 -34.304688 7.570312 -34.03125 7.90625 -33.65625 C 7.9375 -33.625 7.960938 -33.59375 7.984375 -33.5625 C 8.015625 -33.53125 8.039062 -33.492188 8.0625 -33.453125 C 8.445312 -33.554688 8.835938 -33.59375 9.234375 -33.5625 C 9.640625 -33.539062 9.984375 -33.453125 10.265625 -33.296875 C 10.546875 -33.140625 10.671875 -32.921875 10.640625 -32.640625 C 10.515625 -30.828125 10.394531 -29 10.28125 -27.15625 C 10.175781 -25.3125 10.148438 -23.472656 10.203125 -21.640625 C 10.253906 -19.816406 10.453125 -18.007812 10.796875 -16.21875 C 10.816406 -16.082031 10.84375 -15.945312 10.875 -15.8125 C 10.90625 -15.675781 10.941406 -15.539062 10.984375 -15.40625 C 11.117188 -15.582031 11.25 -15.753906 11.375 -15.921875 C 11.5 -16.085938 11.613281 -16.253906 11.71875 -16.421875 C 12.082031 -16.960938 12.410156 -17.507812 12.703125 -18.0625 C 12.992188 -18.625 13.265625 -19.195312 13.515625 -19.78125 C 14.046875 -21.019531 14.484375 -22.28125 14.828125 -23.5625 C 15.179688 -24.84375 15.453125 -26.15625 15.640625 -27.5 Z M 5 -22.46875 C 5.351562 -23.695312 5.640625 -24.941406 5.859375 -26.203125 C 6.078125 -27.460938 6.289062 -28.722656 6.5 -29.984375 C 6.414062 -30.242188 6.300781 -30.5 6.15625 -30.75 C 6.019531 -30.96875 5.894531 -31.1875 5.78125 -31.40625 C 5.664062 -31.625 5.535156 -31.835938 5.390625 -32.046875 C 5.335938 -32.128906 5.28125 -32.207031 5.21875 -32.28125 C 5.164062 -32.363281 5.109375 -32.441406 5.046875 -32.515625 C 4.953125 -32.378906 4.863281 -32.238281 4.78125 -32.09375 C 4.695312 -31.945312 4.613281 -31.800781 4.53125 -31.65625 C 4.40625 -31.4375 4.28125 -31.207031 4.15625 -30.96875 C 4.039062 -30.726562 3.929688 -30.484375 3.828125 -30.234375 C 3.359375 -29.222656 2.96875 -28.1875 2.65625 -27.125 C 2.300781 -25.976562 2.035156 -24.800781 1.859375 -23.59375 C 1.691406 -22.394531 1.609375 -21.195312 1.609375 -20 C 1.609375 -19.46875 1.617188 -18.929688 1.640625 -18.390625 C 1.671875 -17.847656 1.726562 -17.3125 1.8125 -16.78125 C 1.84375 -16.625 1.890625 -16.375 1.953125 -16.03125 C 2.015625 -15.6875 2.109375 -15.359375 2.234375 -15.046875 C 2.460938 -15.367188 2.671875 -15.738281 2.859375 -16.15625 C 3.046875 -16.582031 3.210938 -16.988281 3.359375 -17.375 C 3.515625 -17.757812 3.625 -18.039062 3.6875 -18.21875 C 3.945312 -18.914062 4.179688 -19.617188 4.390625 -20.328125 C 4.597656 -21.035156 4.800781 -21.75 5 -22.46875 Z M 5 -22.46875 "/></g></g></g><g fill="#ffffff" fill-opacity="1"><g transform="translate(89.538994, 63.499966)"><g><path d="M 14.8125 -7.890625 C 14.914062 -7.921875 15.070312 -7.9375 15.28125 -7.9375 C 15.5 -7.9375 15.617188 -7.84375 15.640625 -7.65625 C 15.691406 -7.332031 15.625 -7.078125 15.4375 -6.890625 C 15.257812 -6.703125 15.023438 -6.5625 14.734375 -6.46875 C 14.453125 -6.382812 14.175781 -6.328125 13.90625 -6.296875 C 13.21875 -6.203125 12.539062 -6.265625 11.875 -6.484375 C 11.207031 -6.703125 10.648438 -7.082031 10.203125 -7.625 C 9.804688 -8.207031 9.488281 -8.960938 9.25 -9.890625 C 9.007812 -10.828125 8.851562 -11.988281 8.78125 -13.375 C 8.707031 -14.769531 8.726562 -16.4375 8.84375 -18.375 C 8.96875 -20.320312 9.1875 -22.585938 9.5 -25.171875 C 9.820312 -27.765625 10.25 -30.726562 10.78125 -34.0625 C 10.78125 -34.5625 10.773438 -35.0625 10.765625 -35.5625 C 10.765625 -36.0625 10.75 -36.550781 10.71875 -37.03125 C 10.707031 -37.070312 10.703125 -37.109375 10.703125 -37.140625 C 10.703125 -37.179688 10.703125 -37.222656 10.703125 -37.265625 C 10.492188 -36.898438 10.316406 -36.601562 10.171875 -36.375 C 9.890625 -35.925781 9.640625 -35.46875 9.421875 -35 C 9.210938 -34.53125 9.003906 -34.054688 8.796875 -33.578125 C 8.347656 -32.546875 7.953125 -31.488281 7.609375 -30.40625 C 7.273438 -29.332031 6.957031 -28.253906 6.65625 -27.171875 C 6.0625 -24.941406 5.476562 -22.691406 4.90625 -20.421875 C 4.332031 -18.160156 3.785156 -15.90625 3.265625 -13.65625 C 3.210938 -13.4375 3.070312 -13.265625 2.84375 -13.140625 C 2.625 -13.015625 2.367188 -12.941406 2.078125 -12.921875 C 1.796875 -12.898438 1.53125 -12.929688 1.28125 -13.015625 C 1.039062 -13.097656 0.867188 -13.234375 0.765625 -13.421875 C 0.253906 -14.347656 -0.113281 -15.335938 -0.34375 -16.390625 C -0.582031 -17.441406 -0.734375 -18.515625 -0.796875 -19.609375 C -0.867188 -20.703125 -0.910156 -21.757812 -0.921875 -22.78125 C -0.921875 -23.738281 -0.890625 -24.695312 -0.828125 -25.65625 C -0.773438 -26.625 -0.695312 -27.546875 -0.59375 -28.421875 C -0.488281 -29.304688 -0.367188 -30.09375 -0.234375 -30.78125 C -0.109375 -31.46875 0.0234375 -32.015625 0.171875 -32.421875 C 0.242188 -32.617188 0.425781 -32.785156 0.71875 -32.921875 C 1.007812 -33.066406 1.328125 -33.15625 1.671875 -33.1875 C 2.023438 -33.226562 2.328125 -33.1875 2.578125 -33.0625 C 2.835938 -32.945312 2.957031 -32.722656 2.9375 -32.390625 C 2.832031 -30.640625 2.773438 -28.984375 2.765625 -27.421875 C 2.753906 -25.859375 2.796875 -24.269531 2.890625 -22.65625 C 2.898438 -22.425781 2.910156 -22.191406 2.921875 -21.953125 C 2.941406 -21.722656 2.957031 -21.488281 2.96875 -21.25 C 3.3125 -22.71875 3.648438 -24.179688 3.984375 -25.640625 C 4.328125 -27.097656 4.71875 -28.539062 5.15625 -29.96875 C 5.570312 -31.269531 6.035156 -32.550781 6.546875 -33.8125 C 7.054688 -35.070312 7.582031 -36.328125 8.125 -37.578125 C 8.332031 -38.046875 8.578125 -38.507812 8.859375 -38.96875 C 9.140625 -39.4375 9.460938 -39.835938 9.828125 -40.171875 C 10.203125 -40.503906 10.625 -40.710938 11.09375 -40.796875 C 11.3125 -40.835938 11.578125 -40.800781 11.890625 -40.6875 C 12.203125 -40.582031 12.519531 -40.429688 12.84375 -40.234375 C 13.164062 -40.035156 13.445312 -39.832031 13.6875 -39.625 C 13.925781 -39.414062 14.078125 -39.234375 14.140625 -39.078125 C 14.359375 -38.523438 14.5 -37.898438 14.5625 -37.203125 C 14.632812 -36.515625 14.65625 -35.84375 14.625 -35.1875 C 14.601562 -34.539062 14.566406 -34 14.515625 -33.5625 C 14.410156 -32.644531 14.265625 -31.609375 14.078125 -30.453125 C 13.898438 -29.304688 13.707031 -28.082031 13.5 -26.78125 C 13.289062 -25.476562 13.09375 -24.148438 12.90625 -22.796875 C 12.726562 -21.441406 12.582031 -20.101562 12.46875 -18.78125 C 12.363281 -17.457031 12.3125 -16.195312 12.3125 -15 C 12.3125 -13.8125 12.390625 -12.726562 12.546875 -11.75 C 12.710938 -10.78125 12.976562 -9.957031 13.34375 -9.28125 C 13.707031 -8.613281 14.195312 -8.148438 14.8125 -7.890625 Z M 14.8125 -7.890625 "/></g></g></g><g fill="#ffffff" fill-opacity="1"><g transform="translate(106.334227, 63.499966)"><g><path d="M 7.9375 -24.203125 C 7.570312 -23.585938 7.140625 -23.019531 6.640625 -22.5 C 6.148438 -21.988281 5.59375 -21.585938 4.96875 -21.296875 C 4.351562 -21.015625 3.660156 -20.910156 2.890625 -20.984375 C 2.816406 -20.984375 2.738281 -20.988281 2.65625 -21 C 2.582031 -21.007812 2.503906 -21.019531 2.421875 -21.03125 C 2.472656 -20.320312 2.570312 -19.628906 2.71875 -18.953125 C 2.875 -18.273438 3.097656 -17.664062 3.390625 -17.125 C 3.691406 -16.582031 4.085938 -16.140625 4.578125 -15.796875 C 5.078125 -15.460938 5.6875 -15.28125 6.40625 -15.25 C 7.03125 -15.226562 7.617188 -15.375 8.171875 -15.6875 C 8.722656 -16 9.234375 -16.410156 9.703125 -16.921875 C 10.171875 -17.441406 10.597656 -17.988281 10.984375 -18.5625 C 11.378906 -19.132812 11.734375 -19.671875 12.046875 -20.171875 C 12.148438 -20.347656 12.296875 -20.628906 12.484375 -21.015625 C 12.679688 -21.410156 12.890625 -21.863281 13.109375 -22.375 C 13.328125 -22.882812 13.539062 -23.414062 13.75 -23.96875 C 13.96875 -24.53125 14.160156 -25.078125 14.328125 -25.609375 C 14.492188 -26.140625 14.613281 -26.609375 14.6875 -27.015625 C 14.738281 -27.285156 14.851562 -27.457031 15.03125 -27.53125 C 15.207031 -27.613281 15.367188 -27.609375 15.515625 -27.515625 C 15.671875 -27.429688 15.710938 -27.257812 15.640625 -27 C 15.484375 -26.300781 15.257812 -25.507812 14.96875 -24.625 C 14.675781 -23.738281 14.34375 -22.832031 13.96875 -21.90625 C 13.59375 -20.976562 13.195312 -20.078125 12.78125 -19.203125 C 12.257812 -18.097656 11.648438 -17.09375 10.953125 -16.1875 C 10.253906 -15.28125 9.488281 -14.550781 8.65625 -14 C 7.832031 -13.457031 6.953125 -13.15625 6.015625 -13.09375 C 5.140625 -13.019531 4.296875 -13.097656 3.484375 -13.328125 C 2.671875 -13.566406 1.945312 -13.953125 1.3125 -14.484375 C 0.675781 -15.023438 0.160156 -15.707031 -0.234375 -16.53125 C -0.597656 -17.332031 -0.859375 -18.1875 -1.015625 -19.09375 C -1.171875 -20.007812 -1.25 -20.9375 -1.25 -21.875 C -1.257812 -22.820312 -1.238281 -23.726562 -1.1875 -24.59375 C -1.15625 -25.289062 -1.0625 -26.0625 -0.90625 -26.90625 C -0.757812 -27.75 -0.546875 -28.601562 -0.265625 -29.46875 C 0.00390625 -30.34375 0.34375 -31.179688 0.75 -31.984375 C 1.164062 -32.796875 1.648438 -33.519531 2.203125 -34.15625 C 2.765625 -34.800781 3.40625 -35.3125 4.125 -35.6875 C 4.84375 -36.0625 5.644531 -36.25 6.53125 -36.25 C 7.382812 -36.25 8.070312 -36.082031 8.59375 -35.75 C 9.113281 -35.414062 9.492188 -34.957031 9.734375 -34.375 C 9.972656 -33.800781 10.109375 -33.148438 10.140625 -32.421875 C 10.179688 -31.703125 10.132812 -30.945312 10 -30.15625 C 9.875 -29.375 9.691406 -28.601562 9.453125 -27.84375 C 9.222656 -27.09375 8.972656 -26.398438 8.703125 -25.765625 C 8.429688 -25.140625 8.175781 -24.617188 7.9375 -24.203125 Z M 2.390625 -22.5 C 2.421875 -22.476562 2.457031 -22.453125 2.5 -22.421875 C 2.539062 -22.398438 2.585938 -22.375 2.640625 -22.34375 C 3.023438 -22.144531 3.382812 -22.101562 3.71875 -22.21875 C 4.0625 -22.332031 4.375 -22.53125 4.65625 -22.8125 C 4.945312 -23.101562 5.203125 -23.421875 5.421875 -23.765625 C 5.648438 -24.109375 5.84375 -24.410156 6 -24.671875 C 6.570312 -25.703125 7.03125 -26.789062 7.375 -27.9375 C 7.71875 -29.082031 7.894531 -30.238281 7.90625 -31.40625 C 7.925781 -31.707031 7.914062 -32.078125 7.875 -32.515625 C 7.84375 -32.960938 7.757812 -33.390625 7.625 -33.796875 C 7.5 -34.210938 7.28125 -34.503906 6.96875 -34.671875 C 6.6875 -34.835938 6.328125 -34.757812 5.890625 -34.4375 C 5.453125 -34.125 5.007812 -33.597656 4.5625 -32.859375 C 4.113281 -32.128906 3.710938 -31.210938 3.359375 -30.109375 C 3.003906 -29.003906 2.757812 -27.757812 2.625 -26.375 C 2.582031 -25.957031 2.53125 -25.40625 2.46875 -24.71875 C 2.414062 -24.03125 2.390625 -23.289062 2.390625 -22.5 Z M 2.390625 -22.5 "/></g></g></g><g fill="#ffffff" fill-opacity="1"><g transform="translate(121.176526, 63.499966)"><g><path d="M 9.265625 -25.09375 C 8.660156 -24.5 8.054688 -24.109375 7.453125 -23.921875 C 6.847656 -23.742188 6.210938 -23.875 5.546875 -24.3125 C 5.265625 -24.507812 5.0625 -24.765625 4.9375 -25.078125 C 4.8125 -25.390625 4.757812 -25.703125 4.78125 -26.015625 C 4.8125 -26.328125 4.898438 -26.582031 5.046875 -26.78125 C 5.097656 -26.820312 5.210938 -26.847656 5.390625 -26.859375 C 5.578125 -26.867188 5.765625 -26.859375 5.953125 -26.828125 C 6.148438 -26.804688 6.300781 -26.765625 6.40625 -26.703125 C 6.519531 -26.640625 6.535156 -26.535156 6.453125 -26.390625 C 6.347656 -26.234375 6.296875 -26.054688 6.296875 -25.859375 C 6.304688 -25.660156 6.375 -25.492188 6.5 -25.359375 C 6.625 -25.222656 6.800781 -25.15625 7.03125 -25.15625 C 7.269531 -25.164062 7.484375 -25.320312 7.671875 -25.625 C 7.859375 -25.925781 8.019531 -26.316406 8.15625 -26.796875 C 8.300781 -27.273438 8.414062 -27.785156 8.5 -28.328125 C 8.59375 -28.878906 8.640625 -29.40625 8.640625 -29.90625 C 8.640625 -30.414062 8.59375 -30.84375 8.5 -31.1875 C 8.414062 -31.53125 8.285156 -31.734375 8.109375 -31.796875 C 7.691406 -31.953125 7.257812 -31.882812 6.8125 -31.59375 C 6.363281 -31.300781 5.925781 -30.828125 5.5 -30.171875 C 5.070312 -29.523438 4.671875 -28.726562 4.296875 -27.78125 C 3.929688 -26.84375 3.613281 -25.796875 3.34375 -24.640625 C 3.070312 -23.484375 2.867188 -22.269531 2.734375 -21 C 2.503906 -19.695312 2.390625 -18.320312 2.390625 -16.875 C 2.398438 -15.425781 2.398438 -14.023438 2.390625 -12.671875 C 2.390625 -12.617188 2.390625 -12.5625 2.390625 -12.5 C 2.398438 -12.4375 2.40625 -12.378906 2.40625 -12.328125 L 2.390625 -12.328125 C 2.390625 -12.234375 2.382812 -12.140625 2.375 -12.046875 C 2.363281 -11.960938 2.359375 -11.875 2.359375 -11.78125 C 2.347656 -11.519531 2.222656 -11.320312 1.984375 -11.1875 C 1.753906 -11.0625 1.460938 -10.992188 1.109375 -10.984375 C 0.765625 -10.984375 0.414062 -11.035156 0.0625 -11.140625 C -0.289062 -11.242188 -0.585938 -11.390625 -0.828125 -11.578125 C -1.066406 -11.765625 -1.195312 -11.988281 -1.21875 -12.25 C -1.300781 -14.1875 -1.378906 -16.117188 -1.453125 -18.046875 C -1.535156 -19.972656 -1.585938 -21.898438 -1.609375 -23.828125 C -1.609375 -24.796875 -1.59375 -25.765625 -1.5625 -26.734375 C -1.539062 -27.703125 -1.503906 -28.660156 -1.453125 -29.609375 C -1.410156 -30.191406 -1.351562 -30.804688 -1.28125 -31.453125 C -1.21875 -32.097656 -1.117188 -32.707031 -0.984375 -33.28125 C -0.859375 -33.851562 -0.691406 -34.316406 -0.484375 -34.671875 C -0.378906 -34.847656 -0.195312 -34.992188 0.0625 -35.109375 C 0.320312 -35.222656 0.601562 -35.296875 0.90625 -35.328125 C 1.21875 -35.359375 1.507812 -35.34375 1.78125 -35.28125 C 2.0625 -35.226562 2.285156 -35.125 2.453125 -34.96875 C 2.617188 -34.820312 2.675781 -34.625 2.625 -34.375 C 2.425781 -33.375 2.3125 -32.460938 2.28125 -31.640625 C 2.25 -30.816406 2.207031 -29.957031 2.15625 -29.0625 C 2.132812 -28.550781 2.113281 -28.035156 2.09375 -27.515625 C 2.082031 -26.992188 2.066406 -26.472656 2.046875 -25.953125 C 2.117188 -26.148438 2.1875 -26.34375 2.25 -26.53125 C 2.320312 -26.71875 2.398438 -26.910156 2.484375 -27.109375 C 2.816406 -27.972656 3.175781 -28.847656 3.5625 -29.734375 C 3.957031 -30.617188 4.398438 -31.429688 4.890625 -32.171875 C 5.390625 -32.910156 5.945312 -33.5 6.5625 -33.9375 C 7.1875 -34.375 7.894531 -34.570312 8.6875 -34.53125 C 9.226562 -34.507812 9.664062 -34.3125 10 -33.9375 C 10.34375 -33.5625 10.59375 -33.082031 10.75 -32.5 C 10.914062 -31.914062 11 -31.273438 11 -30.578125 C 11.007812 -29.878906 10.945312 -29.175781 10.8125 -28.46875 C 10.675781 -27.769531 10.476562 -27.125 10.21875 -26.53125 C 9.957031 -25.9375 9.640625 -25.457031 9.265625 -25.09375 Z M 9.265625 -25.09375 "/></g></g></g><g fill="#ffffff" fill-opacity="1"><g transform="translate(134.10495, 63.499966)"><g><path d="M 15.640625 -27.5 C 15.660156 -27.5625 15.738281 -27.597656 15.875 -27.609375 C 16.019531 -27.628906 16.164062 -27.625 16.3125 -27.59375 C 16.457031 -27.570312 16.519531 -27.53125 16.5 -27.46875 C 16.3125 -25.832031 16.050781 -24.195312 15.71875 -22.5625 C 15.382812 -20.9375 14.9375 -19.347656 14.375 -17.796875 C 14.164062 -17.210938 13.929688 -16.613281 13.671875 -16 C 13.410156 -15.394531 13.09375 -14.859375 12.71875 -14.390625 C 12.351562 -13.921875 11.894531 -13.585938 11.34375 -13.390625 C 10.800781 -13.191406 10.140625 -13.195312 9.359375 -13.40625 C 8.722656 -13.582031 8.222656 -13.914062 7.859375 -14.40625 C 7.492188 -14.90625 7.222656 -15.492188 7.046875 -16.171875 C 6.867188 -16.847656 6.75 -17.539062 6.6875 -18.25 C 6.550781 -17.832031 6.40625 -17.414062 6.25 -17 C 6.101562 -16.59375 5.941406 -16.191406 5.765625 -15.796875 C 5.523438 -15.265625 5.238281 -14.757812 4.90625 -14.28125 C 4.582031 -13.8125 4.207031 -13.414062 3.78125 -13.09375 C 3.351562 -12.78125 2.875 -12.578125 2.34375 -12.484375 C 1.820312 -12.398438 1.238281 -12.484375 0.59375 -12.734375 C 0.03125 -12.953125 -0.414062 -13.28125 -0.75 -13.71875 C -1.09375 -14.15625 -1.351562 -14.644531 -1.53125 -15.1875 C -1.707031 -15.738281 -1.832031 -16.304688 -1.90625 -16.890625 C -1.976562 -17.484375 -2.023438 -18.039062 -2.046875 -18.5625 C -2.128906 -19.945312 -2.09375 -21.328125 -1.9375 -22.703125 C -1.78125 -24.078125 -1.519531 -25.4375 -1.15625 -26.78125 C -1 -27.351562 -0.816406 -27.96875 -0.609375 -28.625 C -0.410156 -29.28125 -0.175781 -29.929688 0.09375 -30.578125 C 0.375 -31.222656 0.695312 -31.820312 1.0625 -32.375 C 1.425781 -32.9375 1.851562 -33.414062 2.34375 -33.8125 C 2.71875 -34.113281 3.148438 -34.34375 3.640625 -34.5 C 4.140625 -34.664062 4.648438 -34.75 5.171875 -34.75 C 5.691406 -34.75 6.191406 -34.660156 6.671875 -34.484375 C 7.160156 -34.304688 7.570312 -34.03125 7.90625 -33.65625 C 7.9375 -33.625 7.960938 -33.59375 7.984375 -33.5625 C 8.015625 -33.53125 8.039062 -33.492188 8.0625 -33.453125 C 8.445312 -33.554688 8.835938 -33.59375 9.234375 -33.5625 C 9.640625 -33.539062 9.984375 -33.453125 10.265625 -33.296875 C 10.546875 -33.140625 10.671875 -32.921875 10.640625 -32.640625 C 10.515625 -30.828125 10.394531 -29 10.28125 -27.15625 C 10.175781 -25.3125 10.148438 -23.472656 10.203125 -21.640625 C 10.253906 -19.816406 10.453125 -18.007812 10.796875 -16.21875 C 10.816406 -16.082031 10.84375 -15.945312 10.875 -15.8125 C 10.90625 -15.675781 10.941406 -15.539062 10.984375 -15.40625 C 11.117188 -15.582031 11.25 -15.753906 11.375 -15.921875 C 11.5 -16.085938 11.613281 -16.253906 11.71875 -16.421875 C 12.082031 -16.960938 12.410156 -17.507812 12.703125 -18.0625 C 12.992188 -18.625 13.265625 -19.195312 13.515625 -19.78125 C 14.046875 -21.019531 14.484375 -22.28125 14.828125 -23.5625 C 15.179688 -24.84375 15.453125 -26.15625 15.640625 -27.5 Z M 5 -22.46875 C 5.351562 -23.695312 5.640625 -24.941406 5.859375 -26.203125 C 6.078125 -27.460938 6.289062 -28.722656 6.5 -29.984375 C 6.414062 -30.242188 6.300781 -30.5 6.15625 -30.75 C 6.019531 -30.96875 5.894531 -31.1875 5.78125 -31.40625 C 5.664062 -31.625 5.535156 -31.835938 5.390625 -32.046875 C 5.335938 -32.128906 5.28125 -32.207031 5.21875 -32.28125 C 5.164062 -32.363281 5.109375 -32.441406 5.046875 -32.515625 C 4.953125 -32.378906 4.863281 -32.238281 4.78125 -32.09375 C 4.695312 -31.945312 4.613281 -31.800781 4.53125 -31.65625 C 4.40625 -31.4375 4.28125 -31.207031 4.15625 -30.96875 C 4.039062 -30.726562 3.929688 -30.484375 3.828125 -30.234375 C 3.359375 -29.222656 2.96875 -28.1875 2.65625 -27.125 C 2.300781 -25.976562 2.035156 -24.800781 1.859375 -23.59375 C 1.691406 -22.394531 1.609375 -21.195312 1.609375 -20 C 1.609375 -19.46875 1.617188 -18.929688 1.640625 -18.390625 C 1.671875 -17.847656 1.726562 -17.3125 1.8125 -16.78125 C 1.84375 -16.625 1.890625 -16.375 1.953125 -16.03125 C 2.015625 -15.6875 2.109375 -15.359375 2.234375 -15.046875 C 2.460938 -15.367188 2.671875 -15.738281 2.859375 -16.15625 C 3.046875 -16.582031 3.210938 -16.988281 3.359375 -17.375 C 3.515625 -17.757812 3.625 -18.039062 3.6875 -18.21875 C 3.945312 -18.914062 4.179688 -19.617188 4.390625 -20.328125 C 4.597656 -21.035156 4.800781 -21.75 5 -22.46875 Z M 5 -22.46875 "/></g></g></g></svg>