<svg xmlns="http://www.w3.org/2000/svg" xmlns:xlink="http://www.w3.org/1999/xlink" width="1000" zoomAndPan="magnify" viewBox="0 0 750 74.999997" height="100" preserveAspectRatio="xMidYMid meet" version="1.0"><defs><g/></defs><g fill="#ffffff" fill-opacity="1"><g transform="translate(10.523452, 63.49996)"><g><path d="M 30.453125 -23.953125 C 30.398438 -28.347656 30.492188 -32.742188 30.734375 -37.140625 C 30.984375 -41.535156 31.300781 -45.925781 31.6875 -50.3125 C 31.195312 -48.84375 30.710938 -47.316406 30.234375 -45.734375 C 29.765625 -44.148438 29.304688 -42.578125 28.859375 -41.015625 C 28.410156 -39.460938 27.976562 -37.976562 27.5625 -36.5625 C 27.15625 -35.15625 26.773438 -33.890625 26.421875 -32.765625 C 26.078125 -31.640625 25.765625 -30.710938 25.484375 -29.984375 C 25.203125 -29.253906 24.960938 -28.796875 24.765625 -28.609375 C 24.390625 -28.265625 23.96875 -28.015625 23.5 -27.859375 C 23.03125 -27.710938 22.601562 -27.679688 22.21875 -27.765625 C 21.84375 -27.859375 21.601562 -28.085938 21.5 -28.453125 C 21.125 -29.804688 20.867188 -31.15625 20.734375 -32.5 C 20.597656 -33.851562 20.53125 -35.207031 20.53125 -36.5625 C 20.539062 -37.914062 20.578125 -39.273438 20.640625 -40.640625 C 20.710938 -42.015625 20.753906 -43.390625 20.765625 -44.765625 C 20.648438 -44.171875 20.53125 -43.570312 20.40625 -42.96875 C 20.289062 -42.375 20.175781 -41.769531 20.0625 -41.15625 C 19.65625 -38.988281 19.21875 -36.828125 18.75 -34.671875 C 18.289062 -32.523438 17.796875 -30.382812 17.265625 -28.25 C 16.785156 -26.238281 16.257812 -24.226562 15.6875 -22.21875 C 15.125 -20.207031 14.535156 -18.210938 13.921875 -16.234375 C 13.585938 -15.140625 13.226562 -14.03125 12.84375 -12.90625 C 12.457031 -11.789062 12.007812 -10.707031 11.5 -9.65625 C 11 -8.613281 10.382812 -7.632812 9.65625 -6.71875 C 9.289062 -6.25 8.804688 -5.859375 8.203125 -5.546875 C 7.609375 -5.242188 6.960938 -5.046875 6.265625 -4.953125 C 5.578125 -4.867188 4.90625 -4.90625 4.25 -5.0625 C 3.59375 -5.226562 3.015625 -5.539062 2.515625 -6 C 1.921875 -6.5625 1.429688 -7.34375 1.046875 -8.34375 C 0.660156 -9.34375 0.382812 -10.488281 0.21875 -11.78125 C 0.0625 -13.082031 0 -14.460938 0.03125 -15.921875 C 0.0703125 -17.390625 0.210938 -18.863281 0.453125 -20.34375 C 0.703125 -21.820312 1.039062 -23.242188 1.46875 -24.609375 C 1.894531 -25.972656 2.410156 -27.207031 3.015625 -28.3125 C 3.617188 -29.425781 4.304688 -30.34375 5.078125 -31.0625 C 5.859375 -31.789062 6.71875 -32.238281 7.65625 -32.40625 C 8.539062 -32.570312 9.265625 -32.519531 9.828125 -32.25 C 10.390625 -31.976562 10.8125 -31.539062 11.09375 -30.9375 C 11.382812 -30.34375 11.5625 -29.632812 11.625 -28.8125 C 11.695312 -28 11.6875 -27.132812 11.59375 -26.21875 C 11.507812 -25.300781 11.363281 -24.375 11.15625 -23.4375 C 10.957031 -22.5 10.726562 -21.613281 10.46875 -20.78125 C 10.21875 -19.945312 9.96875 -19.210938 9.71875 -18.578125 C 9.476562 -17.953125 9.265625 -17.484375 9.078125 -17.171875 C 8.890625 -16.929688 8.640625 -16.753906 8.328125 -16.640625 C 8.023438 -16.535156 7.722656 -16.488281 7.421875 -16.5 C 7.117188 -16.519531 6.894531 -16.59375 6.75 -16.71875 C 6.601562 -16.851562 6.585938 -17.035156 6.703125 -17.265625 C 7.546875 -18.878906 8.226562 -20.476562 8.75 -22.0625 C 9.28125 -23.65625 9.613281 -25.3125 9.75 -27.03125 C 9.769531 -27.269531 9.789062 -27.578125 9.8125 -27.953125 C 9.84375 -28.328125 9.847656 -28.71875 9.828125 -29.125 C 9.816406 -29.53125 9.757812 -29.90625 9.65625 -30.25 C 9.550781 -30.59375 9.375 -30.84375 9.125 -31 C 8.914062 -31.144531 8.691406 -31.144531 8.453125 -31 C 8.210938 -30.863281 7.972656 -30.644531 7.734375 -30.34375 C 7.503906 -30.050781 7.285156 -29.722656 7.078125 -29.359375 C 6.867188 -29.003906 6.6875 -28.671875 6.53125 -28.359375 C 6.375 -28.046875 6.253906 -27.804688 6.171875 -27.640625 C 5.734375 -26.710938 5.320312 -25.648438 4.9375 -24.453125 C 4.5625 -23.265625 4.238281 -22.015625 3.96875 -20.703125 C 3.695312 -19.390625 3.484375 -18.066406 3.328125 -16.734375 C 3.179688 -15.410156 3.101562 -14.140625 3.09375 -12.921875 C 3.09375 -11.710938 3.171875 -10.617188 3.328125 -9.640625 C 3.492188 -8.660156 3.753906 -7.851562 4.109375 -7.21875 C 4.472656 -6.582031 4.941406 -6.195312 5.515625 -6.0625 C 6.003906 -5.9375 6.503906 -6.113281 7.015625 -6.59375 C 7.535156 -7.082031 8.054688 -7.8125 8.578125 -8.78125 C 9.109375 -9.75 9.632812 -10.90625 10.15625 -12.25 C 10.675781 -13.601562 11.191406 -15.082031 11.703125 -16.6875 C 12.210938 -18.300781 12.707031 -19.984375 13.1875 -21.734375 C 13.664062 -23.484375 14.125 -25.253906 14.5625 -27.046875 C 15.007812 -28.847656 15.425781 -30.601562 15.8125 -32.3125 C 16.207031 -34.03125 16.5625 -35.648438 16.875 -37.171875 C 17.195312 -38.703125 17.476562 -40.082031 17.71875 -41.3125 C 17.96875 -42.550781 18.171875 -43.578125 18.328125 -44.390625 C 18.484375 -45.203125 18.578125 -45.75 18.609375 -46.03125 C 18.753906 -46.945312 18.875 -47.863281 18.96875 -48.78125 C 19.070312 -49.695312 19.15625 -50.566406 19.21875 -51.390625 C 19.28125 -52.222656 19.332031 -52.96875 19.375 -53.625 C 19.425781 -54.289062 19.476562 -54.820312 19.53125 -55.21875 C 19.5625 -55.488281 19.695312 -55.703125 19.9375 -55.859375 C 20.175781 -56.023438 20.46875 -56.140625 20.8125 -56.203125 C 21.15625 -56.265625 21.5 -56.269531 21.84375 -56.21875 C 22.1875 -56.164062 22.484375 -56.0625 22.734375 -55.90625 C 22.992188 -55.757812 23.148438 -55.554688 23.203125 -55.296875 C 23.523438 -53.835938 23.734375 -52.367188 23.828125 -50.890625 C 23.929688 -49.421875 23.96875 -47.945312 23.9375 -46.46875 C 23.90625 -45 23.859375 -43.519531 23.796875 -42.03125 C 23.742188 -40.550781 23.71875 -39.070312 23.71875 -37.59375 C 23.726562 -36.113281 23.816406 -34.644531 23.984375 -33.1875 C 24.171875 -33.707031 24.332031 -34.226562 24.46875 -34.75 C 24.613281 -35.269531 24.757812 -35.785156 24.90625 -36.296875 C 25.3125 -37.679688 25.710938 -39.070312 26.109375 -40.46875 C 26.503906 -41.863281 26.894531 -43.257812 27.28125 -44.65625 C 27.664062 -45.96875 28.03125 -47.300781 28.375 -48.65625 C 28.71875 -50.007812 29.085938 -51.359375 29.484375 -52.703125 C 29.878906 -54.054688 30.332031 -55.378906 30.84375 -56.671875 C 31.351562 -57.960938 31.953125 -59.203125 32.640625 -60.390625 C 32.742188 -60.554688 32.9375 -60.703125 33.21875 -60.828125 C 33.5 -60.953125 33.816406 -61.039062 34.171875 -61.09375 C 34.523438 -61.144531 34.867188 -61.15625 35.203125 -61.125 C 35.546875 -61.09375 35.820312 -61 36.03125 -60.84375 C 36.238281 -60.695312 36.332031 -60.488281 36.3125 -60.21875 C 35.832031 -55.0625 35.382812 -49.90625 34.96875 -44.75 C 34.550781 -39.59375 34.296875 -34.421875 34.203125 -29.234375 C 34.148438 -26.628906 34.160156 -24.023438 34.234375 -21.421875 C 34.304688 -18.816406 34.445312 -16.210938 34.65625 -13.609375 C 34.757812 -12.460938 34.867188 -11.3125 34.984375 -10.15625 C 35.097656 -9.007812 35.28125 -7.878906 35.53125 -6.765625 C 35.675781 -6.160156 35.835938 -5.5625 36.015625 -4.96875 C 36.203125 -4.375 36.425781 -3.804688 36.6875 -3.265625 C 36.757812 -3.117188 36.867188 -2.910156 37.015625 -2.640625 C 37.171875 -2.378906 37.34375 -2.117188 37.53125 -1.859375 C 37.726562 -1.597656 37.941406 -1.390625 38.171875 -1.234375 C 38.398438 -1.078125 38.625 -1.035156 38.84375 -1.109375 C 39.144531 -1.210938 39.515625 -1.265625 39.953125 -1.265625 C 40.390625 -1.265625 40.738281 -1.15625 41 -0.9375 C 41.21875 -0.769531 41.328125 -0.570312 41.328125 -0.34375 C 41.328125 -0.125 41.175781 0.0546875 40.875 0.203125 C 40.226562 0.492188 39.539062 0.671875 38.8125 0.734375 C 38.082031 0.804688 37.363281 0.742188 36.65625 0.546875 C 35.957031 0.347656 35.320312 0.015625 34.75 -0.453125 C 34.144531 -0.960938 33.65625 -1.5625 33.28125 -2.25 C 32.914062 -2.9375 32.617188 -3.664062 32.390625 -4.4375 C 32.160156 -5.207031 31.960938 -5.957031 31.796875 -6.6875 C 31.390625 -8.539062 31.09375 -10.4375 30.90625 -12.375 C 30.726562 -14.3125 30.613281 -16.25 30.5625 -18.1875 C 30.507812 -20.132812 30.472656 -22.054688 30.453125 -23.953125 Z M 30.453125 -23.953125 "/></g></g></g><g fill="#ffffff" fill-opacity="1"><g transform="translate(49.855545, 63.49996)"><g><path d="M 16.9375 -24.921875 C 16.945312 -24.960938 17.003906 -24.988281 17.109375 -25 C 17.210938 -25.007812 17.316406 -25.007812 17.421875 -25 C 17.535156 -25 17.59375 -24.976562 17.59375 -24.9375 C 17.664062 -23.582031 17.597656 -22.25 17.390625 -20.9375 C 17.179688 -19.632812 16.890625 -18.34375 16.515625 -17.0625 C 16.140625 -15.78125 15.738281 -14.488281 15.3125 -13.1875 C 15.113281 -12.582031 14.859375 -12.015625 14.546875 -11.484375 C 14.234375 -10.960938 13.859375 -10.535156 13.421875 -10.203125 C 12.992188 -9.867188 12.507812 -9.6875 11.96875 -9.65625 C 11.425781 -9.625 10.828125 -9.804688 10.171875 -10.203125 C 9.734375 -10.472656 9.394531 -10.828125 9.15625 -11.265625 C 8.925781 -11.703125 8.75 -12.171875 8.625 -12.671875 C 8.507812 -13.171875 8.410156 -13.65625 8.328125 -14.125 C 8.140625 -15.125 8.019531 -16.128906 7.96875 -17.140625 C 7.925781 -18.160156 7.921875 -19.179688 7.953125 -20.203125 C 7.960938 -20.523438 7.976562 -20.84375 8 -21.15625 C 8.019531 -21.476562 8.035156 -21.796875 8.046875 -22.109375 C 7.765625 -21.203125 7.503906 -20.3125 7.265625 -19.4375 C 7.035156 -18.5625 6.789062 -17.757812 6.53125 -17.03125 C 6.28125 -16.300781 5.972656 -15.6875 5.609375 -15.1875 C 5.253906 -14.6875 4.796875 -14.34375 4.234375 -14.15625 C 3.472656 -13.914062 2.804688 -13.878906 2.234375 -14.046875 C 1.660156 -14.222656 1.164062 -14.550781 0.75 -15.03125 C 0.34375 -15.507812 0.00390625 -16.070312 -0.265625 -16.71875 C -0.535156 -17.375 -0.75 -18.050781 -0.90625 -18.75 C -1.0625 -19.457031 -1.171875 -20.113281 -1.234375 -20.71875 C -1.347656 -21.75 -1.414062 -22.785156 -1.4375 -23.828125 C -1.46875 -24.878906 -1.476562 -25.921875 -1.46875 -26.953125 C -1.46875 -27.535156 -1.457031 -28.144531 -1.4375 -28.78125 C -1.425781 -29.414062 -1.398438 -30.023438 -1.359375 -30.609375 C -1.328125 -31.191406 -1.257812 -31.710938 -1.15625 -32.171875 C -1.050781 -32.628906 -0.898438 -32.972656 -0.703125 -33.203125 C -0.554688 -33.367188 -0.335938 -33.519531 -0.046875 -33.65625 C 0.242188 -33.800781 0.554688 -33.882812 0.890625 -33.90625 C 1.222656 -33.9375 1.503906 -33.882812 1.734375 -33.75 C 1.972656 -33.625 2.09375 -33.382812 2.09375 -33.03125 C 2.101562 -32.757812 2.109375 -32.359375 2.109375 -31.828125 C 2.109375 -31.296875 2.109375 -30.695312 2.109375 -30.03125 C 2.109375 -29.363281 2.109375 -28.671875 2.109375 -27.953125 C 2.117188 -27.234375 2.128906 -26.539062 2.140625 -25.875 C 2.148438 -25.21875 2.160156 -24.625 2.171875 -24.09375 C 2.179688 -23.5625 2.191406 -23.160156 2.203125 -22.890625 C 2.242188 -22.148438 2.3125 -21.40625 2.40625 -20.65625 C 2.5 -19.914062 2.628906 -19.179688 2.796875 -18.453125 C 2.796875 -18.453125 2.8125 -18.351562 2.84375 -18.15625 C 2.882812 -17.96875 2.953125 -17.734375 3.046875 -17.453125 C 3.140625 -17.179688 3.253906 -16.914062 3.390625 -16.65625 C 3.535156 -16.394531 3.707031 -16.195312 3.90625 -16.0625 C 4.113281 -15.9375 4.351562 -15.921875 4.625 -16.015625 C 4.8125 -16.078125 5.015625 -16.351562 5.234375 -16.84375 C 5.453125 -17.332031 5.679688 -17.972656 5.921875 -18.765625 C 6.171875 -19.566406 6.414062 -20.445312 6.65625 -21.40625 C 6.894531 -22.375 7.125 -23.375 7.34375 -24.40625 C 7.5625 -25.4375 7.753906 -26.4375 7.921875 -27.40625 C 8.097656 -28.382812 8.238281 -29.273438 8.34375 -30.078125 C 8.445312 -30.890625 8.5 -31.539062 8.5 -32.03125 C 8.5 -32.125 8.5 -32.207031 8.5 -32.28125 C 8.5 -32.363281 8.492188 -32.453125 8.484375 -32.546875 C 8.453125 -32.785156 8.550781 -33.003906 8.78125 -33.203125 C 9.007812 -33.398438 9.296875 -33.550781 9.640625 -33.65625 C 9.992188 -33.769531 10.347656 -33.832031 10.703125 -33.84375 C 11.066406 -33.863281 11.375 -33.816406 11.625 -33.703125 C 11.882812 -33.585938 12.019531 -33.398438 12.03125 -33.140625 C 12.113281 -31.609375 12.101562 -30.046875 12 -28.453125 C 11.90625 -26.867188 11.800781 -25.269531 11.6875 -23.65625 C 11.582031 -22.050781 11.53125 -20.453125 11.53125 -18.859375 C 11.539062 -17.273438 11.675781 -15.722656 11.9375 -14.203125 C 12 -13.859375 12.0625 -13.515625 12.125 -13.171875 C 12.195312 -12.828125 12.296875 -12.5 12.421875 -12.1875 C 12.515625 -11.9375 12.644531 -11.691406 12.8125 -11.453125 C 12.820312 -11.429688 12.828125 -11.414062 12.828125 -11.40625 C 13.242188 -12.03125 13.585938 -12.648438 13.859375 -13.265625 C 14.140625 -13.890625 14.394531 -14.5625 14.625 -15.28125 C 15.132812 -16.84375 15.601562 -18.429688 16.03125 -20.046875 C 16.46875 -21.671875 16.769531 -23.296875 16.9375 -24.921875 Z M 16.9375 -24.921875 "/></g></g></g><g fill="#ffffff" fill-opacity="1"><g transform="translate(66.767954, 63.49996)"><g><path d="M 4.296875 -37.15625 C 4.296875 -36.757812 4.035156 -36.425781 3.515625 -36.15625 C 3.003906 -35.882812 2.378906 -35.75 1.640625 -35.75 C 0.910156 -35.75 0.285156 -35.882812 -0.234375 -36.15625 C -0.753906 -36.425781 -1.015625 -36.757812 -1.015625 -37.15625 C -1.015625 -37.414062 -0.894531 -37.648438 -0.65625 -37.859375 C -0.414062 -38.066406 -0.09375 -38.234375 0.3125 -38.359375 C 0.71875 -38.492188 1.160156 -38.5625 1.640625 -38.5625 C 2.378906 -38.5625 3.003906 -38.421875 3.515625 -38.140625 C 4.035156 -37.859375 4.296875 -37.53125 4.296875 -37.15625 Z M 7.4375 -23.5 C 7.644531 -23.757812 7.851562 -23.894531 8.0625 -23.90625 C 8.269531 -23.914062 8.382812 -23.8125 8.40625 -23.59375 C 8.4375 -23.382812 8.28125 -23.0625 7.9375 -22.625 C 7.59375 -22.207031 7.1875 -21.726562 6.71875 -21.1875 C 6.257812 -20.644531 5.800781 -20.097656 5.34375 -19.546875 C 4.894531 -19.003906 4.5 -18.523438 4.15625 -18.109375 C 4.019531 -17.910156 3.875 -17.710938 3.71875 -17.515625 C 3.5625 -17.328125 3.40625 -17.132812 3.25 -16.9375 C 3.25 -15.625 3.25 -14.304688 3.25 -12.984375 C 3.25 -11.671875 3.253906 -10.359375 3.265625 -9.046875 C 3.265625 -7.421875 3.257812 -5.789062 3.25 -4.15625 C 3.25 -2.53125 3.160156 -0.90625 2.984375 0.71875 C 2.910156 1.539062 2.800781 2.394531 2.65625 3.28125 C 2.507812 4.175781 2.273438 5.035156 1.953125 5.859375 C 1.640625 6.679688 1.164062 7.390625 0.53125 7.984375 C -0.144531 8.628906 -0.894531 9.0625 -1.71875 9.28125 C -2.550781 9.5 -3.382812 9.535156 -4.21875 9.390625 C -5.050781 9.253906 -5.835938 8.960938 -6.578125 8.515625 C -7.328125 8.078125 -7.96875 7.519531 -8.5 6.84375 C -9.03125 6.164062 -9.398438 5.394531 -9.609375 4.53125 C -9.910156 3.257812 -9.90625 1.988281 -9.59375 0.71875 C -9.28125 -0.550781 -8.816406 -1.75 -8.203125 -2.875 C -7.453125 -4.25 -6.628906 -5.585938 -5.734375 -6.890625 C -4.835938 -8.191406 -3.914062 -9.460938 -2.96875 -10.703125 C -2.550781 -11.222656 -2.132812 -11.738281 -1.71875 -12.25 C -1.3125 -12.769531 -0.898438 -13.289062 -0.484375 -13.8125 C -0.484375 -13.976562 -0.484375 -14.144531 -0.484375 -14.3125 C -0.484375 -14.488281 -0.484375 -14.660156 -0.484375 -14.828125 C -0.503906 -17.554688 -0.546875 -20.304688 -0.609375 -23.078125 C -0.671875 -25.847656 -0.617188 -28.597656 -0.453125 -31.328125 C -0.679688 -31.390625 -0.898438 -31.484375 -1.109375 -31.609375 C -1.316406 -31.734375 -1.445312 -31.898438 -1.5 -32.109375 C -1.550781 -32.328125 -1.5 -32.507812 -1.34375 -32.65625 C -1.1875 -32.800781 -0.988281 -32.910156 -0.75 -32.984375 C -0.519531 -33.066406 -0.328125 -33.109375 -0.171875 -33.109375 C 0.304688 -33.128906 0.785156 -33.15625 1.265625 -33.1875 C 1.753906 -33.226562 2.238281 -33.257812 2.71875 -33.28125 C 2.894531 -33.289062 3.128906 -33.265625 3.421875 -33.203125 C 3.722656 -33.140625 3.988281 -33.03125 4.21875 -32.875 C 4.457031 -32.726562 4.566406 -32.523438 4.546875 -32.265625 C 4.546875 -31.953125 4.382812 -31.734375 4.0625 -31.609375 C 3.75 -31.484375 3.441406 -31.410156 3.140625 -31.390625 C 3.265625 -29.523438 3.304688 -27.648438 3.265625 -25.765625 C 3.234375 -23.878906 3.226562 -22.003906 3.25 -20.140625 C 3.25 -19.847656 3.25 -19.550781 3.25 -19.25 C 3.25 -18.945312 3.25 -18.644531 3.25 -18.34375 C 3.695312 -18.882812 4.140625 -19.425781 4.578125 -19.96875 C 5.023438 -20.519531 5.472656 -21.070312 5.921875 -21.625 C 6.179688 -21.9375 6.4375 -22.25 6.6875 -22.5625 C 6.945312 -22.875 7.195312 -23.1875 7.4375 -23.5 Z M -0.84375 1.71875 C -0.550781 -0.570312 -0.410156 -2.882812 -0.421875 -5.21875 C -0.429688 -7.550781 -0.445312 -9.875 -0.46875 -12.1875 C -0.632812 -11.957031 -0.804688 -11.722656 -0.984375 -11.484375 C -1.160156 -11.253906 -1.34375 -11.019531 -1.53125 -10.78125 C -2.070312 -10.03125 -2.664062 -9.242188 -3.3125 -8.421875 C -3.957031 -7.609375 -4.59375 -6.753906 -5.21875 -5.859375 C -5.851562 -4.972656 -6.421875 -4.046875 -6.921875 -3.078125 C -7.421875 -2.117188 -7.800781 -1.117188 -8.0625 -0.078125 C -8.320312 0.960938 -8.410156 2.046875 -8.328125 3.171875 C -8.273438 3.765625 -8.128906 4.367188 -7.890625 4.984375 C -7.660156 5.609375 -7.34375 6.160156 -6.9375 6.640625 C -6.53125 7.117188 -6.050781 7.457031 -5.5 7.65625 C -4.945312 7.863281 -4.332031 7.851562 -3.65625 7.625 C -3.09375 7.425781 -2.640625 7.101562 -2.296875 6.65625 C -1.953125 6.21875 -1.6875 5.707031 -1.5 5.125 C -1.3125 4.550781 -1.171875 3.960938 -1.078125 3.359375 C -0.984375 2.765625 -0.90625 2.21875 -0.84375 1.71875 Z M -0.84375 1.71875 "/></g></g></g><g fill="#ffffff" fill-opacity="1"><g transform="translate(74.462514, 63.49996)"><g><path d="M 7.9375 -24.203125 C 7.570312 -23.585938 7.140625 -23.019531 6.640625 -22.5 C 6.148438 -21.988281 5.59375 -21.585938 4.96875 -21.296875 C 4.351562 -21.015625 3.660156 -20.910156 2.890625 -20.984375 C 2.816406 -20.984375 2.738281 -20.988281 2.65625 -21 C 2.582031 -21.007812 2.503906 -21.019531 2.421875 -21.03125 C 2.472656 -20.320312 2.570312 -19.628906 2.71875 -18.953125 C 2.875 -18.273438 3.097656 -17.664062 3.390625 -17.125 C 3.691406 -16.582031 4.085938 -16.140625 4.578125 -15.796875 C 5.078125 -15.460938 5.6875 -15.28125 6.40625 -15.25 C 7.03125 -15.226562 7.617188 -15.375 8.171875 -15.6875 C 8.722656 -16 9.234375 -16.410156 9.703125 -16.921875 C 10.171875 -17.441406 10.597656 -17.988281 10.984375 -18.5625 C 11.378906 -19.132812 11.734375 -19.671875 12.046875 -20.171875 C 12.148438 -20.347656 12.296875 -20.628906 12.484375 -21.015625 C 12.679688 -21.410156 12.890625 -21.863281 13.109375 -22.375 C 13.328125 -22.882812 13.539062 -23.414062 13.75 -23.96875 C 13.96875 -24.53125 14.160156 -25.078125 14.328125 -25.609375 C 14.492188 -26.140625 14.613281 -26.609375 14.6875 -27.015625 C 14.738281 -27.285156 14.851562 -27.457031 15.03125 -27.53125 C 15.207031 -27.613281 15.367188 -27.609375 15.515625 -27.515625 C 15.671875 -27.429688 15.710938 -27.257812 15.640625 -27 C 15.484375 -26.300781 15.257812 -25.507812 14.96875 -24.625 C 14.675781 -23.738281 14.34375 -22.832031 13.96875 -21.90625 C 13.59375 -20.976562 13.195312 -20.078125 12.78125 -19.203125 C 12.257812 -18.097656 11.648438 -17.09375 10.953125 -16.1875 C 10.253906 -15.28125 9.488281 -14.550781 8.65625 -14 C 7.832031 -13.457031 6.953125 -13.15625 6.015625 -13.09375 C 5.140625 -13.019531 4.296875 -13.097656 3.484375 -13.328125 C 2.671875 -13.566406 1.945312 -13.953125 1.3125 -14.484375 C 0.675781 -15.023438 0.160156 -15.707031 -0.234375 -16.53125 C -0.597656 -17.332031 -0.859375 -18.1875 -1.015625 -19.09375 C -1.171875 -20.007812 -1.25 -20.9375 -1.25 -21.875 C -1.257812 -22.820312 -1.238281 -23.726562 -1.1875 -24.59375 C -1.15625 -25.289062 -1.0625 -26.0625 -0.90625 -26.90625 C -0.757812 -27.75 -0.546875 -28.601562 -0.265625 -29.46875 C 0.00390625 -30.34375 0.34375 -31.179688 0.75 -31.984375 C 1.164062 -32.796875 1.648438 -33.519531 2.203125 -34.15625 C 2.765625 -34.800781 3.40625 -35.3125 4.125 -35.6875 C 4.84375 -36.0625 5.644531 -36.25 6.53125 -36.25 C 7.382812 -36.25 8.070312 -36.082031 8.59375 -35.75 C 9.113281 -35.414062 9.492188 -34.957031 9.734375 -34.375 C 9.972656 -33.800781 10.109375 -33.148438 10.140625 -32.421875 C 10.179688 -31.703125 10.132812 -30.945312 10 -30.15625 C 9.875 -29.375 9.691406 -28.601562 9.453125 -27.84375 C 9.222656 -27.09375 8.972656 -26.398438 8.703125 -25.765625 C 8.429688 -25.140625 8.175781 -24.617188 7.9375 -24.203125 Z M 2.390625 -22.5 C 2.421875 -22.476562 2.457031 -22.453125 2.5 -22.421875 C 2.539062 -22.398438 2.585938 -22.375 2.640625 -22.34375 C 3.023438 -22.144531 3.382812 -22.101562 3.71875 -22.21875 C 4.0625 -22.332031 4.375 -22.53125 4.65625 -22.8125 C 4.945312 -23.101562 5.203125 -23.421875 5.421875 -23.765625 C 5.648438 -24.109375 5.84375 -24.410156 6 -24.671875 C 6.570312 -25.703125 7.03125 -26.789062 7.375 -27.9375 C 7.71875 -29.082031 7.894531 -30.238281 7.90625 -31.40625 C 7.925781 -31.707031 7.914062 -32.078125 7.875 -32.515625 C 7.84375 -32.960938 7.757812 -33.390625 7.625 -33.796875 C 7.5 -34.210938 7.28125 -34.503906 6.96875 -34.671875 C 6.6875 -34.835938 6.328125 -34.757812 5.890625 -34.4375 C 5.453125 -34.125 5.007812 -33.597656 4.5625 -32.859375 C 4.113281 -32.128906 3.710938 -31.210938 3.359375 -30.109375 C 3.003906 -29.003906 2.757812 -27.757812 2.625 -26.375 C 2.582031 -25.957031 2.53125 -25.40625 2.46875 -24.71875 C 2.414062 -24.03125 2.390625 -23.289062 2.390625 -22.5 Z M 2.390625 -22.5 "/></g></g></g><g fill="#ffffff" fill-opacity="1"><g transform="translate(89.304814, 63.49996)"><g><path d="M 9.265625 -25.09375 C 8.660156 -24.5 8.054688 -24.109375 7.453125 -23.921875 C 6.847656 -23.742188 6.210938 -23.875 5.546875 -24.3125 C 5.265625 -24.507812 5.0625 -24.765625 4.9375 -25.078125 C 4.8125 -25.390625 4.757812 -25.703125 4.78125 -26.015625 C 4.8125 -26.328125 4.898438 -26.582031 5.046875 -26.78125 C 5.097656 -26.820312 5.210938 -26.847656 5.390625 -26.859375 C 5.578125 -26.867188 5.765625 -26.859375 5.953125 -26.828125 C 6.148438 -26.804688 6.300781 -26.765625 6.40625 -26.703125 C 6.519531 -26.640625 6.535156 -26.535156 6.453125 -26.390625 C 6.347656 -26.234375 6.296875 -26.054688 6.296875 -25.859375 C 6.304688 -25.660156 6.375 -25.492188 6.5 -25.359375 C 6.625 -25.222656 6.800781 -25.15625 7.03125 -25.15625 C 7.269531 -25.164062 7.484375 -25.320312 7.671875 -25.625 C 7.859375 -25.925781 8.019531 -26.316406 8.15625 -26.796875 C 8.300781 -27.273438 8.414062 -27.785156 8.5 -28.328125 C 8.59375 -28.878906 8.640625 -29.40625 8.640625 -29.90625 C 8.640625 -30.414062 8.59375 -30.84375 8.5 -31.1875 C 8.414062 -31.53125 8.285156 -31.734375 8.109375 -31.796875 C 7.691406 -31.953125 7.257812 -31.882812 6.8125 -31.59375 C 6.363281 -31.300781 5.925781 -30.828125 5.5 -30.171875 C 5.070312 -29.523438 4.671875 -28.726562 4.296875 -27.78125 C 3.929688 -26.84375 3.613281 -25.796875 3.34375 -24.640625 C 3.070312 -23.484375 2.867188 -22.269531 2.734375 -21 C 2.503906 -19.695312 2.390625 -18.320312 2.390625 -16.875 C 2.398438 -15.425781 2.398438 -14.023438 2.390625 -12.671875 C 2.390625 -12.617188 2.390625 -12.5625 2.390625 -12.5 C 2.398438 -12.4375 2.40625 -12.378906 2.40625 -12.328125 L 2.390625 -12.328125 C 2.390625 -12.234375 2.382812 -12.140625 2.375 -12.046875 C 2.363281 -11.960938 2.359375 -11.875 2.359375 -11.78125 C 2.347656 -11.519531 2.222656 -11.320312 1.984375 -11.1875 C 1.753906 -11.0625 1.460938 -10.992188 1.109375 -10.984375 C 0.765625 -10.984375 0.414062 -11.035156 0.0625 -11.140625 C -0.289062 -11.242188 -0.585938 -11.390625 -0.828125 -11.578125 C -1.066406 -11.765625 -1.195312 -11.988281 -1.21875 -12.25 C -1.300781 -14.1875 -1.378906 -16.117188 -1.453125 -18.046875 C -1.535156 -19.972656 -1.585938 -21.898438 -1.609375 -23.828125 C -1.609375 -24.796875 -1.59375 -25.765625 -1.5625 -26.734375 C -1.539062 -27.703125 -1.503906 -28.660156 -1.453125 -29.609375 C -1.410156 -30.191406 -1.351562 -30.804688 -1.28125 -31.453125 C -1.21875 -32.097656 -1.117188 -32.707031 -0.984375 -33.28125 C -0.859375 -33.851562 -0.691406 -34.316406 -0.484375 -34.671875 C -0.378906 -34.847656 -0.195312 -34.992188 0.0625 -35.109375 C 0.320312 -35.222656 0.601562 -35.296875 0.90625 -35.328125 C 1.21875 -35.359375 1.507812 -35.34375 1.78125 -35.28125 C 2.0625 -35.226562 2.285156 -35.125 2.453125 -34.96875 C 2.617188 -34.820312 2.675781 -34.625 2.625 -34.375 C 2.425781 -33.375 2.3125 -32.460938 2.28125 -31.640625 C 2.25 -30.816406 2.207031 -29.957031 2.15625 -29.0625 C 2.132812 -28.550781 2.113281 -28.035156 2.09375 -27.515625 C 2.082031 -26.992188 2.066406 -26.472656 2.046875 -25.953125 C 2.117188 -26.148438 2.1875 -26.34375 2.25 -26.53125 C 2.320312 -26.71875 2.398438 -26.910156 2.484375 -27.109375 C 2.816406 -27.972656 3.175781 -28.847656 3.5625 -29.734375 C 3.957031 -30.617188 4.398438 -31.429688 4.890625 -32.171875 C 5.390625 -32.910156 5.945312 -33.5 6.5625 -33.9375 C 7.1875 -34.375 7.894531 -34.570312 8.6875 -34.53125 C 9.226562 -34.507812 9.664062 -34.3125 10 -33.9375 C 10.34375 -33.5625 10.59375 -33.082031 10.75 -32.5 C 10.914062 -31.914062 11 -31.273438 11 -30.578125 C 11.007812 -29.878906 10.945312 -29.175781 10.8125 -28.46875 C 10.675781 -27.769531 10.476562 -27.125 10.21875 -26.53125 C 9.957031 -25.9375 9.640625 -25.457031 9.265625 -25.09375 Z M 9.265625 -25.09375 "/></g></g></g><g fill="#ffffff" fill-opacity="1"><g transform="translate(102.233238, 63.49996)"><g><path d="M 7.9375 -24.203125 C 7.570312 -23.585938 7.140625 -23.019531 6.640625 -22.5 C 6.148438 -21.988281 5.59375 -21.585938 4.96875 -21.296875 C 4.351562 -21.015625 3.660156 -20.910156 2.890625 -20.984375 C 2.816406 -20.984375 2.738281 -20.988281 2.65625 -21 C 2.582031 -21.007812 2.503906 -21.019531 2.421875 -21.03125 C 2.472656 -20.320312 2.570312 -19.628906 2.71875 -18.953125 C 2.875 -18.273438 3.097656 -17.664062 3.390625 -17.125 C 3.691406 -16.582031 4.085938 -16.140625 4.578125 -15.796875 C 5.078125 -15.460938 5.6875 -15.28125 6.40625 -15.25 C 7.03125 -15.226562 7.617188 -15.375 8.171875 -15.6875 C 8.722656 -16 9.234375 -16.410156 9.703125 -16.921875 C 10.171875 -17.441406 10.597656 -17.988281 10.984375 -18.5625 C 11.378906 -19.132812 11.734375 -19.671875 12.046875 -20.171875 C 12.148438 -20.347656 12.296875 -20.628906 12.484375 -21.015625 C 12.679688 -21.410156 12.890625 -21.863281 13.109375 -22.375 C 13.328125 -22.882812 13.539062 -23.414062 13.75 -23.96875 C 13.96875 -24.53125 14.160156 -25.078125 14.328125 -25.609375 C 14.492188 -26.140625 14.613281 -26.609375 14.6875 -27.015625 C 14.738281 -27.285156 14.851562 -27.457031 15.03125 -27.53125 C 15.207031 -27.613281 15.367188 -27.609375 15.515625 -27.515625 C 15.671875 -27.429688 15.710938 -27.257812 15.640625 -27 C 15.484375 -26.300781 15.257812 -25.507812 14.96875 -24.625 C 14.675781 -23.738281 14.34375 -22.832031 13.96875 -21.90625 C 13.59375 -20.976562 13.195312 -20.078125 12.78125 -19.203125 C 12.257812 -18.097656 11.648438 -17.09375 10.953125 -16.1875 C 10.253906 -15.28125 9.488281 -14.550781 8.65625 -14 C 7.832031 -13.457031 6.953125 -13.15625 6.015625 -13.09375 C 5.140625 -13.019531 4.296875 -13.097656 3.484375 -13.328125 C 2.671875 -13.566406 1.945312 -13.953125 1.3125 -14.484375 C 0.675781 -15.023438 0.160156 -15.707031 -0.234375 -16.53125 C -0.597656 -17.332031 -0.859375 -18.1875 -1.015625 -19.09375 C -1.171875 -20.007812 -1.25 -20.9375 -1.25 -21.875 C -1.257812 -22.820312 -1.238281 -23.726562 -1.1875 -24.59375 C -1.15625 -25.289062 -1.0625 -26.0625 -0.90625 -26.90625 C -0.757812 -27.75 -0.546875 -28.601562 -0.265625 -29.46875 C 0.00390625 -30.34375 0.34375 -31.179688 0.75 -31.984375 C 1.164062 -32.796875 1.648438 -33.519531 2.203125 -34.15625 C 2.765625 -34.800781 3.40625 -35.3125 4.125 -35.6875 C 4.84375 -36.0625 5.644531 -36.25 6.53125 -36.25 C 7.382812 -36.25 8.070312 -36.082031 8.59375 -35.75 C 9.113281 -35.414062 9.492188 -34.957031 9.734375 -34.375 C 9.972656 -33.800781 10.109375 -33.148438 10.140625 -32.421875 C 10.179688 -31.703125 10.132812 -30.945312 10 -30.15625 C 9.875 -29.375 9.691406 -28.601562 9.453125 -27.84375 C 9.222656 -27.09375 8.972656 -26.398438 8.703125 -25.765625 C 8.429688 -25.140625 8.175781 -24.617188 7.9375 -24.203125 Z M 2.390625 -22.5 C 2.421875 -22.476562 2.457031 -22.453125 2.5 -22.421875 C 2.539062 -22.398438 2.585938 -22.375 2.640625 -22.34375 C 3.023438 -22.144531 3.382812 -22.101562 3.71875 -22.21875 C 4.0625 -22.332031 4.375 -22.53125 4.65625 -22.8125 C 4.945312 -23.101562 5.203125 -23.421875 5.421875 -23.765625 C 5.648438 -24.109375 5.84375 -24.410156 6 -24.671875 C 6.570312 -25.703125 7.03125 -26.789062 7.375 -27.9375 C 7.71875 -29.082031 7.894531 -30.238281 7.90625 -31.40625 C 7.925781 -31.707031 7.914062 -32.078125 7.875 -32.515625 C 7.84375 -32.960938 7.757812 -33.390625 7.625 -33.796875 C 7.5 -34.210938 7.28125 -34.503906 6.96875 -34.671875 C 6.6875 -34.835938 6.328125 -34.757812 5.890625 -34.4375 C 5.453125 -34.125 5.007812 -33.597656 4.5625 -32.859375 C 4.113281 -32.128906 3.710938 -31.210938 3.359375 -30.109375 C 3.003906 -29.003906 2.757812 -27.757812 2.625 -26.375 C 2.582031 -25.957031 2.53125 -25.40625 2.46875 -24.71875 C 2.414062 -24.03125 2.390625 -23.289062 2.390625 -22.5 Z M 2.390625 -22.5 "/></g></g></g><g fill="#ffffff" fill-opacity="1"><g transform="translate(117.075537, 63.49996)"><g><path d="M 10.390625 -23.75 C 10.328125 -23.632812 10.164062 -23.550781 9.90625 -23.5 C 9.65625 -23.445312 9.378906 -23.429688 9.078125 -23.453125 C 8.785156 -23.472656 8.539062 -23.53125 8.34375 -23.625 C 8.144531 -23.71875 8.070312 -23.851562 8.125 -24.03125 C 8.28125 -24.582031 8.429688 -25.207031 8.578125 -25.90625 C 8.722656 -26.601562 8.8125 -27.316406 8.84375 -28.046875 C 8.882812 -28.785156 8.84375 -29.5 8.71875 -30.1875 C 8.59375 -30.882812 8.347656 -31.519531 7.984375 -32.09375 C 7.617188 -32.664062 7.09375 -33.128906 6.40625 -33.484375 C 6 -33.691406 5.675781 -33.773438 5.4375 -33.734375 C 5.195312 -33.703125 4.910156 -33.550781 4.578125 -33.28125 C 4.128906 -32.914062 3.742188 -32.460938 3.421875 -31.921875 C 3.097656 -31.378906 2.835938 -30.835938 2.640625 -30.296875 C 2.191406 -29.015625 2.101562 -27.726562 2.375 -26.4375 C 2.65625 -25.144531 3.234375 -23.988281 4.109375 -22.96875 C 4.503906 -22.5 4.945312 -22.082031 5.4375 -21.71875 C 5.925781 -21.363281 6.425781 -21.023438 6.9375 -20.703125 C 7.457031 -20.390625 7.960938 -20.0625 8.453125 -19.71875 C 8.941406 -19.382812 9.394531 -19 9.8125 -18.5625 C 10.34375 -18 10.695312 -17.390625 10.875 -16.734375 C 11.0625 -16.078125 11.046875 -15.4375 10.828125 -14.8125 C 10.617188 -14.195312 10.1875 -13.660156 9.53125 -13.203125 C 8.9375 -12.785156 8.273438 -12.484375 7.546875 -12.296875 C 6.816406 -12.109375 6.09375 -11.992188 5.375 -11.953125 C 4.21875 -11.898438 3.164062 -12.050781 2.21875 -12.40625 C 1.269531 -12.769531 0.5 -13.34375 -0.09375 -14.125 C -0.6875 -14.90625 -1.046875 -15.894531 -1.171875 -17.09375 C -1.203125 -17.351562 -1.097656 -17.5625 -0.859375 -17.71875 C -0.628906 -17.882812 -0.332031 -18 0.03125 -18.0625 C 0.40625 -18.132812 0.773438 -18.148438 1.140625 -18.109375 C 1.515625 -18.066406 1.832031 -17.96875 2.09375 -17.8125 C 2.363281 -17.65625 2.515625 -17.441406 2.546875 -17.171875 C 2.597656 -16.710938 2.703125 -16.234375 2.859375 -15.734375 C 3.015625 -15.242188 3.25 -14.820312 3.5625 -14.46875 C 3.882812 -14.125 4.316406 -13.925781 4.859375 -13.875 C 5.203125 -13.84375 5.546875 -13.890625 5.890625 -14.015625 C 6.242188 -14.140625 6.546875 -14.320312 6.796875 -14.5625 C 7.054688 -14.8125 7.222656 -15.125 7.296875 -15.5 C 7.367188 -15.875 7.300781 -16.296875 7.09375 -16.765625 C 6.925781 -17.160156 6.679688 -17.5 6.359375 -17.78125 C 6.035156 -18.070312 5.6875 -18.332031 5.3125 -18.5625 C 4.9375 -18.789062 4.570312 -19.015625 4.21875 -19.234375 C 3.726562 -19.546875 3.242188 -19.878906 2.765625 -20.234375 C 2.285156 -20.597656 1.835938 -20.984375 1.421875 -21.390625 C 0.609375 -22.191406 -0.0664062 -23.097656 -0.609375 -24.109375 C -1.148438 -25.128906 -1.445312 -26.226562 -1.5 -27.40625 C -1.539062 -28.34375 -1.425781 -29.265625 -1.15625 -30.171875 C -0.882812 -31.078125 -0.484375 -31.910156 0.046875 -32.671875 C 0.585938 -33.441406 1.222656 -34.085938 1.953125 -34.609375 C 2.691406 -35.128906 3.507812 -35.476562 4.40625 -35.65625 C 5.3125 -35.832031 6.257812 -35.789062 7.25 -35.53125 C 8.34375 -35.238281 9.226562 -34.773438 9.90625 -34.140625 C 10.59375 -33.515625 11.097656 -32.78125 11.421875 -31.9375 C 11.753906 -31.09375 11.921875 -30.191406 11.921875 -29.234375 C 11.929688 -28.285156 11.800781 -27.335938 11.53125 -26.390625 C 11.269531 -25.453125 10.890625 -24.570312 10.390625 -23.75 Z M 10.390625 -23.75 "/></g></g></g><g fill="#ffffff" fill-opacity="1"><g transform="translate(130.785135, 63.49996)"><g/></g></g><g fill="#ffffff" fill-opacity="1"><g transform="translate(140.608399, 63.49996)"><g><path d="M 8.0625 -40.6875 C 7.726562 -40.257812 7.316406 -39.851562 6.828125 -39.46875 C 6.335938 -39.09375 5.816406 -38.8125 5.265625 -38.625 C 4.722656 -38.4375 4.1875 -38.40625 3.65625 -38.53125 C 3.132812 -38.65625 2.660156 -39.003906 2.234375 -39.578125 C 1.828125 -40.117188 1.546875 -40.75 1.390625 -41.46875 C 1.242188 -42.195312 1.1875 -42.945312 1.21875 -43.71875 C 1.25 -44.5 1.328125 -45.257812 1.453125 -46 C 1.585938 -46.75 1.726562 -47.425781 1.875 -48.03125 C 2.195312 -49.425781 2.628906 -50.851562 3.171875 -52.3125 C 3.710938 -53.769531 4.394531 -55.085938 5.21875 -56.265625 C 5.9375 -57.296875 6.832031 -57.992188 7.90625 -58.359375 C 8.976562 -58.734375 10.113281 -58.695312 11.3125 -58.25 C 12 -57.988281 12.625 -57.601562 13.1875 -57.09375 C 13.75 -56.59375 14.253906 -56.019531 14.703125 -55.375 C 15.148438 -54.738281 15.550781 -54.070312 15.90625 -53.375 C 16.269531 -52.6875 16.59375 -52.03125 16.875 -51.40625 C 17.40625 -50.207031 17.882812 -48.976562 18.3125 -47.71875 C 18.738281 -46.46875 19.097656 -45.203125 19.390625 -43.921875 C 19.753906 -45.398438 20.175781 -46.847656 20.65625 -48.265625 C 21.132812 -49.691406 21.6875 -51.070312 22.3125 -52.40625 C 22.59375 -53.03125 22.921875 -53.664062 23.296875 -54.3125 C 23.679688 -54.957031 24.128906 -55.539062 24.640625 -56.0625 C 25.148438 -56.59375 25.738281 -56.988281 26.40625 -57.25 C 27.082031 -57.507812 27.773438 -57.613281 28.484375 -57.5625 C 29.191406 -57.519531 29.863281 -57.34375 30.5 -57.03125 C 31.132812 -56.71875 31.675781 -56.28125 32.125 -55.71875 C 32.675781 -55.070312 33.144531 -54.34375 33.53125 -53.53125 C 33.914062 -52.726562 34.253906 -51.898438 34.546875 -51.046875 C 34.835938 -50.191406 35.113281 -49.363281 35.375 -48.5625 C 35.800781 -47.28125 36.1875 -45.984375 36.53125 -44.671875 C 36.875 -43.359375 37.175781 -42.035156 37.4375 -40.703125 C 37.976562 -38.003906 38.34375 -35.257812 38.53125 -32.46875 C 38.726562 -29.6875 38.703125 -26.910156 38.453125 -24.140625 C 38.210938 -21.378906 37.703125 -18.671875 36.921875 -16.015625 C 36.148438 -13.367188 35.0625 -10.820312 33.65625 -8.375 C 33.070312 -7.363281 32.414062 -6.367188 31.6875 -5.390625 C 30.957031 -4.410156 30.15625 -3.5 29.28125 -2.65625 C 28.40625 -1.820312 27.453125 -1.09375 26.421875 -0.46875 C 25.398438 0.15625 24.296875 0.625 23.109375 0.9375 C 22.242188 1.15625 21.335938 1.28125 20.390625 1.3125 C 19.441406 1.351562 18.5 1.273438 17.5625 1.078125 C 16.632812 0.890625 15.753906 0.585938 14.921875 0.171875 C 14.085938 -0.242188 13.351562 -0.78125 12.71875 -1.4375 C 12.082031 -2.09375 11.582031 -2.878906 11.21875 -3.796875 C 10.78125 -4.890625 10.5625 -6.015625 10.5625 -7.171875 C 10.5625 -8.335938 10.726562 -9.488281 11.0625 -10.625 C 11.40625 -11.769531 11.867188 -12.859375 12.453125 -13.890625 C 13.046875 -14.929688 13.710938 -15.867188 14.453125 -16.703125 C 15.066406 -17.378906 15.75 -18.007812 16.5 -18.59375 C 16.53125 -18.8125 16.554688 -19.03125 16.578125 -19.25 C 16.609375 -19.46875 16.632812 -19.679688 16.65625 -19.890625 C 16.738281 -20.472656 16.800781 -21.0625 16.84375 -21.65625 C 16.875 -23.007812 16.925781 -24.363281 17 -25.71875 C 17.070312 -27.070312 17.160156 -28.421875 17.265625 -29.765625 C 17.253906 -32.253906 17.113281 -34.734375 16.84375 -37.203125 C 16.582031 -39.679688 16.140625 -42.117188 15.515625 -44.515625 C 15.179688 -45.804688 14.789062 -47.082031 14.34375 -48.34375 C 13.894531 -49.613281 13.363281 -50.84375 12.75 -52.03125 C 12.476562 -52.5625 12.1875 -53.085938 11.875 -53.609375 C 11.5625 -54.128906 11.226562 -54.632812 10.875 -55.125 C 10.632812 -55.457031 10.375 -55.773438 10.09375 -56.078125 C 9.8125 -56.390625 9.503906 -56.585938 9.171875 -56.671875 C 8.847656 -56.765625 8.492188 -56.640625 8.109375 -56.296875 C 7.535156 -55.785156 7.035156 -55.175781 6.609375 -54.46875 C 6.191406 -53.757812 5.820312 -53.019531 5.5 -52.25 C 5.175781 -51.476562 4.882812 -50.734375 4.625 -50.015625 C 4.195312 -48.835938 3.863281 -47.597656 3.625 -46.296875 C 3.382812 -44.992188 3.328125 -43.703125 3.453125 -42.421875 C 3.492188 -42.085938 3.550781 -41.742188 3.625 -41.390625 C 3.707031 -41.046875 3.828125 -40.726562 3.984375 -40.4375 C 4.222656 -39.988281 4.453125 -39.800781 4.671875 -39.875 C 4.898438 -39.957031 5.179688 -40.148438 5.515625 -40.453125 C 5.929688 -40.835938 6.304688 -41.289062 6.640625 -41.8125 C 6.984375 -42.332031 7.296875 -42.835938 7.578125 -43.328125 C 8.191406 -44.335938 8.71875 -45.390625 9.15625 -46.484375 C 9.59375 -47.578125 9.972656 -48.691406 10.296875 -49.828125 C 10.335938 -49.972656 10.460938 -50.078125 10.671875 -50.140625 C 10.890625 -50.203125 11.125 -50.226562 11.375 -50.21875 C 11.632812 -50.207031 11.851562 -50.15625 12.03125 -50.0625 C 12.21875 -49.976562 12.289062 -49.867188 12.25 -49.734375 C 11.851562 -48.085938 11.316406 -46.5 10.640625 -44.96875 C 9.960938 -43.4375 9.101562 -42.007812 8.0625 -40.6875 Z M 19.703125 -15.203125 C 19.617188 -14.640625 19.535156 -14.113281 19.453125 -13.625 C 19.378906 -13.144531 19.222656 -12.71875 18.984375 -12.34375 C 18.753906 -11.96875 18.363281 -11.632812 17.8125 -11.34375 C 17.613281 -11.257812 17.394531 -11.21875 17.15625 -11.21875 C 16.914062 -11.21875 16.707031 -11.28125 16.53125 -11.40625 C 16.25 -11.613281 16.039062 -11.832031 15.90625 -12.0625 C 15.78125 -12.289062 15.707031 -12.53125 15.6875 -12.78125 C 15.238281 -11.863281 14.882812 -10.882812 14.625 -9.84375 C 14.363281 -8.8125 14.25 -7.78125 14.28125 -6.75 C 14.320312 -5.726562 14.550781 -4.765625 14.96875 -3.859375 C 15.394531 -2.960938 16.0625 -2.203125 16.96875 -1.578125 C 17.738281 -1.054688 18.515625 -0.742188 19.296875 -0.640625 C 20.078125 -0.535156 20.84375 -0.59375 21.59375 -0.8125 C 22.351562 -1.03125 23.082031 -1.359375 23.78125 -1.796875 C 24.488281 -2.242188 25.15625 -2.75 25.78125 -3.3125 C 26.40625 -3.875 26.96875 -4.453125 27.46875 -5.046875 C 28.84375 -6.671875 30.007812 -8.460938 30.96875 -10.421875 C 31.925781 -12.390625 32.710938 -14.382812 33.328125 -16.40625 C 34.003906 -18.675781 34.472656 -20.988281 34.734375 -23.34375 C 34.992188 -25.695312 35.078125 -28.066406 34.984375 -30.453125 C 34.898438 -32.847656 34.671875 -35.222656 34.296875 -37.578125 C 33.929688 -39.929688 33.453125 -42.238281 32.859375 -44.5 C 32.566406 -45.613281 32.238281 -46.71875 31.875 -47.8125 C 31.507812 -48.914062 31.113281 -50.007812 30.6875 -51.09375 C 30.488281 -51.570312 30.285156 -52.050781 30.078125 -52.53125 C 29.867188 -53.019531 29.648438 -53.492188 29.421875 -53.953125 C 29.128906 -54.503906 28.8125 -54.835938 28.46875 -54.953125 C 28.132812 -55.078125 27.804688 -55.019531 27.484375 -54.78125 C 27.160156 -54.550781 26.875 -54.1875 26.625 -53.6875 C 26.300781 -53.050781 25.992188 -52.367188 25.703125 -51.640625 C 25.421875 -50.921875 25.179688 -50.296875 24.984375 -49.765625 C 24.609375 -48.722656 24.257812 -47.664062 23.9375 -46.59375 C 23.613281 -45.519531 23.316406 -44.441406 23.046875 -43.359375 C 22.609375 -41.578125 22.210938 -39.785156 21.859375 -37.984375 C 21.515625 -36.191406 21.195312 -34.382812 20.90625 -32.5625 C 20.914062 -32.40625 20.921875 -32.25 20.921875 -32.09375 C 20.921875 -31.945312 20.925781 -31.796875 20.9375 -31.640625 C 20.988281 -29.828125 20.96875 -28.015625 20.875 -26.203125 C 20.789062 -24.390625 20.648438 -22.570312 20.453125 -20.75 C 22.085938 -21.332031 23.835938 -21.59375 25.703125 -21.53125 C 25.847656 -21.53125 25.988281 -21.488281 26.125 -21.40625 C 26.257812 -21.332031 26.335938 -21.242188 26.359375 -21.140625 C 26.390625 -21.046875 26.289062 -20.957031 26.0625 -20.875 C 25.03125 -20.550781 24.003906 -20.144531 22.984375 -19.65625 C 21.972656 -19.164062 21.019531 -18.597656 20.125 -17.953125 C 20.050781 -17.492188 19.976562 -17.03125 19.90625 -16.5625 C 19.84375 -16.101562 19.773438 -15.648438 19.703125 -15.203125 Z M 19.703125 -15.203125 "/></g></g></g><g fill="#ffffff" fill-opacity="1"><g transform="translate(181.932484, 63.49996)"><g><path d="M -0.546875 -27.890625 C -0.535156 -28.234375 -0.515625 -28.644531 -0.484375 -29.125 C -0.453125 -29.601562 -0.421875 -30.085938 -0.390625 -30.578125 C -0.367188 -31.066406 -0.359375 -31.472656 -0.359375 -31.796875 C -0.359375 -31.828125 -0.351562 -31.859375 -0.34375 -31.890625 C -0.332031 -31.929688 -0.328125 -31.96875 -0.328125 -32 C -0.671875 -32.007812 -0.976562 -32.066406 -1.25 -32.171875 C -1.519531 -32.285156 -1.65625 -32.46875 -1.65625 -32.71875 C -1.65625 -32.988281 -1.519531 -33.1875 -1.25 -33.3125 C -0.976562 -33.4375 -0.609375 -33.515625 -0.140625 -33.546875 C 0.316406 -33.578125 0.828125 -33.59375 1.390625 -33.59375 C 2.234375 -33.59375 2.941406 -33.519531 3.515625 -33.375 C 4.097656 -33.238281 4.398438 -33.019531 4.421875 -32.71875 C 4.429688 -32.5 4.34375 -32.335938 4.15625 -32.234375 C 3.96875 -32.128906 3.664062 -32.0625 3.25 -32.03125 C 3.25 -32.007812 3.25 -31.976562 3.25 -31.9375 C 3.25 -31.894531 3.25 -31.863281 3.25 -31.84375 C 3.257812 -31.488281 3.253906 -31.015625 3.234375 -30.421875 C 3.222656 -29.828125 3.203125 -29.203125 3.171875 -28.546875 C 3.140625 -27.890625 3.109375 -27.265625 3.078125 -26.671875 C 3.054688 -26.085938 3.039062 -25.625 3.03125 -25.28125 C 2.976562 -23.90625 2.914062 -22.519531 2.84375 -21.125 C 2.78125 -19.726562 2.863281 -18.351562 3.09375 -17 C 3.113281 -16.8125 3.160156 -16.546875 3.234375 -16.203125 C 3.304688 -15.859375 3.40625 -15.5 3.53125 -15.125 C 3.65625 -14.757812 3.8125 -14.441406 4 -14.171875 C 4.1875 -13.898438 4.40625 -13.765625 4.65625 -13.765625 C 5.09375 -13.753906 5.507812 -13.957031 5.90625 -14.375 C 6.300781 -14.800781 6.671875 -15.367188 7.015625 -16.078125 C 7.367188 -16.796875 7.691406 -17.578125 7.984375 -18.421875 C 8.273438 -19.273438 8.535156 -20.132812 8.765625 -21 C 9.003906 -21.875 9.203125 -22.675781 9.359375 -23.40625 C 9.515625 -24.144531 9.628906 -24.75 9.703125 -25.21875 C 9.734375 -25.363281 9.816406 -25.445312 9.953125 -25.46875 C 10.097656 -25.5 10.234375 -25.484375 10.359375 -25.421875 C 10.492188 -25.359375 10.550781 -25.257812 10.53125 -25.125 C 10.414062 -24.414062 10.265625 -23.601562 10.078125 -22.6875 C 9.898438 -21.78125 9.679688 -20.835938 9.421875 -19.859375 C 9.171875 -18.890625 8.863281 -17.9375 8.5 -17 C 8.144531 -16.070312 7.734375 -15.234375 7.265625 -14.484375 C 6.796875 -13.734375 6.257812 -13.132812 5.65625 -12.6875 C 5.0625 -12.25 4.378906 -12.03125 3.609375 -12.03125 C 2.859375 -12.03125 2.148438 -12.269531 1.484375 -12.75 C 0.835938 -13.25 0.347656 -13.867188 0.015625 -14.609375 C -0.304688 -15.347656 -0.519531 -16.144531 -0.625 -17 C -0.738281 -17.851562 -0.789062 -18.707031 -0.78125 -19.5625 C -0.78125 -20.425781 -0.769531 -21.21875 -0.75 -21.9375 C -0.71875 -22.925781 -0.679688 -23.914062 -0.640625 -24.90625 C -0.609375 -25.90625 -0.578125 -26.898438 -0.546875 -27.890625 Z M 4.6875 -36.875 C 4.675781 -36.488281 4.410156 -36.160156 3.890625 -35.890625 C 3.367188 -35.617188 2.742188 -35.492188 2.015625 -35.515625 C 1.273438 -35.523438 0.644531 -35.671875 0.125 -35.953125 C -0.382812 -36.234375 -0.632812 -36.566406 -0.625 -36.953125 C -0.625 -37.210938 -0.503906 -37.445312 -0.265625 -37.65625 C -0.0234375 -37.863281 0.296875 -38.03125 0.703125 -38.15625 C 1.117188 -38.28125 1.566406 -38.335938 2.046875 -38.328125 C 2.773438 -38.304688 3.394531 -38.148438 3.90625 -37.859375 C 4.425781 -37.578125 4.6875 -37.25 4.6875 -36.875 Z M 4.6875 -36.875 "/></g></g></g><g fill="#ffffff" fill-opacity="1"><g transform="translate(191.872925, 63.49996)"><g><path d="M 13.40625 -36.703125 C 13.101562 -34.460938 12.734375 -32.238281 12.296875 -30.03125 C 11.867188 -27.832031 11.382812 -25.648438 10.84375 -23.484375 C 10.550781 -22.367188 10.269531 -21.253906 10 -20.140625 C 9.738281 -19.035156 9.457031 -17.925781 9.15625 -16.8125 C 9.050781 -16.414062 8.941406 -15.992188 8.828125 -15.546875 C 8.710938 -15.109375 8.566406 -14.6875 8.390625 -14.28125 C 8.210938 -13.875 7.988281 -13.523438 7.71875 -13.234375 C 7.457031 -12.953125 7.117188 -12.757812 6.703125 -12.65625 C 5.867188 -12.457031 5.128906 -12.550781 4.484375 -12.9375 C 3.847656 -13.332031 3.394531 -13.972656 3.125 -14.859375 C 2.800781 -15.941406 2.507812 -17.023438 2.25 -18.109375 C 1.988281 -19.203125 1.734375 -20.300781 1.484375 -21.40625 C 0.992188 -23.707031 0.570312 -25.988281 0.21875 -28.25 C -0.132812 -30.519531 -0.382812 -32.617188 -0.53125 -34.546875 C -0.550781 -34.796875 -0.46875 -35.023438 -0.28125 -35.234375 C -0.09375 -35.453125 0.148438 -35.632812 0.453125 -35.78125 C 0.753906 -35.9375 1.054688 -36.035156 1.359375 -36.078125 C 1.660156 -36.117188 1.921875 -36.09375 2.140625 -36 C 2.367188 -35.914062 2.492188 -35.742188 2.515625 -35.484375 C 2.703125 -33.679688 2.921875 -31.867188 3.171875 -30.046875 C 3.429688 -28.234375 3.722656 -26.4375 4.046875 -24.65625 C 4.222656 -23.738281 4.410156 -22.820312 4.609375 -21.90625 C 4.804688 -21 5.007812 -20.082031 5.21875 -19.15625 C 5.332031 -18.6875 5.453125 -18.210938 5.578125 -17.734375 C 5.703125 -17.253906 5.828125 -16.773438 5.953125 -16.296875 C 5.984375 -16.210938 6.023438 -16.085938 6.078125 -15.921875 C 6.140625 -15.753906 6.195312 -15.578125 6.25 -15.390625 C 6.625 -16.023438 6.929688 -16.726562 7.171875 -17.5 C 7.421875 -18.28125 7.65625 -18.960938 7.875 -19.546875 C 8.207031 -20.398438 8.492188 -21.269531 8.734375 -22.15625 C 8.984375 -23.050781 9.21875 -23.945312 9.4375 -24.84375 C 9.925781 -26.78125 10.359375 -28.722656 10.734375 -30.671875 C 11.109375 -32.628906 11.453125 -34.554688 11.765625 -36.453125 C 11.785156 -36.628906 11.882812 -36.769531 12.0625 -36.875 C 12.238281 -36.988281 12.429688 -37.054688 12.640625 -37.078125 C 12.859375 -37.109375 13.046875 -37.09375 13.203125 -37.03125 C 13.359375 -36.96875 13.425781 -36.859375 13.40625 -36.703125 Z M 13.40625 -36.703125 "/></g></g></g><g fill="#ffffff" fill-opacity="1"><g transform="translate(206.676177, 63.49996)"><g><path d="M -0.546875 -27.890625 C -0.535156 -28.234375 -0.515625 -28.644531 -0.484375 -29.125 C -0.453125 -29.601562 -0.421875 -30.085938 -0.390625 -30.578125 C -0.367188 -31.066406 -0.359375 -31.472656 -0.359375 -31.796875 C -0.359375 -31.828125 -0.351562 -31.859375 -0.34375 -31.890625 C -0.332031 -31.929688 -0.328125 -31.96875 -0.328125 -32 C -0.671875 -32.007812 -0.976562 -32.066406 -1.25 -32.171875 C -1.519531 -32.285156 -1.65625 -32.46875 -1.65625 -32.71875 C -1.65625 -32.988281 -1.519531 -33.1875 -1.25 -33.3125 C -0.976562 -33.4375 -0.609375 -33.515625 -0.140625 -33.546875 C 0.316406 -33.578125 0.828125 -33.59375 1.390625 -33.59375 C 2.234375 -33.59375 2.941406 -33.519531 3.515625 -33.375 C 4.097656 -33.238281 4.398438 -33.019531 4.421875 -32.71875 C 4.429688 -32.5 4.34375 -32.335938 4.15625 -32.234375 C 3.96875 -32.128906 3.664062 -32.0625 3.25 -32.03125 C 3.25 -32.007812 3.25 -31.976562 3.25 -31.9375 C 3.25 -31.894531 3.25 -31.863281 3.25 -31.84375 C 3.257812 -31.488281 3.253906 -31.015625 3.234375 -30.421875 C 3.222656 -29.828125 3.203125 -29.203125 3.171875 -28.546875 C 3.140625 -27.890625 3.109375 -27.265625 3.078125 -26.671875 C 3.054688 -26.085938 3.039062 -25.625 3.03125 -25.28125 C 2.976562 -23.90625 2.914062 -22.519531 2.84375 -21.125 C 2.78125 -19.726562 2.863281 -18.351562 3.09375 -17 C 3.113281 -16.8125 3.160156 -16.546875 3.234375 -16.203125 C 3.304688 -15.859375 3.40625 -15.5 3.53125 -15.125 C 3.65625 -14.757812 3.8125 -14.441406 4 -14.171875 C 4.1875 -13.898438 4.40625 -13.765625 4.65625 -13.765625 C 5.09375 -13.753906 5.507812 -13.957031 5.90625 -14.375 C 6.300781 -14.800781 6.671875 -15.367188 7.015625 -16.078125 C 7.367188 -16.796875 7.691406 -17.578125 7.984375 -18.421875 C 8.273438 -19.273438 8.535156 -20.132812 8.765625 -21 C 9.003906 -21.875 9.203125 -22.675781 9.359375 -23.40625 C 9.515625 -24.144531 9.628906 -24.75 9.703125 -25.21875 C 9.734375 -25.363281 9.816406 -25.445312 9.953125 -25.46875 C 10.097656 -25.5 10.234375 -25.484375 10.359375 -25.421875 C 10.492188 -25.359375 10.550781 -25.257812 10.53125 -25.125 C 10.414062 -24.414062 10.265625 -23.601562 10.078125 -22.6875 C 9.898438 -21.78125 9.679688 -20.835938 9.421875 -19.859375 C 9.171875 -18.890625 8.863281 -17.9375 8.5 -17 C 8.144531 -16.070312 7.734375 -15.234375 7.265625 -14.484375 C 6.796875 -13.734375 6.257812 -13.132812 5.65625 -12.6875 C 5.0625 -12.25 4.378906 -12.03125 3.609375 -12.03125 C 2.859375 -12.03125 2.148438 -12.269531 1.484375 -12.75 C 0.835938 -13.25 0.347656 -13.867188 0.015625 -14.609375 C -0.304688 -15.347656 -0.519531 -16.144531 -0.625 -17 C -0.738281 -17.851562 -0.789062 -18.707031 -0.78125 -19.5625 C -0.78125 -20.425781 -0.769531 -21.21875 -0.75 -21.9375 C -0.71875 -22.925781 -0.679688 -23.914062 -0.640625 -24.90625 C -0.609375 -25.90625 -0.578125 -26.898438 -0.546875 -27.890625 Z M 4.6875 -36.875 C 4.675781 -36.488281 4.410156 -36.160156 3.890625 -35.890625 C 3.367188 -35.617188 2.742188 -35.492188 2.015625 -35.515625 C 1.273438 -35.523438 0.644531 -35.671875 0.125 -35.953125 C -0.382812 -36.234375 -0.632812 -36.566406 -0.625 -36.953125 C -0.625 -37.210938 -0.503906 -37.445312 -0.265625 -37.65625 C -0.0234375 -37.863281 0.296875 -38.03125 0.703125 -38.15625 C 1.117188 -38.28125 1.566406 -38.335938 2.046875 -38.328125 C 2.773438 -38.304688 3.394531 -38.148438 3.90625 -37.859375 C 4.425781 -37.578125 4.6875 -37.25 4.6875 -36.875 Z M 4.6875 -36.875 "/></g></g></g><g fill="#ffffff" fill-opacity="1"><g transform="translate(216.616606, 63.49996)"><g><path d="M 14.8125 -7.890625 C 14.914062 -7.921875 15.070312 -7.9375 15.28125 -7.9375 C 15.5 -7.9375 15.617188 -7.84375 15.640625 -7.65625 C 15.691406 -7.332031 15.625 -7.078125 15.4375 -6.890625 C 15.257812 -6.703125 15.023438 -6.5625 14.734375 -6.46875 C 14.453125 -6.382812 14.175781 -6.328125 13.90625 -6.296875 C 13.21875 -6.203125 12.539062 -6.265625 11.875 -6.484375 C 11.207031 -6.703125 10.648438 -7.082031 10.203125 -7.625 C 9.804688 -8.207031 9.488281 -8.960938 9.25 -9.890625 C 9.007812 -10.828125 8.851562 -11.988281 8.78125 -13.375 C 8.707031 -14.769531 8.726562 -16.4375 8.84375 -18.375 C 8.96875 -20.320312 9.1875 -22.585938 9.5 -25.171875 C 9.820312 -27.765625 10.25 -30.726562 10.78125 -34.0625 C 10.78125 -34.5625 10.773438 -35.0625 10.765625 -35.5625 C 10.765625 -36.0625 10.75 -36.550781 10.71875 -37.03125 C 10.707031 -37.070312 10.703125 -37.109375 10.703125 -37.140625 C 10.703125 -37.179688 10.703125 -37.222656 10.703125 -37.265625 C 10.492188 -36.898438 10.316406 -36.601562 10.171875 -36.375 C 9.890625 -35.925781 9.640625 -35.46875 9.421875 -35 C 9.210938 -34.53125 9.003906 -34.054688 8.796875 -33.578125 C 8.347656 -32.546875 7.953125 -31.488281 7.609375 -30.40625 C 7.273438 -29.332031 6.957031 -28.253906 6.65625 -27.171875 C 6.0625 -24.941406 5.476562 -22.691406 4.90625 -20.421875 C 4.332031 -18.160156 3.785156 -15.90625 3.265625 -13.65625 C 3.210938 -13.4375 3.070312 -13.265625 2.84375 -13.140625 C 2.625 -13.015625 2.367188 -12.941406 2.078125 -12.921875 C 1.796875 -12.898438 1.53125 -12.929688 1.28125 -13.015625 C 1.039062 -13.097656 0.867188 -13.234375 0.765625 -13.421875 C 0.253906 -14.347656 -0.113281 -15.335938 -0.34375 -16.390625 C -0.582031 -17.441406 -0.734375 -18.515625 -0.796875 -19.609375 C -0.867188 -20.703125 -0.910156 -21.757812 -0.921875 -22.78125 C -0.921875 -23.738281 -0.890625 -24.695312 -0.828125 -25.65625 C -0.773438 -26.625 -0.695312 -27.546875 -0.59375 -28.421875 C -0.488281 -29.304688 -0.367188 -30.09375 -0.234375 -30.78125 C -0.109375 -31.46875 0.0234375 -32.015625 0.171875 -32.421875 C 0.242188 -32.617188 0.425781 -32.785156 0.71875 -32.921875 C 1.007812 -33.066406 1.328125 -33.15625 1.671875 -33.1875 C 2.023438 -33.226562 2.328125 -33.1875 2.578125 -33.0625 C 2.835938 -32.945312 2.957031 -32.722656 2.9375 -32.390625 C 2.832031 -30.640625 2.773438 -28.984375 2.765625 -27.421875 C 2.753906 -25.859375 2.796875 -24.269531 2.890625 -22.65625 C 2.898438 -22.425781 2.910156 -22.191406 2.921875 -21.953125 C 2.941406 -21.722656 2.957031 -21.488281 2.96875 -21.25 C 3.3125 -22.71875 3.648438 -24.179688 3.984375 -25.640625 C 4.328125 -27.097656 4.71875 -28.539062 5.15625 -29.96875 C 5.570312 -31.269531 6.035156 -32.550781 6.546875 -33.8125 C 7.054688 -35.070312 7.582031 -36.328125 8.125 -37.578125 C 8.332031 -38.046875 8.578125 -38.507812 8.859375 -38.96875 C 9.140625 -39.4375 9.460938 -39.835938 9.828125 -40.171875 C 10.203125 -40.503906 10.625 -40.710938 11.09375 -40.796875 C 11.3125 -40.835938 11.578125 -40.800781 11.890625 -40.6875 C 12.203125 -40.582031 12.519531 -40.429688 12.84375 -40.234375 C 13.164062 -40.035156 13.445312 -39.832031 13.6875 -39.625 C 13.925781 -39.414062 14.078125 -39.234375 14.140625 -39.078125 C 14.359375 -38.523438 14.5 -37.898438 14.5625 -37.203125 C 14.632812 -36.515625 14.65625 -35.84375 14.625 -35.1875 C 14.601562 -34.539062 14.566406 -34 14.515625 -33.5625 C 14.410156 -32.644531 14.265625 -31.609375 14.078125 -30.453125 C 13.898438 -29.304688 13.707031 -28.082031 13.5 -26.78125 C 13.289062 -25.476562 13.09375 -24.148438 12.90625 -22.796875 C 12.726562 -21.441406 12.582031 -20.101562 12.46875 -18.78125 C 12.363281 -17.457031 12.3125 -16.195312 12.3125 -15 C 12.3125 -13.8125 12.390625 -12.726562 12.546875 -11.75 C 12.710938 -10.78125 12.976562 -9.957031 13.34375 -9.28125 C 13.707031 -8.613281 14.195312 -8.148438 14.8125 -7.890625 Z M 14.8125 -7.890625 "/></g></g></g><g fill="#ffffff" fill-opacity="1"><g transform="translate(233.411839, 63.49996)"><g><path d="M 15.640625 -27.5 C 15.660156 -27.5625 15.738281 -27.597656 15.875 -27.609375 C 16.019531 -27.628906 16.164062 -27.625 16.3125 -27.59375 C 16.457031 -27.570312 16.519531 -27.53125 16.5 -27.46875 C 16.3125 -25.832031 16.050781 -24.195312 15.71875 -22.5625 C 15.382812 -20.9375 14.9375 -19.347656 14.375 -17.796875 C 14.164062 -17.210938 13.929688 -16.613281 13.671875 -16 C 13.410156 -15.394531 13.09375 -14.859375 12.71875 -14.390625 C 12.351562 -13.921875 11.894531 -13.585938 11.34375 -13.390625 C 10.800781 -13.191406 10.140625 -13.195312 9.359375 -13.40625 C 8.722656 -13.582031 8.222656 -13.914062 7.859375 -14.40625 C 7.492188 -14.90625 7.222656 -15.492188 7.046875 -16.171875 C 6.867188 -16.847656 6.75 -17.539062 6.6875 -18.25 C 6.550781 -17.832031 6.40625 -17.414062 6.25 -17 C 6.101562 -16.59375 5.941406 -16.191406 5.765625 -15.796875 C 5.523438 -15.265625 5.238281 -14.757812 4.90625 -14.28125 C 4.582031 -13.8125 4.207031 -13.414062 3.78125 -13.09375 C 3.351562 -12.78125 2.875 -12.578125 2.34375 -12.484375 C 1.820312 -12.398438 1.238281 -12.484375 0.59375 -12.734375 C 0.03125 -12.953125 -0.414062 -13.28125 -0.75 -13.71875 C -1.09375 -14.15625 -1.351562 -14.644531 -1.53125 -15.1875 C -1.707031 -15.738281 -1.832031 -16.304688 -1.90625 -16.890625 C -1.976562 -17.484375 -2.023438 -18.039062 -2.046875 -18.5625 C -2.128906 -19.945312 -2.09375 -21.328125 -1.9375 -22.703125 C -1.78125 -24.078125 -1.519531 -25.4375 -1.15625 -26.78125 C -1 -27.351562 -0.816406 -27.96875 -0.609375 -28.625 C -0.410156 -29.28125 -0.175781 -29.929688 0.09375 -30.578125 C 0.375 -31.222656 0.695312 -31.820312 1.0625 -32.375 C 1.425781 -32.9375 1.851562 -33.414062 2.34375 -33.8125 C 2.71875 -34.113281 3.148438 -34.34375 3.640625 -34.5 C 4.140625 -34.664062 4.648438 -34.75 5.171875 -34.75 C 5.691406 -34.75 6.191406 -34.660156 6.671875 -34.484375 C 7.160156 -34.304688 7.570312 -34.03125 7.90625 -33.65625 C 7.9375 -33.625 7.960938 -33.59375 7.984375 -33.5625 C 8.015625 -33.53125 8.039062 -33.492188 8.0625 -33.453125 C 8.445312 -33.554688 8.835938 -33.59375 9.234375 -33.5625 C 9.640625 -33.539062 9.984375 -33.453125 10.265625 -33.296875 C 10.546875 -33.140625 10.671875 -32.921875 10.640625 -32.640625 C 10.515625 -30.828125 10.394531 -29 10.28125 -27.15625 C 10.175781 -25.3125 10.148438 -23.472656 10.203125 -21.640625 C 10.253906 -19.816406 10.453125 -18.007812 10.796875 -16.21875 C 10.816406 -16.082031 10.84375 -15.945312 10.875 -15.8125 C 10.90625 -15.675781 10.941406 -15.539062 10.984375 -15.40625 C 11.117188 -15.582031 11.25 -15.753906 11.375 -15.921875 C 11.5 -16.085938 11.613281 -16.253906 11.71875 -16.421875 C 12.082031 -16.960938 12.410156 -17.507812 12.703125 -18.0625 C 12.992188 -18.625 13.265625 -19.195312 13.515625 -19.78125 C 14.046875 -21.019531 14.484375 -22.28125 14.828125 -23.5625 C 15.179688 -24.84375 15.453125 -26.15625 15.640625 -27.5 Z M 5 -22.46875 C 5.351562 -23.695312 5.640625 -24.941406 5.859375 -26.203125 C 6.078125 -27.460938 6.289062 -28.722656 6.5 -29.984375 C 6.414062 -30.242188 6.300781 -30.5 6.15625 -30.75 C 6.019531 -30.96875 5.894531 -31.1875 5.78125 -31.40625 C 5.664062 -31.625 5.535156 -31.835938 5.390625 -32.046875 C 5.335938 -32.128906 5.28125 -32.207031 5.21875 -32.28125 C 5.164062 -32.363281 5.109375 -32.441406 5.046875 -32.515625 C 4.953125 -32.378906 4.863281 -32.238281 4.78125 -32.09375 C 4.695312 -31.945312 4.613281 -31.800781 4.53125 -31.65625 C 4.40625 -31.4375 4.28125 -31.207031 4.15625 -30.96875 C 4.039062 -30.726562 3.929688 -30.484375 3.828125 -30.234375 C 3.359375 -29.222656 2.96875 -28.1875 2.65625 -27.125 C 2.300781 -25.976562 2.035156 -24.800781 1.859375 -23.59375 C 1.691406 -22.394531 1.609375 -21.195312 1.609375 -20 C 1.609375 -19.46875 1.617188 -18.929688 1.640625 -18.390625 C 1.671875 -17.847656 1.726562 -17.3125 1.8125 -16.78125 C 1.84375 -16.625 1.890625 -16.375 1.953125 -16.03125 C 2.015625 -15.6875 2.109375 -15.359375 2.234375 -15.046875 C 2.460938 -15.367188 2.671875 -15.738281 2.859375 -16.15625 C 3.046875 -16.582031 3.210938 -16.988281 3.359375 -17.375 C 3.515625 -17.757812 3.625 -18.039062 3.6875 -18.21875 C 3.945312 -18.914062 4.179688 -19.617188 4.390625 -20.328125 C 4.597656 -21.035156 4.800781 -21.75 5 -22.46875 Z M 5 -22.46875 "/></g></g></g><g fill="#ffffff" fill-opacity="1"><g transform="translate(249.172022, 63.49996)"><g><path d="M 10.390625 -23.75 C 10.328125 -23.632812 10.164062 -23.550781 9.90625 -23.5 C 9.65625 -23.445312 9.378906 -23.429688 9.078125 -23.453125 C 8.785156 -23.472656 8.539062 -23.53125 8.34375 -23.625 C 8.144531 -23.71875 8.070312 -23.851562 8.125 -24.03125 C 8.28125 -24.582031 8.429688 -25.207031 8.578125 -25.90625 C 8.722656 -26.601562 8.8125 -27.316406 8.84375 -28.046875 C 8.882812 -28.785156 8.84375 -29.5 8.71875 -30.1875 C 8.59375 -30.882812 8.347656 -31.519531 7.984375 -32.09375 C 7.617188 -32.664062 7.09375 -33.128906 6.40625 -33.484375 C 6 -33.691406 5.675781 -33.773438 5.4375 -33.734375 C 5.195312 -33.703125 4.910156 -33.550781 4.578125 -33.28125 C 4.128906 -32.914062 3.742188 -32.460938 3.421875 -31.921875 C 3.097656 -31.378906 2.835938 -30.835938 2.640625 -30.296875 C 2.191406 -29.015625 2.101562 -27.726562 2.375 -26.4375 C 2.65625 -25.144531 3.234375 -23.988281 4.109375 -22.96875 C 4.503906 -22.5 4.945312 -22.082031 5.4375 -21.71875 C 5.925781 -21.363281 6.425781 -21.023438 6.9375 -20.703125 C 7.457031 -20.390625 7.960938 -20.0625 8.453125 -19.71875 C 8.941406 -19.382812 9.394531 -19 9.8125 -18.5625 C 10.34375 -18 10.695312 -17.390625 10.875 -16.734375 C 11.0625 -16.078125 11.046875 -15.4375 10.828125 -14.8125 C 10.617188 -14.195312 10.1875 -13.660156 9.53125 -13.203125 C 8.9375 -12.785156 8.273438 -12.484375 7.546875 -12.296875 C 6.816406 -12.109375 6.09375 -11.992188 5.375 -11.953125 C 4.21875 -11.898438 3.164062 -12.050781 2.21875 -12.40625 C 1.269531 -12.769531 0.5 -13.34375 -0.09375 -14.125 C -0.6875 -14.90625 -1.046875 -15.894531 -1.171875 -17.09375 C -1.203125 -17.351562 -1.097656 -17.5625 -0.859375 -17.71875 C -0.628906 -17.882812 -0.332031 -18 0.03125 -18.0625 C 0.40625 -18.132812 0.773438 -18.148438 1.140625 -18.109375 C 1.515625 -18.066406 1.832031 -17.96875 2.09375 -17.8125 C 2.363281 -17.65625 2.515625 -17.441406 2.546875 -17.171875 C 2.597656 -16.710938 2.703125 -16.234375 2.859375 -15.734375 C 3.015625 -15.242188 3.25 -14.820312 3.5625 -14.46875 C 3.882812 -14.125 4.316406 -13.925781 4.859375 -13.875 C 5.203125 -13.84375 5.546875 -13.890625 5.890625 -14.015625 C 6.242188 -14.140625 6.546875 -14.320312 6.796875 -14.5625 C 7.054688 -14.8125 7.222656 -15.125 7.296875 -15.5 C 7.367188 -15.875 7.300781 -16.296875 7.09375 -16.765625 C 6.925781 -17.160156 6.679688 -17.5 6.359375 -17.78125 C 6.035156 -18.070312 5.6875 -18.332031 5.3125 -18.5625 C 4.9375 -18.789062 4.570312 -19.015625 4.21875 -19.234375 C 3.726562 -19.546875 3.242188 -19.878906 2.765625 -20.234375 C 2.285156 -20.597656 1.835938 -20.984375 1.421875 -21.390625 C 0.609375 -22.191406 -0.0664062 -23.097656 -0.609375 -24.109375 C -1.148438 -25.128906 -1.445312 -26.226562 -1.5 -27.40625 C -1.539062 -28.34375 -1.425781 -29.265625 -1.15625 -30.171875 C -0.882812 -31.078125 -0.484375 -31.910156 0.046875 -32.671875 C 0.585938 -33.441406 1.222656 -34.085938 1.953125 -34.609375 C 2.691406 -35.128906 3.507812 -35.476562 4.40625 -35.65625 C 5.3125 -35.832031 6.257812 -35.789062 7.25 -35.53125 C 8.34375 -35.238281 9.226562 -34.773438 9.90625 -34.140625 C 10.59375 -33.515625 11.097656 -32.78125 11.421875 -31.9375 C 11.753906 -31.09375 11.921875 -30.191406 11.921875 -29.234375 C 11.929688 -28.285156 11.800781 -27.335938 11.53125 -26.390625 C 11.269531 -25.453125 10.890625 -24.570312 10.390625 -23.75 Z M 10.390625 -23.75 "/></g></g></g></svg>