<svg xmlns="http://www.w3.org/2000/svg" xmlns:xlink="http://www.w3.org/1999/xlink" width="1000" zoomAndPan="magnify" viewBox="0 0 750 74.999997" height="100" preserveAspectRatio="xMidYMid meet" version="1.0"><defs><g/></defs><g fill="#ffffff" fill-opacity="1"><g transform="translate(9.304702, 63.499967)"><g><path d="M 1.234375 -5.3125 C 0.734375 -5.71875 0.414062 -6.203125 0.28125 -6.765625 C 0.144531 -7.335938 0.15625 -7.914062 0.3125 -8.5 C 0.46875 -9.082031 0.722656 -9.601562 1.078125 -10.0625 C 1.515625 -10.632812 2.039062 -11.101562 2.65625 -11.46875 C 3.28125 -11.832031 3.945312 -12.113281 4.65625 -12.3125 C 5.363281 -12.519531 6.066406 -12.640625 6.765625 -12.671875 C 7.078125 -12.703125 7.390625 -12.707031 7.703125 -12.6875 C 8.015625 -12.675781 8.316406 -12.660156 8.609375 -12.640625 C 8.609375 -12.640625 8.625 -12.664062 8.65625 -12.71875 C 9.875 -15.4375 10.828125 -18.238281 11.515625 -21.125 C 12.203125 -24.019531 12.707031 -26.953125 13.03125 -29.921875 C 13.351562 -32.890625 13.585938 -35.847656 13.734375 -38.796875 C 13.835938 -40.960938 13.941406 -43.144531 14.046875 -45.34375 C 14.148438 -47.539062 14.144531 -49.722656 14.03125 -51.890625 C 13.976562 -52.972656 13.878906 -54.101562 13.734375 -55.28125 C 13.597656 -56.457031 13.304688 -57.550781 12.859375 -58.5625 C 12.816406 -58.644531 12.753906 -58.769531 12.671875 -58.9375 C 12.585938 -59.113281 12.492188 -59.28125 12.390625 -59.4375 C 12.296875 -59.601562 12.191406 -59.707031 12.078125 -59.75 C 11.503906 -59.976562 10.945312 -59.972656 10.40625 -59.734375 C 9.863281 -59.492188 9.347656 -59.078125 8.859375 -58.484375 C 8.367188 -57.890625 7.910156 -57.175781 7.484375 -56.34375 C 7.066406 -55.507812 6.679688 -54.609375 6.328125 -53.640625 C 5.972656 -52.679688 5.671875 -51.710938 5.421875 -50.734375 C 5.171875 -49.753906 4.96875 -48.816406 4.8125 -47.921875 C 4.65625 -47.023438 4.5625 -46.234375 4.53125 -45.546875 C 4.53125 -45.390625 4.523438 -45.164062 4.515625 -44.875 C 4.515625 -44.582031 4.53125 -44.257812 4.5625 -43.90625 C 4.59375 -43.550781 4.65625 -43.210938 4.75 -42.890625 C 4.851562 -42.566406 4.992188 -42.289062 5.171875 -42.0625 C 5.359375 -41.84375 5.609375 -41.722656 5.921875 -41.703125 C 6.285156 -41.671875 6.648438 -41.84375 7.015625 -42.21875 C 7.390625 -42.601562 7.753906 -43.101562 8.109375 -43.71875 C 8.472656 -44.34375 8.800781 -45 9.09375 -45.6875 C 9.394531 -46.382812 9.660156 -47.050781 9.890625 -47.6875 C 10.117188 -48.320312 10.285156 -48.832031 10.390625 -49.21875 C 10.429688 -49.363281 10.550781 -49.46875 10.75 -49.53125 C 10.957031 -49.59375 11.175781 -49.613281 11.40625 -49.59375 C 11.644531 -49.582031 11.84375 -49.523438 12 -49.421875 C 12.15625 -49.328125 12.207031 -49.1875 12.15625 -49 C 11.8125 -47.625 11.300781 -46.257812 10.625 -44.90625 C 9.957031 -43.550781 9.117188 -42.375 8.109375 -41.375 C 7.734375 -41.007812 7.273438 -40.75 6.734375 -40.59375 C 6.191406 -40.4375 5.664062 -40.4375 5.15625 -40.59375 C 4.644531 -40.75 4.226562 -41.113281 3.90625 -41.6875 C 3.488281 -42.4375 3.222656 -43.328125 3.109375 -44.359375 C 2.992188 -45.398438 2.992188 -46.515625 3.109375 -47.703125 C 3.234375 -48.898438 3.457031 -50.101562 3.78125 -51.3125 C 4.113281 -52.53125 4.515625 -53.710938 4.984375 -54.859375 C 5.460938 -56.003906 5.988281 -57.050781 6.5625 -58 C 7.144531 -58.945312 7.753906 -59.738281 8.390625 -60.375 C 9.023438 -61.007812 9.660156 -61.425781 10.296875 -61.625 C 10.984375 -61.832031 11.691406 -61.910156 12.421875 -61.859375 C 13.148438 -61.816406 13.832031 -61.632812 14.46875 -61.3125 C 15.113281 -61 15.632812 -60.53125 16.03125 -59.90625 C 16.476562 -59.238281 16.8125 -58.484375 17.03125 -57.640625 C 17.25 -56.796875 17.40625 -55.929688 17.5 -55.046875 C 17.601562 -54.160156 17.679688 -53.328125 17.734375 -52.546875 C 17.835938 -51.117188 17.867188 -49.6875 17.828125 -48.25 C 17.796875 -46.8125 17.742188 -45.378906 17.671875 -43.953125 C 17.585938 -41.253906 17.457031 -38.53125 17.28125 -35.78125 C 17.113281 -33.03125 16.847656 -30.289062 16.484375 -27.5625 C 16.117188 -24.84375 15.582031 -22.160156 14.875 -19.515625 C 14.175781 -16.867188 13.242188 -14.3125 12.078125 -11.84375 C 13.222656 -11.445312 14.347656 -10.96875 15.453125 -10.40625 C 16.554688 -9.851562 17.660156 -9.304688 18.765625 -8.765625 C 19.878906 -8.222656 21 -7.765625 22.125 -7.390625 C 23.144531 -7.054688 24.191406 -6.863281 25.265625 -6.8125 C 26.347656 -6.757812 27.382812 -6.878906 28.375 -7.171875 C 29.363281 -7.472656 30.234375 -7.96875 30.984375 -8.65625 C 31.734375 -9.351562 32.285156 -10.289062 32.640625 -11.46875 C 32.703125 -11.695312 32.878906 -11.875 33.171875 -12 C 33.460938 -12.132812 33.796875 -12.210938 34.171875 -12.234375 C 34.554688 -12.265625 34.921875 -12.238281 35.265625 -12.15625 C 35.609375 -12.070312 35.878906 -11.9375 36.078125 -11.75 C 36.285156 -11.5625 36.34375 -11.316406 36.25 -11.015625 C 35.976562 -10.117188 35.566406 -9.328125 35.015625 -8.640625 C 34.472656 -7.960938 33.828125 -7.367188 33.078125 -6.859375 C 32.335938 -6.359375 31.546875 -5.953125 30.703125 -5.640625 C 29.859375 -5.328125 29.003906 -5.09375 28.140625 -4.9375 C 26.710938 -4.707031 25.300781 -4.6875 23.90625 -4.875 C 22.507812 -5.0625 21.140625 -5.390625 19.796875 -5.859375 C 18.460938 -6.335938 17.15625 -6.878906 15.875 -7.484375 C 15.269531 -7.765625 14.539062 -8.140625 13.6875 -8.609375 C 12.84375 -9.078125 11.957031 -9.507812 11.03125 -9.90625 C 10.582031 -9.113281 10.0625 -8.363281 9.46875 -7.65625 C 8.882812 -6.957031 8.222656 -6.335938 7.484375 -5.796875 C 7.066406 -5.503906 6.585938 -5.242188 6.046875 -5.015625 C 5.515625 -4.796875 4.960938 -4.644531 4.390625 -4.5625 C 3.816406 -4.476562 3.257812 -4.488281 2.71875 -4.59375 C 2.1875 -4.707031 1.691406 -4.945312 1.234375 -5.3125 Z M 3.875 -7.703125 C 3.875 -7.609375 3.890625 -7.472656 3.921875 -7.296875 C 3.953125 -7.117188 4.019531 -6.984375 4.125 -6.890625 C 4.238281 -6.804688 4.40625 -6.847656 4.625 -7.015625 C 4.820312 -7.160156 5.007812 -7.316406 5.1875 -7.484375 C 5.363281 -7.648438 5.535156 -7.816406 5.703125 -7.984375 C 6.109375 -8.398438 6.46875 -8.84375 6.78125 -9.3125 C 7.101562 -9.78125 7.398438 -10.265625 7.671875 -10.765625 C 7.035156 -10.785156 6.441406 -10.6875 5.890625 -10.46875 C 5.335938 -10.25 4.851562 -9.847656 4.4375 -9.265625 C 4.300781 -9.078125 4.175781 -8.835938 4.0625 -8.546875 C 3.957031 -8.265625 3.894531 -7.984375 3.875 -7.703125 Z M 3.875 -7.703125 "/></g></g></g><g fill="#ffffff" fill-opacity="1"><g transform="translate(32.036855, 63.499967)"><g><path d="M 15.640625 -27.5 C 15.660156 -27.5625 15.738281 -27.597656 15.875 -27.609375 C 16.019531 -27.628906 16.164062 -27.625 16.3125 -27.59375 C 16.457031 -27.570312 16.519531 -27.53125 16.5 -27.46875 C 16.3125 -25.832031 16.050781 -24.195312 15.71875 -22.5625 C 15.382812 -20.9375 14.9375 -19.347656 14.375 -17.796875 C 14.164062 -17.210938 13.929688 -16.613281 13.671875 -16 C 13.410156 -15.394531 13.09375 -14.859375 12.71875 -14.390625 C 12.351562 -13.921875 11.894531 -13.585938 11.34375 -13.390625 C 10.800781 -13.191406 10.140625 -13.195312 9.359375 -13.40625 C 8.722656 -13.582031 8.222656 -13.914062 7.859375 -14.40625 C 7.492188 -14.90625 7.222656 -15.492188 7.046875 -16.171875 C 6.867188 -16.847656 6.75 -17.539062 6.6875 -18.25 C 6.550781 -17.832031 6.40625 -17.414062 6.25 -17 C 6.101562 -16.59375 5.941406 -16.191406 5.765625 -15.796875 C 5.523438 -15.265625 5.238281 -14.757812 4.90625 -14.28125 C 4.582031 -13.8125 4.207031 -13.414062 3.78125 -13.09375 C 3.351562 -12.78125 2.875 -12.578125 2.34375 -12.484375 C 1.820312 -12.398438 1.238281 -12.484375 0.59375 -12.734375 C 0.03125 -12.953125 -0.414062 -13.28125 -0.75 -13.71875 C -1.09375 -14.15625 -1.351562 -14.644531 -1.53125 -15.1875 C -1.707031 -15.738281 -1.832031 -16.304688 -1.90625 -16.890625 C -1.976562 -17.484375 -2.023438 -18.039062 -2.046875 -18.5625 C -2.128906 -19.945312 -2.09375 -21.328125 -1.9375 -22.703125 C -1.78125 -24.078125 -1.519531 -25.4375 -1.15625 -26.78125 C -1 -27.351562 -0.816406 -27.96875 -0.609375 -28.625 C -0.410156 -29.28125 -0.175781 -29.929688 0.09375 -30.578125 C 0.375 -31.222656 0.695312 -31.820312 1.0625 -32.375 C 1.425781 -32.9375 1.851562 -33.414062 2.34375 -33.8125 C 2.71875 -34.113281 3.148438 -34.34375 3.640625 -34.5 C 4.140625 -34.664062 4.648438 -34.75 5.171875 -34.75 C 5.691406 -34.75 6.191406 -34.660156 6.671875 -34.484375 C 7.160156 -34.304688 7.570312 -34.03125 7.90625 -33.65625 C 7.9375 -33.625 7.960938 -33.59375 7.984375 -33.5625 C 8.015625 -33.53125 8.039062 -33.492188 8.0625 -33.453125 C 8.445312 -33.554688 8.835938 -33.59375 9.234375 -33.5625 C 9.640625 -33.539062 9.984375 -33.453125 10.265625 -33.296875 C 10.546875 -33.140625 10.671875 -32.921875 10.640625 -32.640625 C 10.515625 -30.828125 10.394531 -29 10.28125 -27.15625 C 10.175781 -25.3125 10.148438 -23.472656 10.203125 -21.640625 C 10.253906 -19.816406 10.453125 -18.007812 10.796875 -16.21875 C 10.816406 -16.082031 10.84375 -15.945312 10.875 -15.8125 C 10.90625 -15.675781 10.941406 -15.539062 10.984375 -15.40625 C 11.117188 -15.582031 11.25 -15.753906 11.375 -15.921875 C 11.5 -16.085938 11.613281 -16.253906 11.71875 -16.421875 C 12.082031 -16.960938 12.410156 -17.507812 12.703125 -18.0625 C 12.992188 -18.625 13.265625 -19.195312 13.515625 -19.78125 C 14.046875 -21.019531 14.484375 -22.28125 14.828125 -23.5625 C 15.179688 -24.84375 15.453125 -26.15625 15.640625 -27.5 Z M 5 -22.46875 C 5.351562 -23.695312 5.640625 -24.941406 5.859375 -26.203125 C 6.078125 -27.460938 6.289062 -28.722656 6.5 -29.984375 C 6.414062 -30.242188 6.300781 -30.5 6.15625 -30.75 C 6.019531 -30.96875 5.894531 -31.1875 5.78125 -31.40625 C 5.664062 -31.625 5.535156 -31.835938 5.390625 -32.046875 C 5.335938 -32.128906 5.28125 -32.207031 5.21875 -32.28125 C 5.164062 -32.363281 5.109375 -32.441406 5.046875 -32.515625 C 4.953125 -32.378906 4.863281 -32.238281 4.78125 -32.09375 C 4.695312 -31.945312 4.613281 -31.800781 4.53125 -31.65625 C 4.40625 -31.4375 4.28125 -31.207031 4.15625 -30.96875 C 4.039062 -30.726562 3.929688 -30.484375 3.828125 -30.234375 C 3.359375 -29.222656 2.96875 -28.1875 2.65625 -27.125 C 2.300781 -25.976562 2.035156 -24.800781 1.859375 -23.59375 C 1.691406 -22.394531 1.609375 -21.195312 1.609375 -20 C 1.609375 -19.46875 1.617188 -18.929688 1.640625 -18.390625 C 1.671875 -17.847656 1.726562 -17.3125 1.8125 -16.78125 C 1.84375 -16.625 1.890625 -16.375 1.953125 -16.03125 C 2.015625 -15.6875 2.109375 -15.359375 2.234375 -15.046875 C 2.460938 -15.367188 2.671875 -15.738281 2.859375 -16.15625 C 3.046875 -16.582031 3.210938 -16.988281 3.359375 -17.375 C 3.515625 -17.757812 3.625 -18.039062 3.6875 -18.21875 C 3.945312 -18.914062 4.179688 -19.617188 4.390625 -20.328125 C 4.597656 -21.035156 4.800781 -21.75 5 -22.46875 Z M 5 -22.46875 "/></g></g></g><g fill="#ffffff" fill-opacity="1"><g transform="translate(47.797039, 63.499967)"><g/></g></g><g fill="#ffffff" fill-opacity="1"><g transform="translate(57.620303, 63.499967)"><g><path d="M 34.078125 -35.625 C 34.984375 -35.3125 35.75 -34.863281 36.375 -34.28125 C 37 -33.695312 37.492188 -33.019531 37.859375 -32.25 C 38.234375 -31.476562 38.5 -30.660156 38.65625 -29.796875 C 38.820312 -28.929688 38.898438 -28.054688 38.890625 -27.171875 C 38.878906 -25.390625 38.664062 -23.613281 38.25 -21.84375 C 37.832031 -20.070312 37.257812 -18.332031 36.53125 -16.625 C 35.8125 -14.925781 34.96875 -13.296875 34 -11.734375 C 33.039062 -10.171875 32 -8.710938 30.875 -7.359375 C 29.851562 -6.109375 28.71875 -4.945312 27.46875 -3.875 C 26.21875 -2.800781 24.878906 -1.863281 23.453125 -1.0625 C 22.023438 -0.269531 20.523438 0.328125 18.953125 0.734375 C 17.390625 1.140625 15.765625 1.3125 14.078125 1.25 C 13.171875 1.207031 12.253906 1.078125 11.328125 0.859375 C 10.398438 0.648438 9.539062 0.304688 8.75 -0.171875 C 7.96875 -0.660156 7.3125 -1.3125 6.78125 -2.125 C 6.332031 -2.832031 6.023438 -3.585938 5.859375 -4.390625 C 5.691406 -5.203125 5.628906 -6.035156 5.671875 -6.890625 C 5.722656 -7.742188 5.847656 -8.582031 6.046875 -9.40625 C 6.242188 -10.226562 6.492188 -11.003906 6.796875 -11.734375 C 7.265625 -12.859375 7.878906 -13.910156 8.640625 -14.890625 C 9.398438 -15.878906 10.269531 -16.742188 11.25 -17.484375 C 12.238281 -18.234375 13.300781 -18.828125 14.4375 -19.265625 C 14.445312 -19.390625 14.457031 -19.503906 14.46875 -19.609375 C 14.488281 -19.722656 14.503906 -19.828125 14.515625 -19.921875 C 14.671875 -21.472656 14.796875 -23.023438 14.890625 -24.578125 C 14.992188 -26.140625 15.050781 -27.691406 15.0625 -29.234375 C 15.082031 -31.859375 14.972656 -34.476562 14.734375 -37.09375 C 14.503906 -39.707031 14.097656 -42.289062 13.515625 -44.84375 C 13.234375 -46.132812 12.890625 -47.410156 12.484375 -48.671875 C 12.085938 -49.929688 11.617188 -51.171875 11.078125 -52.390625 C 10.828125 -52.960938 10.550781 -53.519531 10.25 -54.0625 C 9.957031 -54.613281 9.640625 -55.148438 9.296875 -55.671875 C 9.234375 -55.773438 9.125 -55.910156 8.96875 -56.078125 C 8.8125 -56.253906 8.632812 -56.414062 8.4375 -56.5625 C 8.238281 -56.71875 8.039062 -56.816406 7.84375 -56.859375 C 7.644531 -56.898438 7.46875 -56.828125 7.3125 -56.640625 C 6.800781 -56.066406 6.347656 -55.410156 5.953125 -54.671875 C 5.554688 -53.929688 5.207031 -53.164062 4.90625 -52.375 C 4.613281 -51.582031 4.359375 -50.820312 4.140625 -50.09375 C 4.023438 -49.695312 3.894531 -49.1875 3.75 -48.5625 C 3.601562 -47.945312 3.472656 -47.28125 3.359375 -46.5625 C 3.242188 -45.84375 3.15625 -45.125 3.09375 -44.40625 C 3.039062 -43.695312 3.023438 -43.035156 3.046875 -42.421875 C 3.078125 -41.804688 3.164062 -41.300781 3.3125 -40.90625 C 3.457031 -40.507812 3.679688 -40.28125 3.984375 -40.21875 C 4.398438 -40.125 4.796875 -40.242188 5.171875 -40.578125 C 5.554688 -40.910156 5.914062 -41.390625 6.25 -42.015625 C 6.59375 -42.640625 6.910156 -43.332031 7.203125 -44.09375 C 7.492188 -44.863281 7.753906 -45.640625 7.984375 -46.421875 C 8.222656 -47.203125 8.425781 -47.921875 8.59375 -48.578125 C 8.757812 -49.242188 8.894531 -49.769531 9 -50.15625 C 9.039062 -50.300781 9.164062 -50.40625 9.375 -50.46875 C 9.582031 -50.53125 9.8125 -50.554688 10.0625 -50.546875 C 10.320312 -50.535156 10.539062 -50.488281 10.71875 -50.40625 C 10.90625 -50.332031 10.976562 -50.21875 10.9375 -50.0625 C 10.820312 -49.5 10.648438 -48.820312 10.421875 -48.03125 C 10.203125 -47.238281 9.929688 -46.398438 9.609375 -45.515625 C 9.296875 -44.640625 8.929688 -43.785156 8.515625 -42.953125 C 8.097656 -42.117188 7.628906 -41.375 7.109375 -40.71875 C 6.597656 -40.0625 6.039062 -39.554688 5.4375 -39.203125 C 4.84375 -38.847656 4.203125 -38.722656 3.515625 -38.828125 C 3.191406 -38.878906 2.875 -39 2.5625 -39.1875 C 2.25 -39.375 1.984375 -39.671875 1.765625 -40.078125 C 1.398438 -40.734375 1.160156 -41.515625 1.046875 -42.421875 C 0.929688 -43.335938 0.914062 -44.316406 1 -45.359375 C 1.09375 -46.410156 1.253906 -47.476562 1.484375 -48.5625 C 1.722656 -49.65625 2.003906 -50.710938 2.328125 -51.734375 C 2.660156 -52.765625 3.019531 -53.71875 3.40625 -54.59375 C 3.800781 -55.46875 4.195312 -56.195312 4.59375 -56.78125 C 5.03125 -57.445312 5.5625 -57.960938 6.1875 -58.328125 C 6.8125 -58.703125 7.492188 -58.90625 8.234375 -58.9375 C 8.972656 -58.976562 9.707031 -58.8125 10.4375 -58.4375 C 11.0625 -58.125 11.617188 -57.703125 12.109375 -57.171875 C 12.609375 -56.640625 13.050781 -56.039062 13.4375 -55.375 C 13.832031 -54.71875 14.175781 -54.046875 14.46875 -53.359375 C 14.769531 -52.679688 15.039062 -52.03125 15.28125 -51.40625 C 15.9375 -49.6875 16.488281 -47.929688 16.9375 -46.140625 C 17.394531 -44.347656 17.757812 -42.535156 18.03125 -40.703125 C 18.289062 -41.671875 18.5625 -42.628906 18.84375 -43.578125 C 19.132812 -44.523438 19.441406 -45.46875 19.765625 -46.40625 C 20.179688 -47.601562 20.625 -48.789062 21.09375 -49.96875 C 21.5625 -51.144531 22.097656 -52.289062 22.703125 -53.40625 C 23.023438 -54.007812 23.394531 -54.625 23.8125 -55.25 C 24.226562 -55.875 24.707031 -56.425781 25.25 -56.90625 C 25.789062 -57.394531 26.414062 -57.722656 27.125 -57.890625 C 28 -58.097656 28.722656 -58.101562 29.296875 -57.90625 C 29.867188 -57.71875 30.320312 -57.375 30.65625 -56.875 C 30.988281 -56.382812 31.222656 -55.796875 31.359375 -55.109375 C 31.503906 -54.421875 31.582031 -53.6875 31.59375 -52.90625 C 31.601562 -52.125 31.566406 -51.347656 31.484375 -50.578125 C 31.410156 -49.804688 31.316406 -49.082031 31.203125 -48.40625 C 31.085938 -47.726562 30.988281 -47.15625 30.90625 -46.6875 C 30.539062 -44.707031 30.054688 -42.753906 29.453125 -40.828125 C 28.859375 -38.898438 28.203125 -36.988281 27.484375 -35.09375 C 28.523438 -35.53125 29.597656 -35.820312 30.703125 -35.96875 C 31.804688 -36.113281 32.929688 -36 34.078125 -35.625 Z M 35.15625 -26.0625 C 35.195312 -26.6875 35.207031 -27.34375 35.1875 -28.03125 C 35.164062 -28.71875 35.085938 -29.394531 34.953125 -30.0625 C 34.816406 -30.738281 34.59375 -31.367188 34.28125 -31.953125 C 33.96875 -32.535156 33.535156 -33.035156 32.984375 -33.453125 C 32.546875 -33.796875 32.078125 -33.988281 31.578125 -34.03125 C 31.085938 -34.082031 30.582031 -34.023438 30.0625 -33.859375 C 29.550781 -33.691406 29.046875 -33.472656 28.546875 -33.203125 C 28.046875 -32.929688 27.5625 -32.648438 27.09375 -32.359375 C 26.625 -32.066406 26.191406 -31.804688 25.796875 -31.578125 C 25.679688 -31.515625 25.484375 -31.457031 25.203125 -31.40625 C 24.921875 -31.351562 24.613281 -31.328125 24.28125 -31.328125 C 23.957031 -31.328125 23.65625 -31.359375 23.375 -31.421875 C 23.09375 -31.492188 22.878906 -31.609375 22.734375 -31.765625 C 22.585938 -31.929688 22.578125 -32.15625 22.703125 -32.4375 C 23.453125 -34.300781 24.164062 -36.179688 24.84375 -38.078125 C 25.519531 -39.972656 26.109375 -41.894531 26.609375 -43.84375 C 26.867188 -44.914062 27.097656 -45.988281 27.296875 -47.0625 C 27.492188 -48.132812 27.644531 -49.21875 27.75 -50.3125 C 27.800781 -50.738281 27.851562 -51.273438 27.90625 -51.921875 C 27.957031 -52.578125 27.972656 -53.226562 27.953125 -53.875 C 27.941406 -54.289062 27.832031 -54.53125 27.625 -54.59375 C 27.414062 -54.664062 27.179688 -54.492188 26.921875 -54.078125 C 26.691406 -53.710938 26.46875 -53.332031 26.25 -52.9375 C 26.039062 -52.550781 25.847656 -52.164062 25.671875 -51.78125 C 25.273438 -50.957031 24.90625 -50.125 24.5625 -49.28125 C 24.226562 -48.4375 23.910156 -47.585938 23.609375 -46.734375 C 22.972656 -44.953125 22.394531 -43.144531 21.875 -41.3125 C 21.363281 -39.488281 20.910156 -37.644531 20.515625 -35.78125 C 20.109375 -33.894531 19.757812 -32 19.46875 -30.09375 C 19.175781 -28.195312 18.878906 -26.296875 18.578125 -24.390625 C 18.535156 -23.804688 18.492188 -23.222656 18.453125 -22.640625 C 18.421875 -22.054688 18.367188 -21.476562 18.296875 -20.90625 C 18.285156 -20.75 18.273438 -20.59375 18.265625 -20.4375 C 18.253906 -20.28125 18.234375 -20.125 18.203125 -19.96875 C 18.554688 -19.96875 18.90625 -19.945312 19.25 -19.90625 C 19.59375 -19.863281 19.941406 -19.8125 20.296875 -19.75 C 20.671875 -19.664062 20.867188 -19.53125 20.890625 -19.34375 C 20.921875 -19.164062 20.847656 -18.992188 20.671875 -18.828125 C 20.492188 -18.660156 20.273438 -18.550781 20.015625 -18.5 C 19.679688 -18.445312 19.347656 -18.382812 19.015625 -18.3125 C 18.679688 -18.25 18.347656 -18.179688 18.015625 -18.109375 C 17.921875 -17.242188 17.800781 -16.382812 17.65625 -15.53125 C 17.550781 -14.945312 17.335938 -14.445312 17.015625 -14.03125 C 16.703125 -13.613281 16.34375 -13.28125 15.9375 -13.03125 C 15.53125 -12.789062 15.140625 -12.640625 14.765625 -12.578125 C 14.398438 -12.515625 14.097656 -12.535156 13.859375 -12.640625 C 13.628906 -12.753906 13.535156 -12.957031 13.578125 -13.25 C 13.628906 -13.582031 13.691406 -14.019531 13.765625 -14.5625 C 13.847656 -15.101562 13.9375 -15.671875 14.03125 -16.265625 C 13.988281 -16.242188 13.953125 -16.21875 13.921875 -16.1875 C 13.890625 -16.164062 13.859375 -16.140625 13.828125 -16.109375 C 12.765625 -15.222656 11.878906 -14.160156 11.171875 -12.921875 C 10.472656 -11.691406 9.972656 -10.398438 9.671875 -9.046875 C 9.535156 -8.441406 9.441406 -7.796875 9.390625 -7.109375 C 9.335938 -6.429688 9.359375 -5.753906 9.453125 -5.078125 C 9.554688 -4.410156 9.75 -3.785156 10.03125 -3.203125 C 10.3125 -2.617188 10.71875 -2.113281 11.25 -1.6875 C 11.8125 -1.238281 12.445312 -0.9375 13.15625 -0.78125 C 13.863281 -0.632812 14.585938 -0.59375 15.328125 -0.65625 C 16.078125 -0.71875 16.773438 -0.828125 17.421875 -0.984375 C 18.671875 -1.296875 19.863281 -1.769531 21 -2.40625 C 22.144531 -3.050781 23.21875 -3.804688 24.21875 -4.671875 C 25.21875 -5.546875 26.148438 -6.484375 27.015625 -7.484375 C 27.890625 -8.484375 28.675781 -9.5 29.375 -10.53125 C 30.40625 -12.050781 31.332031 -13.65625 32.15625 -15.34375 C 32.988281 -17.039062 33.664062 -18.789062 34.1875 -20.59375 C 34.707031 -22.394531 35.03125 -24.21875 35.15625 -26.0625 Z M 35.15625 -26.0625 "/></g></g></g><g fill="#ffffff" fill-opacity="1"><g transform="translate(99.471686, 63.499967)"><g><path d="M -0.546875 -27.890625 C -0.535156 -28.234375 -0.515625 -28.644531 -0.484375 -29.125 C -0.453125 -29.601562 -0.421875 -30.085938 -0.390625 -30.578125 C -0.367188 -31.066406 -0.359375 -31.472656 -0.359375 -31.796875 C -0.359375 -31.828125 -0.351562 -31.859375 -0.34375 -31.890625 C -0.332031 -31.929688 -0.328125 -31.96875 -0.328125 -32 C -0.671875 -32.007812 -0.976562 -32.066406 -1.25 -32.171875 C -1.519531 -32.285156 -1.65625 -32.46875 -1.65625 -32.71875 C -1.65625 -32.988281 -1.519531 -33.1875 -1.25 -33.3125 C -0.976562 -33.4375 -0.609375 -33.515625 -0.140625 -33.546875 C 0.316406 -33.578125 0.828125 -33.59375 1.390625 -33.59375 C 2.234375 -33.59375 2.941406 -33.519531 3.515625 -33.375 C 4.097656 -33.238281 4.398438 -33.019531 4.421875 -32.71875 C 4.429688 -32.5 4.34375 -32.335938 4.15625 -32.234375 C 3.96875 -32.128906 3.664062 -32.0625 3.25 -32.03125 C 3.25 -32.007812 3.25 -31.976562 3.25 -31.9375 C 3.25 -31.894531 3.25 -31.863281 3.25 -31.84375 C 3.257812 -31.488281 3.253906 -31.015625 3.234375 -30.421875 C 3.222656 -29.828125 3.203125 -29.203125 3.171875 -28.546875 C 3.140625 -27.890625 3.109375 -27.265625 3.078125 -26.671875 C 3.054688 -26.085938 3.039062 -25.625 3.03125 -25.28125 C 2.976562 -23.90625 2.914062 -22.519531 2.84375 -21.125 C 2.78125 -19.726562 2.863281 -18.351562 3.09375 -17 C 3.113281 -16.8125 3.160156 -16.546875 3.234375 -16.203125 C 3.304688 -15.859375 3.40625 -15.5 3.53125 -15.125 C 3.65625 -14.757812 3.8125 -14.441406 4 -14.171875 C 4.1875 -13.898438 4.40625 -13.765625 4.65625 -13.765625 C 5.09375 -13.753906 5.507812 -13.957031 5.90625 -14.375 C 6.300781 -14.800781 6.671875 -15.367188 7.015625 -16.078125 C 7.367188 -16.796875 7.691406 -17.578125 7.984375 -18.421875 C 8.273438 -19.273438 8.535156 -20.132812 8.765625 -21 C 9.003906 -21.875 9.203125 -22.675781 9.359375 -23.40625 C 9.515625 -24.144531 9.628906 -24.75 9.703125 -25.21875 C 9.734375 -25.363281 9.816406 -25.445312 9.953125 -25.46875 C 10.097656 -25.5 10.234375 -25.484375 10.359375 -25.421875 C 10.492188 -25.359375 10.550781 -25.257812 10.53125 -25.125 C 10.414062 -24.414062 10.265625 -23.601562 10.078125 -22.6875 C 9.898438 -21.78125 9.679688 -20.835938 9.421875 -19.859375 C 9.171875 -18.890625 8.863281 -17.9375 8.5 -17 C 8.144531 -16.070312 7.734375 -15.234375 7.265625 -14.484375 C 6.796875 -13.734375 6.257812 -13.132812 5.65625 -12.6875 C 5.0625 -12.25 4.378906 -12.03125 3.609375 -12.03125 C 2.859375 -12.03125 2.148438 -12.269531 1.484375 -12.75 C 0.835938 -13.25 0.347656 -13.867188 0.015625 -14.609375 C -0.304688 -15.347656 -0.519531 -16.144531 -0.625 -17 C -0.738281 -17.851562 -0.789062 -18.707031 -0.78125 -19.5625 C -0.78125 -20.425781 -0.769531 -21.21875 -0.75 -21.9375 C -0.71875 -22.925781 -0.679688 -23.914062 -0.640625 -24.90625 C -0.609375 -25.90625 -0.578125 -26.898438 -0.546875 -27.890625 Z M 4.6875 -36.875 C 4.675781 -36.488281 4.410156 -36.160156 3.890625 -35.890625 C 3.367188 -35.617188 2.742188 -35.492188 2.015625 -35.515625 C 1.273438 -35.523438 0.644531 -35.671875 0.125 -35.953125 C -0.382812 -36.234375 -0.632812 -36.566406 -0.625 -36.953125 C -0.625 -37.210938 -0.503906 -37.445312 -0.265625 -37.65625 C -0.0234375 -37.863281 0.296875 -38.03125 0.703125 -38.15625 C 1.117188 -38.28125 1.566406 -38.335938 2.046875 -38.328125 C 2.773438 -38.304688 3.394531 -38.148438 3.90625 -37.859375 C 4.425781 -37.578125 4.6875 -37.25 4.6875 -36.875 Z M 4.6875 -36.875 "/></g></g></g><g fill="#ffffff" fill-opacity="1"><g transform="translate(109.412127, 63.499967)"><g><path d="M 13.796875 -6.625 C 14.054688 -6.53125 14.210938 -6.375 14.265625 -6.15625 C 14.316406 -5.945312 14.253906 -5.742188 14.078125 -5.546875 C 13.992188 -5.429688 13.828125 -5.347656 13.578125 -5.296875 C 13.335938 -5.242188 13.078125 -5.21875 12.796875 -5.21875 C 12.523438 -5.21875 12.257812 -5.226562 12 -5.25 C 11.75 -5.28125 11.554688 -5.304688 11.421875 -5.328125 C 10.742188 -5.484375 10.203125 -5.800781 9.796875 -6.28125 C 9.390625 -6.769531 9.078125 -7.363281 8.859375 -8.0625 C 8.640625 -8.769531 8.488281 -9.53125 8.40625 -10.34375 C 8.320312 -11.15625 8.265625 -11.960938 8.234375 -12.765625 C 8.203125 -13.578125 8.15625 -14.328125 8.09375 -15.015625 C 8.0625 -15.378906 8.015625 -15.851562 7.953125 -16.4375 C 7.898438 -17.019531 7.816406 -17.640625 7.703125 -18.296875 C 7.597656 -18.960938 7.445312 -19.601562 7.25 -20.21875 C 7.050781 -20.84375 6.800781 -21.382812 6.5 -21.84375 C 6.207031 -22.3125 5.832031 -22.628906 5.375 -22.796875 C 5.375 -22.765625 5.335938 -22.660156 5.265625 -22.484375 C 5.191406 -22.316406 5.128906 -22.160156 5.078125 -22.015625 C 4.828125 -21.335938 4.566406 -20.625 4.296875 -19.875 C 4.035156 -19.132812 3.773438 -18.359375 3.515625 -17.546875 C 3.453125 -17.316406 3.363281 -16.992188 3.25 -16.578125 C 3.144531 -16.160156 3.03125 -15.703125 2.90625 -15.203125 C 2.78125 -14.703125 2.65625 -14.203125 2.53125 -13.703125 C 2.414062 -13.210938 2.3125 -12.769531 2.21875 -12.375 C 2.132812 -11.976562 2.078125 -11.679688 2.046875 -11.484375 C 2.023438 -11.203125 1.875 -10.984375 1.59375 -10.828125 C 1.320312 -10.671875 1.007812 -10.585938 0.65625 -10.578125 C 0.3125 -10.566406 0 -10.632812 -0.28125 -10.78125 C -0.5625 -10.9375 -0.71875 -11.175781 -0.75 -11.5 C -1.019531 -14.613281 -1.171875 -17.734375 -1.203125 -20.859375 C -1.242188 -23.984375 -1.175781 -27.113281 -1 -30.25 C -0.945312 -31.34375 -0.867188 -32.460938 -0.765625 -33.609375 C -0.753906 -33.785156 -0.742188 -33.957031 -0.734375 -34.125 C -0.722656 -34.289062 -0.710938 -34.457031 -0.703125 -34.625 C -0.691406 -34.695312 -0.6875 -34.765625 -0.6875 -34.828125 C -0.6875 -34.890625 -0.679688 -34.945312 -0.671875 -35 C -0.492188 -37.007812 -0.269531 -39.007812 0 -41 C 0.257812 -42.988281 0.628906 -44.945312 1.109375 -46.875 C 1.296875 -47.59375 1.503906 -48.351562 1.734375 -49.15625 C 1.960938 -49.96875 2.25 -50.75 2.59375 -51.5 C 2.9375 -52.257812 3.378906 -52.898438 3.921875 -53.421875 C 4.023438 -53.523438 4.203125 -53.664062 4.453125 -53.84375 C 4.710938 -54.019531 5.019531 -54.175781 5.375 -54.3125 C 5.726562 -54.457031 6.101562 -54.53125 6.5 -54.53125 C 6.90625 -54.539062 7.3125 -54.429688 7.71875 -54.203125 C 8.332031 -53.847656 8.785156 -53.15625 9.078125 -52.125 C 9.378906 -51.101562 9.492188 -49.8125 9.421875 -48.25 C 9.347656 -46.6875 9.0625 -44.914062 8.5625 -42.9375 C 8.0625 -40.96875 7.320312 -38.851562 6.34375 -36.59375 C 5.375 -34.332031 4.132812 -32 2.625 -29.59375 C 2.625 -29.582031 2.625 -29.566406 2.625 -29.546875 C 2.625 -29.535156 2.625 -29.519531 2.625 -29.5 C 2.625 -29.5 2.617188 -29.5 2.609375 -29.5 C 2.597656 -29.5 2.59375 -29.5 2.59375 -29.5 C 2.582031 -29.394531 2.578125 -29.304688 2.578125 -29.234375 C 2.578125 -29.171875 2.578125 -29.132812 2.578125 -29.125 C 2.554688 -28.71875 2.535156 -28.21875 2.515625 -27.625 C 2.492188 -27.03125 2.46875 -26.394531 2.4375 -25.71875 C 2.414062 -25.039062 2.394531 -24.359375 2.375 -23.671875 C 2.363281 -22.992188 2.351562 -22.359375 2.34375 -21.765625 C 2.332031 -21.171875 2.328125 -20.675781 2.328125 -20.28125 C 2.347656 -20.332031 2.421875 -20.582031 2.546875 -21.03125 C 2.671875 -21.476562 2.847656 -22.0625 3.078125 -22.78125 C 3.304688 -23.507812 3.578125 -24.3125 3.890625 -25.1875 C 4.210938 -26.0625 4.570312 -26.960938 4.96875 -27.890625 C 5.363281 -28.816406 5.800781 -29.703125 6.28125 -30.546875 C 6.757812 -31.390625 7.265625 -32.144531 7.796875 -32.8125 C 8.335938 -33.476562 8.90625 -33.988281 9.5 -34.34375 C 10.070312 -34.632812 10.632812 -34.757812 11.1875 -34.71875 C 11.75 -34.675781 12.21875 -34.460938 12.59375 -34.078125 C 12.78125 -33.898438 12.910156 -33.550781 12.984375 -33.03125 C 13.066406 -32.507812 12.984375 -31.863281 12.734375 -31.09375 C 12.679688 -30.894531 12.5625 -30.753906 12.375 -30.671875 C 12.195312 -30.597656 12.007812 -30.578125 11.8125 -30.609375 C 11.625 -30.648438 11.46875 -30.726562 11.34375 -30.84375 C 11.226562 -30.957031 11.210938 -31.109375 11.296875 -31.296875 C 11.515625 -31.828125 11.597656 -32.265625 11.546875 -32.609375 C 11.492188 -32.953125 11.398438 -33.203125 11.265625 -33.359375 C 11.253906 -33.367188 11.242188 -33.375 11.234375 -33.375 C 11.234375 -33.375 11.226562 -33.382812 11.21875 -33.40625 C 11.144531 -33.351562 11.0625 -33.300781 10.96875 -33.25 C 10.875 -33.207031 10.742188 -33.109375 10.578125 -32.953125 C 10.410156 -32.804688 10.207031 -32.5625 9.96875 -32.21875 C 9.726562 -31.882812 9.429688 -31.40625 9.078125 -30.78125 C 8.734375 -30.164062 8.316406 -29.359375 7.828125 -28.359375 C 7.347656 -27.359375 6.789062 -26.125 6.15625 -24.65625 C 6.207031 -24.664062 6.257812 -24.671875 6.3125 -24.671875 C 6.375 -24.679688 6.472656 -24.675781 6.609375 -24.65625 C 7.285156 -24.53125 7.867188 -24.203125 8.359375 -23.671875 C 8.859375 -23.148438 9.269531 -22.488281 9.59375 -21.6875 C 9.914062 -20.882812 10.175781 -20 10.375 -19.03125 C 10.582031 -18.0625 10.738281 -17.070312 10.84375 -16.0625 C 10.957031 -15.050781 11.039062 -14.085938 11.09375 -13.171875 C 11.125 -12.679688 11.179688 -12.109375 11.265625 -11.453125 C 11.359375 -10.796875 11.503906 -10.140625 11.703125 -9.484375 C 11.910156 -8.828125 12.179688 -8.238281 12.515625 -7.71875 C 12.847656 -7.195312 13.273438 -6.832031 13.796875 -6.625 Z M 4.859375 -47.265625 C 4.304688 -45.242188 3.882812 -43.171875 3.59375 -41.046875 C 3.3125 -38.929688 3.09375 -36.804688 2.9375 -34.671875 C 2.914062 -34.523438 2.898438 -34.382812 2.890625 -34.25 C 2.890625 -34.113281 2.882812 -33.972656 2.875 -33.828125 C 2.863281 -33.578125 2.847656 -33.328125 2.828125 -33.078125 C 2.804688 -32.828125 2.789062 -32.570312 2.78125 -32.3125 C 3.632812 -33.925781 4.425781 -35.566406 5.15625 -37.234375 C 5.882812 -38.898438 6.5 -40.628906 7 -42.421875 C 7.226562 -43.253906 7.457031 -44.132812 7.6875 -45.0625 C 7.925781 -46 8.097656 -46.9375 8.203125 -47.875 C 8.304688 -48.820312 8.28125 -49.734375 8.125 -50.609375 C 8.113281 -50.722656 8.066406 -50.894531 7.984375 -51.125 C 7.910156 -51.351562 7.820312 -51.585938 7.71875 -51.828125 C 7.625 -52.078125 7.523438 -52.285156 7.421875 -52.453125 C 7.328125 -52.628906 7.25 -52.710938 7.1875 -52.703125 C 7.09375 -52.679688 6.976562 -52.5625 6.84375 -52.34375 C 6.707031 -52.132812 6.582031 -51.898438 6.46875 -51.640625 C 6.351562 -51.378906 6.257812 -51.1875 6.1875 -51.0625 C 5.914062 -50.445312 5.671875 -49.820312 5.453125 -49.1875 C 5.242188 -48.5625 5.046875 -47.921875 4.859375 -47.265625 Z M 4.859375 -47.265625 "/></g></g></g><g fill="#ffffff" fill-opacity="1"><g transform="translate(124.117726, 63.499967)"><g><path d="M -0.546875 -27.890625 C -0.535156 -28.234375 -0.515625 -28.644531 -0.484375 -29.125 C -0.453125 -29.601562 -0.421875 -30.085938 -0.390625 -30.578125 C -0.367188 -31.066406 -0.359375 -31.472656 -0.359375 -31.796875 C -0.359375 -31.828125 -0.351562 -31.859375 -0.34375 -31.890625 C -0.332031 -31.929688 -0.328125 -31.96875 -0.328125 -32 C -0.671875 -32.007812 -0.976562 -32.066406 -1.25 -32.171875 C -1.519531 -32.285156 -1.65625 -32.46875 -1.65625 -32.71875 C -1.65625 -32.988281 -1.519531 -33.1875 -1.25 -33.3125 C -0.976562 -33.4375 -0.609375 -33.515625 -0.140625 -33.546875 C 0.316406 -33.578125 0.828125 -33.59375 1.390625 -33.59375 C 2.234375 -33.59375 2.941406 -33.519531 3.515625 -33.375 C 4.097656 -33.238281 4.398438 -33.019531 4.421875 -32.71875 C 4.429688 -32.5 4.34375 -32.335938 4.15625 -32.234375 C 3.96875 -32.128906 3.664062 -32.0625 3.25 -32.03125 C 3.25 -32.007812 3.25 -31.976562 3.25 -31.9375 C 3.25 -31.894531 3.25 -31.863281 3.25 -31.84375 C 3.257812 -31.488281 3.253906 -31.015625 3.234375 -30.421875 C 3.222656 -29.828125 3.203125 -29.203125 3.171875 -28.546875 C 3.140625 -27.890625 3.109375 -27.265625 3.078125 -26.671875 C 3.054688 -26.085938 3.039062 -25.625 3.03125 -25.28125 C 2.976562 -23.90625 2.914062 -22.519531 2.84375 -21.125 C 2.78125 -19.726562 2.863281 -18.351562 3.09375 -17 C 3.113281 -16.8125 3.160156 -16.546875 3.234375 -16.203125 C 3.304688 -15.859375 3.40625 -15.5 3.53125 -15.125 C 3.65625 -14.757812 3.8125 -14.441406 4 -14.171875 C 4.1875 -13.898438 4.40625 -13.765625 4.65625 -13.765625 C 5.09375 -13.753906 5.507812 -13.957031 5.90625 -14.375 C 6.300781 -14.800781 6.671875 -15.367188 7.015625 -16.078125 C 7.367188 -16.796875 7.691406 -17.578125 7.984375 -18.421875 C 8.273438 -19.273438 8.535156 -20.132812 8.765625 -21 C 9.003906 -21.875 9.203125 -22.675781 9.359375 -23.40625 C 9.515625 -24.144531 9.628906 -24.75 9.703125 -25.21875 C 9.734375 -25.363281 9.816406 -25.445312 9.953125 -25.46875 C 10.097656 -25.5 10.234375 -25.484375 10.359375 -25.421875 C 10.492188 -25.359375 10.550781 -25.257812 10.53125 -25.125 C 10.414062 -24.414062 10.265625 -23.601562 10.078125 -22.6875 C 9.898438 -21.78125 9.679688 -20.835938 9.421875 -19.859375 C 9.171875 -18.890625 8.863281 -17.9375 8.5 -17 C 8.144531 -16.070312 7.734375 -15.234375 7.265625 -14.484375 C 6.796875 -13.734375 6.257812 -13.132812 5.65625 -12.6875 C 5.0625 -12.25 4.378906 -12.03125 3.609375 -12.03125 C 2.859375 -12.03125 2.148438 -12.269531 1.484375 -12.75 C 0.835938 -13.25 0.347656 -13.867188 0.015625 -14.609375 C -0.304688 -15.347656 -0.519531 -16.144531 -0.625 -17 C -0.738281 -17.851562 -0.789062 -18.707031 -0.78125 -19.5625 C -0.78125 -20.425781 -0.769531 -21.21875 -0.75 -21.9375 C -0.71875 -22.925781 -0.679688 -23.914062 -0.640625 -24.90625 C -0.609375 -25.90625 -0.578125 -26.898438 -0.546875 -27.890625 Z M 4.6875 -36.875 C 4.675781 -36.488281 4.410156 -36.160156 3.890625 -35.890625 C 3.367188 -35.617188 2.742188 -35.492188 2.015625 -35.515625 C 1.273438 -35.523438 0.644531 -35.671875 0.125 -35.953125 C -0.382812 -36.234375 -0.632812 -36.566406 -0.625 -36.953125 C -0.625 -37.210938 -0.503906 -37.445312 -0.265625 -37.65625 C -0.0234375 -37.863281 0.296875 -38.03125 0.703125 -38.15625 C 1.117188 -38.28125 1.566406 -38.335938 2.046875 -38.328125 C 2.773438 -38.304688 3.394531 -38.148438 3.90625 -37.859375 C 4.425781 -37.578125 4.6875 -37.25 4.6875 -36.875 Z M 4.6875 -36.875 "/></g></g></g><g fill="#ffffff" fill-opacity="1"><g transform="translate(134.058167, 63.499967)"><g><path d="M 14.8125 -7.890625 C 14.914062 -7.921875 15.070312 -7.9375 15.28125 -7.9375 C 15.5 -7.9375 15.617188 -7.84375 15.640625 -7.65625 C 15.691406 -7.332031 15.625 -7.078125 15.4375 -6.890625 C 15.257812 -6.703125 15.023438 -6.5625 14.734375 -6.46875 C 14.453125 -6.382812 14.175781 -6.328125 13.90625 -6.296875 C 13.21875 -6.203125 12.539062 -6.265625 11.875 -6.484375 C 11.207031 -6.703125 10.648438 -7.082031 10.203125 -7.625 C 9.804688 -8.207031 9.488281 -8.960938 9.25 -9.890625 C 9.007812 -10.828125 8.851562 -11.988281 8.78125 -13.375 C 8.707031 -14.769531 8.726562 -16.4375 8.84375 -18.375 C 8.96875 -20.320312 9.1875 -22.585938 9.5 -25.171875 C 9.820312 -27.765625 10.25 -30.726562 10.78125 -34.0625 C 10.78125 -34.5625 10.773438 -35.0625 10.765625 -35.5625 C 10.765625 -36.0625 10.75 -36.550781 10.71875 -37.03125 C 10.707031 -37.070312 10.703125 -37.109375 10.703125 -37.140625 C 10.703125 -37.179688 10.703125 -37.222656 10.703125 -37.265625 C 10.492188 -36.898438 10.316406 -36.601562 10.171875 -36.375 C 9.890625 -35.925781 9.640625 -35.46875 9.421875 -35 C 9.210938 -34.53125 9.003906 -34.054688 8.796875 -33.578125 C 8.347656 -32.546875 7.953125 -31.488281 7.609375 -30.40625 C 7.273438 -29.332031 6.957031 -28.253906 6.65625 -27.171875 C 6.0625 -24.941406 5.476562 -22.691406 4.90625 -20.421875 C 4.332031 -18.160156 3.785156 -15.90625 3.265625 -13.65625 C 3.210938 -13.4375 3.070312 -13.265625 2.84375 -13.140625 C 2.625 -13.015625 2.367188 -12.941406 2.078125 -12.921875 C 1.796875 -12.898438 1.53125 -12.929688 1.28125 -13.015625 C 1.039062 -13.097656 0.867188 -13.234375 0.765625 -13.421875 C 0.253906 -14.347656 -0.113281 -15.335938 -0.34375 -16.390625 C -0.582031 -17.441406 -0.734375 -18.515625 -0.796875 -19.609375 C -0.867188 -20.703125 -0.910156 -21.757812 -0.921875 -22.78125 C -0.921875 -23.738281 -0.890625 -24.695312 -0.828125 -25.65625 C -0.773438 -26.625 -0.695312 -27.546875 -0.59375 -28.421875 C -0.488281 -29.304688 -0.367188 -30.09375 -0.234375 -30.78125 C -0.109375 -31.46875 0.0234375 -32.015625 0.171875 -32.421875 C 0.242188 -32.617188 0.425781 -32.785156 0.71875 -32.921875 C 1.007812 -33.066406 1.328125 -33.15625 1.671875 -33.1875 C 2.023438 -33.226562 2.328125 -33.1875 2.578125 -33.0625 C 2.835938 -32.945312 2.957031 -32.722656 2.9375 -32.390625 C 2.832031 -30.640625 2.773438 -28.984375 2.765625 -27.421875 C 2.753906 -25.859375 2.796875 -24.269531 2.890625 -22.65625 C 2.898438 -22.425781 2.910156 -22.191406 2.921875 -21.953125 C 2.941406 -21.722656 2.957031 -21.488281 2.96875 -21.25 C 3.3125 -22.71875 3.648438 -24.179688 3.984375 -25.640625 C 4.328125 -27.097656 4.71875 -28.539062 5.15625 -29.96875 C 5.570312 -31.269531 6.035156 -32.550781 6.546875 -33.8125 C 7.054688 -35.070312 7.582031 -36.328125 8.125 -37.578125 C 8.332031 -38.046875 8.578125 -38.507812 8.859375 -38.96875 C 9.140625 -39.4375 9.460938 -39.835938 9.828125 -40.171875 C 10.203125 -40.503906 10.625 -40.710938 11.09375 -40.796875 C 11.3125 -40.835938 11.578125 -40.800781 11.890625 -40.6875 C 12.203125 -40.582031 12.519531 -40.429688 12.84375 -40.234375 C 13.164062 -40.035156 13.445312 -39.832031 13.6875 -39.625 C 13.925781 -39.414062 14.078125 -39.234375 14.140625 -39.078125 C 14.359375 -38.523438 14.5 -37.898438 14.5625 -37.203125 C 14.632812 -36.515625 14.65625 -35.84375 14.625 -35.1875 C 14.601562 -34.539062 14.566406 -34 14.515625 -33.5625 C 14.410156 -32.644531 14.265625 -31.609375 14.078125 -30.453125 C 13.898438 -29.304688 13.707031 -28.082031 13.5 -26.78125 C 13.289062 -25.476562 13.09375 -24.148438 12.90625 -22.796875 C 12.726562 -21.441406 12.582031 -20.101562 12.46875 -18.78125 C 12.363281 -17.457031 12.3125 -16.195312 12.3125 -15 C 12.3125 -13.8125 12.390625 -12.726562 12.546875 -11.75 C 12.710938 -10.78125 12.976562 -9.957031 13.34375 -9.28125 C 13.707031 -8.613281 14.195312 -8.148438 14.8125 -7.890625 Z M 14.8125 -7.890625 "/></g></g></g><g fill="#ffffff" fill-opacity="1"><g transform="translate(150.8534, 63.499967)"><g><path d="M 15.640625 -27.5 C 15.660156 -27.5625 15.738281 -27.597656 15.875 -27.609375 C 16.019531 -27.628906 16.164062 -27.625 16.3125 -27.59375 C 16.457031 -27.570312 16.519531 -27.53125 16.5 -27.46875 C 16.3125 -25.832031 16.050781 -24.195312 15.71875 -22.5625 C 15.382812 -20.9375 14.9375 -19.347656 14.375 -17.796875 C 14.164062 -17.210938 13.929688 -16.613281 13.671875 -16 C 13.410156 -15.394531 13.09375 -14.859375 12.71875 -14.390625 C 12.351562 -13.921875 11.894531 -13.585938 11.34375 -13.390625 C 10.800781 -13.191406 10.140625 -13.195312 9.359375 -13.40625 C 8.722656 -13.582031 8.222656 -13.914062 7.859375 -14.40625 C 7.492188 -14.90625 7.222656 -15.492188 7.046875 -16.171875 C 6.867188 -16.847656 6.75 -17.539062 6.6875 -18.25 C 6.550781 -17.832031 6.40625 -17.414062 6.25 -17 C 6.101562 -16.59375 5.941406 -16.191406 5.765625 -15.796875 C 5.523438 -15.265625 5.238281 -14.757812 4.90625 -14.28125 C 4.582031 -13.8125 4.207031 -13.414062 3.78125 -13.09375 C 3.351562 -12.78125 2.875 -12.578125 2.34375 -12.484375 C 1.820312 -12.398438 1.238281 -12.484375 0.59375 -12.734375 C 0.03125 -12.953125 -0.414062 -13.28125 -0.75 -13.71875 C -1.09375 -14.15625 -1.351562 -14.644531 -1.53125 -15.1875 C -1.707031 -15.738281 -1.832031 -16.304688 -1.90625 -16.890625 C -1.976562 -17.484375 -2.023438 -18.039062 -2.046875 -18.5625 C -2.128906 -19.945312 -2.09375 -21.328125 -1.9375 -22.703125 C -1.78125 -24.078125 -1.519531 -25.4375 -1.15625 -26.78125 C -1 -27.351562 -0.816406 -27.96875 -0.609375 -28.625 C -0.410156 -29.28125 -0.175781 -29.929688 0.09375 -30.578125 C 0.375 -31.222656 0.695312 -31.820312 1.0625 -32.375 C 1.425781 -32.9375 1.851562 -33.414062 2.34375 -33.8125 C 2.71875 -34.113281 3.148438 -34.34375 3.640625 -34.5 C 4.140625 -34.664062 4.648438 -34.75 5.171875 -34.75 C 5.691406 -34.75 6.191406 -34.660156 6.671875 -34.484375 C 7.160156 -34.304688 7.570312 -34.03125 7.90625 -33.65625 C 7.9375 -33.625 7.960938 -33.59375 7.984375 -33.5625 C 8.015625 -33.53125 8.039062 -33.492188 8.0625 -33.453125 C 8.445312 -33.554688 8.835938 -33.59375 9.234375 -33.5625 C 9.640625 -33.539062 9.984375 -33.453125 10.265625 -33.296875 C 10.546875 -33.140625 10.671875 -32.921875 10.640625 -32.640625 C 10.515625 -30.828125 10.394531 -29 10.28125 -27.15625 C 10.175781 -25.3125 10.148438 -23.472656 10.203125 -21.640625 C 10.253906 -19.816406 10.453125 -18.007812 10.796875 -16.21875 C 10.816406 -16.082031 10.84375 -15.945312 10.875 -15.8125 C 10.90625 -15.675781 10.941406 -15.539062 10.984375 -15.40625 C 11.117188 -15.582031 11.25 -15.753906 11.375 -15.921875 C 11.5 -16.085938 11.613281 -16.253906 11.71875 -16.421875 C 12.082031 -16.960938 12.410156 -17.507812 12.703125 -18.0625 C 12.992188 -18.625 13.265625 -19.195312 13.515625 -19.78125 C 14.046875 -21.019531 14.484375 -22.28125 14.828125 -23.5625 C 15.179688 -24.84375 15.453125 -26.15625 15.640625 -27.5 Z M 5 -22.46875 C 5.351562 -23.695312 5.640625 -24.941406 5.859375 -26.203125 C 6.078125 -27.460938 6.289062 -28.722656 6.5 -29.984375 C 6.414062 -30.242188 6.300781 -30.5 6.15625 -30.75 C 6.019531 -30.96875 5.894531 -31.1875 5.78125 -31.40625 C 5.664062 -31.625 5.535156 -31.835938 5.390625 -32.046875 C 5.335938 -32.128906 5.28125 -32.207031 5.21875 -32.28125 C 5.164062 -32.363281 5.109375 -32.441406 5.046875 -32.515625 C 4.953125 -32.378906 4.863281 -32.238281 4.78125 -32.09375 C 4.695312 -31.945312 4.613281 -31.800781 4.53125 -31.65625 C 4.40625 -31.4375 4.28125 -31.207031 4.15625 -30.96875 C 4.039062 -30.726562 3.929688 -30.484375 3.828125 -30.234375 C 3.359375 -29.222656 2.96875 -28.1875 2.65625 -27.125 C 2.300781 -25.976562 2.035156 -24.800781 1.859375 -23.59375 C 1.691406 -22.394531 1.609375 -21.195312 1.609375 -20 C 1.609375 -19.46875 1.617188 -18.929688 1.640625 -18.390625 C 1.671875 -17.847656 1.726562 -17.3125 1.8125 -16.78125 C 1.84375 -16.625 1.890625 -16.375 1.953125 -16.03125 C 2.015625 -15.6875 2.109375 -15.359375 2.234375 -15.046875 C 2.460938 -15.367188 2.671875 -15.738281 2.859375 -16.15625 C 3.046875 -16.582031 3.210938 -16.988281 3.359375 -17.375 C 3.515625 -17.757812 3.625 -18.039062 3.6875 -18.21875 C 3.945312 -18.914062 4.179688 -19.617188 4.390625 -20.328125 C 4.597656 -21.035156 4.800781 -21.75 5 -22.46875 Z M 5 -22.46875 "/></g></g></g></svg>