<svg xmlns="http://www.w3.org/2000/svg" xmlns:xlink="http://www.w3.org/1999/xlink" width="1000" zoomAndPan="magnify" viewBox="0 0 750 74.999997" height="100" preserveAspectRatio="xMidYMid meet" version="1.0"><defs><g/></defs><g fill="#ffffff" fill-opacity="1"><g transform="translate(9.914077, 63.499974)"><g><path d="M 24.546875 -61.0625 C 25.796875 -61.0625 26.925781 -60.734375 27.9375 -60.078125 C 28.957031 -59.429688 29.710938 -58.535156 30.203125 -57.390625 C 30.597656 -56.453125 30.867188 -55.460938 31.015625 -54.421875 C 31.160156 -53.378906 31.234375 -52.328125 31.234375 -51.265625 C 31.242188 -50.210938 31.238281 -49.191406 31.21875 -48.203125 C 31.132812 -44.878906 30.75 -41.585938 30.0625 -38.328125 C 29.90625 -37.578125 29.722656 -36.773438 29.515625 -35.921875 C 29.316406 -35.078125 29.066406 -34.21875 28.765625 -33.34375 C 28.472656 -32.476562 28.113281 -31.664062 27.6875 -30.90625 C 27.257812 -30.144531 26.75 -29.476562 26.15625 -28.90625 C 25.570312 -28.34375 24.878906 -27.929688 24.078125 -27.671875 C 23.285156 -27.410156 22.375 -27.359375 21.34375 -27.515625 C 20.65625 -27.617188 20.070312 -27.910156 19.59375 -28.390625 C 19.125 -28.878906 18.769531 -29.484375 18.53125 -30.203125 C 18.300781 -30.929688 18.1875 -31.703125 18.1875 -32.515625 C 18.195312 -33.953125 18.351562 -35.296875 18.65625 -36.546875 C 18.957031 -37.796875 19.484375 -38.804688 20.234375 -39.578125 C 20.285156 -39.628906 20.390625 -39.660156 20.546875 -39.671875 C 20.703125 -39.691406 20.847656 -39.6875 20.984375 -39.65625 C 21.117188 -39.632812 21.175781 -39.566406 21.15625 -39.453125 C 21.0625 -38.984375 20.945312 -38.394531 20.8125 -37.6875 C 20.675781 -36.988281 20.550781 -36.238281 20.4375 -35.4375 C 20.332031 -34.632812 20.265625 -33.84375 20.234375 -33.0625 C 20.210938 -32.28125 20.257812 -31.570312 20.375 -30.9375 C 20.5 -30.300781 20.722656 -29.789062 21.046875 -29.40625 C 21.378906 -29.03125 21.835938 -28.859375 22.421875 -28.890625 C 22.921875 -28.910156 23.378906 -29.210938 23.796875 -29.796875 C 24.222656 -30.378906 24.609375 -31.164062 24.953125 -32.15625 C 25.304688 -33.144531 25.625 -34.257812 25.90625 -35.5 C 26.1875 -36.738281 26.429688 -38.039062 26.640625 -39.40625 C 26.847656 -40.78125 27.015625 -42.132812 27.140625 -43.46875 C 27.273438 -44.800781 27.375 -46.050781 27.4375 -47.21875 C 27.507812 -48.394531 27.535156 -49.398438 27.515625 -50.234375 C 27.503906 -50.890625 27.488281 -51.582031 27.46875 -52.3125 C 27.445312 -53.039062 27.390625 -53.769531 27.296875 -54.5 C 27.203125 -55.238281 27.023438 -55.9375 26.765625 -56.59375 C 26.515625 -57.257812 26.148438 -57.847656 25.671875 -58.359375 C 25.421875 -58.617188 25.191406 -58.796875 24.984375 -58.890625 C 24.773438 -58.984375 24.492188 -59.003906 24.140625 -58.953125 C 24.046875 -58.929688 23.820312 -58.832031 23.46875 -58.65625 C 23.113281 -58.488281 22.664062 -58.164062 22.125 -57.6875 C 21.582031 -57.207031 20.992188 -56.53125 20.359375 -55.65625 C 19.734375 -54.789062 19.097656 -53.664062 18.453125 -52.28125 C 17.816406 -50.894531 17.226562 -49.1875 16.6875 -47.15625 C 16.507812 -46.53125 16.351562 -45.898438 16.21875 -45.265625 C 16.09375 -44.628906 15.972656 -43.992188 15.859375 -43.359375 C 15.992188 -39.910156 16 -36.457031 15.875 -33 C 15.757812 -29.539062 15.484375 -26.097656 15.046875 -22.671875 C 14.804688 -20.847656 14.519531 -19.035156 14.1875 -17.234375 C 13.851562 -15.429688 13.46875 -13.640625 13.03125 -11.859375 C 12.789062 -10.941406 12.546875 -10.03125 12.296875 -9.125 C 12.046875 -8.226562 11.769531 -7.328125 11.46875 -6.421875 C 11.269531 -5.835938 11.078125 -5.253906 10.890625 -4.671875 C 10.703125 -4.085938 10.46875 -3.53125 10.1875 -3 C 9.914062 -2.46875 9.546875 -1.984375 9.078125 -1.546875 C 8.953125 -1.410156 8.765625 -1.300781 8.515625 -1.21875 C 8.265625 -1.144531 7.992188 -1.101562 7.703125 -1.09375 C 7.421875 -1.09375 7.160156 -1.132812 6.921875 -1.21875 C 6.679688 -1.300781 6.507812 -1.441406 6.40625 -1.640625 C 6.28125 -1.878906 6.25 -2.1875 6.3125 -2.5625 C 6.375 -2.945312 6.488281 -3.359375 6.65625 -3.796875 C 6.832031 -4.242188 7.015625 -4.6875 7.203125 -5.125 C 7.398438 -5.570312 7.554688 -5.976562 7.671875 -6.34375 C 7.929688 -7.15625 8.1875 -7.960938 8.4375 -8.765625 C 8.6875 -9.578125 8.914062 -10.394531 9.125 -11.21875 C 9.5625 -12.851562 9.941406 -14.503906 10.265625 -16.171875 C 10.597656 -17.835938 10.878906 -19.507812 11.109375 -21.1875 C 11.523438 -24.101562 11.820312 -27.023438 12 -29.953125 C 12.175781 -32.890625 12.253906 -35.820312 12.234375 -38.75 C 12.210938 -40.65625 12.1875 -42.585938 12.15625 -44.546875 C 12.125 -46.503906 12.003906 -48.457031 11.796875 -50.40625 C 11.585938 -52.351562 11.222656 -54.242188 10.703125 -56.078125 C 10.640625 -56.296875 10.546875 -56.609375 10.421875 -57.015625 C 10.296875 -57.421875 10.128906 -57.84375 9.921875 -58.28125 C 9.722656 -58.726562 9.488281 -59.109375 9.21875 -59.421875 C 8.945312 -59.734375 8.625 -59.898438 8.25 -59.921875 C 7.757812 -59.960938 7.316406 -59.828125 6.921875 -59.515625 C 6.535156 -59.203125 6.179688 -58.785156 5.859375 -58.265625 C 5.546875 -57.753906 5.238281 -57.203125 4.9375 -56.609375 C 4.675781 -56.054688 4.398438 -55.398438 4.109375 -54.640625 C 3.816406 -53.878906 3.523438 -53.054688 3.234375 -52.171875 C 2.953125 -51.296875 2.695312 -50.40625 2.46875 -49.5 C 2.238281 -48.59375 2.050781 -47.726562 1.90625 -46.90625 C 1.769531 -46.082031 1.695312 -45.335938 1.6875 -44.671875 C 1.6875 -44.003906 1.765625 -43.46875 1.921875 -43.0625 C 2.085938 -42.664062 2.359375 -42.445312 2.734375 -42.40625 C 3.035156 -42.375 3.351562 -42.5 3.6875 -42.78125 C 4.03125 -43.0625 4.378906 -43.445312 4.734375 -43.9375 C 5.097656 -44.4375 5.453125 -44.992188 5.796875 -45.609375 C 6.148438 -46.222656 6.484375 -46.847656 6.796875 -47.484375 C 7.117188 -48.117188 7.410156 -48.722656 7.671875 -49.296875 C 7.929688 -49.878906 8.148438 -50.375 8.328125 -50.78125 C 8.378906 -50.863281 8.488281 -50.921875 8.65625 -50.953125 C 8.820312 -50.992188 8.976562 -51 9.125 -50.96875 C 9.28125 -50.945312 9.351562 -50.863281 9.34375 -50.71875 C 9.3125 -50.394531 9.1875 -49.941406 8.96875 -49.359375 C 8.757812 -48.785156 8.484375 -48.144531 8.140625 -47.4375 C 7.796875 -46.738281 7.40625 -46.035156 6.96875 -45.328125 C 6.539062 -44.617188 6.085938 -43.96875 5.609375 -43.375 C 5.140625 -42.78125 4.664062 -42.300781 4.1875 -41.9375 C 3.71875 -41.570312 3.265625 -41.390625 2.828125 -41.390625 C 2.273438 -41.390625 1.816406 -41.53125 1.453125 -41.8125 C 1.085938 -42.101562 0.804688 -42.5 0.609375 -43 C 0.410156 -43.5 0.269531 -44.066406 0.1875 -44.703125 C 0.113281 -45.347656 0.078125 -46.023438 0.078125 -46.734375 C 0.078125 -47.390625 0.128906 -48.144531 0.234375 -49 C 0.347656 -49.863281 0.515625 -50.773438 0.734375 -51.734375 C 0.960938 -52.703125 1.242188 -53.664062 1.578125 -54.625 C 1.910156 -55.59375 2.300781 -56.507812 2.75 -57.375 C 3.195312 -58.25 3.695312 -59.023438 4.25 -59.703125 C 4.8125 -60.378906 5.4375 -60.910156 6.125 -61.296875 C 6.8125 -61.691406 7.550781 -61.890625 8.34375 -61.890625 C 9.28125 -61.890625 10.082031 -61.75 10.75 -61.46875 C 11.425781 -61.195312 11.988281 -60.8125 12.4375 -60.3125 C 12.894531 -59.820312 13.273438 -59.242188 13.578125 -58.578125 C 13.890625 -57.910156 14.15625 -57.1875 14.375 -56.40625 C 14.71875 -55.21875 14.972656 -54.019531 15.140625 -52.8125 C 15.316406 -51.613281 15.453125 -50.40625 15.546875 -49.1875 C 15.953125 -50.394531 16.410156 -51.578125 16.921875 -52.734375 C 17.441406 -53.890625 18 -54.96875 18.59375 -55.96875 C 19.195312 -56.976562 19.828125 -57.863281 20.484375 -58.625 C 21.140625 -59.382812 21.8125 -59.976562 22.5 -60.40625 C 23.1875 -60.84375 23.867188 -61.0625 24.546875 -61.0625 Z M 24.546875 -61.0625 "/></g></g></g><g fill="#ffffff" fill-opacity="1"><g transform="translate(40.282208, 63.499974)"><g><path d="M 14.109375 -26.5625 C 14.171875 -26.695312 14.269531 -26.773438 14.40625 -26.796875 C 14.550781 -26.828125 14.671875 -26.800781 14.765625 -26.71875 C 14.867188 -26.644531 14.890625 -26.519531 14.828125 -26.34375 C 14.660156 -25.09375 14.171875 -24.0625 13.359375 -23.25 C 12.554688 -22.4375 11.457031 -21.757812 10.0625 -21.21875 C 9.90625 -20.132812 9.679688 -19.0625 9.390625 -18 C 9.109375 -16.945312 8.757812 -15.984375 8.34375 -15.109375 C 7.925781 -14.234375 7.4375 -13.523438 6.875 -12.984375 C 6.3125 -12.441406 5.675781 -12.148438 4.96875 -12.109375 C 4.15625 -12.054688 3.445312 -12.1875 2.84375 -12.5 C 2.238281 -12.820312 1.71875 -13.269531 1.28125 -13.84375 C 0.851562 -14.414062 0.492188 -15.070312 0.203125 -15.8125 C -0.078125 -16.5625 -0.296875 -17.332031 -0.453125 -18.125 C -0.617188 -18.914062 -0.742188 -19.6875 -0.828125 -20.4375 C -0.910156 -21.1875 -0.960938 -21.867188 -0.984375 -22.484375 C -1.003906 -23.097656 -1.007812 -23.578125 -1 -23.921875 C -1 -24.078125 -0.984375 -24.222656 -0.953125 -24.359375 C -0.929688 -24.503906 -0.898438 -24.628906 -0.859375 -24.734375 C -1.097656 -25.628906 -1.160156 -26.5625 -1.046875 -27.53125 C -0.929688 -28.507812 -0.671875 -29.460938 -0.265625 -30.390625 C 0.128906 -31.316406 0.648438 -32.144531 1.296875 -32.875 C 1.921875 -33.570312 2.585938 -34.035156 3.296875 -34.265625 C 4.015625 -34.503906 4.71875 -34.539062 5.40625 -34.375 C 6.101562 -34.21875 6.71875 -33.90625 7.25 -33.4375 C 8.519531 -32.320312 9.394531 -30.921875 9.875 -29.234375 C 10.363281 -27.546875 10.5 -25.5 10.28125 -23.09375 C 10.28125 -23.007812 10.273438 -22.925781 10.265625 -22.84375 C 10.253906 -22.757812 10.242188 -22.671875 10.234375 -22.578125 C 10.910156 -22.796875 11.546875 -23.082031 12.140625 -23.4375 C 12.734375 -23.789062 13.210938 -24.226562 13.578125 -24.75 C 13.941406 -25.269531 14.117188 -25.875 14.109375 -26.5625 Z M 2.03125 -29.890625 C 1.957031 -29.609375 1.863281 -29.21875 1.75 -28.71875 C 1.632812 -28.226562 1.550781 -27.691406 1.5 -27.109375 C 1.445312 -26.523438 1.457031 -25.953125 1.53125 -25.390625 C 1.738281 -25.265625 1.898438 -25.113281 2.015625 -24.9375 C 2.140625 -24.757812 2.210938 -24.5625 2.234375 -24.34375 C 2.234375 -24.257812 2.234375 -24.148438 2.234375 -24.015625 C 2.234375 -23.890625 2.234375 -23.738281 2.234375 -23.5625 C 2.253906 -23.539062 2.269531 -23.519531 2.28125 -23.5 C 2.300781 -23.488281 2.316406 -23.46875 2.328125 -23.4375 C 2.753906 -22.96875 3.410156 -22.609375 4.296875 -22.359375 C 5.179688 -22.117188 6.160156 -22.015625 7.234375 -22.046875 C 7.304688 -22.773438 7.34375 -23.390625 7.34375 -23.890625 C 7.375 -24.710938 7.378906 -25.578125 7.359375 -26.484375 C 7.347656 -27.398438 7.273438 -28.300781 7.140625 -29.1875 C 7.003906 -30.070312 6.75 -30.882812 6.375 -31.625 C 5.988281 -32.394531 5.59375 -32.878906 5.1875 -33.078125 C 4.78125 -33.273438 4.378906 -33.253906 3.984375 -33.015625 C 3.597656 -32.785156 3.234375 -32.390625 2.890625 -31.828125 C 2.554688 -31.273438 2.269531 -30.628906 2.03125 -29.890625 Z M 4.828125 -14.3125 C 5.128906 -14.34375 5.394531 -14.535156 5.625 -14.890625 C 5.863281 -15.253906 6.070312 -15.726562 6.25 -16.3125 C 6.4375 -16.90625 6.59375 -17.554688 6.71875 -18.265625 C 6.851562 -18.984375 6.960938 -19.691406 7.046875 -20.390625 C 6.203125 -20.265625 5.378906 -20.234375 4.578125 -20.296875 C 3.773438 -20.359375 3.050781 -20.535156 2.40625 -20.828125 C 2.46875 -20.078125 2.554688 -19.316406 2.671875 -18.546875 C 2.796875 -17.785156 2.953125 -17.078125 3.140625 -16.421875 C 3.328125 -15.773438 3.554688 -15.253906 3.828125 -14.859375 C 4.097656 -14.472656 4.429688 -14.289062 4.828125 -14.3125 Z M 4.828125 -14.3125 "/></g></g></g><g fill="#ffffff" fill-opacity="1"><g transform="translate(54.206634, 63.499974)"><g><path d="M 19.140625 -25.796875 C 18.503906 -24.015625 17.75 -22.328125 16.875 -20.734375 C 16 -19.140625 15.054688 -17.59375 14.046875 -16.09375 C 14.097656 -16 14.148438 -15.90625 14.203125 -15.8125 C 14.253906 -15.726562 14.304688 -15.632812 14.359375 -15.53125 C 14.734375 -14.8125 14.976562 -14.050781 15.09375 -13.25 C 15.21875 -12.445312 15.253906 -11.632812 15.203125 -10.8125 C 15.148438 -9.988281 15.046875 -9.164062 14.890625 -8.34375 C 14.734375 -7.53125 14.5625 -6.753906 14.375 -6.015625 C 13.96875 -4.328125 13.429688 -2.648438 12.765625 -0.984375 C 12.109375 0.671875 11.316406 2.203125 10.390625 3.609375 C 9.554688 4.859375 8.585938 6.015625 7.484375 7.078125 C 6.390625 8.148438 5.1875 8.96875 3.875 9.53125 C 3.4375 9.695312 2.976562 9.820312 2.5 9.90625 C 2.019531 10 1.554688 10 1.109375 9.90625 C 0.671875 9.820312 0.296875 9.617188 -0.015625 9.296875 C -0.328125 8.972656 -0.523438 8.484375 -0.609375 7.828125 C -0.703125 7.140625 -0.648438 6.457031 -0.453125 5.78125 C -0.253906 5.101562 -0.0351562 4.457031 0.203125 3.84375 C 0.492188 2.988281 0.835938 2.148438 1.234375 1.328125 C 1.640625 0.503906 2.050781 -0.300781 2.46875 -1.09375 C 3.269531 -2.5625 4.125 -3.992188 5.03125 -5.390625 C 5.9375 -6.785156 6.882812 -8.15625 7.875 -9.5 C 8.488281 -10.3125 9.097656 -11.125 9.703125 -11.9375 C 10.316406 -12.757812 10.925781 -13.578125 11.53125 -14.390625 C 11.320312 -14.929688 11.046875 -15.410156 10.703125 -15.828125 C 10.222656 -16.429688 9.738281 -16.726562 9.25 -16.71875 C 8.769531 -16.707031 8.242188 -16.488281 7.671875 -16.0625 C 7.203125 -15.707031 6.773438 -15.335938 6.390625 -14.953125 C 6.015625 -14.566406 5.632812 -14.179688 5.25 -13.796875 C 4.925781 -13.148438 4.5625 -12.523438 4.15625 -11.921875 C 3.757812 -11.328125 3.285156 -10.890625 2.734375 -10.609375 C 2.585938 -10.546875 2.375 -10.488281 2.09375 -10.4375 C 1.820312 -10.382812 1.554688 -10.382812 1.296875 -10.4375 C 1.035156 -10.488281 0.859375 -10.632812 0.765625 -10.875 C 0.628906 -11.28125 0.632812 -11.664062 0.78125 -12.03125 C 0.925781 -12.394531 1.117188 -12.742188 1.359375 -13.078125 C 1.597656 -13.421875 1.8125 -13.753906 2 -14.078125 C 2.363281 -14.703125 2.71875 -15.335938 3.0625 -15.984375 C 3.40625 -16.628906 3.726562 -17.28125 4.03125 -17.9375 C 4.675781 -19.289062 5.226562 -20.695312 5.6875 -22.15625 C 6.15625 -23.613281 6.453125 -25.109375 6.578125 -26.640625 C 6.648438 -27.359375 6.675781 -28.09375 6.65625 -28.84375 C 6.632812 -29.59375 6.546875 -30.304688 6.390625 -30.984375 C 6.359375 -31.097656 6.296875 -31.257812 6.203125 -31.46875 C 6.117188 -31.6875 6.007812 -31.875 5.875 -32.03125 C 5.738281 -32.195312 5.578125 -32.25 5.390625 -32.1875 C 5.140625 -32.132812 4.863281 -31.976562 4.5625 -31.71875 C 4.269531 -31.46875 4.046875 -31.238281 3.890625 -31.03125 C 3.640625 -30.71875 3.363281 -30.304688 3.0625 -29.796875 C 2.769531 -29.296875 2.472656 -28.757812 2.171875 -28.1875 C 1.867188 -27.625 1.585938 -27.09375 1.328125 -26.59375 C 1.078125 -26.101562 0.878906 -25.695312 0.734375 -25.375 C 0.585938 -25.0625 0.515625 -24.90625 0.515625 -24.90625 C 0.421875 -24.820312 0.269531 -24.8125 0.0625 -24.875 C -0.132812 -24.945312 -0.316406 -25.066406 -0.484375 -25.234375 C -0.660156 -25.398438 -0.75 -25.585938 -0.75 -25.796875 C -0.75 -26.347656 -0.644531 -26.972656 -0.4375 -27.671875 C -0.226562 -28.367188 0.03125 -29.054688 0.34375 -29.734375 C 0.664062 -30.421875 0.988281 -31.035156 1.3125 -31.578125 C 1.644531 -32.128906 1.9375 -32.539062 2.1875 -32.8125 C 2.75 -33.425781 3.375 -33.878906 4.0625 -34.171875 C 4.75 -34.472656 5.4375 -34.601562 6.125 -34.5625 C 6.8125 -34.53125 7.429688 -34.316406 7.984375 -33.921875 C 8.546875 -33.523438 8.984375 -32.9375 9.296875 -32.15625 C 9.640625 -31.300781 9.84375 -30.382812 9.90625 -29.40625 C 9.976562 -28.4375 9.957031 -27.441406 9.84375 -26.421875 C 9.726562 -25.410156 9.546875 -24.421875 9.296875 -23.453125 C 9.046875 -22.492188 8.78125 -21.601562 8.5 -20.78125 C 8.382812 -20.414062 8.253906 -20.054688 8.109375 -19.703125 C 7.972656 -19.359375 7.835938 -19.015625 7.703125 -18.671875 C 8.703125 -18.910156 9.703125 -18.90625 10.703125 -18.65625 C 11.703125 -18.414062 12.582031 -17.875 13.34375 -17.03125 C 14.238281 -18.382812 15.066406 -19.796875 15.828125 -21.265625 C 16.585938 -22.742188 17.21875 -24.316406 17.71875 -25.984375 C 17.757812 -26.117188 17.863281 -26.210938 18.03125 -26.265625 C 18.195312 -26.316406 18.375 -26.332031 18.5625 -26.3125 C 18.75 -26.300781 18.90625 -26.25 19.03125 -26.15625 C 19.15625 -26.0625 19.191406 -25.941406 19.140625 -25.796875 Z M 11.96875 -11.9375 C 11.96875 -12.3125 11.929688 -12.679688 11.859375 -13.046875 C 11.710938 -12.835938 11.5625 -12.628906 11.40625 -12.421875 C 11.257812 -12.222656 11.109375 -12.019531 10.953125 -11.8125 C 9.890625 -10.40625 8.835938 -8.976562 7.796875 -7.53125 C 6.765625 -6.082031 5.78125 -4.585938 4.84375 -3.046875 C 3.914062 -1.515625 3.082031 0.0859375 2.34375 1.765625 C 2.238281 1.992188 2.09375 2.332031 1.90625 2.78125 C 1.71875 3.226562 1.523438 3.726562 1.328125 4.28125 C 1.128906 4.84375 0.96875 5.394531 0.84375 5.9375 C 0.726562 6.488281 0.675781 6.976562 0.6875 7.40625 C 0.695312 7.84375 0.816406 8.175781 1.046875 8.40625 C 1.273438 8.632812 1.648438 8.695312 2.171875 8.59375 C 2.941406 8.4375 3.691406 8.039062 4.421875 7.40625 C 5.160156 6.78125 5.859375 5.984375 6.515625 5.015625 C 7.179688 4.054688 7.800781 2.988281 8.375 1.8125 C 8.945312 0.632812 9.460938 -0.585938 9.921875 -1.859375 C 10.378906 -3.128906 10.765625 -4.382812 11.078125 -5.625 C 11.398438 -6.875 11.640625 -8.039062 11.796875 -9.125 C 11.953125 -10.207031 12.007812 -11.144531 11.96875 -11.9375 Z M 11.96875 -11.9375 "/></g></g></g><g fill="#ffffff" fill-opacity="1"><g transform="translate(72.564215, 63.499974)"><g><path d="M 14.109375 -26.5625 C 14.171875 -26.695312 14.269531 -26.773438 14.40625 -26.796875 C 14.550781 -26.828125 14.671875 -26.800781 14.765625 -26.71875 C 14.867188 -26.644531 14.890625 -26.519531 14.828125 -26.34375 C 14.660156 -25.09375 14.171875 -24.0625 13.359375 -23.25 C 12.554688 -22.4375 11.457031 -21.757812 10.0625 -21.21875 C 9.90625 -20.132812 9.679688 -19.0625 9.390625 -18 C 9.109375 -16.945312 8.757812 -15.984375 8.34375 -15.109375 C 7.925781 -14.234375 7.4375 -13.523438 6.875 -12.984375 C 6.3125 -12.441406 5.675781 -12.148438 4.96875 -12.109375 C 4.15625 -12.054688 3.445312 -12.1875 2.84375 -12.5 C 2.238281 -12.820312 1.71875 -13.269531 1.28125 -13.84375 C 0.851562 -14.414062 0.492188 -15.070312 0.203125 -15.8125 C -0.078125 -16.5625 -0.296875 -17.332031 -0.453125 -18.125 C -0.617188 -18.914062 -0.742188 -19.6875 -0.828125 -20.4375 C -0.910156 -21.1875 -0.960938 -21.867188 -0.984375 -22.484375 C -1.003906 -23.097656 -1.007812 -23.578125 -1 -23.921875 C -1 -24.078125 -0.984375 -24.222656 -0.953125 -24.359375 C -0.929688 -24.503906 -0.898438 -24.628906 -0.859375 -24.734375 C -1.097656 -25.628906 -1.160156 -26.5625 -1.046875 -27.53125 C -0.929688 -28.507812 -0.671875 -29.460938 -0.265625 -30.390625 C 0.128906 -31.316406 0.648438 -32.144531 1.296875 -32.875 C 1.921875 -33.570312 2.585938 -34.035156 3.296875 -34.265625 C 4.015625 -34.503906 4.71875 -34.539062 5.40625 -34.375 C 6.101562 -34.21875 6.71875 -33.90625 7.25 -33.4375 C 8.519531 -32.320312 9.394531 -30.921875 9.875 -29.234375 C 10.363281 -27.546875 10.5 -25.5 10.28125 -23.09375 C 10.28125 -23.007812 10.273438 -22.925781 10.265625 -22.84375 C 10.253906 -22.757812 10.242188 -22.671875 10.234375 -22.578125 C 10.910156 -22.796875 11.546875 -23.082031 12.140625 -23.4375 C 12.734375 -23.789062 13.210938 -24.226562 13.578125 -24.75 C 13.941406 -25.269531 14.117188 -25.875 14.109375 -26.5625 Z M 2.03125 -29.890625 C 1.957031 -29.609375 1.863281 -29.21875 1.75 -28.71875 C 1.632812 -28.226562 1.550781 -27.691406 1.5 -27.109375 C 1.445312 -26.523438 1.457031 -25.953125 1.53125 -25.390625 C 1.738281 -25.265625 1.898438 -25.113281 2.015625 -24.9375 C 2.140625 -24.757812 2.210938 -24.5625 2.234375 -24.34375 C 2.234375 -24.257812 2.234375 -24.148438 2.234375 -24.015625 C 2.234375 -23.890625 2.234375 -23.738281 2.234375 -23.5625 C 2.253906 -23.539062 2.269531 -23.519531 2.28125 -23.5 C 2.300781 -23.488281 2.316406 -23.46875 2.328125 -23.4375 C 2.753906 -22.96875 3.410156 -22.609375 4.296875 -22.359375 C 5.179688 -22.117188 6.160156 -22.015625 7.234375 -22.046875 C 7.304688 -22.773438 7.34375 -23.390625 7.34375 -23.890625 C 7.375 -24.710938 7.378906 -25.578125 7.359375 -26.484375 C 7.347656 -27.398438 7.273438 -28.300781 7.140625 -29.1875 C 7.003906 -30.070312 6.75 -30.882812 6.375 -31.625 C 5.988281 -32.394531 5.59375 -32.878906 5.1875 -33.078125 C 4.78125 -33.273438 4.378906 -33.253906 3.984375 -33.015625 C 3.597656 -32.785156 3.234375 -32.390625 2.890625 -31.828125 C 2.554688 -31.273438 2.269531 -30.628906 2.03125 -29.890625 Z M 4.828125 -14.3125 C 5.128906 -14.34375 5.394531 -14.535156 5.625 -14.890625 C 5.863281 -15.253906 6.070312 -15.726562 6.25 -16.3125 C 6.4375 -16.90625 6.59375 -17.554688 6.71875 -18.265625 C 6.851562 -18.984375 6.960938 -19.691406 7.046875 -20.390625 C 6.203125 -20.265625 5.378906 -20.234375 4.578125 -20.296875 C 3.773438 -20.359375 3.050781 -20.535156 2.40625 -20.828125 C 2.46875 -20.078125 2.554688 -19.316406 2.671875 -18.546875 C 2.796875 -17.785156 2.953125 -17.078125 3.140625 -16.421875 C 3.328125 -15.773438 3.554688 -15.253906 3.828125 -14.859375 C 4.097656 -14.472656 4.429688 -14.289062 4.828125 -14.3125 Z M 4.828125 -14.3125 "/></g></g></g><g fill="#ffffff" fill-opacity="1"><g transform="translate(86.488641, 63.499974)"><g><path d="M 12.171875 -25.859375 C 11.867188 -24.515625 11.570312 -23.175781 11.28125 -21.84375 C 11 -20.519531 10.695312 -19.265625 10.375 -18.078125 C 10.0625 -16.890625 9.710938 -15.820312 9.328125 -14.875 C 8.941406 -13.925781 8.503906 -13.164062 8.015625 -12.59375 C 7.523438 -12.019531 6.96875 -11.691406 6.34375 -11.609375 C 5.351562 -11.460938 4.488281 -11.550781 3.75 -11.875 C 3.007812 -12.195312 2.375 -12.691406 1.84375 -13.359375 C 1.320312 -14.035156 0.878906 -14.820312 0.515625 -15.71875 C 0.160156 -16.625 -0.125 -17.578125 -0.34375 -18.578125 C -0.5625 -19.578125 -0.722656 -20.578125 -0.828125 -21.578125 C -0.941406 -22.585938 -1.019531 -23.53125 -1.0625 -24.40625 C -1.113281 -25.28125 -1.144531 -26.03125 -1.15625 -26.65625 C -1.195312 -28.976562 -1.125 -31.335938 -0.9375 -33.734375 C -0.757812 -36.140625 -0.441406 -38.523438 0.015625 -40.890625 C 0.472656 -43.265625 1.085938 -45.546875 1.859375 -47.734375 C 2.335938 -49.097656 2.796875 -50.234375 3.234375 -51.140625 C 3.671875 -52.046875 4.082031 -52.769531 4.46875 -53.3125 C 4.851562 -53.863281 5.210938 -54.273438 5.546875 -54.546875 C 5.890625 -54.828125 6.203125 -55.007812 6.484375 -55.09375 C 7.523438 -55.457031 8.4375 -55.210938 9.21875 -54.359375 C 9.632812 -53.898438 9.890625 -53.207031 9.984375 -52.28125 C 10.085938 -51.363281 10.050781 -50.273438 9.875 -49.015625 C 9.707031 -47.753906 9.421875 -46.398438 9.015625 -44.953125 C 8.609375 -43.503906 8.085938 -42.015625 7.453125 -40.484375 C 6.816406 -38.960938 6.09375 -37.46875 5.28125 -36 C 4.46875 -34.53125 3.582031 -33.160156 2.625 -31.890625 C 2.59375 -31.441406 2.570312 -30.898438 2.5625 -30.265625 C 2.550781 -29.628906 2.546875 -28.992188 2.546875 -28.359375 C 2.546875 -27.734375 2.546875 -27.191406 2.546875 -26.734375 C 2.566406 -25.347656 2.640625 -23.9375 2.765625 -22.5 C 2.890625 -21.070312 3.117188 -19.671875 3.453125 -18.296875 C 3.628906 -17.691406 3.828125 -17.082031 4.046875 -16.46875 C 4.273438 -15.851562 4.554688 -15.273438 4.890625 -14.734375 C 5.097656 -14.398438 5.300781 -14.140625 5.5 -13.953125 C 5.695312 -13.773438 6 -13.695312 6.40625 -13.71875 C 6.75 -13.726562 7.082031 -13.941406 7.40625 -14.359375 C 7.726562 -14.773438 8.035156 -15.320312 8.328125 -16 C 8.617188 -16.675781 8.894531 -17.421875 9.15625 -18.234375 C 9.414062 -19.054688 9.65625 -19.890625 9.875 -20.734375 C 10.101562 -21.585938 10.304688 -22.394531 10.484375 -23.15625 C 10.660156 -23.914062 10.8125 -24.566406 10.9375 -25.109375 C 11.070312 -25.648438 11.171875 -26.023438 11.234375 -26.234375 C 11.335938 -26.546875 11.476562 -26.710938 11.65625 -26.734375 C 11.832031 -26.765625 11.976562 -26.691406 12.09375 -26.515625 C 12.207031 -26.347656 12.234375 -26.128906 12.171875 -25.859375 Z M 4.34375 -43.640625 C 4.0625 -42.242188 3.804688 -40.84375 3.578125 -39.4375 C 3.359375 -38.03125 3.160156 -36.617188 2.984375 -35.203125 C 3.160156 -35.359375 3.394531 -35.6875 3.6875 -36.1875 C 3.988281 -36.695312 4.328125 -37.335938 4.703125 -38.109375 C 5.085938 -38.890625 5.476562 -39.75 5.875 -40.6875 C 6.269531 -41.625 6.648438 -42.601562 7.015625 -43.625 C 7.390625 -44.65625 7.71875 -45.675781 8 -46.6875 C 8.289062 -47.695312 8.507812 -48.660156 8.65625 -49.578125 C 8.800781 -50.492188 8.847656 -51.3125 8.796875 -52.03125 C 8.753906 -52.757812 8.582031 -53.335938 8.28125 -53.765625 C 8.019531 -53.691406 7.753906 -53.453125 7.484375 -53.046875 C 7.210938 -52.640625 6.941406 -52.128906 6.671875 -51.515625 C 6.398438 -50.898438 6.144531 -50.226562 5.90625 -49.5 C 5.664062 -48.78125 5.441406 -48.050781 5.234375 -47.3125 C 5.023438 -46.582031 4.84375 -45.894531 4.6875 -45.25 C 4.539062 -44.613281 4.425781 -44.078125 4.34375 -43.640625 Z M 4.34375 -43.640625 "/></g></g></g><g fill="#ffffff" fill-opacity="1"><g transform="translate(97.678959, 63.499974)"><g><path d="M 7.9375 -24.203125 C 7.570312 -23.585938 7.140625 -23.019531 6.640625 -22.5 C 6.148438 -21.988281 5.59375 -21.585938 4.96875 -21.296875 C 4.351562 -21.015625 3.660156 -20.910156 2.890625 -20.984375 C 2.816406 -20.984375 2.738281 -20.988281 2.65625 -21 C 2.582031 -21.007812 2.503906 -21.019531 2.421875 -21.03125 C 2.472656 -20.320312 2.570312 -19.628906 2.71875 -18.953125 C 2.875 -18.273438 3.097656 -17.664062 3.390625 -17.125 C 3.691406 -16.582031 4.085938 -16.140625 4.578125 -15.796875 C 5.078125 -15.460938 5.6875 -15.28125 6.40625 -15.25 C 7.03125 -15.226562 7.617188 -15.375 8.171875 -15.6875 C 8.722656 -16 9.234375 -16.410156 9.703125 -16.921875 C 10.171875 -17.441406 10.597656 -17.988281 10.984375 -18.5625 C 11.378906 -19.132812 11.734375 -19.671875 12.046875 -20.171875 C 12.148438 -20.347656 12.296875 -20.628906 12.484375 -21.015625 C 12.679688 -21.410156 12.890625 -21.863281 13.109375 -22.375 C 13.328125 -22.882812 13.539062 -23.414062 13.75 -23.96875 C 13.96875 -24.53125 14.160156 -25.078125 14.328125 -25.609375 C 14.492188 -26.140625 14.613281 -26.609375 14.6875 -27.015625 C 14.738281 -27.285156 14.851562 -27.457031 15.03125 -27.53125 C 15.207031 -27.613281 15.367188 -27.609375 15.515625 -27.515625 C 15.671875 -27.429688 15.710938 -27.257812 15.640625 -27 C 15.484375 -26.300781 15.257812 -25.507812 14.96875 -24.625 C 14.675781 -23.738281 14.34375 -22.832031 13.96875 -21.90625 C 13.59375 -20.976562 13.195312 -20.078125 12.78125 -19.203125 C 12.257812 -18.097656 11.648438 -17.09375 10.953125 -16.1875 C 10.253906 -15.28125 9.488281 -14.550781 8.65625 -14 C 7.832031 -13.457031 6.953125 -13.15625 6.015625 -13.09375 C 5.140625 -13.019531 4.296875 -13.097656 3.484375 -13.328125 C 2.671875 -13.566406 1.945312 -13.953125 1.3125 -14.484375 C 0.675781 -15.023438 0.160156 -15.707031 -0.234375 -16.53125 C -0.597656 -17.332031 -0.859375 -18.1875 -1.015625 -19.09375 C -1.171875 -20.007812 -1.25 -20.9375 -1.25 -21.875 C -1.257812 -22.820312 -1.238281 -23.726562 -1.1875 -24.59375 C -1.15625 -25.289062 -1.0625 -26.0625 -0.90625 -26.90625 C -0.757812 -27.75 -0.546875 -28.601562 -0.265625 -29.46875 C 0.00390625 -30.34375 0.34375 -31.179688 0.75 -31.984375 C 1.164062 -32.796875 1.648438 -33.519531 2.203125 -34.15625 C 2.765625 -34.800781 3.40625 -35.3125 4.125 -35.6875 C 4.84375 -36.0625 5.644531 -36.25 6.53125 -36.25 C 7.382812 -36.25 8.070312 -36.082031 8.59375 -35.75 C 9.113281 -35.414062 9.492188 -34.957031 9.734375 -34.375 C 9.972656 -33.800781 10.109375 -33.148438 10.140625 -32.421875 C 10.179688 -31.703125 10.132812 -30.945312 10 -30.15625 C 9.875 -29.375 9.691406 -28.601562 9.453125 -27.84375 C 9.222656 -27.09375 8.972656 -26.398438 8.703125 -25.765625 C 8.429688 -25.140625 8.175781 -24.617188 7.9375 -24.203125 Z M 2.390625 -22.5 C 2.421875 -22.476562 2.457031 -22.453125 2.5 -22.421875 C 2.539062 -22.398438 2.585938 -22.375 2.640625 -22.34375 C 3.023438 -22.144531 3.382812 -22.101562 3.71875 -22.21875 C 4.0625 -22.332031 4.375 -22.53125 4.65625 -22.8125 C 4.945312 -23.101562 5.203125 -23.421875 5.421875 -23.765625 C 5.648438 -24.109375 5.84375 -24.410156 6 -24.671875 C 6.570312 -25.703125 7.03125 -26.789062 7.375 -27.9375 C 7.71875 -29.082031 7.894531 -30.238281 7.90625 -31.40625 C 7.925781 -31.707031 7.914062 -32.078125 7.875 -32.515625 C 7.84375 -32.960938 7.757812 -33.390625 7.625 -33.796875 C 7.5 -34.210938 7.28125 -34.503906 6.96875 -34.671875 C 6.6875 -34.835938 6.328125 -34.757812 5.890625 -34.4375 C 5.453125 -34.125 5.007812 -33.597656 4.5625 -32.859375 C 4.113281 -32.128906 3.710938 -31.210938 3.359375 -30.109375 C 3.003906 -29.003906 2.757812 -27.757812 2.625 -26.375 C 2.582031 -25.957031 2.53125 -25.40625 2.46875 -24.71875 C 2.414062 -24.03125 2.390625 -23.289062 2.390625 -22.5 Z M 2.390625 -22.5 "/></g></g></g><g fill="#ffffff" fill-opacity="1"><g transform="translate(112.521258, 63.499974)"><g/></g></g><g fill="#ffffff" fill-opacity="1"><g transform="translate(122.344522, 63.499974)"><g><path d="M 1.796875 -51.78125 C 2.296875 -53.070312 2.835938 -54.109375 3.421875 -54.890625 C 4.003906 -55.671875 4.597656 -56.253906 5.203125 -56.640625 C 5.804688 -57.035156 6.375 -57.285156 6.90625 -57.390625 C 7.445312 -57.492188 7.90625 -57.507812 8.28125 -57.4375 C 9.257812 -57.28125 10.070312 -56.953125 10.71875 -56.453125 C 11.363281 -55.953125 11.890625 -55.335938 12.296875 -54.609375 C 12.703125 -53.890625 13.03125 -53.113281 13.28125 -52.28125 C 13.53125 -51.445312 13.738281 -50.609375 13.90625 -49.765625 C 14.164062 -48.472656 14.375 -47.175781 14.53125 -45.875 C 14.6875 -44.570312 14.804688 -43.265625 14.890625 -41.953125 C 14.992188 -42.242188 15.09375 -42.523438 15.1875 -42.796875 C 15.28125 -43.078125 15.390625 -43.359375 15.515625 -43.640625 C 16.148438 -45.222656 16.925781 -46.734375 17.84375 -48.171875 C 18.757812 -49.609375 19.84375 -50.882812 21.09375 -52 C 22.34375 -53.125 23.796875 -53.992188 25.453125 -54.609375 C 26.148438 -54.867188 26.894531 -55.070312 27.6875 -55.21875 C 28.488281 -55.375 29.285156 -55.429688 30.078125 -55.390625 C 30.867188 -55.347656 31.613281 -55.171875 32.3125 -54.859375 C 32.90625 -54.585938 33.347656 -54.25 33.640625 -53.84375 C 33.929688 -53.445312 34.113281 -52.992188 34.1875 -52.484375 C 34.257812 -51.984375 34.265625 -51.460938 34.203125 -50.921875 C 34.140625 -50.390625 34.046875 -49.851562 33.921875 -49.3125 C 33.523438 -47.476562 33.046875 -45.65625 32.484375 -43.84375 C 31.921875 -42.039062 31.25 -40.28125 30.46875 -38.5625 C 29.695312 -36.84375 28.765625 -35.203125 27.671875 -33.640625 C 27.140625 -32.878906 26.539062 -32.097656 25.875 -31.296875 C 25.21875 -30.492188 24.5 -29.722656 23.71875 -28.984375 C 22.9375 -28.242188 22.109375 -27.582031 21.234375 -27 C 21.503906 -26.84375 21.765625 -26.660156 22.015625 -26.453125 C 22.753906 -25.828125 23.351562 -25.101562 23.8125 -24.28125 C 24.28125 -23.457031 24.648438 -22.582031 24.921875 -21.65625 C 25.191406 -20.738281 25.398438 -19.800781 25.546875 -18.84375 C 25.691406 -17.882812 25.8125 -16.957031 25.90625 -16.0625 C 26.007812 -15 26.09375 -13.9375 26.15625 -12.875 C 26.226562 -11.820312 26.273438 -10.765625 26.296875 -9.703125 C 26.304688 -9.066406 26.320312 -8.4375 26.34375 -7.8125 C 26.363281 -7.195312 26.445312 -6.59375 26.59375 -6 C 26.738281 -5.414062 27.003906 -4.84375 27.390625 -4.28125 C 27.628906 -3.9375 27.910156 -3.617188 28.234375 -3.328125 C 28.554688 -3.046875 28.910156 -2.835938 29.296875 -2.703125 C 29.691406 -2.566406 30.101562 -2.550781 30.53125 -2.65625 C 31.113281 -2.800781 31.609375 -3.117188 32.015625 -3.609375 C 32.421875 -4.097656 32.726562 -4.609375 32.9375 -5.140625 C 33.039062 -5.421875 33.113281 -5.796875 33.15625 -6.265625 C 33.195312 -6.734375 33.191406 -7.210938 33.140625 -7.703125 C 33.085938 -8.191406 32.972656 -8.613281 32.796875 -8.96875 C 32.628906 -9.320312 32.378906 -9.535156 32.046875 -9.609375 C 31.722656 -9.691406 31.304688 -9.550781 30.796875 -9.1875 C 30.691406 -9.113281 30.53125 -9.082031 30.3125 -9.09375 C 30.101562 -9.113281 29.976562 -9.203125 29.9375 -9.359375 C 29.863281 -9.691406 29.921875 -9.957031 30.109375 -10.15625 C 30.296875 -10.363281 30.550781 -10.515625 30.875 -10.609375 C 31.207031 -10.703125 31.539062 -10.75 31.875 -10.75 C 32.21875 -10.757812 32.5 -10.738281 32.71875 -10.6875 C 33.300781 -10.570312 33.773438 -10.320312 34.140625 -9.9375 C 34.515625 -9.550781 34.796875 -9.097656 34.984375 -8.578125 C 35.179688 -8.054688 35.289062 -7.519531 35.3125 -6.96875 C 35.363281 -5.957031 35.179688 -5.046875 34.765625 -4.234375 C 34.347656 -3.421875 33.773438 -2.753906 33.046875 -2.234375 C 32.316406 -1.710938 31.492188 -1.390625 30.578125 -1.265625 C 29.671875 -1.140625 28.742188 -1.253906 27.796875 -1.609375 C 26.953125 -1.929688 26.226562 -2.394531 25.625 -3 C 25.03125 -3.601562 24.53125 -4.300781 24.125 -5.09375 C 23.726562 -5.894531 23.40625 -6.738281 23.15625 -7.625 C 22.914062 -8.507812 22.734375 -9.394531 22.609375 -10.28125 C 22.484375 -11.175781 22.390625 -12.015625 22.328125 -12.796875 C 22.222656 -14.148438 22.101562 -15.492188 21.96875 -16.828125 C 21.84375 -18.160156 21.644531 -19.484375 21.375 -20.796875 C 21.289062 -21.210938 21.207031 -21.664062 21.125 -22.15625 C 21.039062 -22.65625 20.9375 -23.15625 20.8125 -23.65625 C 20.6875 -24.164062 20.53125 -24.628906 20.34375 -25.046875 C 20.15625 -25.460938 19.910156 -25.800781 19.609375 -26.0625 C 19.085938 -25.8125 18.5625 -25.597656 18.03125 -25.421875 C 17.5 -25.253906 16.957031 -25.144531 16.40625 -25.09375 C 16.050781 -25.0625 15.738281 -25.035156 15.46875 -25.015625 C 15.207031 -25.003906 14.988281 -25.003906 14.8125 -25.015625 C 14.65625 -22.566406 14.398438 -20.125 14.046875 -17.6875 C 13.703125 -15.257812 13.21875 -12.847656 12.59375 -10.453125 C 12.382812 -9.628906 12.144531 -8.773438 11.875 -7.890625 C 11.613281 -7.015625 11.296875 -6.160156 10.921875 -5.328125 C 10.554688 -4.492188 10.097656 -3.734375 9.546875 -3.046875 C 8.992188 -2.359375 8.3125 -1.789062 7.5 -1.34375 C 7.269531 -1.21875 6.921875 -1.085938 6.453125 -0.953125 C 5.992188 -0.816406 5.472656 -0.695312 4.890625 -0.59375 C 4.316406 -0.5 3.738281 -0.441406 3.15625 -0.421875 C 2.570312 -0.410156 2.039062 -0.460938 1.5625 -0.578125 C 1.09375 -0.703125 0.726562 -0.910156 0.46875 -1.203125 C 0.21875 -1.492188 0.140625 -1.894531 0.234375 -2.40625 C 0.273438 -2.601562 0.378906 -2.734375 0.546875 -2.796875 C 0.710938 -2.867188 0.90625 -2.90625 1.125 -2.90625 C 1.34375 -2.90625 1.515625 -2.890625 1.640625 -2.859375 C 2.054688 -2.753906 2.460938 -2.65625 2.859375 -2.5625 C 3.253906 -2.46875 3.644531 -2.441406 4.03125 -2.484375 C 4.414062 -2.523438 4.796875 -2.679688 5.171875 -2.953125 C 5.773438 -3.390625 6.257812 -3.945312 6.625 -4.625 C 7 -5.300781 7.316406 -5.976562 7.578125 -6.65625 C 8.210938 -8.289062 8.722656 -9.960938 9.109375 -11.671875 C 9.503906 -13.378906 9.84375 -15.085938 10.125 -16.796875 C 10.613281 -19.921875 10.921875 -23.066406 11.046875 -26.234375 C 11.179688 -29.410156 11.242188 -32.570312 11.234375 -35.71875 C 11.222656 -37.3125 11.191406 -38.890625 11.140625 -40.453125 C 11.085938 -42.023438 10.96875 -43.597656 10.78125 -45.171875 C 10.675781 -46.128906 10.554688 -47.128906 10.421875 -48.171875 C 10.296875 -49.210938 10.101562 -50.234375 9.84375 -51.234375 C 9.59375 -52.242188 9.222656 -53.164062 8.734375 -54 C 8.628906 -54.1875 8.492188 -54.394531 8.328125 -54.625 C 8.171875 -54.851562 7.992188 -55.050781 7.796875 -55.21875 C 7.597656 -55.394531 7.382812 -55.484375 7.15625 -55.484375 C 6.945312 -55.484375 6.691406 -55.421875 6.390625 -55.296875 C 6.085938 -55.179688 5.765625 -54.945312 5.421875 -54.59375 C 5.078125 -54.238281 4.722656 -53.734375 4.359375 -53.078125 C 4.003906 -52.421875 3.660156 -51.566406 3.328125 -50.515625 C 2.835938 -48.972656 2.472656 -47.394531 2.234375 -45.78125 C 1.992188 -44.175781 1.835938 -42.578125 1.765625 -40.984375 C 1.742188 -40.671875 1.734375 -40.234375 1.734375 -39.671875 C 1.734375 -39.117188 1.753906 -38.523438 1.796875 -37.890625 C 1.847656 -37.265625 1.925781 -36.660156 2.03125 -36.078125 C 2.144531 -35.503906 2.300781 -35.023438 2.5 -34.640625 C 2.695312 -34.253906 2.953125 -34.050781 3.265625 -34.03125 C 3.578125 -34 3.851562 -34.148438 4.09375 -34.484375 C 4.34375 -34.828125 4.5625 -35.296875 4.75 -35.890625 C 4.945312 -36.484375 5.113281 -37.148438 5.25 -37.890625 C 5.394531 -38.628906 5.519531 -39.394531 5.625 -40.1875 C 5.738281 -40.976562 5.835938 -41.738281 5.921875 -42.46875 C 6.015625 -43.195312 6.097656 -43.832031 6.171875 -44.375 C 6.203125 -44.519531 6.296875 -44.628906 6.453125 -44.703125 C 6.609375 -44.785156 6.789062 -44.828125 7 -44.828125 C 7.207031 -44.828125 7.390625 -44.789062 7.546875 -44.71875 C 7.703125 -44.65625 7.785156 -44.546875 7.796875 -44.390625 C 7.910156 -43.109375 7.90625 -41.820312 7.78125 -40.53125 C 7.65625 -39.25 7.472656 -37.972656 7.234375 -36.703125 C 7.148438 -36.296875 7.015625 -35.835938 6.828125 -35.328125 C 6.640625 -34.828125 6.394531 -34.335938 6.09375 -33.859375 C 5.789062 -33.378906 5.4375 -32.984375 5.03125 -32.671875 C 4.625 -32.359375 4.144531 -32.191406 3.59375 -32.171875 C 2.96875 -32.140625 2.429688 -32.265625 1.984375 -32.546875 C 1.535156 -32.835938 1.160156 -33.238281 0.859375 -33.75 C 0.554688 -34.257812 0.316406 -34.832031 0.140625 -35.46875 C -0.0351562 -36.101562 -0.160156 -36.765625 -0.234375 -37.453125 C -0.316406 -38.148438 -0.359375 -38.816406 -0.359375 -39.453125 C -0.335938 -41.515625 -0.15625 -43.601562 0.1875 -45.71875 C 0.539062 -47.832031 1.078125 -49.851562 1.796875 -51.78125 Z M 15 -29.65625 C 14.976562 -28.664062 14.941406 -27.679688 14.890625 -26.703125 C 15.328125 -26.953125 15.816406 -27.164062 16.359375 -27.34375 C 16.910156 -27.53125 17.347656 -27.726562 17.671875 -27.9375 C 18.265625 -28.3125 18.828125 -28.710938 19.359375 -29.140625 C 19.898438 -29.566406 20.414062 -30.023438 20.90625 -30.515625 C 21.851562 -31.421875 22.71875 -32.394531 23.5 -33.4375 C 24.28125 -34.476562 24.988281 -35.570312 25.625 -36.71875 C 26.382812 -38.070312 27.046875 -39.46875 27.609375 -40.90625 C 28.171875 -42.34375 28.671875 -43.800781 29.109375 -45.28125 C 29.316406 -45.976562 29.503906 -46.675781 29.671875 -47.375 C 29.847656 -48.082031 30.015625 -48.796875 30.171875 -49.515625 C 30.222656 -49.742188 30.285156 -50.046875 30.359375 -50.421875 C 30.441406 -50.796875 30.5 -51.175781 30.53125 -51.5625 C 30.570312 -51.957031 30.539062 -52.316406 30.4375 -52.640625 C 30.34375 -52.960938 30.140625 -53.195312 29.828125 -53.34375 C 29.503906 -53.488281 29.113281 -53.507812 28.65625 -53.40625 C 28.207031 -53.300781 27.765625 -53.144531 27.328125 -52.9375 C 26.898438 -52.738281 26.539062 -52.5625 26.25 -52.40625 C 25.726562 -52.113281 25.234375 -51.78125 24.765625 -51.40625 C 24.296875 -51.039062 23.851562 -50.648438 23.4375 -50.234375 C 23.070312 -49.859375 22.617188 -49.34375 22.078125 -48.6875 C 21.535156 -48.039062 20.945312 -47.195312 20.3125 -46.15625 C 19.6875 -45.125 19.050781 -43.847656 18.40625 -42.328125 C 17.757812 -40.816406 17.144531 -39.019531 16.5625 -36.9375 C 15.976562 -34.851562 15.457031 -32.425781 15 -29.65625 Z M 15 -29.65625 "/></g></g></g><g fill="#ffffff" fill-opacity="1"><g transform="translate(153.025123, 63.499974)"><g><path d="M 14.109375 -26.5625 C 14.171875 -26.695312 14.269531 -26.773438 14.40625 -26.796875 C 14.550781 -26.828125 14.671875 -26.800781 14.765625 -26.71875 C 14.867188 -26.644531 14.890625 -26.519531 14.828125 -26.34375 C 14.660156 -25.09375 14.171875 -24.0625 13.359375 -23.25 C 12.554688 -22.4375 11.457031 -21.757812 10.0625 -21.21875 C 9.90625 -20.132812 9.679688 -19.0625 9.390625 -18 C 9.109375 -16.945312 8.757812 -15.984375 8.34375 -15.109375 C 7.925781 -14.234375 7.4375 -13.523438 6.875 -12.984375 C 6.3125 -12.441406 5.675781 -12.148438 4.96875 -12.109375 C 4.15625 -12.054688 3.445312 -12.1875 2.84375 -12.5 C 2.238281 -12.820312 1.71875 -13.269531 1.28125 -13.84375 C 0.851562 -14.414062 0.492188 -15.070312 0.203125 -15.8125 C -0.078125 -16.5625 -0.296875 -17.332031 -0.453125 -18.125 C -0.617188 -18.914062 -0.742188 -19.6875 -0.828125 -20.4375 C -0.910156 -21.1875 -0.960938 -21.867188 -0.984375 -22.484375 C -1.003906 -23.097656 -1.007812 -23.578125 -1 -23.921875 C -1 -24.078125 -0.984375 -24.222656 -0.953125 -24.359375 C -0.929688 -24.503906 -0.898438 -24.628906 -0.859375 -24.734375 C -1.097656 -25.628906 -1.160156 -26.5625 -1.046875 -27.53125 C -0.929688 -28.507812 -0.671875 -29.460938 -0.265625 -30.390625 C 0.128906 -31.316406 0.648438 -32.144531 1.296875 -32.875 C 1.921875 -33.570312 2.585938 -34.035156 3.296875 -34.265625 C 4.015625 -34.503906 4.71875 -34.539062 5.40625 -34.375 C 6.101562 -34.21875 6.71875 -33.90625 7.25 -33.4375 C 8.519531 -32.320312 9.394531 -30.921875 9.875 -29.234375 C 10.363281 -27.546875 10.5 -25.5 10.28125 -23.09375 C 10.28125 -23.007812 10.273438 -22.925781 10.265625 -22.84375 C 10.253906 -22.757812 10.242188 -22.671875 10.234375 -22.578125 C 10.910156 -22.796875 11.546875 -23.082031 12.140625 -23.4375 C 12.734375 -23.789062 13.210938 -24.226562 13.578125 -24.75 C 13.941406 -25.269531 14.117188 -25.875 14.109375 -26.5625 Z M 2.03125 -29.890625 C 1.957031 -29.609375 1.863281 -29.21875 1.75 -28.71875 C 1.632812 -28.226562 1.550781 -27.691406 1.5 -27.109375 C 1.445312 -26.523438 1.457031 -25.953125 1.53125 -25.390625 C 1.738281 -25.265625 1.898438 -25.113281 2.015625 -24.9375 C 2.140625 -24.757812 2.210938 -24.5625 2.234375 -24.34375 C 2.234375 -24.257812 2.234375 -24.148438 2.234375 -24.015625 C 2.234375 -23.890625 2.234375 -23.738281 2.234375 -23.5625 C 2.253906 -23.539062 2.269531 -23.519531 2.28125 -23.5 C 2.300781 -23.488281 2.316406 -23.46875 2.328125 -23.4375 C 2.753906 -22.96875 3.410156 -22.609375 4.296875 -22.359375 C 5.179688 -22.117188 6.160156 -22.015625 7.234375 -22.046875 C 7.304688 -22.773438 7.34375 -23.390625 7.34375 -23.890625 C 7.375 -24.710938 7.378906 -25.578125 7.359375 -26.484375 C 7.347656 -27.398438 7.273438 -28.300781 7.140625 -29.1875 C 7.003906 -30.070312 6.75 -30.882812 6.375 -31.625 C 5.988281 -32.394531 5.59375 -32.878906 5.1875 -33.078125 C 4.78125 -33.273438 4.378906 -33.253906 3.984375 -33.015625 C 3.597656 -32.785156 3.234375 -32.390625 2.890625 -31.828125 C 2.554688 -31.273438 2.269531 -30.628906 2.03125 -29.890625 Z M 4.828125 -14.3125 C 5.128906 -14.34375 5.394531 -14.535156 5.625 -14.890625 C 5.863281 -15.253906 6.070312 -15.726562 6.25 -16.3125 C 6.4375 -16.90625 6.59375 -17.554688 6.71875 -18.265625 C 6.851562 -18.984375 6.960938 -19.691406 7.046875 -20.390625 C 6.203125 -20.265625 5.378906 -20.234375 4.578125 -20.296875 C 3.773438 -20.359375 3.050781 -20.535156 2.40625 -20.828125 C 2.46875 -20.078125 2.554688 -19.316406 2.671875 -18.546875 C 2.796875 -17.785156 2.953125 -17.078125 3.140625 -16.421875 C 3.328125 -15.773438 3.554688 -15.253906 3.828125 -14.859375 C 4.097656 -14.472656 4.429688 -14.289062 4.828125 -14.3125 Z M 4.828125 -14.3125 "/></g></g></g><g fill="#ffffff" fill-opacity="1"><g transform="translate(166.949549, 63.499974)"><g><path d="M 4.296875 -37.15625 C 4.296875 -36.757812 4.035156 -36.425781 3.515625 -36.15625 C 3.003906 -35.882812 2.378906 -35.75 1.640625 -35.75 C 0.910156 -35.75 0.285156 -35.882812 -0.234375 -36.15625 C -0.753906 -36.425781 -1.015625 -36.757812 -1.015625 -37.15625 C -1.015625 -37.414062 -0.894531 -37.648438 -0.65625 -37.859375 C -0.414062 -38.066406 -0.09375 -38.234375 0.3125 -38.359375 C 0.71875 -38.492188 1.160156 -38.5625 1.640625 -38.5625 C 2.378906 -38.5625 3.003906 -38.421875 3.515625 -38.140625 C 4.035156 -37.859375 4.296875 -37.53125 4.296875 -37.15625 Z M 7.4375 -23.5 C 7.644531 -23.757812 7.851562 -23.894531 8.0625 -23.90625 C 8.269531 -23.914062 8.382812 -23.8125 8.40625 -23.59375 C 8.4375 -23.382812 8.28125 -23.0625 7.9375 -22.625 C 7.59375 -22.207031 7.1875 -21.726562 6.71875 -21.1875 C 6.257812 -20.644531 5.800781 -20.097656 5.34375 -19.546875 C 4.894531 -19.003906 4.5 -18.523438 4.15625 -18.109375 C 4.019531 -17.910156 3.875 -17.710938 3.71875 -17.515625 C 3.5625 -17.328125 3.40625 -17.132812 3.25 -16.9375 C 3.25 -15.625 3.25 -14.304688 3.25 -12.984375 C 3.25 -11.671875 3.253906 -10.359375 3.265625 -9.046875 C 3.265625 -7.421875 3.257812 -5.789062 3.25 -4.15625 C 3.25 -2.53125 3.160156 -0.90625 2.984375 0.71875 C 2.910156 1.539062 2.800781 2.394531 2.65625 3.28125 C 2.507812 4.175781 2.273438 5.035156 1.953125 5.859375 C 1.640625 6.679688 1.164062 7.390625 0.53125 7.984375 C -0.144531 8.628906 -0.894531 9.0625 -1.71875 9.28125 C -2.550781 9.5 -3.382812 9.535156 -4.21875 9.390625 C -5.050781 9.253906 -5.835938 8.960938 -6.578125 8.515625 C -7.328125 8.078125 -7.96875 7.519531 -8.5 6.84375 C -9.03125 6.164062 -9.398438 5.394531 -9.609375 4.53125 C -9.910156 3.257812 -9.90625 1.988281 -9.59375 0.71875 C -9.28125 -0.550781 -8.816406 -1.75 -8.203125 -2.875 C -7.453125 -4.25 -6.628906 -5.585938 -5.734375 -6.890625 C -4.835938 -8.191406 -3.914062 -9.460938 -2.96875 -10.703125 C -2.550781 -11.222656 -2.132812 -11.738281 -1.71875 -12.25 C -1.3125 -12.769531 -0.898438 -13.289062 -0.484375 -13.8125 C -0.484375 -13.976562 -0.484375 -14.144531 -0.484375 -14.3125 C -0.484375 -14.488281 -0.484375 -14.660156 -0.484375 -14.828125 C -0.503906 -17.554688 -0.546875 -20.304688 -0.609375 -23.078125 C -0.671875 -25.847656 -0.617188 -28.597656 -0.453125 -31.328125 C -0.679688 -31.390625 -0.898438 -31.484375 -1.109375 -31.609375 C -1.316406 -31.734375 -1.445312 -31.898438 -1.5 -32.109375 C -1.550781 -32.328125 -1.5 -32.507812 -1.34375 -32.65625 C -1.1875 -32.800781 -0.988281 -32.910156 -0.75 -32.984375 C -0.519531 -33.066406 -0.328125 -33.109375 -0.171875 -33.109375 C 0.304688 -33.128906 0.785156 -33.15625 1.265625 -33.1875 C 1.753906 -33.226562 2.238281 -33.257812 2.71875 -33.28125 C 2.894531 -33.289062 3.128906 -33.265625 3.421875 -33.203125 C 3.722656 -33.140625 3.988281 -33.03125 4.21875 -32.875 C 4.457031 -32.726562 4.566406 -32.523438 4.546875 -32.265625 C 4.546875 -31.953125 4.382812 -31.734375 4.0625 -31.609375 C 3.75 -31.484375 3.441406 -31.410156 3.140625 -31.390625 C 3.265625 -29.523438 3.304688 -27.648438 3.265625 -25.765625 C 3.234375 -23.878906 3.226562 -22.003906 3.25 -20.140625 C 3.25 -19.847656 3.25 -19.550781 3.25 -19.25 C 3.25 -18.945312 3.25 -18.644531 3.25 -18.34375 C 3.695312 -18.882812 4.140625 -19.425781 4.578125 -19.96875 C 5.023438 -20.519531 5.472656 -21.070312 5.921875 -21.625 C 6.179688 -21.9375 6.4375 -22.25 6.6875 -22.5625 C 6.945312 -22.875 7.195312 -23.1875 7.4375 -23.5 Z M -0.84375 1.71875 C -0.550781 -0.570312 -0.410156 -2.882812 -0.421875 -5.21875 C -0.429688 -7.550781 -0.445312 -9.875 -0.46875 -12.1875 C -0.632812 -11.957031 -0.804688 -11.722656 -0.984375 -11.484375 C -1.160156 -11.253906 -1.34375 -11.019531 -1.53125 -10.78125 C -2.070312 -10.03125 -2.664062 -9.242188 -3.3125 -8.421875 C -3.957031 -7.609375 -4.59375 -6.753906 -5.21875 -5.859375 C -5.851562 -4.972656 -6.421875 -4.046875 -6.921875 -3.078125 C -7.421875 -2.117188 -7.800781 -1.117188 -8.0625 -0.078125 C -8.320312 0.960938 -8.410156 2.046875 -8.328125 3.171875 C -8.273438 3.765625 -8.128906 4.367188 -7.890625 4.984375 C -7.660156 5.609375 -7.34375 6.160156 -6.9375 6.640625 C -6.53125 7.117188 -6.050781 7.457031 -5.5 7.65625 C -4.945312 7.863281 -4.332031 7.851562 -3.65625 7.625 C -3.09375 7.425781 -2.640625 7.101562 -2.296875 6.65625 C -1.953125 6.21875 -1.6875 5.707031 -1.5 5.125 C -1.3125 4.550781 -1.171875 3.960938 -1.078125 3.359375 C -0.984375 2.765625 -0.90625 2.21875 -0.84375 1.71875 Z M -0.84375 1.71875 "/></g></g></g><g fill="#ffffff" fill-opacity="1"><g transform="translate(174.64411, 63.499974)"><g><path d="M 14.109375 -26.5625 C 14.171875 -26.695312 14.269531 -26.773438 14.40625 -26.796875 C 14.550781 -26.828125 14.671875 -26.800781 14.765625 -26.71875 C 14.867188 -26.644531 14.890625 -26.519531 14.828125 -26.34375 C 14.660156 -25.09375 14.171875 -24.0625 13.359375 -23.25 C 12.554688 -22.4375 11.457031 -21.757812 10.0625 -21.21875 C 9.90625 -20.132812 9.679688 -19.0625 9.390625 -18 C 9.109375 -16.945312 8.757812 -15.984375 8.34375 -15.109375 C 7.925781 -14.234375 7.4375 -13.523438 6.875 -12.984375 C 6.3125 -12.441406 5.675781 -12.148438 4.96875 -12.109375 C 4.15625 -12.054688 3.445312 -12.1875 2.84375 -12.5 C 2.238281 -12.820312 1.71875 -13.269531 1.28125 -13.84375 C 0.851562 -14.414062 0.492188 -15.070312 0.203125 -15.8125 C -0.078125 -16.5625 -0.296875 -17.332031 -0.453125 -18.125 C -0.617188 -18.914062 -0.742188 -19.6875 -0.828125 -20.4375 C -0.910156 -21.1875 -0.960938 -21.867188 -0.984375 -22.484375 C -1.003906 -23.097656 -1.007812 -23.578125 -1 -23.921875 C -1 -24.078125 -0.984375 -24.222656 -0.953125 -24.359375 C -0.929688 -24.503906 -0.898438 -24.628906 -0.859375 -24.734375 C -1.097656 -25.628906 -1.160156 -26.5625 -1.046875 -27.53125 C -0.929688 -28.507812 -0.671875 -29.460938 -0.265625 -30.390625 C 0.128906 -31.316406 0.648438 -32.144531 1.296875 -32.875 C 1.921875 -33.570312 2.585938 -34.035156 3.296875 -34.265625 C 4.015625 -34.503906 4.71875 -34.539062 5.40625 -34.375 C 6.101562 -34.21875 6.71875 -33.90625 7.25 -33.4375 C 8.519531 -32.320312 9.394531 -30.921875 9.875 -29.234375 C 10.363281 -27.546875 10.5 -25.5 10.28125 -23.09375 C 10.28125 -23.007812 10.273438 -22.925781 10.265625 -22.84375 C 10.253906 -22.757812 10.242188 -22.671875 10.234375 -22.578125 C 10.910156 -22.796875 11.546875 -23.082031 12.140625 -23.4375 C 12.734375 -23.789062 13.210938 -24.226562 13.578125 -24.75 C 13.941406 -25.269531 14.117188 -25.875 14.109375 -26.5625 Z M 2.03125 -29.890625 C 1.957031 -29.609375 1.863281 -29.21875 1.75 -28.71875 C 1.632812 -28.226562 1.550781 -27.691406 1.5 -27.109375 C 1.445312 -26.523438 1.457031 -25.953125 1.53125 -25.390625 C 1.738281 -25.265625 1.898438 -25.113281 2.015625 -24.9375 C 2.140625 -24.757812 2.210938 -24.5625 2.234375 -24.34375 C 2.234375 -24.257812 2.234375 -24.148438 2.234375 -24.015625 C 2.234375 -23.890625 2.234375 -23.738281 2.234375 -23.5625 C 2.253906 -23.539062 2.269531 -23.519531 2.28125 -23.5 C 2.300781 -23.488281 2.316406 -23.46875 2.328125 -23.4375 C 2.753906 -22.96875 3.410156 -22.609375 4.296875 -22.359375 C 5.179688 -22.117188 6.160156 -22.015625 7.234375 -22.046875 C 7.304688 -22.773438 7.34375 -23.390625 7.34375 -23.890625 C 7.375 -24.710938 7.378906 -25.578125 7.359375 -26.484375 C 7.347656 -27.398438 7.273438 -28.300781 7.140625 -29.1875 C 7.003906 -30.070312 6.75 -30.882812 6.375 -31.625 C 5.988281 -32.394531 5.59375 -32.878906 5.1875 -33.078125 C 4.78125 -33.273438 4.378906 -33.253906 3.984375 -33.015625 C 3.597656 -32.785156 3.234375 -32.390625 2.890625 -31.828125 C 2.554688 -31.273438 2.269531 -30.628906 2.03125 -29.890625 Z M 4.828125 -14.3125 C 5.128906 -14.34375 5.394531 -14.535156 5.625 -14.890625 C 5.863281 -15.253906 6.070312 -15.726562 6.25 -16.3125 C 6.4375 -16.90625 6.59375 -17.554688 6.71875 -18.265625 C 6.851562 -18.984375 6.960938 -19.691406 7.046875 -20.390625 C 6.203125 -20.265625 5.378906 -20.234375 4.578125 -20.296875 C 3.773438 -20.359375 3.050781 -20.535156 2.40625 -20.828125 C 2.46875 -20.078125 2.554688 -19.316406 2.671875 -18.546875 C 2.796875 -17.785156 2.953125 -17.078125 3.140625 -16.421875 C 3.328125 -15.773438 3.554688 -15.253906 3.828125 -14.859375 C 4.097656 -14.472656 4.429688 -14.289062 4.828125 -14.3125 Z M 4.828125 -14.3125 "/></g></g></g></svg>